<svg width="21" height="19" viewBox="0 0 21 19" fill="none" xmlns="http://www.w3.org/2000/svg">
<path d="M19.03 3.38938L20.464 1.95538L19.05 0.541385L17.617 1.97438C16.0469 0.716198 14.1001 0.0211431 12.0882 0.000474617C10.0763 -0.0201938 8.11561 0.63472 6.52 1.86039L7.94 3.30039C9.12639 2.45775 10.5448 2.00357 12 2.00039L12.01 2.00138V8.98139L16.963 13.9394C15.9852 14.9218 14.7378 15.5918 13.3788 15.8646C12.0199 16.1374 10.6105 16.0006 9.32933 15.4717C8.04816 14.9427 6.95282 14.0454 6.1821 12.8934C5.41139 11.7413 4.99998 10.3865 5 9.00039H8L4 5.00038L0 9.00039H3C2.99864 10.4385 3.34194 11.8561 4.00116 13.1343C4.66038 14.4125 5.6163 15.514 6.78886 16.3468C7.96142 17.1795 9.31646 17.7191 10.7405 17.9203C12.1645 18.1216 13.616 17.9787 14.9734 17.5036C16.3308 17.0284 17.5546 16.2349 18.5422 15.1895C19.5298 14.1441 20.2526 12.8772 20.6498 11.495C21.0471 10.1128 21.1073 8.65551 20.8255 7.24523C20.5437 5.83495 19.928 4.51275 19.03 3.38938Z" fill="#1E866F"/>
<path d="M3.73 3.91089L3.385 3.64356C3.03167 3.36917 2.71253 3.09686 2.4276 2.82665C2.14253 2.55655 2 2.25884 2 1.93352C2 1.66761 2.105 1.44554 2.315 1.26733C2.525 1.08911 2.78667 1 3.1 1C3.27667 1 3.44333 1.0318 3.6 1.09539C3.75667 1.15909 3.89 1.24611 4 1.35644C4.11 1.24611 4.24333 1.15909 4.4 1.09539C4.55667 1.0318 4.72333 1 4.9 1C5.21333 1 5.475 1.08911 5.685 1.26733C5.895 1.44554 6 1.66761 6 1.93352C6 2.25884 5.85833 2.55728 5.575 2.82885C5.29167 3.10042 4.97 3.37341 4.61 3.64781L4.27 3.91089C4.19333 3.9703 4.10333 4 4 4C3.89667 4 3.80667 3.9703 3.73 3.91089Z" fill="#1E866F"/>
</svg>
