<svg width="16" height="14" viewBox="0 0 16 14" fill="none" xmlns="http://www.w3.org/2000/svg">
<path d="M6.92 13.5842L5.54 12.3366C4.12667 11.0561 2.85013 9.78535 1.7104 8.52435C0.570133 7.26389 0 5.87459 0 4.35643C0 3.11551 0.42 2.07921 1.26 1.24752C2.1 0.415841 3.14667 0 4.4 0C5.10667 0 5.77333 0.148383 6.4 0.445148C7.02667 0.742442 7.56 1.14851 8 1.66337C8.44 1.14851 8.97333 0.742442 9.6 0.445148C10.2267 0.148383 10.8933 0 11.6 0C12.8533 0 13.9 0.415841 14.74 1.24752C15.58 2.07921 16 3.11551 16 4.35643C16 5.87459 15.4333 7.26733 14.3 8.53465C13.1667 9.80198 11.88 11.0759 10.44 12.3564L9.08 13.5842C8.77333 13.8614 8.41333 14 8 14C7.58667 14 7.22667 13.8614 6.92 13.5842Z" fill="#A1A1A1"/>
</svg>
