<svg width="9" height="10" viewBox="0 0 9 10" fill="none" xmlns="http://www.w3.org/2000/svg">
<path d="M6.06658 6.88882H3.26658C2.89527 6.88882 2.53918 7.01525 2.27663 7.24029C2.01408 7.46533 1.86658 7.77056 1.86658 8.08882V8.88882H2.79991V8.08882C2.79991 7.98273 2.84908 7.88099 2.93659 7.80598C3.02411 7.73096 3.14281 7.68882 3.26658 7.68882H6.06658C6.19034 7.68882 6.30904 7.73096 6.39656 7.80598C6.48408 7.88099 6.53324 7.98273 6.53324 8.08882V8.88882H7.46658V8.08882C7.46658 7.77056 7.31908 7.46533 7.05653 7.24029C6.79398 7.01525 6.43788 6.88882 6.06658 6.88882ZM4.66658 6.48882C5.03577 6.48882 5.39667 6.39498 5.70364 6.21917C6.01061 6.04336 6.24987 5.79347 6.39115 5.50111C6.53244 5.20875 6.5694 4.88704 6.49738 4.57667C6.42535 4.26631 6.24757 3.98121 5.98651 3.75745C5.72545 3.53368 5.39284 3.3813 5.03075 3.31956C4.66865 3.25783 4.29332 3.28951 3.95223 3.41061C3.61115 3.53171 3.31961 3.73679 3.1145 3.99991C2.90939 4.26303 2.79991 4.57237 2.79991 4.88882C2.79991 5.31317 2.99658 5.72013 3.34664 6.02019C3.69671 6.32025 4.17151 6.48882 4.66658 6.48882ZM4.66658 4.08882C4.85117 4.08882 5.03162 4.13574 5.18511 4.22364C5.3386 4.31155 5.45822 4.43649 5.52886 4.58267C5.59951 4.72885 5.61799 4.88971 5.58198 5.04489C5.54596 5.20008 5.45707 5.34262 5.32654 5.4545C5.19601 5.56639 5.02971 5.64258 4.84866 5.67345C4.66761 5.70432 4.47995 5.68847 4.30941 5.62792C4.13886 5.56737 3.99309 5.46483 3.89054 5.33328C3.78798 5.20172 3.73324 5.04704 3.73324 4.88882C3.73324 4.67665 3.83158 4.47316 4.00661 4.32313C4.18164 4.1731 4.41904 4.08882 4.66658 4.08882Z" fill="black" fill-opacity="0.7"/>
<path d="M7.72111 1.48901H6.70292V1.15568C6.70292 0.978869 6.63141 0.8093 6.50411 0.684276C6.37681 0.559252 6.20416 0.489014 6.02414 0.489014H3.30899C3.12896 0.489014 2.95631 0.559252 2.82901 0.684276C2.70171 0.8093 2.6302 0.978869 2.6302 1.15568V1.48901H1.61202C1.43199 1.48901 1.25934 1.55925 1.13204 1.68428C1.00474 1.8093 0.933228 1.97887 0.933228 2.15568V9.15568C0.933228 9.33249 1.00474 9.50206 1.13204 9.62708C1.25934 9.75211 1.43199 9.82235 1.61202 9.82235H7.72111C7.90113 9.82235 8.07378 9.75211 8.20108 9.62708C8.32838 9.50206 8.39989 9.33249 8.39989 9.15568V2.15568C8.39989 1.97887 8.32838 1.8093 8.20108 1.68428C8.07378 1.55925 7.90113 1.48901 7.72111 1.48901ZM3.30899 1.15568H6.02414V2.48901H3.30899V1.15568ZM7.72111 9.15568H1.61202V2.15568H2.6302V3.15568H6.70292V2.15568H7.72111V9.15568Z" fill="black" fill-opacity="0.7"/>
</svg>
