<svg width="21" height="15" viewBox="0 0 21 15" fill="none" xmlns="http://www.w3.org/2000/svg">
<path d="M10.5 0L0 4.02369L10.5 9.38848L15.501 6.83329L10.8095 5.36754C10.7129 5.41488 10.6071 5.43958 10.5 5.43982C10.3092 5.43982 10.1262 5.36236 9.99128 5.22449C9.85635 5.08662 9.78056 4.89962 9.78056 4.70464C9.78056 4.50966 9.85635 4.32267 9.99128 4.1848C10.1262 4.04693 10.3092 3.96947 10.5 3.96947L10.381 4.36472L11.2145 4.62676C11.2147 4.62762 11.2148 4.62848 11.2149 4.62933L12.4449 5.01369L19.4481 7.21549V7.77358C19.3512 7.84091 19.2719 7.93141 19.2171 8.03719C19.1622 8.14297 19.1335 8.26084 19.1333 8.38055C19.1334 8.50301 19.1635 8.6235 19.2208 8.73107C19.278 8.83864 19.3607 8.9299 19.4612 8.99654C19.1338 10.2613 19.1333 13.1308 19.1333 14.2619C19.8528 14.7395 19.8528 14.757 20.5722 14.2619C20.5722 13.1309 20.5718 10.262 20.2444 8.99695C20.345 8.93025 20.4277 8.83892 20.4849 8.73126C20.5422 8.6236 20.5722 8.50303 20.5722 8.38051C20.5722 8.26066 20.5435 8.14263 20.4886 8.03671C20.4338 7.93078 20.3544 7.84016 20.2574 7.77275V6.60474L17.5899 5.76605L21 4.02369L10.5 0ZM4.36778 7.3237L3.7777 10.9417C4.95467 11.0989 6.36257 11.798 7.65685 12.6246C8.39293 13.0948 9.08238 13.6108 9.64233 14.1115C9.98461 14.4175 10.2708 14.7111 10.5 15C10.7292 14.7111 11.0154 14.4175 11.3577 14.1115C11.9176 13.6108 12.607 13.0948 13.3431 12.6246C14.6374 11.798 16.0453 11.0989 17.2223 10.9417L16.6321 7.3237H16.3511L10.5 10.3132L4.64882 7.3237H4.36778Z" fill="#A2A2A2"/>
</svg>
