<svg width="10" height="10" viewBox="0 0 10 10" fill="none" xmlns="http://www.w3.org/2000/svg">
<path d="M3.18191 0.920742C3.5532 0.639553 4.00648 0.487892 4.47224 0.48901C4.63309 0.485403 4.79226 0.522426 4.93501 0.596654C5.07776 0.670881 5.19948 0.779915 5.28891 0.913665C5.37833 0.779915 5.50005 0.670881 5.6428 0.596654C5.78555 0.522426 5.94472 0.485403 6.10557 0.48901C6.57133 0.487892 7.02461 0.639553 7.39591 0.920742C7.68174 1.14287 7.90224 1.45047 7.98009 1.82232C8.15867 1.83593 8.32201 1.90997 8.45921 2.02158C8.66718 2.19035 8.81854 2.44351 8.91382 2.71137C9.06299 3.12786 9.10328 3.65868 8.94866 4.11055C8.98786 4.12906 9.02652 4.15084 9.06408 4.17589C9.21381 4.27552 9.32759 4.41816 9.41144 4.58639C9.57641 4.91577 9.64446 5.37526 9.64446 5.9333C9.64446 6.5545 9.40763 6.97153 9.10709 7.22905C8.9409 7.37154 8.74478 7.47481 8.53325 7.5312C8.47881 7.835 8.32636 8.1867 8.08735 8.48504C7.77702 8.87431 7.29573 9.19988 6.65002 9.19988C6.13824 9.19988 5.73099 8.91678 5.46639 8.63912C5.40313 8.57282 5.34387 8.50283 5.28891 8.42951C5.23395 8.50284 5.17468 8.57283 5.11142 8.63912C4.84682 8.91678 4.44012 9.19988 3.92779 9.19988C3.28208 9.19988 2.80134 8.87431 2.49046 8.48504C2.26711 8.20769 2.11413 7.88045 2.04456 7.5312C1.83303 7.47481 1.63691 7.37154 1.47072 7.22905C1.17018 6.97153 0.93335 6.55395 0.93335 5.9333C0.93335 5.37526 1.00195 4.91522 1.16637 4.58639C1.2443 4.4214 1.36405 4.27969 1.51373 4.17534C1.5505 4.151 1.58909 4.12952 1.62915 4.1111C1.47453 3.65813 1.51482 3.12786 1.66399 2.71137C1.75927 2.44351 1.91063 2.19035 2.11861 2.02158C2.25581 1.90997 2.41914 1.83647 2.59772 1.82232C2.67612 1.45047 2.89607 1.14287 3.18191 0.920742ZM5.01668 1.85008V1.84464L5.01559 1.81742C5.00758 1.67549 4.97935 1.53543 4.93175 1.40147C4.89786 1.30035 4.84017 1.20886 4.76352 1.1347C4.6831 1.06468 4.57875 1.0284 4.47224 1.03344C4.12757 1.03226 3.79193 1.1435 3.51619 1.3503C3.26357 1.54684 3.11113 1.81306 3.11113 2.1223C3.11109 2.16541 3.10082 2.20789 3.08116 2.24626C3.06149 2.28462 3.033 2.31777 2.99802 2.34296C2.96304 2.36816 2.92257 2.38469 2.87996 2.39119C2.83734 2.39769 2.79378 2.39398 2.75288 2.38036C2.65053 2.3466 2.55906 2.36566 2.46161 2.44406C2.35489 2.53116 2.25091 2.68578 2.17632 2.8943C2.02442 3.32004 2.04021 3.83562 2.24873 4.14921C2.27851 4.19387 2.29442 4.24634 2.29446 4.30002H2.70279C3.02768 4.30002 3.33927 4.42907 3.569 4.6588C3.79873 4.88853 3.92779 5.2001 3.92779 5.52498V5.70737C4.10942 5.77158 4.26251 5.89793 4.35998 6.0641C4.45746 6.23026 4.49305 6.42553 4.46048 6.6154C4.4279 6.80527 4.32925 6.97751 4.18196 7.10168C4.03467 7.22585 3.84822 7.29395 3.65557 7.29395C3.46292 7.29395 3.27648 7.22585 3.12919 7.10168C2.9819 6.97751 2.88324 6.80527 2.85067 6.6154C2.81809 6.42553 2.85368 6.23026 2.95116 6.0641C3.04864 5.89793 3.20172 5.77158 3.38335 5.70737V5.52498C3.38335 5.14933 3.07846 4.84444 2.70279 4.84444H1.75002C1.71747 4.84439 1.6852 4.83849 1.65474 4.82702L1.65311 4.83029C1.54531 5.04534 1.47779 5.40248 1.47779 5.9333C1.47779 6.40097 1.64929 6.66447 1.82515 6.81528C2.01407 6.97752 2.22368 7.02216 2.29446 7.02216C2.36666 7.02216 2.4359 7.05084 2.48695 7.10189C2.538 7.15294 2.56668 7.22218 2.56668 7.29438C2.56668 7.49473 2.67557 7.84479 2.91513 8.14532C3.14869 8.43659 3.48462 8.65545 3.92779 8.65545C4.23268 8.65545 4.50599 8.48504 4.71724 8.26346C4.82123 8.15458 4.90235 8.04188 4.95516 7.94933C4.9792 7.90828 4.99978 7.8653 5.01668 7.82084V3.48337H4.42596C4.36174 3.665 4.23539 3.81807 4.06922 3.91555C3.90305 4.01302 3.70777 4.04862 3.5179 4.01604C3.32803 3.98346 3.15578 3.88481 3.03161 3.73753C2.90744 3.59024 2.83933 3.4038 2.83933 3.21116C2.83933 3.01851 2.90744 2.83207 3.03161 2.68479C3.15578 2.5375 3.32803 2.43885 3.5179 2.40627C3.70777 2.3737 3.90305 2.40929 4.06922 2.50677C4.23539 2.60424 4.36174 2.75732 4.42596 2.93894H5.01668V1.85008ZM5.56113 7.29383V7.8203C5.57804 7.86476 5.59861 7.90773 5.62265 7.94878C5.676 8.04133 5.75658 8.15403 5.86003 8.26292C6.07182 8.4845 6.34567 8.65491 6.65002 8.65491C7.09319 8.65491 7.42912 8.43605 7.66268 8.14478C7.90224 7.84425 8.01113 7.49418 8.01113 7.29383C8.01113 7.22164 8.03981 7.1524 8.09086 7.10135C8.14191 7.0503 8.21115 7.02162 8.28335 7.02162C8.35413 7.02162 8.56374 6.97697 8.75266 6.81473C8.92852 6.66393 9.10002 6.40042 9.10002 5.93276C9.10002 5.40194 9.03196 5.04534 8.92471 4.82974C8.88882 4.74946 8.8325 4.68001 8.76137 4.62831C8.70007 4.58912 8.62828 4.56956 8.55557 4.57223C8.50633 4.5722 8.45802 4.55882 8.41578 4.53351C8.37354 4.5082 8.33896 4.47191 8.31572 4.4285C8.29248 4.38509 8.28145 4.33619 8.2838 4.28701C8.28615 4.23783 8.3018 4.1902 8.32908 4.14921C8.53815 3.83562 8.55339 3.32004 8.40149 2.8943C8.32691 2.68578 8.22292 2.53062 8.11621 2.44406C8.01875 2.36566 7.92728 2.34606 7.82493 2.38036C7.78403 2.39398 7.74047 2.39769 7.69785 2.39119C7.65524 2.38469 7.61477 2.36816 7.57979 2.34296C7.54481 2.31777 7.51632 2.28462 7.49665 2.24626C7.47699 2.20789 7.46672 2.16541 7.46668 2.1223C7.46668 1.81306 7.31424 1.54684 7.06107 1.3503C6.78549 1.14361 6.45005 1.03238 6.10557 1.03344C5.99906 1.0284 5.89471 1.06468 5.81429 1.1347C5.73741 1.20877 5.67952 1.30028 5.64552 1.40147C5.59368 1.54368 5.56519 1.69333 5.56113 1.84464V6.74995H5.96946C6.34513 6.74995 6.65002 6.44507 6.65002 6.06941V5.07038C6.46839 5.00617 6.3153 4.87981 6.21783 4.71365C6.12035 4.54749 6.08476 4.35222 6.11733 4.16235C6.14991 3.97248 6.24856 3.80024 6.39585 3.67607C6.54314 3.5519 6.72959 3.4838 6.92224 3.4838C7.11489 3.4838 7.30133 3.5519 7.44862 3.67607C7.59591 3.80024 7.69457 3.97248 7.72714 4.16235C7.75972 4.35222 7.72413 4.54749 7.62665 4.71365C7.52917 4.87981 7.37609 5.00617 7.19446 5.07038V6.06941C7.19446 6.39429 7.0654 6.70587 6.83567 6.93559C6.60593 7.16532 6.29435 7.29438 5.96946 7.29438H5.56113V7.29383ZM3.38335 3.21116C3.38335 3.28335 3.41203 3.35259 3.46308 3.40364C3.51413 3.45469 3.58337 3.48337 3.65557 3.48337C3.72777 3.48337 3.79701 3.45469 3.84806 3.40364C3.89911 3.35259 3.92779 3.28335 3.92779 3.21116C3.92779 3.13896 3.89911 3.06972 3.84806 3.01867C3.79701 2.96762 3.72777 2.93894 3.65557 2.93894C3.58337 2.93894 3.51413 2.96762 3.46308 3.01867C3.41203 3.06972 3.38335 3.13896 3.38335 3.21116ZM6.92224 4.57223C6.99444 4.57223 7.06368 4.54355 7.11473 4.4925C7.16578 4.44145 7.19446 4.37221 7.19446 4.30002C7.19446 4.22782 7.16578 4.15858 7.11473 4.10753C7.06368 4.05648 6.99444 4.0278 6.92224 4.0278C6.85004 4.0278 6.7808 4.05648 6.72975 4.10753C6.6787 4.15858 6.65002 4.22782 6.65002 4.30002C6.65002 4.37221 6.6787 4.44145 6.72975 4.4925C6.7808 4.54355 6.85004 4.57223 6.92224 4.57223ZM3.65557 6.20552C3.58337 6.20552 3.51413 6.2342 3.46308 6.28525C3.41203 6.3363 3.38335 6.40554 3.38335 6.47773C3.38335 6.54993 3.41203 6.61917 3.46308 6.67022C3.51413 6.72127 3.58337 6.74995 3.65557 6.74995C3.72777 6.74995 3.79701 6.72127 3.84806 6.67022C3.89911 6.61917 3.92779 6.54993 3.92779 6.47773C3.92779 6.40554 3.89911 6.3363 3.84806 6.28525C3.79701 6.2342 3.72777 6.20552 3.65557 6.20552Z" fill="black" fill-opacity="0.7"/>
</svg>
