<svg xmlns="http://www.w3.org/2000/svg" width="35" height="35" viewBox="0 0 35 35">
    <g data-name="Group 76787">
        <g data-name="Group 74876" transform="translate(-5724 -2495)">
            <rect data-name="Rectangle 3989" width="35" height="35" rx="17.5" transform="translate(5724 2495)" style="opacity:.06;fill:#1e866f"/>
        </g>
        <g data-name="Group 76786">
            <path data-name="Path 68478" d="M-339.874 228.5v-9.541h9.5a3.884 3.884 0 0 1-.767-3.665 5.083 5.083 0 0 1 1.936-2.731 4.253 4.253 0 0 1 5.377.179 5.038 5.038 0 0 1 1.791 2.918 3.852 3.852 0 0 1-.85 3.286h4.524v9.195c0 .12.009.239.014.359h-1.664c0-.111-.014-.221-.014-.331v-7.533h-2.031a.262.262 0 0 0-.009.053 1.071 1.071 0 0 0 .022.108 1.811 1.811 0 0 1-.654 2.055 4.417 4.417 0 0 1-1.22.69c-.593.215-1.223.327-1.856.488v1.874h3.209v2.6h-1.664v-.926h-4.826v.926h-1.664v-2.62h3.239v-1.9c-.3-.049-.585-.085-.864-.143a4.8 4.8 0 0 1-2.252-1 1.86 1.86 0 0 1-.674-1.856c.022-.116.055-.229.085-.349h-7.024v7.864zm13.233-9.556a3.4 3.4 0 0 0 2.043-.66 2.268 2.268 0 0 0 .8-2.732 3.475 3.475 0 0 0-1.442-1.773 2.375 2.375 0 0 0-1.744-.388 3.235 3.235 0 0 0-2.565 2.405 2.113 2.113 0 0 0 .63 2.274 3.283 3.283 0 0 0 2.278.878zm0 1.667c-.692 0-1.386.025-2.076-.009a.9.9 0 0 0-.864.559.289.289 0 0 0 .092.433 4.414 4.414 0 0 0 .776.412 6.186 6.186 0 0 0 3.489.182 7.611 7.611 0 0 0 1.4-.56.4.4 0 0 0 .191-.3.926.926 0 0 0-.762-.715q-1.127 0-2.248.002z" transform="translate(346.927 -198.753)" style="fill:#1e866f"/>
            <path data-name="Path 68479" d="M-381.855 72.341a24.416 24.416 0 0 1-4.059-3.692 13.425 13.425 0 0 1-2.469-3.918 6.985 6.985 0 0 1 5.516-9.473 7.022 7.022 0 0 1 7.961 6.217 7.632 7.632 0 0 1-1.086 4.586 18.554 18.554 0 0 1-4.206 4.932c-.537.466-1.102.898-1.657 1.348zm-.041-2.078a.664.664 0 0 0 .092-.049 17.52 17.52 0 0 0 4.116-4.454 6.967 6.967 0 0 0 1.15-3.313 5.342 5.342 0 0 0-6.992-5.327 5.34 5.34 0 0 0-3.237 7.228 15.373 15.373 0 0 0 4.867 5.916z" transform="translate(392.292 -53.837)" style="fill:#1e866f"/>
            <path data-name="Path 68480" d="M-329.332 105.267a2.569 2.569 0 0 1 1.674-2.413 2.6 2.6 0 0 1 2.927.8 2.583 2.583 0 0 1-.844 3.94c-.262.128-.395.262-.341.552a.538.538 0 0 1-.019.148h-1.623v-2.072h.753a.935.935 0 0 0 .989-.907.941.941 0 0 0-.849-.962.926.926 0 0 0-1.015.842c0 .018-.01.035-.02.07z" transform="translate(337.167 -97.823)" style="fill:#1e866f"/>
            <path data-name="Path 68481" d="M-303.7 196.179v1.631h-1.628v-1.631z" transform="translate(314.94 -184.385)" style="fill:#1e866f"/>
        </g>
    </g>
</svg>
