<svg xmlns="http://www.w3.org/2000/svg" xmlns:xlink="http://www.w3.org/1999/xlink" width="37" height="37" viewBox="0 0 37 37"><defs><clipPath id="b"><rect width="37" height="37"/></clipPath></defs><g id="a" clip-path="url(#b)"><g transform="translate(-315 -432.75)"><rect width="35" height="35" rx="17.5" transform="translate(317 434.75)" fill="#1e866f" opacity="0.06"/><g transform="translate(-470.254 933.201)"><path d="M816.953-475.807c-.045.241-.084.483-.136.722a5.767,5.767,0,0,1-7.076,4.357.64.64,0,0,0-.474.045,16.074,16.074,0,0,1-7.4,1.672,16.262,16.262,0,0,1-7.046-1.867c-.642-.327-1.256-.709-1.884-1.066a.605.605,0,0,1-.328-.494,11.063,11.063,0,0,1,.746-5.3,8.666,8.666,0,0,1,5.017-4.925c.064-.025.127-.054.195-.082-.234-.345-.479-.667-.681-1.014a6.779,6.779,0,0,1-.812-5.377,5.012,5.012,0,0,1,4.525-3.734,5.8,5.8,0,0,1,3.492.691,4.994,4.994,0,0,1,2.517,4.062,7.1,7.1,0,0,1-1.579,5.2c-.038.049-.073.1-.121.167a7.934,7.934,0,0,1,.741.322q.8.445,1.575.929a.326.326,0,0,0,.378.032,5.771,5.771,0,0,1,8.307,4.457,2.049,2.049,0,0,0,.044.2Zm-9.548-4.878a8.238,8.238,0,0,0-2.142-1.07.459.459,0,0,0-.494.086,4.041,4.041,0,0,1-2.434.96,4.169,4.169,0,0,1-2.687-1,.4.4,0,0,0-.312-.069,7.43,7.43,0,0,0-3.052,1.737,8.651,8.651,0,0,0-2.562,7.1.346.346,0,0,0,.158.231c.493.288.985.578,1.493.838a15.428,15.428,0,0,0,5.544,1.676,13.6,13.6,0,0,0,5.339-.547c.617-.189,1.221-.419,1.889-.651a5.745,5.745,0,0,1-2.712-4.466A5.692,5.692,0,0,1,807.406-480.685Zm-9.432-6.709a6.321,6.321,0,0,0,2.283,4.694,3.158,3.158,0,0,0,1.754.838,2.758,2.758,0,0,0,2.042-.694,6.243,6.243,0,0,0,2.444-4.682,4.3,4.3,0,0,0-.983-3.125,4.112,4.112,0,0,0-3.382-1.389,4.166,4.166,0,0,0-2.637.883A4.3,4.3,0,0,0,797.974-487.394Zm13.2,15.706a4.631,4.631,0,0,0,4.638-4.6,4.642,4.642,0,0,0-4.618-4.652,4.634,4.634,0,0,0-4.633,4.609A4.621,4.621,0,0,0,811.172-471.689Z" transform="translate(0 0)" fill="#1e866f"/><path d="M109.171,713.088h3.054c.091,0,.182,0,.272,0a.361.361,0,0,1,.006.721c-.1.008-.2,0-.324,0,0,.329,0,.644,0,.959,0,.091,0,.182,0,.272a.362.362,0,1,1-.722.013c-.01-.325,0-.65,0-.976,0-.081,0-.163,0-.255h-.363c0,.209,0,.418,0,.627,0,.288-.137.452-.364.448s-.358-.171-.361-.457c0-.2,0-.4,0-.63-.383,0-.744-.007-1.1.009-.049,0-.115.115-.137.187a2,2,0,1,1-.005-1.124C109.133,712.944,109.147,713,109.171,713.088Zm-.7.36a1.259,1.259,0,1,0-1.272,1.266A1.266,1.266,0,0,0,108.47,713.448Z" transform="translate(1525.056 -585.177) rotate(90)" fill="#1e866f"/></g></g></g></svg>