<svg xmlns="http://www.w3.org/2000/svg" xmlns:xlink="http://www.w3.org/1999/xlink" width="37" height="37" viewBox="0 0 37 37"><defs><clipPath id="b"><rect width="37" height="37"/></clipPath></defs><g id="a" clip-path="url(#b)"><g transform="translate(-294 -296.25)"><g transform="translate(299.857 303.858)"><rect width="25" height="25" rx="12.5" transform="translate(0.142 0.142)" fill="#1e866f" opacity="0.06"/></g><g transform="translate(794.817 421.412)"><path d="M-302.635,41.967a.584.584,0,0,1-.238-.544c.011-.773.006,1.454,0,.681a1.555,1.555,0,0,0-1.076-1.563c-1.058-.395-2.106-.826-3.184-1.159a4.951,4.951,0,0,0-3.545.18c-.8.35-1.614.664-2.423.991a1.526,1.526,0,0,0-1.028,1.5c-.011.8-.008,1.593,0,2.389a.523.523,0,0,1-.272.525h-.234a.525.525,0,0,1-.249-.512c.01-.773,0-1.546,0-2.319a2.313,2.313,0,0,1,1.555-2.3c.823-.334,1.643-.675,2.469-1a.282.282,0,0,0,.208-.289c.02-.366.07-.73.09-1.1a.378.378,0,0,0-.1-.259,2.854,2.854,0,0,1-.892-2.141c0-.632,0-1.265,0-1.9a2.85,2.85,0,0,1,3.106-3.008,2.794,2.794,0,0,1,2.68,1.589,2.882,2.882,0,0,1,.281,1.1c.035.872.024,1.748-.014,2.621a2.47,2.47,0,0,1-.8,1.671.436.436,0,0,0-.156.425,9.438,9.438,0,0,1,.1,1.071.3.3,0,0,0,.242.309c.8.291,1.59.6,2.387.893a2.3,2.3,0,0,1,1.56,1.829.364.364,0,0,0,.039.082v.234Zm-8.157-7.9h0c0,.344,0,.687,0,1.031a2.05,2.05,0,0,0,.75,1.623.918.918,0,0,0,.521.2c.678.023,1.358.022,2.037,0a.911.911,0,0,0,.508-.182,1.774,1.774,0,0,0,.728-1.289,25.691,25.691,0,0,0,.022-2.619,1.849,1.849,0,0,0-1.386-1.8,3.657,3.657,0,0,0-1.268-.116,2.01,2.01,0,0,0-1.907,2.027C-310.8,33.321-310.792,33.7-310.792,34.07Zm.9,4.45a6.719,6.719,0,0,1,2.8.075c-.027-.262-.054-.486-.072-.71a.206.206,0,0,0-.225-.215q-1.1,0-2.2,0a.225.225,0,0,0-.246.227C-309.86,38.088-309.874,38.281-309.894,38.52Z" transform="translate(-168.2 -137.379)" fill="#1e866f"/><path d="M-307.573-109.5c-.049.112-.09.229-.149.336a1.084,1.084,0,0,1-.954.617c-.25.008-.5.005-.749.005h-7.682a1.192,1.192,0,0,1-1.339-1.342c0-.219-.009-.438,0-.656a.262.262,0,0,0-.173-.287c-.532-.261-1.055-.539-1.585-.8a.794.794,0,0,1-.5-.754.8.8,0,0,1,.5-.75c.53-.264,1.054-.541,1.585-.8a.25.25,0,0,0,.168-.265c-.01-.328-.007-.656,0-.984a1.167,1.167,0,0,1,1.219-1.2h8.362a1.149,1.149,0,0,1,1.256.925.3.3,0,0,0,.036.059Zm-12.422-2.88c.105.058.17.1.237.131.6.307,1.19.618,1.789.919a.446.446,0,0,1,.274.446c-.006.359,0,.718,0,1.077s.143.513.509.514q4.18,0,8.361,0c.35,0,.5-.147.5-.5q0-2.67,0-5.341c0-.358-.158-.508-.516-.508h-8.337c-.371,0-.518.147-.52.527,0,.4-.008.8,0,1.195a.489.489,0,0,1-.3.5c-.593.295-1.179.6-1.768.909C-319.83-112.47-319.893-112.432-319.995-112.375Z" transform="translate(-162.747 -0.024)" fill="#1e866f"/><path d="M-482.92-104.712c.2,0,.37,0,.54,0a.906.906,0,0,1,.954,1.106c-.178,1.133-.388,2.261-.585,3.39-.068.392-.134.785-.21,1.175a1.289,1.289,0,0,1-1.261,1.051q-4.042,0-8.083,0a.925.925,0,0,1-.986-.782c-.07-.28-.143-.559-.206-.841-.08-.357.066-.541.432-.544.539,0,1.078-.008,1.617,0,.189,0,.267-.037.3-.244.174-1.078.37-2.153.556-3.229a1.276,1.276,0,0,1,.738-.99c.053-.026.124-.089.125-.136.009-.512.006-1.024.006-1.59l-.792.578c-.082.06-.161.124-.246.18a.378.378,0,0,1-.626-.212c-.18-.548-.349-1.1-.524-1.65-.025-.08-.055-.158-.092-.267-.57.256-1.137.475-1.669.761a1.252,1.252,0,0,0-.627,1.183q0,2.25,0,4.5c0,.39-.113.562-.37.564s-.38-.172-.38-.555q0-2.215,0-4.429a2.119,2.119,0,0,1,1.4-2.118c.5-.211,1.016-.407,1.5-.66a3.226,3.226,0,0,0,.783-.617c.1-.1.069-.309.11-.466a.693.693,0,0,0-.214-.742,2.085,2.085,0,0,1-.6-1.439,19.161,19.161,0,0,1,.028-2.433,2.4,2.4,0,0,1,2.1-2.19,2.883,2.883,0,0,1,2.537.65,2.249,2.249,0,0,1,.769,1.608c.033.856.02,1.717-.027,2.573a2.079,2.079,0,0,1-.689,1.373.442.442,0,0,0-.121.366,1.441,1.441,0,0,0,1.053,1.378c.475.217.959.414,1.437.626a2.087,2.087,0,0,1,1.329,2.045C-482.919-105.408-482.92-105.08-482.92-104.712Zm-2.583.75c-1.023,0-2.046,0-3.069,0a.478.478,0,0,0-.54.463q-.381,2.179-.762,4.358c-.054.309.022.4.332.4h5.975a.551.551,0,0,0,.624-.5q.388-2.178.763-4.357c.056-.322.012-.365-.325-.365Zm-1.095-8.85a2.507,2.507,0,0,1-2.581-.885,1.46,1.46,0,0,1-1.42.476c0,.48-.029.942.006,1.4a2.258,2.258,0,0,0,1.384,1.809.783.783,0,0,0,.271.069,2.135,2.135,0,0,0,2.247-1.563A9.676,9.676,0,0,0-486.6-112.812Zm.632,5.1c-.2.619-.386,1.212-.576,1.805-.148.463-.362.533-.756.248l-.921-.666v1.6h4.546c0-.389.011-.763,0-1.137a1.272,1.272,0,0,0-.759-1.173C-484.926-107.272-485.431-107.479-485.965-107.713Zm-4.6-6.289a.81.81,0,0,0,1.035-.542c.079-.159.193-.3.37-.26a.582.582,0,0,1,.342.263,1.761,1.761,0,0,0,2.059.984.226.226,0,0,0,.133-.164,1.761,1.761,0,0,0-1.4-1.875,2.523,2.523,0,0,0-1.319.038A1.67,1.67,0,0,0-490.567-114Zm.743,4.544c.016.2-.028.394.049.489.366.452.765.877,1.164,1.325.349-.394.673-.785,1.026-1.147a.531.531,0,0,0,.125-.638A2.7,2.7,0,0,1-489.824-109.458Zm.659,2.315-1.135-1.277c-.1.16-.277.309-.253.408.126.512.3,1.011.469,1.538Zm1.106,0,.912.667c.146-.456.282-.876.416-1.3.116-.365.115-.365-.245-.591Zm-3.871,7.748c.043.182.074.35.126.511.018.056.087.134.134.135.345.012.69.006,1.017.006.013-.239.025-.444.037-.652Z" transform="translate(0)" fill="#1e866f"/><path d="M-458.41,84.169c0,.389,0,.779,0,1.168,0,.282-.138.445-.365.45s-.383-.163-.383-.454q0-1.18,0-2.36c0-.276.144-.438.375-.438s.37.163.373.441C-458.408,83.374-458.41,83.771-458.41,84.169Z" transform="translate(-32.953 -186.494)" fill="#1e866f"/><path d="M-244.151-85.5c-.913,0-1.826,0-2.739,0-.284,0-.429-.14-.418-.386a.332.332,0,0,1,.288-.345,1.382,1.382,0,0,1,.256-.017h5.268a1.568,1.568,0,0,1,.187.005.357.357,0,0,1,.349.39.343.343,0,0,1-.381.352C-242.278-85.5-243.215-85.5-244.151-85.5Z" transform="translate(-231.542 -28.276)" fill="#1e866f"/><path d="M-244.185-59.623c.913,0,1.826,0,2.739,0,.278,0,.422.123.425.355a.346.346,0,0,1-.3.382.987.987,0,0,1-.186.011h-5.362c-.3,0-.449-.089-.49-.294a.362.362,0,0,1,.391-.454c.741,0,1.483,0,2.224,0Z" transform="translate(-231.483 -53.233)" fill="#1e866f"/><path d="M-245.3-32.441c-.531,0-1.062,0-1.593,0-.274,0-.418-.128-.422-.36s.142-.386.425-.387q1.6-.005,3.21,0c.28,0,.44.146.439.378s-.157.368-.441.369C-244.224-32.44-244.762-32.441-245.3-32.441Z" transform="translate(-231.535 -78.01)" fill="#1e866f"/><path d="M-361.746,118.4a.373.373,0,0,1-.376.368.383.383,0,0,1-.369-.379.379.379,0,0,1,.38-.367A.369.369,0,0,1-361.746,118.4Z" transform="translate(-123.57 -219.756)" fill="#1e866f"/></g></g></g></svg>