<svg xmlns="http://www.w3.org/2000/svg" xmlns:xlink="http://www.w3.org/1999/xlink" width="37" height="37" viewBox="0 0 37 37"><defs><clipPath id="b"><rect width="37" height="37"/></clipPath></defs><g id="a" clip-path="url(#b)"><g transform="translate(-315 -569.75)"><g transform="translate(0 32.75)"><rect width="35" height="35" rx="17.5" transform="translate(317 538)" fill="#1e866f" opacity="0.06"/></g><path d="M-1116.468,597.609a1.05,1.05,0,0,1,1.118-.678q7.5.019,15.005,0a.9.9,0,0,1,.832.334,1.187,1.187,0,0,1,.192.586c.022.771.01,1.543.008,2.314,0,.3-.142.475-.373.478s-.387-.183-.388-.5c0-.721-.008-1.441,0-2.162,0-.217-.056-.294-.285-.294q-7.528.009-15.057,0c-.24,0-.3.078-.3.308q.008,11.559,0,23.119c0,.232.061.308.3.306,1.467-.01,2.933-.005,4.4,0a1.082,1.082,0,0,1,.3.03.341.341,0,0,1,.258.387.344.344,0,0,1-.32.338,1.773,1.773,0,0,1-.254.007c-1.441,0-2.883-.015-4.324.008a1.043,1.043,0,0,1-1.118-.678Z" transform="translate(1441.048 -21.923)" fill="#1e866f"/><path d="M-1007.182,683.524a8.193,8.193,0,0,1-1.384-4.182h-1.668c-.1,0-.2,0-.305,0a.376.376,0,0,1-.405-.364.38.38,0,0,1,.406-.394c.509-.008,1.017,0,1.526,0h.445a8.209,8.209,0,0,1,1.4-4.178h-.341q-1.488,0-2.975,0c-.217,0-.386-.065-.444-.294a.37.37,0,0,1,.39-.468c.407-.008.814,0,1.221,0,.848,0,1.7,0,2.543,0a.44.44,0,0,0,.286-.105,8.21,8.21,0,0,1,4.523-2.56c0-.082.013-.172.013-.262q0-1.043,0-2.085c0-.211.05-.392.272-.466.261-.086.487.1.489.414.005.661,0,1.322,0,1.984v.3a8.083,8.083,0,0,1,7.008,2.932,7.781,7.781,0,0,1,1.869,5.5,7.89,7.89,0,0,1-2.769,5.794,8.041,8.041,0,0,1-6.109,2c0,.209.005.4,0,.594a.855.855,0,0,1-.885.883q-4.336.007-8.671,0c-.285,0-.443-.141-.444-.375s.173-.386.492-.386h6.586c.636,0,1.271,0,1.907,0,.181,0,.256-.049.258-.243.007-.564.014-.563-.525-.7a8.044,8.044,0,0,1-3.949-2.376.506.506,0,0,0-.414-.185c-1.178.007-2.356,0-3.535,0a1.84,1.84,0,0,1-.254-.009.341.341,0,0,1-.315-.342.34.34,0,0,1,.266-.382,1.2,1.2,0,0,1,.3-.028q1.437,0,2.874,0Zm6.733,2.815a7.389,7.389,0,0,0,7.383-7.346,7.374,7.374,0,0,0-7.352-7.4,7.379,7.379,0,0,0-7.4,7.354A7.382,7.382,0,0,0-1000.449,686.339Z" transform="translate(1342.927 -88.288)" fill="#1e866f"/><path d="M-1082.759,631.647c.3,0,.593,0,.889,0a1.043,1.043,0,0,1,.349.047.484.484,0,0,0,.507-.011c.084-.054.31.024.416.111a.29.29,0,0,1,0,.452c-.29.225-.265.516-.261.82.007.474.006.948,0,1.422a.915.915,0,0,1-.935.957c-.643.011-1.287.013-1.93,0a.9.9,0,0,1-.919-.92q-.02-.977,0-1.955a.909.909,0,0,1,.942-.924C-1083.385,631.641-1083.072,631.647-1082.759,631.647Zm.91.763h-1.814a.192.192,0,0,0-.218.219q0,.915,0,1.83c0,.16.078.23.235.23.6,0,1.2,0,1.8-.007.073,0,.206-.082.208-.13.017-.4.01-.8.01-1.2a8.185,8.185,0,0,0-.835.78.36.36,0,0,1-.522.068,3.435,3.435,0,0,1-.5-.5.334.334,0,0,1,.048-.481.357.357,0,0,1,.486-.032,1.972,1.972,0,0,1,.169.14Z" transform="translate(1411.392 -54.278)" fill="#1e866f"/><path d="M-1081.206,704.455a.9.9,0,0,1,.106-.08.356.356,0,0,1,.484.057.325.325,0,0,1,.005.5.818.818,0,0,0-.249.749c.009.491.006.982,0,1.473a.914.914,0,0,1-.955.961q-.94.007-1.88,0a.9.9,0,0,1-.949-.914c-.014-.652-.013-1.3,0-1.956a.9.9,0,0,1,.914-.924c.643-.019,1.287-.015,1.93,0A3.165,3.165,0,0,1-1081.206,704.455Zm-.415,1.58-.069-.038q-.385.4-.771.8a.362.362,0,0,1-.522.074,3.31,3.31,0,0,1-.5-.5.337.337,0,0,1,.042-.483.354.354,0,0,1,.485-.038,1.189,1.189,0,0,1,.146.126l.9-.9c-.581,0-1.179-.007-1.777.009a.286.286,0,0,0-.189.2q-.023.927,0,1.855a.282.282,0,0,0,.195.2q.927.023,1.855,0a.283.283,0,0,0,.195-.195C-1081.61,706.779-1081.62,706.407-1081.62,706.035Z" transform="translate(1411.395 -122.002)" fill="#1e866f"/><path d="M-1080.852,779.127c0,.322.005.644,0,.965a.9.9,0,0,1-.921.914q-.978.01-1.956,0a.883.883,0,0,1-.9-.876q-.026-1.015,0-2.032a.863.863,0,0,1,.854-.869q1.041-.031,2.082,0a.882.882,0,0,1,.846.881c0,.017,0,.034,0,.051Q-1080.852,778.644-1080.852,779.127Zm-.763-.014c0-.287-.008-.575,0-.862.007-.2-.074-.274-.267-.273q-.862.007-1.725,0c-.188,0-.28.063-.278.265.006.583,0,1.167,0,1.75,0,.181.069.258.256.256.583-.007,1.167-.008,1.75,0,.2,0,.269-.082.263-.274C-1081.622,779.688-1081.615,779.4-1081.615,779.113Z" transform="translate(1411.39 -189.954)" fill="#1e866f"/><path d="M-1082.737,850.072c.322,0,.644,0,.965,0a.9.9,0,0,1,.916.918q.012.978,0,1.956a.891.891,0,0,1-.9.908q-.99.019-1.981,0a.884.884,0,0,1-.9-.9c-.013-.66-.014-1.321,0-1.981a.891.891,0,0,1,.936-.9C-1083.381,850.069-1083.059,850.072-1082.737,850.072Zm1.121,1.888c0-.288-.006-.577,0-.865,0-.178-.053-.265-.247-.263q-.89.01-1.78,0c-.179,0-.241.078-.241.245q0,.89,0,1.78c0,.174.079.24.248.239q.89-.006,1.78,0c.174,0,.243-.074.239-.247C-1081.622,852.554-1081.617,852.257-1081.617,851.96Z" transform="translate(1411.392 -257.86)" fill="#1e866f"/><path d="M-1003.756,676.429h3.306c.32,0,.5.138.5.377s-.185.385-.5.385q-3.306,0-6.612,0c-.31,0-.49-.154-.482-.4s.174-.364.482-.364Z" transform="translate(1339.527 -96.019)" fill="#1e866f"/><path d="M-1006.585,801.7c-.185,0-.371.005-.557,0a.372.372,0,0,1-.4-.366.364.364,0,0,1,.357-.385c.413-.016.827-.016,1.239,0a.363.363,0,0,1,.361.38.377.377,0,0,1-.395.373h-.607Z" transform="translate(1339.522 -212.065)" fill="#1e866f"/><path d="M-1006.584,874.549c-.195,0-.391.01-.585,0a.373.373,0,0,1-.379-.392.366.366,0,0,1,.385-.359q.6-.015,1.195,0a.362.362,0,0,1,.379.364.379.379,0,0,1-.384.39.5.5,0,0,1-.051,0h-.559Z" transform="translate(1339.53 -279.966)" fill="#1e866f"/><path d="M-1006.553,728.942c-.2,0-.405.006-.608,0a.37.37,0,0,1-.383-.358.371.371,0,0,1,.372-.4q.607-.018,1.215,0a.369.369,0,0,1,.37.4.379.379,0,0,1-.385.358h-.582Z" transform="translate(1339.526 -144.25)" fill="#1e866f"/><path d="M-1006.551,655.518c.194,0,.389-.008.582,0a.372.372,0,0,1,.373.369.366.366,0,0,1-.357.385q-.62.02-1.24,0a.368.368,0,0,1-.361-.382.37.37,0,0,1,.371-.371C-1006.973,655.511-1006.762,655.518-1006.551,655.518Z" transform="translate(1339.536 -76.526)" fill="#1e866f"/><path d="M-938.851,734.4a6.4,6.4,0,0,1,6.575,6.911,6.334,6.334,0,0,1-5.617,5.7,6.31,6.31,0,0,1-6.913-5.225c-.05-.282.065-.485.3-.525.219-.038.389.105.445.38A5.426,5.426,0,0,0-940,746.092a5.53,5.53,0,0,0,6.924-4.592,5.563,5.563,0,0,0-4.514-6.242,5.558,5.558,0,0,0-6.442,4.418c-.01.05-.021.1-.035.148a.385.385,0,0,1-.432.3.361.361,0,0,1-.3-.451,9.414,9.414,0,0,1,.541-1.684A6.144,6.144,0,0,1-938.851,734.4Z" transform="translate(1281.062 -150.053)" fill="#1e866f"/><path d="M-869.4,775.838c0,.144.009.289,0,.432-.028.369-.016.678.394.891a.993.993,0,0,1,.444.871.848.848,0,0,0,.1.354c.243.426.5.843.752,1.266a.663.663,0,0,1-.246,1.016c-.151.094-.3.186-.458.273a.658.658,0,0,1-.961-.242c-.262-.425-.51-.859-.775-1.282a.886.886,0,0,0-.262-.257,1.229,1.229,0,0,1-.616-1.124A1.147,1.147,0,0,1-870.37,777a.323.323,0,0,0,.206-.348c-.009-.567-.005-1.135,0-1.7,0-.306.134-.467.378-.466s.38.166.384.467S-869.4,775.542-869.4,775.838Zm-.407,2.718a.467.467,0,0,0,.474-.456.464.464,0,0,0-.469-.486.465.465,0,0,0-.463.468A.469.469,0,0,0-869.811,778.557Zm1.436,1.47-.6-1-.376.229.6,1Z" transform="translate(1212.291 -187.408)" fill="#1e866f"/><path d="M-792.772,822.528a.379.379,0,0,1-.388-.377.378.378,0,0,1,.357-.382.387.387,0,0,1,.4.364A.387.387,0,0,1-792.772,822.528Z" transform="translate(1139.711 -231.481)" fill="#1e866f"/><path d="M-857.975,756.867a.381.381,0,0,1-.372.374.393.393,0,0,1-.384-.394.377.377,0,0,1,.4-.367A.364.364,0,0,1-857.975,756.867Z" transform="translate(1200.826 -170.63)" fill="#1e866f"/><path d="M-857.907,887.8a.367.367,0,0,1-.366-.374.381.381,0,0,1,.385-.387.4.4,0,0,1,.373.381A.38.38,0,0,1-857.907,887.8Z" transform="translate(1200.399 -292.315)" fill="#1e866f"/><path d="M-923.568,821.765a.376.376,0,0,1,.385.359.375.375,0,0,1-.369.4.389.389,0,0,1-.393-.384A.391.391,0,0,1-923.568,821.765Z" transform="translate(1261.606 -231.479)" fill="#1e866f"/><path d="M-825.324,766.072a.38.38,0,0,1-.377-.369.381.381,0,0,1,.383-.387.365.365,0,0,1,.373.366A.377.377,0,0,1-825.324,766.072Z" transform="translate(1170.04 -178.865)" fill="#1e866f"/><path d="M-890.913,879.017a.364.364,0,0,1-.376-.363.375.375,0,0,1,.374-.394.388.388,0,0,1,.384.365A.39.39,0,0,1-890.913,879.017Z" transform="translate(1231.172 -284.134)" fill="#1e866f"/><path d="M-825.332,878.258a.375.375,0,0,1,.384.384.364.364,0,0,1-.367.372.382.382,0,0,1-.389-.382A.382.382,0,0,1-825.332,878.258Z" transform="translate(1170.043 -284.132)" fill="#1e866f"/><path d="M-890.923,766.063a.377.377,0,0,1-.371-.4.366.366,0,0,1,.381-.359.39.39,0,0,1,.378.4A.388.388,0,0,1-890.923,766.063Z" transform="translate(1231.177 -178.856)" fill="#1e866f"/><path d="M-801.146,789.71a.375.375,0,0,1-.395.374.39.39,0,0,1-.365-.384.385.385,0,0,1,.4-.37A.363.363,0,0,1-801.146,789.71Z" transform="translate(1147.862 -201.247)" fill="#1e866f"/><path d="M-914.785,854.264a.389.389,0,0,1,.374.375.383.383,0,0,1-.392.38.368.368,0,0,1-.369-.371A.379.379,0,0,1-914.785,854.264Z" transform="translate(1253.432 -261.769)" fill="#1e866f"/><path d="M-801.531,855.021a.386.386,0,0,1-.384-.389.393.393,0,0,1,.384-.366.378.378,0,0,1,.377.393A.365.365,0,0,1-801.531,855.021Z" transform="translate(1147.871 -261.771)" fill="#1e866f"/><path d="M-914.789,790.093a.38.38,0,0,1-.384-.388.365.365,0,0,1,.372-.367.383.383,0,0,1,.39.382A.392.392,0,0,1-914.789,790.093Z" transform="translate(1253.432 -201.255)" fill="#1e866f"/></g></g></svg>