<svg xmlns="http://www.w3.org/2000/svg" xmlns:xlink="http://www.w3.org/1999/xlink" width="37" height="37" viewBox="0 0 37 37"><defs><clipPath id="b"><rect width="37" height="37"/></clipPath></defs><g id="a" clip-path="url(#b)"><g transform="translate(-129 -481)"><g transform="translate(-168 309.75)"><g transform="translate(299.858 178.858)"><rect width="25" height="25" rx="12.5" transform="translate(0.142 0.142)" fill="#1e866f" opacity="0.06"/></g></g><path d="M-376.032,202.766h-1.779c-.621,0-1.242,0-1.862,0-.321,0-.444-.126-.444-.451,0-1.159.012-2.318,0-3.477a1.872,1.872,0,0,1,1.048-1.768,5.933,5.933,0,0,1,2.055-.59c.116-.018.233-.033.361-.051a4.944,4.944,0,0,1-.49-.466,3.071,3.071,0,0,1-.569-2.972,1.942,1.942,0,0,1,1.685-1.333V191.4q0-1.851,0-3.7c0-.38.117-.5.493-.5q5.834,0,11.667,0a.649.649,0,0,1,.5.208q1.049,1.061,2.11,2.109a.664.664,0,0,1,.208.518c-.007.74,0,1.48,0,2.221v.243l.043.019c.048-.077.1-.153.143-.231a1.4,1.4,0,0,1,1.975-.528q.147.081.292.167a1.4,1.4,0,0,1,.532,1.99c-.633,1.109-1.275,2.214-1.914,3.32-.321.556-.648,1.11-.96,1.671a.861.861,0,0,0-.107.4q-.01,3.264,0,6.528c0,.465-.1.561-.57.561h-13.843c-.464,0-.559-.1-.559-.57q0-1.413,0-2.826Zm4.811-3.33c.031.016.044.028.057.028.434,0,.867,0,1.3.009.318,0,.442.118.443.428q0,2.187,0,4.374c0,.3-.125.426-.421.427q-1.5,0-3.006,0c-.286,0-.408-.127-.41-.413,0-.426,0-.852,0-1.278,0-.078-.007-.157-.01-.225h-2.025v2.873h13.5v-5.278c-.067.1-.109.163-.144.224-.464.8-.923,1.606-1.394,2.4a.919.919,0,0,1-.307.31c-.654.39-1.316.767-1.977,1.146-.372.213-.634.062-.635-.364,0-.725.005-1.451,0-2.176a1.145,1.145,0,0,1,.162-.614q2.107-3.635,4.2-7.278a.848.848,0,0,0,.108-.4c.009-1.047,0-2.093,0-3.14v-.261h-.272c-.531,0-1.062,0-1.593,0-.32,0-.448-.132-.449-.453,0-.538,0-1.077,0-1.615,0-.078-.007-.157-.011-.233h-11.2v3.728c.113.025.216.043.316.07a1.886,1.886,0,0,1,1.293,1.084,3.109,3.109,0,0,1-.763,3.411c-.076.065-.155.126-.243.2.4.068.775.123,1.148.2a3.313,3.313,0,0,1,1.814.858.461.461,0,0,0,.37.153q2.715-.007,5.429,0a1.514,1.514,0,0,1,.246.01.323.323,0,0,1,.3.337.322.322,0,0,1-.279.352,1.45,1.45,0,0,1-.29.018h-5.257Zm-6.325,2.595h3.749v-.284c0-.725,0-1.45,0-2.175a.351.351,0,0,1,.355-.379.365.365,0,0,1,.359.359c.005.059,0,.119,0,.179q0,1.032,0,2.063v.239h1.116a.479.479,0,0,0,.015-.078q0-1.648,0-3.3a.91.91,0,0,0-.38-.754,2.551,2.551,0,0,0-.7-.39,8.716,8.716,0,0,0-4.382-.243,3.984,3.984,0,0,0-1.393.467,1.166,1.166,0,0,0-.6,1.075c.013,1,0,2,0,3,0,.072.006.144.01.215h1.127v-.257q0-1.02,0-2.041a1.659,1.659,0,0,1,.005-.2.358.358,0,0,1,.372-.342.349.349,0,0,1,.337.374c.006.732,0,1.465,0,2.2C-377.546,201.853-377.546,201.94-377.546,202.031Zm13.71.425.143-.245,3.809-6.595c.392-.679.787-1.356,1.175-2.038a.7.7,0,0,0-.278-1.046l-.194-.112a.716.716,0,0,0-1.121.308l-4.973,8.612c-.039.068-.075.138-.116.216Zm-10.362-8.525c0-.075,0-.15,0-.224a1.3,1.3,0,0,0-.989-1.286,1.9,1.9,0,0,0-1.04.021,1.146,1.146,0,0,0-.825.813,2.393,2.393,0,0,0,.41,2.2,1.177,1.177,0,0,0,1.951,0A2.39,2.39,0,0,0-374.2,193.931Zm2.971,6.27c0,.719,0,1.413,0,2.106,0,.341-.117.457-.456.459-.281,0-.562,0-.84,0v1.206h2.37V200.2Zm6.806,2.748-1.1-.632v1.264Zm2.011-13.444-.95-.952v.952Z" transform="translate(513.491 304.242)" fill="#1e866f"/><path d="M-262.132,236.071h-2.983c-.377,0-.486-.106-.486-.473,0-.486,0-.972,0-1.458,0-.311.125-.439.434-.439q3.051,0,6.1,0c.3,0,.429.13.431.421q0,.762,0,1.525c0,.3-.127.423-.423.424Q-260.6,236.073-262.132,236.071Zm-2.74-.733h5.5v-.907h-5.5Z" transform="translate(405.833 260.527)" fill="#1e866f"/><path d="M-260.781,300.362H-265a1.587,1.587,0,0,1-.246-.008.324.324,0,0,1-.3-.315.319.319,0,0,1,.234-.362.972.972,0,0,1,.287-.031q4.26,0,8.52,0a1.029,1.029,0,0,1,.245.018.329.329,0,0,1,.274.378.327.327,0,0,1-.319.316,2.115,2.115,0,0,1-.224,0Z" transform="translate(405.773 198.534)" fill="#1e866f"/><path d="M-260.751,331.122h-4.237a1.672,1.672,0,0,1-.246-.008.322.322,0,0,1-.3-.313.322.322,0,0,1,.253-.37,1.013,1.013,0,0,1,.266-.025q4.26,0,8.519,0a1.013,1.013,0,0,1,.266.025.324.324,0,0,1,.255.369.323.323,0,0,1-.3.314,1.655,1.655,0,0,1-.246.008Z" transform="translate(405.768 169.617)" fill="#1e866f"/></g></g></svg>