<svg xmlns="http://www.w3.org/2000/svg" width="17.912" height="17.912" viewBox="0 0 17.912 17.912">
    <g data-name="Icon ionic-ios-close-circle-outline">
        <path data-name="Path 68043" d="m19.056 18.081-2.269-2.269 2.269-2.269a.688.688 0 0 0-.973-.973l-2.269 2.269-2.269-2.269a.688.688 0 1 0-.973.973l2.269 2.269-2.269 2.269a.665.665 0 0 0 0 .973.684.684 0 0 0 .973 0l2.269-2.269 2.269 2.269a.691.691 0 0 0 .973 0 .684.684 0 0 0 0-.973z" transform="translate(-6.858 -6.856)" style="fill:#626268"/>
        <path data-name="Path 68044" d="M12.331 4.581A7.747 7.747 0 1 1 6.85 6.85a7.7 7.7 0 0 1 5.481-2.269m0-1.206a8.956 8.956 0 1 0 8.956 8.956 8.955 8.955 0 0 0-8.956-8.956z" style="fill:#626268" transform="translate(-3.375 -3.375)"/>
    </g>
</svg>
