<svg xmlns="http://www.w3.org/2000/svg" xmlns:xlink="http://www.w3.org/1999/xlink" width="37" height="37" viewBox="0 0 37 37"><defs><clipPath id="b"><rect width="37" height="37"/></clipPath></defs><g id="a" clip-path="url(#b)"><g transform="translate(-126 -584.25)"><g transform="translate(-168 413)"><g transform="translate(299.858 178.858)"><rect width="25" height="25" rx="12.5" transform="translate(0.142 0.142)" fill="#1e866f" opacity="0.06"/></g></g><g transform="translate(-59.671 1355.79)"><path d="M194.34-443.622a.708.708,0,0,1,.735-.393c.659.02,1.318.005,1.977.006a.556.556,0,0,1,.631.638c0,.242,0,.483,0,.735H199.6c-.087-.076-.156-.134-.222-.194a.288.288,0,0,1-.062-.408.28.28,0,0,1,.423-.036c.232.181.455.373.686.555a.344.344,0,0,0,.181.09c.62.007,1.24,0,1.892,0,0-.239,0-.466,0-.693,0-.5.189-.691.7-.691h2c.453,0,.651.2.654.657,0,.235,0,.47,0,.716h2.128c-.092-.079-.163-.136-.23-.2a.287.287,0,0,1-.057-.409.281.281,0,0,1,.424-.031c.231.182.455.374.686.556a.343.343,0,0,0,.182.087c.55.007,1.1,0,1.679,0,0-.256,0-.5,0-.75a.557.557,0,0,1,.636-.634q1.037,0,2.074,0a.558.558,0,0,1,.634.637q0,1.037,0,2.074a.562.562,0,0,1-.64.633c-.128,0-.256,0-.384,0-.226,0-.356-.106-.358-.284s.128-.288.35-.292l.4,0a.164.164,0,0,0,.043-.017v-2.155h-2.168v2.176c.158,0,.315,0,.473,0a.294.294,0,0,1,.32.285.292.292,0,0,1-.316.289c-.173,0-.346.005-.518,0a.537.537,0,0,1-.546-.549c-.006-.268,0-.536,0-.823-.072,0-.133-.01-.194-.01-.467,0-.935-.006-1.4,0a.542.542,0,0,0-.289.107c-.221.163-.427.347-.642.518a.29.29,0,0,1-.441-.011c-.109-.133-.081-.295.078-.434.057-.05.116-.1.2-.169h-2.122c0,.244,0,.485,0,.726a.567.567,0,0,1-.653.642h-2.054a.564.564,0,0,1-.641-.634c0-.242,0-.484,0-.75h-.414c-.384,0-.769.019-1.152-.006a.868.868,0,0,0-.72.264,5.062,5.062,0,0,1-.458.379.286.286,0,0,1-.427-.012.292.292,0,0,1,.066-.435c.06-.053.123-.1.213-.179h-1.921c0,.238,0,.478,0,.719,0,.453-.2.654-.656.654-.666,0-1.331-.009-2,0a.64.64,0,0,1-.691-.426Zm10.917,2.371v-2.167h-2.174v2.167Zm-10.331,0h2.167v-2.169h-2.167Z" transform="translate(0 -301.63)" fill="#1e866f"/><path d="M251.029-761.957c.377.062.759.105,1.131.189a7.17,7.17,0,0,1,3.665,2.079c.172.179.191.336.057.468s-.3.106-.468-.065a6.665,6.665,0,0,0-3.4-1.932,6.766,6.766,0,0,0-7.957,4.685,6.76,6.76,0,0,0,5.084,8.506,6.753,6.753,0,0,0,8.038-5.469,6.645,6.645,0,0,0-.944-4.743.924.924,0,0,1-.095-.166.27.27,0,0,1,.119-.349.264.264,0,0,1,.349.048.828.828,0,0,1,.1.14,7.331,7.331,0,0,1-4.837,11.131,7.325,7.325,0,0,1-8.566-6.013,7.326,7.326,0,0,1,5.97-8.4c.251-.042.5-.075.756-.112Z" transform="translate(-46.359 0)" fill="#1e866f"/><path d="M278.244-721.234a5.884,5.884,0,0,1-5.081-2.817c-.014-.021-.027-.043-.039-.066a.287.287,0,0,1,.083-.4.3.3,0,0,1,.413.11,9.441,9.441,0,0,0,.97,1.181,5,5,0,0,0,5.167,1.139,4.987,4.987,0,0,0,3.532-3.988,5.226,5.226,0,0,0-4.411-6.2,5.272,5.272,0,0,0-5.924,4.412,5.381,5.381,0,0,0,.177,2.352c.009.031.019.061.026.092a.28.28,0,0,1-.193.363.276.276,0,0,1-.355-.206,5.276,5.276,0,0,1-.285-2.02,5.684,5.684,0,0,1,3.248-5.008,5.817,5.817,0,0,1,8.3,4.16,5.813,5.813,0,0,1-4.573,6.764C278.924-721.29,278.538-721.27,278.244-721.234Z" transform="translate(-73.973 -27.558)" fill="#1e866f"/><path d="M380.911-671.408c.371,0,.715,0,1.058,0a.788.788,0,0,1,.226.024.258.258,0,0,1,.191.294.249.249,0,0,1-.246.25q-.776.013-1.553,0c-.168,0-.252-.129-.253-.344,0-.53,0-1.061,0-1.591,0-.294,0-.588.007-.882a.265.265,0,0,1,.288-.269.269.269,0,0,1,.276.263,1.717,1.717,0,0,1,.006.191q0,.911,0,1.821Z" transform="translate(-176.452 -83.517)" fill="#1e866f"/><path d="M380.443-709.861a2.447,2.447,0,0,1,0-.324.253.253,0,0,1,.277-.235.247.247,0,0,1,.275.236,4.532,4.532,0,0,1,0,.667.246.246,0,0,1-.283.226.25.25,0,0,1-.265-.227,2.579,2.579,0,0,1,0-.343Z" transform="translate(-176.551 -48.893)" fill="#1e866f"/><path d="M381-549.474a3.057,3.057,0,0,1-.018.337.259.259,0,0,1-.284.23.247.247,0,0,1-.264-.229,4.792,4.792,0,0,1,0-.687.245.245,0,0,1,.27-.22.255.255,0,0,1,.273.22A2.834,2.834,0,0,1,381-549.474Z" transform="translate(-176.536 -201.041)" fill="#1e866f"/><path d="M295.242-624.324c-.1,0-.192,0-.287,0a.266.266,0,0,1-.281-.257.253.253,0,0,1,.23-.3,3.5,3.5,0,0,1,.668,0,.256.256,0,0,1,.235.3.266.266,0,0,1-.278.261C295.434-624.321,295.338-624.324,295.242-624.324Z" transform="translate(-95.185 -130.025)" fill="#1e866f"/><path d="M455.666-624.328c-.1,0-.192,0-.287,0a.266.266,0,0,1-.281-.259.255.255,0,0,1,.232-.3,3.482,3.482,0,0,1,.668,0,.254.254,0,0,1,.233.3.265.265,0,0,1-.278.26C455.858-624.325,455.762-624.328,455.666-624.328Z" transform="translate(-247.379 -130.021)" fill="#1e866f"/></g></g></g></svg>