<svg xmlns="http://www.w3.org/2000/svg" xmlns:xlink="http://www.w3.org/1999/xlink" width="37" height="37" viewBox="0 0 37 37"><defs><clipPath id="b"><rect width="37" height="37"/></clipPath></defs><g id="a" clip-path="url(#b)"><g transform="translate(-297 -586)"><g transform="translate(0 413)"><g transform="translate(299.857 178.858)"><rect width="25" height="25" rx="12.5" transform="translate(0.142 0.142)" fill="#1e866f" opacity="0.06"/></g></g><g transform="translate(-141.789 513.26)"><path d="M445.541,85.3a1.468,1.468,0,0,1,.808-1.089,3,3,0,0,1,.758-.167,4.5,4.5,0,0,1,.584,0c0-.307-.018-.6,0-.881a1.221,1.221,0,0,1,1.22-1.124,1.238,1.238,0,0,1,1.228,1.166c.014.269,0,.538,0,.823h1.615c0-.235,0-.467,0-.7a1.232,1.232,0,0,1,2.452-.209c.021.254.007.512.023.767,0,.054.068.148.106.149.489.01.979.007,1.495.007,0-.266-.009-.513,0-.76a1.2,1.2,0,0,1,.758-1.139,1.177,1.177,0,0,1,1.311.225,1.259,1.259,0,0,1,.408.984c0,.221,0,.441,0,.676h1.6c0-.212,0-.423,0-.633a1.279,1.279,0,0,1,.422-1.04,1.231,1.231,0,0,1,2.046.843c.02.268,0,.538,0,.844.211,0,.408,0,.6,0a1.447,1.447,0,0,1,1.483,1.113,2.14,2.14,0,0,1,.053.534q.006,2.5,0,5a.381.381,0,0,0,.169.345,5.017,5.017,0,0,1,1.906,2.811,5.127,5.127,0,0,1-.967,4.631.311.311,0,1,1-.483-.382,4.964,4.964,0,0,0,.826-1.59,4.606,4.606,0,1,0-1.805,2.5c.034-.023.068-.048.1-.068a.308.308,0,0,1,.438.082.3.3,0,0,1-.1.433,6.917,6.917,0,0,1-1.066.591,5.117,5.117,0,0,1-5.285-.779.707.707,0,0,0-.468-.164c-3.541,0-7.081,0-10.622.006a1.49,1.49,0,0,1-1.334-.608,3.862,3.862,0,0,1-.3-.654V86.8c.11-.128.221-.256.417-.177s.208.238.206.412c0,.219,0,.437,0,.662H463.88c0-.8.026-1.6-.012-2.387a.675.675,0,0,0-.6-.61,5.557,5.557,0,0,0-.881-.01c0,.271.013.541,0,.808a1.226,1.226,0,0,1-1.6,1.1,1.241,1.241,0,0,1-.873-1.268c0-.218,0-.437,0-.655h-1.6c0,.24.005.467,0,.694a1.239,1.239,0,1,1-2.478.026c-.006-.24,0-.48,0-.734H454.4c-.047,0-.094.009-.183.018,0,.3.018.6,0,.889a1.229,1.229,0,0,1-2.45-.146c-.007-.247,0-.494,0-.762h-1.616c0,.3.012.566,0,.834a1.235,1.235,0,0,1-2.466-.143c-.006-.225,0-.45,0-.69-.234,0-.434-.006-.634,0a.843.843,0,0,0-.878.9c0,.171-.032.323-.211.389s-.311-.046-.413-.189Zm7.977,13.157h3.938a5.24,5.24,0,0,1-1.128-2.938h-2.81ZM449.2,91.929h-3.022v2.949H449.2Zm3.673,2.949V91.926H449.85v2.952Zm3.675-6.534H453.52v2.931h3.027Zm-3.024,3.577V94.88H456.3a8.567,8.567,0,0,0,.241-2.959Zm-7.349-3.583v2.937H449.2V88.339Zm6.7.007h-3.023v2.937h3.023Zm-3.026,10.117h3.027V95.525h-3.027Zm-.652,0V95.529h-3.034c0,.68,0,1.343,0,2.006a.854.854,0,0,0,.936.941c.635,0,1.271,0,1.907,0C449.066,98.477,449.127,98.47,449.2,98.465Zm8-7.174c.287,0,.549,0,.811,0a.294.294,0,0,0,.165-.068,5.219,5.219,0,0,1,1.938-1.037c.113-.032.128-.1.127-.2,0-.38,0-.76,0-1.14v-.507h-3.04Zm6.7-2.946h-3.028v1.668a5.354,5.354,0,0,1,3.028.511Zm-6.2-3.99c0-.331,0-.663,0-.994a.622.622,0,1,0-1.236-.006q0,.994,0,1.988a.622.622,0,1,0,1.236.006C457.7,85.017,457.694,84.686,457.694,84.355Zm-8.166.01c0-.352,0-.7,0-1.056a.616.616,0,0,0-.589-.648.6.6,0,0,0-.632.6q-.024,1.086,0,2.174a.6.6,0,0,0,.628.607.616.616,0,0,0,.594-.643C449.531,85.055,449.527,84.71,449.527,84.365Zm12.241.006c0-.352,0-.7,0-1.056a.619.619,0,0,0-.6-.655.608.608,0,0,0-.621.617q-.021,1.076,0,2.153a.608.608,0,0,0,.623.614.62.62,0,0,0,.6-.658C461.771,85.047,461.768,84.709,461.768,84.371Zm-9.385-.014c0,.352,0,.7,0,1.056a.613.613,0,0,0,.6.631.606.606,0,0,0,.614-.621q.014-1.066,0-2.132a.61.61,0,1,0-1.22.01C452.379,83.652,452.383,84,452.383,84.356Zm5.093,7.571c-.312-.023-.357.047-.247.337Z" transform="translate(0)" fill="#1e866f"/><path d="M683.341,269.037a3.857,3.857,0,0,1-3.8-4.437,3.905,3.905,0,0,1,.5-1.394c.117-.2.28-.265.445-.178a.31.31,0,0,1,.1.464,3.387,3.387,0,0,0-.472,1.821,3.234,3.234,0,0,0,6.38.608,3.2,3.2,0,0,0-1.552-3.539,3.133,3.133,0,0,0-3.431.138c-.052.034-.1.075-.152.107a.316.316,0,0,1-.444-.053.305.305,0,0,1,.093-.451,5.209,5.209,0,0,1,.838-.488,3.854,3.854,0,1,1,1.491,7.4Z" transform="translate(-221.795 -169.977)" fill="#1e866f"/><path d="M748.249,293.979c.675,0,1.317,0,1.96,0,.089,0,.2-.014.261.033a.546.546,0,0,1,.205.294c.024.149-.09.252-.244.285a.718.718,0,0,1-.145.008q-1.12,0-2.24,0c-.307,0-.416-.1-.417-.407,0-.747,0-1.494,0-2.24a.364.364,0,0,1,.177-.37c.218-.109.438.044.441.317.006.608,0,1.217,0,1.825Z" transform="translate(-286.389 -198.623)" fill="#1e866f"/></g></g></g></svg>