<svg xmlns="http://www.w3.org/2000/svg" width="25" height="25" viewBox="0 0 25 25">
    <g data-name="Group 75741">
        <g data-name="Group 74883">
            <g data-name="Group 74855">
                <g data-name="Group 74852" transform="translate(-.142 -.142)">
                    <rect data-name="Rectangle 9986" width="25" height="25" rx="12.5" transform="translate(.142 .142)" style="opacity:.06;fill:#1e866f"/>
                </g>
            </g>
        </g>
        <g data-name="money-svgrepo-com (1)">
            <path data-name="Path 68444" d="M8.507 53.787a3.743 3.743 0 0 0-3.394 0 1.039 1.039 0 0 0 .011 1.967 3.743 3.743 0 0 0 3.394 0 1.039 1.039 0 0 0-.011-1.967zm-.431.854-.242.078a.149.149 0 0 1-.1.006.142.142 0 0 1-.033-.036.651.651 0 0 0-.242-.223l-.047-.025a.464.464 0 0 0-.114-.045c-.156-.036-.295.022-.275.12a.355.355 0 0 0 .07.142 1.6 1.6 0 0 1 .156.239c.131.262-.153.52-.609.545a1.279 1.279 0 0 1-.465-.058.166.166 0 0 0-.159.014c-.047.031-.1.058-.15.086a.133.133 0 0 1-.136 0c-.033-.017-.064-.036-.1-.053l-.069-.031c-.047-.028-.042-.056 0-.083s.072-.042.106-.064c.081-.047.081-.05.014-.1a.876.876 0 0 1-.206-.214c-.036-.061-.028-.075.07-.109.072-.022.142-.047.214-.07a.145.145 0 0 1 .106-.008.1.1 0 0 1 .033.039.8.8 0 0 0 .225.242.6.6 0 0 0 .053.036.681.681 0 0 0 .184.07c.181.042.342-.031.326-.145a.256.256 0 0 0-.05-.109 1.9 1.9 0 0 1-.184-.275c-.067-.156-.036-.3.178-.409a1.1 1.1 0 0 1 .807-.056c.12.033.117.033.209-.019l.092-.053a.13.13 0 0 1 .164 0c.022.011.042.025.064.036.147.083.147.083 0 .17-.1.058-.1.058-.017.128a.7.7 0 0 1 .159.17c.035.023.024.048-.032.065zm1.686 1.831a1.037 1.037 0 0 1-.94 0 .289.289 0 0 1 0-.545 1.037 1.037 0 0 1 .94 0 .288.288 0 0 1 0 .545zm-4.952-2.86a1.037 1.037 0 0 1-.94 0 .288.288 0 0 1 0-.545 1.037 1.037 0 0 1 .94 0 .289.289 0 0 1 0 .545zm8.472 1.694-7.415-4.281a1.709 1.709 0 0 0-1.55 0L.342 53.334a.475.475 0 0 0 .006.9l7.414 4.282a1.709 1.709 0 0 0 1.55 0l3.973-2.309a.475.475 0 0 0-.003-.901zM9.392 57.7a.926.926 0 0 0-.17-.125 1.733 1.733 0 0 0-1.569 0 1.054 1.054 0 0 0-.092.061L1.805 54.31a1.387 1.387 0 0 0 .159-.075.479.479 0 0 0-.006-.907.934.934 0 0 0-.15-.072l2.373-1.38a.9.9 0 0 0 .125.086 1.733 1.733 0 0 0 1.569 0 .778.778 0 0 0 .131-.092l5.776 3.33a1.255 1.255 0 0 0-.214.1.481.481 0 0 0 .006.91 1.314 1.314 0 0 0 .22.1zm-9.24-2.61a.758.758 0 0 1 .662.022l7.751 4.474 4.19-2.437a.731.731 0 0 1 .662 0 .2.2 0 0 1 0 .384l-4.45 2.587a.867.867 0 0 1-.793 0l-.156-.089-.109-.064-7.77-4.485c-.189-.109-.187-.29.014-.393zm13.274 3.842-4.454 2.587a.867.867 0 0 1-.793 0l-.153-.089-.111-.064-7.771-4.485c-.189-.109-.184-.289.017-.392a.758.758 0 0 1 .662.022l7.748 4.474 4.19-2.434a.731.731 0 0 1 .662 0 .2.2 0 0 1 .003.381z" transform="translate(3.707 -42.573)" style="fill:#1e866f"/>
        </g>
        <path data-name="Icon ionic-ios-arrow-round-down" d="M16.133 10.581a.339.339 0 0 1-.477 0l-1.58-1.575v6a.337.337 0 0 1-.674 0v-6l-1.58 1.577a.341.341 0 0 1-.477 0 .336.336 0 0 1 0-.475L13.5 7.971a.379.379 0 0 1 .106-.07.322.322 0 0 1 .13-.026.338.338 0 0 1 .236.1l2.153 2.137a.33.33 0 0 1 .008.469z" transform="translate(5.064 -.609)" style="fill:#1e866f"/>
    </g>
</svg>
