<svg xmlns="http://www.w3.org/2000/svg" width="32.755" height="33.487" viewBox="0 0 32.755 33.487">
    <defs>
        <filter id="r1d3dddt7a" x="0" y="4.096" width="32.755" height="29.391" filterUnits="userSpaceOnUse">
            <feOffset dy="2"/>
            <feGaussianBlur stdDeviation="2" result="blur"/>
            <feFlood flood-opacity=".161"/>
            <feComposite operator="in" in2="blur"/>
            <feComposite in="SourceGraphic"/>
        </filter>
    </defs>
    <g data-name="svgexport-6 (23)">
        <g data-name="Group 73752">
            <g data-name="Group 73748">
                <path data-name="Path 67458" d="m455.455 136.678-.02-.106a.727.727 0 0 1 .529-.84l1.137-.3a.727.727 0 0 1 .9.567l.051.265a.727.727 0 0 1-.627.859l-1.167.141a.727.727 0 0 1-.803-.586z" transform="translate(-426.825 -128.792)" style="fill:#b3e59f"/>
                <path data-name="Path 67459" d="m419.665 53.656-.071-.082a.727.727 0 0 1 .038-.992l.835-.828a.727.727 0 0 1 1.062.041l.176.2a.727.727 0 0 1-.113 1.057l-.94.706a.727.727 0 0 1-.987-.102z" transform="translate(-392.58 -49.025)" style="fill:#b3e59f"/>
                <path data-name="Path 67460" d="m352.3 2.584-.1-.036a.727.727 0 0 1-.463-.878l.309-1.135a.727.727 0 0 1 .94-.5l.254.088a.727.727 0 0 1 .43.972l-.461 1.082a.727.727 0 0 1-.909.407z" transform="translate(-328.178)" style="fill:#b3e59f"/>
            </g>
            <g style="filter:url(#r1d3dddt7a)">
                <path data-name="Path 67461" d="M23.064 169.508q-.077 1.019-.188 2.039c0 .023-.006.046-.009.069a1.745 1.745 0 0 1-1.587 1.484 106.822 106.822 0 0 1-16.823 0 1.746 1.746 0 0 1-1.588-1.484c0-.023-.007-.047-.009-.071q-.11-1.019-.188-2.039a62.941 62.941 0 0 1 .188-11.576 1.747 1.747 0 0 1 1.6-1.556 106.943 106.943 0 0 1 16.823 0 1.746 1.746 0 0 1 1.6 1.556 62.936 62.936 0 0 1 .181 11.578z" transform="translate(3.51 -147.95)" style="fill:#f9f6f6"/>
            </g>
            <g data-name="Group 73749">
                <path data-name="Path 67462" d="m4.827 209.867-.365-.028a1.746 1.746 0 0 1-1.6-1.556 62.983 62.983 0 0 1 0-13.617 4.741 4.741 0 0 0 .935 2.639 65.493 65.493 0 0 0 .251 11.257 1.821 1.821 0 0 0 .779 1.305z" transform="translate(3.504 -184.684)" style="fill:#e7ecf6"/>
                <path data-name="Path 67463" d="M352.424 355.6q-.077 1.019-.188 2.039c0 .023-.006.046-.009.069a.39.39 0 0 1 0-.1c.1-1.136-1.208-3.2-3.338-5.261a.378.378 0 1 1 .525-.544 15.579 15.579 0 0 1 3.01 3.797z" transform="translate(-325.851 -334.035)" style="fill:#e7ecf6"/>
                <path data-name="Path 67464" d="M29.937 157.933c.1 1.171-.984 3.016-2.62 4.82a22.309 22.309 0 0 1-1.742 1.716c-.355.314-.722.619-1.1.91a14.7 14.7 0 0 1-4.549 2.522q-.312-.093-.632-.215c-1.262-.482-.757-3.118-2.005-4.078a20.978 20.978 0 0 1-2.8-2.222l-.129-.14c-.84-.924-3.346-.337-3.812-1.188a4.034 4.034 0 0 1-.632-2.125 1.746 1.746 0 0 1 1.6-1.555 106.885 106.885 0 0 1 16.823 0 1.746 1.746 0 0 1 1.598 1.555z" transform="translate(-3.551 -147.95)" style="fill:#e7ecf6"/>
                <path data-name="Path 67465" d="M9.74 352.34c-2.13 2.06-3.44 4.124-3.34 5.26a.381.381 0 0 1-.005.1c0-.023-.007-.047-.009-.07q-.11-1.019-.188-2.039a15.579 15.579 0 0 1 3.015-3.8.378.378 0 0 1 .525.544z" transform="translate(-.019 -334.035)" style="fill:#e7ecf6"/>
            </g>
            <g data-name="Group 73751" transform="translate(7.001 1.754)">
                <path data-name="Path 67466" d="M40.771 44.14q-4.294 4.86-9.039 9.273a11.607 11.607 0 0 1-1.163-.523 17.822 17.822 0 0 1-2.675-1.722 22.712 22.712 0 0 1-2.776-2.532l-.129-.14a17.339 17.339 0 0 1-1.355-1.679q-.183-.262-.345-.518t-.3-.514a131.514 131.514 0 0 1 9.808-9.62 1.049 1.049 0 0 1 1.316-.059 31.738 31.738 0 0 1 6.718 6.718 1.047 1.047 0 0 1-.06 1.316z" transform="translate(-22.988 -35.903)" style="fill:#1e866f"/>
                <path data-name="Path 67467" d="M51.014 89.364c.025.026.051.05.078.073a128.072 128.072 0 0 1-7.926 7.969 17.821 17.821 0 0 1-2.675-1.722q-.25-.192-.495-.393a23.204 23.204 0 0 1-2.284-2.14l-.129-.14a17.34 17.34 0 0 1-1.355-1.679 129.033 129.033 0 0 1 8.38-8.374l.073.078a1.78 1.78 0 0 0 2.777-.331 30.74 30.74 0 0 1 3.882 3.882 1.78 1.78 0 0 0-.33 2.777z" transform="translate(-35.585 -80.418)" style="fill:#95d6a4"/>
                <ellipse data-name="Ellipse 1332" cx="3.727" cy="3.365" rx="3.727" ry="3.365" transform="rotate(-45 13.903 1.49)" style="fill:#b3e59f"/>
                <g data-name="Group 73750" transform="translate(3.128 5.049)">
                    <path data-name="Path 67468" d="M88.52 306.27a.9.9 0 0 1-.232.169 23.204 23.204 0 0 1-1.284-1.131.909.909 0 0 1 .215-.339.92.92 0 1 1 1.3 1.3z" transform="translate(-87.004 -296.616)" style="fill:#b3e59f"/>
                    <circle data-name="Ellipse 1333" cx=".92" cy=".92" r=".92" transform="translate(8.029)" style="fill:#b3e59f"/>
                </g>
                <path data-name="Path 67469" d="M152.484 204.3a1.346 1.346 0 0 0 0-1.53 1.14 1.14 0 0 0-1.531-.23 4.416 4.416 0 0 1-.995.443.16.16 0 0 1-.167-.075.382.382 0 0 1 .015-.424 1.057 1.057 0 0 1 .635-.5.378.378 0 1 0-.176-.735 1.7 1.7 0 0 0-.567.261l-.062-.062a.378.378 0 1 0-.534.534l.079.079-.021.033a1.142 1.142 0 0 0 .018 1.253.91.91 0 0 0 .941.374 4.662 4.662 0 0 0 1.2-.52c.144-.079.41-.182.565.023a.666.666 0 0 1-.168.838 1.407 1.407 0 0 1-.739.477.378.378 0 1 0 .217.724 1.974 1.974 0 0 0 .783-.408l.075.075a.378.378 0 0 0 .534-.534z" transform="translate(-142.823 -193.162)" style="fill:#78c2a4"/>
            </g>
        </g>
    </g>
</svg>
