<svg xmlns="http://www.w3.org/2000/svg" xmlns:xlink="http://www.w3.org/1999/xlink" width="37" height="37" viewBox="0 0 37 37"><defs><clipPath id="b"><rect width="37" height="37"/></clipPath></defs><g id="a" clip-path="url(#b)"><g transform="translate(-288 -481)"><g transform="translate(-6 310)"><g transform="translate(299.858 178.858)"><rect width="25" height="25" rx="12.5" transform="translate(0.142 0.142)" fill="#1e866f" opacity="0.06"/></g></g><path d="M564.622,209a3.454,3.454,0,0,1,.562.345.97.97,0,0,1,.258.77q0,2.22,0,4.44a.8.8,0,0,0,.11.349c.11.209.245.4.36.61s.081.375-.079.453-.293.012-.4-.2a5.043,5.043,0,1,0,.433,1.217c-.009-.041-.016-.083-.022-.125a.272.272,0,0,1,.194-.324.252.252,0,0,1,.329.2,10.807,10.807,0,0,1,.151,1.441,5.281,5.281,0,0,1-1,3.063c-.024.034-.045.07-.086.133.149.14.3.276.449.422q1.623,1.619,3.244,3.241a.91.91,0,0,1,.308.579.818.818,0,0,1-.446.809.8.8,0,0,1-.914-.128c-.278-.263-.544-.537-.814-.808l-1.808-1.812c-.007.1-.014.158-.014.217q0,1.246,0,2.493a1.064,1.064,0,0,1-.819,1.242h-2.293a.179.179,0,0,0-.032-.04.265.265,0,0,1-.107-.335.276.276,0,0,1,.292-.172q.937,0,1.874,0c.366,0,.537-.166.538-.533q0-1.647,0-3.293a.4.4,0,0,0-.1-.235c-.155-.177-.324-.342-.48-.5a5.6,5.6,0,0,1-8.826-5.359h-.665c-.115,0-.231,0-.346,0a.271.271,0,1,1-.008-.541c.273-.009.546,0,.819,0,.327,0,.326,0,.427-.3.038-.114.08-.227.129-.366-.078,0-.141-.009-.2-.009-.382,0-.764,0-1.146,0-.2,0-.317-.115-.313-.279s.118-.256.307-.265c.048,0,.1,0,.146,0,.443,0,.886,0,1.328,0a.225.225,0,0,0,.229-.131c.1-.179.219-.348.341-.538a1.23,1.23,0,0,0-.137-.016c-.352,0-.7,0-1.055,0-.211,0-.33-.111-.324-.285s.122-.258.328-.259c.5,0,1.007,0,1.51,0a.4.4,0,0,0,.3-.123,5.433,5.433,0,0,1,4.433-1.5,5.365,5.365,0,0,1,3.142,1.421c.043.039.087.077.167.146v-.232q0-1.865,0-3.73c0-.451-.148-.6-.6-.6H553.231c-.453,0-.6.146-.6.6,0,.37,0,.74,0,1.11,0,.223-.1.336-.269.338s-.274-.11-.275-.33c0-.412-.005-.825,0-1.237A1.028,1.028,0,0,1,552.9,209Zm1.207,14.277c.02.024.034.043.05.06l2.506,2.507a.506.506,0,0,0,.066.062.261.261,0,0,0,.363-.019.258.258,0,0,0,.017-.362,1.069,1.069,0,0,0-.112-.119l-1.8-1.8c-.235-.235-.469-.472-.7-.709Zm-.047-.755-.68-.687-.346.334.7.7Z" transform="translate(-254.082 283)" fill="#1e866f"/><path d="M552.942,290.782a2.922,2.922,0,0,1-.4-.2.915.915,0,0,1-.4-.7c-.009-.1-.01-.206-.01-.309q0-6.869,0-13.738a1.568,1.568,0,0,1,.012-.254.243.243,0,0,1,.254-.215.246.246,0,0,1,.268.22,1.591,1.591,0,0,1,.011.254q0,6.86,0,13.72a2.288,2.288,0,0,0,.009.272.44.44,0,0,0,.408.4c.066.007.133,0,.2,0h7.807c.042,0,.085,0,.127,0,.154-.007.294.013.358.181s-.041.271-.157.365Z" transform="translate(-254.121 219.852)" fill="#1e866f"/><path d="M597.3,257h1.673c.222,0,.352.108.346.281s-.13.264-.345.264h-3.346c-.222,0-.351-.108-.346-.282s.13-.263.345-.264Z" transform="translate(-295.183 237.333)" fill="#1e866f"/><path d="M597.3,530.746h1.673c.222,0,.352.108.346.281s-.13.264-.345.264h-3.346c-.222,0-.352-.108-.346-.281s.13-.263.345-.264Z" transform="translate(-295.183 -23.133)" fill="#1e866f"/><path d="M652.623,308.157a4.454,4.454,0,1,1-4.448-4.46A4.44,4.44,0,0,1,652.623,308.157Zm-8.362,0a3.908,3.908,0,1,0,3.909-3.911A3.9,3.9,0,0,0,644.261,308.154Z" transform="translate(-341.269 192.898)" fill="#1e866f"/></g></g></svg>