<svg xmlns="http://www.w3.org/2000/svg" xmlns:xlink="http://www.w3.org/1999/xlink" width="37" height="37" viewBox="0 0 37 37"><defs><clipPath id="b"><rect width="37" height="37"/></clipPath></defs><g id="a" clip-path="url(#b)"><g transform="translate(1.259 1.75)"><rect width="35" height="35" rx="17.5" transform="translate(-0.259)" fill="#1e866f" opacity="0.06"/><g transform="translate(2.56 2.818)"><path d="M9.788,4.894A4.894,4.894,0,1,1,4.894,0,4.894,4.894,0,0,1,9.788,4.894Z" transform="translate(9.788 12.479)" fill="none" stroke="#1e866f" stroke-linecap="round" stroke-linejoin="round" stroke-width="1"/><path d="M1.529,0V1.138A1.211,1.211,0,0,1,.93,2.19L0,2.753" transform="translate(13.458 15.844)" fill="none" stroke="#1e866f" stroke-linecap="round" stroke-linejoin="round" stroke-width="1"/><path d="M7.036,19.576h9.788c4.918,0,5.8-1.97,6.056-4.368L23.8,5.42c.33-2.985-.526-5.42-5.75-5.42H5.812C.588,0-.268,2.435.062,5.42L.98,15.208C1.237,17.606,2.118,19.576,7.036,19.576Z" transform="translate(2.752 7.341)" fill="none" stroke="#1e866f" stroke-linecap="round" stroke-linejoin="round" stroke-width="1"/><path d="M0,4.894V3.915C0,1.75,0,0,3.915,0H5.873C9.788,0,9.788,1.75,9.788,3.915v.979" transform="translate(9.788 2.447)" fill="none" stroke="#1e866f" stroke-linecap="round" stroke-linejoin="round" stroke-width="1"/><path d="M6.9,0A19.986,19.986,0,0,1,0,3.23" transform="translate(19.588 13.458)" fill="none" stroke="#1e866f" stroke-linecap="round" stroke-linejoin="round" stroke-width="1"/><path d="M0,0A20.108,20.108,0,0,0,6.582,2.949" transform="translate(3.205 13.789)" fill="none" stroke="#1e866f" stroke-linecap="round" stroke-linejoin="round" stroke-width="1"/><path d="M0,0H29.363V29.363H0Z" transform="translate(29.363 29.363) rotate(180)" fill="none" opacity="0"/></g></g></g></svg>