<svg xmlns="http://www.w3.org/2000/svg" xmlns:xlink="http://www.w3.org/1999/xlink" width="37" height="37" viewBox="0 0 37 37"><defs><clipPath id="b"><rect width="37" height="37"/></clipPath></defs><g id="a" clip-path="url(#b)"><g transform="translate(-294 -173)"><g transform="translate(299.857 178.858)"><rect width="25" height="25" rx="12.5" transform="translate(0.142 0.142)" fill="#1e866f" opacity="0.06"/></g><g transform="translate(185.809 -122.482)"><path d="M115.191,312.2c.045-.141.082-.285.135-.422a2.105,2.105,0,0,1,1.6-1.365c1.074-.235,2.149-.46,3.225-.684a.42.42,0,0,0,.306-.224c.575-1,1.16-1.99,1.739-2.986a2.254,2.254,0,0,1,2.089-1.193q3.549.005,7.1,0a2.259,2.259,0,0,1,1.962,1.023c.578.828,1.156,1.657,1.741,2.481a1.131,1.131,0,0,0,.3.289q.839.541,1.691,1.062a2.262,2.262,0,0,1,1.072,1.559.575.575,0,0,0,.041.1v4.133a1.137,1.137,0,0,1-1.057.852c-.179.008-.359,0-.539,0h-.216a2.54,2.54,0,0,1-4.5,1.2,5.438,5.438,0,0,1-10.379,0,2.541,2.541,0,0,1-4.5-1.206c-.751.053-1.507.072-1.81-.845Zm6.319,2.737a.682.682,0,0,0,.048-.094,5.386,5.386,0,0,1,5.793-3.723,5.3,5.3,0,0,1,2.085.712.351.351,0,0,1,.072.6.4.4,0,0,1-.5-.015,4.667,4.667,0,0,0-6.212,6.623,2.025,2.025,0,0,0,.132.155,4.007,4.007,0,0,1,2.379-2.481c-.961-1.182-1.018-2.289-.178-3.164a2.138,2.138,0,0,1,2.857-.236,2.073,2.073,0,0,1,.809,1.255,2.181,2.181,0,0,1-.736,2.143,4,4,0,0,1,2.387,2.463c.033-.015.05-.017.058-.027.032-.041.063-.083.092-.127a4.586,4.586,0,0,0,.6-3.761,4.7,4.7,0,0,0-.917-1.782.357.357,0,1,1,.551-.452,1.587,1.587,0,0,1,.206.266c.3.532.588,1.068.868,1.582a2.538,2.538,0,0,1,4.471,1.235H137c.353,0,.471-.119.472-.471q0-1.46,0-2.92c0-.064-.008-.129-.013-.2H136.5c-.3,0-.468-.135-.462-.366s.169-.35.455-.352c.3,0,.609,0,.932,0a1.506,1.506,0,0,0-.671-.967c-.622-.388-1.245-.774-1.862-1.17a1.123,1.123,0,0,1-.3-.287q-.922-1.3-1.83-2.61a1.524,1.524,0,0,0-1.3-.714q-3.639-.006-7.277,0a1.549,1.549,0,0,0-1.468,1.075h7.052c.424,0,.524.1.524.533q0,1.089,0,2.179c0,.424-.1.523-.533.523-2.613,0-5.226.013-7.839-.007a10.352,10.352,0,0,0-2.554.273c-.762.186-1.534.332-2.3.5a1.313,1.313,0,0,0-1.067,1.033c.3,0,.6,0,.9,0s.451.129.456.351-.164.366-.462.367c-.319,0-.638,0-.971,0,0,.984,0,1.941,0,2.9a.324.324,0,0,0,.332.331c.252.014.506,0,.758,0a2.534,2.534,0,0,1,4.5-1.169Zm4.99,6.2a4.8,4.8,0,0,0,3.216-1.117.3.3,0,0,0,.124-.341,3.233,3.233,0,0,0-6.294-.009.3.3,0,0,0,.114.345A4.564,4.564,0,0,0,126.5,321.142Zm-8.793-4.683a1.8,1.8,0,1,0,1.812-1.785A1.8,1.8,0,0,0,117.707,316.46Zm14.375,0a1.8,1.8,0,1,0,1.811-1.787A1.8,1.8,0,0,0,132.082,316.461Zm-5.767-6.825v-1.791c-1.331,0-2.646,0-3.961.006a.271.271,0,0,0-.175.133c-.284.474-.561.953-.839,1.43-.039.067-.074.136-.12.222Zm.367,6.833a1.437,1.437,0,1,0-1.428-1.451A1.442,1.442,0,0,0,126.682,316.47Zm.385-8.615v1.769h2.486v-1.769Z" transform="translate(0 0)" fill="#1e866f"/><path d="M175.95,479.358a.749.749,0,1,1-.747.745A.755.755,0,0,1,175.95,479.358Z" transform="translate(-56.429 -163.649)" fill="#1e866f"/><path d="M416.7,480.1a.749.749,0,1,1-.747-.745A.755.755,0,0,1,416.7,480.1Z" transform="translate(-282.094 -163.649)" fill="#1e866f"/></g></g></g></svg>