<svg xmlns="http://www.w3.org/2000/svg" xmlns:xlink="http://www.w3.org/1999/xlink" width="37" height="37" viewBox="0 0 37 37"><defs><clipPath id="b"><rect width="37" height="37"/></clipPath></defs><g id="a" clip-path="url(#b)"><g transform="translate(-4325 -3174)"><rect width="35" height="35" rx="17.5" transform="translate(4326 3174.75)" fill="#1e866f" opacity="0.06"/><g transform="translate(4329.741 3185.975)"><path d="M21.86,72.608l1.234-.149a1.222,1.222,0,0,0-.147-2.435h-.86a1.224,1.224,0,0,0-1.147.8l-1.2-2.632a3.5,3.5,0,0,0-2.385-1.944,45.708,45.708,0,0,0-10.538,0,3.5,3.5,0,0,0-2.385,1.944l-1.2,2.632a1.224,1.224,0,0,0-1.146-.8h-.86a1.222,1.222,0,0,0-.147,2.435l1.234.149L1.129,73.788a2.608,2.608,0,0,0-.734,2.2l.4,2.847a2.882,2.882,0,0,0,1.023,1.816v1.293a1.4,1.4,0,0,0,1.395,1.395H5.529a1.4,1.4,0,0,0,1.395-1.395v-.628H17.246v.628a1.4,1.4,0,0,0,1.395,1.395h2.312a1.4,1.4,0,0,0,1.395-1.395V80.651a2.882,2.882,0,0,0,1.023-1.816l.4-2.847a2.608,2.608,0,0,0-.734-2.2Zm-1.346,7.784H3.656a1.972,1.972,0,0,1-1.924-1.578h20.7A1.972,1.972,0,0,1,20.513,80.392ZM17.53,76.385l.47,1.5h-.64l-.47-1.5Zm-1.609,0,.47,1.5H7.778l.47-1.5Zm-9.112,1.5H6.17l.47-1.5h.64Zm-1.608,0H1.6l-.213-1.5H5.671Zm13.767,0-.47-1.5h4.287l-.213,1.5Zm2.822-6.643a.3.3,0,0,1,.3-.3h.86a.3.3,0,0,1,.036.593l-1.193.144v-.439Zm-14.768-4.1a46.485,46.485,0,0,1,10.125,0,2.554,2.554,0,0,1,1.069.535,65.831,65.831,0,0,0-12.264,0A2.554,2.554,0,0,1,7.022,67.148ZM5.114,68.92a3.5,3.5,0,0,1,.922-.313,64.053,64.053,0,0,1,12.1,0,3.5,3.5,0,0,1,.921.312l1.429,3.127H3.686ZM.924,71.246a.3.3,0,0,1,.3-.3h.86a.3.3,0,0,1,.3.3v.439l-1.193-.144A.3.3,0,0,1,.924,71.246Zm2.329,1.726H20.916l1.471,1.471a1.68,1.68,0,0,1,.481,1.019H1.3a1.68,1.68,0,0,1,.481-1.019ZM6,81.944a.471.471,0,0,1-.47.47H3.216a.471.471,0,0,1-.47-.47v-.777a2.852,2.852,0,0,0,.911.149H6Zm15.425,0a.471.471,0,0,1-.47.47H18.641a.471.471,0,0,1-.47-.47v-.628h2.343a2.852,2.852,0,0,0,.911-.149v.777Z" transform="translate(0 -65.942)" fill="#1e866f"/></g><g transform="translate(4350.83 3177.566)"><path d="M871.526,160.748c-.6,0-1.205,0-1.807,0a.991.991,0,0,1-.243-.023.349.349,0,0,1,.052-.685,1.873,1.873,0,0,1,.223-.006c1.168,0,2.336,0,3.5,0a1.589,1.589,0,0,0,1.614-1.24,1.559,1.559,0,0,0-1.4-1.919c-.883-.04-1.77-.018-2.655-.017a1.528,1.528,0,0,1-1.187-.469,1.5,1.5,0,0,1,1.037-2.536c.252-.017.506-.009.758,0a.359.359,0,0,1,.4.362c0,.212-.153.344-.4.347-.223,0-.446,0-.669,0a.792.792,0,0,0-.821.791.781.781,0,0,0,.82.788c.9.01,1.8-.016,2.7.017a2.288,2.288,0,0,1,.112,4.561c-.673.052-1.353.009-2.029.009Z" transform="translate(-869.202 -149.185)" fill="#1e866f"/><path d="M904.108,75.755a2.105,2.105,0,0,1,1.845,1.291,2.148,2.148,0,0,1-.282,2.347c-.352.46-.721.907-1.077,1.364a.764.764,0,0,1-1.32,0c-.352-.451-.714-.894-1.065-1.344a2.179,2.179,0,0,1-.295-2.386A2.264,2.264,0,0,1,904.108,75.755Zm-.174,4.663c.447-.564.913-1.086,1.3-1.661a1.48,1.48,0,0,0-.393-1.99A1.524,1.524,0,0,0,902.79,79c.177.2.346.407.514.616C903.512,79.875,903.715,80.139,903.934,80.418Z" transform="translate(-899.749 -75.755)" fill="#1e866f"/><path d="M933.507,106.966a.349.349,0,1,1,.005-.7.349.349,0,1,1-.005.7Z" transform="translate(-929.345 -104.448)" fill="#1e866f"/></g></g></g></svg>