<svg xmlns="http://www.w3.org/2000/svg" xmlns:xlink="http://www.w3.org/1999/xlink" width="37" height="37" viewBox="0 0 37 37"><defs><clipPath id="b"><rect width="37" height="37"/></clipPath></defs><g id="a" clip-path="url(#b)"><g transform="translate(-4330.597 -3217.295)"><path d="M-339.773,589.24c-.542-.678-1.112-1.337-1.619-2.041a9.776,9.776,0,0,1-1.531-2.994,3.523,3.523,0,0,1,2.528-4.512,3.5,3.5,0,0,1,4.3,3.394,5.52,5.52,0,0,1-.723,2.46,18.049,18.049,0,0,1-2.541,3.616.943.943,0,0,1-.086.077Zm.166-.728a15.657,15.657,0,0,0,2.256-3.251,7.9,7.9,0,0,0,.584-1.588,2.853,2.853,0,0,0-1.791-3.285,2.888,2.888,0,0,0-3.535,1.248,3.07,3.07,0,0,0-.165,2.7A13.529,13.529,0,0,0-339.607,588.512Z" transform="translate(4680.374 2658.601)" fill="#1e866f"/><path d="M-105.545,684.326c-.14,0-.28,0-.419,0a.292.292,0,0,1-.32-.3.281.281,0,0,1,.3-.3c.294-.012.59-.012.884,0a.28.28,0,0,1,.3.3.291.291,0,0,1-.32.3C-105.266,684.331-105.406,684.326-105.545,684.326Z" transform="translate(4457.449 2560.571)" fill="#1e866f"/><path d="M-126.331,462.243c-.148,0-.3.005-.442,0a.272.272,0,0,1-.282-.281.263.263,0,0,1,.265-.3c.317-.012.636-.013.953,0a.261.261,0,0,1,.259.3.273.273,0,0,1-.288.276C-126.02,462.248-126.175,462.243-126.331,462.243Z" transform="translate(4477.003 2769.631)" fill="#1e866f"/><path d="M-141.175,683.75c.14,0,.28-.009.419,0,.183.016.311.108.3.311a.279.279,0,0,1-.306.283c-.287.008-.574.007-.861,0a.282.282,0,0,1-.305-.286.288.288,0,0,1,.308-.308C-141.47,683.742-141.322,683.75-141.175,683.75Z" transform="translate(4491.002 2560.548)" fill="#1e866f"/><path d="M-176.822,684.326c-.14,0-.279,0-.419,0-.188-.008-.314-.1-.316-.3a.276.276,0,0,1,.293-.3c.294-.013.589-.012.883,0a.276.276,0,0,1,.294.3.286.286,0,0,1-.317.3C-176.543,684.33-176.682,684.326-176.822,684.326Z" transform="translate(4524.546 2560.571)" fill="#1e866f"/><path d="M-269.011,462.282c-.155,0-.311.007-.466,0a.27.27,0,0,1-.275-.287.256.256,0,0,1,.249-.285c.325-.014.651-.013.976,0a.257.257,0,0,1,.253.282.27.27,0,0,1-.272.291C-268.7,462.29-268.856,462.282-269.011,462.282Z" transform="translate(4611.341 2769.59)" fill="#1e866f"/><path d="M-167.1,536.028c.147,0,.295,0,.442,0a.271.271,0,0,1,.285.278.262.262,0,0,1-.262.3c-.317.013-.636.019-.953.005a.26.26,0,0,1-.26-.3.271.271,0,0,1,.282-.28c.155-.009.31,0,.465,0Z" transform="translate(4515.406 2699.616)" fill="#1e866f"/><path d="M-233.294,462.273c-.155,0-.311.007-.465,0a.264.264,0,0,1-.272-.264.256.256,0,0,1,.246-.307c.324-.016.651-.013.975,0a.256.256,0,0,1,.252.282.269.269,0,0,1-.271.29C-232.984,462.28-233.139,462.273-233.294,462.273Z" transform="translate(4577.714 2769.599)" fill="#1e866f"/><path d="M-183.413,602.8l.247.088c.212.073.421.151.636.215s.329.194.288.377a.3.3,0,0,1-.4.212,5.269,5.269,0,0,1-.865-.324.385.385,0,0,1-.12-.331C-183.616,602.94-183.483,602.867-183.413,602.8Z" transform="translate(4530.267 2636.757)" fill="#1e866f"/><path d="M-161.973,462.242c-.155,0-.311.005-.465,0a.271.271,0,0,1-.281-.282.263.263,0,0,1,.265-.3c.317-.011.636-.013.953,0a.259.259,0,0,1,.256.3.27.27,0,0,1-.286.275c-.147.007-.295,0-.442,0Z" transform="translate(4510.578 2769.631)" fill="#1e866f"/><path d="M-196.685,544.763c-.266,0-.434-.232-.3-.419a4.844,4.844,0,0,1,.694-.766c.061-.055.271-.013.364.052a.241.241,0,0,1,.009.371q-.295.342-.606.668A.549.549,0,0,1-196.685,544.763Z" transform="translate(4542.882 2692.53)" fill="#1e866f"/><path d="M-200.539,575.328c-.044.046-.113.182-.2.2s-.307-.04-.333-.113a5.905,5.905,0,0,1-.261-1.023c-.013-.078.131-.234.228-.26a.334.334,0,0,1,.3.144C-200.7,574.594-200.639,574.928-200.539,575.328Z" transform="translate(4546.935 2663.748)" fill="#1e866f"/><path d="M-95.463,527.013c-.062.1-.092.2-.161.247-.264.173-.534.34-.813.486a.265.265,0,0,1-.385-.15.282.282,0,0,1,.151-.388c.232-.139.457-.291.7-.411a.451.451,0,0,1,.323-.017C-95.574,526.807-95.53,526.923-95.463,527.013Z" transform="translate(4448.57 2708.341)" fill="#1e866f"/><path d="M-91.473,465.254a.917.917,0,0,1,.225.078c.243.19.491.375.715.585a.275.275,0,0,1-.009.432.287.287,0,0,1-.417-.025c-.206-.174-.43-.329-.623-.517a.4.4,0,0,1-.109-.318C-91.67,465.4-91.542,465.324-91.473,465.254Z" transform="translate(4443.714 2766.243)" fill="#1e866f"/><path d="M-131.391,536.577c-.155,0-.31.01-.464,0a.269.269,0,0,1-.272-.309.267.267,0,0,1,.289-.271q.441-.009.883,0a.271.271,0,0,1,.3.288.273.273,0,0,1-.29.3c-.146.01-.294,0-.441,0Z" transform="translate(4481.779 2699.65)" fill="#1e866f"/><path d="M-197.6,462.235c-.147,0-.295.005-.442,0a.268.268,0,0,1-.283-.277.258.258,0,0,1,.256-.3c.317-.014.635-.014.951,0a.259.259,0,0,1,.26.3.266.266,0,0,1-.279.281C-197.286,462.241-197.441,462.235-197.6,462.235Z" transform="translate(4544.095 2769.638)" fill="#1e866f"/><path d="M-72.782,494.56c-.022.158-.04.344-.076.526a.279.279,0,0,1-.351.252c-.193-.039-.25-.18-.232-.369q.035-.369.048-.74c.008-.22.1-.354.285-.353.213,0,.3.132.307.331C-72.8,494.316-72.789,494.424-72.782,494.56Z" transform="translate(4426.532 2739.296)" fill="#1e866f"/><path d="M-224.327,388.125c-.147,0-.295,0-.442,0a.272.272,0,0,1-.287-.276.269.269,0,0,1,.283-.3q.453-.014.907,0a.27.27,0,0,1,.287.3.277.277,0,0,1-.305.283c-.147,0-.295,0-.442,0Z" transform="translate(4569.264 2839.406)" fill="#1e866f"/><path d="M-148.6,609c-.148,0-.3,0-.443,0a.278.278,0,0,1-.306-.283.27.27,0,0,1,.286-.3c.3-.009.605-.009.908,0a.269.269,0,0,1,.283.3.271.271,0,0,1-.286.277c-.147.006-.295,0-.442,0Z" transform="translate(4497.99 2631.475)" fill="#1e866f"/><path d="M-112.928,609.032c-.14,0-.28.006-.419,0a.269.269,0,0,1-.283-.278.258.258,0,0,1,.259-.3c.317-.013.636-.012.953,0a.261.261,0,0,1,.262.3.27.27,0,0,1-.283.279C-112.6,609.037-112.765,609.032-112.928,609.032Z" transform="translate(4464.364 2631.437)" fill="#1e866f"/><path d="M-188.613,388.139c-.147,0-.295.006-.442,0a.269.269,0,0,1-.286-.275.266.266,0,0,1,.28-.3c.31-.01.62-.009.93,0a.262.262,0,0,1,.265.294.27.27,0,0,1-.282.28C-188.3,388.144-188.458,388.138-188.613,388.139Z" transform="translate(4535.64 2839.392)" fill="#1e866f"/><path d="M-259.978,388.161c-.147,0-.295,0-.442,0a.269.269,0,0,1-.282-.28.26.26,0,0,1,.263-.294c.317-.01.635-.012.952,0a.257.257,0,0,1,.257.3.268.268,0,0,1-.284.276C-259.668,388.168-259.823,388.162-259.978,388.161Z" transform="translate(4602.821 2839.369)" fill="#1e866f"/><path d="M-117.262,388.162c-.155,0-.31.006-.465,0a.268.268,0,0,1-.277-.284.261.261,0,0,1,.268-.291c.317-.009.635-.011.952,0a.257.257,0,0,1,.253.3.262.262,0,0,1-.266.268c-.154.01-.31,0-.465,0Z" transform="translate(4468.482 2839.368)" fill="#1e866f"/><path d="M-295.579,388.159c-.155,0-.31.007-.464,0a.265.265,0,0,1-.276-.281.258.258,0,0,1,.263-.292c.317-.011.634-.012.951,0a.257.257,0,0,1,.254.3.261.261,0,0,1-.263.27c-.154.01-.309,0-.464,0Z" transform="translate(4636.353 2839.371)" fill="#1e866f"/><path d="M-152.885,388.157c-.155,0-.31.007-.464,0a.265.265,0,0,1-.275-.283.258.258,0,0,1,.264-.291c.317-.011.634-.012.951,0a.257.257,0,0,1,.253.3.261.261,0,0,1-.264.269c-.154.01-.309,0-.464,0Z" transform="translate(4502.016 2839.374)" fill="#1e866f"/><path d="M-205.949,684.354c-.085,0-.191.032-.25-.007a.588.588,0,0,1-.253-.281.242.242,0,0,1,.232-.291,2.452,2.452,0,0,1,.508-.009.278.278,0,0,1,.28.308.284.284,0,0,1-.285.281c-.076.007-.154,0-.232,0Z" transform="translate(4551.756 2560.538)" fill="#1e866f"/><path d="M-81.862,388.146a2.006,2.006,0,0,1-.254,0,.267.267,0,0,1-.251-.284.26.26,0,0,1,.249-.284,3.487,3.487,0,0,1,.508,0,.263.263,0,0,1,.27.286.273.273,0,0,1-.29.292c-.077,0-.154,0-.232,0Z" transform="translate(4434.933 2839.381)" fill="#1e866f"/><g transform="translate(4037 3044.75)"><g transform="translate(300 179)"><rect width="23" height="23" rx="11.5" transform="translate(0 0)" fill="#1e866f" opacity="0.06"/></g></g><path d="M-47.4,340.29a7.437,7.437,0,0,1-.939,2.562,18.986,18.986,0,0,1-2.292,3.169c-.175.2-.347.208-.516.019a14.553,14.553,0,0,1-2.909-4.414,3.818,3.818,0,0,1,.038-3.208,3.524,3.524,0,0,1,3.554-1.9,3.507,3.507,0,0,1,3.018,2.916,1.027,1.027,0,0,0,.047.151Zm-3.483,5.154a1.445,1.445,0,0,1,.073-.129c.539-.732,1.108-1.445,1.612-2.2a7.183,7.183,0,0,0,1.121-2.471,2.888,2.888,0,0,0-1.66-3.3,2.885,2.885,0,0,0-3.526.986,3.048,3.048,0,0,0-.284,2.961A13.711,13.711,0,0,0-50.887,345.444Z" transform="translate(4408.598 2887.468)" fill="#1e866f"/><path d="M1.516,683.751c.14,0,.28-.01.419,0,.184.016.311.108.3.311a.279.279,0,0,1-.307.282c-.287.008-.574.007-.861,0a.3.3,0,0,1-.019-.591c.154-.013.31,0,.465,0Z" transform="translate(4356.67 2560.547)" fill="#1e866f"/><path d="M-34.108,683.751c.14,0,.28-.009.418,0,.185.016.309.112.3.313a.28.28,0,0,1-.308.28c-.287.006-.574.008-.86,0a.277.277,0,0,1-.3-.288.278.278,0,0,1,.286-.3c.154-.014.31,0,.465,0Z" transform="translate(4390.207 2560.547)" fill="#1e866f"/><path d="M-69.816,683.752c.147,0,.3-.01.442,0a.283.283,0,0,1,.288.3.284.284,0,0,1-.305.287c-.287.007-.574.007-.861,0a.281.281,0,0,1-.308-.282c-.009-.2.119-.3.3-.312.146-.012.295,0,.442,0Z" transform="translate(4423.818 2560.549)" fill="#1e866f"/><path d="M36.8,669.135a.282.282,0,0,1,.288.414,1.668,1.668,0,0,1-.82.724.385.385,0,0,1-.331-.111.313.313,0,0,1,0-.309c.234-.245.5-.463.752-.686A.247.247,0,0,1,36.8,669.135Z" transform="translate(4323.599 2574.305)" fill="#1e866f"/><path d="M52.62,635.939c-.026-.184-.052-.368-.08-.552a.282.282,0,0,1,.232-.365.275.275,0,0,1,.347.258,6.958,6.958,0,0,1,.079.831c.006.252-.126.386-.315.376s-.277-.143-.279-.383c0-.055,0-.109,0-.163Z" transform="translate(4307.933 2606.426)" fill="#1e866f"/><path d="M29.46,609.8a1.96,1.96,0,0,1,1.047.624.342.342,0,0,1-.039.327.351.351,0,0,1-.323.07,5.361,5.361,0,0,1-.818-.477.367.367,0,0,1-.093-.322C29.258,609.927,29.39,609.862,29.46,609.8Z" transform="translate(4329.875 2630.165)" fill="#1e866f"/><path d="M-5.9,609c-.147,0-.3,0-.443,0a.279.279,0,0,1-.307-.281.27.27,0,0,1,.286-.3q.454-.013.908,0a.27.27,0,0,1,.284.3.271.271,0,0,1-.285.278c-.147.006-.295,0-.442,0Z" transform="translate(4363.653 2631.475)" fill="#1e866f"/><path d="M-41.576,609.059c-.155,0-.311.007-.465,0a.267.267,0,0,1-.27-.291.256.256,0,0,1,.253-.281c.325-.01.651-.012.976,0a.252.252,0,0,1,.245.285.266.266,0,0,1-.274.286c-.155.01-.31,0-.465,0Z" transform="translate(4397.223 2631.409)" fill="#1e866f"/><path d="M-77.189,609.031c-.155,0-.31.008-.464,0a.264.264,0,0,1-.266-.291.253.253,0,0,1,.251-.28c.317-.013.635-.013.952,0a.259.259,0,0,1,.266.29.265.265,0,0,1-.273.285c-.154.009-.31,0-.465,0Z" transform="translate(4430.745 2631.437)" fill="#1e866f"/><path d="M-22.975,370.612a1.666,1.666,0,0,1,1.661-1.665,1.679,1.679,0,0,1,1.651,1.657,1.664,1.664,0,0,1-1.667,1.657A1.65,1.65,0,0,1-22.975,370.612Zm2.716-.011a1.079,1.079,0,0,0-1.059-1.055,1.073,1.073,0,0,0-1.064,1.07,1.066,1.066,0,0,0,1.056,1.052A1.073,1.073,0,0,0-20.259,370.6Z" transform="translate(4379.02 2856.908)" fill="#1e866f"/><path d="M-308.539,613.671a1.651,1.651,0,0,1-1.7,1.624,1.668,1.668,0,0,1-1.617-1.662,1.679,1.679,0,0,1,1.679-1.652A1.664,1.664,0,0,1-308.539,613.671Zm-1.65,1.024a1.061,1.061,0,0,0,1.06-1.047,1.066,1.066,0,0,0-1.065-1.067,1.068,1.068,0,0,0-1.061,1.048A1.065,1.065,0,0,0-310.189,614.7Z" transform="translate(4650.974 2628.112)" fill="#1e866f"/></g></g></svg>