<svg xmlns="http://www.w3.org/2000/svg" width="124.037" height="97.563" viewBox="0 0 124.037 97.563">
    <defs>
        <clipPath id="c1c6uw2cma">
            <path data-name="Path 68181" d="M200.954 91.3c-.329.189-.859.5-1.2.653a9.383 9.383 0 0 1-6.951.209 5.644 5.644 0 0 1-1.18-.691c-1.385-1.138-1.24-2.749.368-3.956.3-.228.839-.53 1.166-.719L227.8 66.793c.288-.167.335-.417.132-.6a1.3 1.3 0 0 1 .461.938L235.6 71.3z" transform="translate(-190.672 -66.198)" style="fill:none"/>
        </clipPath>
        <clipPath id="fyri2kz39b">
            <path data-name="Path 68192" d="M151.757 295.912v5.062c0 .379.266.532.594.343l6.613-3.818a1.313 1.313 0 0 0 .594-1.029v-5.062c0-.379-.266-.532-.594-.343l-6.612 3.817a1.313 1.313 0 0 0-.595 1.03z" transform="translate(-151.757 -290.985)" style="fill:#27debf"/>
        </clipPath>
    </defs>
    <g data-name="Group 75709">
        <g data-name="Group 75455">
            <path data-name="Path 68146" d="M40.481 242.7c24.22 12.653 63.488 12.653 87.707 0s24.22-33.167 0-45.819-63.488-12.653-87.708 0-24.219 33.17.001 45.819z" transform="translate(-22.316 -154.631)" style="fill:#f5f5f5"/>
        </g>
        <path data-name="Path 68147" d="M331.105 306.624a13 13 0 0 0-11.761 0c-3.248 1.875-3.248 4.915 0 6.79a13 13 0 0 0 11.761 0c3.248-1.875 3.248-4.914 0-6.79z" transform="translate(-237.747 -240.793)" style="fill:#e0e0e0"/>
        <path data-name="Path 68148" d="M331.105 306.624a13 13 0 0 0-11.761 0c-3.248 1.875-3.248 4.915 0 6.79a13 13 0 0 0 11.761 0c3.248-1.875 3.248-4.914 0-6.79z" transform="translate(-237.747 -240.793)" style="fill:#e0e0e0"/>
        <path data-name="Path 68149" d="M94.68 222.6a13 13 0 0 0-11.761 0c-3.248 1.875-3.248 4.915 0 6.79a13 13 0 0 0 11.761 0c3.248-1.871 3.248-4.911 0-6.79z" transform="translate(-64.853 -179.35)" style="fill:#e0e0e0"/>
        <path data-name="Path 68150" d="M377.981 249.877a13 13 0 0 0-11.761 0c-3.248 1.875-3.248 4.915 0 6.79a13 13 0 0 0 11.761 0c3.248-1.875 3.248-4.915 0-6.79z" transform="translate(-272.026 -199.295)" style="fill:#e0e0e0"/>
        <g data-name="Group 75463">
            <g data-name="Group 75458">
                <g data-name="Group 75456">
                    <path data-name="Path 68151" d="M100.763 301.968a24.167 24.167 0 0 0-1.631-6.942c-1.449-3.576-3.962-6.476-7.171-7.156s-4.432 1-4.162 2.9 2.968 3.342 4.778 4.935 5.191 5.445 6.131 9.166l1.81.2z" transform="translate(-70.176 -227.994)" style="fill:#27debf"/>
                    <path data-name="Path 68152" d="M100.763 301.968a24.167 24.167 0 0 0-1.631-6.942c-1.449-3.576-3.962-6.476-7.171-7.156s-4.432 1-4.162 2.9 2.968 3.342 4.778 4.935 5.191 5.445 6.131 9.166l1.81.2z" transform="translate(-70.176 -227.994)" style="opacity:.2"/>
                </g>
                <g data-name="Group 75457">
                    <path data-name="Path 68153" d="M106.408 307.528h-.008a.134.134 0 0 1-.125-.143c.409-6.379-3.747-13.433-9.461-16.06a.134.134 0 1 1 .112-.244c5.808 2.67 10.032 9.839 9.617 16.321a.134.134 0 0 1-.135.126z" transform="translate(-76.738 -230.446)" style="fill:#f5f5f5"/>
                </g>
            </g>
            <g data-name="Group 75462">
                <path data-name="Path 68154" d="M89.195 344.7a7.205 7.205 0 0 1-4.794.68c-2.923-.5-3.545-2.49-3.795-4.458s-1.686-1.07-3.643-1.881a3.445 3.445 0 0 1-1.846-4.333 4.461 4.461 0 0 1 .981-1.766 6.674 6.674 0 0 1-2.634-2.7 19.846 19.846 0 0 1-1.356-2.948s1.591-1.215 4.733-.556a7.965 7.965 0 0 1 2.915 1.313 4.167 4.167 0 0 1 4.056-1.224 2.662 2.662 0 0 1 1.706 1.647 7.8 7.8 0 0 0 .382.954 1.611 1.611 0 0 0 1.191.671c1.111.159 2.14-.027 3.173.541a3.226 3.226 0 0 1 1.155 1.291c1.52 2.68-2.224 12.769-2.224 12.769z" transform="translate(-58.729 -256.388)" style="fill:#27debf"/>
                <g data-name="Group 75459">
                    <path data-name="Path 68155" d="M94.721 343.4a.134.134 0 0 1-.114-.064 31.18 31.18 0 0 0-16.6-13.11.134.134 0 0 1 .076-.258 31.463 31.463 0 0 1 16.752 13.227.134.134 0 0 1-.044.185.132.132 0 0 1-.07.02z" transform="translate(-62.971 -258.888)" style="fill:#f5f5f5"/>
                </g>
                <g data-name="Group 75460">
                    <path data-name="Path 68156" d="M95.183 352.143a.134.134 0 0 1-.089-.235 8.879 8.879 0 0 1 5.243-2.027.13.13 0 0 1 .137.132.134.134 0 0 1-.132.137 8.759 8.759 0 0 0-5.07 1.96.134.134 0 0 1-.089.033z" transform="translate(-75.505 -273.454)" style="fill:#f5f5f5"/>
                </g>
                <g data-name="Group 75461">
                    <path data-name="Path 68157" d="M107.912 336.073a.134.134 0 0 1-.133-.119 6.88 6.88 0 0 1 .6-3.476.134.134 0 0 1 .241.119 6.727 6.727 0 0 0-.57 3.326.135.135 0 0 1-.119.149z" transform="translate(-84.788 -260.674)" style="fill:#f5f5f5"/>
                </g>
            </g>
        </g>
        <g data-name="Group 75471">
            <g data-name="Group 75465">
                <path data-name="Path 68158" d="M408.611 197.443a17.742 17.742 0 0 1-.554-6.976c.545-3.391 2.159-6.063 4.263-7.183s4.736.117 3 2.509-5.262 5.6-4.926 11.577z" transform="translate(-304.29 -151.319)" style="fill:#37474f"/>
                <g data-name="Group 75464">
                    <path data-name="Path 68159" d="M412.472 199.682a.108.108 0 0 1-.1-.08c-1.174-4.338.533-11.292 4.493-13.756a.108.108 0 1 1 .114.183c-3.883 2.417-5.553 9.251-4.4 13.518a.108.108 0 0 1-.076.132.1.1 0 0 1-.031.003z" transform="translate(-307.288 -153.487)" style="fill:#f5f5f5"/>
                </g>
            </g>
            <g data-name="Group 75470">
                <g data-name="Group 75466">
                    <path data-name="Path 68160" d="M417.284 217.928a2.358 2.358 0 0 0 1.074.286 3.157 3.157 0 0 0 1.3-.2 2.171 2.171 0 0 0 1.536-1.495c.147-.627-.086-1.334.188-1.934a2.826 2.826 0 0 1 1.656-1.136c.394-.125.808-.185 1.195-.332a1.53 1.53 0 0 0 .916-.784c.372-.912-.641-1.946-.308-2.873a2.236 2.236 0 0 1 1.027-1 1.926 1.926 0 0 0 .964-1.052 1.355 1.355 0 0 0-.41-1.209 2.8 2.8 0 0 0-2.968-.458 9.2 9.2 0 0 1-.938.364c-1.248.326-2.576-.493-3.832-.2a2.271 2.271 0 0 0-1.657 1.678c-.061.273-.07.556-.133.829-.159.685-.882.83-1.054 1.531a4.753 4.753 0 0 0 .151 1.928c.168.961.356 1.919.556 2.874q.162.778.333 1.555c.105.476-.034 1 .179 1.437a2.39 2.39 0 0 0 .225.191z" transform="translate(-310.049 -167.884)" style="fill:#455a64"/>
                </g>
                <g data-name="Group 75467">
                    <path data-name="Path 68161" d="M419.776 216.836h-.017a.108.108 0 0 1-.09-.123c.539-3.5 5.451-7.631 8.588-8.049a.108.108 0 1 1 .028.213c-3.07.41-7.876 4.451-8.4 7.869a.108.108 0 0 1-.109.09z" transform="translate(-312.892 -170.182)" style="fill:#f5f5f5"/>
                </g>
                <g data-name="Group 75468">
                    <path data-name="Path 68162" d="M427.476 212.84a.108.108 0 0 1-.107-.1 5.184 5.184 0 0 0-.979-2.97.108.108 0 0 1 .155-.15 5.259 5.259 0 0 1 1.039 3.1.108.108 0 0 1-.1.117z" transform="translate(-317.786 -170.861)" style="fill:#f5f5f5"/>
                </g>
                <g data-name="Group 75469">
                    <path data-name="Path 68163" d="M430.631 225.972a.107.107 0 0 1-.042-.009 7.993 7.993 0 0 0-4.449-.469.108.108 0 1 1-.056-.208 8.062 8.062 0 0 1 4.59.479.108.108 0 0 1-.042.207z" transform="translate(-317.526 -182.213)" style="fill:#f5f5f5"/>
                </g>
            </g>
        </g>
        <g>
            <g data-name="Group 75489">
                <path data-name="Path 68164" d="m364.236 119.813 2.229 1.285v3.86l-2.229-1.287z" transform="translate(-272.356 -105.209)" style="fill:#263238"/>
                <path data-name="Path 68165" d="m230.991 70.762-7.206 4.161V66.6a1.116 1.116 0 0 0-1.708-.986L186.431 86.2a3.505 3.505 0 0 0-2.066 2.88v34.74a3.505 3.505 0 0 0 2.066 2.88l.051.03a11.027 11.027 0 0 0 9.978 0l35.646-20.58a1.317 1.317 0 0 0 .594-1.029V71.062l-.557-.322a1.274 1.274 0 0 0-1.152.022z" transform="translate(-140.82 -65.467)" style="fill:#27debf"/>
                <g data-name="Group 75472">
                    <path data-name="Path 68166" d="M186.455 91.956c-2.744-1.584-2.744-4.176 0-5.761l35.645-20.58a1.274 1.274 0 0 1 1.151-.021c.308.178.291.475-.037.665l-34.65 20.005c-.328.189-.864.492-1.167.719-1.608 1.208-1.754 2.818-.368 3.957a5.673 5.673 0 0 0 1.18.691 9.384 9.384 0 0 0 6.951-.208c.345-.156.876-.465 1.2-.655l34.651-20.006a1.273 1.273 0 0 1 1.151-.021c.308.178.291.475-.037.665l-35.646 20.58a11.069 11.069 0 0 1-9.978 0z" transform="translate(-140.843 -65.467)" style="fill:#27debf"/>
                    <path data-name="Path 68167" d="M186.455 91.956c-2.744-1.584-2.744-4.176 0-5.761l35.645-20.58a1.274 1.274 0 0 1 1.151-.021c.308.178.291.475-.037.665l-34.65 20.005c-.328.189-.864.492-1.167.719-1.608 1.208-1.754 2.818-.368 3.957a5.673 5.673 0 0 0 1.18.691 9.384 9.384 0 0 0 6.951-.208c.345-.156.876-.465 1.2-.655l34.651-20.006a1.273 1.273 0 0 1 1.151-.021c.308.178.291.475-.037.665l-35.646 20.58a11.069 11.069 0 0 1-9.978 0z" transform="translate(-140.843 -65.467)" style="opacity:.3"/>
                </g>
                <g data-name="Group 75480">
                    <g data-name="Group 75473">
                        <path data-name="Path 68168" d="M187.082 169.728a.135.135 0 0 1-.088-.033 4.4 4.4 0 0 1-.487-.493.134.134 0 0 1 .206-.172 4.1 4.1 0 0 0 .457.462.135.135 0 0 1-.088.236z" transform="translate(-142.364 -141.165)" style="fill:#f5f5f5"/>
                    </g>
                    <g data-name="Group 75474">
                        <path data-name="Path 68169" d="M197.778 123.988a.134.134 0 0 1 0-.268 11.8 11.8 0 0 0 1.333-.123.134.134 0 0 1 .04.266 12.012 12.012 0 0 1-1.363.125zm-1.354-.027h-.01a11.767 11.767 0 0 1-1.357-.182.134.134 0 0 1 .052-.264 11.564 11.564 0 0 0 1.326.178.134.134 0 0 1-.01.268zm4.026-.38a.134.134 0 0 1-.037-.263 8.749 8.749 0 0 0 1.252-.457.134.134 0 0 1 .112.245 8.976 8.976 0 0 1-1.291.471.121.121 0 0 1-.035.004zm-6.677-.145a.133.133 0 0 1-.043-.007 8.186 8.186 0 0 1-1.263-.545.134.134 0 1 1 .127-.236 7.978 7.978 0 0 0 1.222.527.134.134 0 0 1-.043.261zm9.137-.967a.134.134 0 0 1-.067-.251l1.173-.677a.134.134 0 0 1 .134.233l-1.173.677a.136.136 0 0 1-.066.018zm2.346-1.355a.134.134 0 0 1-.067-.251l1.173-.677a.134.134 0 0 1 .134.233l-1.173.677a.136.136 0 0 1-.066.019zm2.346-1.355a.134.134 0 0 1-.067-.251l1.173-.677a.134.134 0 0 1 .134.233l-1.173.677a.133.133 0 0 1-.069.019zm2.346-1.355a.134.134 0 0 1-.067-.251l1.173-.677a.134.134 0 1 1 .134.233l-1.173.677a.135.135 0 0 1-.065.019zm2.346-1.355a.134.134 0 0 1-.067-.251l1.173-.677a.134.134 0 0 1 .134.233l-1.173.677a.136.136 0 0 1-.061.02zm2.346-1.355a.134.134 0 0 1-.067-.251l1.173-.677a.134.134 0 1 1 .134.233l-1.173.677a.133.133 0 0 1-.064.024zm2.346-1.355a.134.134 0 0 1-.067-.251l1.173-.677a.134.134 0 0 1 .134.233l-1.173.677a.133.133 0 0 1-.064.02zm2.346-1.355a.134.134 0 0 1-.067-.251l1.173-.677a.134.134 0 0 1 .134.233l-1.173.677a.136.136 0 0 1-.063.021zm2.346-1.355a.134.134 0 0 1-.067-.251l1.173-.677a.134.134 0 0 1 .134.233l-1.173.677a.133.133 0 0 1-.063.021zm2.347-1.355a.134.134 0 0 1-.067-.251l1.173-.677a.134.134 0 0 1 .134.233l-1.173.677a.133.133 0 0 1-.063.021zm2.346-1.355a.134.134 0 0 1-.067-.251l1.173-.677a.134.134 0 1 1 .134.233l-1.173.677a.136.136 0 0 1-.063.021zm2.346-1.355a.134.134 0 0 1-.067-.251l1.173-.677a.134.134 0 1 1 .134.233l-1.173.677a.136.136 0 0 1-.063.022zm2.346-1.355a.134.134 0 0 1-.067-.251l1.173-.677a.134.134 0 0 1 .134.233l-1.173.677a.133.133 0 0 1-.062.022zm2.346-1.355a.135.135 0 0 1-.067-.251l1.173-.677a.134.134 0 0 1 .134.233l-1.173.677a.136.136 0 0 1-.062.022z" transform="translate(-146.694 -93.581)" style="fill:#f5f5f5"/>
                    </g>
                    <g data-name="Group 75475">
                        <path data-name="Path 68170" d="M353.995 101.077a.134.134 0 0 1-.134-.134v-.443l-.38.22a.134.134 0 0 1-.134-.233l.582-.336a.134.134 0 0 1 .2.116v.672a.134.134 0 0 1-.134.138z" transform="translate(-264.344 -90.82)" style="fill:#f5f5f5"/>
                    </g>
                    <g data-name="Group 75476">
                        <path data-name="Path 68171" d="M355.578 133.476a.134.134 0 0 1-.134-.134V132a.134.134 0 0 1 .269 0v1.345a.134.134 0 0 1-.135.131zm0-2.691a.134.134 0 0 1-.134-.134V129.3a.134.134 0 0 1 .269 0v1.345a.134.134 0 0 1-.135.14zm0-2.691a.134.134 0 0 1-.134-.134v-1.345a.134.134 0 0 1 .269 0v1.345a.134.134 0 0 1-.135.134zm0-2.691a.134.134 0 0 1-.134-.134v-1.345a.134.134 0 0 1 .269 0v1.345a.134.134 0 0 1-.135.131zm0-2.691a.134.134 0 0 1-.134-.134v-1.345a.134.134 0 0 1 .269 0v1.345a.134.134 0 0 1-.135.134zm0-2.691a.134.134 0 0 1-.134-.134v-1.345a.134.134 0 0 1 .269 0v1.345a.134.134 0 0 1-.135.134zm0-2.691a.134.134 0 0 1-.134-.134v-1.346a.134.134 0 0 1 .269 0v1.35a.134.134 0 0 1-.135.13zm0-2.691a.134.134 0 0 1-.134-.134v-1.345a.134.134 0 0 1 .269 0v1.34a.134.134 0 0 1-.135.139zm0-2.691a.134.134 0 0 1-.134-.134v-1.345a.134.134 0 0 1 .269 0v1.345a.134.134 0 0 1-.135.134zm0-2.691a.134.134 0 0 1-.134-.134v-1.345a.134.134 0 0 1 .269 0v1.345a.134.134 0 0 1-.135.134z" transform="translate(-265.927 -96.31)" style="fill:#f5f5f5"/>
                    </g>
                    <g data-name="Group 75477">
                        <path data-name="Path 68172" d="M353.413 209.059a.134.134 0 0 1-.067-.251l.515-.3v-.594a.134.134 0 0 1 .269 0v.672a.135.135 0 0 1-.067.116l-.582.336a.135.135 0 0 1-.068.021z" transform="translate(-264.344 -169.54)" style="fill:#f5f5f5"/>
                    </g>
                    <g data-name="Group 75478">
                        <path data-name="Path 68173" d="M197.788 234.13a.134.134 0 0 1 0-.269 11.776 11.776 0 0 0 1.333-.123.134.134 0 1 1 .04.266 12 12 0 0 1-1.363.126zm-1.354-.027h-.01a11.75 11.75 0 0 1-1.358-.181.135.135 0 0 1 .051-.264 11.323 11.323 0 0 0 1.326.177.135.135 0 0 1-.01.269zm4.026-.381a.134.134 0 0 1-.036-.264 8.757 8.757 0 0 0 1.252-.457.134.134 0 0 1 .112.244 9 9 0 0 1-1.29.472.136.136 0 0 1-.038.005zm-6.677-.143a.14.14 0 0 1-.043-.007 8.238 8.238 0 0 1-1.264-.545.134.134 0 1 1 .128-.236 7.986 7.986 0 0 0 1.222.527.134.134 0 0 1-.043.261zm9.137-.97a.134.134 0 0 1-.067-.251l1.173-.677a.134.134 0 0 1 .134.232l-1.173.677a.133.133 0 0 1-.067.02zm2.346-1.355a.134.134 0 0 1-.066-.254l1.173-.677a.134.134 0 1 1 .134.232l-1.173.677a.136.136 0 0 1-.068.023zm2.346-1.355a.134.134 0 0 1-.067-.251l1.173-.677a.134.134 0 0 1 .134.232l-1.173.677a.135.135 0 0 1-.067.02zm2.346-1.355a.134.134 0 0 1-.067-.251l1.173-.677a.134.134 0 1 1 .134.232l-1.173.677a.135.135 0 0 1-.066.021zm2.346-1.355a.134.134 0 0 1-.067-.251l1.173-.677a.134.134 0 0 1 .134.232l-1.173.677a.133.133 0 0 1-.066.021zm2.346-1.355a.134.134 0 0 1-.067-.251l1.173-.677a.134.134 0 1 1 .134.232l-1.173.677a.133.133 0 0 1-.066.021zm2.35-1.353a.134.134 0 0 1-.067-.251l1.173-.677a.134.134 0 1 1 .134.232l-1.173.677a.133.133 0 0 1-.067.019zm2.346-1.355a.134.134 0 0 1-.067-.251l1.173-.677a.134.134 0 0 1 .134.233l-1.173.677a.133.133 0 0 1-.069.019zm2.346-1.355a.134.134 0 0 1-.067-.251l1.173-.677a.134.134 0 1 1 .134.233l-1.173.677a.133.133 0 0 1-.068.019zm2.346-1.355a.134.134 0 0 1-.067-.251l1.173-.677a.134.134 0 0 1 .134.233l-1.173.677a.133.133 0 0 1-.068.019zm2.346-1.355a.134.134 0 0 1-.067-.251l1.173-.677a.134.134 0 0 1 .134.233l-1.173.677a.135.135 0 0 1-.068.02zm2.346-1.355a.134.134 0 0 1-.067-.251l1.173-.677a.134.134 0 0 1 .134.233l-1.173.677a.136.136 0 0 1-.067.02zm2.346-1.355a.134.134 0 0 1-.067-.251l1.173-.677a.134.134 0 0 1 .134.233l-1.173.677a.133.133 0 0 1-.067.02zm2.347-1.351a.134.134 0 0 1-.067-.251l1.173-.677a.134.134 0 0 1 .134.233l-1.173.677a.135.135 0 0 1-.067.018z" transform="translate(-146.7 -174.125)" style="fill:#f5f5f5"/>
                    </g>
                    <g data-name="Group 75479">
                        <path data-name="Path 68174" d="M187.082 279.874a.135.135 0 0 1-.088-.033 4.419 4.419 0 0 1-.487-.493.135.135 0 0 1 .206-.173 4.063 4.063 0 0 0 .457.462.134.134 0 0 1-.088.236z" transform="translate(-142.364 -221.714)" style="fill:#f5f5f5"/>
                    </g>
                </g>
                <g data-name="Group 75486">
                    <g data-name="Group 75485" style="clip-path:url(#c1c6uw2cma)" transform="translate(45.24 .196)">
                        <g data-name="Group 75484">
                            <g data-name="Group 75481">
                                <path data-name="Path 68175" d="M224.928 80v-4.049a1.051 1.051 0 0 0-.475-.823l-.164-.095a1.051 1.051 0 0 0-.95 0l-37.411 21.6 5.572 3.216 32.954-19.026a1.05 1.05 0 0 0 .474-.823z" transform="translate(-187.203 -72.576)" style="fill:#e0e0e0"/>
                                <path data-name="Path 68176" d="m223.339 75.033-37.411 21.6 1.115.643 37.411-21.6a.29.29 0 0 0 0-.548l-.164-.095a1.051 1.051 0 0 0-.951 0z" transform="translate(-187.203 -72.576)" style="fill:#ebebeb"/>
                            </g>
                            <g data-name="Group 75482">
                                <path data-name="Path 68177" d="M233.222 84.788v-4.05a1.05 1.05 0 0 0-.475-.823l-.164-.095a1.05 1.05 0 0 0-.95 0l-37.411 21.6 5.572 3.217 32.953-19.027a1.051 1.051 0 0 0 .475-.822z" transform="translate(-193.268 -76.077)" style="fill:#e0e0e0"/>
                                <path data-name="Path 68178" d="m231.633 79.821-37.411 21.6 1.115.643 37.41-21.6a.29.29 0 0 0 0-.549l-.164-.095a1.05 1.05 0 0 0-.95.001z" transform="translate(-193.268 -76.077)" style="fill:#ebebeb"/>
                            </g>
                            <g data-name="Group 75483">
                                <path data-name="Path 68179" d="M241.515 89.573v-4.05a1.051 1.051 0 0 0-.475-.823l-.164-.095a1.05 1.05 0 0 0-.95 0l-37.411 21.6 5.571 3.217L241.04 90.4a1.05 1.05 0 0 0 .475-.827z" transform="translate(-199.333 -79.576)" style="fill:#e0e0e0"/>
                                <path data-name="Path 68180" d="m239.926 84.606-37.411 21.6 1.114.643 37.411-21.6a.29.29 0 0 0 0-.549l-.164-.095a1.05 1.05 0 0 0-.95.001z" transform="translate(-199.333 -79.576)" style="fill:#ebebeb"/>
                            </g>
                        </g>
                    </g>
                </g>
                <g data-name="Group 75487">
                    <path data-name="Path 68182" d="M326.239 122.935v7.908a1.056 1.056 0 0 1-.475.823L311.336 140a.137.137 0 0 1-.027.014 2.943 2.943 0 0 1-2.8.329 30.714 30.714 0 0 1-1.271-.739 2.732 2.732 0 0 1-1.052-2.424 8.814 8.814 0 0 1 3.827-6.707l13.524-7.807a.787.787 0 0 0 .071-.049c.189-.151.165-.362-.071-.5l-1.753-1.012v-1.286l3.983 2.3a1.061 1.061 0 0 1 .466.73.538.538 0 0 1 .006.086z" transform="translate(-229.902 -105.209)" style="fill:#27debf"/>
                    <path data-name="Path 68183" d="M326.239 122.935v7.908a1.056 1.056 0 0 1-.475.823L311.336 140a.137.137 0 0 1-.027.014 2.943 2.943 0 0 1-2.8.329 30.714 30.714 0 0 1-1.271-.739 2.732 2.732 0 0 1-1.052-2.424 8.814 8.814 0 0 1 3.827-6.707l13.524-7.807a.787.787 0 0 0 .071-.049c.189-.151.165-.362-.071-.5l-1.753-1.012v-1.286l3.983 2.3a1.061 1.061 0 0 1 .466.73.538.538 0 0 1 .006.086z" transform="translate(-229.902 -105.209)" style="opacity:.3"/>
                </g>
                <path data-name="Path 68184" d="M329.269 130.5v7.908a1.056 1.056 0 0 1-.475.823l-14.429 8.331a.139.139 0 0 1-.027.014c-1.421.812-2.672.7-3.385-.135a3.116 3.116 0 0 1-.628-2.052 8.782 8.782 0 0 1 4.041-6.836l13.79-7.961.639-.368c.233-.137.428-.055.466.181a.541.541 0 0 1 .008.095z" transform="translate(-232.932 -112.777)" style="fill:#27debf"/>
                <g data-name="Group 75488">
                    <path data-name="Path 68185" d="M322.77 171.16c0 1.066.748 1.5 1.671.965a3.694 3.694 0 0 0 1.671-2.9c0-1.066-.748-1.5-1.671-.965a3.7 3.7 0 0 0-1.671 2.9z" transform="translate(-242.033 -140.475)" style="fill:#37474f"/>
                    <path data-name="Path 68186" d="m327.5 168.857-.5-.283-2.417 4.06.568.327z" transform="translate(-243.362 -140.868)" style="fill:#37474f"/>
                    <path data-name="Path 68187" d="M324.843 172.357c0 1.066.748 1.5 1.672.965a3.7 3.7 0 0 0 1.671-2.9c0-1.066-.749-1.5-1.672-.965a3.7 3.7 0 0 0-1.671 2.9z" transform="translate(-243.549 -141.35)" style="fill:#455a64"/>
                </g>
            </g>
        </g>
        <g>
            <g data-name="Group 75497">
                <path data-name="Path 68188" d="M135.727 241.027a1.273 1.273 0 0 1-.557-1.007v-32.082a1.313 1.313 0 0 1 .594-1.029l41.155-23.761a1.116 1.116 0 0 1 1.709.986v32.082a1.313 1.313 0 0 1-.594 1.029l-41.155 23.761a1.273 1.273 0 0 1-1.152.021z" transform="translate(-104.844 -151.417)" style="fill:#455a64"/>
                <path data-name="Path 68189" d="m137.4 274.811-2.055-1.186a1.218 1.218 0 0 0-.174.586v32.082a1.116 1.116 0 0 0 1.708.986l.521-.3z" transform="translate(-104.844 -217.689)" style="fill:#263238"/>
                <path data-name="Path 68190" d="M139.317 210.516V242.6c0 .379.266.532.594.343l41.155-23.761a1.313 1.313 0 0 0 .594-1.029v-32.084c0-.379-.266-.532-.594-.343l-41.155 23.761a1.312 1.312 0 0 0-.594 1.029z" transform="translate(-107.877 -153.351)" style="fill:#37474f"/>
                <g data-name="Group 75495">
                    <path data-name="Path 68191" d="M151.757 295.912v5.062c0 .379.266.532.594.343l6.613-3.818a1.313 1.313 0 0 0 .594-1.029v-5.062c0-.379-.266-.532-.594-.343l-6.612 3.817a1.313 1.313 0 0 0-.595 1.03z" transform="translate(-116.974 -230.384)" style="fill:#27debf"/>
                    <g data-name="Group 75494" style="clip-path:url(#fyri2kz39b)" transform="translate(34.783 60.601)">
                        <g data-name="Group 75490">
                            <path data-name="Rectangle 10043" transform="rotate(-30.021 11.905 5.553)" style="fill:#f5f5f5" d="M0 0h11.58v.269H0z"/>
                        </g>
                        <g data-name="Group 75491">
                            <path data-name="Rectangle 10044" style="fill:#f5f5f5" d="M0 0h.269v2.579H0z" transform="translate(2.094 4.885)"/>
                        </g>
                        <g data-name="Group 75492">
                            <path data-name="Rectangle 10045" style="fill:#f5f5f5" d="M0 0h.269v2.575H0z" transform="translate(5.437 2.966)"/>
                        </g>
                        <g data-name="Group 75493">
                            <path data-name="Rectangle 10046" transform="rotate(-30.021 16.723 6.845)" style="fill:#f5f5f5" d="M0 0h11.58v.269H0z"/>
                        </g>
                    </g>
                </g>
                <text data-name="CREDIT CARD" transform="translate(34.801 59.864)" style="fill:#fff;font-size:2px;font-family:BebasKai,Bebas Kai"><tspan x="0" y="0">CREDIT CARD</tspan></text>
                <g data-name="Group 75496">
                    <path data-name="Path 68193" d="M151.757 331.826v1.2c0 .379.266.532.594.343l6.612-3.818a1.313 1.313 0 0 0 .594-1.029v-1.2c0-.379-.266-.532-.594-.343l-6.612 3.817a1.313 1.313 0 0 0-.594 1.03z" transform="translate(-116.974 -256.648)" style="fill:#e0e0e0"/>
                    <path data-name="Path 68194" d="M186.313 311.873v1.2c0 .379.266.532.594.343l6.612-3.818a1.313 1.313 0 0 0 .594-1.029v-1.2c0-.379-.266-.532-.594-.343l-6.612 3.817a1.313 1.313 0 0 0-.594 1.03z" transform="translate(-142.244 -242.057)" style="fill:#e0e0e0"/>
                    <path data-name="Path 68195" d="M220.868 291.921v1.2c0 .379.266.532.594.343l6.612-3.818a1.313 1.313 0 0 0 .594-1.029v-1.2c0-.379-.266-.532-.594-.343l-6.612 3.818a1.312 1.312 0 0 0-.594 1.029z" transform="translate(-167.514 -227.465)" style="fill:#e0e0e0"/>
                    <path data-name="Path 68196" d="M255.424 271.968v1.2c0 .379.266.532.594.343l6.612-3.818a1.312 1.312 0 0 0 .594-1.029v-1.2c0-.379-.266-.532-.594-.343l-6.612 3.818a1.312 1.312 0 0 0-.594 1.029z" transform="translate(-192.784 -212.874)" style="fill:#e0e0e0"/>
                </g>
                <path data-name="Path 68197" d="m265.59 290.644-1.516.875a.787.787 0 0 0-.356.617v.464c0 .227.159.319.356.206l1.516-.875a.788.788 0 0 0 .356-.617v-.464c0-.228-.159-.32-.356-.206z" transform="translate(-198.849 -230.099)" style="fill:#27debf"/>
                <path data-name="Path 68198" d="m278.029 283.461-1.516.875a.787.787 0 0 0-.356.617v.464c0 .227.16.32.356.206l1.516-.875a.788.788 0 0 0 .356-.617v-.464c.001-.227-.159-.319-.356-.206z" transform="translate(-207.945 -224.847)" style="fill:#27debf"/>
                <path data-name="Path 68199" d="m210.292 306.81 18.869-10.894c.328-.189.594-.036.594.343v.559a1.314 1.314 0 0 1-.594 1.029l-18.87 10.894c-.328.189-.594.036-.594-.343v-.558a1.312 1.312 0 0 1 .595-1.03z" transform="translate(-159.345 -233.931)" style="fill:#27debf"/>
            </g>
        </g>
        <g>
            <g data-name="Group 75530">
                <g data-name="Group 75513">
                    <g data-name="Group 75498">
                        <path data-name="Path 68200" d="M334.539 307.188a4.841 4.841 0 0 0-1.792-1.657 11.728 11.728 0 0 0-10.611 0 4.841 4.841 0 0 0-1.792 1.657h-.406v1.533h.005a3.8 3.8 0 0 0 2.192 2.936 11.727 11.727 0 0 0 10.611 0 3.8 3.8 0 0 0 2.192-2.936h.005v-1.533z" transform="translate(-239.962 -240.094)" style="fill:#27debf"/>
                        <path data-name="Path 68201" d="M334.539 307.188a4.841 4.841 0 0 0-1.792-1.657 11.728 11.728 0 0 0-10.611 0 4.841 4.841 0 0 0-1.792 1.657h-.406v1.533h.005a3.8 3.8 0 0 0 2.192 2.936 11.727 11.727 0 0 0 10.611 0 3.8 3.8 0 0 0 2.192-2.936h.005v-1.533z" transform="translate(-239.962 -240.094)" style="opacity:.5;fill:#f5f5f5"/>
                    </g>
                    <g data-name="Group 75503">
                        <g data-name="Group 75499">
                            <path data-name="Path 68202" d="M332.747 300.3a11.727 11.727 0 0 0-10.611 0c-2.93 1.692-2.93 4.435 0 6.126a11.727 11.727 0 0 0 10.611 0c2.931-1.689 2.931-4.433 0-6.126z" transform="translate(-239.962 -236.27)" style="fill:#27debf"/>
                            <path data-name="Path 68203" d="M332.747 300.3a11.727 11.727 0 0 0-10.611 0c-2.93 1.692-2.93 4.435 0 6.126a11.727 11.727 0 0 0 10.611 0c2.931-1.689 2.931-4.433 0-6.126z" transform="translate(-239.962 -236.27)" style="opacity:.6;fill:#f5f5f5"/>
                        </g>
                        <g data-name="Group 75502">
                            <g data-name="Group 75500">
                                <path data-name="Path 68204" d="M337.769 305.92a8.466 8.466 0 0 0-6.91 0 2 2 0 0 0 0 3.884 8.452 8.452 0 0 0 6.91 0 2 2 0 0 0 0-3.884z" transform="translate(-246.835 -240.767)" style="fill:#27debf"/>
                                <path data-name="Path 68205" d="M337.769 305.92a8.466 8.466 0 0 0-6.91 0 2 2 0 0 0 0 3.884 8.452 8.452 0 0 0 6.91 0 2 2 0 0 0 0-3.884z" transform="translate(-246.835 -240.767)" style="opacity:.6;fill:#f5f5f5"/>
                            </g>
                            <g data-name="Group 75501">
                                <path data-name="Path 68206" d="M333.475 301.472a11.4 11.4 0 0 0-10.284 0 2.917 2.917 0 0 0 0 5.561 11.409 11.409 0 0 0 10.284 0 2.917 2.917 0 0 0 0-5.561zm-1.687 4.722a8.452 8.452 0 0 1-6.91 0 2 2 0 0 1 0-3.884 8.466 8.466 0 0 1 6.91 0 2 2 0 0 1 0 3.884z" transform="translate(-240.853 -237.157)" style="fill:#27debf"/>
                                <path data-name="Path 68207" d="M333.475 301.472a11.4 11.4 0 0 0-10.284 0 2.917 2.917 0 0 0 0 5.561 11.409 11.409 0 0 0 10.284 0 2.917 2.917 0 0 0 0-5.561zm-1.687 4.722a8.452 8.452 0 0 1-6.91 0 2 2 0 0 1 0-3.884 8.466 8.466 0 0 1 6.91 0 2 2 0 0 1 0 3.884z" transform="translate(-240.853 -237.157)" style="opacity:.7;fill:#f5f5f5"/>
                            </g>
                        </g>
                    </g>
                    <g data-name="Group 75506">
                        <g data-name="Group 75504">
                            <path data-name="Path 68208" d="M338.355 310.275c1.843-.946 1.843-2.479 0-3.425a8.2 8.2 0 0 0-6.674 0c-1.843.946-1.843 2.479 0 3.425a8.2 8.2 0 0 0 6.674 0z" transform="translate(-247.539 -241.467)" style="fill:#27debf"/>
                            <path data-name="Path 68209" d="M338.355 310.275c1.843-.946 1.843-2.479 0-3.425a8.2 8.2 0 0 0-6.674 0c-1.843.946-1.843 2.479 0 3.425a8.2 8.2 0 0 0 6.674 0z" transform="translate(-247.539 -241.467)" style="opacity:.5;fill:#f5f5f5"/>
                        </g>
                        <g data-name="Group 75505">
                            <path data-name="Path 68210" d="M338.47 309.237a8.2 8.2 0 0 0-6.674 0 1.393 1.393 0 0 0 0 2.783 8.205 8.205 0 0 0 6.674 0 1.393 1.393 0 0 0 0-2.783z" transform="translate(-247.654 -243.213)" style="fill:#27debf"/>
                            <path data-name="Path 68211" d="M338.47 309.237a8.2 8.2 0 0 0-6.674 0 1.393 1.393 0 0 0 0 2.783 8.205 8.205 0 0 0 6.674 0 1.393 1.393 0 0 0 0-2.783z" transform="translate(-247.654 -243.213)" style="opacity:.6;fill:#f5f5f5"/>
                        </g>
                    </g>
                    <g data-name="Group 75512">
                        <g data-name="Group 75509">
                            <g data-name="Group 75507">
                                <path data-name="Path 68212" d="M347.692 308.918v.692l-.236.249-.437.458v-.72z" transform="translate(-259.766 -243.499)" style="fill:#27debf"/>
                                <path data-name="Path 68213" d="M343.3 310.948v.72h-1.365v-.844s1.265-.193 1.365.124z" transform="translate(-256.048 -244.851)" style="fill:#27debf"/>
                                <path data-name="Path 68214" d="M342.854 312.187v.6l-.757.437-.56-.324a2.852 2.852 0 0 1-2.167.1v-.6l.344-.341-.344.095a2.212 2.212 0 0 1-1.688-.193c-.34-.2-.5-.41-.5-.63v-.581l.061-.254-.206-.12v-.6l.56.324a.865.865 0 0 0-.415.642v.007c.006.215.165.423.5.615a2.5 2.5 0 0 0 2.133.07c.621-.2 1.074-.441 1.432-.234.223.129.155.285-.095.429a1.241 1.241 0 0 1-1.067.062l-.715.709a2.517 2.517 0 0 0 .4.116 2.947 2.947 0 0 0 1.772-.213l.56.324z" transform="translate(-252.468 -244.124)" style="fill:#27debf"/>
                                <path data-name="Path 68215" d="M353.775 319.175v.6l.56.324v-.6z" transform="translate(-264.706 -251)" style="fill:#27debf"/>
                            </g>
                            <g data-name="Group 75508" style="opacity:.5">
                                <path data-name="Path 68216" d="M347.692 308.918v.692l-.236.249-.437.458v-.72z" transform="translate(-259.766 -243.499)" style="fill:#f5f5f5"/>
                                <path data-name="Path 68217" d="M343.3 310.948v.72h-1.365v-.844s1.265-.193 1.365.124z" transform="translate(-256.048 -244.851)" style="fill:#f5f5f5"/>
                                <path data-name="Path 68218" d="M342.854 312.187v.6l-.757.437-.56-.324a2.852 2.852 0 0 1-2.167.1v-.6l.344-.341-.344.095a2.212 2.212 0 0 1-1.688-.193c-.34-.2-.5-.41-.5-.63v-.581l.061-.254-.206-.12v-.6l.56.324a.865.865 0 0 0-.415.642v.007c.006.215.165.423.5.615a2.5 2.5 0 0 0 2.133.07c.621-.2 1.074-.441 1.432-.234.223.129.155.285-.095.429a1.241 1.241 0 0 1-1.067.062l-.715.709a2.517 2.517 0 0 0 .4.116 2.947 2.947 0 0 0 1.772-.213l.56.324z" transform="translate(-252.468 -244.124)" style="fill:#f5f5f5"/>
                                <path data-name="Path 68219" d="M353.775 319.175v.6l.56.324v-.6z" transform="translate(-264.706 -251)" style="fill:#f5f5f5"/>
                            </g>
                        </g>
                        <g data-name="Group 75511">
                            <g data-name="Group 75510">
                                <path data-name="Path 68220" d="m342.727 310.917-.433-.251a.737.737 0 0 0 .433-.664.566.566 0 0 0 0-.058.817.817 0 0 0-.484-.587 1.987 1.987 0 0 0-1.007-.263H341.141l-.09.006c-.026 0-.052 0-.079.008h-.032a.574.574 0 0 0-.06.008 4.035 4.035 0 0 0-.489.1 4.32 4.32 0 0 0-.229.068l-.317.1-.12.041a3.705 3.705 0 0 1-.671.191.7.7 0 0 1-.289-.011.6.6 0 0 1-.135-.056c-.169-.1-.2-.246.122-.429a1.107 1.107 0 0 1 .973-.1l.673-.679a2.883 2.883 0 0 0-2.031.112l-.561-.322-.763.441.561.322a.867.867 0 0 0-.416.643v.006c.008.215.165.424.5.615a2.5 2.5 0 0 0 2.134.07c.621-.2 1.073-.441 1.431-.235.223.13.156.285-.094.429a1.232 1.232 0 0 1-1.067.062l-.716.71a2.756 2.756 0 0 0 .4.116 2.954 2.954 0 0 0 1.772-.214l.561.325.756-.437z" transform="translate(-252.468 -242.927)" style="fill:#27debf"/>
                                <path data-name="Path 68221" d="m342.727 310.917-.433-.251a.737.737 0 0 0 .433-.664.566.566 0 0 0 0-.058.817.817 0 0 0-.484-.587 1.987 1.987 0 0 0-1.007-.263H341.141l-.09.006c-.026 0-.052 0-.079.008h-.032a.574.574 0 0 0-.06.008 4.035 4.035 0 0 0-.489.1 4.32 4.32 0 0 0-.229.068l-.317.1-.12.041a3.705 3.705 0 0 1-.671.191.7.7 0 0 1-.289-.011.6.6 0 0 1-.135-.056c-.169-.1-.2-.246.122-.429a1.107 1.107 0 0 1 .973-.1l.673-.679a2.883 2.883 0 0 0-2.031.112l-.561-.322-.763.441.561.322a.867.867 0 0 0-.416.643v.006c.008.215.165.424.5.615a2.5 2.5 0 0 0 2.134.07c.621-.2 1.073-.441 1.431-.235.223.13.156.285-.094.429a1.232 1.232 0 0 1-1.067.062l-.716.71a2.756 2.756 0 0 0 .4.116 2.954 2.954 0 0 0 1.772-.214l.561.325.756-.437z" transform="translate(-252.468 -242.927)" style="opacity:.7;fill:#f5f5f5"/>
                            </g>
                        </g>
                    </g>
                </g>
                <g data-name="Group 75529">
                    <g data-name="Group 75514">
                        <path data-name="Path 68222" d="M336.2 299.347a4.84 4.84 0 0 0-1.792-1.657 11.727 11.727 0 0 0-10.611 0 4.839 4.839 0 0 0-1.792 1.657h-.405v1.533h.005a3.8 3.8 0 0 0 2.192 2.936 11.729 11.729 0 0 0 10.611 0 3.8 3.8 0 0 0 2.192-2.936h.005v-1.533z" transform="translate(-241.178 -234.36)" style="fill:#27debf"/>
                        <path data-name="Path 68223" d="M336.2 299.347a4.84 4.84 0 0 0-1.792-1.657 11.727 11.727 0 0 0-10.611 0 4.839 4.839 0 0 0-1.792 1.657h-.405v1.533h.005a3.8 3.8 0 0 0 2.192 2.936 11.729 11.729 0 0 0 10.611 0 3.8 3.8 0 0 0 2.192-2.936h.005v-1.533z" transform="translate(-241.178 -234.36)" style="opacity:.5;fill:#f5f5f5"/>
                    </g>
                    <g data-name="Group 75519">
                        <g data-name="Group 75515">
                            <path data-name="Path 68224" d="M334.41 292.461a11.728 11.728 0 0 0-10.611 0c-2.93 1.692-2.93 4.435 0 6.127a11.727 11.727 0 0 0 10.611 0c2.931-1.688 2.931-4.435 0-6.127z" transform="translate(-241.178 -230.537)" style="fill:#27debf"/>
                            <path data-name="Path 68225" d="M334.41 292.461a11.728 11.728 0 0 0-10.611 0c-2.93 1.692-2.93 4.435 0 6.127a11.727 11.727 0 0 0 10.611 0c2.931-1.688 2.931-4.435 0-6.127z" transform="translate(-241.178 -230.537)" style="opacity:.6;fill:#f5f5f5"/>
                        </g>
                        <g data-name="Group 75518">
                            <g data-name="Group 75516">
                                <path data-name="Path 68226" d="M339.432 298.08a8.465 8.465 0 0 0-6.91 0 2 2 0 0 0 0 3.884 8.452 8.452 0 0 0 6.91 0 2 2 0 0 0 0-3.884z" transform="translate(-248.051 -235.034)" style="fill:#27debf"/>
                                <path data-name="Path 68227" d="M339.432 298.08a8.465 8.465 0 0 0-6.91 0 2 2 0 0 0 0 3.884 8.452 8.452 0 0 0 6.91 0 2 2 0 0 0 0-3.884z" transform="translate(-248.051 -235.034)" style="opacity:.6;fill:#f5f5f5"/>
                            </g>
                            <g data-name="Group 75517">
                                <path data-name="Path 68228" d="M335.138 293.631a11.4 11.4 0 0 0-10.284 0 2.917 2.917 0 0 0 0 5.561 11.412 11.412 0 0 0 10.284 0 2.917 2.917 0 0 0 0-5.561zm-1.688 4.722a8.452 8.452 0 0 1-6.91 0 2 2 0 0 1 0-3.884 8.465 8.465 0 0 1 6.91 0 2 2 0 0 1 0 3.884z" transform="translate(-242.069 -231.423)" style="fill:#27debf"/>
                                <path data-name="Path 68229" d="M335.138 293.631a11.4 11.4 0 0 0-10.284 0 2.917 2.917 0 0 0 0 5.561 11.412 11.412 0 0 0 10.284 0 2.917 2.917 0 0 0 0-5.561zm-1.688 4.722a8.452 8.452 0 0 1-6.91 0 2 2 0 0 1 0-3.884 8.465 8.465 0 0 1 6.91 0 2 2 0 0 1 0 3.884z" transform="translate(-242.069 -231.423)" style="opacity:.7;fill:#f5f5f5"/>
                            </g>
                        </g>
                    </g>
                    <g data-name="Group 75522">
                        <g data-name="Group 75520" transform="translate(83.207 62.566)">
                            <ellipse data-name="Ellipse 1388" cx="4.719" cy="2.422" rx="4.719" ry="2.422" style="fill:#27debf"/>
                            <ellipse data-name="Ellipse 1389" cx="4.719" cy="2.422" rx="4.719" ry="2.422" style="opacity:.5;fill:#f5f5f5"/>
                        </g>
                        <g data-name="Group 75521">
                            <path data-name="Path 68230" d="M340.134 301.4a8.2 8.2 0 0 0-6.674 0 1.393 1.393 0 0 0 0 2.783 8.2 8.2 0 0 0 6.674 0 1.393 1.393 0 0 0 0-2.783z" transform="translate(-248.871 -237.48)" style="fill:#27debf"/>
                            <path data-name="Path 68231" d="M340.134 301.4a8.2 8.2 0 0 0-6.674 0 1.393 1.393 0 0 0 0 2.783 8.2 8.2 0 0 0 6.674 0 1.393 1.393 0 0 0 0-2.783z" transform="translate(-248.871 -237.48)" style="opacity:.6;fill:#f5f5f5"/>
                        </g>
                    </g>
                    <g data-name="Group 75528">
                        <g data-name="Group 75525">
                            <g data-name="Group 75523">
                                <path data-name="Path 68232" d="M349.355 301.077v.692l-.236.249-.437.458v-.72z" transform="translate(-260.982 -237.765)" style="fill:#27debf"/>
                                <path data-name="Path 68233" d="M344.964 303.108v.72H343.6v-.844s1.261-.193 1.364.124z" transform="translate(-257.264 -239.117)" style="fill:#27debf"/>
                                <path data-name="Path 68234" d="M344.517 304.346v.6l-.757.437-.56-.324a2.851 2.851 0 0 1-2.167.1v-.6l.344-.341-.344.095a2.213 2.213 0 0 1-1.688-.193c-.339-.2-.5-.41-.5-.63v-.581l.061-.254-.207-.12v-.6l.56.324a.863.863 0 0 0-.415.642v.007c.006.215.165.423.5.615a2.5 2.5 0 0 0 2.133.071c.621-.2 1.074-.441 1.432-.235.222.129.155.285-.095.429a1.243 1.243 0 0 1-1.067.062l-.715.709a2.55 2.55 0 0 0 .4.116 2.948 2.948 0 0 0 1.772-.213l.56.324z" transform="translate(-253.684 -238.391)" style="fill:#27debf"/>
                                <path data-name="Path 68235" d="M355.438 311.335v.6l.56.324v-.6z" transform="translate(-265.922 -245.266)" style="fill:#27debf"/>
                            </g>
                            <g data-name="Group 75524" style="opacity:.5">
                                <path data-name="Path 68236" d="M349.355 301.077v.692l-.236.249-.437.458v-.72z" transform="translate(-260.982 -237.765)" style="fill:#f5f5f5"/>
                                <path data-name="Path 68237" d="M344.964 303.108v.72H343.6v-.844s1.261-.193 1.364.124z" transform="translate(-257.264 -239.117)" style="fill:#f5f5f5"/>
                                <path data-name="Path 68238" d="M344.517 304.346v.6l-.757.437-.56-.324a2.851 2.851 0 0 1-2.167.1v-.6l.344-.341-.344.095a2.213 2.213 0 0 1-1.688-.193c-.339-.2-.5-.41-.5-.63v-.581l.061-.254-.207-.12v-.6l.56.324a.863.863 0 0 0-.415.642v.007c.006.215.165.423.5.615a2.5 2.5 0 0 0 2.133.071c.621-.2 1.074-.441 1.432-.235.222.129.155.285-.095.429a1.243 1.243 0 0 1-1.067.062l-.715.709a2.55 2.55 0 0 0 .4.116 2.948 2.948 0 0 0 1.772-.213l.56.324z" transform="translate(-253.684 -238.391)" style="fill:#f5f5f5"/>
                                <path data-name="Path 68239" d="M355.438 311.335v.6l.56.324v-.6z" transform="translate(-265.922 -245.266)" style="fill:#f5f5f5"/>
                            </g>
                        </g>
                        <g data-name="Group 75527">
                            <g data-name="Group 75526">
                                <path data-name="Path 68240" d="m344.39 303.077-.433-.251a.738.738 0 0 0 .433-.664.575.575 0 0 0 0-.058.818.818 0 0 0-.484-.587 1.99 1.99 0 0 0-1.007-.263H342.8l-.09.005c-.026 0-.053 0-.079.008h-.032a.577.577 0 0 0-.06.008 4.023 4.023 0 0 0-.49.1 5.516 5.516 0 0 0-.229.067l-.317.1-.12.041a3.7 3.7 0 0 1-.671.191.7.7 0 0 1-.289-.011.589.589 0 0 1-.135-.056c-.169-.1-.2-.246.122-.429a1.107 1.107 0 0 1 .973-.1l.673-.679a2.883 2.883 0 0 0-2.031.113l-.561-.322-.763.44.561.323a.866.866 0 0 0-.416.643v.006c.008.216.165.424.5.615a2.5 2.5 0 0 0 2.134.069c.621-.2 1.072-.441 1.431-.234.223.129.156.285-.094.429a1.232 1.232 0 0 1-1.067.062l-.716.711a2.756 2.756 0 0 0 .4.116 2.954 2.954 0 0 0 1.772-.214l.561.324.756-.437z" transform="translate(-253.684 -237.194)" style="fill:#27debf"/>
                                <path data-name="Path 68241" d="m344.39 303.077-.433-.251a.738.738 0 0 0 .433-.664.575.575 0 0 0 0-.058.818.818 0 0 0-.484-.587 1.99 1.99 0 0 0-1.007-.263H342.8l-.09.005c-.026 0-.053 0-.079.008h-.032a.577.577 0 0 0-.06.008 4.023 4.023 0 0 0-.49.1 5.516 5.516 0 0 0-.229.067l-.317.1-.12.041a3.7 3.7 0 0 1-.671.191.7.7 0 0 1-.289-.011.589.589 0 0 1-.135-.056c-.169-.1-.2-.246.122-.429a1.107 1.107 0 0 1 .973-.1l.673-.679a2.883 2.883 0 0 0-2.031.113l-.561-.322-.763.44.561.323a.866.866 0 0 0-.416.643v.006c.008.216.165.424.5.615a2.5 2.5 0 0 0 2.134.069c.621-.2 1.072-.441 1.431-.234.223.129.156.285-.094.429a1.232 1.232 0 0 1-1.067.062l-.716.711a2.756 2.756 0 0 0 .4.116 2.954 2.954 0 0 0 1.772-.214l.561.324.756-.437z" transform="translate(-253.684 -237.194)" style="opacity:.7;fill:#f5f5f5"/>
                            </g>
                        </g>
                    </g>
                </g>
            </g>
            <g data-name="Group 75563">
                <g data-name="Group 75546">
                    <g data-name="Group 75531">
                        <path data-name="Path 68242" d="M334.539 307.188a4.841 4.841 0 0 0-1.792-1.657 11.728 11.728 0 0 0-10.611 0 4.841 4.841 0 0 0-1.792 1.657h-.406v1.533h.005a3.8 3.8 0 0 0 2.192 2.936 11.727 11.727 0 0 0 10.611 0 3.8 3.8 0 0 0 2.192-2.936h.005v-1.533z" transform="translate(-239.962 -240.094)" style="fill:#27debf"/>
                        <path data-name="Path 68243" d="M334.539 307.188a4.841 4.841 0 0 0-1.792-1.657 11.728 11.728 0 0 0-10.611 0 4.841 4.841 0 0 0-1.792 1.657h-.406v1.533h.005a3.8 3.8 0 0 0 2.192 2.936 11.727 11.727 0 0 0 10.611 0 3.8 3.8 0 0 0 2.192-2.936h.005v-1.533z" transform="translate(-239.962 -240.094)" style="opacity:.5;fill:#f5f5f5"/>
                    </g>
                    <g data-name="Group 75536">
                        <g data-name="Group 75532">
                            <path data-name="Path 68244" d="M332.747 300.3a11.727 11.727 0 0 0-10.611 0c-2.93 1.692-2.93 4.435 0 6.126a11.727 11.727 0 0 0 10.611 0c2.931-1.689 2.931-4.433 0-6.126z" transform="translate(-239.962 -236.27)" style="fill:#27debf"/>
                            <path data-name="Path 68245" d="M332.747 300.3a11.727 11.727 0 0 0-10.611 0c-2.93 1.692-2.93 4.435 0 6.126a11.727 11.727 0 0 0 10.611 0c2.931-1.689 2.931-4.433 0-6.126z" transform="translate(-239.962 -236.27)" style="opacity:.6;fill:#f5f5f5"/>
                        </g>
                        <g data-name="Group 75535">
                            <g data-name="Group 75533">
                                <path data-name="Path 68246" d="M337.769 305.92a8.466 8.466 0 0 0-6.91 0 2 2 0 0 0 0 3.884 8.452 8.452 0 0 0 6.91 0 2 2 0 0 0 0-3.884z" transform="translate(-246.835 -240.767)" style="fill:#27debf"/>
                                <path data-name="Path 68247" d="M337.769 305.92a8.466 8.466 0 0 0-6.91 0 2 2 0 0 0 0 3.884 8.452 8.452 0 0 0 6.91 0 2 2 0 0 0 0-3.884z" transform="translate(-246.835 -240.767)" style="opacity:.6;fill:#f5f5f5"/>
                            </g>
                            <g data-name="Group 75534">
                                <path data-name="Path 68248" d="M333.475 301.472a11.4 11.4 0 0 0-10.284 0 2.917 2.917 0 0 0 0 5.561 11.409 11.409 0 0 0 10.284 0 2.917 2.917 0 0 0 0-5.561zm-1.687 4.722a8.452 8.452 0 0 1-6.91 0 2 2 0 0 1 0-3.884 8.466 8.466 0 0 1 6.91 0 2 2 0 0 1 0 3.884z" transform="translate(-240.853 -237.157)" style="fill:#27debf"/>
                                <path data-name="Path 68249" d="M333.475 301.472a11.4 11.4 0 0 0-10.284 0 2.917 2.917 0 0 0 0 5.561 11.409 11.409 0 0 0 10.284 0 2.917 2.917 0 0 0 0-5.561zm-1.687 4.722a8.452 8.452 0 0 1-6.91 0 2 2 0 0 1 0-3.884 8.466 8.466 0 0 1 6.91 0 2 2 0 0 1 0 3.884z" transform="translate(-240.853 -237.157)" style="opacity:.7;fill:#f5f5f5"/>
                            </g>
                        </g>
                    </g>
                    <g data-name="Group 75539">
                        <g data-name="Group 75537">
                            <path data-name="Path 68250" d="M338.355 310.275c1.843-.946 1.843-2.479 0-3.425a8.2 8.2 0 0 0-6.674 0c-1.843.946-1.843 2.479 0 3.425a8.2 8.2 0 0 0 6.674 0z" transform="translate(-247.539 -241.467)" style="fill:#27debf"/>
                            <path data-name="Path 68251" d="M338.355 310.275c1.843-.946 1.843-2.479 0-3.425a8.2 8.2 0 0 0-6.674 0c-1.843.946-1.843 2.479 0 3.425a8.2 8.2 0 0 0 6.674 0z" transform="translate(-247.539 -241.467)" style="opacity:.5;fill:#f5f5f5"/>
                        </g>
                        <g data-name="Group 75538">
                            <path data-name="Path 68252" d="M338.47 309.237a8.2 8.2 0 0 0-6.674 0 1.393 1.393 0 0 0 0 2.783 8.205 8.205 0 0 0 6.674 0 1.393 1.393 0 0 0 0-2.783z" transform="translate(-247.654 -243.213)" style="fill:#27debf"/>
                            <path data-name="Path 68253" d="M338.47 309.237a8.2 8.2 0 0 0-6.674 0 1.393 1.393 0 0 0 0 2.783 8.205 8.205 0 0 0 6.674 0 1.393 1.393 0 0 0 0-2.783z" transform="translate(-247.654 -243.213)" style="opacity:.6;fill:#f5f5f5"/>
                        </g>
                    </g>
                    <g data-name="Group 75545">
                        <g data-name="Group 75542">
                            <g data-name="Group 75540">
                                <path data-name="Path 68254" d="M347.692 308.918v.692l-.236.249-.437.458v-.72z" transform="translate(-259.766 -243.499)" style="fill:#27debf"/>
                                <path data-name="Path 68255" d="M343.3 310.948v.72h-1.365v-.844s1.265-.193 1.365.124z" transform="translate(-256.048 -244.851)" style="fill:#27debf"/>
                                <path data-name="Path 68256" d="M342.854 312.187v.6l-.757.437-.56-.324a2.852 2.852 0 0 1-2.167.1v-.6l.344-.341-.344.095a2.212 2.212 0 0 1-1.688-.193c-.34-.2-.5-.41-.5-.63v-.581l.061-.254-.206-.12v-.6l.56.324a.865.865 0 0 0-.415.642v.007c.006.215.165.423.5.615a2.5 2.5 0 0 0 2.133.07c.621-.2 1.074-.441 1.432-.234.223.129.155.285-.095.429a1.241 1.241 0 0 1-1.067.062l-.715.709a2.517 2.517 0 0 0 .4.116 2.947 2.947 0 0 0 1.772-.213l.56.324z" transform="translate(-252.468 -244.124)" style="fill:#27debf"/>
                                <path data-name="Path 68257" d="M353.775 319.175v.6l.56.324v-.6z" transform="translate(-264.706 -251)" style="fill:#27debf"/>
                            </g>
                            <g data-name="Group 75541" style="opacity:.5">
                                <path data-name="Path 68258" d="M347.692 308.918v.692l-.236.249-.437.458v-.72z" transform="translate(-259.766 -243.499)" style="fill:#f5f5f5"/>
                                <path data-name="Path 68259" d="M343.3 310.948v.72h-1.365v-.844s1.265-.193 1.365.124z" transform="translate(-256.048 -244.851)" style="fill:#f5f5f5"/>
                                <path data-name="Path 68260" d="M342.854 312.187v.6l-.757.437-.56-.324a2.852 2.852 0 0 1-2.167.1v-.6l.344-.341-.344.095a2.212 2.212 0 0 1-1.688-.193c-.34-.2-.5-.41-.5-.63v-.581l.061-.254-.206-.12v-.6l.56.324a.865.865 0 0 0-.415.642v.007c.006.215.165.423.5.615a2.5 2.5 0 0 0 2.133.07c.621-.2 1.074-.441 1.432-.234.223.129.155.285-.095.429a1.241 1.241 0 0 1-1.067.062l-.715.709a2.517 2.517 0 0 0 .4.116 2.947 2.947 0 0 0 1.772-.213l.56.324z" transform="translate(-252.468 -244.124)" style="fill:#f5f5f5"/>
                                <path data-name="Path 68261" d="M353.775 319.175v.6l.56.324v-.6z" transform="translate(-264.706 -251)" style="fill:#f5f5f5"/>
                            </g>
                        </g>
                        <g data-name="Group 75544">
                            <g data-name="Group 75543">
                                <path data-name="Path 68262" d="m342.727 310.917-.433-.251a.737.737 0 0 0 .433-.664.566.566 0 0 0 0-.058.817.817 0 0 0-.484-.587 1.987 1.987 0 0 0-1.007-.263H341.141l-.09.006c-.026 0-.052 0-.079.008h-.032a.574.574 0 0 0-.06.008 4.035 4.035 0 0 0-.489.1 4.32 4.32 0 0 0-.229.068l-.317.1-.12.041a3.705 3.705 0 0 1-.671.191.7.7 0 0 1-.289-.011.6.6 0 0 1-.135-.056c-.169-.1-.2-.246.122-.429a1.107 1.107 0 0 1 .973-.1l.673-.679a2.883 2.883 0 0 0-2.031.112l-.561-.322-.763.441.561.322a.867.867 0 0 0-.416.643v.006c.008.215.165.424.5.615a2.5 2.5 0 0 0 2.134.07c.621-.2 1.073-.441 1.431-.235.223.13.156.285-.094.429a1.232 1.232 0 0 1-1.067.062l-.716.71a2.756 2.756 0 0 0 .4.116 2.954 2.954 0 0 0 1.772-.214l.561.325.756-.437z" transform="translate(-252.468 -242.927)" style="fill:#27debf"/>
                                <path data-name="Path 68263" d="m342.727 310.917-.433-.251a.737.737 0 0 0 .433-.664.566.566 0 0 0 0-.058.817.817 0 0 0-.484-.587 1.987 1.987 0 0 0-1.007-.263H341.141l-.09.006c-.026 0-.052 0-.079.008h-.032a.574.574 0 0 0-.06.008 4.035 4.035 0 0 0-.489.1 4.32 4.32 0 0 0-.229.068l-.317.1-.12.041a3.705 3.705 0 0 1-.671.191.7.7 0 0 1-.289-.011.6.6 0 0 1-.135-.056c-.169-.1-.2-.246.122-.429a1.107 1.107 0 0 1 .973-.1l.673-.679a2.883 2.883 0 0 0-2.031.112l-.561-.322-.763.441.561.322a.867.867 0 0 0-.416.643v.006c.008.215.165.424.5.615a2.5 2.5 0 0 0 2.134.07c.621-.2 1.073-.441 1.431-.235.223.13.156.285-.094.429a1.232 1.232 0 0 1-1.067.062l-.716.71a2.756 2.756 0 0 0 .4.116 2.954 2.954 0 0 0 1.772-.214l.561.325.756-.437z" transform="translate(-252.468 -242.927)" style="opacity:.7;fill:#f5f5f5"/>
                            </g>
                        </g>
                    </g>
                </g>
                <g data-name="Group 75562">
                    <g data-name="Group 75547">
                        <path data-name="Path 68264" d="M336.2 299.347a4.84 4.84 0 0 0-1.792-1.657 11.727 11.727 0 0 0-10.611 0 4.839 4.839 0 0 0-1.792 1.657h-.405v1.533h.005a3.8 3.8 0 0 0 2.192 2.936 11.729 11.729 0 0 0 10.611 0 3.8 3.8 0 0 0 2.192-2.936h.005v-1.533z" transform="translate(-241.178 -234.36)" style="fill:#27debf"/>
                        <path data-name="Path 68265" d="M336.2 299.347a4.84 4.84 0 0 0-1.792-1.657 11.727 11.727 0 0 0-10.611 0 4.839 4.839 0 0 0-1.792 1.657h-.405v1.533h.005a3.8 3.8 0 0 0 2.192 2.936 11.729 11.729 0 0 0 10.611 0 3.8 3.8 0 0 0 2.192-2.936h.005v-1.533z" transform="translate(-241.178 -234.36)" style="opacity:.5;fill:#f5f5f5"/>
                    </g>
                    <g data-name="Group 75552">
                        <g data-name="Group 75548">
                            <path data-name="Path 68266" d="M334.41 292.461a11.728 11.728 0 0 0-10.611 0c-2.93 1.692-2.93 4.435 0 6.127a11.727 11.727 0 0 0 10.611 0c2.931-1.688 2.931-4.435 0-6.127z" transform="translate(-241.178 -230.537)" style="fill:#27debf"/>
                            <path data-name="Path 68267" d="M334.41 292.461a11.728 11.728 0 0 0-10.611 0c-2.93 1.692-2.93 4.435 0 6.127a11.727 11.727 0 0 0 10.611 0c2.931-1.688 2.931-4.435 0-6.127z" transform="translate(-241.178 -230.537)" style="opacity:.6;fill:#f5f5f5"/>
                        </g>
                        <g data-name="Group 75551">
                            <g data-name="Group 75549">
                                <path data-name="Path 68268" d="M339.432 298.08a8.465 8.465 0 0 0-6.91 0 2 2 0 0 0 0 3.884 8.452 8.452 0 0 0 6.91 0 2 2 0 0 0 0-3.884z" transform="translate(-248.051 -235.034)" style="fill:#27debf"/>
                                <path data-name="Path 68269" d="M339.432 298.08a8.465 8.465 0 0 0-6.91 0 2 2 0 0 0 0 3.884 8.452 8.452 0 0 0 6.91 0 2 2 0 0 0 0-3.884z" transform="translate(-248.051 -235.034)" style="opacity:.6;fill:#f5f5f5"/>
                            </g>
                            <g data-name="Group 75550">
                                <path data-name="Path 68270" d="M335.138 293.631a11.4 11.4 0 0 0-10.284 0 2.917 2.917 0 0 0 0 5.561 11.412 11.412 0 0 0 10.284 0 2.917 2.917 0 0 0 0-5.561zm-1.688 4.722a8.452 8.452 0 0 1-6.91 0 2 2 0 0 1 0-3.884 8.465 8.465 0 0 1 6.91 0 2 2 0 0 1 0 3.884z" transform="translate(-242.069 -231.423)" style="fill:#27debf"/>
                                <path data-name="Path 68271" d="M335.138 293.631a11.4 11.4 0 0 0-10.284 0 2.917 2.917 0 0 0 0 5.561 11.412 11.412 0 0 0 10.284 0 2.917 2.917 0 0 0 0-5.561zm-1.688 4.722a8.452 8.452 0 0 1-6.91 0 2 2 0 0 1 0-3.884 8.465 8.465 0 0 1 6.91 0 2 2 0 0 1 0 3.884z" transform="translate(-242.069 -231.423)" style="opacity:.7;fill:#f5f5f5"/>
                            </g>
                        </g>
                    </g>
                    <g data-name="Group 75555">
                        <g data-name="Group 75553" transform="translate(83.207 62.566)">
                            <ellipse data-name="Ellipse 1390" cx="4.719" cy="2.422" rx="4.719" ry="2.422" style="fill:#27debf"/>
                            <ellipse data-name="Ellipse 1391" cx="4.719" cy="2.422" rx="4.719" ry="2.422" style="opacity:.5;fill:#f5f5f5"/>
                        </g>
                        <g data-name="Group 75554">
                            <path data-name="Path 68272" d="M340.134 301.4a8.2 8.2 0 0 0-6.674 0 1.393 1.393 0 0 0 0 2.783 8.2 8.2 0 0 0 6.674 0 1.393 1.393 0 0 0 0-2.783z" transform="translate(-248.871 -237.48)" style="fill:#27debf"/>
                            <path data-name="Path 68273" d="M340.134 301.4a8.2 8.2 0 0 0-6.674 0 1.393 1.393 0 0 0 0 2.783 8.2 8.2 0 0 0 6.674 0 1.393 1.393 0 0 0 0-2.783z" transform="translate(-248.871 -237.48)" style="opacity:.6;fill:#f5f5f5"/>
                        </g>
                    </g>
                    <g data-name="Group 75561">
                        <g data-name="Group 75558">
                            <g data-name="Group 75556">
                                <path data-name="Path 68274" d="M349.355 301.077v.692l-.236.249-.437.458v-.72z" transform="translate(-260.982 -237.765)" style="fill:#27debf"/>
                                <path data-name="Path 68275" d="M344.964 303.108v.72H343.6v-.844s1.261-.193 1.364.124z" transform="translate(-257.264 -239.117)" style="fill:#27debf"/>
                                <path data-name="Path 68276" d="M344.517 304.346v.6l-.757.437-.56-.324a2.851 2.851 0 0 1-2.167.1v-.6l.344-.341-.344.095a2.213 2.213 0 0 1-1.688-.193c-.339-.2-.5-.41-.5-.63v-.581l.061-.254-.207-.12v-.6l.56.324a.863.863 0 0 0-.415.642v.007c.006.215.165.423.5.615a2.5 2.5 0 0 0 2.133.071c.621-.2 1.074-.441 1.432-.235.222.129.155.285-.095.429a1.243 1.243 0 0 1-1.067.062l-.715.709a2.55 2.55 0 0 0 .4.116 2.948 2.948 0 0 0 1.772-.213l.56.324z" transform="translate(-253.684 -238.391)" style="fill:#27debf"/>
                                <path data-name="Path 68277" d="M355.438 311.335v.6l.56.324v-.6z" transform="translate(-265.922 -245.266)" style="fill:#27debf"/>
                            </g>
                            <g data-name="Group 75557" style="opacity:.5">
                                <path data-name="Path 68278" d="M349.355 301.077v.692l-.236.249-.437.458v-.72z" transform="translate(-260.982 -237.765)" style="fill:#f5f5f5"/>
                                <path data-name="Path 68279" d="M344.964 303.108v.72H343.6v-.844s1.261-.193 1.364.124z" transform="translate(-257.264 -239.117)" style="fill:#f5f5f5"/>
                                <path data-name="Path 68280" d="M344.517 304.346v.6l-.757.437-.56-.324a2.851 2.851 0 0 1-2.167.1v-.6l.344-.341-.344.095a2.213 2.213 0 0 1-1.688-.193c-.339-.2-.5-.41-.5-.63v-.581l.061-.254-.207-.12v-.6l.56.324a.863.863 0 0 0-.415.642v.007c.006.215.165.423.5.615a2.5 2.5 0 0 0 2.133.071c.621-.2 1.074-.441 1.432-.235.222.129.155.285-.095.429a1.243 1.243 0 0 1-1.067.062l-.715.709a2.55 2.55 0 0 0 .4.116 2.948 2.948 0 0 0 1.772-.213l.56.324z" transform="translate(-253.684 -238.391)" style="fill:#f5f5f5"/>
                                <path data-name="Path 68281" d="M355.438 311.335v.6l.56.324v-.6z" transform="translate(-265.922 -245.266)" style="fill:#f5f5f5"/>
                            </g>
                        </g>
                        <g data-name="Group 75560">
                            <g data-name="Group 75559">
                                <path data-name="Path 68282" d="m344.39 303.077-.433-.251a.738.738 0 0 0 .433-.664.575.575 0 0 0 0-.058.818.818 0 0 0-.484-.587 1.99 1.99 0 0 0-1.007-.263H342.8l-.09.005c-.026 0-.053 0-.079.008h-.032a.577.577 0 0 0-.06.008 4.023 4.023 0 0 0-.49.1 5.516 5.516 0 0 0-.229.067l-.317.1-.12.041a3.7 3.7 0 0 1-.671.191.7.7 0 0 1-.289-.011.589.589 0 0 1-.135-.056c-.169-.1-.2-.246.122-.429a1.107 1.107 0 0 1 .973-.1l.673-.679a2.883 2.883 0 0 0-2.031.113l-.561-.322-.763.44.561.323a.866.866 0 0 0-.416.643v.006c.008.216.165.424.5.615a2.5 2.5 0 0 0 2.134.069c.621-.2 1.072-.441 1.431-.234.223.129.156.285-.094.429a1.232 1.232 0 0 1-1.067.062l-.716.711a2.756 2.756 0 0 0 .4.116 2.954 2.954 0 0 0 1.772-.214l.561.324.756-.437z" transform="translate(-253.684 -237.194)" style="fill:#27debf"/>
                                <path data-name="Path 68283" d="m344.39 303.077-.433-.251a.738.738 0 0 0 .433-.664.575.575 0 0 0 0-.058.818.818 0 0 0-.484-.587 1.99 1.99 0 0 0-1.007-.263H342.8l-.09.005c-.026 0-.053 0-.079.008h-.032a.577.577 0 0 0-.06.008 4.023 4.023 0 0 0-.49.1 5.516 5.516 0 0 0-.229.067l-.317.1-.12.041a3.7 3.7 0 0 1-.671.191.7.7 0 0 1-.289-.011.589.589 0 0 1-.135-.056c-.169-.1-.2-.246.122-.429a1.107 1.107 0 0 1 .973-.1l.673-.679a2.883 2.883 0 0 0-2.031.113l-.561-.322-.763.44.561.323a.866.866 0 0 0-.416.643v.006c.008.216.165.424.5.615a2.5 2.5 0 0 0 2.134.069c.621-.2 1.072-.441 1.431-.234.223.129.156.285-.094.429a1.232 1.232 0 0 1-1.067.062l-.716.711a2.756 2.756 0 0 0 .4.116 2.954 2.954 0 0 0 1.772-.214l.561.324.756-.437z" transform="translate(-253.684 -237.194)" style="opacity:.7;fill:#f5f5f5"/>
                            </g>
                        </g>
                    </g>
                </g>
            </g>
            <g data-name="Group 75580">
                <g data-name="Group 75579">
                    <g data-name="Group 75564">
                        <path data-name="Path 68284" d="M98.2 222.347a4.838 4.838 0 0 0-1.792-1.657 11.727 11.727 0 0 0-10.611 0 4.838 4.838 0 0 0-1.792 1.657H83.6v1.533h.005a3.8 3.8 0 0 0 2.192 2.936 11.727 11.727 0 0 0 10.611 0 3.8 3.8 0 0 0 2.192-2.936h.005v-1.533z" transform="translate(-67.133 -178.051)" style="fill:#27debf"/>
                        <path data-name="Path 68285" d="M98.2 222.347a4.838 4.838 0 0 0-1.792-1.657 11.727 11.727 0 0 0-10.611 0 4.838 4.838 0 0 0-1.792 1.657H83.6v1.533h.005a3.8 3.8 0 0 0 2.192 2.936 11.727 11.727 0 0 0 10.611 0 3.8 3.8 0 0 0 2.192-2.936h.005v-1.533z" transform="translate(-67.133 -178.051)" style="opacity:.5;fill:#f5f5f5"/>
                    </g>
                    <g data-name="Group 75569">
                        <g data-name="Group 75565">
                            <path data-name="Path 68286" d="M96.41 215.461a11.728 11.728 0 0 0-10.611 0c-2.93 1.692-2.93 4.435 0 6.127a11.727 11.727 0 0 0 10.611 0c2.931-1.688 2.931-4.435 0-6.127z" transform="translate(-67.133 -174.228)" style="fill:#27debf"/>
                            <path data-name="Path 68287" d="M96.41 215.461a11.728 11.728 0 0 0-10.611 0c-2.93 1.692-2.93 4.435 0 6.127a11.727 11.727 0 0 0 10.611 0c2.931-1.688 2.931-4.435 0-6.127z" transform="translate(-67.133 -174.228)" style="opacity:.6;fill:#f5f5f5"/>
                        </g>
                        <g data-name="Group 75568">
                            <g data-name="Group 75566">
                                <path data-name="Path 68288" d="M101.432 221.08a8.465 8.465 0 0 0-6.91 0 2 2 0 0 0 0 3.884 8.454 8.454 0 0 0 6.91 0 2 2 0 0 0 0-3.884z" transform="translate(-74.006 -178.725)" style="fill:#27debf"/>
                                <path data-name="Path 68289" d="M101.432 221.08a8.465 8.465 0 0 0-6.91 0 2 2 0 0 0 0 3.884 8.454 8.454 0 0 0 6.91 0 2 2 0 0 0 0-3.884z" transform="translate(-74.006 -178.725)" style="opacity:.6;fill:#f5f5f5"/>
                            </g>
                            <g data-name="Group 75567">
                                <path data-name="Path 68290" d="M97.138 216.631a11.4 11.4 0 0 0-10.284 0 2.917 2.917 0 0 0 0 5.561 11.409 11.409 0 0 0 10.284 0 2.917 2.917 0 0 0 0-5.561zm-1.688 4.722a8.454 8.454 0 0 1-6.91 0 2 2 0 0 1 0-3.884 8.466 8.466 0 0 1 6.91 0 2 2 0 0 1 0 3.884z" transform="translate(-68.024 -175.114)" style="fill:#27debf"/>
                                <path data-name="Path 68291" d="M97.138 216.631a11.4 11.4 0 0 0-10.284 0 2.917 2.917 0 0 0 0 5.561 11.409 11.409 0 0 0 10.284 0 2.917 2.917 0 0 0 0-5.561zm-1.688 4.722a8.454 8.454 0 0 1-6.91 0 2 2 0 0 1 0-3.884 8.466 8.466 0 0 1 6.91 0 2 2 0 0 1 0 3.884z" transform="translate(-68.024 -175.114)" style="opacity:.7;fill:#f5f5f5"/>
                            </g>
                        </g>
                    </g>
                    <g data-name="Group 75572">
                        <g data-name="Group 75570" transform="translate(19.252 41.875)">
                            <ellipse data-name="Ellipse 1392" cx="4.719" cy="2.422" rx="4.719" ry="2.422" style="fill:#27debf"/>
                            <ellipse data-name="Ellipse 1393" cx="4.719" cy="2.422" rx="4.719" ry="2.422" style="opacity:.5;fill:#f5f5f5"/>
                        </g>
                        <g data-name="Group 75571">
                            <path data-name="Path 68292" d="M102.134 224.4a8.2 8.2 0 0 0-6.674 0 1.393 1.393 0 0 0 0 2.783 8.2 8.2 0 0 0 6.674 0 1.393 1.393 0 0 0 0-2.783z" transform="translate(-74.826 -181.171)" style="fill:#27debf"/>
                            <path data-name="Path 68293" d="M102.134 224.4a8.2 8.2 0 0 0-6.674 0 1.393 1.393 0 0 0 0 2.783 8.2 8.2 0 0 0 6.674 0 1.393 1.393 0 0 0 0-2.783z" transform="translate(-74.826 -181.171)" style="opacity:.6;fill:#f5f5f5"/>
                        </g>
                    </g>
                    <g data-name="Group 75578">
                        <g data-name="Group 75575">
                            <g data-name="Group 75573">
                                <path data-name="Path 68294" d="M111.355 224.077v.692l-.236.249-.437.458v-.72z" transform="translate(-86.937 -181.456)" style="fill:#27debf"/>
                                <path data-name="Path 68295" d="M106.964 226.108v.72H105.6v-.844s1.261-.193 1.364.124z" transform="translate(-83.219 -182.808)" style="fill:#27debf"/>
                                <path data-name="Path 68296" d="M106.517 227.346v.6l-.757.437-.56-.324a2.851 2.851 0 0 1-2.167.1v-.6l.344-.341-.344.095a2.213 2.213 0 0 1-1.688-.193c-.339-.2-.5-.41-.5-.63v-.582l.061-.254-.207-.12v-.6l.56.324a.864.864 0 0 0-.415.642v.007c.006.215.165.424.5.615a2.5 2.5 0 0 0 2.133.071c.622-.2 1.074-.441 1.432-.235.222.129.155.285-.095.429a1.242 1.242 0 0 1-1.067.062l-.715.709a2.553 2.553 0 0 0 .4.116 2.949 2.949 0 0 0 1.772-.213l.56.324z" transform="translate(-79.639 -182.082)" style="fill:#27debf"/>
                                <path data-name="Path 68297" d="M117.438 234.335v.6l.56.324v-.6z" transform="translate(-91.877 -188.957)" style="fill:#27debf"/>
                            </g>
                            <g data-name="Group 75574" style="opacity:.5">
                                <path data-name="Path 68298" d="M111.355 224.077v.692l-.236.249-.437.458v-.72z" transform="translate(-86.937 -181.456)" style="fill:#f5f5f5"/>
                                <path data-name="Path 68299" d="M106.964 226.108v.72H105.6v-.844s1.261-.193 1.364.124z" transform="translate(-83.219 -182.808)" style="fill:#f5f5f5"/>
                                <path data-name="Path 68300" d="M106.517 227.346v.6l-.757.437-.56-.324a2.851 2.851 0 0 1-2.167.1v-.6l.344-.341-.344.095a2.213 2.213 0 0 1-1.688-.193c-.339-.2-.5-.41-.5-.63v-.582l.061-.254-.207-.12v-.6l.56.324a.864.864 0 0 0-.415.642v.007c.006.215.165.424.5.615a2.5 2.5 0 0 0 2.133.071c.622-.2 1.074-.441 1.432-.235.222.129.155.285-.095.429a1.242 1.242 0 0 1-1.067.062l-.715.709a2.553 2.553 0 0 0 .4.116 2.949 2.949 0 0 0 1.772-.213l.56.324z" transform="translate(-79.639 -182.082)" style="fill:#f5f5f5"/>
                                <path data-name="Path 68301" d="M117.438 234.335v.6l.56.324v-.6z" transform="translate(-91.877 -188.957)" style="fill:#f5f5f5"/>
                            </g>
                        </g>
                        <g data-name="Group 75577">
                            <g data-name="Group 75576">
                                <path data-name="Path 68302" d="m106.39 226.077-.433-.251a.738.738 0 0 0 .433-.664.559.559 0 0 0 0-.058.818.818 0 0 0-.484-.587 1.989 1.989 0 0 0-1.007-.262H104.8l-.09.006c-.026 0-.053 0-.079.008h-.032a.575.575 0 0 0-.06.008 4.079 4.079 0 0 0-.49.1 5.516 5.516 0 0 0-.229.067l-.317.1-.12.041a3.7 3.7 0 0 1-.671.191.7.7 0 0 1-.289-.011.59.59 0 0 1-.135-.056c-.169-.1-.2-.246.122-.429a1.108 1.108 0 0 1 .973-.1l.673-.679a2.883 2.883 0 0 0-2.031.113l-.561-.322-.763.44.561.323a.867.867 0 0 0-.416.643v.006c.008.216.165.424.5.615a2.5 2.5 0 0 0 2.134.069c.621-.2 1.072-.441 1.431-.234.223.129.156.285-.094.429a1.232 1.232 0 0 1-1.067.062l-.716.711a2.755 2.755 0 0 0 .4.116 2.954 2.954 0 0 0 1.772-.214l.561.324.756-.437z" transform="translate(-79.639 -180.885)" style="fill:#27debf"/>
                                <path data-name="Path 68303" d="m106.39 226.077-.433-.251a.738.738 0 0 0 .433-.664.559.559 0 0 0 0-.058.818.818 0 0 0-.484-.587 1.989 1.989 0 0 0-1.007-.262H104.8l-.09.006c-.026 0-.053 0-.079.008h-.032a.575.575 0 0 0-.06.008 4.079 4.079 0 0 0-.49.1 5.516 5.516 0 0 0-.229.067l-.317.1-.12.041a3.7 3.7 0 0 1-.671.191.7.7 0 0 1-.289-.011.59.59 0 0 1-.135-.056c-.169-.1-.2-.246.122-.429a1.108 1.108 0 0 1 .973-.1l.673-.679a2.883 2.883 0 0 0-2.031.113l-.561-.322-.763.44.561.323a.867.867 0 0 0-.416.643v.006c.008.216.165.424.5.615a2.5 2.5 0 0 0 2.134.069c.621-.2 1.072-.441 1.431-.234.223.129.156.285-.094.429a1.232 1.232 0 0 1-1.067.062l-.716.711a2.755 2.755 0 0 0 .4.116 2.954 2.954 0 0 0 1.772-.214l.561.324.756-.437z" transform="translate(-79.639 -180.885)" style="opacity:.7;fill:#f5f5f5"/>
                            </g>
                        </g>
                    </g>
                </g>
            </g>
            <g data-name="Group 75645">
                <g data-name="Group 75596">
                    <g data-name="Group 75581">
                        <path data-name="Path 68304" d="M381.2 250.347a4.841 4.841 0 0 0-1.792-1.657 11.727 11.727 0 0 0-10.611 0 4.838 4.838 0 0 0-1.792 1.657h-.405v1.533h.005a3.8 3.8 0 0 0 2.192 2.936 11.728 11.728 0 0 0 10.611 0 3.8 3.8 0 0 0 2.192-2.936h.005v-1.533z" transform="translate(-274.085 -198.527)" style="fill:#27debf"/>
                        <path data-name="Path 68305" d="M381.2 250.347a4.841 4.841 0 0 0-1.792-1.657 11.727 11.727 0 0 0-10.611 0 4.838 4.838 0 0 0-1.792 1.657h-.405v1.533h.005a3.8 3.8 0 0 0 2.192 2.936 11.728 11.728 0 0 0 10.611 0 3.8 3.8 0 0 0 2.192-2.936h.005v-1.533z" transform="translate(-274.085 -198.527)" style="opacity:.5;fill:#f5f5f5"/>
                    </g>
                    <g data-name="Group 75586">
                        <g data-name="Group 75582">
                            <path data-name="Path 68306" d="M379.41 243.461a11.728 11.728 0 0 0-10.611 0c-2.93 1.692-2.93 4.435 0 6.127a11.727 11.727 0 0 0 10.611 0c2.931-1.688 2.931-4.435 0-6.127z" transform="translate(-274.085 -194.704)" style="fill:#27debf"/>
                            <path data-name="Path 68307" d="M379.41 243.461a11.728 11.728 0 0 0-10.611 0c-2.93 1.692-2.93 4.435 0 6.127a11.727 11.727 0 0 0 10.611 0c2.931-1.688 2.931-4.435 0-6.127z" transform="translate(-274.085 -194.704)" style="opacity:.6;fill:#f5f5f5"/>
                        </g>
                        <g data-name="Group 75585">
                            <g data-name="Group 75583">
                                <path data-name="Path 68308" d="M384.432 249.08a8.466 8.466 0 0 0-6.91 0 2 2 0 0 0 0 3.884 8.451 8.451 0 0 0 6.91 0 2 2 0 0 0 0-3.884z" transform="translate(-280.958 -199.201)" style="fill:#27debf"/>
                                <path data-name="Path 68309" d="M384.432 249.08a8.466 8.466 0 0 0-6.91 0 2 2 0 0 0 0 3.884 8.451 8.451 0 0 0 6.91 0 2 2 0 0 0 0-3.884z" transform="translate(-280.958 -199.201)" style="opacity:.6;fill:#f5f5f5"/>
                            </g>
                            <g data-name="Group 75584">
                                <path data-name="Path 68310" d="M380.138 244.631a11.4 11.4 0 0 0-10.284 0 2.917 2.917 0 0 0 0 5.561 11.411 11.411 0 0 0 10.284 0 2.917 2.917 0 0 0 0-5.561zm-1.687 4.722a8.452 8.452 0 0 1-6.91 0 2 2 0 0 1 0-3.884 8.466 8.466 0 0 1 6.91 0 2 2 0 0 1 0 3.884z" transform="translate(-274.976 -195.59)" style="fill:#27debf"/>
                                <path data-name="Path 68311" d="M380.138 244.631a11.4 11.4 0 0 0-10.284 0 2.917 2.917 0 0 0 0 5.561 11.411 11.411 0 0 0 10.284 0 2.917 2.917 0 0 0 0-5.561zm-1.687 4.722a8.452 8.452 0 0 1-6.91 0 2 2 0 0 1 0-3.884 8.466 8.466 0 0 1 6.91 0 2 2 0 0 1 0 3.884z" transform="translate(-274.976 -195.59)" style="opacity:.7;fill:#f5f5f5"/>
                            </g>
                        </g>
                    </g>
                    <g data-name="Group 75589">
                        <g data-name="Group 75587" transform="translate(95.3 49.399)">
                            <ellipse data-name="Ellipse 1394" cx="4.719" cy="2.422" rx="4.719" ry="2.422" style="fill:#27debf"/>
                            <ellipse data-name="Ellipse 1395" cx="4.719" cy="2.422" rx="4.719" ry="2.422" style="opacity:.5;fill:#f5f5f5"/>
                        </g>
                        <g data-name="Group 75588">
                            <path data-name="Path 68312" d="M385.134 252.4a8.2 8.2 0 0 0-6.674 0 1.393 1.393 0 0 0 0 2.783 8.2 8.2 0 0 0 6.674 0 1.393 1.393 0 0 0 0-2.783z" transform="translate(-281.778 -201.647)" style="fill:#27debf"/>
                            <path data-name="Path 68313" d="M385.134 252.4a8.2 8.2 0 0 0-6.674 0 1.393 1.393 0 0 0 0 2.783 8.2 8.2 0 0 0 6.674 0 1.393 1.393 0 0 0 0-2.783z" transform="translate(-281.778 -201.647)" style="opacity:.6;fill:#f5f5f5"/>
                        </g>
                    </g>
                    <g data-name="Group 75595">
                        <g data-name="Group 75592">
                            <g data-name="Group 75590">
                                <path data-name="Path 68314" d="M394.355 252.077v.692l-.236.249-.437.458v-.72z" transform="translate(-293.889 -201.932)" style="fill:#27debf"/>
                                <path data-name="Path 68315" d="M389.964 254.108v.72H388.6v-.843s1.261-.194 1.364.123z" transform="translate(-290.171 -203.284)" style="fill:#27debf"/>
                                <path data-name="Path 68316" d="M389.517 255.346v.6l-.757.437-.56-.324a2.851 2.851 0 0 1-2.168.1v-.6l.344-.341-.344.095a2.213 2.213 0 0 1-1.688-.193c-.339-.2-.5-.41-.5-.63v-.582l.061-.254-.207-.12v-.6l.56.324a.864.864 0 0 0-.415.642v.007c.006.215.165.424.5.615a2.5 2.5 0 0 0 2.133.071c.622-.2 1.074-.441 1.432-.235.222.129.155.285-.095.429a1.243 1.243 0 0 1-1.067.062l-.715.709a2.556 2.556 0 0 0 .4.116 2.949 2.949 0 0 0 1.772-.213l.56.324z" transform="translate(-286.591 -202.558)" style="fill:#27debf"/>
                                <path data-name="Path 68317" d="M400.438 262.335v.6l.56.324v-.6z" transform="translate(-298.829 -209.433)" style="fill:#27debf"/>
                            </g>
                            <g data-name="Group 75591" style="opacity:.5">
                                <path data-name="Path 68318" d="M394.355 252.077v.692l-.236.249-.437.458v-.72z" transform="translate(-293.889 -201.932)" style="fill:#f5f5f5"/>
                                <path data-name="Path 68319" d="M389.964 254.108v.72H388.6v-.843s1.261-.194 1.364.123z" transform="translate(-290.171 -203.284)" style="fill:#f5f5f5"/>
                                <path data-name="Path 68320" d="M389.517 255.346v.6l-.757.437-.56-.324a2.851 2.851 0 0 1-2.168.1v-.6l.344-.341-.344.095a2.213 2.213 0 0 1-1.688-.193c-.339-.2-.5-.41-.5-.63v-.582l.061-.254-.207-.12v-.6l.56.324a.864.864 0 0 0-.415.642v.007c.006.215.165.424.5.615a2.5 2.5 0 0 0 2.133.071c.622-.2 1.074-.441 1.432-.235.222.129.155.285-.095.429a1.243 1.243 0 0 1-1.067.062l-.715.709a2.556 2.556 0 0 0 .4.116 2.949 2.949 0 0 0 1.772-.213l.56.324z" transform="translate(-286.591 -202.558)" style="fill:#f5f5f5"/>
                                <path data-name="Path 68321" d="M400.438 262.335v.6l.56.324v-.6z" transform="translate(-298.829 -209.433)" style="fill:#f5f5f5"/>
                            </g>
                        </g>
                        <g data-name="Group 75594">
                            <g data-name="Group 75593">
                                <path data-name="Path 68322" d="m389.39 254.077-.433-.251a.738.738 0 0 0 .433-.664.576.576 0 0 0 0-.058.818.818 0 0 0-.484-.587 1.99 1.99 0 0 0-1.007-.263H387.8l-.09.005c-.026 0-.053 0-.079.008h-.032a.585.585 0 0 0-.06.008 4.027 4.027 0 0 0-.49.1 5.516 5.516 0 0 0-.229.067l-.317.1-.12.041a3.707 3.707 0 0 1-.671.191.7.7 0 0 1-.289-.011.59.59 0 0 1-.135-.056c-.169-.1-.2-.246.122-.429a1.107 1.107 0 0 1 .973-.1l.673-.679a2.883 2.883 0 0 0-2.031.113l-.561-.322-.763.44.561.323a.867.867 0 0 0-.416.643v.006c.008.216.165.424.5.615a2.5 2.5 0 0 0 2.134.069c.621-.2 1.072-.441 1.431-.234.223.129.156.285-.094.429a1.232 1.232 0 0 1-1.067.062l-.716.711a2.756 2.756 0 0 0 .4.116 2.953 2.953 0 0 0 1.772-.214l.561.324.756-.437z" transform="translate(-286.591 -201.361)" style="fill:#27debf"/>
                                <path data-name="Path 68323" d="m389.39 254.077-.433-.251a.738.738 0 0 0 .433-.664.576.576 0 0 0 0-.058.818.818 0 0 0-.484-.587 1.99 1.99 0 0 0-1.007-.263H387.8l-.09.005c-.026 0-.053 0-.079.008h-.032a.585.585 0 0 0-.06.008 4.027 4.027 0 0 0-.49.1 5.516 5.516 0 0 0-.229.067l-.317.1-.12.041a3.707 3.707 0 0 1-.671.191.7.7 0 0 1-.289-.011.59.59 0 0 1-.135-.056c-.169-.1-.2-.246.122-.429a1.107 1.107 0 0 1 .973-.1l.673-.679a2.883 2.883 0 0 0-2.031.113l-.561-.322-.763.44.561.323a.867.867 0 0 0-.416.643v.006c.008.216.165.424.5.615a2.5 2.5 0 0 0 2.134.069c.621-.2 1.072-.441 1.431-.234.223.129.156.285-.094.429a1.232 1.232 0 0 1-1.067.062l-.716.711a2.756 2.756 0 0 0 .4.116 2.953 2.953 0 0 0 1.772-.214l.561.324.756-.437z" transform="translate(-286.591 -201.361)" style="opacity:.7;fill:#f5f5f5"/>
                            </g>
                        </g>
                    </g>
                </g>
                <g data-name="Group 75612">
                    <g data-name="Group 75597">
                        <path data-name="Path 68324" d="M383.2 242.347a4.839 4.839 0 0 0-1.792-1.657 11.726 11.726 0 0 0-10.611 0 4.839 4.839 0 0 0-1.792 1.657h-.405v1.533h.005a3.8 3.8 0 0 0 2.192 2.936 11.728 11.728 0 0 0 10.611 0 3.8 3.8 0 0 0 2.192-2.936h.005v-1.533z" transform="translate(-275.548 -192.677)" style="fill:#27debf"/>
                        <path data-name="Path 68325" d="M383.2 242.347a4.839 4.839 0 0 0-1.792-1.657 11.726 11.726 0 0 0-10.611 0 4.839 4.839 0 0 0-1.792 1.657h-.405v1.533h.005a3.8 3.8 0 0 0 2.192 2.936 11.728 11.728 0 0 0 10.611 0 3.8 3.8 0 0 0 2.192-2.936h.005v-1.533z" transform="translate(-275.548 -192.677)" style="opacity:.5;fill:#f5f5f5"/>
                    </g>
                    <g data-name="Group 75602">
                        <g data-name="Group 75598">
                            <path data-name="Path 68326" d="M381.41 235.461a11.728 11.728 0 0 0-10.611 0c-2.93 1.692-2.93 4.435 0 6.127a11.727 11.727 0 0 0 10.611 0c2.931-1.688 2.931-4.435 0-6.127z" transform="translate(-275.548 -188.854)" style="fill:#27debf"/>
                            <path data-name="Path 68327" d="M381.41 235.461a11.728 11.728 0 0 0-10.611 0c-2.93 1.692-2.93 4.435 0 6.127a11.727 11.727 0 0 0 10.611 0c2.931-1.688 2.931-4.435 0-6.127z" transform="translate(-275.548 -188.854)" style="opacity:.6;fill:#f5f5f5"/>
                        </g>
                        <g data-name="Group 75601">
                            <g data-name="Group 75599">
                                <path data-name="Path 68328" d="M386.432 241.08a8.465 8.465 0 0 0-6.91 0 2 2 0 0 0 0 3.884 8.451 8.451 0 0 0 6.91 0 2 2 0 0 0 0-3.884z" transform="translate(-282.421 -193.351)" style="fill:#27debf"/>
                                <path data-name="Path 68329" d="M386.432 241.08a8.465 8.465 0 0 0-6.91 0 2 2 0 0 0 0 3.884 8.451 8.451 0 0 0 6.91 0 2 2 0 0 0 0-3.884z" transform="translate(-282.421 -193.351)" style="opacity:.6;fill:#f5f5f5"/>
                            </g>
                            <g data-name="Group 75600">
                                <path data-name="Path 68330" d="M382.138 236.631a11.4 11.4 0 0 0-10.284 0 2.917 2.917 0 0 0 0 5.561 11.411 11.411 0 0 0 10.284 0 2.917 2.917 0 0 0 0-5.561zm-1.688 4.722a8.451 8.451 0 0 1-6.91 0 2 2 0 0 1 0-3.884 8.466 8.466 0 0 1 6.91 0 2 2 0 0 1 0 3.884z" transform="translate(-276.439 -189.74)" style="fill:#27debf"/>
                                <path data-name="Path 68331" d="M382.138 236.631a11.4 11.4 0 0 0-10.284 0 2.917 2.917 0 0 0 0 5.561 11.411 11.411 0 0 0 10.284 0 2.917 2.917 0 0 0 0-5.561zm-1.688 4.722a8.451 8.451 0 0 1-6.91 0 2 2 0 0 1 0-3.884 8.466 8.466 0 0 1 6.91 0 2 2 0 0 1 0 3.884z" transform="translate(-276.439 -189.74)" style="opacity:.7;fill:#f5f5f5"/>
                            </g>
                        </g>
                    </g>
                    <g data-name="Group 75605">
                        <g data-name="Group 75603" transform="translate(95.837 47.249)">
                            <ellipse data-name="Ellipse 1396" cx="4.719" cy="2.422" rx="4.719" ry="2.422" style="fill:#27debf"/>
                            <ellipse data-name="Ellipse 1397" cx="4.719" cy="2.422" rx="4.719" ry="2.422" style="opacity:.5;fill:#f5f5f5"/>
                        </g>
                        <g data-name="Group 75604">
                            <path data-name="Path 68332" d="M387.134 244.4a8.2 8.2 0 0 0-6.674 0 1.393 1.393 0 0 0 0 2.783 8.2 8.2 0 0 0 6.674 0 1.393 1.393 0 0 0 0-2.783z" transform="translate(-283.241 -195.797)" style="fill:#27debf"/>
                            <path data-name="Path 68333" d="M387.134 244.4a8.2 8.2 0 0 0-6.674 0 1.393 1.393 0 0 0 0 2.783 8.2 8.2 0 0 0 6.674 0 1.393 1.393 0 0 0 0-2.783z" transform="translate(-283.241 -195.797)" style="opacity:.6;fill:#f5f5f5"/>
                        </g>
                    </g>
                    <g data-name="Group 75611">
                        <g data-name="Group 75608">
                            <g data-name="Group 75606">
                                <path data-name="Path 68334" d="M396.355 244.077v.692l-.236.249-.437.458v-.72z" transform="translate(-295.352 -196.082)" style="fill:#27debf"/>
                                <path data-name="Path 68335" d="M391.964 246.108v.72H390.6v-.844s1.261-.193 1.364.124z" transform="translate(-291.634 -197.434)" style="fill:#27debf"/>
                                <path data-name="Path 68336" d="M391.517 247.346v.6l-.757.437-.56-.324a2.851 2.851 0 0 1-2.167.1v-.6l.344-.341-.344.095a2.214 2.214 0 0 1-1.688-.193c-.339-.2-.5-.41-.5-.63v-.582l.061-.254-.207-.12v-.6l.56.324a.864.864 0 0 0-.415.642v.007c.006.215.165.423.5.615a2.5 2.5 0 0 0 2.133.071c.622-.2 1.074-.441 1.432-.235.222.129.155.285-.095.429a1.243 1.243 0 0 1-1.067.062l-.715.709a2.557 2.557 0 0 0 .4.116 2.948 2.948 0 0 0 1.772-.213l.56.324z" transform="translate(-288.054 -196.708)" style="fill:#27debf"/>
                                <path data-name="Path 68337" d="M402.438 254.335v.6l.56.324v-.6z" transform="translate(-300.292 -203.583)" style="fill:#27debf"/>
                            </g>
                            <g data-name="Group 75607" style="opacity:.5">
                                <path data-name="Path 68338" d="M396.355 244.077v.692l-.236.249-.437.458v-.72z" transform="translate(-295.352 -196.082)" style="fill:#f5f5f5"/>
                                <path data-name="Path 68339" d="M391.964 246.108v.72H390.6v-.844s1.261-.193 1.364.124z" transform="translate(-291.634 -197.434)" style="fill:#f5f5f5"/>
                                <path data-name="Path 68340" d="M391.517 247.346v.6l-.757.437-.56-.324a2.851 2.851 0 0 1-2.167.1v-.6l.344-.341-.344.095a2.214 2.214 0 0 1-1.688-.193c-.339-.2-.5-.41-.5-.63v-.582l.061-.254-.207-.12v-.6l.56.324a.864.864 0 0 0-.415.642v.007c.006.215.165.423.5.615a2.5 2.5 0 0 0 2.133.071c.622-.2 1.074-.441 1.432-.235.222.129.155.285-.095.429a1.243 1.243 0 0 1-1.067.062l-.715.709a2.557 2.557 0 0 0 .4.116 2.948 2.948 0 0 0 1.772-.213l.56.324z" transform="translate(-288.054 -196.708)" style="fill:#f5f5f5"/>
                                <path data-name="Path 68341" d="M402.438 254.335v.6l.56.324v-.6z" transform="translate(-300.292 -203.583)" style="fill:#f5f5f5"/>
                            </g>
                        </g>
                        <g data-name="Group 75610">
                            <g data-name="Group 75609">
                                <path data-name="Path 68342" d="m391.39 246.077-.433-.251a.738.738 0 0 0 .433-.664.564.564 0 0 0 0-.058.818.818 0 0 0-.484-.587 1.989 1.989 0 0 0-1.007-.262H389.8l-.09.006c-.026 0-.053 0-.079.008h-.032a.569.569 0 0 0-.06.008 4.089 4.089 0 0 0-.49.1 5.516 5.516 0 0 0-.229.067l-.317.1-.12.041a3.7 3.7 0 0 1-.671.191.7.7 0 0 1-.289-.011.59.59 0 0 1-.135-.056c-.169-.1-.2-.246.122-.429a1.107 1.107 0 0 1 .973-.1l.673-.679a2.883 2.883 0 0 0-2.031.113l-.561-.322-.763.44.561.323a.866.866 0 0 0-.416.643v.006c.008.216.165.424.5.615a2.5 2.5 0 0 0 2.134.069c.621-.2 1.072-.441 1.431-.234.223.129.156.285-.094.429a1.232 1.232 0 0 1-1.067.062l-.716.711a2.757 2.757 0 0 0 .4.116 2.953 2.953 0 0 0 1.772-.214l.561.324.756-.437z" transform="translate(-288.054 -195.511)" style="fill:#27debf"/>
                                <path data-name="Path 68343" d="m391.39 246.077-.433-.251a.738.738 0 0 0 .433-.664.564.564 0 0 0 0-.058.818.818 0 0 0-.484-.587 1.989 1.989 0 0 0-1.007-.262H389.8l-.09.006c-.026 0-.053 0-.079.008h-.032a.569.569 0 0 0-.06.008 4.089 4.089 0 0 0-.49.1 5.516 5.516 0 0 0-.229.067l-.317.1-.12.041a3.7 3.7 0 0 1-.671.191.7.7 0 0 1-.289-.011.59.59 0 0 1-.135-.056c-.169-.1-.2-.246.122-.429a1.107 1.107 0 0 1 .973-.1l.673-.679a2.883 2.883 0 0 0-2.031.113l-.561-.322-.763.44.561.323a.866.866 0 0 0-.416.643v.006c.008.216.165.424.5.615a2.5 2.5 0 0 0 2.134.069c.621-.2 1.072-.441 1.431-.234.223.129.156.285-.094.429a1.232 1.232 0 0 1-1.067.062l-.716.711a2.757 2.757 0 0 0 .4.116 2.953 2.953 0 0 0 1.772-.214l.561.324.756-.437z" transform="translate(-288.054 -195.511)" style="opacity:.7;fill:#f5f5f5"/>
                            </g>
                        </g>
                    </g>
                </g>
                <g data-name="Group 75628">
                    <g data-name="Group 75613">
                        <path data-name="Path 68344" d="M380.2 235.347a4.838 4.838 0 0 0-1.792-1.657 11.726 11.726 0 0 0-10.611 0 4.838 4.838 0 0 0-1.792 1.657h-.405v1.533h.005a3.8 3.8 0 0 0 2.193 2.936 11.728 11.728 0 0 0 10.611 0 3.8 3.8 0 0 0 2.193-2.936h.005v-1.533z" transform="translate(-273.354 -187.558)" style="fill:#27debf"/>
                        <path data-name="Path 68345" d="M380.2 235.347a4.838 4.838 0 0 0-1.792-1.657 11.726 11.726 0 0 0-10.611 0 4.838 4.838 0 0 0-1.792 1.657h-.405v1.533h.005a3.8 3.8 0 0 0 2.193 2.936 11.728 11.728 0 0 0 10.611 0 3.8 3.8 0 0 0 2.193-2.936h.005v-1.533z" transform="translate(-273.354 -187.558)" style="opacity:.5;fill:#f5f5f5"/>
                    </g>
                    <g data-name="Group 75618">
                        <g data-name="Group 75614">
                            <path data-name="Path 68346" d="M378.41 228.461a11.728 11.728 0 0 0-10.611 0c-2.93 1.692-2.93 4.435 0 6.127a11.726 11.726 0 0 0 10.611 0c2.931-1.688 2.931-4.435 0-6.127z" transform="translate(-273.354 -183.735)" style="fill:#27debf"/>
                            <path data-name="Path 68347" d="M378.41 228.461a11.728 11.728 0 0 0-10.611 0c-2.93 1.692-2.93 4.435 0 6.127a11.726 11.726 0 0 0 10.611 0c2.931-1.688 2.931-4.435 0-6.127z" transform="translate(-273.354 -183.735)" style="opacity:.6;fill:#f5f5f5"/>
                        </g>
                        <g data-name="Group 75617">
                            <g data-name="Group 75615">
                                <path data-name="Path 68348" d="M383.432 234.08a8.466 8.466 0 0 0-6.91 0 2 2 0 0 0 0 3.884 8.454 8.454 0 0 0 6.91 0 2 2 0 0 0 0-3.884z" transform="translate(-280.227 -188.232)" style="fill:#27debf"/>
                                <path data-name="Path 68349" d="M383.432 234.08a8.466 8.466 0 0 0-6.91 0 2 2 0 0 0 0 3.884 8.454 8.454 0 0 0 6.91 0 2 2 0 0 0 0-3.884z" transform="translate(-280.227 -188.232)" style="opacity:.6;fill:#f5f5f5"/>
                            </g>
                            <g data-name="Group 75616">
                                <path data-name="Path 68350" d="M379.138 229.631a11.4 11.4 0 0 0-10.284 0 2.917 2.917 0 0 0 0 5.561 11.411 11.411 0 0 0 10.284 0 2.917 2.917 0 0 0 0-5.561zm-1.688 4.722a8.454 8.454 0 0 1-6.91 0 2 2 0 0 1 0-3.884 8.465 8.465 0 0 1 6.91 0 2 2 0 0 1 0 3.884z" transform="translate(-274.245 -184.621)" style="fill:#27debf"/>
                                <path data-name="Path 68351" d="M379.138 229.631a11.4 11.4 0 0 0-10.284 0 2.917 2.917 0 0 0 0 5.561 11.411 11.411 0 0 0 10.284 0 2.917 2.917 0 0 0 0-5.561zm-1.688 4.722a8.454 8.454 0 0 1-6.91 0 2 2 0 0 1 0-3.884 8.465 8.465 0 0 1 6.91 0 2 2 0 0 1 0 3.884z" transform="translate(-274.245 -184.621)" style="opacity:.7;fill:#f5f5f5"/>
                            </g>
                        </g>
                    </g>
                    <g data-name="Group 75621">
                        <g data-name="Group 75619" transform="translate(95.031 45.368)">
                            <ellipse data-name="Ellipse 1398" cx="4.719" cy="2.422" rx="4.719" ry="2.422" style="fill:#27debf"/>
                            <ellipse data-name="Ellipse 1399" cx="4.719" cy="2.422" rx="4.719" ry="2.422" style="opacity:.5;fill:#f5f5f5"/>
                        </g>
                        <g data-name="Group 75620">
                            <path data-name="Path 68352" d="M384.134 237.4a8.2 8.2 0 0 0-6.674 0 1.393 1.393 0 0 0 0 2.783 8.2 8.2 0 0 0 6.674 0 1.393 1.393 0 0 0 0-2.783z" transform="translate(-281.047 -190.678)" style="fill:#27debf"/>
                            <path data-name="Path 68353" d="M384.134 237.4a8.2 8.2 0 0 0-6.674 0 1.393 1.393 0 0 0 0 2.783 8.2 8.2 0 0 0 6.674 0 1.393 1.393 0 0 0 0-2.783z" transform="translate(-281.047 -190.678)" style="opacity:.6;fill:#f5f5f5"/>
                        </g>
                    </g>
                    <g data-name="Group 75627">
                        <g data-name="Group 75624">
                            <g data-name="Group 75622">
                                <path data-name="Path 68354" d="M393.355 237.077v.692l-.236.249-.437.458v-.72z" transform="translate(-293.158 -190.963)" style="fill:#27debf"/>
                                <path data-name="Path 68355" d="M388.964 239.108v.72H387.6v-.843s1.261-.194 1.364.123z" transform="translate(-289.44 -192.315)" style="fill:#27debf"/>
                                <path data-name="Path 68356" d="M388.517 240.346v.6l-.757.437-.56-.324a2.851 2.851 0 0 1-2.167.1v-.6l.344-.341-.344.095a2.214 2.214 0 0 1-1.688-.193c-.339-.2-.5-.41-.5-.63v-.582l.061-.254-.207-.12v-.6l.56.324a.864.864 0 0 0-.415.642v.007c.006.215.165.424.5.615a2.5 2.5 0 0 0 2.133.071c.622-.2 1.074-.441 1.432-.235.222.129.155.285-.095.429a1.242 1.242 0 0 1-1.067.062l-.715.709a2.557 2.557 0 0 0 .4.116 2.949 2.949 0 0 0 1.772-.213l.56.324z" transform="translate(-285.86 -191.589)" style="fill:#27debf"/>
                                <path data-name="Path 68357" d="M399.438 247.335v.6l.56.324v-.6z" transform="translate(-298.098 -198.464)" style="fill:#27debf"/>
                            </g>
                            <g data-name="Group 75623" style="opacity:.5">
                                <path data-name="Path 68358" d="M393.355 237.077v.692l-.236.249-.437.458v-.72z" transform="translate(-293.158 -190.963)" style="fill:#f5f5f5"/>
                                <path data-name="Path 68359" d="M388.964 239.108v.72H387.6v-.843s1.261-.194 1.364.123z" transform="translate(-289.44 -192.315)" style="fill:#f5f5f5"/>
                                <path data-name="Path 68360" d="M388.517 240.346v.6l-.757.437-.56-.324a2.851 2.851 0 0 1-2.167.1v-.6l.344-.341-.344.095a2.214 2.214 0 0 1-1.688-.193c-.339-.2-.5-.41-.5-.63v-.582l.061-.254-.207-.12v-.6l.56.324a.864.864 0 0 0-.415.642v.007c.006.215.165.424.5.615a2.5 2.5 0 0 0 2.133.071c.622-.2 1.074-.441 1.432-.235.222.129.155.285-.095.429a1.242 1.242 0 0 1-1.067.062l-.715.709a2.557 2.557 0 0 0 .4.116 2.949 2.949 0 0 0 1.772-.213l.56.324z" transform="translate(-285.86 -191.589)" style="fill:#f5f5f5"/>
                                <path data-name="Path 68361" d="M399.438 247.335v.6l.56.324v-.6z" transform="translate(-298.098 -198.464)" style="fill:#f5f5f5"/>
                            </g>
                        </g>
                        <g data-name="Group 75626">
                            <g data-name="Group 75625">
                                <path data-name="Path 68362" d="m388.39 239.077-.433-.251a.738.738 0 0 0 .433-.664.574.574 0 0 0 0-.058.818.818 0 0 0-.484-.587 1.989 1.989 0 0 0-1.007-.262H386.8l-.09.006c-.026 0-.053 0-.079.008h-.032a.571.571 0 0 0-.06.008 4.08 4.08 0 0 0-.49.1 5.516 5.516 0 0 0-.229.067l-.317.1-.12.041a3.7 3.7 0 0 1-.671.191.7.7 0 0 1-.289-.011.591.591 0 0 1-.135-.056c-.169-.1-.2-.246.122-.429a1.108 1.108 0 0 1 .973-.1l.673-.679a2.883 2.883 0 0 0-2.031.113l-.561-.322-.763.44.561.323a.866.866 0 0 0-.416.643v.006c.008.216.165.424.5.615a2.5 2.5 0 0 0 2.134.069c.621-.2 1.072-.441 1.431-.234.223.129.156.285-.094.429a1.232 1.232 0 0 1-1.067.062l-.716.711a2.757 2.757 0 0 0 .4.116 2.953 2.953 0 0 0 1.772-.214l.561.324.756-.437z" transform="translate(-285.86 -190.392)" style="fill:#27debf"/>
                                <path data-name="Path 68363" d="m388.39 239.077-.433-.251a.738.738 0 0 0 .433-.664.574.574 0 0 0 0-.058.818.818 0 0 0-.484-.587 1.989 1.989 0 0 0-1.007-.262H386.8l-.09.006c-.026 0-.053 0-.079.008h-.032a.571.571 0 0 0-.06.008 4.08 4.08 0 0 0-.49.1 5.516 5.516 0 0 0-.229.067l-.317.1-.12.041a3.7 3.7 0 0 1-.671.191.7.7 0 0 1-.289-.011.591.591 0 0 1-.135-.056c-.169-.1-.2-.246.122-.429a1.108 1.108 0 0 1 .973-.1l.673-.679a2.883 2.883 0 0 0-2.031.113l-.561-.322-.763.44.561.323a.866.866 0 0 0-.416.643v.006c.008.216.165.424.5.615a2.5 2.5 0 0 0 2.134.069c.621-.2 1.072-.441 1.431-.234.223.129.156.285-.094.429a1.232 1.232 0 0 1-1.067.062l-.716.711a2.757 2.757 0 0 0 .4.116 2.953 2.953 0 0 0 1.772-.214l.561.324.756-.437z" transform="translate(-285.86 -190.392)" style="opacity:.7;fill:#f5f5f5"/>
                            </g>
                        </g>
                    </g>
                </g>
                <g data-name="Group 75644">
                    <g data-name="Group 75629">
                        <path data-name="Path 68364" d="M383.2 226.347a4.839 4.839 0 0 0-1.792-1.657 11.727 11.727 0 0 0-10.611 0 4.839 4.839 0 0 0-1.792 1.657h-.405v1.533h.005a3.8 3.8 0 0 0 2.192 2.936 11.727 11.727 0 0 0 10.611 0 3.8 3.8 0 0 0 2.192-2.936h.005v-1.533z" transform="translate(-275.548 -180.976)" style="fill:#27debf"/>
                        <path data-name="Path 68365" d="M383.2 226.347a4.839 4.839 0 0 0-1.792-1.657 11.727 11.727 0 0 0-10.611 0 4.839 4.839 0 0 0-1.792 1.657h-.405v1.533h.005a3.8 3.8 0 0 0 2.192 2.936 11.727 11.727 0 0 0 10.611 0 3.8 3.8 0 0 0 2.192-2.936h.005v-1.533z" transform="translate(-275.548 -180.976)" style="opacity:.5;fill:#f5f5f5"/>
                    </g>
                    <g data-name="Group 75634">
                        <g data-name="Group 75630">
                            <path data-name="Path 68366" d="M381.41 219.461a11.728 11.728 0 0 0-10.611 0c-2.93 1.692-2.93 4.435 0 6.127a11.726 11.726 0 0 0 10.611 0c2.931-1.688 2.931-4.435 0-6.127z" transform="translate(-275.548 -177.153)" style="fill:#27debf"/>
                            <path data-name="Path 68367" d="M381.41 219.461a11.728 11.728 0 0 0-10.611 0c-2.93 1.692-2.93 4.435 0 6.127a11.726 11.726 0 0 0 10.611 0c2.931-1.688 2.931-4.435 0-6.127z" transform="translate(-275.548 -177.153)" style="opacity:.6;fill:#f5f5f5"/>
                        </g>
                        <g data-name="Group 75633">
                            <g data-name="Group 75631">
                                <path data-name="Path 68368" d="M386.432 225.08a8.466 8.466 0 0 0-6.91 0 2 2 0 0 0 0 3.884 8.454 8.454 0 0 0 6.91 0 2 2 0 0 0 0-3.884z" transform="translate(-282.421 -181.65)" style="fill:#27debf"/>
                                <path data-name="Path 68369" d="M386.432 225.08a8.466 8.466 0 0 0-6.91 0 2 2 0 0 0 0 3.884 8.454 8.454 0 0 0 6.91 0 2 2 0 0 0 0-3.884z" transform="translate(-282.421 -181.65)" style="opacity:.6;fill:#f5f5f5"/>
                            </g>
                            <g data-name="Group 75632">
                                <path data-name="Path 68370" d="M382.138 220.631a11.4 11.4 0 0 0-10.284 0 2.917 2.917 0 0 0 0 5.561 11.409 11.409 0 0 0 10.284 0 2.917 2.917 0 0 0 0-5.561zm-1.688 4.722a8.454 8.454 0 0 1-6.91 0 2 2 0 0 1 0-3.884 8.466 8.466 0 0 1 6.91 0 2 2 0 0 1 0 3.884z" transform="translate(-276.439 -178.039)" style="fill:#27debf"/>
                                <path data-name="Path 68371" d="M382.138 220.631a11.4 11.4 0 0 0-10.284 0 2.917 2.917 0 0 0 0 5.561 11.409 11.409 0 0 0 10.284 0 2.917 2.917 0 0 0 0-5.561zm-1.688 4.722a8.454 8.454 0 0 1-6.91 0 2 2 0 0 1 0-3.884 8.466 8.466 0 0 1 6.91 0 2 2 0 0 1 0 3.884z" transform="translate(-276.439 -178.039)" style="opacity:.7;fill:#f5f5f5"/>
                            </g>
                        </g>
                    </g>
                    <g data-name="Group 75637">
                        <g data-name="Group 75635" transform="translate(95.837 42.95)">
                            <ellipse data-name="Ellipse 1400" cx="4.719" cy="2.422" rx="4.719" ry="2.422" style="fill:#27debf"/>
                            <ellipse data-name="Ellipse 1401" cx="4.719" cy="2.422" rx="4.719" ry="2.422" style="opacity:.5;fill:#f5f5f5"/>
                        </g>
                        <g data-name="Group 75636">
                            <path data-name="Path 68372" d="M387.134 228.4a8.2 8.2 0 0 0-6.674 0 1.393 1.393 0 0 0 0 2.783 8.2 8.2 0 0 0 6.674 0 1.393 1.393 0 0 0 0-2.783z" transform="translate(-283.241 -184.096)" style="fill:#27debf"/>
                            <path data-name="Path 68373" d="M387.134 228.4a8.2 8.2 0 0 0-6.674 0 1.393 1.393 0 0 0 0 2.783 8.2 8.2 0 0 0 6.674 0 1.393 1.393 0 0 0 0-2.783z" transform="translate(-283.241 -184.096)" style="opacity:.6;fill:#f5f5f5"/>
                        </g>
                    </g>
                    <g data-name="Group 75643">
                        <g data-name="Group 75640">
                            <g data-name="Group 75638">
                                <path data-name="Path 68374" d="M396.355 228.077v.692l-.236.249-.437.458v-.72z" transform="translate(-295.352 -184.381)" style="fill:#27debf"/>
                                <path data-name="Path 68375" d="M391.964 230.108v.72H390.6v-.844s1.261-.193 1.364.124z" transform="translate(-291.634 -185.733)" style="fill:#27debf"/>
                                <path data-name="Path 68376" d="M391.517 231.346v.6l-.757.437-.56-.324a2.851 2.851 0 0 1-2.167.1v-.6l.344-.341-.344.095a2.213 2.213 0 0 1-1.688-.193c-.339-.2-.5-.41-.5-.63v-.581l.061-.254-.207-.12v-.6l.56.324a.864.864 0 0 0-.415.642v.007c.006.215.165.423.5.615a2.5 2.5 0 0 0 2.133.071c.622-.2 1.074-.441 1.432-.235.222.129.155.285-.095.429a1.242 1.242 0 0 1-1.067.062l-.715.709a2.562 2.562 0 0 0 .4.116 2.948 2.948 0 0 0 1.772-.213l.56.324z" transform="translate(-288.054 -185.007)" style="fill:#27debf"/>
                                <path data-name="Path 68377" d="M402.438 238.335v.6l.56.324v-.6z" transform="translate(-300.292 -191.882)" style="fill:#27debf"/>
                            </g>
                            <g data-name="Group 75639" style="opacity:.5">
                                <path data-name="Path 68378" d="M396.355 228.077v.692l-.236.249-.437.458v-.72z" transform="translate(-295.352 -184.381)" style="fill:#f5f5f5"/>
                                <path data-name="Path 68379" d="M391.964 230.108v.72H390.6v-.844s1.261-.193 1.364.124z" transform="translate(-291.634 -185.733)" style="fill:#f5f5f5"/>
                                <path data-name="Path 68380" d="M391.517 231.346v.6l-.757.437-.56-.324a2.851 2.851 0 0 1-2.167.1v-.6l.344-.341-.344.095a2.213 2.213 0 0 1-1.688-.193c-.339-.2-.5-.41-.5-.63v-.581l.061-.254-.207-.12v-.6l.56.324a.864.864 0 0 0-.415.642v.007c.006.215.165.423.5.615a2.5 2.5 0 0 0 2.133.071c.622-.2 1.074-.441 1.432-.235.222.129.155.285-.095.429a1.242 1.242 0 0 1-1.067.062l-.715.709a2.562 2.562 0 0 0 .4.116 2.948 2.948 0 0 0 1.772-.213l.56.324z" transform="translate(-288.054 -185.007)" style="fill:#f5f5f5"/>
                                <path data-name="Path 68381" d="M402.438 238.335v.6l.56.324v-.6z" transform="translate(-300.292 -191.882)" style="fill:#f5f5f5"/>
                            </g>
                        </g>
                        <g data-name="Group 75642">
                            <g data-name="Group 75641">
                                <path data-name="Path 68382" d="m391.39 230.077-.433-.251a.738.738 0 0 0 .433-.664.565.565 0 0 0 0-.058.818.818 0 0 0-.484-.587 1.989 1.989 0 0 0-1.007-.262H389.8l-.09.006c-.026 0-.053 0-.079.008h-.032a.573.573 0 0 0-.06.008 4.083 4.083 0 0 0-.49.1 5.516 5.516 0 0 0-.229.067l-.317.1-.12.041a3.7 3.7 0 0 1-.671.191.7.7 0 0 1-.289-.011.592.592 0 0 1-.135-.056c-.169-.1-.2-.246.122-.429a1.108 1.108 0 0 1 .973-.1l.673-.679a2.883 2.883 0 0 0-2.031.113l-.561-.322-.763.44.561.323a.866.866 0 0 0-.416.643v.006c.008.216.165.424.5.615a2.5 2.5 0 0 0 2.134.069c.621-.2 1.072-.441 1.431-.234.223.129.156.285-.094.429a1.232 1.232 0 0 1-1.067.062l-.716.711a2.759 2.759 0 0 0 .4.116 2.953 2.953 0 0 0 1.772-.214l.561.324.756-.437z" transform="translate(-288.054 -183.81)" style="fill:#27debf"/>
                                <path data-name="Path 68383" d="m391.39 230.077-.433-.251a.738.738 0 0 0 .433-.664.565.565 0 0 0 0-.058.818.818 0 0 0-.484-.587 1.989 1.989 0 0 0-1.007-.262H389.8l-.09.006c-.026 0-.053 0-.079.008h-.032a.573.573 0 0 0-.06.008 4.083 4.083 0 0 0-.49.1 5.516 5.516 0 0 0-.229.067l-.317.1-.12.041a3.7 3.7 0 0 1-.671.191.7.7 0 0 1-.289-.011.592.592 0 0 1-.135-.056c-.169-.1-.2-.246.122-.429a1.108 1.108 0 0 1 .973-.1l.673-.679a2.883 2.883 0 0 0-2.031.113l-.561-.322-.763.44.561.323a.866.866 0 0 0-.416.643v.006c.008.216.165.424.5.615a2.5 2.5 0 0 0 2.134.069c.621-.2 1.072-.441 1.431-.234.223.129.156.285-.094.429a1.232 1.232 0 0 1-1.067.062l-.716.711a2.759 2.759 0 0 0 .4.116 2.953 2.953 0 0 0 1.772-.214l.561.324.756-.437z" transform="translate(-288.054 -183.81)" style="opacity:.7;fill:#f5f5f5"/>
                            </g>
                        </g>
                    </g>
                </g>
            </g>
        </g>
    </g>
</svg>
