<svg xmlns="http://www.w3.org/2000/svg" width="38.76" height="26.533" viewBox="0 0 38.76 26.533">
    <g data-name="Group 75747">
        <path data-name="Path 68425" d="M-2661.2-2853.92h-8.627a3.681 3.681 0 0 0-3.68 3.68v8.627a3.681 3.681 0 0 0 3.68 3.68h8.627a3.681 3.681 0 0 0 3.68-3.68v-8.627a3.681 3.681 0 0 0-3.68-3.68zm-8.119 3.979.666.666-.666.666-.666-.666zm.4 2.117.666-.665.666.665-.666.666zm.561 1.452-.666.666-.665-.666.665-.666zm-1.626-1.955.666.665-.666.665-.666-.665zm-1.318 2.5.666-.666.665.666-.665.665zm9.731 5.057a6.328 6.328 0 0 1-1.062.471 6.521 6.521 0 0 1-1.029.258 5.583 5.583 0 0 1-.85.078 6.431 6.431 0 0 1-2.281-.4 5.439 5.439 0 0 1-1.854-1.141 5.417 5.417 0 0 1-1.238-1.779 5.378 5.378 0 0 1-.406-1.485h2.725a3.379 3.379 0 0 0 .114.375 3.021 3.021 0 0 0 .626 1.027 3.115 3.115 0 0 0 1 .715 3.118 3.118 0 0 0 1.319.268 2.543 2.543 0 0 0 2.08-1.006l1.789 1.926a4.147 4.147 0 0 1-.935.691zm-4.144-5.249.372-.372.841.842.841-.842.372.373-1.213 1.214zm3.239-1.725a4.3 4.3 0 0 0-.984-.782 2.114 2.114 0 0 0-1.051-.291 3.121 3.121 0 0 0-1.319.268 3.179 3.179 0 0 0-.8.522l-1.72-1.929a5.565 5.565 0 0 1 1.559-.882 6.437 6.437 0 0 1 2.281-.4 5.831 5.831 0 0 1 2.068.393 4.71 4.71 0 0 1 1.823 1.246z" transform="translate(2684.896 2853.92)" style="fill:#20886f"/>
        <g data-name="Group 75732">
            <g data-name="Group 75730">
                <g data-name="Group 75729">
                    <path data-name="Path 68426" d="M-3417.665-1529.878a2.666 2.666 0 0 1-1.163-.23 1.7 1.7 0 0 1-.741-.671 2.292 2.292 0 0 1-.292-1.076c0-.2-.008-.413-.008-.642s0-.447.008-.657a2.238 2.238 0 0 1 .3-1.069 1.736 1.736 0 0 1 .748-.675 2.621 2.621 0 0 1 1.153-.234 3.008 3.008 0 0 1 .89.124 2.081 2.081 0 0 1 .693.357 1.682 1.682 0 0 1 .453.547 1.66 1.66 0 0 1 .175.7.143.143 0 0 1-.047.11.16.16 0 0 1-.113.044h-.832a.208.208 0 0 1-.139-.044.3.3 0 0 1-.08-.146.927.927 0 0 0-.365-.591 1.171 1.171 0 0 0-.635-.161 1 1 0 0 0-.715.248 1.161 1.161 0 0 0-.284.824q-.021.6 0 1.226a1.16 1.16 0 0 0 .284.824 1 1 0 0 0 .715.248 1.168 1.168 0 0 0 .638-.164.906.906 0 0 0 .361-.587.278.278 0 0 1 .08-.149.22.22 0 0 1 .139-.04h.832a.16.16 0 0 1 .113.044.143.143 0 0 1 .047.11 1.66 1.66 0 0 1-.175.7 1.681 1.681 0 0 1-.453.547 2.073 2.073 0 0 1-.693.358 3.008 3.008 0 0 1-.894.125z" transform="translate(3419.868 1555.25)" style="fill:#20886f"/>
                    <path data-name="Path 68427" d="M-3097.168-1445.117a1.562 1.562 0 0 1-.693-.15 1.276 1.276 0 0 1-.489-.405.957.957 0 0 1-.182-.569.951.951 0 0 1 .419-.817 2.593 2.593 0 0 1 1.106-.409l.955-.139v-.131a.653.653 0 0 0-.131-.438.579.579 0 0 0-.459-.153.7.7 0 0 0-.386.095.656.656 0 0 0-.227.248.185.185 0 0 1-.168.095h-.693a.159.159 0 0 1-.124-.048.135.135 0 0 1-.037-.113.612.612 0 0 1 .095-.292 1.236 1.236 0 0 1 .292-.332 1.64 1.64 0 0 1 .5-.273 2.246 2.246 0 0 1 .752-.109 2.5 2.5 0 0 1 .788.109 1.316 1.316 0 0 1 .525.306 1.251 1.251 0 0 1 .292.456 1.611 1.611 0 0 1 .095.558v2.254a.177.177 0 0 1-.051.131.177.177 0 0 1-.131.051h-.715a.171.171 0 0 1-.125-.051.179.179 0 0 1-.051-.131v-.27a1.124 1.124 0 0 1-.255.259 1.323 1.323 0 0 1-.383.193 1.684 1.684 0 0 1-.519.075zm.292-.759a.892.892 0 0 0 .43-.1.72.72 0 0 0 .3-.314 1.152 1.152 0 0 0 .11-.532v-.124l-.678.11a1.4 1.4 0 0 0-.576.2.386.386 0 0 0-.182.321.368.368 0 0 0 .083.241.508.508 0 0 0 .223.153.833.833 0 0 0 .29.046z" transform="translate(3103.435 1470.489)" style="fill:#20886f"/>
                    <path data-name="Path 68428" d="M-2817.149-1445.117a2.521 2.521 0 0 1-.777-.106 1.775 1.775 0 0 1-.525-.259 1.223 1.223 0 0 1-.3-.31.6.6 0 0 1-.105-.266.147.147 0 0 1 .051-.131.179.179 0 0 1 .117-.051h.708a.142.142 0 0 1 .044.007.1.1 0 0 1 .044.036q.094.066.2.149a.984.984 0 0 0 .237.142.851.851 0 0 0 .339.058.8.8 0 0 0 .409-.1.309.309 0 0 0 .168-.281.322.322 0 0 0-.077-.219.69.69 0 0 0-.289-.16 5.563 5.563 0 0 0-.627-.161 2.7 2.7 0 0 1-.671-.234 1.041 1.041 0 0 1-.416-.368.991.991 0 0 1-.139-.536.963.963 0 0 1 .179-.547 1.329 1.329 0 0 1 .529-.434 1.987 1.987 0 0 1 .875-.171 2.271 2.271 0 0 1 .7.1 1.781 1.781 0 0 1 .507.248 1.287 1.287 0 0 1 .311.306.589.589 0 0 1 .113.274.146.146 0 0 1-.044.124.16.16 0 0 1-.116.051h-.649a.179.179 0 0 1-.065-.011.144.144 0 0 1-.052-.033 2.122 2.122 0 0 1-.179-.135.982.982 0 0 0-.215-.135.757.757 0 0 0-.321-.058.565.565 0 0 0-.369.105.333.333 0 0 0-.128.266.311.311 0 0 0 .066.19.582.582 0 0 0 .27.161 4.535 4.535 0 0 0 .62.153 2.336 2.336 0 0 1 .788.263 1.127 1.127 0 0 1 .419.4 1 1 0 0 1 .127.492.973.973 0 0 1-.2.609 1.317 1.317 0 0 1-.594.416 2.7 2.7 0 0 1-.963.156z" transform="translate(2828.027 1470.489)" style="fill:#20886f"/>
                    <path data-name="Path 68429" d="M-2545.582-1529.951a.178.178 0 0 1-.131-.051.178.178 0 0 1-.051-.131v-4.815a.178.178 0 0 1 .051-.131.178.178 0 0 1 .131-.051h.788a.167.167 0 0 1 .124.051.176.176 0 0 1 .052.131v1.641a1.455 1.455 0 0 1 .481-.372 1.557 1.557 0 0 1 .686-.139 1.487 1.487 0 0 1 .762.193 1.345 1.345 0 0 1 .522.562 1.936 1.936 0 0 1 .189.894v2.035a.178.178 0 0 1-.051.131.177.177 0 0 1-.131.051h-.8a.17.17 0 0 1-.124-.051.177.177 0 0 1-.051-.131v-1.992a.879.879 0 0 0-.19-.6.681.681 0 0 0-.54-.215.73.73 0 0 0-.551.215.83.83 0 0 0-.208.6v1.992a.177.177 0 0 1-.052.131.167.167 0 0 1-.124.051z" transform="translate(2559.1 1555.25)" style="fill:#20886f"/>
                    <path data-name="Path 68430" d="M-2241.469-1544.215a.167.167 0 0 1-.124-.051.178.178 0 0 1-.051-.132v-.584a.19.19 0 0 1 .051-.135.162.162 0 0 1 .124-.055h.766a.184.184 0 0 1 .135.055.185.185 0 0 1 .055.135v.584a.174.174 0 0 1-.055.132.191.191 0 0 1-.135.051zm.022 4.377a.168.168 0 0 1-.124-.051.177.177 0 0 1-.051-.131v-3.429a.177.177 0 0 1 .051-.131.169.169 0 0 1 .124-.051h.729a.178.178 0 0 1 .131.051.177.177 0 0 1 .051.131v3.429a.176.176 0 0 1-.051.131.177.177 0 0 1-.131.051z" transform="translate(2259.619 1565.138)" style="fill:#20886f"/>
                    <path data-name="Path 68431" d="M-2130.256-1544.076a.178.178 0 0 1-.132-.051.177.177 0 0 1-.051-.131v-2.75h-.569a.177.177 0 0 1-.132-.051.176.176 0 0 1-.051-.131v-.5a.177.177 0 0 1 .051-.131.178.178 0 0 1 .132-.051h.569v-.263a1.5 1.5 0 0 1 .175-.766 1.025 1.025 0 0 1 .51-.438 2.162 2.162 0 0 1 .825-.139h.532a.18.18 0 0 1 .132.051.18.18 0 0 1 .051.131v.5a.179.179 0 0 1-.051.131.179.179 0 0 1-.132.051h-.488a.458.458 0 0 0-.376.131.608.608 0 0 0-.106.387v.226h.9a.177.177 0 0 1 .131.051.177.177 0 0 1 .051.131v.5a.176.176 0 0 1-.051.131.176.176 0 0 1-.131.051h-.9v2.75a.179.179 0 0 1-.051.131.169.169 0 0 1-.124.051z" transform="translate(2150.85 1569.375)" style="fill:#20886f"/>
                    <path data-name="Path 68432" d="M-1876.049-1530.8a.169.169 0 0 0-.124-.051h-.533a.377.377 0 0 1-.346-.157.815.815 0 0 1-.1-.434v-1.444h.912a.169.169 0 0 0 .124-.051.178.178 0 0 0 .051-.132v-.5a.179.179 0 0 0-.051-.131.169.169 0 0 0-.124-.051h-.912v-1.2a.178.178 0 0 0-.051-.131.178.178 0 0 0-.131-.051h-.715a.181.181 0 0 0-.127.051.171.171 0 0 0-.055.131v1.2h.782a.177.177 0 0 1 .131.051.178.178 0 0 1 .051.131v.5a.179.179 0 0 1-.051.132.177.177 0 0 1-.131.051h-.782v1.532a1.688 1.688 0 0 0 .164.788 1.017 1.017 0 0 0 .485.463 1.818 1.818 0 0 0 .773.149h.635a.168.168 0 0 0 .124-.051.177.177 0 0 0 .051-.131v-.54a.17.17 0 0 0-.05-.124z" transform="translate(1901.75 1555.253)" style="fill:#20886f"/>
                </g>
            </g>
            <g data-name="Group 75731">
                <path data-name="Path 68433" d="M-1667.2-1531.871h-1.151v-5.1h2.2a1.624 1.624 0 0 1 1.779 1.667 1.618 1.618 0 0 1-1.779 1.674h-1.054zm.942-2.713a.649.649 0 0 0 .74-.717.659.659 0 0 0-.74-.718h-.942v1.435z" transform="translate(1695.072 1557.06)" style="fill:#20886f"/>
                <path data-name="Path 68434" d="m-1371.09-1461.476-.194-.695c1.2-.5 2.937-.568 2.937 1.069v2.57h-1.054v-.441a1.476 1.476 0 0 1-1.121.508.979.979 0 0 1-.994-1.061c0-.867.792-1.412 2.115-1.375v-.164c.001-.835-.899-.703-1.689-.411zm.56 1.816c0 .269.217.4.471.4a.92.92 0 0 0 .658-.284v-.762c-.799-.087-1.129.354-1.129.646z" transform="translate(1402.766 1483.713)" style="fill:#20886f"/>
                <path data-name="Path 68435" d="m-1130.547-1448.8-1.764 5.1h-1l.351-1.024-1.48-4.073h1.181l.777 2.765.015.007.792-2.773z" transform="translate(1169.306 1470.234)" style="fill:#20886f"/>
            </g>
        </g>
    </g>
</svg>
