<svg xmlns="http://www.w3.org/2000/svg" xmlns:xlink="http://www.w3.org/1999/xlink" width="37" height="37" viewBox="0 0 37 37"><defs><clipPath id="b"><rect width="37" height="37"/></clipPath></defs><g id="a" clip-path="url(#b)"><g transform="translate(-297 -339)"><g transform="translate(0 168)"><g transform="translate(299.857 178.858)"><rect width="25" height="25" rx="12.5" transform="translate(0.142 0.142)" fill="#1e866f" opacity="0.06"/></g></g><g transform="translate(-412.203 -258.869)"><path d="M735.037,617.355a2,2,0,0,1-.486.888c-.041.04-.034.138-.034.209q0,3.057,0,6.115a1.573,1.573,0,0,1-1.71,1.706q-1.514,0-3.027,0c-.079,0-.185.011-.232-.033a.556.556,0,0,1-.188-.3c-.017-.144.094-.246.245-.271a1.241,1.241,0,0,1,.2-.006h3.048a.964.964,0,0,0,1.057-1.049q0-2.836,0-5.671v-.214a16.175,16.175,0,0,1-7.7,2.1c-.184,1.134-.7,1.652-1.591,1.614-.809-.034-1.334-.626-1.415-1.61-.342-.029-.688-.058-1.033-.089a19.279,19.279,0,0,1-3.467-.623c-.227-.063-.336-.211-.292-.386a.311.311,0,0,1,.415-.209c.49.114.976.261,1.472.34.955.151,1.915.265,2.916.4,0-.247,0-.438,0-.63a.743.743,0,0,1,.831-.835c.457,0,.915,0,1.372,0a.726.726,0,0,1,.767.756c.005.213,0,.427,0,.666.519-.046,1.014-.078,1.506-.136a16.59,16.59,0,0,0,3.747-.843A9.4,9.4,0,0,0,734,617.906a1.045,1.045,0,0,0,.433-.885c0-1.366,0-2.731,0-4.1a.954.954,0,0,0-1.022-1.021H715.992a.952.952,0,0,0-1.016,1.027c0,1.366,0,2.731,0,4.1a1.04,1.04,0,0,0,.437.883A8.969,8.969,0,0,0,717.333,619c.062.026.125.05.185.079a.307.307,0,0,1,.19.408.3.3,0,0,1-.426.147c-.3-.128-.6-.262-.9-.411s-.573-.317-.877-.487c0,.076-.01.139-.01.2q0,2.826,0,5.651a.968.968,0,0,0,1.075,1.072h11.645c.074,0,.148,0,.222,0a.3.3,0,0,1,.3.293.308.308,0,0,1-.287.309,1.087,1.087,0,0,1-.141,0q-5.883,0-11.766,0a1.567,1.567,0,0,1-1.63-1.3,2.237,2.237,0,0,1-.023-.4q0-3.047,0-6.095a.447.447,0,0,0-.124-.341,1.437,1.437,0,0,1-.4-1.008c0-1.433-.008-2.866,0-4.3a1.541,1.541,0,0,1,1.553-1.531c1.6-.006,3.2,0,4.8,0h.246c0-.156,0-.3,0-.434,0-.323,0-.646,0-.969a1,1,0,0,1,.5-.908,5.64,5.64,0,0,1,2.563-.831,9.364,9.364,0,0,1,1.087-.019.281.281,0,0,1,.284.323.29.29,0,0,1-.316.273c-.054,0-.108,0-.161,0a5.6,5.6,0,0,0-2.066.283,7.73,7.73,0,0,0-1.072.5.426.426,0,0,0-.2.3c-.021.483-.009.967-.009,1.468h.7c0-.318.008-.632,0-.946a.423.423,0,0,1,.287-.453,5.272,5.272,0,0,1,4.287.011.394.394,0,0,1,.261.41c-.007.322,0,.644,0,.981h.686a1.146,1.146,0,0,0,.019-.146c0-.41,0-.821,0-1.231a.405.405,0,0,0-.23-.413c-.395-.183-.794-.355-1.193-.53-.055-.024-.117-.03-.174-.05a.3.3,0,1,1,.164-.584,5.311,5.311,0,0,1,1.55.661.992.992,0,0,1,.489.893c0,.39,0,.78,0,1.171v.243h4.877a1.559,1.559,0,0,1,1.7,1.281.353.353,0,0,0,.026.054Zm-12.142-6.07h3.616c0-.272.006-.532-.005-.792a.2.2,0,0,0-.112-.136,4.654,4.654,0,0,0-3.382,0,.2.2,0,0,0-.112.136C722.89,610.754,722.9,611.014,722.9,611.285Zm2.687,9.018c0-.222-.005-.444,0-.666.005-.161-.052-.23-.223-.227q-.655.013-1.311,0c-.165,0-.231.054-.229.221.006.437,0,.874,0,1.311a.878.878,0,1,0,1.756.006C725.587,620.734,725.583,620.519,725.583,620.3Z" transform="translate(0 0)" fill="#1e866f"/></g></g></g></svg>