<svg xmlns="http://www.w3.org/2000/svg" width="13.946" height="12.873" viewBox="0 0 13.946 12.873">
    <g data-name="Group 76763">
        <g data-name="Component 38 – 8">
            <g data-name="Icon ionic-ios-qr-scanner">
                <path data-name="Path 68385" d="M7.6 4.5H5.628a2.253 2.253 0 0 0-2.253 2.253v1.971a.469.469 0 1 0 .939 0v-2a1.365 1.365 0 0 1 1.28-1.285h2a.469.469 0 0 0 0-.939z" transform="translate(-3.375 -4.5)" style="fill:#1e866f"/>
                <path data-name="Path 68386" d="M25.255 4.5h-2a.469.469 0 0 0 0 .939h2a1.365 1.365 0 0 1 1.281 1.281v2a.469.469 0 0 0 .939 0v-2a2.222 2.222 0 0 0-2.22-2.22z" transform="translate(-13.528 -4.5)" style="fill:#1e866f"/>
                <path data-name="Path 68387" d="M7.6 25.411h-2a1.365 1.365 0 0 1-1.286-1.281v-2a.469.469 0 1 0-.939 0v2a2.222 2.222 0 0 0 2.219 2.22h2a.469.469 0 1 0 0-.939z" transform="translate(-3.375 -13.476)" style="fill:#1e866f"/>
                <path data-name="Path 68388" d="M27.005 21.656a.471.471 0 0 0-.469.469v2a1.365 1.365 0 0 1-1.281 1.281h-2a.469.469 0 0 0 0 .939h1.971a2.256 2.256 0 0 0 2.249-2.245v-1.974a.471.471 0 0 0-.47-.47z" transform="translate(-13.528 -13.476)" style="fill:#1e866f"/>
            </g>
            <path data-name="Icon metro-qrcode" d="M5.247 2.463H3.106V4.6h2.141zm.535-.535V5.14H2.571V1.928zM3.641 3h1.071v1.069H3.641zm6.959-.537H8.459V4.6H10.6zm.535-.535V5.14H7.923V1.928h3.212zM8.994 3h1.071v1.069H8.994zM5.247 7.816H3.106v2.141h2.141zm.535-.535v3.212H2.571V7.281zm-2.141 1.07h1.071v1.071H3.641zm2.677-6.423h.535v.535h-.535zm.535.535h.535V3h-.535zM6.318 3h.535v.535h-.535zm.535.535h.535v.535h-.535zm-.535.535h.535v.53h-.535zm.535.535h.535v.535h-.535zm-.535.535h.535v.535h-.535zm0 1.071h.535v.535h-.535zm.535.535h.535v.535h-.535zm-.535.535h.535v.535h-.535zm.535.535h.535v.535h-.535zm-.535.535h.535v.535h-.535zm.535.535h.535v.535h-.535zm-.535.535h.535v.535h-.535zm.535.535h.535v.535h-.535zM10.6 6.21h.535v.535H10.6zm-7.494 0h.535v.535h-.535zm.535-.535h.535v.535h-.535zm-1.071 0h.535v.535h-.534zm2.141 0h.535v.535h-.534zm.535.535h.535v.535h-.534zm.535-.535h.535v.535h-.534zm1.606.535h.535v.535h-.534zm.535-.535h.535v.535h-.534zm.535.535h.535v.535h-.533zm.535-.535h.535v.535h-.533zm.535.535h.535v.535h-.533zm.535-.535h.538v.535h-.535zm.538 1.606h.535v.535H10.6zm-3.212 0h.535v.535h-.535zm.535-.535h.535v.535h-.535zm.535.535h.535v.535h-.534zm1.071 0h.535v.535h-.535zm.535-.535h.536v.535h-.535zm.536 1.605h.535v.535H10.6zm-3.212 0h.535v.535h-.535zm.535-.535h.535v.535h-.535zm1.071 0h.535v.535h-.535zm.535.535h.535v.535h-.535zm.535-.535h.536v.535h-.535zm.536 1.606h.535v.535H10.6zm-2.677-.536h.535v.535h-.535zm.535.535h.535v.535h-.534zm.535-.535h.535v.535h-.534zm.535.535h.535v.535h-.534zm-1.606.535h.535v.535h-.534zm1.071 0h.535v.535h-.534zm1.071 0h.536v.535h-.535z" transform="translate(.12 .226)" style="fill:#28a197"/>
        </g>
    </g>
</svg>
