<svg data-name="qr-code-svgrepo-com (4)" xmlns="http://www.w3.org/2000/svg" width="45.001" height="53.819" viewBox="0 0 45.001 53.819">
    <path data-name="Path 68419" d="M67.183 174.249a8.145 8.145 0 0 0-8.135 8.135 1.113 1.113 0 0 0 2.225 0 5.917 5.917 0 0 1 5.91-5.91 1.113 1.113 0 1 0 0-2.225z" transform="translate(-54.697 -148.397)" style="fill:#1e866f"/>
    <path data-name="Path 68420" d="M53.418 162.9a12.5 12.5 0 1 0-2.385 3.331 12.669 12.669 0 0 0 1.192-1.377l7.065 7.065a1.787 1.787 0 0 1 0 2.528l-.041.041a1.789 1.789 0 0 1-2.527 0l-4.69-4.688a1.113 1.113 0 1 0-1.573 1.574l4.689 4.689a4.017 4.017 0 0 0 5.675 0l.041-.041a4.012 4.012 0 0 0 0-5.674zm-3.959 1.757a10.261 10.261 0 1 1 3.005-7.256 10.194 10.194 0 0 1-3.004 7.261z" transform="translate(-29.717 -123.419)" style="fill:#1e866f"/>
    <path data-name="Path 68421" d="M117.426 0H82.284a1.113 1.113 0 0 0-1.113 1.113v18.359a1.113 1.113 0 0 0 2.225 0V2.225h32.917v32.917h-15.484a1.113 1.113 0 0 0 0 2.225h16.6a1.113 1.113 0 0 0 1.113-1.113V1.113A1.113 1.113 0 0 0 117.426 0z" transform="translate(-73.537)" style="fill:#1e866f"/>
    <path data-name="Path 68422" d="M118.614 33.75h-5.075a1.113 1.113 0 0 0-1.113 1.113v5.075a1.113 1.113 0 0 0 1.113 1.113h3.961v8.462a1.113 1.113 0 0 0 1.113 1.113h9.575a1.113 1.113 0 0 0 1.113-1.113v-9.575a1.113 1.113 0 0 0-1.113-1.113h-8.462v-3.962a1.113 1.113 0 0 0-1.112-1.113zm-3.963 2.225h2.85v2.85h-2.85zM127.076 48.4h-7.35v-7.35h7.35z" transform="translate(-100.155 -28.743)" style="fill:#1e866f"/>
    <path data-name="Path 68423" d="M212.816 117.535h-3.338a1.113 1.113 0 0 0-1.113 1.113v4.452a1.113 1.113 0 0 0 1.113 1.113h4.451a1.113 1.113 0 0 0 1.113-1.113v-3.34h6.768a1.113 1.113 0 0 0 1.113-1.113v-9.575a1.113 1.113 0 0 0-1.113-1.113h-7.881a1.113 1.113 0 0 0-1.113 1.113zm0 4.451h-2.226v-2.226h2.225zm2.225-11.8h5.659v7.35h-5.656z" transform="translate(-181.862 -91.943)" style="fill:#1e866f"/>
    <path data-name="Path 68424" d="M239.478 42.59h7.881a1.113 1.113 0 0 0 1.113-1.113v-6.614a1.113 1.113 0 0 0-1.113-1.113h-7.881a1.113 1.113 0 0 0-1.113 1.113v6.614a1.113 1.113 0 0 0 1.113 1.113zm1.113-6.614h5.656v4.389h-5.657z" transform="translate(-207.41 -28.743)" style="fill:#1e866f"/>
</svg>
