<svg data-name="Group 75654" xmlns="http://www.w3.org/2000/svg" width="25.717" height="26.745" viewBox="0 0 25.717 26.745">
    <defs>
        <clipPath id="baanh0ifwa">
            <path data-name="Rectangle 9799" style="stroke:#707070;fill:#fff" d="M0 0h24.824v25.6H0z"/>
        </clipPath>
    </defs>
    <g data-name="svgexport-6 (23)">
        <g data-name="Group 73752">
            <g data-name="Group 73748">
                <path data-name="Path 67458" d="m455.455 136.691-.021-.108a.735.735 0 0 1 .534-.849l1.149-.3a.735.735 0 0 1 .909.572l.051.267a.735.735 0 0 1-.633.867l-1.18.143a.735.735 0 0 1-.809-.592z" transform="translate(-432.374 -128.723)" style="fill:#b3e59f"/>
                <path data-name="Path 67459" d="m419.668 53.678-.072-.083a.735.735 0 0 1 .039-1l.844-.837a.735.735 0 0 1 1.073.041l.178.206a.735.735 0 0 1-.115 1.068l-.95.714a.735.735 0 0 1-.997-.109z" transform="translate(-398.147 -48.999)" style="fill:#b3e59f"/>
                <path data-name="Path 67460" d="m352.3 2.611-.1-.036a.735.735 0 0 1-.468-.887l.312-1.146a.735.735 0 0 1 .95-.5l.257.089a.735.735 0 0 1 .435.982l-.466 1.093a.735.735 0 0 1-.92.405z" transform="translate(-333.779)" style="fill:#b3e59f"/>
            </g>
        </g>
    </g>
    <g data-name="Mask Group 73483" transform="translate(0 1.145)" style="clip-path:url(#baanh0ifwa)">
        <g data-name="svgexport-6 (22)">
            <g data-name="Group 73747">
                <g data-name="Group 73746">
                    <g data-name="Group 73728">
                        <g data-name="Group 73723">
                            <g data-name="Group 73721">
                                <path data-name="Path 67446" d="M135.154 49.167a.369.369 0 0 1-.3-.151 2 2 0 0 0-1.875-.88 3.712 3.712 0 0 1-2.425-.551.369.369 0 1 1 .4-.623 2.979 2.979 0 0 0 1.949.439 2.748 2.748 0 0 1 2.548 1.177.37.37 0 0 1-.3.589z" transform="translate(-123.721 -44.445)" style="fill:#ffd064"/>
                            </g>
                            <g data-name="Group 73722">
                                <path data-name="Path 67447" d="M141.856 90.95a.37.37 0 0 1-.315-.563 3.638 3.638 0 0 1 2.51-1.533 6.7 6.7 0 0 1 1.6-.121.369.369 0 0 1-.05.737c-.026 0-2.534-.15-3.427 1.3a.369.369 0 0 1-.318.18z" transform="translate(-134.292 -84.266)" style="fill:#ffd064"/>
                            </g>
                        </g>
                        <g data-name="Group 73727">
                            <g data-name="Group 73726">
                                <path data-name="Path 67448" d="M117.608 20.625c6.068 0 9.423-8.9-.159-15.775a.9.9 0 0 1-.377-.74 1.2 1.2 0 0 1 .218-.676 17.488 17.488 0 0 0 1.483-2.619.3.3 0 0 0-.288-.439c-.576 0-.576-.377-1.151-.377s-.576.377-1.151.377c-.49 0-.692-.422-.93-.115-.7.9 1.687 4.043 1.687 4.043-10.52 6.916-7.128 16.321-.917 16.321h1.587z" transform="translate(-104.475 .217)" style="fill:#ffbf47"/>
                                <g data-name="Group 73724">
                                    <path data-name="Path 67449" d="M246.49 4.3s2.417-3.137 1.722-4.037c-.237-.307-.439.11-.929.11-.576 0-.576-.377-1.151-.377s-.576.377-1.151.377h-.08a12.442 12.442 0 0 1-1.87 3.363c.235.345.4.568.4.568q-.21.138-.413.278c10.051 6.909 6.688 16.043.541 16.043h3.881c6.23 0 9.6-9.382-.954-16.321z" transform="translate(-230.972 .217)" style="fill:#e8ae4d"/>
                                </g>
                                <g data-name="Group 73725">
                                    <path data-name="Path 67450" d="M228.563 78.19a8.409 8.409 0 0 1-4.2 0 .9.9 0 0 1-.59-1.173l.006-.017a.827.827 0 0 1 .976-.551 6.833 6.833 0 0 0 3.414 0 .827.827 0 0 1 .976.551l.006.017a.9.9 0 0 1-.588 1.173z" transform="translate(-212.595 -72.553)" style="fill:#ffe07d"/>
                                </g>
                            </g>
                        </g>
                    </g>
                    <g data-name="Group 73745">
                        <g data-name="Group 73744">
                            <g data-name="Group 73743">
                                <g data-name="Group 73742">
                                    <g data-name="Group 73741">
                                        <g data-name="Group 73740">
                                            <g data-name="Group 73739">
                                                <g data-name="Group 73738">
                                                    <g data-name="Group 73737">
                                                        <g data-name="Group 73736">
                                                            <g data-name="Group 73735">
                                                                <g data-name="Group 73734">
                                                                    <g data-name="Group 73729">
                                                                        <path data-name="Path 67451" d="m48.777 326.69 5.349 1.991a4.07 4.07 0 0 0 1.42.256h5.513a4.071 4.071 0 0 0 2.179-.632l6.9-4.374a1.212 1.212 0 0 0 .2-1.588 1.231 1.231 0 0 0-1.677-.324l-6.72 2.959.008-1.09a1.951 1.951 0 0 0-1.669-1.739l-4.093-.471a5.4 5.4 0 0 1-2.239-.931 7.335 7.335 0 0 0-3.7-1h-1.471z" transform="translate(-46.016 -304.233)" style="fill:#ffddce"/>
                                                                    </g>
                                                                    <path data-name="Path 67452" d="M53.8 327.62a4.28 4.28 0 0 0 1.493.269h5.8a4.279 4.279 0 0 0 1.781-.389l4.053-2.568a1.252 1.252 0 0 0 .383-1.78l-.25-.427-5.116 2.253.008-1.09a1.951 1.951 0 0 0-1.669-1.739l-4.093-.471a5.4 5.4 0 0 1-2.239-.931 7.335 7.335 0 0 0-3.7-1h-1.474v6.008z" transform="translate(-46.016 -304.233)" style="fill:#ffddce"/>
                                                                    <path data-name="Path 67453" d="M70.338 364a1.231 1.231 0 0 0-1.677-.324l-1.849.814.161.255a1.212 1.212 0 0 1-.2 1.588l-4.022 2.549a4.07 4.07 0 0 1-1.694.37h-5.511a4.07 4.07 0 0 1-1.42-.256L48.777 367v1.343l5.349 1.991a4.07 4.07 0 0 0 1.42.256h5.513a4.071 4.071 0 0 0 2.179-.632l6.9-4.374a1.212 1.212 0 0 0 .2-1.584z" transform="translate(-46.016 -345.89)" style="fill:#ffcbbe"/>
                                                                    <g data-name="Group 73730">
                                                                        <path data-name="Path 67454" d="M313.69 382.938v.026l.017-.008z" transform="translate(-298.26 -364.407)" style="fill:#f5dbcc"/>
                                                                    </g>
                                                                    <g data-name="Group 73733">
                                                                        <g data-name="Group 73732">
                                                                            <g data-name="Group 73731">
                                                                                <path data-name="Path 67455" d="M233.462 414.5h-4.179a.369.369 0 1 1 0-.739h4.184z" transform="translate(-217.538 -393.754)" style="fill:#ffcbbe"/>
                                                                            </g>
                                                                        </g>
                                                                    </g>
                                                                </g>
                                                            </g>
                                                            <path data-name="Path 67456" d="M11.092 301.976a.7.7 0 0 1-.7.7h-1.7a.7.7 0 0 1-.7-.7v-8.605a.7.7 0 0 1 .7-.7h1.7a.7.7 0 0 1 .7.7z" transform="translate(-7.18 -278.454)" style="fill:#1e866f"/>
                                                        </g>
                                                    </g>
                                                </g>
                                            </g>
                                        </g>
                                    </g>
                                </g>
                            </g>
                        </g>
                    </g>
                </g>
                <path data-name="Path 67457" d="M242.309 156.419c-.169-.06-.325-.117-.469-.172v-2.356a1.518 1.518 0 0 1 .719.316.369.369 0 0 0 .5-.545 2.288 2.288 0 0 0-1.218-.517v-.525a.369.369 0 1 0-.739 0v.555a2.729 2.729 0 0 0-.274.067 1.787 1.787 0 0 0-1.223 1.4 1.563 1.563 0 0 0 .508 1.54 4.476 4.476 0 0 0 .989.559v2.922a1.961 1.961 0 0 1-1.149-.4.369.369 0 1 0-.4.618 2.706 2.706 0 0 0 1.554.519v.587a.369.369 0 1 0 .739 0v-.612a2.165 2.165 0 0 0 1.774-1.791 1.9 1.9 0 0 0-1.311-2.165zm-1.741-.816a.833.833 0 0 1-.238-.822 1.057 1.057 0 0 1 .71-.832l.061-.017v2a3.112 3.112 0 0 1-.533-.332zm2.317 2.861a1.439 1.439 0 0 1-1.045 1.158v-2.587l.222.08a1.163 1.163 0 0 1 .824 1.35z" transform="translate(-227.504 -144.752)" style="fill:#fff"/>
            </g>
        </g>
    </g>
</svg>
