<svg xmlns="http://www.w3.org/2000/svg" width="15" height="15" viewBox="0 0 15 15">
    <g data-name="Group 75669">
        <circle data-name="Ellipse 1404" cx="7.5" cy="7.5" r="7.5" style="fill:#fff"/>
        <path data-name="Path 68389" d="M78.927 46.313a2.988 2.988 0 0 0-.82 2.063 3.026 3.026 0 1 0 3.032-3.02 3.059 3.059 0 0 0-2.212.957zm1.156 3.256a2.687 2.687 0 0 1 .087-.3c.037-.112.062-.124.174-.075a1.53 1.53 0 0 0 .572.174.778.778 0 0 0 .373-.05.291.291 0 0 0 .075-.509 1.183 1.183 0 0 0-.211-.124 4.91 4.91 0 0 1-.584-.261.806.806 0 0 1-.46-.783.877.877 0 0 1 .634-.808c.149-.062.162-.05.162-.211v-.162c0-.124.025-.149.149-.149h.112c.261 0 .261 0 .261.261 0 .186 0 .186.186.211a1.481 1.481 0 0 1 .4.124.119.119 0 0 1 .075.162c-.037.112-.062.224-.1.336s-.062.124-.174.075a1.236 1.236 0 0 0-.634-.124.438.438 0 0 0-.174.037.245.245 0 0 0-.062.435 1.982 1.982 0 0 0 .273.162c.174.075.348.137.509.224a.908.908 0 0 1 .3 1.379.928.928 0 0 1-.509.323.15.15 0 0 0-.124.162v.273a.111.111 0 0 1-.124.124h-.286c-.087 0-.124-.05-.124-.137v-.2c0-.149 0-.149-.149-.174a1.846 1.846 0 0 1-.509-.149c-.137-.075-.149-.112-.112-.249zm-3.156-.522-.41-.41a4.633 4.633 0 0 0 4.623 4.374h.311v.621h-.311a5.22 5.22 0 0 1-3.715-1.541 5.28 5.28 0 0 1-1.525-3.466l-.422.422-.435-.435 1.18-1.18 1.18 1.18zm8.425-1.342.41.41a4.633 4.633 0 0 0-4.623-4.374h-.311v-.621h.311a5.249 5.249 0 0 1 5.244 5.008l.422-.422.435.435-1.18 1.18-1.18-1.18z" transform="translate(-73.841 -40.597)" style="fill:#1e866f"/>
    </g>
</svg>
