<svg xmlns="http://www.w3.org/2000/svg" xmlns:xlink="http://www.w3.org/1999/xlink" width="37" height="37" viewBox="0 0 37 37"><defs><clipPath id="b"><rect width="37" height="37"/></clipPath></defs><g id="a" clip-path="url(#b)"><g transform="translate(-296 -176.25)"><g transform="translate(299.858 178.858)"><rect width="25" height="25" rx="12.5" transform="translate(0.142 0.142)" fill="#1e866f" opacity="0.06"/></g><g transform="translate(302.55 181.55)"><g transform="translate(1.505 1.116)"><path d="M3.129-.75H13a3.883,3.883,0,0,1,3.879,3.879V4.367a.645.645,0,0,1-.645.645H14.5a1.072,1.072,0,0,0-.776.321l-.012.012a1.081,1.081,0,0,0-.324.879v.008A1.2,1.2,0,0,0,14.6,7.249h1.634a.645.645,0,0,1,.645.645V8.917A3.883,3.883,0,0,1,13,12.8H3.129A3.883,3.883,0,0,1-.75,8.917V3.129A3.883,3.883,0,0,1,3.129-.75ZM15.592,3.722V3.129A2.592,2.592,0,0,0,13,.54H3.129A2.592,2.592,0,0,0,.54,3.129V8.917a2.592,2.592,0,0,0,2.589,2.589H13a2.592,2.592,0,0,0,2.589-2.589V8.539H14.6a2.476,2.476,0,0,1-2.5-2.2,2.417,2.417,0,0,1,2.4-2.62Z" transform="translate(0.75 5.655)" fill="#1e866f"/><path d="M-.1,9.455A.645.645,0,0,1-.75,8.81V4.879a3.075,3.075,0,0,1,2-2.9L8.079-.6a2.279,2.279,0,0,1,3.083,2.134V4.8a.645.645,0,1,1-1.29,0V1.533A.989.989,0,0,0,8.535.605l-6.83,2.58A1.794,1.794,0,0,0,.54,4.879V8.81A.645.645,0,0,1-.1,9.455Z" transform="translate(0.75 0.748)" fill="#1e866f"/></g><path d="M1.657-.75H3.469A1.524,1.524,0,0,1,4.952.772V2.544A1.524,1.524,0,0,1,3.469,4.066H1.761a2.476,2.476,0,0,1-2.5-2.2,2.365,2.365,0,0,1,.7-1.915A2.352,2.352,0,0,1,1.657-.75ZM3.432.54H1.657A1.072,1.072,0,0,0,.881.861L.87.873a1.081,1.081,0,0,0-.324.879v.008A1.2,1.2,0,0,0,1.761,2.776H3.432a.238.238,0,0,0,.23-.232V.772A.238.238,0,0,0,3.432.54Z" transform="translate(15.096 11.243)" fill="#1e866f"/><path d="M5.916.54H-.1A.645.645,0,0,1-.75-.1.645.645,0,0,1-.1-.75H5.916A.645.645,0,0,1,6.561-.1.645.645,0,0,1,5.916.54Z" transform="translate(6.126 10.426)" fill="#1e866f"/><path d="M0,0H20.642V20.642H0Z" fill="none" opacity="0"/></g></g></g></svg>