<svg width="16" height="16" viewBox="0 0 16 16" fill="none" xmlns="http://www.w3.org/2000/svg">
<path d="M14.4494 9.74961C14.0309 9.30654 12.3325 8.64192 11.6432 8.37115V7.46038C12.1355 6.96808 12.3325 6.37731 12.3817 6.205C12.8002 5.68808 13.194 4.94962 12.6279 4.58038L12.6771 3.965H12.8986C13.0709 3.965 13.194 3.76808 13.1202 3.62038C13.1202 3.59577 13.0217 3.42346 12.8002 3.30038V1.92192C12.8002 1.60192 12.6525 1.28192 12.3817 1.10962C11.8402 0.740385 10.8063 0.125 9.72324 0.125C8.64016 0.125 7.5817 0.740385 7.06478 1.10962C6.79401 1.28192 6.64632 1.60192 6.64632 1.92192V3.27577C6.42478 3.39885 6.32632 3.57115 6.32632 3.59577C6.25247 3.74346 6.35093 3.94038 6.54785 3.94038H6.76939L6.81862 4.55577C6.69555 4.62962 6.59709 4.75269 6.57247 4.90038C6.47401 5.22038 6.64632 5.63885 7.08939 6.18038C7.13862 6.37731 7.33555 6.94346 7.82785 7.43577V8.34654C7.01555 8.66654 5.39093 9.33115 5.0217 9.725C4.87401 9.89731 4.75093 10.0696 4.65247 10.2419C4.40632 10.1681 4.16016 10.1435 3.88939 10.1435C2.21555 10.1681 0.935547 11.4481 0.935547 13.0235C0.935547 14.5988 2.21555 15.8788 3.79093 15.8788C5.07093 15.8788 6.17862 15.0173 6.52324 13.8112H14.7694C14.9171 13.8112 15.0155 13.7127 15.0155 13.565V11.2512C15.0648 10.7096 14.8679 10.1927 14.4494 9.74961ZM11.7909 8.96192L10.5848 10.5373L10.0432 10.0204L11.4217 8.78961L11.7909 8.96192ZM9.69862 9.70038L8.24632 8.42038V7.85423C8.61555 8.07577 9.08324 8.24808 9.69862 8.24808C10.314 8.24808 10.7817 8.10038 11.1509 7.85423V8.42038L9.69862 9.70038ZM7.08939 1.92192C7.08939 1.74962 7.16324 1.60192 7.31093 1.50346C7.80324 1.15885 8.76324 0.592692 9.69862 0.592692C10.634 0.592692 11.594 1.15885 12.0863 1.50346C12.2094 1.60192 12.3079 1.74962 12.3079 1.92192V3.02962C10.6586 2.21731 8.71401 2.21731 7.08939 3.02962V1.92192ZM12.0863 3.47269H7.2617C8.78785 2.70962 10.5848 2.70962 12.0863 3.47269ZM7.40939 5.93423C7.18785 5.66346 6.74478 5.07269 7.08939 4.94962C7.08939 4.94962 7.11401 4.925 7.13862 4.925C7.2617 4.85115 7.23709 4.72808 7.23709 4.70346L7.18785 3.98962H12.2094C12.1602 4.62962 12.0617 4.87577 12.3079 4.94962C12.6525 5.07269 12.2094 5.66346 11.9879 5.93423C11.9632 5.95885 11.9386 6.00808 11.9386 6.03269C11.914 6.10654 11.5202 7.75577 9.72324 7.75577C7.82785 7.75577 7.48324 6.00808 7.40939 5.93423ZM7.95093 8.81423L9.32939 10.045L8.78786 10.5619L7.5817 8.98654L7.95093 8.81423ZM4.23401 13.0235C4.23401 13.245 4.03709 13.4419 3.81555 13.4419C3.56939 13.4419 3.39709 13.245 3.39709 13.0235C3.39709 12.8019 3.59401 12.605 3.81555 12.605C4.03709 12.605 4.23401 12.7773 4.23401 13.0235ZM1.64939 13.9835C1.52632 13.6881 1.45247 13.3681 1.45247 13.0235C1.45247 11.7927 2.38785 10.7835 3.56939 10.6604V12.1373C3.17555 12.2358 2.90478 12.605 2.90478 13.0235C2.90478 13.0973 2.90478 13.1712 2.92939 13.245L1.64939 13.9835ZM3.81555 15.3865C3.02785 15.3865 2.33862 14.9927 1.89555 14.4019L3.17555 13.6635C3.34785 13.8358 3.56939 13.9342 3.81555 13.9342C4.0617 13.9342 4.28324 13.8358 4.45555 13.6635L5.73555 14.4019C5.29247 14.9927 4.60324 15.3865 3.81555 15.3865ZM5.95709 13.9835L4.67709 13.245C4.7017 13.1712 4.7017 13.0973 4.7017 13.0235C4.7017 12.605 4.40632 12.2604 4.03709 12.1373V10.6604C5.21862 10.7835 6.15401 11.7927 6.15401 13.0235C6.17862 13.3681 6.10478 13.6881 5.95709 13.9835ZM14.5232 13.3188H6.64632C6.64632 13.2204 6.67093 13.1219 6.67093 13.0235C6.67093 11.8912 6.00632 10.9065 5.0217 10.4388C5.09555 10.3158 5.16939 10.1927 5.29247 10.0942C5.51401 9.84808 6.44939 9.42962 7.11401 9.15885L8.56632 11.0542C8.66478 11.1773 8.81247 11.1773 8.93555 11.0788L9.69862 10.365L10.4617 11.0788C10.5848 11.1773 10.7325 11.1527 10.8309 11.0542L12.2832 9.15885C12.9232 9.405 13.8832 9.84808 14.1048 10.0942C14.4248 10.4388 14.5971 10.8327 14.5725 11.2512V13.3188H14.5232Z" fill="#1E866F"/>
<path d="M9.82141 11.4727H9.57526C9.42756 11.4727 9.3291 11.5711 9.3291 11.7188C9.3291 11.8665 9.42756 11.965 9.57526 11.965H9.82141C9.9691 11.965 10.0676 11.8665 10.0676 11.7188C10.0676 11.5711 9.94449 11.4727 9.82141 11.4727ZM9.82141 12.4819H9.57526C9.42756 12.4819 9.3291 12.5803 9.3291 12.728C9.3291 12.8757 9.42756 12.9742 9.57526 12.9742H9.82141C9.9691 12.9742 10.0676 12.8757 10.0676 12.728C10.0676 12.5803 9.94449 12.4819 9.82141 12.4819Z" fill="#1E866F"/>
</svg>
