<svg id="Layer_1" data-name="Layer 1" xmlns="http://www.w3.org/2000/svg" viewBox="0 0 629.9 608.92"><path d="M370,359.79c19.43-20,42.23-33.05,68.94-39.35,76.21-18,153.68,34.12,165.7,111.55,11.72,75.49-38.05,145.32-113.19,157.27-45.27,7.2-85-5.82-118.08-37.73-4.44-4.27-8.57-5.87-14.66-5.85q-131.6.57-263.18.63c-17.87,0-35.74.1-53.61,0-8.74,0-13.66-4.74-13.55-13.33,1-74,28.65-135.23,89-179.44,73-53.5,175.09-52,247.41,2.33C366.31,357.09,367.92,358.27,370,359.79ZM349.83,520.87c-12.22-23.09-18-46.59-17.13-71.54a138,138,0,0,1,21.65-69.53c-50.17-42-128.94-54.68-196-22.14C85,393.28,54.71,466.85,54.2,520.87ZM469,566.09c61.37.4,112.12-49.44,112.54-110.51.42-62.61-49-113.11-111.3-113.65-61.28-.53-112.33,49.38-112.82,110.3C356.92,515.26,406.33,565.68,469,566.09Z"/><path d="M239.13,21.42A131.77,131.77,0,0,1,370.69,153.35c-.11,72.65-59.44,131.76-132,131.48S107.52,225.66,107.4,153.18,166.56,21.28,239.13,21.42ZM345.67,153.09c0-58.91-47.52-106.62-106.19-106.72-59.2-.11-107.37,48-107.24,107.1.13,58.66,47.93,106.28,106.69,106.28A106.34,106.34,0,0,0,345.67,153.09Z"/><path d="M451.32,465c19.61-15.94,38.56-31.4,57.6-46.77a22.83,22.83,0,0,1,7.13-4.26,12.24,12.24,0,0,1,11.3,21c-6.47,5.69-13.28,11-20,16.46q-23.79,19.39-47.61,38.76c-8.29,6.72-14.3,6.19-21.26-1.86q-13.58-15.71-27-31.59c-5.75-6.84-5.43-14.24.54-19.07,5.63-4.55,12.86-3.4,18.5,3.1C437.41,448.67,444.13,456.61,451.32,465Z"/></svg>