<svg xmlns="http://www.w3.org/2000/svg" width="22.713" height="22.856" viewBox="0 0 22.713 22.856"><g transform="translate(-134.418 -306.405)"><g transform="translate(134.568 306.552)"><path d="M-389.608,427.142c0-.276,0-.512,0-.749a1.482,1.482,0,0,1,1.547-1.545q2.22-.013,4.441,0a1.48,1.48,0,0,1,1.549,1.566c0,.229,0,.458,0,.728h.264c.9,0,1.8,0,2.7,0a2.016,2.016,0,0,1,2.1,2.081c0,.54.008,1.08,0,1.62a1.976,1.976,0,0,1-1.145,1.83.3.3,0,0,0-.184.319q.006,2.871,0,5.742a2.386,2.386,0,0,1,0,.245.33.33,0,0,1-.341.319.339.339,0,0,1-.383-.3,1.385,1.385,0,0,1-.008-.245q0-2.736,0-5.472v-.239l-4.954.7c0,.353,0,.743,0,1.134,0,.589-.261.847-.856.848-.654,0-1.308,0-1.963,0a.723.723,0,0,1-.8-.786c0-.2,0-.393,0-.589s0-.392,0-.564l-4.949-.7v.247q0,2.4,0,4.81c0,.408-.108.572-.373.569s-.368-.165-.368-.575c0-1.685,0-3.37,0-5.055a.372.372,0,0,0-.226-.4,1.891,1.891,0,0,1-1.088-1.636,15.149,15.149,0,0,1,0-2.059,1.982,1.982,0,0,1,2.045-1.846c.9,0,1.8,0,2.7,0Zm1.956,5.815c0-.221,0-.391,0-.561a.719.719,0,0,1,.776-.784q1.043-.007,2.085,0a.706.706,0,0,1,.759.77c0,.167,0,.334,0,.507.09,0,.139,0,.187,0a34.855,34.855,0,0,0,5.061-.76,1.285,1.285,0,0,0,1.033-1.315c0-.507,0-1.014,0-1.521a1.307,1.307,0,0,0-1.4-1.413q-6.709.019-13.418.043a1.3,1.3,0,0,0-1.363,1.353c-.007.523-.006,1.047,0,1.57a1.281,1.281,0,0,0,1.085,1.346c1.089.213,2.183.408,3.28.578C-388.949,432.865-388.32,432.894-387.652,432.957Zm-1.2-5.831h6.039c0-.218,0-.421,0-.624,0-.649-.269-.916-.927-.916h-3.357c-.335,0-.67-.007-1,0a.711.711,0,0,0-.743.583A9.03,9.03,0,0,0-388.848,427.126Zm1.984,7.8h2.074v-2.518h-2.074Z" transform="translate(397.44 -424.841)" fill="#727380" stroke="#727380" stroke-width="0.3"/><path d="M-435.966,651.962h1.505V646.93h-1.5c0,.689,0,1.367,0,2.045,0,.221.009.442-.005.662a.348.348,0,0,1-.374.341.341.341,0,0,1-.355-.359q-.007-1.546,0-3.092a.328.328,0,0,1,.358-.353q1.153-.011,2.306,0a.343.343,0,0,1,.359.358c.008.094.01.189.015.284l.07.046a6.541,6.541,0,0,0,.676-.782,3.156,3.156,0,0,1,2.314-1.444,7.909,7.909,0,0,1,4.206.665c1.177.462,2.357.924,3.561,1.308a15.832,15.832,0,0,0,2.3.472,1.629,1.629,0,0,1,1.343.972,1.186,1.186,0,0,1-.885,1.72,16.293,16.293,0,0,1-2.171.159,13.656,13.656,0,0,1-3.516-.45.388.388,0,0,1-.332-.462.387.387,0,0,1,.513-.243,15.2,15.2,0,0,0,3.885.454,11.185,11.185,0,0,0,1.529-.176c.269-.042.357-.207.323-.481a.779.779,0,0,0-.658-.7c-.6-.134-1.2-.231-1.8-.369a26.991,26.991,0,0,1-4.331-1.471,7.828,7.828,0,0,0-3.133-.71,3.2,3.2,0,0,0-1.792.4,2.388,2.388,0,0,0-.665.632,4.536,4.536,0,0,1-1.273,1.275.442.442,0,0,0-.216.436c.007,1.366,0,2.732,0,4.1,0,.45-.1.548-.547.548-.654,0-1.308,0-1.963,0-.374,0-.481-.112-.483-.483,0-.27-.005-.54,0-.81a.335.335,0,0,1,.365-.368.344.344,0,0,1,.368.37C-435.959,651.6-435.966,651.769-435.966,651.962Z" transform="translate(436.704 -630.159)" fill="#727380" stroke="#727380" stroke-width="0.3"/><path d="M-378.7,649.012a8.181,8.181,0,0,1,3.569.847,6.021,6.021,0,0,0,6.669-.739c1.355-1.026,2.53-2.291,3.783-3.451.27-.25.537-.5.8-.765a.623.623,0,0,0,.172-.735.837.837,0,0,0-1.155-.234,10.641,10.641,0,0,1-2.33,1.482,1.323,1.323,0,0,1-.156.07.356.356,0,0,1-.469-.195.356.356,0,0,1,.188-.474c.217-.113.448-.2.653-.336.541-.35,1.078-.708,1.6-1.081a1.6,1.6,0,0,1,2.067.116,1.256,1.256,0,0,1,.105,1.768,47.844,47.844,0,0,1-5.271,4.839,6.065,6.065,0,0,1-3.034,1.069,5.84,5.84,0,0,1-2.6-.092,10.654,10.654,0,0,1-1.155-.466,8.209,8.209,0,0,0-3.519-.847,4.768,4.768,0,0,0-2.288.547.383.383,0,0,1-.572-.122c-.113-.2-.037-.409.21-.544A5.566,5.566,0,0,1-378.7,649.012Z" transform="translate(385.301 -628.771)" fill="#727380" stroke="#727380" stroke-width="0.3"/></g></g></svg>