<svg xmlns="http://www.w3.org/2000/svg" width="17.765" height="15.654" viewBox="0 0 17.765 15.654">
    <path data-name="Path 68495" d="M9.383 67.56h9.087a.451.451 0 0 1 .445.458v1.09h1.48a3.519 3.519 0 0 1 3.457 3.561V82.3h.987a.458.458 0 0 1 0 .915H7.951a.458.458 0 0 1 0-.915h.987V68.018a.451.451 0 0 1 .445-.458zm10.671 6.2a.458.458 0 0 1 0-.915h1.77a.458.458 0 0 1 0 .915zm0 4.576a.458.458 0 0 1 0-.915h1.77a.458.458 0 0 1 0 .915zm0-3.051a.458.458 0 0 1 0-.915h1.77a.458.458 0 0 1 0 .915zm0 1.525a.458.458 0 0 1 0-.915h1.77a.458.458 0 0 1 0 .915zm-8.348-3.579h4.442a1.192 1.192 0 0 1 0 2.383h-4.443a1.192 1.192 0 0 1 0-2.383zm4.442.915h-4.443a.276.276 0 0 0 0 .552h4.442a.276.276 0 0 0 0-.552zM14.734 82.3v-2.29h-1.615v2.29zm-2.5 0v-2.75a.451.451 0 0 1 .444-.458h2.5a.451.451 0 0 1 .444.458v2.75h2.4V68.475h-8.2V82.3zm-.525-12.283h4.442a1.192 1.192 0 0 1 0 2.383h-4.446a1.192 1.192 0 0 1 0-2.383zm4.442.915h-4.446a.276.276 0 0 0 0 .552h4.442a.276.276 0 0 0 0-.552zm2.767-.908V82.3h4.048v-9.632a2.616 2.616 0 0 0-2.568-2.645z" transform="translate(-7.513 -67.56)" style="fill:#1e866f"/>
</svg>
