<svg xmlns="http://www.w3.org/2000/svg" width="18" height="18" viewBox="0 0 18 18">
    <path d="M14.869 12.16a1.9 1.9 0 0 1-.186.812 3.072 3.072 0 0 1-.506.76 3.357 3.357 0 0 1-1.221.879 3.739 3.739 0 0 1-1.452.283 6.2 6.2 0 0 1-2.427-.544 13.078 13.078 0 0 1-2.561-1.474 21.407 21.407 0 0 1-2.443-2.086A21.157 21.157 0 0 1 2 8.355a13.275 13.275 0 0 1-1.464-2.54A6.272 6.272 0 0 1 0 3.381a3.852 3.852 0 0 1 .268-1.438A3.427 3.427 0 0 1 1.124.7 2.182 2.182 0 0 1 2.673 0a1.4 1.4 0 0 1 .6.134 1.214 1.214 0 0 1 .5.417L5.5 2.986a2.548 2.548 0 0 1 .3.521 1.177 1.177 0 0 1 .1.454 1.011 1.011 0 0 1-.156.529 2.533 2.533 0 0 1-.417.529l-.566.588a.4.4 0 0 0-.119.3.676.676 0 0 0 .022.171c.022.06.045.1.06.149a6.179 6.179 0 0 0 .692.953c.335.387.692.782 1.08 1.177s.789.76 1.184 1.095a5.714 5.714 0 0 0 .96.685c.037.015.082.037.134.06a.514.514 0 0 0 .186.03.41.41 0 0 0 .31-.127l.566-.558a2.285 2.285 0 0 1 .536-.417.991.991 0 0 1 .529-.156 1.188 1.188 0 0 1 .454.1 2.88 2.88 0 0 1 .521.29L14.34 11.1a1.129 1.129 0 0 1 .41.477 1.528 1.528 0 0 1 .119.583z" transform="translate(1.554 1.554)" style="stroke:#8e92a5;stroke-width:1.5px;fill:none" data-name="call"/>
</svg>
