<svg xmlns="http://www.w3.org/2000/svg" width="90.769" height="90.769" viewBox="0 0 90.769 90.769"><g transform="translate(0 0)"><g transform="translate(0 0)"><path d="M39.058,0A39.058,39.058,0,1,0,78.116,39.058,39.122,39.122,0,0,0,39.058,0Zm18.67,30.075L35.582,52.221a2.923,2.923,0,0,1-4.14,0L20.388,41.167a2.928,2.928,0,1,1,4.14-4.14l8.983,8.983L53.588,25.935a2.928,2.928,0,1,1,4.14,4.14Z" transform="translate(6.326 6.326)" fill="#30cc4d"/><path d="M0,0H90.769V90.769H0Z" transform="translate(90.769 90.769) rotate(180)" fill="none" opacity="0"/></g></g></svg>