<svg width="76" height="79" viewBox="0 0 76 79" fill="none" xmlns="http://www.w3.org/2000/svg">
<path d="M75.4859 29.1735V17.0261C75.4803 12.2498 71.6094 8.37883 66.8331 8.37346H64.5547V7.0072C64.5349 3.13089 61.387 0 57.511 0C53.635 0 50.4879 3.13073 50.467 7.0072V8.3733H25.0188V7.00736C24.9991 3.13089 21.851 0 17.9752 0C14.0993 0 10.9522 3.13073 10.931 7.0072V8.3733H8.65214C3.87631 8.37883 0.00536841 12.2498 0 17.0261V70.0971C0.00552631 74.8734 3.87631 78.7443 8.65214 78.7498H66.8331C71.6094 78.7443 75.4803 74.8735 75.4857 70.0972V30.4223C75.6226 30.0173 75.6226 29.5784 75.4857 29.1734L75.4859 29.1735ZM57.5112 3.90236C59.2245 3.90473 60.6128 5.29262 60.6147 7.0072V11.1556C60.6018 12.8597 59.2153 14.2345 57.5099 14.2345C55.8051 14.2345 54.4193 12.8597 54.4057 11.1556V7.00736C54.4076 5.29262 55.7966 3.90426 57.5112 3.90236ZM14.8696 7.0072C14.8831 5.30194 16.2691 3.92699 17.9738 3.92699C19.6792 3.92699 21.0645 5.30178 21.0788 7.0072V11.1556C21.0645 12.8597 19.6792 14.2345 17.9739 14.2345C16.2691 14.2345 14.8831 12.8597 14.8697 11.1556L14.8696 7.0072ZM8.65214 12.3126H11.0272C11.5934 15.7086 14.5312 18.198 17.9741 18.198C21.4174 18.198 24.3552 15.7086 24.9214 12.3126H50.5638C51.13 15.7086 54.0683 18.198 57.5112 18.198C60.954 18.198 63.8923 15.7086 64.4579 12.3126H66.8331C69.4352 12.3158 71.5434 14.424 71.5466 17.0261V27.8276H3.93931V17.0267C3.94168 14.4246 6.0513 12.3158 8.65214 12.3126ZM66.8331 74.8104H8.65214C6.05115 74.8074 3.94231 72.6993 3.93931 70.0972V31.7668H71.5466V70.0972C71.5434 72.6993 69.4352 74.8075 66.8331 74.8107V74.8104Z" fill="#1E866F"/>
<path d="M47.5422 44.2345L34.611 56.8605L28.046 50.4505C27.2725 49.6948 26.0352 49.7036 25.2729 50.4694C24.5106 51.2362 24.5081 52.4734 25.2668 53.2425L25.2939 53.2684L33.2355 61.0231C34.0004 61.7699 35.2222 61.7699 35.987 61.0231L50.2949 47.0545C51.0666 46.2958 51.0819 45.056 50.3295 44.2784C49.5757 43.5012 48.3366 43.4779 47.5534 44.2247L47.5424 44.2351L47.5422 44.2345Z" fill="#1E866F"/>
</svg>
