<svg xmlns="http://www.w3.org/2000/svg" width="18" height="18" viewBox="0 0 18 18">
    <path d="m5.307.174-3.74 1.41A2.6 2.6 0 0 0 0 3.841v5.571a3.646 3.646 0 0 0 1.3 2.579L4.52 14.4a3.411 3.411 0 0 0 3.853 0l3.227-2.409a3.646 3.646 0 0 0 1.3-2.579V3.841a2.6 2.6 0 0 0-1.567-2.264L7.586.174a3.81 3.81 0 0 0-2.279 0z" transform="translate(2.561 1.5)" style="stroke:#8e92a5;stroke-linecap:round;stroke-linejoin:round;fill:none"/>
    <path data-name="Vector" d="M3 1.5A1.5 1.5 0 1 1 1.5 0 1.5 1.5 0 0 1 3 1.5z" transform="translate(7.498 6.373)" style="stroke:#8e92a5;stroke-linecap:round;stroke-linejoin:round;fill:none"/>
    <path data-name="Vector" d="M0 0v2.253" transform="translate(9 9.373)" style="stroke:#8e92a5;stroke-linecap:round;stroke-linejoin:round;fill:none"/>
</svg>
