<svg xmlns="http://www.w3.org/2000/svg" width="18" height="18" viewBox="0 0 18 18">
    <path d="M11.181 13.363H3.727C.745 13.363 0 12.62 0 9.651V3.712C0 .742.745 0 3.727 0h7.454c2.982 0 3.727.742 3.727 3.712v5.939c0 2.969-.745 3.712-3.727 3.712z" transform="translate(1.546 2.319)" style="stroke:#8e92a5;stroke-linecap:round;stroke-linejoin:round;fill:none"/>
    <path data-name="Vector" d="M0 0h3.864" transform="translate(10.416 6)" style="stroke:#8e92a5;stroke-linecap:round;stroke-linejoin:round;fill:none"/>
    <path data-name="Vector" d="M0 0h3.092" transform="translate(11.181 9)" style="stroke:#8e92a5;stroke-linecap:round;stroke-linejoin:round;fill:none"/>
    <path data-name="Vector" d="M0 0h1.546" transform="translate(12.715 12)" style="stroke:#8e92a5;stroke-linecap:round;stroke-linejoin:round;fill:none"/>
    <path data-name="Vector" d="M2.8 1.4A1.4 1.4 0 1 1 1.4 0a1.4 1.4 0 0 1 1.4 1.4z" transform="translate(4.99 5.721)" style="stroke:#8e92a5;stroke-linecap:round;stroke-linejoin:round;fill:none"/>
    <path data-name="Vector" d="M5.41 2.131A2.334 2.334 0 0 0 3.293.029a5.967 5.967 0 0 0-1.175 0A2.341 2.341 0 0 0 0 2.131" transform="translate(3.703 10.139)" style="stroke:#8e92a5;stroke-linecap:round;stroke-linejoin:round;fill:none"/>
</svg>
