<svg width="330" height="304" viewBox="0 0 330 304" fill="none" xmlns="http://www.w3.org/2000/svg">
<g clip-path="url(#clip0_304_99)">
<path d="M1.94336 255.202L42.9873 255.084L83.9723 255.025L166.001 254.907L247.971 255.025L289.015 255.084L330 255.202L289.015 255.378L247.971 255.437L166.001 255.496L83.9723 255.437L42.9873 255.378L1.94336 255.202Z" fill="#263238"/>
<path d="M31.9166 216.69C32.1521 210.978 32.0344 205.266 31.681 199.612C30.9155 187.894 28.9723 176.234 26.3224 164.752C24.8502 158.333 22.9658 151.973 21.0815 145.614C21.0226 145.437 20.7282 145.496 20.787 145.672C26.7346 167.99 31.5633 191.015 31.2688 214.216C31.1511 220.694 30.4444 227.112 29.7967 233.531C29.7967 233.708 30.0911 233.767 30.0911 233.59C31.2688 228.113 31.681 222.343 31.9166 216.69Z" fill="#EBEBEB"/>
<path d="M20.787 145.731C20.787 145.731 11.8362 168.52 13.8384 173.879C15.8405 179.238 20.0214 180.356 20.0214 180.356C20.0214 180.356 14.545 188.188 18.3726 195.549C22.2002 202.91 30.7388 202.557 31.3276 210.919C31.2099 210.919 31.681 176.058 20.787 145.731Z" fill="#EBEBEB"/>
<path d="M30.2677 196.492C30.2677 196.433 30.2677 196.433 30.2677 196.374C29.031 180.887 26.2634 165.458 21.5525 150.56C21.5525 150.501 21.4936 150.501 21.4936 150.56C23.2602 157.214 24.8501 163.927 26.2045 170.64C25.0268 169.463 23.4957 168.756 21.9058 168.226C21.8469 168.226 21.8469 168.285 21.9058 168.285C23.5546 168.992 25.1445 169.816 26.3223 171.229C26.5578 172.525 26.8522 173.879 27.0878 175.175C25.0856 172.937 22.318 171.818 19.4914 170.758C19.4325 170.758 19.4325 170.817 19.4914 170.817C22.3769 171.995 25.2623 173.526 27.2645 175.999C27.9711 179.768 28.56 183.595 29.0899 187.364C27.6178 185.833 25.7923 184.773 23.7313 184.302C23.6724 184.302 23.6135 184.361 23.6724 184.42C25.7923 185.009 27.6178 186.245 29.0899 187.894C29.0899 187.894 29.0899 187.894 29.1488 187.894C29.3255 189.248 29.5021 190.603 29.6788 191.898C28.56 190.956 27.3233 190.191 25.9101 189.661C25.8512 189.661 25.8512 189.72 25.9101 189.72C27.3233 190.308 28.56 191.192 29.6788 192.193H29.7377C29.9143 193.488 30.0321 194.725 30.1499 196.02C28.0889 193.547 25.5567 191.722 22.5535 190.603C22.4946 190.603 22.4358 190.662 22.4946 190.721C25.439 192.016 28.03 194.018 29.9732 196.492C30.0321 196.55 30.091 196.55 30.1499 196.55C30.3266 198.494 30.5032 200.496 30.6799 202.439C30.6799 202.439 30.7388 202.498 30.7388 202.439C30.5621 200.555 30.4443 198.553 30.2677 196.492Z" fill="white"/>
<path d="M23.0247 166.047C21.4937 164.987 19.4915 164.516 17.6072 164.339C17.5483 164.339 17.5483 164.398 17.6072 164.398C19.5504 164.693 21.1403 165.399 22.9658 166.165C23.0247 166.165 23.0836 166.047 23.0247 166.047Z" fill="white"/>
<path d="M24.1435 190.132C22.9069 189.366 21.4936 188.954 20.0803 188.719C20.0214 188.719 20.0214 188.777 20.0803 188.777C21.4936 189.013 22.7891 189.543 24.0846 190.191C24.1435 190.25 24.2024 190.191 24.1435 190.132Z" fill="white"/>
<path d="M55.53 174.232C51.7613 176.882 48.1692 179.885 45.166 183.301C41.9272 186.952 39.5129 191.074 37.864 195.667C34.4486 205.089 32.6231 215.217 32.4465 225.228C32.3287 230.822 32.8587 236.358 34.0364 241.834C34.0953 242.011 34.3897 241.952 34.3308 241.775C32.8587 232.177 32.9176 222.343 34.5075 212.744C36.0386 203.322 38.4529 193.076 44.4593 185.421C47.6981 181.24 51.7613 177.942 55.8244 174.586C56.0011 174.409 55.7067 174.115 55.53 174.232Z" fill="#EBEBEB"/>
<path d="M33.7419 218.456C33.7419 218.456 36.804 213.274 41.3383 208.799C45.8137 204.323 49.6413 201.143 50.1713 198.14C50.7601 195.196 45.6959 192.958 45.6959 192.958C45.6959 192.958 51.9379 194.077 53.5867 191.486C55.2944 188.895 56.1188 173.761 56.1188 173.761C56.1188 173.761 44.8126 181.829 39.5128 193.135C34.2719 204.441 33.7419 218.456 33.7419 218.456Z" fill="#EBEBEB"/>
<path d="M52.1735 177.648C47.4037 182.3 42.6339 187.305 39.8073 193.429C38.8651 195.549 38.0407 197.728 37.3341 199.966C37.2163 200.437 37.0396 200.849 36.9219 201.32V201.379C35.5086 205.972 34.5664 210.683 33.6831 215.335C33.6831 215.394 33.742 215.394 33.742 215.335C34.2131 212.98 34.7431 210.624 35.3908 208.21H35.4497C36.3919 207.798 37.393 207.562 38.394 207.444C38.4529 207.444 38.4529 207.326 38.394 207.326C37.393 207.385 36.3919 207.562 35.4497 207.856C35.9797 205.737 36.5685 203.558 37.2752 201.497C39.454 200.967 41.7506 200.672 43.9882 200.613V200.555C41.7506 200.437 39.5718 200.672 37.393 201.143C37.5107 200.79 37.6285 200.437 37.7463 200.083C39.2184 199.73 40.6906 199.495 42.2216 199.318V199.259C40.7495 199.318 39.2773 199.436 37.864 199.789C38.4529 197.964 39.1595 196.197 39.8662 194.43C40.4551 192.958 41.2206 191.604 41.9861 190.308C43.2227 190.014 44.3416 189.778 45.5782 189.661C45.6371 189.661 45.6371 189.602 45.5782 189.602C44.4593 189.543 43.2816 189.602 42.2216 189.955C42.8105 189.013 43.4583 188.071 44.106 187.128C46.6381 186.54 49.2291 186.068 51.8201 186.54C51.879 186.54 51.879 186.481 51.8201 186.481C49.3469 185.833 46.8737 186.186 44.4593 186.716C44.7538 186.363 44.9893 186.01 45.2837 185.656C46.8148 185.185 48.4047 184.95 49.9947 184.891C50.0536 184.891 50.0536 184.832 49.9947 184.832C48.5225 184.714 46.9915 184.832 45.5782 185.244C47.6981 182.653 49.9947 180.18 52.2912 177.765C52.409 177.589 52.2912 177.53 52.1735 177.648Z" fill="white"/>
<path d="M52.0557 187.953C51.2902 187.894 50.5835 187.776 49.818 187.894C49.7002 187.894 49.7591 188.071 49.818 188.071C50.5835 188.071 51.2902 188.012 52.0557 188.071C52.1146 188.012 52.1146 187.953 52.0557 187.953Z" fill="white"/>
<path d="M43.9294 202.557C42.7517 202.557 41.5739 202.851 40.4551 203.263V203.322C41.6328 203.028 42.7517 202.91 43.9294 202.733C44.0472 202.733 44.0472 202.616 43.9294 202.557Z" fill="white"/>
<path d="M41.456 197.551C40.9849 197.551 40.455 197.61 39.9839 197.669C39.925 197.669 39.925 197.728 39.9839 197.728C40.455 197.728 40.9849 197.728 41.456 197.669C41.5738 197.669 41.5738 197.551 41.456 197.551Z" fill="white"/>
<path d="M0.588939 190.249C4.2399 191.486 7.83198 193.135 11.0707 195.196C14.545 197.375 17.4305 200.201 19.8448 203.499C24.7913 210.33 28.6189 218.103 31.0921 226.17C32.4465 230.704 33.3298 235.298 33.6243 240.009C33.6243 240.185 33.3887 240.185 33.3887 240.009C32.3288 231.882 30.0322 223.933 26.5579 216.513C23.1425 209.27 18.7849 201.497 12.1896 196.668C8.5975 194.018 4.53433 192.31 0.471166 190.544C0.23562 190.485 0.353393 190.191 0.588939 190.249Z" fill="#EBEBEB"/>
<path d="M28.4422 221.047C28.4422 221.047 24.7323 217.573 20.0803 214.982C15.4283 212.391 11.6006 210.683 10.4229 208.387C9.24518 206.09 12.8961 203.146 12.8961 203.146C12.8961 203.146 8.12634 205.501 6.1242 203.793C4.18094 202.027 0 190.014 0 190.014C0 190.014 11.0118 193.959 17.9015 201.85C24.7912 209.8 28.4422 221.047 28.4422 221.047Z" fill="#EBEBEB"/>
<path d="M27.8534 218.515C22.3181 208.151 15.0161 198.788 4.94653 192.664C7.59643 194.372 10.0697 196.315 12.3073 198.435C10.2463 198.376 8.18529 198.729 6.35981 199.671C6.30092 199.671 6.35981 199.73 6.4187 199.73C8.42084 199.024 10.3641 198.611 12.484 198.729C12.5429 198.729 12.5429 198.729 12.5429 198.729C12.8962 199.082 13.2495 199.436 13.6028 199.789C12.5429 199.848 11.4829 199.966 10.423 200.201V200.26C11.5418 200.025 12.6607 199.966 13.7795 199.966C15.605 201.791 17.3716 203.793 18.9615 205.854C18.2549 205.737 17.4305 205.796 16.7238 206.031C16.6649 206.031 16.6649 206.149 16.7238 206.09C17.5482 205.972 18.3138 206.031 19.0793 206.031C19.3737 206.443 19.6682 206.797 19.9626 207.209C17.7249 207.091 15.4872 207.268 13.2495 207.857C13.1906 207.857 13.2495 207.915 13.2495 207.915C15.5461 207.444 17.7838 207.327 20.1393 207.444C20.4337 207.798 20.6692 208.21 20.9637 208.563C19.6093 208.504 18.3138 208.681 16.9594 209.034C16.9005 209.034 16.9005 209.152 16.9594 209.093C18.3138 208.799 19.6682 208.681 21.0814 208.799C22.2592 210.448 23.378 212.096 24.4969 213.804C23.908 213.686 23.3191 213.745 22.7303 213.922C22.6714 213.922 22.7303 213.981 22.7303 213.981C23.378 213.922 23.9669 213.981 24.6146 214.099C25.6157 215.63 26.5579 217.161 27.4412 218.692C27.7356 218.751 27.9123 218.692 27.8534 218.515Z" fill="white"/>
<path d="M19.3149 209.977C18.2549 209.859 17.1361 210.035 16.135 210.389V210.448C17.195 210.271 18.2549 210.153 19.3149 210.094C19.3738 210.094 19.3738 209.977 19.3149 209.977Z" fill="white"/>
<path d="M9.65744 197.375C9.18635 197.316 8.65637 197.375 8.18528 197.434C8.12639 197.434 8.12639 197.551 8.18528 197.493C8.65637 197.434 9.12746 197.434 9.65744 197.434C9.77521 197.493 9.77521 197.375 9.65744 197.375Z" fill="white"/>
<path d="M42.6338 255.201H17.7837L21.3169 229.232L22.2002 222.578H38.2173L39.1006 229.232L42.6338 255.201Z" fill="#DBDBDB"/>
<path d="M39.1006 229.232H21.3169L22.2002 222.578H38.2173L39.1006 229.232Z" fill="#C7C7C7"/>
<path d="M40.5138 220.281H19.9624V225.935H40.5138V220.281Z" fill="#DBDBDB"/>
<path opacity="0.36" d="M124.353 81.0508C115.308 94.7574 124.783 134.316 126.248 139.955C126.248 140.302 126.42 140.562 126.592 140.909C127.195 142.037 128.143 142.731 129.349 143.164C136.24 146.981 152.607 149.757 158.896 150.712L157.948 154.442C157.948 154.442 134.431 151.319 125.817 146.548C124.611 146.114 123.664 145.42 123.061 144.292C122.888 143.945 122.716 143.685 122.716 143.338C121.166 137.179 109.795 89.5524 124.353 81.0508Z" fill="#D6D6D6"/>
</g>
<path d="M156.328 27.8176C155.937 27.6222 155.611 27.2313 155.611 26.7752L155.351 20.716C155.351 20.3251 155.481 19.9993 155.807 19.7387C156.132 19.4781 156.458 19.413 156.849 19.4781C157.826 19.7387 158.869 19.4781 159.781 18.8917C160.628 18.3705 161.149 17.5235 161.279 16.6766C161.41 15.8296 161.149 14.8523 160.563 14.0704C159.911 13.2235 158.934 12.6371 158.022 12.5068C156.067 12.3113 153.917 13.8098 153.396 15.7644C153.201 16.4159 152.549 16.8069 151.897 16.6114C151.246 16.4159 150.855 15.7644 151.05 15.1129C151.897 11.9856 155.155 9.70522 158.282 10.031C159.911 10.2264 161.475 11.1386 162.517 12.5068C163.495 13.8098 163.951 15.4387 163.69 17.0023C163.429 18.5008 162.517 19.9342 161.149 20.8463C160.172 21.4978 158.999 21.8888 157.826 21.9539L158.022 26.6449C158.022 27.2964 157.501 27.8828 156.849 27.8828C156.719 27.8828 156.523 27.8828 156.328 27.8176Z" fill="#FFB92B"/>
<path d="M158.152 30.2278C158.217 30.749 157.761 31.2703 157.24 31.2703C156.719 31.3354 156.197 30.8793 156.197 30.3581C156.132 29.8369 156.588 29.3157 157.11 29.3157C157.631 29.3157 158.087 29.7066 158.152 30.2278Z" fill="#FFB92B"/>
<path d="M179 19.8796C179 19.8796 179 19.758 178.939 19.5149C178.939 19.2718 178.878 18.9072 178.818 18.421C178.818 17.9348 178.696 17.3879 178.514 16.6586C178.453 16.2939 178.392 15.9293 178.271 15.5647C178.149 15.2 178.028 14.7746 177.906 14.3492C177.298 12.6475 176.387 10.5812 174.867 8.57571C173.348 6.57019 171.221 4.56466 168.486 3.04533C167.149 2.25527 165.569 1.70831 163.989 1.16135C162.348 0.796706 160.586 0.432065 158.823 0.492839C157.912 0.432065 157 0.553612 156.088 0.675159C155.602 0.735933 155.177 0.85748 154.691 0.918253C154.204 0.979027 153.779 1.10057 153.293 1.28289C151.409 1.76908 149.586 2.61991 147.884 3.77461C144.42 5.96245 141.442 9.54809 139.862 13.863C139.072 16.0509 138.646 18.421 138.646 20.7912C138.586 23.2221 139.072 25.6531 139.923 27.9017L140.227 28.5702L140.287 28.6917L140.227 28.7525C138.707 32.2774 137.188 35.6807 135.729 39.0232L135.486 38.7194C138.646 37.5039 141.685 36.3492 144.602 35.1945L144.724 35.1337L144.785 35.1945C147.337 37.6254 150.315 39.2663 153.354 40.1779C156.392 41.0288 159.492 41.0895 162.287 40.6033C165.083 40.1172 167.635 39.0232 169.762 37.6254C171.889 36.2276 173.591 34.5868 174.867 32.8243C176.144 31.1227 176.994 29.2995 177.663 27.7194C178.21 26.0785 178.575 24.6807 178.757 23.4652C178.818 22.8575 178.878 22.3713 178.939 21.8851C178.939 21.4597 178.939 21.0343 178.939 20.7304C178.939 20.4265 178.939 20.1834 178.939 20.0011C179 19.9404 179 19.8796 179 19.8796C179 19.8796 179 19.9404 179 20.1227C179 20.305 179 20.5481 179 20.852C179 21.1558 179 21.5812 179 22.0067C178.939 22.4928 178.878 22.979 178.818 23.5868C178.696 24.8022 178.331 26.2608 177.785 27.9017C177.177 29.4818 176.326 31.305 174.989 33.0674C173.652 34.8299 171.95 36.5315 169.823 37.9293C167.696 39.3271 165.144 40.4818 162.287 40.968C159.431 41.5149 156.331 41.4542 153.171 40.6033C150.072 39.7525 146.972 38.0509 144.42 35.5591L144.602 35.6199C141.685 36.7746 138.646 37.9293 135.486 39.1448L135 39.3271L135.182 38.8409C136.641 35.4984 138.099 32.0343 139.619 28.5702V28.7525L139.315 28.0232C138.464 25.6531 137.978 23.1613 138.039 20.7304C138.039 18.2995 138.464 15.8685 139.254 13.6199C141.077 9.18345 144.055 5.53704 147.641 3.28842C149.403 2.1945 151.287 1.28289 153.171 0.796706C153.657 0.614386 154.144 0.553612 154.569 0.432065C155.055 0.371292 155.541 0.249745 155.967 0.188971C156.939 0.128198 157.851 0.00665084 158.762 0.00665084C160.586 -0.0541226 162.348 0.310518 164.05 0.735933C165.691 1.22212 167.271 1.82986 168.608 2.61991C171.403 4.20002 173.53 6.20555 175.05 8.27184C176.569 10.3381 177.481 12.4044 178.028 14.1669C178.149 14.5923 178.271 15.0177 178.392 15.3823C178.514 15.747 178.575 16.1724 178.635 16.4763C178.757 17.1448 178.878 17.7525 178.878 18.2387C178.939 18.7249 178.939 19.0895 178.939 19.3326C179 19.758 179 19.8796 179 19.8796Z" fill="#263238"/>
<path d="M208 142.018L170.928 144.3L168 96.7223L195.513 95L205.632 103.482L208 142.018Z" fill="#EBEBEB"/>
<path d="M195.513 95L205.632 103.482L196.073 104.085L195.513 95Z" fill="#DBDBDB"/>
<path d="M185.266 127.034L185.137 125.958C184.749 123.719 185.352 121.264 187.289 118.638C189.012 116.356 189.959 114.677 189.873 112.782C189.744 110.672 188.366 109.338 185.739 109.424C184.232 109.51 182.596 110.113 181.606 110.931L180.443 108.39C181.735 107.314 184.103 106.539 186.299 106.41C191.078 106.151 193.404 108.95 193.576 112.136C193.748 114.935 192.284 117.088 190.433 119.542C188.71 121.781 188.151 123.676 188.409 125.785L188.495 126.862L185.266 127.034ZM184.663 132.89C184.577 131.34 185.567 130.22 186.988 130.134C188.452 130.048 189.485 131.081 189.571 132.588C189.658 134.052 188.753 135.215 187.246 135.301C185.782 135.387 184.749 134.354 184.663 132.89Z" fill="#DBDBDB"/>
<path d="M261 115.185L257.662 131.243L255.542 129.168L251.934 131.739L249.137 128.311L242.913 132.822L237.59 123.936L231.681 127.409L229.336 124.161L221.803 128.401L219.548 123.575L224.825 98L253.106 103.864L261 115.185Z" fill="#EBEBEB"/>
<path d="M253.107 103.864L261 115.185L251.167 113.156L253.107 103.864Z" fill="#DBDBDB"/>
<path d="M256.986 134.445L252.114 157.99L214 150.142L218.826 126.777L221.082 131.603L228.614 127.363L230.96 130.611L236.914 127.138L242.236 136.024L248.416 131.513L251.212 134.941L254.821 132.37L256.986 134.445Z" fill="#EBEBEB"/>
<path d="M154.135 136.692C155.341 136.519 164.903 134.697 167.142 135.044C169.382 135.391 177.479 139.468 178.944 141.203C180.408 142.938 177.049 148.056 172.742 146.668C168.434 145.28 167.659 143.285 164.644 143.632C161.629 143.979 161.457 144.76 157.839 143.719C154.221 142.678 150 140.769 150 140.769L154.135 136.692Z" fill="#E3C5AF"/>
<path d="M163.428 132.831L159.12 150.528C159.12 150.528 124.664 145.931 123.802 139.424C123.371 136.388 128.368 136.128 129.315 133.438C130.435 130.229 131.21 125.197 134.139 125.11L163.428 132.831Z" fill="#F0F1F1"/>
<path d="M171.365 146.422L160.337 203.06L158.904 210.475L232.458 210.101C235.761 210.07 238.689 207.141 239.748 202.811L252.802 149.351C253.612 146.049 251.836 142.622 249.344 142.622L174.917 142.715C173.235 142.684 171.802 144.21 171.365 146.422Z" fill="#FFB92B"/>
<g opacity="0.5">
<path d="M171.365 146.422L160.337 203.06L158.904 210.475L232.458 210.101C235.761 210.07 238.689 207.141 239.748 202.811L252.802 149.351C253.612 146.049 251.836 142.622 249.344 142.622L174.917 142.715C173.235 142.684 171.802 144.21 171.365 146.422Z" fill="black"/>
</g>
<path d="M225.385 199.23L217.596 136.486C217.285 133.9 215.228 132 212.798 132L195.726 132.062C194.449 132.062 193.265 132.592 192.361 133.558L184.261 142.187L136.783 142.437C133.885 142.437 131.642 145.209 132.047 148.294L139.275 206.302C139.587 208.857 141.643 210.788 144.042 210.788L226.787 210.633C236.008 210.819 236.88 208.109 236.88 208.109C226.319 210.383 225.385 199.23 225.385 199.23Z" fill="#FFB92B"/>
<g opacity="0.5">
<path d="M189.714 186.676L186.91 189.666L165.414 170.32L168.218 167.329L189.714 186.676Z" fill="white"/>
<path d="M185.758 166.675L188.842 169.447L169.371 190.32L166.287 187.548L185.758 166.675Z" fill="white"/>
</g>
<g clip-path="url(#clip1_304_99)">
<path d="M126.128 74.6175C110.364 81.7311 122.079 131.006 123.802 137.338C125.525 143.671 138.101 141.069 139.738 135.69C141.375 130.398 137.929 126.234 138.36 101.337C138.446 93.4425 132.933 71.5813 126.128 74.6175Z" fill="#F0F1F1"/>
<path d="M116.358 278.395C120.493 282.038 120.493 288.197 136.171 293.402C140.995 295.051 140.737 299.996 140.737 299.996C140.737 299.996 112.051 300.516 110.673 298.174C109.295 295.831 111.362 286.809 113.343 284.901C115.325 282.992 112.137 277.701 116.358 278.395Z" fill="#5E1816"/>
<path d="M140.564 298.694C126.178 300.516 110.242 297.22 110.242 297.22L110.07 299.475C110.07 299.735 110.242 299.996 110.587 300.082L117.133 300.603L117.736 300.256C117.736 300.256 135.826 301.904 140.65 300.95C140.65 300.95 141.081 298.694 140.564 298.694Z" fill="#460702"/>
<path d="M86.7251 280.39C90.86 284.033 91.2907 291.147 106.452 295.745C111.448 297.306 111.017 302.078 111.017 302.078C111.017 302.078 82.3319 302.511 80.9536 300.169C79.5753 297.827 81.6428 288.805 83.624 286.896C85.7776 284.901 82.5903 279.696 86.7251 280.39Z" fill="#5E1816"/>
<path d="M110.931 300.429C100.594 302.598 80.6953 299.128 80.6953 299.128L80.6091 301.21C80.6091 301.47 80.7814 301.731 81.126 301.817L87.6728 302.338L88.2758 301.991C88.2758 301.991 109.208 304.246 111.017 302.685C110.931 302.598 111.362 300.343 110.931 300.429Z" fill="#460702"/>
<path d="M128.418 275.532C128.418 275.532 128.676 284.294 128.763 287.504C128.849 290.713 104.212 293.663 104.298 290.627C104.384 287.59 103.954 279.002 103.954 279.002L128.418 275.532Z" fill="#F0F1F1"/>
<path opacity="0.36" d="M106.107 288.892C106.193 286.636 105.935 281.344 105.849 278.742L103.954 279.002C103.954 279.002 104.384 287.59 104.298 290.627C104.212 293.663 128.849 290.713 128.763 287.504C128.763 287.417 128.763 287.417 128.763 287.33C123.077 289.759 106.021 291.407 106.107 288.892Z" fill="#D6D6D6"/>
<path d="M104.04 276.92C104.04 276.92 102.834 286.115 102.317 289.499C101.886 292.882 75.5268 291.147 76.1298 287.937C76.7328 284.727 77.7665 275.705 77.7665 275.705L104.04 276.92Z" fill="#F0F1F1"/>
<path opacity="0.36" d="M78.025 286.549C78.4557 284.207 79.1448 278.481 79.4894 275.792L77.8527 275.705C77.8527 275.705 76.819 284.727 76.216 287.937C75.613 291.147 101.973 292.882 102.403 289.499C102.403 289.412 102.403 289.325 102.403 289.325C96.3733 290.973 77.5081 289.238 78.025 286.549Z" fill="#D6D6D6"/>
<path d="M126.523 34.1912C126.523 34.1912 131.606 40.177 130.486 50.5003C129.71 57.8741 125.231 67.7637 125.403 70.7132C125.662 73.6628 121.958 75.4845 121.958 75.4845L114.032 74.0965C114.032 74.0965 118.856 57.6139 118.856 57.2669C118.943 56.9199 126.523 34.1912 126.523 34.1912Z" fill="#E6D9D5"/>
<path d="M112.826 69.9325L112.309 75.4845L102.489 72.1012L103.868 59.3489L112.223 60.9104L112.826 69.9325Z" fill="#D7B39D"/>
<path d="M99.905 70.8868C99.905 70.8868 88.7927 72.882 85.8638 76.9593C82.935 81.0366 83.3657 139.246 83.3657 139.246C83.3657 139.246 66.4818 272.235 67.2571 275.792C68.8938 283.339 142.804 286.983 144.01 277.614C146.163 259.743 129.366 144.018 129.366 144.018L129.969 75.5713C129.969 75.5713 124.714 71.147 113.516 69.9325C111.879 69.759 112.74 73.576 110.587 73.576C102.489 73.576 102.403 70.8868 99.905 70.8868Z" fill="#FBFBFB"/>
<path d="M83.3657 139.246C83.6157 139.245 83.6157 139.244 83.6157 139.244L83.6157 139.242L83.6156 139.234L83.6154 139.202L83.6146 139.078L83.6116 138.59C83.6092 138.163 83.606 137.536 83.6029 136.736C83.5969 135.137 83.5915 132.848 83.5942 130.088C83.5996 124.568 83.6373 117.165 83.7664 109.636C83.8956 102.106 84.1163 94.4521 84.4874 88.4271C84.673 85.4141 84.896 82.8129 85.1633 80.8399C85.2971 79.8531 85.4412 79.0282 85.5961 78.3897C85.7535 77.7408 85.9147 77.317 86.0669 77.1052C86.7653 76.1329 87.9681 75.2658 89.4093 74.5119C90.8456 73.7605 92.4945 73.1339 94.0591 72.6321C95.6227 72.1306 97.0962 71.7555 98.1791 71.5058C98.7204 71.381 99.1637 71.2876 99.4713 71.2255C99.6251 71.1944 99.745 71.1712 99.8262 71.1558L99.9185 71.1384L99.9273 71.1368C100.488 71.1407 100.917 71.2916 101.374 71.5289C101.576 71.6336 101.78 71.7533 102.006 71.8857C102.044 71.908 102.082 71.9305 102.121 71.9534C102.392 72.1117 102.69 72.2832 103.034 72.455C104.422 73.1479 106.507 73.826 110.587 73.826C111.218 73.826 111.64 73.5381 111.928 73.1253C112.203 72.7303 112.358 72.2183 112.486 71.756C112.502 71.6976 112.518 71.6401 112.533 71.5836C112.646 71.1718 112.744 70.8134 112.889 70.5489C112.969 70.4037 113.053 70.3073 113.143 70.2499C113.228 70.1957 113.335 70.1648 113.489 70.1811C119.059 70.7852 123.146 72.187 125.836 73.4342C127.182 74.0578 128.178 74.643 128.836 75.0707C129.166 75.2845 129.41 75.459 129.572 75.5793C129.632 75.6242 129.681 75.6615 129.718 75.6905L129.116 144.015L129.116 144.035L129.118 144.054L129.356 144.019C129.242 144.036 129.183 144.044 129.152 144.049C129.118 144.054 129.118 144.054 129.119 144.055L129.119 144.059L129.121 144.075L129.13 144.137L129.166 144.386C129.198 144.605 129.245 144.931 129.306 145.357C129.429 146.209 129.608 147.461 129.836 149.06C130.291 152.259 130.939 156.849 131.709 162.413C133.25 173.541 135.282 188.564 137.247 204.146C139.212 219.727 141.11 235.865 142.381 249.224C143.017 255.903 143.496 261.886 143.749 266.756C144.003 271.63 144.028 275.373 143.762 277.583C143.697 278.082 143.389 278.563 142.811 279.025C142.233 279.488 141.404 279.914 140.347 280.3C138.234 281.073 135.264 281.667 131.709 282.095C124.602 282.951 115.214 283.138 105.804 282.797C96.3952 282.456 86.9773 281.586 79.8137 280.332C76.2304 279.705 73.2213 278.983 71.062 278.187C69.9816 277.789 69.1252 277.376 68.5182 276.954C67.9052 276.528 67.5837 276.118 67.5014 275.739L67.5014 275.739C67.4848 275.663 67.4756 275.457 67.485 275.094C67.4941 274.743 67.5192 274.273 67.5597 273.69C67.6405 272.524 67.7818 270.916 67.9755 268.928C68.3628 264.953 68.9585 259.468 69.6954 252.985C71.1691 240.018 73.2068 223.062 75.2688 206.216C77.3308 189.37 79.4171 172.636 80.9878 160.113C81.7731 153.851 82.4296 148.642 82.8898 144.999C83.1199 143.177 83.3008 141.747 83.4243 140.772L83.5653 139.659L83.6015 139.374L83.6107 139.302L83.613 139.284L83.6135 139.279C83.6137 139.278 83.6137 139.278 83.3657 139.246ZM83.3657 139.246L83.6157 139.245L83.6158 139.261L83.6137 139.278L83.3657 139.246Z" stroke="#1E866F" stroke-opacity="0.2" stroke-width="0.5"/>
<path opacity="0.36" d="M83.3657 139.333C83.3657 139.333 83.1934 83.1187 85.2609 78.521C86.6391 75.3979 93.0137 72.9689 96.8901 71.7544C95.5118 85.2875 95.5979 128.923 95.5979 128.923C95.5979 128.923 78.6279 256.707 82.5904 265.556C84.9163 270.847 122.905 274.491 144.182 271.888C144.182 274.317 144.182 276.226 144.01 277.614C142.89 286.983 68.8938 283.34 67.2571 275.792C66.4818 272.235 83.3657 139.333 83.3657 139.333Z" fill="#D6D6D6"/>
<path d="M125.576 69.4121C125.576 69.4121 132.553 117.906 127.04 120.161C120.579 122.851 116.789 69.9326 116.186 66.8963C119.632 64.554 120.838 69.8458 120.838 69.8458L125.576 69.4121Z" fill="#E6D9D5"/>
<path d="M104.471 57.1802C104.471 57.1802 109.898 69.9326 112.31 71.5808C114.635 73.2291 116.444 73.4026 117.737 71.5808C119.029 69.7591 125.662 60.3032 126.695 55.1849C127.729 50.0666 128.935 41.6518 126.695 38.6155C124.456 35.5792 108.605 33.0635 106.107 37.2275C103.609 41.3915 104.471 57.1802 104.471 57.1802Z" fill="#E3C5AF"/>
<path d="M107.658 64.3804C107.658 64.3804 109.467 72.1012 114.032 74.0965C118.598 76.1785 120.838 66.9829 120.838 66.9829C120.838 66.9829 119.029 69.4987 116.1 69.2384C111.965 68.8047 107.658 64.3804 107.658 64.3804Z" fill="#534C51"/>
<path d="M114.032 63.0792C114.032 63.0792 111.707 68.4578 112.396 69.065C113.86 70.3663 114.032 68.718 114.032 68.718C114.032 68.718 115.238 63.4262 117.737 63.4262C122.302 63.513 117.65 68.6313 118.34 69.8458C118.77 70.6265 120.838 66.8963 120.838 66.8963C120.838 66.8963 122.13 63.5997 121.096 61.6912C120.407 60.4767 116.358 58.6549 114.032 63.0792Z" fill="#534C51"/>
<path d="M88.1897 74.6175C72.4257 81.7311 84.141 131.006 85.8639 137.338C87.5867 143.671 100.163 141.069 101.8 135.69C103.437 130.398 99.9912 126.234 100.422 101.337C100.508 93.4425 94.9949 71.5813 88.1897 74.6175Z" fill="#F0F1F1"/>
<path d="M118.512 133.174C119.718 133 129.28 131.179 131.52 131.526C133.759 131.873 141.857 135.95 143.321 137.685C144.785 139.42 141.426 144.538 137.119 143.15C132.812 141.762 132.036 139.767 129.021 140.114C126.006 140.461 125.834 141.242 122.216 140.201C118.598 139.16 114.377 137.251 114.377 137.251L118.512 133.174Z" fill="#E3C5AF"/>
<path d="M125.489 130.831L121.182 148.529C121.182 148.529 86.7253 143.931 85.8639 137.424C85.4332 134.388 90.4295 134.128 91.377 131.439C92.4969 128.229 93.2721 123.197 96.201 123.111L125.489 130.831Z" fill="#F0F1F1"/>
<path opacity="0.36" d="M87.4146 75.051C78.3696 88.7577 87.8453 128.316 89.3097 133.955C89.3097 134.302 89.482 134.562 89.6543 134.909C90.2572 136.037 91.2048 136.731 92.4108 137.165C99.3022 140.982 115.669 143.758 121.958 144.712L121.01 148.442C121.01 148.442 97.4932 145.319 88.879 140.548C87.673 140.114 86.7254 139.42 86.1224 138.292C85.9501 137.945 85.7778 137.685 85.7778 137.338C84.2273 131.179 72.8565 83.5526 87.4146 75.051Z" fill="#D6D6D6"/>
<path opacity="0.53" d="M128.246 44.7748C128.246 44.7748 124.283 43.8205 121.527 45.2086C118.77 46.5966 113.257 51.1944 112.223 52.4956C111.19 53.7969 108.433 54.9246 108.433 54.9246L110.414 49.7196L116.875 44.5145C116.875 44.5145 121.096 42.1723 121.527 41.9988C121.957 41.8253 128.246 41.4783 128.246 41.4783L129.107 43.9073L128.246 44.7748Z" fill="#D6D6D6"/>
<path d="M107.658 63.9467C107.658 63.9467 113.946 119.988 107.658 121.029C100.163 122.243 100.25 74.9641 96.1148 73.6628C92.0661 72.3616 99.905 54.8379 99.905 54.8379L107.658 63.9467Z" fill="#E6D9D5"/>
<path d="M128.418 45.7291C127.901 41.0445 126.609 42.7795 122.388 42.953C118.512 43.1265 114.377 49.3726 111.793 50.8474C109.122 52.4089 107.572 59.2622 107.744 63.9467C107.916 68.6313 99.9911 81.2101 98.4406 77.7401C94.9949 69.8458 92.3245 73.6628 89.1372 74.3568C91.6353 61.778 93.875 31.5019 110.414 28.5524C126.954 25.5161 130.055 40.0903 128.418 45.7291Z" fill="#E6D9D5"/>
<path d="M128.418 35.0586C121.01 38.0081 107.486 41.4782 97.4931 39.7431C95.5119 39.3961 95.5119 42.4324 96.3733 42.6927C103.695 44.9482 122.561 41.6517 129.366 37.9214C130.916 37.1406 129.28 34.7116 128.418 35.0586Z" fill="#423D40"/>
<path d="M126.609 31.7621C119.373 34.2778 107.916 37.0539 98.4405 36.4466C96.6315 36.3599 96.6315 38.8756 97.4929 39.1359C103.523 41.0444 120.407 37.6611 127.557 34.7984C128.935 34.1911 127.557 31.4151 126.609 31.7621Z" fill="#423D40"/>
<path d="M113.257 85.5477C113.343 86.3284 113.86 86.8489 114.291 86.7622C114.722 86.6754 115.066 85.9814 114.894 85.2874C114.808 84.5067 114.291 83.9862 113.86 84.0729C113.43 84.1597 113.085 84.7669 113.257 85.5477Z" fill="#1E866F"/>
<path d="M113.516 95.2637C113.602 96.0445 114.119 96.565 114.549 96.4782C114.98 96.3915 115.325 95.6975 115.152 95.0035C115.066 94.2227 114.549 93.7022 114.119 93.789C113.688 93.8757 113.429 94.5697 113.516 95.2637Z" fill="#1E866F"/>
<path d="M113.86 105.067C113.946 105.847 114.463 106.368 114.894 106.281C115.324 106.194 115.669 105.5 115.497 104.806C115.411 104.026 114.894 103.505 114.463 103.592C113.946 103.679 113.688 104.286 113.86 105.067Z" fill="#1E866F"/>
</g>
<defs>
<clipPath id="clip0_304_99">
<rect width="330" height="203.512" fill="white" transform="translate(0 52)"/>
</clipPath>
<clipPath id="clip1_304_99">
<rect width="92" height="275" fill="white" transform="translate(62 29)"/>
</clipPath>
</defs>
</svg>
