<svg width="143" height="171" viewBox="0 0 143 171" fill="none" xmlns="http://www.w3.org/2000/svg">
<path d="M33.958 46.8477C36.3241 47.3225 38.0448 48.8656 38.6901 48.7469C38.6901 48.7469 39.3354 48.6282 39.7656 48.6282C39.7656 49.5778 39.5505 50.4087 39.5505 51.3583C39.1203 51.3583 38.475 51.3583 38.0448 51.2396C37.1845 51.3583 36.7543 51.7144 35.4637 51.7144C35.2486 51.7144 34.8184 51.7144 34.6033 51.7144C33.958 51.1209 33.7429 50.4087 33.7429 49.8152C33.3127 48.6282 33.5278 47.7973 33.958 46.8477Z" fill="#E9C2B0"/>
<path d="M30.8867 44.8633C32.9236 45.6267 34.405 48.1076 34.9606 47.9168C34.9606 47.9168 35.8865 47.726 36.2568 47.5351V52.1154C35.5161 52.1154 34.9606 51.9245 34.4051 51.9245C33.6643 52.1154 33.294 52.6879 32.1829 52.6879C31.9977 52.6879 31.6274 52.6879 31.4422 52.6879C30.8867 51.7337 30.7015 50.5886 30.7015 49.6344C30.3311 47.726 30.5163 46.39 30.8867 44.8633Z" fill="#E9C2B0"/>
<path d="M58.2675 45.7618C60.9434 45.9448 57.8852 49.9702 57.1206 52.3488C56.7384 53.6296 53.4891 52.8977 49.4752 51.9828C50.0486 49.6042 51.1954 47.2256 51.3866 45.2129C55.2093 45.3959 58.2675 45.7618 58.2675 45.7618Z" fill="#E6E8ED"/>
<g filter="url(#filter0_f_9841_2419)">
<path d="M67.5 165C91.8005 165 111.5 160.523 111.5 155C111.5 149.477 91.8005 145 67.5 145C43.1995 145 23.5 149.477 23.5 155C23.5 160.523 43.1995 165 67.5 165Z" fill="#F2F2F2"/>
</g>
<path d="M63.5669 47.2783C66.4936 47.4805 63.1488 51.9278 62.3126 54.5558C61.6854 57.1837 50.8148 52.5343 43.0799 51.9278C43.0799 50.3106 43.0799 47.0762 43.0799 45.459C43.498 45.459 63.5669 47.2783 63.5669 47.2783Z" fill="#B9BEC7"/>
<path d="M74.5863 146.482C74.5863 146.677 74.7913 147.067 74.7913 147.262C75.4066 148.432 76.637 149.407 78.0726 149.992C79.7132 150.772 81.5589 151.357 83.4046 151.747C84.8401 151.942 88.1214 153.307 88.3264 153.502C88.5315 153.697 89.1467 153.697 89.762 153.697C91.8127 153.697 93.4534 153.502 93.2483 151.162C93.2483 149.797 92.633 148.237 92.0178 146.872C91.8127 146.482 91.6077 146.287 91.4026 146.092C90.9924 145.702 90.3772 145.312 89.967 144.922C88.7366 144.142 87.301 142.777 85.8655 143.167C85.0452 143.362 84.635 143.752 83.8147 143.557C82.7893 143.557 81.764 143.362 80.7386 143.167C79.9183 142.972 78.8929 142.777 78.0726 142.582C77.2523 142.582 76.2269 142.777 75.4066 143.362C75.2015 143.557 74.9964 143.752 74.9964 143.947C74.3812 144.532 74.1761 145.507 74.5863 146.482Z" fill="#171716"/>
<path d="M57.9759 149.408C57.9759 149.993 58.181 150.578 58.3861 151.163C59.0013 152.138 59.8216 152.918 61.0521 153.698C61.2571 153.893 61.4622 153.893 61.6673 154.088C63.3079 154.868 65.1536 155.453 66.9993 155.843C68.4348 156.038 71.7161 157.403 71.9212 157.598C72.3313 157.988 72.9465 157.988 73.3567 157.988C75.4075 157.988 77.0481 157.793 76.843 155.453C76.843 154.088 76.2278 152.528 75.6125 151.163C75.2024 150.578 74.7922 149.993 74.177 149.603C73.9719 149.408 73.7668 149.213 73.5618 149.213C72.3313 148.433 70.8958 147.263 69.4602 147.458C68.6399 147.653 68.2298 148.043 67.4095 147.848C66.3841 147.848 65.3587 147.653 64.3333 147.458C63.513 147.263 62.4876 147.068 61.6673 146.873C60.6419 146.873 59.8216 147.068 59.0013 147.458C58.7962 147.653 58.5911 147.848 58.5911 148.043C58.5911 148.043 58.5911 148.238 58.3861 148.238C58.181 148.433 57.9759 149.018 57.9759 149.408Z" fill="#171716"/>
<path d="M57.9757 152.332C59.8214 154.087 62.2824 154.672 64.9484 154.672C67.8194 154.672 70.6905 153.697 73.3565 152.917C74.3819 152.722 75.6124 152.332 76.6378 152.332C77.8682 152.332 78.8936 152.527 80.1241 152.722C82.7901 153.307 85.251 153.112 87.5069 151.552C89.1475 150.382 90.583 148.822 92.4287 147.652C93.249 147.067 94.2744 146.677 95.2998 146.677C95.71 144.922 95.915 138.877 95.915 134.002C95.915 130.492 95.915 127.762 95.915 127.567C95.71 125.617 95.2998 122.302 94.6846 117.622C93.4541 107.482 92.6338 87.5926 88.3272 67.8978C86.8916 61.2679 89.3526 48.2031 90.1729 42.5482C90.378 41.7682 90.378 41.1832 90.378 40.5982C90.1729 36.8933 87.917 33.3833 79.7139 34.3583L68.2296 37.2833C66.9991 38.0633 63.5128 38.4533 60.8468 39.8182C60.6417 39.8182 60.6417 40.0132 60.4367 40.0132C58.796 40.9882 60.2316 42.5482 59.8214 44.4982C59.8214 44.4982 60.8468 60.098 60.8468 65.7529C60.8468 70.2378 59.4113 89.5425 59.4113 89.5425C59.4113 95.9774 56.13 131.467 57.9757 152.332Z" fill="#EEEFF0"/>
<path d="M57.9757 152.333C59.8214 154.088 62.2824 154.673 64.9484 154.673C67.8194 154.673 70.6905 153.698 73.3565 152.918C74.3819 152.723 75.6124 152.333 76.6378 152.333C77.8682 152.333 78.8936 152.528 80.1241 152.723C82.7901 153.308 85.251 153.113 87.5069 151.553C89.1475 150.383 90.583 148.823 92.4287 147.653C93.249 147.068 94.2744 146.678 95.2998 146.678C95.71 144.923 95.915 138.878 95.915 134.003C95.2998 135.173 94.8897 136.538 94.6846 137.708C90.7881 124.254 89.9678 110.214 89.1475 96.174C85.0459 108.264 84.2256 121.329 87.0967 133.808C87.7119 136.733 88.5323 139.658 88.1221 142.583C87.5069 145.508 85.0459 148.238 81.9698 148.238C77.8682 148.043 75.8175 143.168 76.2276 139.268C76.6378 135.368 78.4835 131.469 77.6632 127.569C74.7921 128.544 73.5616 131.859 73.7667 134.783C73.7667 137.708 74.7921 140.438 74.587 143.363C74.3819 146.288 72.5362 149.408 69.6651 149.603C67.4093 149.798 65.3585 148.433 64.3331 146.678C63.3077 144.923 62.8976 142.778 62.6925 140.633C62.0773 133.808 62.6925 126.984 63.1027 120.354L65.3585 92.8591C65.7687 88.3741 66.1788 83.6942 69.255 80.3792C71.7159 77.6493 75.6124 76.4793 79.0987 75.3093C74.1768 74.9193 69.6651 71.2144 68.6398 66.5344C67.6144 61.8545 70.2804 56.7846 74.7921 54.6396C72.3311 55.4196 69.6651 53.2746 68.6398 50.9347C67.6144 48.5947 67.4093 46.0597 66.1788 43.7198C65.1534 41.5748 63.1027 39.8198 60.8468 40.0148C60.6417 40.0148 60.6417 40.2098 60.4367 40.2098C58.796 41.1848 60.2316 42.7448 59.8214 44.6948C59.8214 44.6948 60.8468 60.2945 60.8468 65.9495C60.8468 70.4344 59.4113 89.7391 59.4113 89.7391C59.4113 95.979 56.13 131.469 57.9757 152.333Z" fill="#E6E8ED"/>
<path d="M83.8149 46.8384C82.3793 47.8134 80.7387 48.9834 78.893 49.3734C76.8422 49.9584 74.7915 49.7634 72.7407 48.9834C70.6899 48.3984 69.0493 47.2284 67.4087 45.8634C65.7681 44.4984 64.3325 42.9385 63.7173 40.7935C63.5122 40.4035 63.5122 39.8185 63.7173 39.4285C63.9224 39.0385 64.1274 38.4535 64.7427 38.4535C65.1528 38.2585 65.7681 38.6485 66.1782 38.8435C66.5884 39.2335 66.7934 39.6235 66.9985 40.0135C68.6391 42.3535 71.1001 44.1085 73.7661 44.8884C75.8168 45.4734 78.2778 45.4734 80.3285 44.6934C81.3539 44.3034 82.3793 43.5235 83.4047 43.1335C84.0199 42.9385 88.1215 41.5735 87.9164 43.1335C87.7113 43.7185 86.4809 44.4984 86.0707 44.8884C85.4555 45.6684 84.6352 46.2534 83.8149 46.8384Z" fill="#E6E8ED"/>
<path d="M78.2793 34.3576C78.2793 36.8926 73.5625 37.4776 70.0762 37.8676C69.2559 37.2826 68.8457 36.6976 68.8457 36.6976V31.6276L78.0742 30.8477L78.2793 34.3576Z" fill="#BD825A"/>
<path d="M64.7434 14.8598C65.1536 17.1998 64.9485 19.3447 64.7434 21.6847C64.5383 24.0247 64.7434 26.3646 65.5637 28.5096C66.384 30.6546 68.4348 32.4096 70.8957 32.6046C71.511 32.6046 72.1262 32.6046 72.5363 32.4096C73.5617 31.8246 77.2531 32.6046 77.4582 31.4346C78.4836 28.8996 76.2277 24.4147 75.6125 21.6847C75.2024 19.3447 73.7668 17.1998 71.9211 15.6398C70.2805 14.2748 68.4348 13.2998 66.384 12.7148L64.7434 14.8598Z" fill="#BD825A"/>
<path d="M65.7686 28.8984C65.7686 28.8984 67.6143 29.8734 68.2295 30.2634C68.4346 30.2634 68.4346 30.4584 68.4346 30.6534V30.8484C68.4346 31.0434 68.4346 31.2384 68.2295 31.2384C68.2295 31.2384 68.2295 31.2384 68.2295 31.4334H68.0244C67.6143 31.4334 66.999 30.8484 66.794 30.4584C66.5889 30.2634 65.9736 29.2884 65.9736 29.0934C65.9736 29.2884 65.7686 28.8984 65.7686 28.8984Z" fill="#0D0D0D"/>
<path d="M62.6934 39.0398C63.5137 38.6498 63.9239 38.6498 64.334 38.6498C64.5391 38.6498 64.7442 38.8448 64.9492 39.2348C65.1543 39.6248 65.3594 40.0148 65.3594 40.2098C65.7696 40.7948 65.9746 41.5748 66.1797 42.1598C66.5899 43.1348 67.2051 43.7197 68.0254 44.1097C68.2305 44.1097 68.2305 44.3047 68.4356 44.3047C68.6406 44.8897 69.0508 45.4747 69.666 45.8647C69.8711 45.8647 69.8711 46.0597 70.0762 46.0597C70.6914 46.2547 71.5117 46.2547 72.1269 46.6447C72.9473 47.0347 73.5625 47.6197 74.1777 48.0097C74.3828 48.0097 74.3828 48.2047 74.5879 48.2047C75.8183 48.9847 77.2539 49.1797 78.6894 48.7897C79.7148 48.3997 80.33 47.4247 80.9453 46.6447C81.3554 46.2547 81.7656 45.6697 82.1757 45.4747C82.5859 45.2797 83.2011 45.0847 83.6113 44.8897C83.8163 44.8897 84.0214 44.8897 84.2265 44.8897C84.4316 44.8897 84.4316 44.6947 84.6367 44.6947C85.2519 44.4997 85.8671 44.3047 86.4823 43.9147C86.6874 43.7197 86.6874 43.7197 86.8925 43.5247C87.0976 43.3298 87.3027 43.1348 87.5077 42.7448C88.9433 41.3798 89.1483 39.8198 88.7382 37.2848C88.5331 36.1149 86.0722 27.925 85.662 24.025C85.457 22.27 85.457 20.5151 85.0468 18.9551C84.8417 18.3701 84.8417 17.9801 84.6367 17.3951C84.4316 16.8101 84.2265 16.2251 83.8163 15.6401C82.791 13.6902 80.7402 12.3252 78.6894 11.3502C75.2031 9.79022 70.8965 9.40023 67.6152 11.1552C66.1797 11.9352 65.1543 13.1052 64.334 14.4702C63.9239 15.0552 63.7188 15.8351 63.5137 16.6151C63.5137 16.8101 63.5137 17.0051 63.3086 17.2001C62.8985 17.7851 62.6934 18.5651 62.6934 19.1501C62.6934 20.1251 63.5137 21.1001 64.5391 21.2951C64.9492 21.4901 65.1543 21.6851 65.3594 22.0751C65.5645 22.27 65.7696 22.465 65.9746 22.66C66.3848 22.855 66.5899 22.855 67 22.855C67.8203 23.05 68.2305 23.83 68.6406 24.61C68.8457 25 68.8457 25.39 68.8457 25.78C68.8457 29.29 66.3848 31.6299 64.9492 33.3849C64.334 34.9449 63.1036 36.8948 62.6934 39.0398Z" fill="#DEE0E4"/>
<path d="M63.9239 16.6154C64.129 16.8104 64.3341 17.0054 64.3341 17.0054C66.1798 18.5653 68.4356 19.5403 70.8965 20.1253C75.8184 21.2953 81.1504 21.8803 85.457 18.9553C85.252 18.3703 85.252 17.9803 85.0469 17.3953C81.1504 20.3203 75.8184 19.1503 71.5118 18.1753C69.461 17.5903 67.6153 17.0054 65.9747 15.4454C65.5645 15.0554 65.1544 14.6654 64.9493 14.2754C64.3341 15.0554 64.129 15.8354 63.9239 16.6154Z" fill="#0D0D0D"/>
<path d="M64.5391 38.8443C64.7442 38.8443 64.9492 39.0393 65.1543 39.4293C65.3594 39.8193 65.5645 40.2093 65.5645 40.4043C65.9746 40.9893 66.1797 41.7693 66.3848 42.3542C66.7949 43.3292 67.4102 43.9142 68.2305 44.3042C67.8203 43.5242 67.6153 42.7442 67.4102 41.9643C67.2051 39.6243 68.0254 37.4793 68.8457 35.3343C69.666 33.1894 70.6914 31.0444 71.3066 28.8994C71.9219 26.7545 72.127 24.2195 71.1016 22.2695C71.9219 27.5345 70.0762 33.1894 66.1797 37.0893C65.5645 37.4793 64.9493 38.0643 64.5391 38.8443Z" fill="#E6E8ED"/>
<path d="M81.3545 46.645C81.7647 46.255 82.1748 45.67 82.585 45.475C82.9951 45.28 83.6104 45.085 84.0205 44.89C84.2256 44.89 84.4307 44.89 84.6358 44.89C84.8408 44.89 84.8408 44.695 85.0459 44.695C85.6611 44.5 86.2764 44.305 86.8916 43.9151C86.6865 43.9151 86.4814 43.915 86.2764 43.7201C85.6611 43.5251 85.0459 42.9401 84.6358 42.3551C83.2002 40.6001 82.9951 38.4551 82.7901 36.3102C82.7901 34.1652 82.7901 32.0202 82.3799 29.8752C81.9698 28.3153 81.1494 26.7553 80.5342 25.1953C82.7901 32.2152 83.2002 39.6251 81.3545 46.645Z" fill="#E6E8ED"/>
<path d="M70.2813 46.06C70.8965 46.255 71.7168 46.255 72.332 46.645C73.1524 47.035 73.7676 47.62 74.3828 48.01C74.5879 48.01 74.5879 48.205 74.793 48.205C74.5879 47.62 74.3828 47.23 74.1777 46.645C73.9727 45.475 73.9727 44.305 73.9727 42.9401C74.1777 39.0401 73.9727 34.7502 72.127 31.2402C73.1524 33.7752 73.3574 36.3102 72.9473 39.0401C72.7422 41.7701 71.7168 44.11 70.2813 46.06Z" fill="#E6E8ED"/>
<path d="M57.3609 70.239C60.232 70.824 63.1031 69.264 64.1285 66.534C64.1285 66.339 64.1285 66.144 64.3336 66.144L65.7691 59.5141C66.3843 53.2742 67.4097 47.0343 63.9234 41.7694C63.3082 40.7944 62.4879 40.4044 61.4625 40.0144C60.8472 39.8194 60.0269 40.0144 59.4117 40.0144C58.5914 40.7944 58.1812 41.5744 57.9762 42.7444L54.6949 59.5141L54.2848 61.2691L53.6695 64.3891C53.0543 67.314 54.2848 69.654 57.3609 70.239Z" fill="#F7F7F7"/>
<path d="M32.6814 46.2158C32.6814 45.6443 34.6942 45.8348 35.1414 45.8348C36.2596 46.0253 37.3778 46.2158 38.2724 46.4063C36.9306 46.2158 35.8124 45.8348 34.4705 45.4538C34.2469 45.4538 33.5759 45.2633 33.7996 44.8822C34.0232 44.3107 37.1542 44.8822 37.8251 45.0728C38.2724 45.0728 38.4961 45.2633 38.9433 45.2633C39.3906 45.6443 39.6143 46.0253 39.6143 46.5968C39.6143 47.3588 39.3906 48.1209 39.167 48.8829C38.9433 49.4544 38.496 49.8354 38.2724 50.407C36.9306 50.0259 36.036 49.8354 34.4705 49.4544C34.2469 49.4544 34.0232 49.2639 33.7996 49.0734C33.1287 48.5019 36.4833 48.8829 37.6015 48.6924C36.2596 48.5019 34.9178 48.3114 33.576 48.1209C33.3523 48.1209 32.6814 47.7399 32.905 47.3588C33.1287 46.9778 33.7996 46.9778 34.0232 46.9778C34.6942 46.9778 35.3651 47.1683 36.036 47.1683C34.9178 46.9778 34.0232 46.7873 32.905 46.5968C32.905 46.5968 32.6814 46.4063 32.6814 46.2158Z" fill="#E9C2B0"/>
<path d="M38.4932 49.5684C38.2881 49.5684 38.2881 49.7634 38.4932 49.5684L38.6982 49.7634C38.4932 49.7634 38.4932 49.7634 38.4932 49.5684Z" fill="#154902"/>
<path d="M38.083 52.3008C38.2881 52.3008 38.2881 52.3008 38.083 52.3008L38.2881 52.8858C38.2881 52.8858 38.2881 53.0808 38.083 53.0808L37.6729 53.4708H37.4678V52.8858C37.4678 52.8858 37.4678 52.6908 37.6729 52.6908L38.083 52.3008Z" fill="#9CB5CC"/>
<path d="M38.2881 42.7461V42.9411L36.8525 43.7211V43.5261L38.2881 42.7461Z" fill="#9CB5CC"/>
<path d="M39.7227 42.1602C39.9277 42.1602 39.9277 42.1602 39.9277 42.3552L40.3379 50.74C40.3379 50.935 40.1328 51.13 40.1328 51.13L35.8262 53.665C35.6211 53.665 35.6211 53.665 35.6211 53.47L35.211 45.0851C35.211 44.8901 35.416 44.6951 35.416 44.6951L39.7227 42.1602Z" fill="#283033"/>
<path d="M35.417 43.9178C35.0069 44.1128 34.8018 44.6978 34.8018 45.0878L35.2119 54.6426C35.2119 55.0326 35.6221 55.2276 35.8272 55.0326L39.9287 52.3027C40.3389 52.1077 40.5439 51.5227 40.5439 51.1327L40.1338 41.5778C40.1338 41.1878 39.7236 40.9928 39.5186 41.1878L35.417 43.9178ZM40.1338 50.3527C40.1338 50.5477 40.1338 50.7427 39.9287 50.7427L35.8272 53.2777C35.6221 53.2777 35.6221 53.2777 35.6221 53.0827L35.2119 45.0878C35.2119 44.8928 35.2119 44.6978 35.417 44.6978L39.5186 42.1628C39.7236 42.1628 39.7236 42.1628 39.7236 42.3578L40.1338 50.3527ZM38.2881 52.8877C38.2881 52.8877 38.2881 53.0827 38.083 53.0827L37.6729 53.4726H37.4678V52.8877C37.4678 52.8877 37.4678 52.6927 37.6729 52.6927L38.083 52.3027H38.2881V52.8877ZM36.8526 43.5278L38.083 42.7478V42.9428L36.8526 43.5278Z" fill="#F8F9FC"/>
<path d="M39.3125 40.9922H39.1074H38.9023L34.8008 43.5271C34.5957 43.5271 34.5957 43.7221 34.5957 43.7221C34.3906 43.9171 34.1856 44.3071 34.3906 44.5021L34.5957 54.252C34.5957 54.447 34.5957 54.642 34.8008 54.642L35.416 55.032C35.211 55.032 35.211 54.837 35.211 54.642L34.8008 45.0871C34.8008 44.8921 35.0059 44.5021 35.0059 44.3071C35.0059 44.1121 35.211 44.1121 35.211 44.1121L39.3125 41.5772H39.5176H39.7227L39.3125 40.9922Z" fill="#D7E7F7"/>
<path d="M39.7236 42.9395L37.6729 44.1094L35.6221 45.2794L35.417 45.4744V46.6444C35.417 46.6444 35.417 46.6444 35.6221 46.6444L37.6729 45.4744L39.7236 44.3044L39.9287 44.1094L39.7236 42.9395Z" fill="#F8F9FC"/>
<path d="M39.9287 48.9844L37.8779 50.1544L35.8272 51.3243L35.6221 51.5193V52.6893C35.6221 52.6893 35.6221 52.6893 35.8272 52.6893L37.8779 51.5193L39.9287 50.3494L40.1338 50.1544L39.9287 48.9844Z" fill="#F8F9FC"/>
<path d="M40.9864 44.3319L38.2946 42.3374C38.2946 42.3374 37.8804 41.9385 37.8804 42.3374C37.8804 42.5369 37.8804 43.5341 38.9158 44.3319C39.1228 44.5314 40.1581 45.3291 40.1581 45.3291C40.1581 45.3291 40.3652 47.3236 40.9864 48.3209C40.9864 48.3209 41.8147 49.9164 42.4359 49.5175C43.2641 49.1186 43.0571 48.1214 43.0571 48.1214L42.6429 46.9247C42.2288 46.7253 41.1935 44.5314 40.9864 44.3319Z" fill="#E9C2B0"/>
<path d="M37.2192 49.432C37.0143 49.2425 37.0144 49.0529 37.0144 48.8634C37.424 48.2948 39.882 50.1902 40.2917 50.5693C41.111 51.1379 42.3401 51.896 43.1594 52.4646C43.1594 52.4646 44.3884 53.2228 44.7981 53.4123C45.4126 53.981 45.0029 54.5496 45.4126 54.9287L48.2803 56.445C47.8706 57.3927 46.4368 57.7717 45.4126 58.7194C45.2077 58.909 44.5932 59.2881 44.3884 59.4776L42.5449 57.9613C41.9304 57.5822 40.9062 57.3927 40.2917 56.824C35.9902 53.7914 38.0385 53.2228 39.4724 51.517C39.6772 51.517 37.2192 49.6216 37.2192 49.432Z" fill="#E9D3C8"/>
<path d="M42.2133 59.1035C46.8773 63.4871 52.6014 67.8707 56.6295 70.3484C59.5975 72.0637 63.6256 70.3483 64.4736 66.9177C64.4736 66.7271 64.6856 66.5365 64.6856 66.3459C65.1096 64.2494 63.2016 64.8212 61.0815 62.7247C61.0815 62.7247 59.3855 61.7718 57.0535 60.4376C56.4175 60.0564 55.5695 59.6753 54.9335 59.2941C51.7534 57.5788 47.9374 55.4823 46.4533 54.5293C46.2413 54.7199 45.8173 55.1011 45.3933 55.8634C43.9093 57.007 42.4253 58.7223 42.2133 59.1035Z" fill="#F7F7F7"/>
<path d="M45.6803 56.065C47.6549 57.4389 49.6294 58.6165 51.604 59.7941C52.5913 60.3829 53.5785 60.7754 54.3684 61.5605C54.7633 61.7568 55.1582 62.1493 55.3556 62.3456C56.3429 63.3269 57.1327 64.7008 57.5276 66.0747C57.3302 64.3083 56.7378 62.5418 56.5404 60.7754C56.3429 59.9904 56.3429 59.2053 56.5404 58.2239C56.7378 56.8501 57.1327 55.6725 57.5276 54.4948C58.5149 51.1583 59.3047 47.6255 59.8971 44.0926C60.0946 42.7188 60.292 41.1486 61.0818 39.971L61.2793 39.7747C60.6869 39.5785 59.8971 39.7747 59.3047 39.7747C58.5149 40.5598 58.12 41.3449 57.9226 42.5225L54.7633 59.4016C51.8014 57.6351 48.2472 55.4762 46.865 54.4948C46.6676 55.0837 46.2727 55.4762 45.6803 56.065Z" fill="#EEEFF0"/>
<g clip-path="url(#clip0_9841_2419)">
<path d="M142.5 11.3858C142.5 11.3858 139.944 31.8328 135.741 36.4354C130.698 41.9553 127.037 41.1467 125.002 43.9922C124.998 43.9922 124.998 43.9961 124.998 43.9961C122.963 41.1467 119.302 41.9592 114.255 36.4315C110.053 31.8328 107.5 11.3858 107.5 11.3858C118.57 6.01749 124.998 0 124.998 0H125.002C125.2 0.190476 131.601 6.10301 142.5 11.3858Z" fill="#FF9900"/>
<path opacity="0.1" d="M125.002 0.00388727V43.9922L124.998 43.9961C122.963 41.1467 119.302 41.9592 114.255 36.4315C110.053 31.8328 107.5 11.3858 107.5 11.3858C118.57 6.01749 124.998 0 124.998 0H125.002V0.00388727Z" fill="black"/>
<path d="M110.216 13.0331C110.216 13.0331 112.375 30.3081 115.924 34.1954C120.189 38.864 123.282 38.1798 125.002 40.5822C126.722 38.176 129.815 38.864 134.08 34.1954C137.628 30.3081 139.784 13.0331 139.784 13.0331C130.434 8.49666 125.002 3.41211 125.002 3.41211C125.002 3.41211 119.566 8.49666 110.216 13.0331Z" fill="#FF9900"/>
<path opacity="0.2" d="M139.78 13.0331C139.78 13.0331 137.621 30.3043 134.072 34.1954C129.811 38.8602 126.722 38.1799 124.998 40.5783V3.41992C125.165 3.57541 130.574 8.56667 139.78 13.037V13.0331Z" fill="white"/>
<path d="M125.435 30.8516C130.646 30.8516 134.87 26.6315 134.87 21.4258C134.87 16.2201 130.646 12 125.435 12C120.224 12 116 16.2201 116 21.4258C116 26.6315 120.224 30.8516 125.435 30.8516Z" fill="#1E866F"/>
<path d="M124.359 27.5503L120.155 23.1851L121.713 21.6873L124.032 24.0946L129.028 16.4395L130.838 17.6217L124.359 27.5503Z" fill="white"/>
</g>
<path d="M38.3828 24.1953V34.7948H35.9139V39.6282L31.6544 34.7948H2.69978V24.1953H38.3828Z" fill="white"/>
<path d="M38.3832 24.1954C38.361 27.7684 38.2665 31.3037 38.2665 34.7948L38.3832 34.6625H35.9143L35.7919 34.6562V34.7948L35.7808 39.6282L36.0144 39.5211L31.766 34.6751C31.7159 34.6184 31.7271 34.6247 31.6603 34.6247C24.4481 34.5994 9.91798 34.5742 2.70575 34.5679L2.90593 34.7948L2.87813 24.1954L2.70575 24.3907C11.5973 24.3718 29.4917 24.271 38.3832 24.1954ZM38.3832 24.1954L20.589 24.0693L2.70019 24H2.5278V24.1954L2.5 34.7948V35.0217H2.70019L17.1747 35.0028C17.0968 34.946 32.0774 35.0658 31.5436 34.9145L35.8197 39.729L36.0533 39.9874V39.6156L36.0422 34.7822L35.9198 34.9208H38.3832L38.5 34.9145V34.7822C38.5 31.2217 38.4055 27.6928 38.3832 24.1954Z" fill="#263238"/>
<path d="M25.6042 28.2383C26.1621 29.2213 26.9658 29.9902 28.002 30.5132C27.4507 29.5301 26.6404 28.7676 25.6042 28.2383Z" fill="#263238"/>
<path d="M28.002 28.2383C26.9658 28.7676 26.1555 29.5301 25.6042 30.5132C26.6404 29.9902 27.444 29.2213 28.002 28.2383Z" fill="#263238"/>
<path d="M25.106 29.3723C26.2351 29.6937 27.3709 29.7 28.5 29.3723C27.3709 29.0446 26.2351 29.0509 25.106 29.3723Z" fill="#263238"/>
<path d="M26.8059 27.7656C26.4672 28.8369 26.4606 29.9145 26.8059 30.9858C27.1513 29.9145 27.1447 28.8369 26.8059 27.7656Z" fill="#263238"/>
<path d="M31.6042 28.2383C32.1621 29.2213 32.9658 29.9902 34.002 30.5132C33.4507 29.5301 32.6404 28.7676 31.6042 28.2383Z" fill="#263238"/>
<path d="M34.002 28.2383C32.9658 28.7676 32.1555 29.5301 31.6042 30.5132C32.6404 29.9902 33.444 29.2213 34.002 28.2383Z" fill="#263238"/>
<path d="M31.106 29.3723C32.2351 29.6937 33.3709 29.7 34.5 29.3723C33.3709 29.0446 32.2351 29.0509 31.106 29.3723Z" fill="#263238"/>
<path d="M32.8059 27.7656C32.4672 28.8369 32.4606 29.9145 32.8059 30.9858C33.1513 29.9145 33.1447 28.8369 32.8059 27.7656Z" fill="#263238"/>
<path d="M19.6042 28.2383C20.1621 29.2213 20.9658 29.9902 22.002 30.5132C21.4507 29.5301 20.6404 28.7676 19.6042 28.2383Z" fill="#263238"/>
<path d="M22.002 28.2383C20.9658 28.7676 20.1555 29.5301 19.6042 30.5132C20.6404 29.9902 21.444 29.2213 22.002 28.2383Z" fill="#263238"/>
<path d="M19.106 29.3723C20.2351 29.6937 21.3709 29.7 22.5 29.3723C21.3709 29.0446 20.2351 29.0509 19.106 29.3723Z" fill="#263238"/>
<path d="M20.8059 27.7656C20.4672 28.8369 20.4606 29.9145 20.8059 30.9858C21.1513 29.9145 21.1447 28.8369 20.8059 27.7656Z" fill="#263238"/>
<path d="M13.6042 28.2383C14.1621 29.2213 14.9658 29.9902 16.002 30.5132C15.4507 29.5301 14.6404 28.7676 13.6042 28.2383Z" fill="#263238"/>
<path d="M16.002 28.2383C14.9658 28.7676 14.1555 29.5301 13.6042 30.5132C14.6404 29.9902 15.444 29.2213 16.002 28.2383Z" fill="#263238"/>
<path d="M13.106 29.3723C14.2351 29.6937 15.3709 29.7 16.5 29.3723C15.3709 29.0446 14.2351 29.0509 13.106 29.3723Z" fill="#263238"/>
<path d="M14.8059 27.7656C14.4672 28.8369 14.4606 29.9145 14.8059 30.9858C15.1513 29.9145 15.1447 28.8369 14.8059 27.7656Z" fill="#263238"/>
<path d="M7.25753 28.2383C7.81545 29.2213 8.61913 29.9902 9.65527 30.5132C9.10399 29.5301 8.29367 28.7676 7.25753 28.2383Z" fill="#263238"/>
<path d="M9.66211 28.2383C8.62596 28.7676 7.81565 29.5301 7.26437 30.5132C8.30051 29.9902 9.10419 29.2213 9.66211 28.2383Z" fill="#263238"/>
<path d="M6.76612 29.3723C7.89525 29.6937 9.03102 29.7 10.1602 29.3723C9.03102 29.0446 7.89525 29.0509 6.76612 29.3723Z" fill="#263238"/>
<path d="M8.46025 27.7656C8.12151 28.8369 8.11486 29.9145 8.46025 30.9858C8.80563 29.9145 8.79898 28.8369 8.46025 27.7656Z" fill="#263238"/>
<defs>
<filter id="filter0_f_9841_2419" x="17.5" y="139" width="100" height="32" filterUnits="userSpaceOnUse" color-interpolation-filters="sRGB">
<feFlood flood-opacity="0" result="BackgroundImageFix"/>
<feBlend mode="normal" in="SourceGraphic" in2="BackgroundImageFix" result="shape"/>
<feGaussianBlur stdDeviation="3" result="effect1_foregroundBlur_9841_2419"/>
</filter>
<clipPath id="clip0_9841_2419">
<rect width="35" height="44" fill="white" transform="translate(107.5)"/>
</clipPath>
</defs>
</svg>
