<svg xmlns="http://www.w3.org/2000/svg" width="100.126" height="128.759" viewBox="0 0 100.126 128.759"><g transform="translate(-137 -361)"><g transform="translate(130.016 361)"><rect width="51.702" height="67.722" rx="16" transform="translate(16.462 3.641)" fill="#0b0c0c"/><rect width="51.702" height="67.722" rx="16" transform="translate(41.619 0) rotate(25.165)" fill="#0b0c0c" opacity="0.2"/><rect width="15.292" height="15.292" rx="6" transform="translate(23.744 12.379)" fill="#fff"/><path d="M33,53H65.769" transform="translate(-7.071 -14.406)" fill="none" stroke="#fff" stroke-linecap="square" stroke-width="5"/><path d="M33,68H65.769" transform="translate(-7.071 -18.483)" fill="none" stroke="#fff" stroke-linecap="square" stroke-width="5"/><path d="M33,83H53.389" transform="translate(-7.071 -22.56)" fill="none" stroke="#fff" stroke-linecap="square" stroke-width="5"/><path d="M16.242,0a16.233,16.233,0,1,1-1.093.036C15.314.02,15.776,0,16.242,0Z" transform="translate(57.294 49.519) rotate(28.651)" fill="#1e866f" stroke="#28a197" stroke-width="8"/><path d="M72.036,118.62,66.418,128.9" transform="translate(-16.154 -32.242)" fill="none" stroke="#1e866f" stroke-linecap="round" stroke-width="8"/><path d="M68.044,122.1l-2.128,14.937-9.555-5.071Z" transform="translate(-13.421 -33.188)" fill="#1e866f"/><path d="M51.562,140.281l9.457,5.019-5.507,9.891a5.484,5.484,0,0,1-7.333,2.167,5.224,5.224,0,0,1-2.124-7.187Z" transform="translate(-10.437 -38.13)" fill="#1e866f"/><path d="M87.415,93.318l-7.467,7.827" transform="translate(-19.832 -25.365)" fill="none" stroke="#fff" stroke-linecap="round" stroke-width="5"/><path d="M79.7,93.565l7.827,7.467" transform="translate(-19.765 -25.432)" fill="none" stroke="#fff" stroke-linecap="round" stroke-width="5"/><circle cx="3.061" cy="3.061" r="3.061" transform="translate(80.089 39.373)" fill="#27308c" opacity="0.1"/><circle cx="1.837" cy="1.837" r="1.837" transform="translate(28.661 125.086)" fill="#27308c" opacity="0.2"/><path d="M9.832,37.32a2.913,2.913,0,0,1,3.115-3.969l3.658.522a2.913,2.913,0,0,1,1.88,4.682L16.2,41.462a2.913,2.913,0,0,1-4.994-.713Z" transform="translate(-0.716 -9.057)" fill="#ff9e87"/><path d="M7.174,118.641a2.574,2.574,0,1,1,4.413.63A2.574,2.574,0,0,1,7.174,118.641Z" transform="translate(0 -31.287)" fill="#ff9e87"/><path d="M131.09,97.745a5,5,0,1,1,8.58,1.225A5,5,0,0,1,131.09,97.745Z" transform="translate(-33.633 -24.7)" fill="#ff9e87"/><path d="M98.862,147.217a2.913,2.913,0,0,1,1.345-4.863l3.577-.928a2.913,2.913,0,0,1,3.538,3.6l-.985,3.562a2.913,2.913,0,0,1-4.884,1.266Z" transform="translate(-24.745 -38.415)" fill="#ff9e87" opacity="0.2"/><path d="M130.743,33.414c-2.646,3.925-2.811-8.172-6.736-10.818s-14.83-4.289-12.183-8.214,15.257-1.527,19.182,1.119S133.389,29.489,130.743,33.414Z" transform="translate(-28.385 -3.347)" fill="#03a9f4" opacity="0.3"/></g></g></svg>