<svg xmlns="http://www.w3.org/2000/svg" xmlns:xlink="http://www.w3.org/1999/xlink" width="119.144" height="97" viewBox="0 0 119.144 97"><defs><linearGradient id="a" x1="0.146" y1="0.854" x2="0.854" y2="0.146" gradientUnits="objectBoundingBox"><stop offset="0" stop-color="#ff726d"/><stop offset="1" stop-color="#ffde00"/></linearGradient></defs><path d="M4.6,9.2A4.6,4.6,0,1,0,0,4.6,4.6,4.6,0,0,0,4.6,9.2Z" transform="translate(104.669 15.148)" fill="#eaeef9"/><path d="M3.142,6.283A3.142,3.142,0,1,0,0,3.142,3.139,3.139,0,0,0,3.142,6.283Z" transform="translate(112.861)" fill="#ffbf24"/><path d="M5.835,11.669A5.835,5.835,0,1,0,0,5.835,5.836,5.836,0,0,0,5.835,11.669Z" transform="translate(0 78.266)" fill="#eaeef9"/><g transform="translate(11.669 4.799)"><circle cx="46" cy="46" r="46" fill="url(#a)"/><circle cx="46" cy="46" r="46" transform="translate(0 0.201)" fill="#1e866f"/><path d="M75.031,85.548c-5.033,2.675-10.016,5.305-14.92,7.84a2.287,2.287,0,0,1-3.208-2.4q1.176-8.391,2.569-16.836A2.219,2.219,0,0,0,58.82,72.2c-4.149-4.018-8.295-8-12.385-11.9A2.178,2.178,0,0,1,47.7,56.6q8.552-1.326,17.084-2.63a2.243,2.243,0,0,0,1.669-1.218C69.03,47.586,71.6,42.4,74.107,37.229a2.141,2.141,0,0,1,3.882,0C80.5,42.4,83.067,47.586,85.641,52.756a2.243,2.243,0,0,0,1.669,1.218q8.531,1.3,17.084,2.63a2.178,2.178,0,0,1,1.268,3.7c-4.09,3.9-8.236,7.879-12.385,11.9a2.219,2.219,0,0,0-.651,1.949Q94.006,82.6,95.194,90.99a2.287,2.287,0,0,1-3.208,2.4c-4.9-2.535-9.887-5.165-14.92-7.84A2.166,2.166,0,0,0,75.031,85.548Z" transform="translate(-29.779 -18.792)" fill="#fff"/><path d="M95.194,197.892q-1.176-8.379-2.569-16.811a25.655,25.655,0,0,1-27.839-20.205q-8.531,1.295-17.084,2.63a2.178,2.178,0,0,0-1.268,3.7c4.09,3.9,8.236,7.879,12.385,11.9a2.22,2.22,0,0,1,.652,1.949Q58.09,189.5,56.9,197.892a2.287,2.287,0,0,0,3.208,2.4c4.9-2.535,9.887-5.165,14.92-7.841a2.167,2.167,0,0,1,2.035,0c5.033,2.675,10.016,5.305,14.92,7.841A2.287,2.287,0,0,0,95.194,197.892Z" transform="translate(-30.048 -125.708)" fill="#fff"/></g></svg>