<svg width="23" height="38" viewBox="0 0 23 38" fill="none" xmlns="http://www.w3.org/2000/svg">
<g clip-path="url(#clip0_9810_2620)">
<path d="M16.4414 6.74609H6.55859C5.6297 6.74609 4.87402 7.50177 4.87402 8.43066V28.0615C4.87402 28.9904 5.6297 29.7461 6.55859 29.7461H16.4414C17.3703 29.7461 18.126 28.9904 18.126 28.0615V8.43066C18.126 7.50177 17.3703 6.74609 16.4414 6.74609ZM17.4521 25.0293H7.90625C7.81689 25.0293 7.7312 25.0648 7.66802 25.128C7.60483 25.1912 7.56934 25.2769 7.56934 25.3662C7.56934 25.4556 7.60483 25.5413 7.66802 25.6044C7.7312 25.6676 7.81689 25.7031 7.90625 25.7031H17.4521V28.0615C17.4521 28.6189 16.9988 29.0723 16.4414 29.0723H6.55859C6.00125 29.0723 5.54785 28.6189 5.54785 28.0615V25.7031H6.55859C6.64795 25.7031 6.73364 25.6676 6.79683 25.6044C6.86001 25.5413 6.89551 25.4556 6.89551 25.3662C6.89551 25.2769 6.86001 25.1912 6.79683 25.128C6.73364 25.0648 6.64795 25.0293 6.55859 25.0293H5.54785V10.1152H17.4521V25.0293ZM17.4521 9.44141H5.54785V8.43066C5.54785 7.87332 6.00125 7.41992 6.55859 7.41992H16.4414C16.9988 7.41992 17.4521 7.87332 17.4521 8.43066V9.44141Z" fill="#1E866F"/>
<path d="M12.8477 8.09375H11.5C11.4106 8.09375 11.3249 8.12925 11.2618 8.19243C11.1986 8.25561 11.1631 8.34131 11.1631 8.43066C11.1631 8.52002 11.1986 8.60571 11.2618 8.6689C11.3249 8.73208 11.4106 8.76758 11.5 8.76758H12.8477C12.937 8.76758 13.0227 8.73208 13.0859 8.6689C13.1491 8.60571 13.1846 8.52002 13.1846 8.43066C13.1846 8.34131 13.1491 8.25561 13.0859 8.19243C13.0227 8.12925 12.937 8.09375 12.8477 8.09375ZM11.5 26.377C10.9427 26.377 10.4893 26.8303 10.4893 27.3877C10.4893 27.945 10.9427 28.3984 11.5 28.3984C12.0573 28.3984 12.5107 27.945 12.5107 27.3877C12.5107 26.8303 12.0573 26.377 11.5 26.377ZM11.5 27.7246C11.3142 27.7246 11.1631 27.5735 11.1631 27.3877C11.1631 27.2019 11.3142 27.0508 11.5 27.0508C11.6858 27.0508 11.8369 27.2019 11.8369 27.3877C11.8369 27.5735 11.6858 27.7246 11.5 27.7246Z" fill="#1E866F"/>
<path d="M10.1523 8.76758C10.3384 8.76758 10.4893 8.61674 10.4893 8.43066C10.4893 8.24459 10.3384 8.09375 10.1523 8.09375C9.96627 8.09375 9.81543 8.24459 9.81543 8.43066C9.81543 8.61674 9.96627 8.76758 10.1523 8.76758Z" fill="#1E866F"/>
</g>
<path d="M7.40559 2.56089L6.84091 5.22823C6.82118 5.32145 6.85197 5.41981 6.92332 5.49139C6.99466 5.56298 7.09617 5.59736 7.19487 5.58333L9.67289 5.0447C9.78074 5.02941 9.86775 4.95858 9.89995 4.85983C9.93216 4.76108 9.90429 4.65069 9.82716 4.57168L9.36239 4.09569C9.623 3.95368 9.89826 3.83599 10.1846 3.74414C12.1944 3.09913 14.8289 3.9738 16.1542 5.66582C16.2468 5.78411 16.4091 5.82333 16.5401 5.75916C16.6704 5.69541 16.7254 5.55038 16.6708 5.41352L16.6683 5.40721C16.1549 4.12772 15.1619 3.08706 13.8722 2.47697L13.8587 2.47064C12.5731 1.86649 11.1445 1.76058 9.83447 2.17271C9.81093 2.18011 9.78941 2.19195 9.77112 2.20757C9.75284 2.22318 9.73815 2.24226 9.72791 2.26371C9.71766 2.28516 9.71205 2.30857 9.7114 2.33259C9.71075 2.35661 9.71508 2.38078 9.72413 2.40371C9.76223 2.50019 9.87335 2.55315 9.97226 2.52196C12.3069 1.78745 14.9257 2.89579 16.0738 5.01795C15.4284 4.35458 14.6085 3.84423 13.7155 3.55675C12.598 3.19709 11.129 3.04745 10.0447 3.39543C9.65921 3.51905 9.29268 3.6861 8.95249 3.89319C8.9295 3.90719 8.91028 3.926 8.89616 3.9483C8.88204 3.9706 8.87336 3.99585 8.87073 4.02228C8.8681 4.04871 8.87159 4.07569 8.88094 4.10133C8.8903 4.12697 8.90529 4.15065 8.92489 4.17072L9.44465 4.70301L7.24226 5.20253L7.75104 2.79939L8.22089 3.28057C8.25533 3.31585 8.30191 3.33788 8.35104 3.34213C8.40017 3.34639 8.4481 3.33254 8.48497 3.30344C8.72711 3.11236 8.98975 2.94567 9.26905 2.80581C9.31225 2.78329 9.34351 2.74495 9.35609 2.69904C9.36868 2.65313 9.36158 2.60333 9.33632 2.5604C9.31106 2.51746 9.26968 2.48482 9.22108 2.46952C9.17249 2.45422 9.12059 2.45749 9.07658 2.47862C8.82802 2.60309 8.5916 2.7473 8.36969 2.90981L7.91381 2.44296C7.87564 2.40378 7.82754 2.37473 7.77472 2.35896C7.7219 2.3432 7.66635 2.34131 7.61409 2.35351C7.5618 2.36558 7.51474 2.39128 7.47799 2.42783C7.44125 2.46438 7.41621 2.51039 7.40559 2.56089Z" fill="#1E866F"/>
<path d="M16.0527 34.3615L16.6387 31.5932C16.6592 31.4965 16.6273 31.3944 16.5532 31.3201C16.4792 31.2458 16.3738 31.2101 16.2714 31.2247L13.6996 31.7837C13.5877 31.7996 13.4974 31.8731 13.464 31.9756C13.4305 32.0781 13.4595 32.1926 13.5395 32.2746L14.0219 32.7686C13.7514 32.916 13.4657 33.0381 13.1686 33.1335C11.0827 33.8029 8.34855 32.8951 6.97313 31.1391C6.87702 31.0163 6.70854 30.9756 6.57255 31.0422C6.4374 31.1084 6.38026 31.2589 6.43699 31.4009L6.43959 31.4075C6.97242 32.7354 8.00296 33.8154 9.34143 34.4486L9.35542 34.4551C10.6897 35.0822 12.1724 35.1921 13.5319 34.7644C13.5564 34.7567 13.5787 34.7444 13.5977 34.7282C13.6166 34.712 13.6319 34.6922 13.6425 34.6699C13.6532 34.6476 13.659 34.6234 13.6597 34.5984C13.6603 34.5735 13.6558 34.5484 13.6464 34.5246C13.6069 34.4245 13.4916 34.3695 13.3889 34.4019C10.9659 35.1642 8.24812 34.0139 7.05653 31.8115C7.72636 32.4999 8.57724 33.0296 9.5041 33.3279C10.6638 33.7012 12.1885 33.8565 13.3138 33.4954C13.7138 33.3671 14.0942 33.1937 14.4473 32.9788C14.4711 32.9642 14.4911 32.9447 14.5057 32.9216C14.5204 32.8984 14.5294 32.8722 14.5321 32.8448C14.5349 32.8174 14.5312 32.7894 14.5215 32.7628C14.5118 32.7361 14.4963 32.7116 14.4759 32.6907L13.9365 32.1383L16.2222 31.6199L15.6942 34.114L15.2066 33.6146C15.1708 33.578 15.1225 33.5551 15.0715 33.5507C15.0205 33.5463 14.9707 33.5606 14.9325 33.5908C14.6812 33.7891 14.4086 33.9621 14.1187 34.1073C14.0739 34.1307 14.0415 34.1705 14.0284 34.2181C14.0153 34.2658 14.0227 34.3174 14.0489 34.362C14.0751 34.4066 14.1181 34.4404 14.1685 34.4563C14.2189 34.4722 14.2728 34.4688 14.3185 34.4469C14.5765 34.3177 14.8218 34.168 15.0521 33.9994L15.5253 34.4839C15.5649 34.5245 15.6148 34.5547 15.6696 34.571C15.7244 34.5874 15.7821 34.5894 15.8363 34.5767C15.8906 34.5642 15.9394 34.5375 15.9776 34.4996C16.0157 34.4616 16.0417 34.4139 16.0527 34.3615Z" fill="#1E866F"/>
<defs>
<clipPath id="clip0_9810_2620">
<rect width="23" height="23" fill="white" transform="translate(0 6.74609)"/>
</clipPath>
</defs>
</svg>
