<svg width="85" height="84" viewBox="0 0 85 84" fill="none" xmlns="http://www.w3.org/2000/svg">
<path d="M80.4859 29.1735V17.0261C80.4803 12.2498 76.6094 8.37883 71.8331 8.37346H69.5547V7.0072C69.5349 3.13089 66.387 0 62.511 0C58.635 0 55.4879 3.13073 55.467 7.0072V8.3733H30.0188V7.00736C29.9991 3.13089 26.851 0 22.9752 0C19.0993 0 15.9522 3.13073 15.931 7.0072V8.3733H13.6521C8.87631 8.37883 5.00537 12.2498 5 17.0261V70.0971C5.00553 74.8734 8.87631 78.7443 13.6521 78.7498H71.8331C76.6094 78.7443 80.4803 74.8735 80.4857 70.0972V30.4223C80.6226 30.0173 80.6226 29.5784 80.4857 29.1734L80.4859 29.1735ZM62.5112 3.90236C64.2245 3.90473 65.6128 5.29262 65.6147 7.0072V11.1556C65.6018 12.8597 64.2153 14.2345 62.5099 14.2345C60.8051 14.2345 59.4193 12.8597 59.4057 11.1556V7.00736C59.4076 5.29262 60.7966 3.90426 62.5112 3.90236ZM19.8696 7.0072C19.8831 5.30194 21.2691 3.92699 22.9738 3.92699C24.6792 3.92699 26.0645 5.30178 26.0788 7.0072V11.1556C26.0645 12.8597 24.6792 14.2345 22.9739 14.2345C21.2691 14.2345 19.8831 12.8597 19.8697 11.1556L19.8696 7.0072ZM13.6521 12.3126H16.0272C16.5934 15.7086 19.5312 18.198 22.9741 18.198C26.4174 18.198 29.3552 15.7086 29.9214 12.3126H55.5638C56.13 15.7086 59.0683 18.198 62.5112 18.198C65.954 18.198 68.8923 15.7086 69.4579 12.3126H71.8331C74.4352 12.3158 76.5434 14.424 76.5466 17.0261V27.8276H8.93931V17.0267C8.94168 14.4246 11.0513 12.3158 13.6521 12.3126ZM71.8331 74.8104H13.6521C11.0511 74.8074 8.94231 72.6993 8.93931 70.0972V31.7668H76.5466V70.0972C76.5434 72.6993 74.4352 74.8075 71.8331 74.8107V74.8104Z" fill="#1E866F"/>
<path d="M35.0006 46.367C34.9968 46.4569 35.0113 46.5467 35.0433 46.6308C35.0752 46.7149 35.1239 46.7915 35.1863 46.8559C35.2488 46.9204 35.3236 46.9712 35.4063 47.0055C35.489 47.0397 35.5778 47.0565 35.6672 47.0549H37.949C38.3307 47.0549 38.635 46.7402 38.6848 46.3586C38.9337 44.5315 40.1783 43.2002 42.3966 43.2002C44.294 43.2002 46.0309 44.1555 46.0309 46.4533C46.0309 48.2219 44.9965 49.0352 43.3619 50.2718C41.5004 51.6338 40.0262 53.2242 40.1313 55.806L40.1396 56.4104C40.1425 56.5932 40.2166 56.7674 40.346 56.8956C40.4754 57.0238 40.6496 57.0956 40.8311 57.0956H43.0742C43.2576 57.0956 43.4335 57.0222 43.5632 56.8916C43.6928 56.7611 43.7657 56.584 43.7657 56.3993V56.1068C43.7657 54.1071 44.5208 53.525 46.5592 51.968C48.2437 50.6785 50 49.2469 50 46.2416C50 42.0332 46.4707 40 42.6068 40C39.1024 40 35.2633 41.6433 35.0006 46.367ZM39.3071 62.4181C39.3071 63.9026 40.4826 65 42.1006 65C43.785 65 44.944 63.9026 44.944 62.4181C44.944 60.8807 43.7823 59.8 42.0979 59.8C40.4826 59.8 39.3071 60.8807 39.3071 62.4181Z" fill="#1E866F"/>
</svg>
