<svg xmlns="http://www.w3.org/2000/svg" width="24" height="24" viewBox="0 0 24 24"><path d="M-543.078,77.336q.745.091,1.49.183c.094.012.188.029.281.047.327.064.516.293.456.55a.554.554,0,0,1-.653.365,20.522,20.522,0,0,0-2.507-.2c-4.877.141-8.588,2.112-10.806,5.988-2.272,3.97-1.792,7.863,1.045,11.524.049.063.1.123.128.15a8.132,8.132,0,0,1,1.113-.173,2.12,2.12,0,0,1,2.09,1.431,1.871,1.871,0,0,1-.965,2.177,2.386,2.386,0,0,1-2.627-.231,1.782,1.782,0,0,1-.47-2.3.323.323,0,0,0-.049-.442,11.056,11.056,0,0,1-2.644-6.259,1.636,1.636,0,0,0-.043-.2V88.5c.085-.527.149-1.058.258-1.582.992-4.744,5.423-8.619,10.746-9.4.494-.073.993-.123,1.49-.183Zm-9.482,19.356a1.088,1.088,0,0,0-1.136,1.024,1.1,1.1,0,0,0,1.142,1.021,1.089,1.089,0,0,0,1.146-1.039A1.089,1.089,0,0,0-552.559,96.692Z" transform="translate(557.237 -77.336)" fill="#727380"/><path d="M-357.418,131.715l-1.489-.183c-.086-.011-.171-.026-.255-.043-.336-.068-.507-.276-.452-.549s.311-.394.646-.364c.861.077,1.724.2,2.586.2,4.843-.019,9.4-2.787,11.159-6.821a9.858,9.858,0,0,0-1.516-10.711c-.035-.044-.073-.087-.111-.129-.011-.012-.025-.021,0,0a8.106,8.106,0,0,1-1.111.174,2.126,2.126,0,0,1-2.092-1.431,1.867,1.867,0,0,1,.966-2.176,2.377,2.377,0,0,1,2.626.227,1.786,1.786,0,0,1,.468,2.3.324.324,0,0,0,.051.443A11.066,11.066,0,0,1-343.3,118.9a1.64,1.64,0,0,0,.043.2v1.442c-.015.06-.034.119-.044.18-.091.551-.148,1.108-.274,1.653-1.067,4.617-5.486,8.4-10.687,9.151-.494.072-.993.123-1.489.184Zm9.463-19.356a1.094,1.094,0,0,0,1.153-1.009,1.094,1.094,0,0,0-1.151-1.037,1.09,1.09,0,0,0-1.137,1.023A1.084,1.084,0,0,0-347.954,112.359Z" transform="translate(367.258 -107.715)" fill="#727380"/><path d="M-468.941,163.034c.144.137.337.312.52.5a.464.464,0,0,1,0,.755q-.923.929-1.851,1.852a.471.471,0,0,1-.771-.008l-.51-.5c-.01-.01-.026-.013.008,0-.553.216-1.073.415-1.587.626a.257.257,0,0,0-.129.185c-.016.23,0,.462-.008.693a.434.434,0,0,1-.461.465q-1.376.008-2.753,0a.438.438,0,0,1-.47-.48c0-.224-.006-.448,0-.671a.181.181,0,0,0-.147-.206c-.516-.191-1.025-.4-1.6-.621-.135.143-.31.335-.494.519a.464.464,0,0,1-.755,0q-.936-.932-1.867-1.868a.456.456,0,0,1,0-.738c.184-.184.378-.358.525-.5-.225-.581-.426-1.109-.638-1.631a.239.239,0,0,0-.178-.11c-.223-.013-.447,0-.671-.006a.443.443,0,0,1-.487-.486q0-1.354,0-2.708a.44.44,0,0,1,.481-.491c.224,0,.448.009.671-.007a.259.259,0,0,0,.187-.127c.212-.515.41-1.035.638-1.618-.145-.134-.34-.306-.524-.49a.457.457,0,0,1,0-.738q.931-.936,1.868-1.867a.464.464,0,0,1,.755,0c.149.146.289.3.448.438a.258.258,0,0,0,.219.034q.716-.281,1.421-.589a.261.261,0,0,0,.135-.18c.017-.23,0-.462.009-.693a.432.432,0,0,1,.462-.465q1.376-.007,2.753,0a.438.438,0,0,1,.469.48c0,.224-.007.448.006.671a.241.241,0,0,0,.108.18c.523.212,1.05.411,1.637.637.136-.145.309-.339.492-.523a.456.456,0,0,1,.738,0q.937.93,1.868,1.866a.465.465,0,0,1-.009.755c-.179.178-.368.347-.511.48.225.582.425,1.11.637,1.632a.24.24,0,0,0,.177.112c.223.014.447,0,.671.006a.44.44,0,0,1,.488.483q.005,1.354,0,2.708a.448.448,0,0,1-.5.494c-.224,0-.448-.008-.671.007a.236.236,0,0,0-.167.123C-468.517,161.939-468.717,162.459-468.941,163.034Zm1.07-4.532h-.357c-.112,0-.224,0-.336,0a.461.461,0,0,1-.509-.4,6.515,6.515,0,0,0-.82-1.971.448.448,0,0,1,.077-.625c.163-.163.337-.315.5-.464l-1.385-1.391c-.141.156-.285.327-.441.485a.463.463,0,0,1-.679.077,6.349,6.349,0,0,0-1.91-.794.47.47,0,0,1-.429-.532c0-.221,0-.443,0-.672h-1.868c-.011.023-.022.036-.023.049,0,.209,0,.418-.006.626a.466.466,0,0,1-.41.527,6.5,6.5,0,0,0-1.951.81.449.449,0,0,1-.643-.077c-.161-.163-.309-.34-.444-.49l-1.381,1.39c.145.136.312.284.469.443a.462.462,0,0,1,.075.662,6.412,6.412,0,0,0-.8,1.909c-.081.337-.217.439-.569.442-.213,0-.426,0-.642,0v1.9c.242,0,.472,0,.7,0a.449.449,0,0,1,.5.388,6.489,6.489,0,0,0,.816,1.973.453.453,0,0,1-.078.643c-.163.162-.339.312-.5.46l1.394,1.378c.139-.15.286-.318.443-.476a.463.463,0,0,1,.678-.077,6.279,6.279,0,0,0,1.89.783c.346.08.449.222.451.587,0,.212,0,.425,0,.632h1.878a.311.311,0,0,0,.015-.057c0-.2,0-.4,0-.6a.475.475,0,0,1,.436-.549,6.4,6.4,0,0,0,1.91-.795.463.463,0,0,1,.678.085c.157.158.3.328.435.475l1.383-1.382c-.156-.147-.329-.3-.492-.464a.453.453,0,0,1-.071-.643,6.509,6.509,0,0,0,.809-1.952.454.454,0,0,1,.506-.4c.229,0,.458,0,.7,0Z" transform="translate(487.113 -147.453)" fill="#727380"/><path d="M-218.642,96.3a.534.534,0,0,1-.51-.544.518.518,0,0,1,.53-.492.511.511,0,0,1,.506.538A.526.526,0,0,1-218.642,96.3Z" transform="translate(234.929 -94.33)" fill="#727380"/><path d="M-401.822,552.267a.5.5,0,0,1-.528.491.515.515,0,0,1-.5-.522.525.525,0,0,1,.547-.508A.513.513,0,0,1-401.822,552.267Z" transform="translate(410.058 -529.685)" fill="#727380"/><path d="M-379.612,250.671a4.318,4.318,0,0,1,4.305,4.3,4.319,4.319,0,0,1-4.3,4.3,4.319,4.319,0,0,1-4.305-4.3A4.318,4.318,0,0,1-379.612,250.671Zm3.264,4.3a3.279,3.279,0,0,0-3.271-3.254,3.278,3.278,0,0,0-3.255,3.269,3.281,3.281,0,0,0,3.27,3.255A3.281,3.281,0,0,0-376.348,254.966Z" transform="translate(391.611 -242.974)" fill="#727380"/></svg>