<svg xmlns="http://www.w3.org/2000/svg" width="12.477" height="16.681" viewBox="0 0 12.477 16.681">
    <path data-name="Path 68494" d="M551.308 136c.382.076.771.123 1.143.235a4.849 4.849 0 0 1 2.375 1.506 1.9 1.9 0 0 1 .437.836.937.937 0 0 1-.255.881 3.457 3.457 0 0 1-.536.423.232.232 0 0 0-.132.224c.009.342 0 .684.007 1.026a.731.731 0 0 0 .075.215l.011.012a1.615 1.615 0 0 1 .005 1.539 2.007 2.007 0 0 1-.433.273c-.041.026-.1.067-.1.107a2.892 2.892 0 0 1-1.248 2.044c-.029.02-.075.054-.073.078q.025.32.069.638a.112.112 0 0 0 .092.061 2.561 2.561 0 0 1 .934.115c.442.069.88.167 1.321.247a2.8 2.8 0 0 1 2.129 2.327 5.042 5.042 0 0 1 .035.633v2.378a.786.786 0 0 1-.849.881h-10.77a.787.787 0 0 1-.851-.88v-1.075c0-.183.085-.288.227-.293s.245.105.247.292v1.108c0 .248.107.358.347.359h.893v-1.857a1.219 1.219 0 0 1 0-.13.236.236 0 0 1 .252-.234.227.227 0 0 1 .219.248v1.962h2.985c.057-.412.114-.819.169-1.227.089-.661.167-1.323.27-1.982.027-.171-.07-.244-.145-.349a.253.253 0 0 0-.333-.127.516.516 0 0 1-.6-.258c-.32-.465-.646-.925-.961-1.393a.21.21 0 0 0-.259-.1c-.371.081-.745.142-1.118.215a2.909 2.909 0 0 0-.287.087.863.863 0 0 1-.07 1.158l-.109.14a.8.8 0 0 1-1.174.212c-.028.19-.063.367-.079.546-.014.151 0 .3-.01.456a.23.23 0 0 1-.244.225.225.225 0 0 1-.224-.228 2.838 2.838 0 0 1 1.935-3.026c.412-.124.845-.177 1.269-.259q.473-.093.948-.178a.37.37 0 0 1 .186 0c.128.048.19-.022.205-.125a4.281 4.281 0 0 0 .036-.548c0-.034-.052-.077-.088-.1a2.864 2.864 0 0 1-1.226-2.021c-.013-.088-.044-.112-.124-.128a.729.729 0 0 1-.586-.71 3.959 3.959 0 0 1 .007-.65 1.121 1.121 0 0 1 .163-.429.475.475 0 0 0 .094-.276 24.478 24.478 0 0 1 0-.977.25.25 0 0 0-.131-.241 3.315 3.315 0 0 1-.6-.5.93.93 0 0 1-.143-.992 2.854 2.854 0 0 1 .968-1.22 5.314 5.314 0 0 1 2.812-1.143 1.058 1.058 0 0 0 .122-.027zm-2.472 5.021v.562a.331.331 0 0 1-.554.262 1.22 1.22 0 0 0-.318-.17c-.164-.055-.229-.006-.237.17a6.736 6.736 0 0 0 0 .586.249.249 0 0 0 .25.26c.052.005.105 0 .158 0 .184.009.247.08.275.265a3.973 3.973 0 0 0 .141.746 2.455 2.455 0 0 0 2.067 1.661 2.525 2.525 0 0 0 2.729-1.775 4.624 4.624 0 0 0 .1-.64c.024-.178.09-.248.265-.258.068 0 .151.018.2-.014.082-.051.193-.13.2-.21a3.878 3.878 0 0 0 .006-.665c-.005-.111-.069-.188-.192-.138a1.551 1.551 0 0 0-.337.164.348.348 0 0 1-.38.072.352.352 0 0 1-.2-.359v-.52a7.623 7.623 0 0 1-4.172.001zm6.137 11.163V150.225a.228.228 0 0 1 .229-.255.238.238 0 0 1 .243.245V152.19c.335 0 .65.007.965 0 .172-.005.274-.137.274-.333 0-.912 0-1.824-.005-2.736a4.474 4.474 0 0 0-.077-.565.806.806 0 0 1-1.192-.235c-.07-.088-.143-.175-.205-.269a.812.812 0 0 1-.064-.819 2.235 2.235 0 0 1 .11-.195c-.12-.032-.225-.067-.332-.088-.367-.073-.736-.137-1.1-.215a.183.183 0 0 0-.221.1c-.321.471-.646.938-.972 1.405a.562.562 0 0 1-.689.249.2.2 0 0 0-.154.043 2.208 2.208 0 0 0-.158.181.276.276 0 0 0-.074.261c.105.741.2 1.483.3 2.224.044.331.092.662.139.993zm-1.129-12.608c.013-.029.021-.038.021-.048v-.472c0-.255-.052-.322-.294-.383a13.489 13.489 0 0 0-2.243-.372 8.794 8.794 0 0 0-3.135.392.33.33 0 0 0-.2.22 5.176 5.176 0 0 0-.009.662h4.043c.179 0 .28.086.285.232s-.1.249-.284.256h-3.894a1.7 1.7 0 0 0 .782.466 6.782 6.782 0 0 0 2.893.242 4.109 4.109 0 0 0 1.63-.473c.1-.056.185-.129.28-.2-.022-.024-.026-.03-.029-.03l-.41-.008c-.183 0-.294-.1-.295-.246s.108-.24.294-.242.386.004.566.004zm-6.33-.172v-.474a.749.749 0 0 1 .52-.7 9.9 9.9 0 0 1 2.643-.433 11.816 11.816 0 0 1 3.106.43.744.744 0 0 1 .56.754v.409c.5-.284.6-.633.292-1.08a3.571 3.571 0 0 0-.607-.678 4.815 4.815 0 0 0-5.95-.2 3.058 3.058 0 0 0-.925.987.594.594 0 0 0 .153.834c.056.041.118.082.208.147zm3.415 8.063 1.341-1.032-.212-.78a2.945 2.945 0 0 1-2.257 0l-.213.779zm-.58 4.718h1.16l-.43-3.18h-.3zm.106-4.472c-.471-.363-.922-.7-1.361-1.054a.331.331 0 0 0-.37-.044c0 .014-.007.021-.005.024.3.443.605.886.914 1.325a.158.158 0 0 0 .146.041c.221-.086.435-.186.676-.292zm.949 0c.222.1.425.182.623.278a.16.16 0 0 0 .237-.069c.274-.4.556-.8.834-1.206a.745.745 0 0 0 .048-.095.33.33 0 0 0-.4.055c-.142.129-.3.236-.453.353zm-5.257-.408a2.24 2.24 0 0 0-.676.766c.208.219.383.214.563-.008.067-.083.135-.167.2-.254a.32.32 0 0 0-.088-.509zm10.243.768a2.275 2.275 0 0 0-.683-.772c-.2.173-.218.322-.075.516.061.082.124.162.188.241.18.225.349.233.569.014zm-5.016.173c-.408-.231-.507-.231-.88 0a.486.486 0 0 0 .879-.001zm-3.021-6.96c.037-.46-.02-.557-.358-.636v.519zm5.517-.119v-.533c-.389.173-.432.254-.352.647z" transform="translate(-544.688 -136)" style="fill:#1e866f"/>
</svg>
