<svg xmlns="http://www.w3.org/2000/svg" width="49.199" height="25.751" viewBox="0 0 49.199 25.751">
  <g id="Group_73900" data-name="Group 73900" transform="translate(-1204.431 2501.855)">
    <path id="Path_65110" data-name="Path 65110" d="M300.016,116.315c-2.059,1.236-5.273,3.251-6.937,4.3a.7.7,0,0,1-1.08-.6V112.25l7.808,2.381A.928.928,0,0,1,300.016,116.315Z" transform="translate(951.761 -2596.827)" fill="#ba8b1a"/>
    <g id="Group_72346" data-name="Group 72346" transform="translate(1225.457 -2501.855)">
      <g id="Group_72349" data-name="Group 72349" transform="translate(-21.026 0)">
        <g id="Group_72348" data-name="Group 72348" transform="translate(0)">
          <g id="Group_72347" data-name="Group 72347" transform="translate(0 0)">
            <path id="Path_65111" data-name="Path 65111" d="M194.7,61.548h45.233a.672.672,0,0,1,.538.94l-.245.383h0a4.641,4.641,0,0,0,2.028-3.942l-.005-1.076-.091-14.6a1.769,1.769,0,0,0-1.5-1.816l-45.814-.013a1.728,1.728,0,0,0-1.792,1.829V59.711A1.749,1.749,0,0,0,194.7,61.548Z" transform="translate(-193.057 -41.412)" fill="#ffbf47"/>
          </g>
        </g>
      </g>
    </g>
    <text id="vip" transform="translate(1236.53 -2487.126)" fill="#fff" font-size="12" font-family="Somar-Regular, Somar" letter-spacing="0.003em"><tspan x="-15.312" y="0">vip</tspan></text>
  </g>
</svg>
