<svg width="6" height="5" viewBox="0 0 6 5" fill="none" xmlns="http://www.w3.org/2000/svg">
<path d="M0 1.02273C0 0.751483 0.101594 0.491348 0.282433 0.29955C0.463271 0.107751 0.708541 0 0.964286 0H5.03571C5.29146 0 5.53673 0.107751 5.71757 0.29955C5.89841 0.491348 6 0.751483 6 1.02273V3.97727C6 4.24852 5.89841 4.50865 5.71757 4.70045C5.53673 4.89225 5.29146 5 5.03571 5H0.964286C0.708541 5 0.463271 4.89225 0.282433 4.70045C0.101594 4.50865 0 4.24852 0 3.97727V1.02273ZM0.964286 0.454545C0.822205 0.454545 0.685944 0.514407 0.585479 0.620962C0.485013 0.727517 0.428571 0.872036 0.428571 1.02273V1.36364H5.57143V1.02273C5.57143 0.872036 5.51499 0.727517 5.41452 0.620962C5.31406 0.514407 5.17779 0.454545 5.03571 0.454545H0.964286ZM0.428571 3.97727C0.428571 4.12796 0.485013 4.27248 0.585479 4.37904C0.685944 4.48559 0.822205 4.54545 0.964286 4.54545H5.03571C5.17779 4.54545 5.31406 4.48559 5.41452 4.37904C5.51499 4.27248 5.57143 4.12796 5.57143 3.97727V1.81818H0.428571V3.97727ZM4.07143 3.18182H4.71429C4.77112 3.18182 4.82562 3.20576 4.86581 3.24838C4.906 3.29101 4.92857 3.34881 4.92857 3.40909C4.92857 3.46937 4.906 3.52718 4.86581 3.5698C4.82562 3.61242 4.77112 3.63636 4.71429 3.63636H4.07143C4.0146 3.63636 3.96009 3.61242 3.91991 3.5698C3.87972 3.52718 3.85714 3.46937 3.85714 3.40909C3.85714 3.34881 3.87972 3.29101 3.91991 3.24838C3.96009 3.20576 4.0146 3.18182 4.07143 3.18182Z" fill="#1E866F"/>
</svg>
