<svg xmlns="http://www.w3.org/2000/svg" width="73.149" height="71.413" viewBox="0 0 73.149 71.413">
    <g data-name="Group 76832">
        <path data-name="Path 68457" d="M709.534 111.766h-24.5a10.454 10.454 0 0 0-10.454 10.454v24.5a10.454 10.454 0 0 0 10.454 10.454h24.5a10.454 10.454 0 0 0 10.454-10.454v-24.5a10.454 10.454 0 0 0-10.454-10.454zm-23.062 11.3 1.891 1.891-1.891 1.891-1.891-1.891zm1.137 6.014 1.891-1.891 1.891 1.891-1.891 1.891zm1.592 4.123-1.891 1.891-1.891-1.891 1.891-1.891zm-4.62-5.553 1.891 1.891-1.891 1.891-1.891-1.891zm-3.744 7.1 1.891-1.891 1.891 1.891-1.891 1.891zm27.642 14.364a17.89 17.89 0 0 1-3.017 1.339 18.411 18.411 0 0 1-2.922.734 15.707 15.707 0 0 1-2.413.222 18.289 18.289 0 0 1-6.479-1.144 15.127 15.127 0 0 1-8.785-8.3 15.246 15.246 0 0 1-1.153-4.218h7.74a9.9 9.9 0 0 0 .323 1.064 8.6 8.6 0 0 0 1.779 2.918 8.709 8.709 0 0 0 6.575 2.79 7.223 7.223 0 0 0 5.907-2.858l5.082 5.472a11.773 11.773 0 0 1-2.636 1.981zm-11.771-14.908 1.057-1.057 2.39 2.39 2.39-2.39 1.057 1.057-3.447 3.447zm9.2-4.9a12.208 12.208 0 0 0-2.8-2.223 6 6 0 0 0-2.985-.826 8.859 8.859 0 0 0-3.748.762 9.009 9.009 0 0 0-2.273 1.484l-4.886-5.48a15.767 15.767 0 0 1 4.427-2.506 18.3 18.3 0 0 1 6.479-1.144 16.54 16.54 0 0 1 5.878 1.114 13.376 13.376 0 0 1 5.177 3.538z" transform="translate(-660.708 -111.766)" style="fill:#20886f"/>
        <g data-name="Group 76741">
            <g data-name="Group 76740">
                <path data-name="Path 68458" d="M252.161 1005.427a7.577 7.577 0 0 1-3.305-.653 4.814 4.814 0 0 1-2.1-1.906 6.475 6.475 0 0 1-.829-3.057q-.021-.85-.021-1.823t.021-1.865a6.356 6.356 0 0 1 .839-3.036 4.93 4.93 0 0 1 2.124-1.917 7.44 7.44 0 0 1 3.274-.663 8.546 8.546 0 0 1 2.528.352 5.918 5.918 0 0 1 1.969 1.015 4.759 4.759 0 0 1 1.285 1.554 4.706 4.706 0 0 1 .5 1.989.406.406 0 0 1-.135.311.457.457 0 0 1-.321.125h-2.362a.584.584 0 0 1-.394-.125.834.834 0 0 1-.228-.414 2.641 2.641 0 0 0-1.036-1.679 3.329 3.329 0 0 0-1.8-.456 2.839 2.839 0 0 0-2.031.7 3.294 3.294 0 0 0-.808 2.342q-.062 1.7 0 3.481a3.294 3.294 0 0 0 .808 2.342 2.837 2.837 0 0 0 2.031.7 3.323 3.323 0 0 0 1.813-.466 2.58 2.58 0 0 0 1.017-1.658.787.787 0 0 1 .228-.425.622.622 0 0 1 .394-.114h2.362a.458.458 0 0 1 .321.124.406.406 0 0 1 .135.311 4.6 4.6 0 0 1-1.782 3.543 5.909 5.909 0 0 1-1.969 1.015 8.538 8.538 0 0 1-2.528.353z" transform="translate(-245.903 -934.015)" style="fill:#20886f"/>
                <path data-name="Path 68459" d="M460.478 1058.135a4.426 4.426 0 0 1-1.969-.425 3.611 3.611 0 0 1-1.388-1.15 2.827 2.827 0 0 1 .673-3.937 7.346 7.346 0 0 1 3.139-1.161l2.715-.394v-.373a1.857 1.857 0 0 0-.373-1.243 1.65 1.65 0 0 0-1.306-.435 1.991 1.991 0 0 0-1.1.269 1.852 1.852 0 0 0-.642.7.528.528 0 0 1-.477.269h-1.969a.454.454 0 0 1-.352-.135.389.389 0 0 1-.1-.321 1.748 1.748 0 0 1 .27-.829 3.512 3.512 0 0 1 .829-.943 4.668 4.668 0 0 1 1.43-.777 6.387 6.387 0 0 1 2.134-.311 7.112 7.112 0 0 1 2.238.311 3.739 3.739 0 0 1 1.492.87 3.53 3.53 0 0 1 .829 1.3 4.578 4.578 0 0 1 .269 1.585v6.4a.5.5 0 0 1-.518.518h-2.032a.478.478 0 0 1-.352-.145.5.5 0 0 1-.145-.373v-.766a3.185 3.185 0 0 1-.725.736 3.739 3.739 0 0 1-1.088.549 4.767 4.767 0 0 1-1.482.211zm.829-2.155a2.536 2.536 0 0 0 1.223-.29 2.042 2.042 0 0 0 .85-.891 3.276 3.276 0 0 0 .311-1.513v-.352l-1.927.311a3.994 3.994 0 0 0-1.637.559 1.1 1.1 0 0 0-.518.912 1.044 1.044 0 0 0 .238.684 1.439 1.439 0 0 0 .632.435 2.374 2.374 0 0 0 .828.145z" transform="translate(-442.678 -986.723)" style="fill:#20886f"/>
                <path data-name="Path 68460" d="M644.837 1058.135a7.162 7.162 0 0 1-2.207-.3 5 5 0 0 1-1.492-.736 3.462 3.462 0 0 1-.85-.881 1.724 1.724 0 0 1-.3-.756.418.418 0 0 1 .145-.373.507.507 0 0 1 .332-.145h2.01a.4.4 0 0 1 .124.021.277.277 0 0 1 .125.1q.269.187.559.425a2.813 2.813 0 0 0 .674.4 2.435 2.435 0 0 0 .964.166 2.256 2.256 0 0 0 1.16-.28.879.879 0 0 0 .477-.8.91.91 0 0 0-.218-.622 1.945 1.945 0 0 0-.819-.456 15.975 15.975 0 0 0-1.782-.456 7.664 7.664 0 0 1-1.906-.663 2.977 2.977 0 0 1-1.181-1.046 2.82 2.82 0 0 1-.394-1.523 2.724 2.724 0 0 1 .508-1.554 3.762 3.762 0 0 1 1.5-1.233 5.639 5.639 0 0 1 2.487-.487 6.465 6.465 0 0 1 2 .28 5.081 5.081 0 0 1 1.44.7 3.638 3.638 0 0 1 .881.87 1.653 1.653 0 0 1 .321.777.417.417 0 0 1-.124.352.456.456 0 0 1-.332.145H647.1a.524.524 0 0 1-.187-.031.408.408 0 0 1-.145-.093 5.893 5.893 0 0 1-.508-.383 2.819 2.819 0 0 0-.611-.384 2.156 2.156 0 0 0-.912-.166 1.6 1.6 0 0 0-1.047.3.943.943 0 0 0-.363.757.88.88 0 0 0 .187.539 1.653 1.653 0 0 0 .767.456 12.918 12.918 0 0 0 1.761.435 6.625 6.625 0 0 1 2.238.746 3.189 3.189 0 0 1 1.191 1.15 2.835 2.835 0 0 1 .363 1.4 2.768 2.768 0 0 1-.58 1.73 3.756 3.756 0 0 1-1.689 1.181 7.649 7.649 0 0 1-2.728.438z" transform="translate(-613.94 -986.723)" style="fill:#20886f"/>
                <path data-name="Path 68461" d="M819.57 1005.22a.5.5 0 0 1-.518-.518v-13.677a.5.5 0 0 1 .518-.518h2.238a.481.481 0 0 1 .352.145.507.507 0 0 1 .145.373v4.663a4.137 4.137 0 0 1 1.367-1.057 4.417 4.417 0 0 1 1.948-.394 4.224 4.224 0 0 1 2.166.549 3.815 3.815 0 0 1 1.482 1.6 5.5 5.5 0 0 1 .539 2.539v5.781a.5.5 0 0 1-.518.518h-2.259a.479.479 0 0 1-.352-.145.5.5 0 0 1-.145-.373v-5.657a2.5 2.5 0 0 0-.539-1.709 1.936 1.936 0 0 0-1.533-.612 2.075 2.075 0 0 0-1.564.612 2.358 2.358 0 0 0-.591 1.709v5.657a.506.506 0 0 1-.145.373.479.479 0 0 1-.352.145z" transform="translate(-781.172 -934.015)" style="fill:#20886f"/>
                <path data-name="Path 68462" d="M1018.961 986.637a.478.478 0 0 1-.352-.145.5.5 0 0 1-.145-.373v-1.658a.541.541 0 0 1 .145-.383.464.464 0 0 1 .352-.155h2.176a.531.531 0 0 1 .539.539v1.658a.486.486 0 0 1-.156.373.54.54 0 0 1-.383.145zm.062 12.434a.479.479 0 0 1-.352-.145.5.5 0 0 1-.145-.373v-9.74a.5.5 0 0 1 .145-.373.48.48 0 0 1 .352-.145h2.073a.5.5 0 0 1 .518.518v9.74a.5.5 0 0 1-.518.518z" transform="translate(-967.405 -927.867)" style="fill:#20886f"/>
                <path data-name="Path 68463" d="M1093.541 996.437a.5.5 0 0 1-.518-.518v-7.812h-1.616a.5.5 0 0 1-.518-.518v-1.409a.5.5 0 0 1 .518-.518h1.616v-.746a4.261 4.261 0 0 1 .5-2.176 2.918 2.918 0 0 1 1.45-1.243 6.145 6.145 0 0 1 2.342-.394h1.513a.5.5 0 0 1 .518.518v1.409a.5.5 0 0 1-.518.518h-1.389a1.3 1.3 0 0 0-1.067.373 1.718 1.718 0 0 0-.3 1.1v.642h2.549a.5.5 0 0 1 .518.518v1.409a.5.5 0 0 1-.518.518h-2.549v7.812a.505.505 0 0 1-.145.373.48.48 0 0 1-.352.145z" transform="translate(-1035.042 -925.232)" style="fill:#20886f"/>
                <path data-name="Path 68464" d="M1262.95 1002.814a.481.481 0 0 0-.352-.145h-1.513a1.069 1.069 0 0 1-.984-.445 2.308 2.308 0 0 1-.28-1.233v-4.1h2.591a.479.479 0 0 0 .352-.146.5.5 0 0 0 .146-.373v-1.408a.5.5 0 0 0-.146-.373.479.479 0 0 0-.352-.146h-2.591v-3.419a.5.5 0 0 0-.518-.519h-2.031a.512.512 0 0 0-.363.146.487.487 0 0 0-.155.373v3.419h2.223a.5.5 0 0 1 .518.519v1.408a.5.5 0 0 1-.518.519h-2.223v4.351a4.793 4.793 0 0 0 .466 2.238 2.894 2.894 0 0 0 1.378 1.316 5.175 5.175 0 0 0 2.2.425h1.8a.479.479 0 0 0 .352-.146.5.5 0 0 0 .145-.373v-1.533a.481.481 0 0 0-.145-.355z" transform="translate(-1189.946 -934.013)" style="fill:#20886f"/>
            </g>
        </g>
        <g data-name="Group 76742">
            <path data-name="Path 68465" d="m1379.883 1048.36-1.578 6.3a.175.175 0 0 1-.17.133h-1.469a.175.175 0 0 1-.17-.133l-.844-3.414a.175.175 0 0 0-.339 0l-.851 3.415a.175.175 0 0 1-.17.133h-1.47a.176.176 0 0 1-.17-.133l-1.577-6.3a.175.175 0 0 1 .17-.217h1.177a.175.175 0 0 1 .17.134l.646 2.722.226 1.058a.175.175 0 0 0 .342 0l.226-1.058.646-2.722a.175.175 0 0 1 .17-.134h1.332a.175.175 0 0 1 .17.133l.674 2.723.227 1.039a.175.175 0 0 0 .342 0l.205-1.035.646-2.722a.175.175 0 0 1 .17-.134h1.1a.175.175 0 0 1 .169.212z" transform="translate(-1328.706 -1000.842)" style="fill:#ffae32"/>
            <path data-name="Path 68466" d="m1514.379 1071.544-.159-.569a.175.175 0 0 1 .106-.211c1.549-.593 3.656-.609 3.656 1.444v3.156a.175.175 0 0 1-.175.175h-1.015a.175.175 0 0 1-.175-.175.175.175 0 0 0-.284-.136 1.85 1.85 0 0 1-1.168.4 1.268 1.268 0 0 1-1.288-1.375c0-1.084.957-1.781 2.566-1.784a.174.174 0 0 0 .174-.175v-.036c0-1.014-1.035-.924-2.015-.594a.174.174 0 0 1-.223-.12zm.776 2.533c0 .348.281.513.61.513a1.167 1.167 0 0 0 .8-.316.172.172 0 0 0 .057-.129v-.748a.174.174 0 0 0-.166-.175c-.92-.032-1.3.498-1.3.855z" transform="translate(-1462.075 -1021.644)" style="fill:#ffae32"/>
            <path data-name="Path 68467" d="M1590.781 1054.561v-6.243a.175.175 0 0 1 .175-.175h1.015a.175.175 0 0 1 .175.175v6.243a.175.175 0 0 1-.175.175h-1.015a.175.175 0 0 1-.175-.175z" transform="translate(-1533.896 -1000.842)" style="fill:#ffae32"/>
            <path data-name="Path 68468" d="M1627.839 1054.561v-6.243a.175.175 0 0 1 .175-.175h1.015a.175.175 0 0 1 .175.175v6.243a.175.175 0 0 1-.175.175h-1.015a.175.175 0 0 1-.175-.175z" transform="translate(-1568.505 -1000.842)" style="fill:#ffae32"/>
            <path data-name="Path 68469" d="M1665.879 1073.565a3.353 3.353 0 0 0 1.088-.155.174.174 0 0 1 .219.107l.216.609a.176.176 0 0 1-.1.221 4.155 4.155 0 0 1-1.684.313 2.379 2.379 0 0 1-2.624-2.633 2.348 2.348 0 0 1 2.353-2.643c1.4 0 2.245 1.077 2.008 2.762a.176.176 0 0 1-.174.152h-2.569a.176.176 0 0 0-.173.2c.104.644.508 1.067 1.44 1.067zm-.562-3.233c-.485 0-.8.4-.881.951a.175.175 0 0 0 .173.2h1.368a.176.176 0 0 0 .174-.192c-.051-.6-.351-.959-.833-.959z" transform="translate(-1601.336 -1020.678)" style="fill:#ffae32"/>
            <path data-name="Path 68470" d="M1750.152 1054.1a.214.214 0 0 0-.158-.065h-.678a.477.477 0 0 1-.44-.2 1.031 1.031 0 0 1-.125-.553v-1.838h1.161a.214.214 0 0 0 .158-.065.225.225 0 0 0 .065-.167v-.631a.225.225 0 0 0-.065-.167.214.214 0 0 0-.158-.065h-1.161v-1.532a.223.223 0 0 0-.232-.232h-.91a.23.23 0 0 0-.162.065.219.219 0 0 0-.07.167v1.532h1a.224.224 0 0 1 .232.232v.631a.224.224 0 0 1-.232.232h-1v1.95a2.152 2.152 0 0 0 .209 1 1.3 1.3 0 0 0 .617.59 2.32 2.32 0 0 0 .984.19h.808a.214.214 0 0 0 .158-.065.225.225 0 0 0 .065-.167v-.687a.215.215 0 0 0-.066-.155z" transform="translate(-1680.141 -1001.253)" style="fill:#ffae32"/>
        </g>
    </g>
</svg>
