<svg xmlns="http://www.w3.org/2000/svg" width="107" height="107" viewBox="0 0 107 107"><g transform="translate(-140.133 48.214)"><rect width="107" height="107" rx="53.5" transform="translate(140.133 -48.214)" fill="#1e866f" opacity="0.07"/><g transform="translate(6.903 4.658)"><path d="M.661,26.732,16.438,1.76a4.389,4.389,0,0,1,7.029,0L39.244,26.732A3.416,3.416,0,0,1,36.4,32.139H3.559A3.429,3.429,0,0,1,.661,26.732Z" transform="translate(167.23 -15.871)" fill="#1e866f"/><path d="M2.568,0A2.624,2.624,0,0,0,.007,2.868l.835,9.309a1.775,1.775,0,0,0,1.726,1.671,1.775,1.775,0,0,0,1.726-1.671l.835-9.309A2.594,2.594,0,0,0,2.568,0Z" transform="translate(184.615 -7.719)" fill="#fff"/><path d="M2,0A2.036,2.036,0,0,0,0,2.076,2.027,2.027,0,0,0,2,4.143a2.027,2.027,0,0,0,2-2.066A2.036,2.036,0,0,0,2,0Z" transform="translate(185.179 7.847)" fill="#fff"/></g></g></svg>