<svg width="147" height="131" viewBox="0 0 147 131" fill="none" xmlns="http://www.w3.org/2000/svg">
<g clip-path="url(#clip0_9841_2268)">
<path d="M64.4348 36.582C64.4348 36.582 65.3712 49.2406 70.6367 52.2242C70.6367 52.2242 53.741 49.304 49.5837 42.9702C45.4265 36.6364 64.4348 36.582 64.4348 36.582Z" fill="url(#paint0_linear_9841_2268)"/>
<path d="M81.2624 73.9282C91.6758 76.7805 94.1367 75.9837 95.9914 78.777C96.204 79.0985 97.2942 80.7374 97.0725 82.8381C96.9006 84.5133 95.9643 85.8081 95.3807 86.374C91.8161 89.8284 81.9998 85.6044 76.3769 80.9774C75.151 79.9678 71.8623 77.2649 72.5273 75.3453C72.7987 74.5575 73.6401 74.1682 74.2463 73.8965C76.9198 72.7013 79.6927 73.4936 81.2624 73.9237V73.9282Z" fill="url(#paint1_linear_9841_2268)"/>
<path d="M113.412 3.88086H111.195V18.4364H113.412V3.88086Z" fill="url(#paint2_linear_9841_2268)"/>
<path d="M119.958 16.9102H104.654C103.525 16.9102 102.609 17.8264 102.609 18.9565V24.4302C102.609 25.5603 103.525 26.4765 104.654 26.4765H119.958C121.087 26.4765 122.002 25.5603 122.002 24.4302V18.9565C122.002 17.8264 121.087 16.9102 119.958 16.9102Z" fill="url(#paint3_linear_9841_2268)"/>
<path d="M106.07 21.4863H118.538C134.248 21.4863 147 34.249 147 49.9727V58.2895C147 67.1269 139.83 74.2983 131.005 74.2983H93.6079C84.7777 74.2983 77.6123 67.1224 77.6123 58.2895V49.9727C77.6123 34.249 90.3644 21.4863 106.075 21.4863H106.07Z" fill="url(#paint4_linear_9841_2268)"/>
<path d="M136.084 56.7729C135.175 57.2212 134.157 57.4566 133.126 57.4566H91.4859C90.45 57.4566 89.4322 57.2212 88.5274 56.7729C86.2973 55.6683 85.0397 53.4408 85.3518 51.1545L85.3745 50.9869C86.442 43.2451 93.4491 37.2916 102.035 36.8479C105.667 36.6578 109.481 36.5627 113.462 36.5853C116.578 36.6034 119.591 36.694 122.491 36.8434C131.113 37.2871 138.17 43.2179 139.242 50.9869C139.251 51.0413 139.255 51.1001 139.265 51.1545C139.581 53.4408 138.319 55.6683 136.089 56.7729H136.084Z" fill="url(#paint5_linear_9841_2268)"/>
<path style="mix-blend-mode:screen" d="M101.33 55.7503C105.667 55.7503 109.183 52.2315 109.183 47.8908C109.183 43.5501 105.667 40.0312 101.33 40.0312C96.9925 40.0312 93.4766 43.5501 93.4766 47.8908C93.4766 52.2315 96.9925 55.7503 101.33 55.7503Z" fill="url(#paint6_radial_9841_2268)"/>
<path d="M101.33 53.5323C104.443 53.5323 106.966 51.0066 106.966 47.8911C106.966 44.7756 104.443 42.25 101.33 42.25C98.2169 42.25 95.6934 44.7756 95.6934 47.8911C95.6934 51.0066 98.2169 53.5323 101.33 53.5323Z" fill="#EEFDFF"/>
<path d="M101.329 52.6256C103.943 52.6256 106.061 50.5054 106.061 47.8899C106.061 45.2745 103.943 43.1543 101.329 43.1543C98.7161 43.1543 96.5977 45.2745 96.5977 47.8899C96.5977 50.5054 98.7161 52.6256 101.329 52.6256Z" fill="url(#paint7_linear_9841_2268)"/>
<path d="M104.36 46.6648C104.36 47.6337 103.573 48.4215 102.605 48.4215C101.637 48.4215 100.85 47.6337 100.85 46.6648C100.85 45.696 101.637 44.9082 102.605 44.9082C103.573 44.9082 104.36 45.696 104.36 46.6648Z" fill="#EEFDFF"/>
<path d="M100.629 52.2277C101.016 52.2277 101.33 51.9135 101.33 51.526C101.33 51.1384 101.016 50.8242 100.629 50.8242C100.242 50.8242 99.9277 51.1384 99.9277 51.526C99.9277 51.9135 100.242 52.2277 100.629 52.2277Z" fill="#EEFDFF"/>
<path d="M98.8959 50.4756C98.8959 50.6702 98.7375 50.8242 98.5475 50.8242C98.3575 50.8242 98.1992 50.6657 98.1992 50.4756C98.1992 50.2854 98.3575 50.127 98.5475 50.127C98.7375 50.127 98.8959 50.2854 98.8959 50.4756Z" fill="#EEFDFF"/>
<path style="mix-blend-mode:screen" d="M122.541 55.7503C126.878 55.7503 130.394 52.2315 130.394 47.8908C130.394 43.5501 126.878 40.0312 122.541 40.0312C118.203 40.0312 114.688 43.5501 114.688 47.8908C114.688 52.2315 118.203 55.7503 122.541 55.7503Z" fill="url(#paint8_radial_9841_2268)"/>
<path d="M122.541 53.5323C125.654 53.5323 128.177 51.0066 128.177 47.8911C128.177 44.7756 125.654 42.25 122.541 42.25C119.428 42.25 116.904 44.7756 116.904 47.8911C116.904 51.0066 119.428 53.5323 122.541 53.5323Z" fill="#EEFDFF"/>
<path d="M122.54 52.6256C125.154 52.6256 127.272 50.5054 127.272 47.8899C127.272 45.2745 125.154 43.1543 122.54 43.1543C119.927 43.1543 117.809 45.2745 117.809 47.8899C117.809 50.5054 119.927 52.6256 122.54 52.6256Z" fill="url(#paint9_linear_9841_2268)"/>
<path d="M125.571 46.6648C125.571 47.6337 124.784 48.4215 123.816 48.4215C122.848 48.4215 122.061 47.6337 122.061 46.6648C122.061 45.696 122.848 44.9082 123.816 44.9082C124.784 44.9082 125.571 45.696 125.571 46.6648Z" fill="#EEFDFF"/>
<path d="M121.84 52.2277C122.227 52.2277 122.541 51.9135 122.541 51.526C122.541 51.1384 122.227 50.8242 121.84 50.8242C121.453 50.8242 121.139 51.1384 121.139 51.526C121.139 51.9135 121.453 52.2277 121.84 52.2277Z" fill="#EEFDFF"/>
<path d="M120.107 50.4756C120.107 50.6702 119.948 50.8242 119.758 50.8242C119.568 50.8242 119.41 50.6657 119.41 50.4756C119.41 50.2854 119.568 50.127 119.758 50.127C119.948 50.127 120.107 50.2854 120.107 50.4756Z" fill="#EEFDFF"/>
<path d="M115.145 2.91156C115.145 4.48256 113.873 5.75476 112.304 5.75476C110.734 5.75476 109.463 4.48256 109.463 2.91156C109.463 1.34056 110.734 0.0683594 112.304 0.0683594C113.873 0.0683594 115.145 1.34056 115.145 2.91156Z" fill="url(#paint10_linear_9841_2268)"/>
<path d="M114.276 1.80223C114.276 2.28213 113.887 2.66696 113.412 2.66696C112.937 2.66696 112.548 2.27761 112.548 1.80223C112.548 1.32686 112.937 0.9375 113.412 0.9375C113.887 0.9375 114.276 1.32686 114.276 1.80223Z" fill="white"/>
<path d="M136.75 30.5951C136.786 31.9217 135.705 33.5063 134.465 33.6421C133.303 33.7688 132.375 32.5827 131.421 31.3557C130.48 30.1469 128.417 27.0457 129.236 26.1674C130.317 25.0083 136.664 27.4622 136.75 30.5906V30.5951Z" fill="white"/>
<path d="M126.137 25.5384C126.681 25.5384 127.123 25.0965 127.123 24.5514C127.123 24.0063 126.681 23.5645 126.137 23.5645C125.592 23.5645 125.15 24.0063 125.15 24.5514C125.15 25.0965 125.592 25.5384 126.137 25.5384Z" fill="white"/>
<path d="M136.609 48.9997C136.292 49.2216 134.085 44.7214 128.159 40.8233C126.078 39.4515 124.02 38.4736 124.142 38.1883C124.264 37.8986 126.58 38.4373 128.435 39.2975C134.343 42.0411 136.985 48.7371 136.605 48.9997H136.609Z" fill="white"/>
<path d="M121.437 19.7443C121.365 19.7533 121.319 19.3413 120.976 18.6985C120.976 18.6985 120.813 18.3997 120.627 18.1461C120.03 17.3267 118.017 17.3448 117.859 17.3448C114.719 17.3719 112.697 17.1727 112.697 17.1908C112.697 17.2089 114.172 17.1773 115.249 17.1546C118.293 17.0912 120.107 16.9282 120.885 17.7432C121.206 18.0827 121.369 18.5219 121.369 18.5219C121.591 19.1195 121.514 19.7307 121.432 19.7398L121.437 19.7443Z" fill="white"/>
<path d="M120.785 60.8298C120.708 61.5814 120.084 62.1609 119.329 62.2333L108.929 63.2384C108.178 63.3108 107.449 62.8626 107.232 62.1382C107.133 61.8168 107.06 61.4863 107.011 61.1422C106.997 61.0471 107.02 60.9521 107.079 60.8751C107.137 60.7981 107.223 60.7529 107.318 60.7438L120.441 59.4761C120.536 59.4671 120.627 59.4988 120.699 59.5576C120.772 59.621 120.812 59.707 120.817 59.8021C120.83 60.1462 120.821 60.4903 120.79 60.8253L120.785 60.8298Z" fill="#EEFDFF"/>
<path d="M120.786 60.8301C120.455 64.0581 117.89 66.7112 114.538 67.0326C111.236 67.354 108.251 65.3031 107.273 62.2653C107.536 62.9127 108.219 63.3111 108.929 63.2386L119.333 62.2381C120.084 62.1611 120.709 61.5861 120.786 60.8346V60.8301Z" fill="url(#paint11_linear_9841_2268)"/>
<path d="M137.175 84.2086C137.175 84.3037 137.175 84.3942 137.175 84.4848C137.143 85.3586 136.94 86.0151 136.84 86.3093C133.977 95.0608 132.262 99.6787 129.856 103.414C129.439 104.057 129.005 104.677 128.535 105.284C127.92 106.094 127.246 106.886 126.499 107.701C124.839 109.512 122.324 110.332 121.514 110.612C118.551 111.658 115.932 111.468 114.195 111.486H113.892C112.146 111.468 109.531 111.663 106.573 110.612C105.763 110.332 103.243 109.512 101.587 107.701C97.0186 102.726 95.2589 98.5876 91.2465 86.3093C91.1515 86.0286 90.9615 85.4174 90.9162 84.598C90.9027 84.3626 90.8981 84.1226 90.9162 83.8872C91.0022 82.4203 91.5993 80.9806 92.6533 79.6677C94.4628 77.413 97.2538 76.177 100.14 76.168L114.055 76.1091L127.716 76.0548C130.665 76.0412 133.524 77.2817 135.397 79.5635C136.302 80.6682 136.881 81.8634 137.093 83.0949C137.121 83.2715 137.148 83.448 137.166 83.6246C137.184 83.8193 137.193 84.0139 137.193 84.2131L137.175 84.2086Z" fill="url(#paint12_linear_9841_2268)"/>
<path d="M114.032 76.1052L100.117 76.1641C97.2312 76.1777 94.4356 77.4136 92.6306 79.6638C91.5766 80.9767 90.9795 82.4164 90.8936 83.8833C90.9659 82.3802 91.5812 80.8997 92.6849 79.5596C94.5532 77.2778 97.4166 76.0373 100.366 76.0509L114.032 76.1052Z" fill="url(#paint13_linear_9841_2268)"/>
<path d="M127.861 96.6236C127.657 85.8212 126.196 83.6843 128.349 81.1127C128.598 80.8185 129.86 79.3108 131.936 78.926C133.592 78.6182 135.094 79.1479 135.804 79.5553C140.124 82.0046 138.839 92.6214 135.999 99.3219C135.379 100.784 133.714 104.705 131.688 104.61C130.855 104.574 130.244 103.872 129.815 103.369C127.91 101.142 127.892 98.2534 127.861 96.6236Z" fill="url(#paint14_linear_9841_2268)"/>
<path d="M129.847 103.414C129.431 104.057 128.996 104.677 128.526 105.284C128.377 105.13 128.245 104.976 128.123 104.836C126.219 102.608 126.201 99.7197 126.169 98.0898C125.966 87.2875 124.504 85.1506 126.658 82.5835C126.816 82.3934 127.395 81.7052 128.331 81.1348C126.205 83.6973 127.653 85.8523 127.856 96.623C127.884 98.2528 127.911 101.141 129.811 103.373C129.824 103.387 129.838 103.4 129.842 103.414H129.847Z" fill="url(#paint15_linear_9841_2268)"/>
<path d="M135.94 87.6272C135.876 86.4682 135.659 85.6126 135.225 83.9057C134.655 81.6737 133.94 80.5826 134.406 80.1525C134.709 79.8718 135.302 80.062 135.438 80.1027C137.478 80.7547 138.111 84.5848 138.021 86.9844C137.966 88.4512 137.609 90.0947 137.071 90.1671C136.985 90.1807 136.777 90.1671 136.623 90.0358C136.021 89.5061 135.985 88.5146 135.935 87.6318L135.94 87.6272Z" fill="white"/>
<path d="M137.342 91.7244C137.342 91.9598 137.152 92.15 136.916 92.15C136.681 92.15 136.491 91.9598 136.491 91.7244C136.491 91.489 136.681 91.2988 136.916 91.2988C137.152 91.2988 137.342 91.489 137.342 91.7244Z" fill="white"/>
<path style="mix-blend-mode:soft-light" d="M113.412 131C125.672 131 135.61 126.927 135.61 121.904C135.61 116.881 125.672 112.809 113.412 112.809C101.153 112.809 91.2148 116.881 91.2148 121.904C91.2148 126.927 101.153 131 113.412 131Z" fill="url(#paint16_radial_9841_2268)"/>
<path d="M51.8001 0H21.4692C9.61207 0 0 9.61904 0 21.4847C0 33.3504 9.61207 42.9695 21.4692 42.9695H51.8001C63.6572 42.9695 73.2693 33.3504 73.2693 21.4847C73.2693 9.61904 63.6572 0 51.8001 0Z" fill="url(#paint17_linear_9841_2268)"/>
<path d="M70.5779 16.1591C70.1029 16.5122 66.7826 10.0788 58.4907 5.67368C53.8269 3.19267 50.0225 2.64938 50.122 2.19664C50.2396 1.66694 55.677 1.47226 60.6078 3.93969C68.013 7.64762 71.0981 15.7743 70.5824 16.1591H70.5779Z" fill="white"/>
<path d="M71.1973 19.2061C71.5096 19.2061 71.7627 18.9527 71.7627 18.6401C71.7627 18.3276 71.5096 18.0742 71.1973 18.0742C70.885 18.0742 70.6318 18.3276 70.6318 18.6401C70.6318 18.9527 70.885 19.2061 71.1973 19.2061Z" fill="white"/>
<path d="M26.766 3.19572C28.9645 3.19572 30.7468 2.79032 30.7468 2.29024C30.7468 1.79016 28.9645 1.38477 26.766 1.38477C24.5674 1.38477 22.7852 1.79016 22.7852 2.29024C22.7852 2.79032 24.5674 3.19572 26.766 3.19572Z" fill="white"/>
<path d="M35.624 2.29169C35.624 2.56334 35.1399 2.78065 34.5473 2.78065C33.9547 2.78065 33.4707 2.56334 33.4707 2.29169C33.4707 2.02005 33.9547 1.80273 34.5473 1.80273C35.1399 1.80273 35.624 2.02005 35.624 2.29169Z" fill="white"/>
<path d="M14.7424 88.4568C14.8193 89.8467 14.8103 90.974 14.7153 90.9785C14.6203 90.9831 14.4846 89.8603 14.4032 88.4749C14.3263 87.085 14.3353 85.9577 14.4303 85.9531C14.5253 85.9486 14.661 87.0714 14.7424 88.4568Z" fill="white"/>
<path d="M65.4254 45.7454C66.0723 47.5654 66.7508 48.6294 66.5925 48.7244C66.4161 48.8331 65.249 47.6786 64.5569 46.1574C63.3445 43.4998 63.9959 40.6204 64.2538 40.6114C64.4709 40.6023 64.3171 42.6306 65.4209 45.7409L65.4254 45.7454Z" fill="white"/>
<path d="M18.9748 14.488V13.592L21.7108 13.144V14.04L18.9748 14.488ZM18.9748 15.704V14.808L21.7108 14.36V15.256L18.9748 15.704ZM19.4344 28V16.48H21.5944V25.824H22.9064V28H19.4344ZM22.8281 28V25.824H24.9081V20.32H27.0681V25.824H29.2121V28H22.8281ZM26.0281 31.472C25.4361 31.472 24.9721 30.992 24.9721 30.384C24.9721 29.808 25.4361 29.328 26.0281 29.328C26.6201 29.328 27.0841 29.824 27.0841 30.384C27.0841 30.992 26.6201 31.472 26.0281 31.472ZM29.125 28V25.824H33.765C35.285 25.824 35.685 25.664 35.733 23.92V23.696C35.733 22.464 34.821 21.968 33.621 21.968C32.725 21.968 32.021 22.448 31.573 23.36L29.701 22.304C30.469 20.832 31.973 19.92 33.621 19.92C35.925 19.92 37.909 21.312 37.909 23.696V23.92C37.861 27.408 37.045 28 33.765 28H29.125ZM38.6626 31.648C38.1506 31.648 37.5906 31.52 36.9826 31.248L37.7186 29.392C38.0546 29.536 38.2626 29.568 38.6306 29.568C39.4146 29.568 39.9106 28.848 39.9106 27.664V20.32H42.0866V25.824H43.6866V28H42.0706C41.9426 30.288 40.6786 31.648 38.6626 31.648ZM49.1614 28.24C48.2174 28.24 47.4014 27.952 46.7614 27.44C46.2814 27.84 45.5294 28 44.4094 28H43.6094V25.824H44.4094C45.1774 25.824 45.3374 25.712 45.3854 24.944C45.3534 24.704 45.3374 24.464 45.3374 24.208C45.3374 21.776 46.9214 20.08 49.1614 20.08C51.4174 20.08 53.0174 21.792 53.0174 24.208C53.0174 26.576 51.4174 28.24 49.1614 28.24ZM49.1614 26.288C50.1694 26.288 50.8414 25.472 50.8414 24.192C50.8414 22.88 50.1694 22.032 49.1614 22.032C48.1694 22.032 47.5134 22.88 47.5134 24.192C47.5134 25.472 48.1694 26.288 49.1614 26.288Z" fill="url(#paint18_linear_9841_2268)"/>
<path d="M52 23C52.5 23.5 52.5 27 50.5 27" stroke="white" stroke-width="0.1" stroke-linecap="round"/>
<path d="M45.5 26.5C44.8333 26.6667 43.3 26.9 42.5 26.5" stroke="white" stroke-width="0.1" stroke-linecap="round"/>
<path d="M31.5 21.5C32.5 20.498 37 20.0007 37 24" stroke="white" stroke-width="0.1" stroke-linecap="round"/>
<path d="M26 22.5V25.5" stroke="white" stroke-width="0.1" stroke-linecap="round"/>
<path d="M40.5 28C40.5 29 40 30.9 38 30.5" stroke="white" stroke-width="0.1" stroke-linecap="round"/>
</g>
<defs>
<linearGradient id="paint0_linear_9841_2268" x1="55.6092" y1="35.5407" x2="61.4351" y2="51.3382" gradientUnits="userSpaceOnUse">
<stop stop-color="#AEF0EB"/>
<stop offset="0.01" stop-color="#B0F0EA"/>
<stop offset="0.14" stop-color="#C1F3EA"/>
<stop offset="0.29" stop-color="#CDF6EA"/>
<stop offset="0.5" stop-color="#D5F7EA"/>
<stop offset="1" stop-color="#D7F8EA"/>
</linearGradient>
<linearGradient id="paint1_linear_9841_2268" x1="71.9258" y1="69.3288" x2="98.9686" y2="95.3872" gradientUnits="userSpaceOnUse">
<stop offset="0.282986" stop-color="#1E866F"/>
<stop offset="0.563541" stop-color="#4BBBA2"/>
<stop offset="1" stop-color="#B3E59F" stop-opacity="0.75"/>
</linearGradient>
<linearGradient id="paint2_linear_9841_2268" x1="111.149" y1="-0.105703" x2="115.802" y2="0.292253" gradientUnits="userSpaceOnUse">
<stop offset="0.282986" stop-color="#1E866F"/>
<stop offset="0.563541" stop-color="#4BBBA2"/>
<stop offset="1" stop-color="#B3E59F" stop-opacity="0.75"/>
</linearGradient>
<linearGradient id="paint3_linear_9841_2268" x1="102.205" y1="14.2901" x2="120.066" y2="34.6232" gradientUnits="userSpaceOnUse">
<stop offset="0.282986" stop-color="#1E866F"/>
<stop offset="1" stop-color="#B3E59F" stop-opacity="0.75"/>
</linearGradient>
<linearGradient id="paint4_linear_9841_2268" x1="76.167" y1="7.02186" x2="171.172" y2="77.1229" gradientUnits="userSpaceOnUse">
<stop offset="0.282986" stop-color="#1E866F"/>
<stop offset="0.563541" stop-color="#4BBBA2"/>
<stop offset="1" stop-color="#B3E59F" stop-opacity="0.75"/>
</linearGradient>
<linearGradient id="paint5_linear_9841_2268" x1="112.182" y1="57.3887" x2="112.598" y2="38.677" gradientUnits="userSpaceOnUse">
<stop stop-color="#030D14" stop-opacity="0.64"/>
<stop offset="1" stop-color="#0B2F45"/>
</linearGradient>
<radialGradient id="paint6_radial_9841_2268" cx="0" cy="0" r="1" gradientUnits="userSpaceOnUse" gradientTransform="translate(101.33 47.8908) scale(7.7716 7.77805)">
<stop offset="0.13" stop-color="#3280FC"/>
<stop offset="1"/>
</radialGradient>
<linearGradient id="paint7_linear_9841_2268" x1="96.5931" y1="47.8899" x2="106.061" y2="47.8899" gradientUnits="userSpaceOnUse">
<stop stop-color="#030D14"/>
<stop offset="1" stop-color="#0B2F45"/>
</linearGradient>
<radialGradient id="paint8_radial_9841_2268" cx="0" cy="0" r="1" gradientUnits="userSpaceOnUse" gradientTransform="translate(122.541 0.226448) scale(7.7716 7.77805)">
<stop offset="0.13" stop-color="#3280FC"/>
<stop offset="1"/>
</radialGradient>
<linearGradient id="paint9_linear_9841_2268" x1="117.809" y1="47.8899" x2="127.277" y2="47.8899" gradientUnits="userSpaceOnUse">
<stop stop-color="#030D14"/>
<stop offset="1" stop-color="#0B2F45"/>
</linearGradient>
<linearGradient id="paint10_linear_9841_2268" x1="109.345" y1="-1.48907" x2="118.482" y2="3.6383" gradientUnits="userSpaceOnUse">
<stop offset="0.282986" stop-color="#1E866F"/>
<stop offset="0.563541" stop-color="#4BBBA2"/>
<stop offset="1" stop-color="#B3E59F" stop-opacity="0.75"/>
</linearGradient>
<linearGradient id="paint11_linear_9841_2268" x1="106.992" y1="59.1222" x2="118.509" y2="73.1378" gradientUnits="userSpaceOnUse">
<stop offset="0.282986" stop-color="#1E866F"/>
<stop offset="1" stop-color="#B3E59F" stop-opacity="0.75"/>
</linearGradient>
<linearGradient id="paint12_linear_9841_2268" x1="89.9401" y1="66.3495" x2="153.576" y2="113.034" gradientUnits="userSpaceOnUse">
<stop offset="0.282986" stop-color="#1E866F"/>
<stop offset="0.563541" stop-color="#4BBBA2"/>
<stop offset="1" stop-color="#B3E59F" stop-opacity="0.75"/>
</linearGradient>
<linearGradient id="paint13_linear_9841_2268" x1="90.4116" y1="73.9056" x2="103.451" y2="95.5384" gradientUnits="userSpaceOnUse">
<stop offset="0.282986" stop-color="#1E866F"/>
<stop offset="1" stop-color="#B3E59F" stop-opacity="0.75"/>
</linearGradient>
<linearGradient id="paint14_linear_9841_2268" x1="126.95" y1="71.7739" x2="149.681" y2="77.4267" gradientUnits="userSpaceOnUse">
<stop offset="0.282986" stop-color="#1E866F"/>
<stop offset="1" stop-color="#B3E59F" stop-opacity="0.75"/>
</linearGradient>
<linearGradient id="paint15_linear_9841_2268" x1="125.405" y1="74.5207" x2="134.512" y2="75.4421" gradientUnits="userSpaceOnUse">
<stop offset="0.282986" stop-color="#1E866F"/>
<stop offset="0.563541" stop-color="#4BBBA2"/>
<stop offset="1" stop-color="#B3E59F" stop-opacity="0.75"/>
</linearGradient>
<radialGradient id="paint16_radial_9841_2268" cx="0" cy="0" r="1" gradientUnits="userSpaceOnUse" gradientTransform="translate(113.186 121.63) scale(22.1545 9.00086)">
<stop stop-color="#BCD7D6"/>
<stop offset="1" stop-color="white"/>
</radialGradient>
<linearGradient id="paint17_linear_9841_2268" x1="0" y1="21.487" x2="73.2693" y2="21.487" gradientUnits="userSpaceOnUse">
<stop stop-color="#D7F8EA"/>
<stop offset="0.51" stop-color="#ECF8F2"/>
<stop offset="1" stop-color="#D7F8EA"/>
</linearGradient>
<linearGradient id="paint18_linear_9841_2268" x1="17.2502" y1="0.878965" x2="64.6913" y2="37.7691" gradientUnits="userSpaceOnUse">
<stop offset="0.282986" stop-color="#1E866F"/>
<stop offset="0.563541" stop-color="#4BBBA2"/>
<stop offset="1" stop-color="#B3E59F" stop-opacity="0.75"/>
</linearGradient>
<clipPath id="clip0_9841_2268">
<rect width="147" height="131" fill="white"/>
</clipPath>
</defs>
</svg>
