<svg xmlns="http://www.w3.org/2000/svg" width="12.078" height="13.469" viewBox="0 0 12.078 13.469">
    <path d="M23.236 13.468h-11.59a.244.244 0 0 1-.244-.244V2.562a.244.244 0 0 1 .153-.227L17.35.017a.244.244 0 0 1 .335.227v4.641l5.46-2.185a.244.244 0 0 1 .335.227v10.3a.244.244 0 0 1-.244.241zm-5.551-.488h5.307V3.288l-5.307 2.123zm-5.795 0h5.31V.6l-5.31 2.127zm10.085-.669a.244.244 0 0 1-.244-.244V9.894h-1.149v2.173a.244.244 0 0 1-.488 0V9.894h-1.149v2.173a.244.244 0 1 1-.488 0V6.374a.244.244 0 1 1 .488 0V7.3h1.149V5.6a.244.244 0 0 1 .488 0v1.7h1.149V5.017a.244.244 0 1 1 .488 0v7.05a.244.244 0 0 1-.244.244zm-1.393-2.9h1.149V7.785h-1.149zm-1.637 0h1.149V7.785h-1.149zm-2.765 2.9a.244.244 0 0 1-.244-.244V9.882h-1.149v2.186a.244.244 0 0 1-.488 0V9.882h-1.148v2.186a.244.244 0 0 1-.488 0V3.761a.244.244 0 1 1 .488 0v1.413H14.3V2.989a.244.244 0 0 1 .488 0v2.185h1.149V2.4a.244.244 0 0 1 .488 0v9.663a.244.244 0 0 1-.245.248zm-1.393-2.917h1.149V7.772h-1.149zm-1.637 0h1.15V7.772h-1.149zm1.637-2.11h1.149V5.662h-1.149zm-1.637 0h1.15V5.662h-1.149z" transform="translate(-11.402)" style="fill:#28a197"/>
</svg>
