<svg xmlns="http://www.w3.org/2000/svg" width="15.408" height="11.929" viewBox="0 0 15.408 11.929">
    <g data-name="calendar-svgrepo-com (2)">
        <g data-name="Group 74117">
            <path data-name="Path 67511" d="M13.669 44a.249.249 0 0 1-.249.249H.746A.249.249 0 0 1 .5 44v-7.212h13.169v3.231h.5v-4.97a.746.746 0 0 0-.746-.746h-.994v-.746a.746.746 0 0 0-1.491 0v.743h-7.7v-.746a.746.746 0 0 0-1.491 0v.746H.746a.746.746 0 0 0-.746.749V44a.746.746 0 0 0 .746.746H13.42a.746.746 0 0 0 .746-.746v-.5h-.5v.5zm-2.237-10.442a.249.249 0 1 1 .5 0v.994a.249.249 0 0 1-.5 0v-.994zm-9.2 0a.249.249 0 0 1 .5 0v.994a.249.249 0 0 1-.5 0zM.746 34.8h1.04a.741.741 0 0 0 1.4 0h7.8a.741.741 0 0 0 1.4 0h1.04a.249.249 0 0 1 .249.249v1.243H.5v-1.243a.249.249 0 0 1 .246-.249z" transform="translate(0 -32.812)" style="fill:#28a197"/>
            <path data-name="Path 67512" d="M213.05 163.6a2.112 2.112 0 1 1 2.112-2.112 2.115 2.115 0 0 1-2.112 2.112z" transform="translate(-199.755 -152.665)" style="fill:#ffbf47"/>
            <path data-name="Path 67513" d="m227.362 158.6-.276.414.933.622 2.379-2.908-.385-.315-2.094 2.559z" transform="translate(-215.046 -149.855)" style="fill:#28a197"/>
            <path data-name="Path 67514" d="M25.178 121.875h-1.74v1.491h1.74zm-.5.994h-.746v-.5h.746v.5z" transform="translate(-22.195 -117.153)" style="fill:#28a197"/>
            <path data-name="Path 67515" d="M72.053 121.875h-1.74v1.491h1.74v-1.491zm-.5.994h-.743v-.5h.746z" transform="translate(-66.585 -117.153)" style="fill:#28a197"/>
            <path data-name="Path 67516" d="M118.927 121.875h-1.74v1.491h1.74zm-.5.994h-.746v-.5h.746z" transform="translate(-110.974 -117.153)" style="fill:#28a197"/>
            <path data-name="Path 67517" d="M165.8 121.875h-1.74v1.491h1.74zm-.5.994h-.746v-.5h.746z" transform="translate(-155.364 -117.153)" style="fill:#28a197"/>
            <path data-name="Path 67518" d="M212.677 121.875h-1.74v1.491h1.74zm-.5.994h-.746v-.5h.746z" transform="translate(-199.754 -117.153)" style="fill:#28a197"/>
            <path data-name="Path 67519" d="M25.178 164.063h-1.74v1.491h1.74zm-.5.994h-.746v-.5h.746v.5z" transform="translate(-22.195 -157.104)" style="fill:#28a197"/>
            <path data-name="Path 67520" d="M72.053 164.063h-1.74v1.491h1.74v-1.491zm-.5.994h-.743v-.5h.746z" transform="translate(-66.585 -157.104)" style="fill:#28a197"/>
            <path data-name="Path 67521" d="M118.927 164.063h-1.74v1.491h1.74zm-.5.994h-.746v-.5h.746z" transform="translate(-110.974 -157.104)" style="fill:#28a197"/>
            <path data-name="Path 67522" d="M165.8 164.063h-1.74v1.491h1.74zm-.5.994h-.746v-.5h.746z" transform="translate(-155.364 -157.104)" style="fill:#28a197"/>
            <path data-name="Path 67523" d="M23.438 207.741h1.74v-1.491h-1.74zm.5-.994h.746v.5h-.746z" transform="translate(-22.195 -197.055)" style="fill:#28a197"/>
            <path data-name="Path 67524" d="M70.313 207.741h1.74v-1.491h-1.74zm.5-.994h.746v.5h-.749z" transform="translate(-66.585 -197.055)" style="fill:#28a197"/>
            <path data-name="Path 67525" d="M117.187 207.741h1.74v-1.491h-1.74v1.491zm.5-.994h.746v.5h-.746z" transform="translate(-110.974 -197.055)" style="fill:#28a197"/>
            <path data-name="Path 67526" d="M164.063 207.741h1.74v-1.491h-1.74zm.5-.994h.746v.5h-.746v-.5z" transform="translate(-155.365 -197.055)" style="fill:#28a197"/>
        </g>
    </g>
</svg>
