<svg xmlns="http://www.w3.org/2000/svg" width="27" height="27" viewBox="0 0 27 27">
  <g id="Group_75242" data-name="Group 75242" transform="translate(4261 -2565)">
    <g id="Group_75201" data-name="Group 75201" transform="translate(0 49)">
      <rect id="Rectangle_3989" data-name="Rectangle 3989" width="27" height="27" rx="13.5" transform="translate(-4261 2516)" fill="#1e866f" opacity="0.06"/>
    </g>
    <path id="Icon_metro-cancel" data-name="Icon metro-cancel" d="M8.749,1.928a6.178,6.178,0,1,0,6.178,6.178A6.178,6.178,0,0,0,8.749,1.928Zm0,11.2a5.019,5.019,0,1,1,5.019-5.019A5.02,5.02,0,0,1,8.749,13.125Zm1.931-8.108L8.749,6.948,6.818,5.017,5.66,6.175,7.59,8.106,5.66,10.036l1.158,1.158L8.749,9.264l1.931,1.931,1.158-1.158L9.907,8.106l1.931-1.931Z" transform="translate(-4256.249 2570.394)" fill="#c31b1b"/>
  </g>
</svg>
