<svg id="location-company-svgrepo-com" xmlns="http://www.w3.org/2000/svg" width="15.536" height="16" viewBox="0 0 15.536 16">
  <path id="Path_68024" data-name="Path 68024" d="M10.477,16.359l-4.2-5.1c-.024-.029-.173-.232-.173-.232A5.694,5.694,0,0,1,5,7.641,5.561,5.561,0,0,1,10.477,2a5.561,5.561,0,0,1,5.477,5.641,5.692,5.692,0,0,1-1.1,3.383h0s-.149.2-.172.229ZM6.9,10.408s.116.158.143.192l3.436,4.174,3.441-4.179c.022-.028.139-.187.139-.188a4.654,4.654,0,0,0,.9-2.765,4.55,4.55,0,0,0-4.481-4.615A4.55,4.55,0,0,0,6,7.641,4.657,4.657,0,0,0,6.9,10.408Z" transform="translate(-2.709 -1.179)" fill="#1e866f"/>
  <path id="Path_68025" data-name="Path 68025" d="M15.979,13.128h-1v-4.1H12v4.1H11v-4.1A1.012,1.012,0,0,1,12,8h2.988a1.012,1.012,0,0,1,1,1.026Z" transform="translate(-5.722 -4.102)" fill="#1e866f"/>
  <rect id="_Transparent_Rectangle_" data-name="&lt;Transparent Rectangle&gt;" width="15.536" height="16" fill="none"/>
</svg>
