<svg id="Group_75175" data-name="Group 75175" xmlns="http://www.w3.org/2000/svg" width="15.805" height="16.278" viewBox="0 0 15.805 16.278">
  <g id="Icon_feather-edit" data-name="Icon feather-edit">
    <path id="Path_68001" data-name="Path 68001" d="M14.278,19.669H3.965A2,2,0,0,1,2,17.645V7.023A2,2,0,0,1,3.965,5H9.121a.506.506,0,0,1,0,1.012H3.965a1,1,0,0,0-.982,1.012V17.645a1,1,0,0,0,.982,1.012H14.278a1,1,0,0,0,.982-1.012V12.334a.491.491,0,1,1,.982,0v5.311A2,2,0,0,1,14.278,19.669Z" transform="translate(-2 -3.391)" fill="#1e866f"/>
    <path id="Path_68002" data-name="Path 68002" d="M20.332,1.818a2.011,2.011,0,0,1,1.452.62,2.163,2.163,0,0,1,0,2.992l-7,7.208a.488.488,0,0,1-.228.133l-2.947.759a.482.482,0,0,1-.466-.133.516.516,0,0,1-.129-.48l.737-3.035a.51.51,0,0,1,.129-.235l7-7.208A2.011,2.011,0,0,1,20.332,1.818Zm-6.145,10,6.9-7.109a1.128,1.128,0,0,0,0-1.561,1.05,1.05,0,0,0-1.516,0l-6.9,7.109-.505,2.081Z" transform="translate(-6.58 -1.818)" fill="#1e866f"/>
  </g>
</svg>
