<svg xmlns="http://www.w3.org/2000/svg" width="27" height="27" viewBox="0 0 27 27">
  <g id="Group_75189" data-name="Group 75189" transform="translate(4261 -2516)">
    <rect id="Rectangle_3989" data-name="Rectangle 3989" width="27" height="27" rx="13.5" transform="translate(-4261 2516)" fill="#1e866f" opacity="0.06"/>
    <path id="Path_68031" data-name="Path 68031" d="M549.8,136c.294.059.6.1.882.181a3.74,3.74,0,0,1,1.832,1.162,1.463,1.463,0,0,1,.337.645.723.723,0,0,1-.2.68,2.673,2.673,0,0,1-.413.327.179.179,0,0,0-.1.173c.007.264,0,.528.005.791a.562.562,0,0,0,.058.166s.005.006.008.009a1.246,1.246,0,0,1,0,1.187,1.547,1.547,0,0,1-.334.211c-.031.02-.074.051-.078.083a2.231,2.231,0,0,1-.963,1.577c-.023.016-.058.042-.056.06q.019.247.053.492a.087.087,0,0,0,.071.047,1.976,1.976,0,0,1,.72.089c.341.053.679.129,1.019.191a2.16,2.16,0,0,1,1.642,1.795,3.887,3.887,0,0,1,.027.488c0,.611,0,1.223,0,1.834a.606.606,0,0,1-.655.68h-8.308a.607.607,0,0,1-.656-.679c0-.276,0-.553,0-.829,0-.141.065-.222.175-.226s.189.081.19.225c0,.285,0,.57,0,.854,0,.191.083.276.268.277.223,0,.447,0,.689,0v-.138q0-.647,0-1.294a.934.934,0,0,1,0-.1.182.182,0,0,1,.194-.181.175.175,0,0,1,.169.192c0,.381,0,.762,0,1.143,0,.121,0,.241,0,.37h2.3c.044-.318.088-.632.13-.946.069-.51.129-1.021.208-1.529.021-.132-.054-.188-.112-.269a.2.2,0,0,0-.257-.1.4.4,0,0,1-.461-.2c-.247-.358-.5-.714-.742-1.075a.162.162,0,0,0-.2-.081c-.286.063-.575.109-.862.166a2.241,2.241,0,0,0-.222.067.665.665,0,0,1-.054.893l-.084.108a.617.617,0,0,1-.905.164c-.022.146-.049.283-.061.421-.011.116,0,.235-.008.351a.177.177,0,0,1-.188.174.174.174,0,0,1-.173-.176,2.19,2.19,0,0,1,1.493-2.334c.318-.1.652-.136.979-.2q.365-.071.731-.137a.285.285,0,0,1,.144,0c.1.037.147-.017.158-.1a3.305,3.305,0,0,0,.028-.423c0-.026-.04-.059-.068-.079a2.209,2.209,0,0,1-.946-1.559c-.01-.068-.034-.086-.1-.1a.562.562,0,0,1-.452-.548,3.051,3.051,0,0,1,.005-.5.864.864,0,0,1,.126-.331.366.366,0,0,0,.073-.213c0-.251-.006-.5,0-.754a.193.193,0,0,0-.1-.186,2.558,2.558,0,0,1-.459-.385.717.717,0,0,1-.11-.765,2.2,2.2,0,0,1,.747-.941,4.1,4.1,0,0,1,2.169-.882.817.817,0,0,0,.094-.021Zm-1.907,3.873c0,.15,0,.292,0,.433a.256.256,0,0,1-.428.2.941.941,0,0,0-.245-.131c-.126-.043-.177,0-.183.131-.007.15-.006.3,0,.452a.192.192,0,0,0,.193.2c.04,0,.081,0,.122,0,.142.007.19.062.212.2a3.061,3.061,0,0,0,.109.576,1.894,1.894,0,0,0,1.594,1.281,1.948,1.948,0,0,0,2.105-1.369,3.566,3.566,0,0,0,.08-.494c.019-.137.07-.191.2-.2.053,0,.116.014.156-.011.063-.039.148-.1.156-.162a2.988,2.988,0,0,0,0-.513c0-.085-.053-.145-.148-.107a1.2,1.2,0,0,0-.26.126.269.269,0,0,1-.293.055.272.272,0,0,1-.151-.277c0-.132,0-.263,0-.4A5.881,5.881,0,0,1,547.888,139.873Zm4.734,8.612v-.141c0-.456,0-.913,0-1.369a.176.176,0,0,1,.176-.2.183.183,0,0,1,.187.189c0,.033,0,.067,0,.1q0,.641,0,1.282v.142c.258,0,.5.005.745,0,.133,0,.211-.105.212-.257,0-.7,0-1.407,0-2.111a3.45,3.45,0,0,0-.059-.436.622.622,0,0,1-.92-.181c-.054-.068-.11-.135-.158-.207a.627.627,0,0,1-.049-.632c.021-.048.051-.091.085-.15-.093-.025-.173-.052-.256-.068-.283-.057-.568-.106-.85-.166a.141.141,0,0,0-.17.073c-.247.363-.5.724-.75,1.084a.434.434,0,0,1-.532.192.153.153,0,0,0-.119.033,1.686,1.686,0,0,0-.122.139.213.213,0,0,0-.057.2c.081.571.154,1.144.231,1.716.034.256.071.511.107.766Zm-.871-9.726c.01-.022.016-.03.016-.037,0-.121,0-.243,0-.364,0-.2-.04-.249-.227-.3a10.406,10.406,0,0,0-1.73-.287,6.785,6.785,0,0,0-2.419.3.255.255,0,0,0-.151.17,4,4,0,0,0-.007.511h3.119c.138,0,.216.066.22.179s-.078.192-.219.2c-.033,0-.065,0-.1,0h-2.906a1.311,1.311,0,0,0,.6.359,5.232,5.232,0,0,0,2.232.187,3.17,3.17,0,0,0,1.258-.365c.075-.043.143-.1.216-.152-.017-.018-.02-.023-.022-.023l-.316-.007c-.141,0-.227-.076-.227-.19s.083-.185.227-.186S551.613,138.758,551.752,138.758Zm-4.883-.133c0-.141,0-.253,0-.365a.577.577,0,0,1,.4-.543,7.635,7.635,0,0,1,2.039-.334,9.116,9.116,0,0,1,2.4.332.574.574,0,0,1,.432.581c0,.1,0,.2,0,.315.384-.219.462-.489.226-.834a2.756,2.756,0,0,0-.469-.523,3.715,3.715,0,0,0-4.59-.157,2.358,2.358,0,0,0-.714.761.458.458,0,0,0,.118.643C546.751,138.541,546.8,138.573,546.868,138.626Zm2.634,6.22,1.034-.8-.164-.6a2.272,2.272,0,0,1-1.741,0l-.164.6Zm-.447,3.639h.895l-.332-2.453h-.232Zm.082-3.45c-.363-.28-.711-.541-1.05-.813a.256.256,0,0,0-.286-.034c0,.011-.005.016,0,.018.234.342.467.684.7,1.022a.122.122,0,0,0,.112.032C548.785,145.194,548.951,145.117,549.136,145.036Zm.732,0c.171.076.328.141.481.214a.123.123,0,0,0,.183-.053c.211-.312.429-.62.643-.93a.574.574,0,0,0,.037-.073.255.255,0,0,0-.309.042c-.109.1-.233.182-.35.272Zm-4.056-.314a1.727,1.727,0,0,0-.521.591c.16.169.3.165.435-.006.052-.064.1-.129.153-.2A.247.247,0,0,0,545.813,144.721Zm7.9.592a1.755,1.755,0,0,0-.527-.6c-.153.134-.168.248-.058.4.047.063.1.125.145.186C553.416,145.475,553.544,145.481,553.714,145.313Zm-3.87.133c-.315-.178-.391-.178-.679,0A.375.375,0,0,0,549.845,145.446Zm-2.33-5.369c.029-.355-.015-.429-.276-.491v.4Zm4.256-.092v-.411c-.3.133-.333.2-.271.5Z" transform="translate(-4797.006 2387.066)" fill="#1e866f"/>
  </g>
</svg>
