<svg xmlns="http://www.w3.org/2000/svg" width="9.021" height="11.711" viewBox="0 0 9.021 11.711">
  <path id="Path_67614" data-name="Path 67614" d="M549.475,136c.276.054.558.087.826.165a3.52,3.52,0,0,1,1.717,1.057,1.318,1.318,0,0,1,.316.587.645.645,0,0,1-.184.619,2.49,2.49,0,0,1-.387.3.163.163,0,0,0-.1.157c.006.24,0,.48,0,.72a.5.5,0,0,0,.054.151s.005.005.008.008a1.1,1.1,0,0,1,0,1.08,1.46,1.46,0,0,1-.313.192c-.029.018-.069.047-.073.075a2.022,2.022,0,0,1-.9,1.435c-.021.014-.054.038-.053.055.012.15.029.3.05.448a.081.081,0,0,0,.067.043,1.9,1.9,0,0,1,.675.081c.32.049.636.117.955.174a1.989,1.989,0,0,1,1.539,1.634,3.436,3.436,0,0,1,.025.444c0,.556,0,1.113,0,1.669a.56.56,0,0,1-.614.619h-7.787a.56.56,0,0,1-.615-.618c0-.252,0-.5,0-.755,0-.128.061-.2.164-.206s.177.074.178.2c0,.259,0,.518,0,.778,0,.174.078.251.251.252.209,0,.419,0,.646,0v-.126q0-.589,0-1.178a.83.83,0,0,1,0-.091.169.169,0,0,1,.182-.165.161.161,0,0,1,.158.174c0,.347,0,.694,0,1.04,0,.11,0,.22,0,.337h2.158c.041-.29.083-.575.122-.861.064-.464.121-.929.2-1.391.019-.12-.051-.171-.1-.245a.185.185,0,0,0-.241-.089.377.377,0,0,1-.432-.181c-.231-.326-.467-.65-.7-.978a.154.154,0,0,0-.188-.074c-.268.057-.539.1-.808.151a2.157,2.157,0,0,0-.208.061.593.593,0,0,1-.051.813l-.079.1a.589.589,0,0,1-.849.149c-.021.133-.046.258-.057.383-.01.106,0,.214-.007.32a.165.165,0,0,1-.176.158.16.16,0,0,1-.162-.16,1.994,1.994,0,0,1,1.4-2.124c.3-.087.611-.124.918-.182q.342-.065.685-.125a.276.276,0,0,1,.135,0,.1.1,0,0,0,.148-.088,2.936,2.936,0,0,0,.026-.385c0-.024-.037-.054-.064-.072a2,2,0,0,1-.886-1.419c-.009-.062-.032-.078-.09-.09a.516.516,0,0,1-.424-.5,2.694,2.694,0,0,1,0-.457.774.774,0,0,1,.118-.3.327.327,0,0,0,.068-.194c0-.229-.005-.457,0-.686a.174.174,0,0,0-.095-.169,2.383,2.383,0,0,1-.431-.35.638.638,0,0,1-.1-.7,2.015,2.015,0,0,1,.7-.856,3.905,3.905,0,0,1,2.033-.8.785.785,0,0,0,.088-.019Zm-1.787,3.525c0,.136,0,.265,0,.394a.233.233,0,0,1-.145.226.246.246,0,0,1-.256-.042.89.89,0,0,0-.23-.12c-.118-.039-.166,0-.171.119s-.006.274,0,.411a.177.177,0,0,0,.181.182c.038,0,.076,0,.114,0,.133.006.178.056.2.186a2.715,2.715,0,0,0,.1.524,1.765,1.765,0,0,0,1.494,1.166,1.827,1.827,0,0,0,1.973-1.246,3.155,3.155,0,0,0,.075-.449c.017-.125.065-.174.191-.181.049,0,.109.012.146-.01.059-.036.139-.091.146-.147a2.645,2.645,0,0,0,0-.467c0-.078-.05-.132-.139-.1a1.136,1.136,0,0,0-.244.115.257.257,0,0,1-.275.05.246.246,0,0,1-.141-.252c0-.12,0-.24,0-.365A5.67,5.67,0,0,1,547.687,139.525Zm4.437,7.837v-.128c0-.415,0-.831,0-1.246a.162.162,0,0,1,.165-.179.169.169,0,0,1,.176.172c0,.03,0,.061,0,.091q0,.583,0,1.166v.129c.242,0,.47,0,.7,0a.206.206,0,0,0,.2-.234c0-.64,0-1.281,0-1.921a3.059,3.059,0,0,0-.056-.4.592.592,0,0,1-.862-.165c-.05-.062-.1-.123-.148-.189a.556.556,0,0,1-.046-.575,1.555,1.555,0,0,1,.08-.137c-.087-.023-.163-.047-.24-.062-.265-.051-.532-.1-.8-.151a.134.134,0,0,0-.16.067c-.232.33-.467.659-.7.986a.413.413,0,0,1-.5.175.147.147,0,0,0-.111.03,1.584,1.584,0,0,0-.115.127.19.19,0,0,0-.054.183c.076.52.145,1.041.217,1.561.032.233.067.465.1.7Zm-.817-8.851c.009-.02.015-.027.015-.034,0-.11,0-.221,0-.331,0-.179-.038-.226-.213-.269a10.024,10.024,0,0,0-1.622-.261,6.536,6.536,0,0,0-2.267.275.234.234,0,0,0-.142.154,3.52,3.52,0,0,0-.007.465H550c.13,0,.2.06.206.163s-.073.175-.205.179h-2.815a1.236,1.236,0,0,0,.565.327,5.043,5.043,0,0,0,2.092.17,3.039,3.039,0,0,0,1.179-.332c.07-.039.134-.091.2-.138-.016-.017-.019-.021-.021-.021l-.3-.006c-.132,0-.213-.069-.213-.173s.078-.168.213-.17S551.178,138.51,551.308,138.51Zm-4.577-.121c0-.129,0-.231,0-.333a.528.528,0,0,1,.376-.494,7.353,7.353,0,0,1,1.911-.3,8.782,8.782,0,0,1,2.246.3.525.525,0,0,1,.4.529c0,.093,0,.185,0,.287.36-.2.433-.445.211-.759a2.532,2.532,0,0,0-.439-.476,3.563,3.563,0,0,0-4.3-.143,2.174,2.174,0,0,0-.669.693.409.409,0,0,0,.111.586C546.621,138.312,546.666,138.341,546.731,138.39Zm2.469,5.661.969-.725-.154-.548a2.188,2.188,0,0,1-1.632,0l-.154.547Zm-.419,3.312h.838l-.311-2.232h-.217Zm.076-3.139c-.341-.255-.666-.492-.984-.74a.245.245,0,0,0-.268-.031c0,.01-.005.015,0,.017.219.311.438.622.661.93a.116.116,0,0,0,.105.029C548.527,144.367,548.683,144.3,548.857,144.223Zm.686,0c.16.069.307.128.451.195a.117.117,0,0,0,.171-.048c.2-.284.4-.564.6-.846a.53.53,0,0,0,.034-.066.244.244,0,0,0-.289.038c-.1.09-.218.166-.328.248Zm-3.8-.286a1.588,1.588,0,0,0-.488.538c.15.154.277.151.407-.006.049-.058.1-.117.143-.178A.221.221,0,0,0,545.742,143.936Zm7.406.539a1.613,1.613,0,0,0-.494-.542c-.144.121-.157.226-.054.362.044.058.09.113.136.169C552.868,144.623,552.989,144.629,553.148,144.475Zm-3.627.121c-.3-.162-.367-.162-.636,0A.356.356,0,0,0,549.521,144.6Zm-2.184-4.886c.027-.323-.014-.391-.259-.447v.364Zm3.989-.084v-.374c-.281.121-.312.178-.254.455Z" transform="translate(-544.687 -136)" fill="#1e866f"/>
</svg>
