<svg data-name="menu-svgrepo-com (3)" xmlns="http://www.w3.org/2000/svg" width="16.07" height="4.612" viewBox="0 0 16.07 4.612">
    <path data-name="Path 18" d="M2.306 101.082a2.306 2.306 0 1 0 2.306 2.306 2.309 2.309 0 0 0-2.306-2.306zm0 3.592a1.286 1.286 0 1 1 1.286-1.286 1.287 1.287 0 0 1-1.286 1.286z" transform="translate(0 -101.082)" style="fill:#505050"/>
    <path data-name="Path 19" d="M103.388 101.082a2.306 2.306 0 1 0 2.306 2.306 2.309 2.309 0 0 0-2.306-2.306zm0 3.592a1.286 1.286 0 1 1 1.286-1.286 1.287 1.287 0 0 1-1.286 1.286z" transform="translate(-95.353 -101.082)" style="fill:#505050"/>
    <path data-name="Path 20" d="M204.469 101.082a2.306 2.306 0 1 0 2.306 2.306 2.309 2.309 0 0 0-2.306-2.306zm0 3.592a1.286 1.286 0 1 1 1.286-1.286 1.287 1.287 0 0 1-1.286 1.286z" transform="translate(-190.705 -101.082)" style="fill:#505050"/>
</svg>
