<svg xmlns="http://www.w3.org/2000/svg" width="17.765" height="15.654" viewBox="0 0 17.765 15.654">
  <path id="Path_68023" data-name="Path 68023" d="M9.383,67.56H18.47a.451.451,0,0,1,.445.458v1.09h1.48a3.519,3.519,0,0,1,3.457,3.561V82.3h.987a.458.458,0,0,1,0,.915H7.951a.458.458,0,0,1,0-.915h.987V68.018A.451.451,0,0,1,9.383,67.56Zm10.671,6.2a.458.458,0,0,1,0-.915h1.77a.458.458,0,0,1,0,.915Zm0,4.576a.458.458,0,0,1,0-.915h1.77a.458.458,0,0,1,0,.915Zm0-3.051a.458.458,0,0,1,0-.915h1.77a.458.458,0,0,1,0,.915Zm0,1.525a.458.458,0,0,1,0-.915h1.77a.458.458,0,0,1,0,.915Zm-8.348-3.579h4.442a1.192,1.192,0,0,1,0,2.383H11.705a1.192,1.192,0,0,1,0-2.383Zm4.442.915H11.705a.276.276,0,0,0,0,.552h4.442a.276.276,0,0,0,0-.552ZM14.734,82.3v-2.29H13.119V82.3Zm-2.5,0V79.55a.451.451,0,0,1,.444-.458h2.5a.451.451,0,0,1,.444.458V82.3h2.4V68.475h-8.2V82.3Zm-.525-12.283h4.442a1.192,1.192,0,0,1,0,2.383H11.705a1.192,1.192,0,0,1,0-2.383Zm4.442.915H11.705a.276.276,0,0,0,0,.552h4.442a.276.276,0,0,0,0-.552Zm2.767-.908V82.3h4.048V72.668a2.616,2.616,0,0,0-2.568-2.645Z" transform="translate(-7.512 -67.56)" fill="#1e866f"/>
</svg>
