<svg xmlns="http://www.w3.org/2000/svg" width="15.039" height="14.478" viewBox="0 0 15.039 14.478">
    <g data-name="Group 74065">
        <g data-name="Group 74064">
            <path data-name="Path 67503" d="M14.739 9.541h-9.76a.3.3 0 0 0-.3.3v5.6a3.064 3.064 0 0 0-1.358 1 3.033 3.033 0 0 0 .066 3.766l-.353.353-.214-.214a.3.3 0 0 0-.424 0L.264 22.481a.9.9 0 1 0 1.275 1.275l2.133-2.133a.3.3 0 0 0 0-.424l-.214-.214.353-.353a3.034 3.034 0 0 0 4.494-.732h6.434a.3.3 0 0 0 .3-.3V9.841a.3.3 0 0 0-.3-.3zM1.115 23.332a.3.3 0 1 1-.427-.432l1.921-1.921.427.427zm4.62-2.61a2.437 2.437 0 0 1-1.055-4.634V19.6a.3.3 0 0 0 .3.3h2.58a2.438 2.438 0 0 1-1.825.821zM7.95 19.3H5.279v-3.41A2.437 2.437 0 0 1 7.95 19.3zm6.49 0H8.6a3.036 3.036 0 0 0-3.317-4.019V10.14h9.157v9.16z" transform="translate(0 -9.541)" style="fill:#28a197"/>
        </g>
    </g>
    <g data-name="Group 74067">
        <g data-name="Group 74066">
            <path data-name="Path 67504" d="M199.666 47.71h-1.879a.3.3 0 0 0-.3.3v1.879a.3.3 0 0 0 .3.3h1.879a.3.3 0 0 0 .3-.3V48.01a.3.3 0 0 0-.3-.3zm-.3 1.879h-1.28v-1.28h1.28z" transform="translate(-191.686 -46.589)" style="fill:#28a197"/>
        </g>
    </g>
    <g data-name="Group 74069">
        <g data-name="Group 74068">
            <path data-name="Path 67505" d="M329.519 47.71h-1.879a.3.3 0 0 0-.3.3v1.58h-1.58a.3.3 0 0 0-.3.3v1.879a.3.3 0 0 0 .3.3h1.879a.3.3 0 0 0 .3-.3v-1.58h1.58a.3.3 0 0 0 .3-.3V48.01a.3.3 0 0 0-.3-.3zm-2.179 3.759h-1.28v-1.28h1.28zm1.879-1.879h-1.28v-1.28h1.28z" transform="translate(-315.901 -46.589)" style="fill:#28a197"/>
        </g>
    </g>
    <g data-name="Group 74071">
        <g data-name="Group 74070">
            <path data-name="Path 67506" d="M327.64 239.67h-1.879a.3.3 0 0 0-.3.3v1.879a.3.3 0 0 0 .3.3h1.879a.3.3 0 0 0 .3-.3v-1.879a.3.3 0 0 0-.3-.3zm-.3 1.879h-1.28v-1.28h1.28z" transform="translate(-315.901 -232.911)" style="fill:#28a197"/>
        </g>
    </g>
    <g data-name="Group 74073">
        <g data-name="Group 74072">
            <path data-name="Path 67507" d="M193.065 237.641a.3.3 0 0 0-.3.3V238a.3.3 0 1 0 .6 0v-.06a.3.3 0 0 0-.3-.299z" transform="translate(-187.103 -230.941)" style="fill:#28a197"/>
        </g>
    </g>
    <g data-name="Group 74075">
        <g data-name="Group 74074">
            <path data-name="Path 67508" d="M193.065 270.279a.3.3 0 0 0-.3.3v1.2a.3.3 0 1 0 .6 0v-1.2a.3.3 0 0 0-.3-.3z" transform="translate(-187.103 -262.62)" style="fill:#28a197"/>
        </g>
    </g>
</svg>
