<svg width="6" height="7" viewBox="0 0 6 7" fill="none" xmlns="http://www.w3.org/2000/svg">
<path d="M4.98 2.352C5.03267 2.40122 5.06225 2.46794 5.06225 2.5375C5.06225 2.60706 5.03267 2.67378 4.98 2.723L4.23 3.423C4.17727 3.47216 4.10578 3.49977 4.03125 3.49977C3.95672 3.49977 3.88523 3.47216 3.8325 3.423L3.4575 3.073C3.42987 3.04897 3.4077 3.01999 3.39233 2.98779C3.37696 2.95559 3.36869 2.92083 3.36803 2.88558C3.36736 2.85034 3.37431 2.81533 3.38845 2.78264C3.4026 2.74995 3.42365 2.72026 3.45036 2.69534C3.47707 2.67041 3.50888 2.65076 3.5439 2.63756C3.57892 2.62435 3.61643 2.61787 3.6542 2.61849C3.69196 2.61911 3.7292 2.62683 3.7637 2.64118C3.7982 2.65552 3.82925 2.67621 3.855 2.702L4.03125 2.8665L4.5825 2.352C4.63523 2.30284 4.70672 2.27523 4.78125 2.27523C4.85578 2.27523 4.92727 2.30284 4.98 2.352ZM4.98 4.648C5.00763 4.62397 5.0298 4.59499 5.04517 4.56279C5.06054 4.53059 5.06881 4.49583 5.06947 4.46058C5.07014 4.42534 5.06319 4.39033 5.04905 4.35764C5.0349 4.32495 5.01385 4.29526 4.98714 4.27034C4.96043 4.24541 4.92862 4.22576 4.8936 4.21256C4.85858 4.19935 4.82107 4.19287 4.7833 4.19349C4.74554 4.19411 4.7083 4.20183 4.6738 4.21618C4.6393 4.23052 4.60825 4.25121 4.5825 4.277L4.03125 4.7915L3.855 4.627C3.82925 4.60121 3.7982 4.58052 3.7637 4.56618C3.7292 4.55183 3.69196 4.54411 3.6542 4.54349C3.61643 4.54287 3.57892 4.54935 3.5439 4.56256C3.50888 4.57576 3.47707 4.59541 3.45036 4.62034C3.42365 4.64526 3.4026 4.67495 3.38845 4.70764C3.37431 4.74033 3.36736 4.77534 3.36803 4.81058C3.36869 4.84583 3.37696 4.88059 3.39233 4.91279C3.4077 4.94499 3.42987 4.97397 3.4575 4.998L3.8325 5.348C3.88523 5.39716 3.95672 5.42477 4.03125 5.42477C4.10578 5.42477 4.17727 5.39716 4.23 5.348L4.98 4.648ZM1.125 2.8875C1.125 2.81788 1.15463 2.75111 1.20738 2.70188C1.26012 2.65266 1.33166 2.625 1.40625 2.625H2.71875C2.79334 2.625 2.86488 2.65266 2.91762 2.70188C2.97037 2.75111 3 2.81788 3 2.8875C3 2.95712 2.97037 3.02389 2.91762 3.07312C2.86488 3.12234 2.79334 3.15 2.71875 3.15H1.40625C1.33166 3.15 1.26012 3.12234 1.20738 3.07312C1.15463 3.02389 1.125 2.95712 1.125 2.8875ZM1.40625 4.55C1.33166 4.55 1.26012 4.57766 1.20738 4.62688C1.15463 4.67611 1.125 4.74288 1.125 4.8125C1.125 4.88212 1.15463 4.94889 1.20738 4.99812C1.26012 5.04734 1.33166 5.075 1.40625 5.075H2.71875C2.79334 5.075 2.86488 5.04734 2.91762 4.99812C2.97037 4.94889 3 4.88212 3 4.8125C3 4.74288 2.97037 4.67611 2.91762 4.62688C2.86488 4.57766 2.79334 4.55 2.71875 4.55H1.40625ZM4.49475 0.7C4.47169 0.507496 4.37342 0.329678 4.21873 0.20054C4.06405 0.0714024 3.86379 5.85221e-06 3.65625 0H2.34375C2.13621 5.85221e-06 1.93595 0.0714024 1.78127 0.20054C1.62658 0.329678 1.52831 0.507496 1.50525 0.7H0.84375C0.619974 0.7 0.405363 0.782969 0.247129 0.930653C0.0888949 1.07834 0 1.27864 0 1.4875V6.2125C0 6.42136 0.0888949 6.62166 0.247129 6.76935C0.405363 6.91703 0.619974 7 0.84375 7H5.15625C5.26705 7 5.37677 6.97963 5.47914 6.94006C5.58151 6.90048 5.67452 6.84247 5.75287 6.76935C5.83122 6.69622 5.89337 6.60941 5.93577 6.51386C5.97818 6.41832 6 6.31592 6 6.2125V1.4875C6 1.38408 5.97818 1.28168 5.93577 1.18614C5.89337 1.09059 5.83122 1.00378 5.75287 0.930653C5.67452 0.857527 5.58151 0.79952 5.47914 0.759945C5.37677 0.720369 5.26705 0.7 5.15625 0.7H4.49475ZM2.34375 1.575H3.65625C3.94875 1.575 4.20638 1.43605 4.35787 1.225H5.15625C5.23084 1.225 5.30238 1.25266 5.35512 1.30188C5.40787 1.35111 5.4375 1.41788 5.4375 1.4875V6.2125C5.4375 6.28212 5.40787 6.34889 5.35512 6.39812C5.30238 6.44734 5.23084 6.475 5.15625 6.475H0.84375C0.769158 6.475 0.697621 6.44734 0.644876 6.39812C0.592132 6.34889 0.5625 6.28212 0.5625 6.2125V1.4875C0.5625 1.41788 0.592132 1.35111 0.644876 1.30188C0.697621 1.25266 0.769158 1.225 0.84375 1.225H1.64212C1.79362 1.43605 2.05125 1.575 2.34375 1.575ZM2.34375 0.525H3.65625C3.73084 0.525 3.80238 0.552656 3.85512 0.601884C3.90787 0.651113 3.9375 0.717881 3.9375 0.7875C3.9375 0.857119 3.90787 0.923887 3.85512 0.973116C3.80238 1.02234 3.73084 1.05 3.65625 1.05H2.34375C2.26916 1.05 2.19762 1.02234 2.14488 0.973116C2.09213 0.923887 2.0625 0.857119 2.0625 0.7875C2.0625 0.717881 2.09213 0.651113 2.14488 0.601884C2.19762 0.552656 2.26916 0.525 2.34375 0.525Z" fill="#1E866F"/>
</svg>
