<svg xmlns="http://www.w3.org/2000/svg" width="13.639" height="13.642" viewBox="0 0 13.639 13.642">
    <g data-name="Icon ionic-ios-timer">
        <path data-name="Path 68032" d="M10.759 17.58A6.821 6.821 0 0 1 6.025 5.847a.548.548 0 1 1 .761.788A5.725 5.725 0 1 0 11.3 5.06v2.135a.549.549 0 1 1-1.1 0V4.487a.549.549 0 0 1 .549-.549 6.821 6.821 0 0 1 0 13.642z" transform="translate(-3.938 -3.938)" style="fill:#1e866f"/>
        <path data-name="Path 68033" d="m11.793 11.316 3.394 2.439a1.027 1.027 0 0 1-1.194 1.671.992.992 0 0 1-.239-.239l-2.439-3.394a.342.342 0 0 1 .477-.477z" transform="translate(-7.705 -7.704)" style="fill:#1e866f"/>
    </g>
</svg>
