<svg data-name="job-svgrepo-com (1)" xmlns="http://www.w3.org/2000/svg" width="16" height="16" viewBox="0 0 16 16">
    <g data-name="Group 74052">
        <g data-name="Group 74051">
            <path data-name="Path 67497" d="M14.729 5.967a6.994 6.994 0 0 0-.529-1.288 1.632 1.632 0 0 0-.221-2.019l-.634-.634a1.632 1.632 0 0 0-2.024-.226 6.991 6.991 0 0 0-1.288-.533A1.632 1.632 0 0 0 8.448 0h-.9a1.632 1.632 0 0 0-1.581 1.271 6.994 6.994 0 0 0-1.288.529 1.632 1.632 0 0 0-2.019.221l-.634.634A1.632 1.632 0 0 0 1.8 4.679a6.991 6.991 0 0 0-.534 1.288A1.632 1.632 0 0 0 0 7.552v.9a1.632 1.632 0 0 0 1.271 1.584 6.993 6.993 0 0 0 .529 1.285 1.632 1.632 0 0 0 .221 2.019l.634.634a1.632 1.632 0 0 0 2.019.221 6.991 6.991 0 0 0 1.288.533A1.632 1.632 0 0 0 7.552 16h.9a1.632 1.632 0 0 0 1.584-1.271 6.993 6.993 0 0 0 1.288-.533 1.632 1.632 0 0 0 2.019-.221l.634-.634a1.632 1.632 0 0 0 .221-2.019 6.992 6.992 0 0 0 .533-1.288A1.632 1.632 0 0 0 16 8.448v-.9a1.632 1.632 0 0 0-1.271-1.581zm.634 2.481a.99.99 0 0 1-.909.983.319.319 0 0 0-.283.235 6.357 6.357 0 0 1-.629 1.52.319.319 0 0 0 .034.366.99.99 0 0 1-.052 1.337l-.634.634a.99.99 0 0 1-1.337.052.319.319 0 0 0-.366-.034 6.352 6.352 0 0 1-1.52.629.319.319 0 0 0-.235.283.99.99 0 0 1-.983.909h-.9a.99.99 0 0 1-.983-.909.319.319 0 0 0-.235-.283 6.354 6.354 0 0 1-1.52-.629.319.319 0 0 0-.366.034.99.99 0 0 1-1.337-.052l-.634-.634a.99.99 0 0 1-.052-1.337.319.319 0 0 0 .034-.366 6.353 6.353 0 0 1-.629-1.52.319.319 0 0 0-.283-.235.99.99 0 0 1-.909-.982v-.9a.99.99 0 0 1 .909-.983.319.319 0 0 0 .283-.235 6.358 6.358 0 0 1 .629-1.52.319.319 0 0 0-.034-.366.99.99 0 0 1 .052-1.337l.634-.634a.99.99 0 0 1 1.337-.052.319.319 0 0 0 .366.034 6.352 6.352 0 0 1 1.52-.629.319.319 0 0 0 .235-.283.99.99 0 0 1 .986-.907h.9a.99.99 0 0 1 .983.909.319.319 0 0 0 .235.283 6.356 6.356 0 0 1 1.52.629.319.319 0 0 0 .366-.034.99.99 0 0 1 1.337.052l.634.634a.99.99 0 0 1 .052 1.337.319.319 0 0 0-.034.366 6.354 6.354 0 0 1 .629 1.52.319.319 0 0 0 .283.235.99.99 0 0 1 .909.982z" style="fill:#28a197"/>
        </g>
    </g>
    <g data-name="Group 74054">
        <g data-name="Group 74053">
            <path data-name="Path 67498" d="M80.621 74.964a5.657 5.657 0 1 0 5.657 5.657 5.664 5.664 0 0 0-5.657-5.657zm0 10.677a5.02 5.02 0 1 1 5.02-5.02 5.026 5.026 0 0 1-5.02 5.02z" transform="translate(-72.621 -72.621)" style="fill:#28a197"/>
        </g>
    </g>
    <g data-name="Group 74056">
        <g data-name="Group 74055">
            <path data-name="Path 67499" d="M209.449 128.874a1.16 1.16 0 0 0-.844-.366h-.771a1.156 1.156 0 0 0-1.154 1.231l.034.525.08 1.227a1.428 1.428 0 0 0 2.849 0l.091-1.4.023-.35a1.16 1.16 0 0 0-.308-.867zm-2.132.824a.518.518 0 0 1 .517-.552h.553l-.1.275a1.384 1.384 0 0 1-.954.472zm1.691 1.752a.79.79 0 0 1-1.577 0l-.06-.919a2.362 2.362 0 0 0 1.152-.451 1.182 1.182 0 0 0 .142.086 2.215 2.215 0 0 0 .417.149zm-.051-1.851c-.02-.01-.036-.02-.049-.028l.091-.242a.512.512 0 0 1 .124.334 1.11 1.11 0 0 1-.165-.063z" transform="translate(-200.219 -124.492)" style="fill:#28a197"/>
        </g>
    </g>
    <g data-name="Group 74058">
        <g data-name="Group 74057">
            <path data-name="Path 67500" d="M154.518 275.6a2.145 2.145 0 0 0-2.112-1.764h-.384a.319.319 0 0 0-.225.093l-.646.646-.646-.646a.319.319 0 0 0-.225-.093h-.38a2.146 2.146 0 0 0-2.112 1.764.917.917 0 0 0 .9 1.08h4.931a.917.917 0 0 0 .9-1.08zm-.688.342a.276.276 0 0 1-.214.1h-4.931a.279.279 0 0 1-.275-.329 1.508 1.508 0 0 1 1.485-1.24h.252l.778.778a.319.319 0 0 0 .451 0l.778-.778h.252a1.508 1.508 0 0 1 1.484 1.24.276.276 0 0 1-.059.232z" transform="translate(-143.151 -265.282)" style="fill:#28a197"/>
        </g>
    </g>
    <g data-name="Group 74060">
        <g data-name="Group 74059">
            <path data-name="Path 67501" d="M359.181 171.487a.319.319 0 0 0-.532.352 3.887 3.887 0 0 1 .645 2.151.319.319 0 0 0 .637 0 4.523 4.523 0 0 0-.75-2.503z" transform="translate(-347.39 -165.989)" style="fill:#28a197"/>
        </g>
    </g>
    <g data-name="Group 74062">
        <g data-name="Group 74061">
            <path data-name="Path 67502" d="M333.957 143c-.05-.047-.1-.093-.154-.137a.319.319 0 1 0-.413.486c.045.038.089.078.133.118a.319.319 0 1 0 .434-.467z" transform="translate(-322.863 -138.327)" style="fill:#28a197"/>
        </g>
    </g>
</svg>
