<svg xmlns="http://www.w3.org/2000/svg" width="15.074" height="15.074" viewBox="0 0 15.074 15.074">
    <path d="M7.034 6.783v.754h1v-2.01h-1zm-5.025 0a.251.251 0 0 1 .251-.251h4.272v-1a.5.5 0 0 1 .5-.5h1a.5.5 0 0 1 .5.5v1h4.271a.251.251 0 0 1 0 .5H8.542v.5a.5.5 0 0 1-.5.5h-1a.5.5 0 0 1-.5-.5v-.5H2.261a.251.251 0 0 1-.251-.251zm5.535.5a.251.251 0 0 0 0-.5.251.251 0 0 0 0 .5zM1.759 2.512a.252.252 0 0 0-.251.251v7.286h12.058V2.764a.252.252 0 0 0-.251-.251zm4.773-.5h2.01v-.5h-2.01zm-1 0h.5v-.756A.251.251 0 0 1 6.281 1h2.512a.251.251 0 0 1 .251.251v.759h.5V.754A.252.252 0 0 0 9.3.5H5.778a.252.252 0 0 0-.251.251zm-3.768 0h3.261V.754A.755.755 0 0 1 5.778 0H9.3a.755.755 0 0 1 .754.754V2.01h3.266a.755.755 0 0 1 .754.754V10.3a.251.251 0 0 1-.251.251H1.256A.251.251 0 0 1 1 10.3V2.764a.755.755 0 0 1 .754-.754zM9.8 13.566h-.756v-.251a.251.251 0 1 0-.5 0v.5a.251.251 0 0 0 .251.251h1a.838.838 0 0 1 .7.5H4.579a.838.838 0 0 1 .7-.5h2.509a.251.251 0 1 0 0-.5H6.532v-.251a.251.251 0 1 0-.5 0v.251h-.756a1.323 1.323 0 0 0-1.256 1.257.251.251 0 0 0 .251.251H10.8a.251.251 0 0 0 .251-.251A1.323 1.323 0 0 0 9.8 13.566zm-2.258-2.512a.251.251 0 1 0 .254.251.25.25 0 0 0-.254-.251zm7.532-8.793v9.044a1.243 1.243 0 0 1-1.256 1.256H1.256C.477 12.561 0 11.423 0 10.8V2.261A1.3 1.3 0 0 1 1.256 1h3.015a.251.251 0 1 1 0 .5H1.256a.8.8 0 0 0-.756.778V10.8c0 .507.4 1.256.754 1.256h12.564a.737.737 0 0 0 .754-.754V2.261a.755.755 0 0 0-.754-.754H10.8a.251.251 0 0 1 0-.5h3.015a1.258 1.258 0 0 1 1.256 1.256z" style="fill:#28a197;fill-rule:evenodd"/>
</svg>
