<svg xmlns="http://www.w3.org/2000/svg" width="13.903" height="15.337" viewBox="0 0 13.903 15.337">
    <g data-name="Icon feather-share-2">
        <path data-name="Path 2741" d="M26.8 5.15A2.15 2.15 0 1 1 24.65 3a2.15 2.15 0 0 1 2.15 2.15z" transform="translate(-13.398 -2.5)" style="fill:none;stroke:#1e866f;stroke-linecap:round;stroke-linejoin:round"/>
        <path data-name="Path 2742" d="M8.8 15.65a2.15 2.15 0 1 1-2.15-2.15 2.15 2.15 0 0 1 2.15 2.15z" transform="translate(-4 -7.982)" style="fill:none;stroke:#1e866f;stroke-linecap:round;stroke-linejoin:round"/>
        <path data-name="Path 2743" d="M26.8 26.15A2.15 2.15 0 1 1 24.65 24a2.15 2.15 0 0 1 2.15 2.15z" transform="translate(-13.398 -13.464)" style="fill:none;stroke:#1e866f;stroke-linecap:round;stroke-linejoin:round"/>
        <path data-name="Path 2744" d="m12.885 20.265 4.9 2.853" transform="translate(-8.378 -11.514)" style="fill:none;stroke:#1e866f;stroke-linecap:round;stroke-linejoin:round"/>
        <path data-name="Path 2745" d="m17.774 9.765-4.889 2.853" transform="translate(-8.378 -6.032)" style="fill:none;stroke:#1e866f;stroke-linecap:round;stroke-linejoin:round"/>
    </g>
</svg>
