<svg width="16" height="16" viewBox="0 0 16 16" fill="none" xmlns="http://www.w3.org/2000/svg">
<path d="M15.5879 4.57822L8.07273 2.29943C8.02425 2.27519 7.97577 2.27519 7.92728 2.29943L0.412129 4.57822C0.315159 4.60246 0.242432 4.69943 0.242432 4.82064C0.242432 4.94186 0.315159 5.01458 0.412129 5.06307L2.08486 5.57216V8.77216C2.08486 8.86913 2.13334 8.94186 2.20607 8.99034C2.23031 9.01458 4.46061 10.2994 7.8788 10.2994C8.92122 10.2994 10.0849 10.1782 11.3455 9.86307V11.3661C10.8849 11.4631 10.5455 11.8752 10.5455 12.3358V13.5237C10.5455 13.6691 10.6424 13.7661 10.7879 13.7661H12.3636C12.5091 13.7661 12.6061 13.6691 12.6061 13.5237V12.3358C12.6061 11.8509 12.2667 11.4631 11.8061 11.3661V9.69337C12.4364 9.49943 13.0909 9.28125 13.7697 8.9661C13.8667 8.91761 13.9152 8.84489 13.9152 8.74792V5.54792L15.5879 5.03883C15.6849 5.01458 15.7576 4.91761 15.7576 4.7964C15.7576 4.67519 15.6849 4.60246 15.5879 4.57822ZM2.5697 8.60246V5.69337L7.92728 7.31761H8.07273L11.3455 6.32367V9.30549C6.69092 10.5419 3.22425 8.94186 2.5697 8.60246ZM12.1212 12.3116V13.2085H11.0303V12.3116C11.0303 11.9964 11.2727 11.754 11.5879 11.754C11.903 11.754 12.1212 12.0206 12.1212 12.3116ZM13.4303 8.57822C12.8727 8.82064 12.3394 9.01458 11.8061 9.18428V6.17822L13.4303 5.69337V8.57822ZM11.5879 5.74186L8.09698 4.45701C7.97577 4.40852 7.83031 4.48125 7.78183 4.60246C7.73334 4.72367 7.80607 4.86913 7.92728 4.91761L10.8364 5.98428L8.00001 6.83277L1.3091 4.82064L8.00001 2.78428L14.6909 4.82064C13.2849 5.23277 12.5333 5.47519 11.5879 5.74186Z" fill="#1E866F"/>
</svg>
