<svg width="16" height="16" viewBox="0 0 16 16" fill="none" xmlns="http://www.w3.org/2000/svg">
<g clip-path="url(#clip0_6365_673)">
<path d="M15.1688 11.0719C15.1688 9.60625 14.0407 8.39688 12.6094 8.26875V0.0625H5.07817L0.831299 4.30937V15.9375H12.6094V13.875C14.0438 13.7469 15.1688 12.5406 15.1688 11.0719ZM4.92817 0.9375V4.15938H1.7063L4.92817 0.9375ZM1.3438 15.425V4.67188H5.44067V0.575H12.0969V8.26875C10.6625 8.4 9.53755 9.60625 9.53755 11.0719C9.53755 12.5375 10.6657 13.7469 12.0969 13.875V15.425H1.3438ZM12.3532 13.3781C11.0813 13.3781 10.05 12.3438 10.05 11.075C10.05 9.80625 11.0844 8.77188 12.3532 8.77188C13.6219 8.77188 14.6563 9.80625 14.6563 11.075C14.6563 12.3438 13.6219 13.3781 12.3532 13.3781Z" fill="#1E866F"/>
<path d="M11.8407 11.6078L11.2532 11.0203L10.8907 11.3828L11.8407 12.3328L13.8157 10.3578L13.4532 9.99844L11.8407 11.6078ZM10.8157 1.60156H6.71885V6.21094H10.8157V1.60156ZM10.3032 5.69844H7.23135V2.11094H10.3032V5.69844ZM2.36572 7.23281H11.072V7.74531H2.36572V7.23281ZM2.36572 9.53906H8.76572V10.0516H2.36572V9.53906ZM2.36572 11.8422H8.76572V12.3547H2.36572V11.8422ZM2.36572 14.1453H11.072V14.6578H2.36572V14.1453Z" fill="#1E866F"/>
</g>
<defs>
<clipPath id="clip0_6365_673">
<rect width="16" height="16" fill="white"/>
</clipPath>
</defs>
</svg>
