<svg width="16" height="16" viewBox="0 0 16 16" fill="none" xmlns="http://www.w3.org/2000/svg">
<path d="M15.6607 3.59176C12.7516 0.68267 12.9698 0.900852 12.897 0.852367C12.8728 0.852367 12.8243 0.828125 12.8243 0.828125H5.09099C4.94553 0.828125 4.84857 0.925095 4.84857 1.07055V3.66449C4.65463 3.80994 4.48493 3.9554 4.31523 4.10085C2.61826 5.79782 2.52129 8.53722 4.14553 10.3554L3.51523 10.9857L3.1516 10.6221C3.05463 10.5251 2.90917 10.5251 2.8122 10.6221L0.509171 12.9251C0.121292 13.313 0.121292 13.919 0.509171 14.3069L0.557656 14.3554C0.945534 14.7433 1.5516 14.7433 1.93947 14.3554L4.2425 12.0524C4.33947 11.9554 4.33947 11.8099 4.2425 11.713L3.87887 11.3251L4.50917 10.6948C4.63038 10.7918 4.72735 10.8887 4.84857 10.9857V14.913C4.84857 15.0584 4.94553 15.1554 5.09099 15.1554H15.5152C15.6607 15.1554 15.7577 15.0584 15.7577 14.913V3.80994C15.7819 3.71297 15.7334 3.64025 15.6607 3.59176ZM1.60008 13.9918C1.40614 14.1857 1.09099 14.1857 0.921292 13.9918L0.872807 13.9433C0.678868 13.7493 0.678868 13.4584 0.872807 13.2645L3.00614 11.1312L3.36978 11.4948L3.73341 11.8584L1.60008 13.9918ZM14.9334 3.54328H13.0667V1.65237L14.9334 3.54328ZM4.65463 4.46449C6.23038 2.88873 8.80008 2.88873 10.4001 4.46449C11.9758 6.04025 11.9758 8.60994 10.4001 10.2099C8.82432 11.7857 6.25463 11.7857 4.65463 10.2099C3.07887 8.60994 3.07887 6.04025 4.65463 4.46449ZM15.2728 14.6948H5.33341V11.3009C7.05463 12.2463 9.26069 12.0039 10.7395 10.5493C12.5092 8.77964 12.5092 5.89479 10.7395 4.12509C9.26069 2.64631 7.05463 2.40388 5.33341 3.37358V1.31297H12.5819V3.7857C12.5819 3.93116 12.6789 4.02813 12.8243 4.02813H15.2728V14.6948Z" fill="#1E866F"/>
<path d="M4.80016 9.38248C4.89713 9.50369 4.9941 9.62491 5.11532 9.74612C6.44865 11.0795 8.60623 11.0795 9.93956 9.74612C10.0608 9.62491 10.1577 9.50369 10.2547 9.38248L10.279 9.35824C11.2729 8.02491 11.1517 6.134 9.9638 4.92188C8.63047 3.58854 6.47289 3.58854 5.13956 4.92188C3.9032 6.134 3.80623 8.02491 4.80016 9.38248C4.80016 9.35824 4.80016 9.35824 4.80016 9.38248ZM5.45471 9.40672C5.40623 9.35824 5.3335 9.28551 5.28501 9.21278C5.7941 8.46127 6.61835 8.02491 7.51532 8.02491C8.41229 8.02491 9.23653 8.46127 9.74562 9.21278C9.69713 9.28551 9.64865 9.334 9.57592 9.40672C8.46077 10.5461 6.5941 10.5461 5.45471 9.40672ZM6.52138 6.52188C6.52138 5.9643 6.98198 5.50369 7.53956 5.50369C8.09713 5.50369 8.55774 5.9643 8.55774 6.52188C8.55774 7.07945 8.09713 7.54006 7.53956 7.54006C6.98198 7.54006 6.52138 7.07945 6.52138 6.52188ZM5.45471 5.26127C6.5941 4.12188 8.43653 4.12188 9.60016 5.26127C10.5699 6.23097 10.7153 7.66127 10.0608 8.80066C9.64865 8.26733 9.09107 7.90369 8.48501 7.70975C8.82441 7.44309 9.04259 7.00672 9.04259 6.54612C9.04259 5.72188 8.3638 5.04309 7.53956 5.04309C6.71532 5.04309 6.03653 5.72188 6.03653 6.54612C6.03653 7.00672 6.25471 7.44309 6.5941 7.70975C5.9638 7.90369 5.40623 8.26733 5.01835 8.80066C4.3638 7.68551 4.50926 6.23097 5.45471 5.26127ZM6.23047 13.3098C6.23047 13.4552 6.32744 13.5522 6.47289 13.5522H14.3517C14.4971 13.5522 14.5941 13.4552 14.5941 13.3098C14.5941 13.1643 14.4971 13.0673 14.3517 13.0673H6.47289C6.35168 13.0673 6.23047 13.1885 6.23047 13.3098ZM13.4547 7.34612H13.9396C14.085 7.34612 14.182 7.24915 14.182 7.10369C14.182 6.95824 14.085 6.86127 13.9396 6.86127H13.4547C13.3093 6.86127 13.2123 6.95824 13.2123 7.10369C13.2123 7.24915 13.3093 7.34612 13.4547 7.34612ZM13.4547 5.7946H13.9396C14.085 5.7946 14.182 5.69763 14.182 5.55218C14.182 5.40672 14.085 5.30975 13.9396 5.30975H13.4547C13.3093 5.30975 13.2123 5.40672 13.2123 5.55218C13.2123 5.67339 13.3093 5.7946 13.4547 5.7946ZM13.4547 8.87339H13.9396C14.085 8.87339 14.182 8.77642 14.182 8.63097C14.182 8.48551 14.085 8.38854 13.9396 8.38854H13.4547C13.3093 8.38854 13.2123 8.48551 13.2123 8.63097C13.2123 8.77642 13.3093 8.87339 13.4547 8.87339ZM13.4547 10.4249H13.9396C14.085 10.4249 14.182 10.3279 14.182 10.1825C14.182 10.037 14.085 9.94006 13.9396 9.94006H13.4547C13.3093 9.94006 13.2123 10.037 13.2123 10.1825C13.2123 10.3279 13.3093 10.4249 13.4547 10.4249ZM13.4547 11.9764H13.9396C14.085 11.9764 14.182 11.8795 14.182 11.734C14.182 11.5885 14.085 11.4916 13.9396 11.4916H13.4547C13.3093 11.4916 13.2123 11.5885 13.2123 11.734C13.2123 11.8795 13.3093 11.9764 13.4547 11.9764Z" fill="#1E866F"/>
</svg>
