<svg width="16" height="16" viewBox="0 0 16 16" fill="none" xmlns="http://www.w3.org/2000/svg">
<path d="M6.66664 1.84422H8.60604C8.75149 1.84422 8.84846 1.74725 8.84846 1.6018C8.84846 1.45634 8.75149 1.35938 8.60604 1.35938H6.66664C6.52119 1.35938 6.42422 1.45634 6.42422 1.6018C6.42422 1.74725 6.52119 1.84422 6.66664 1.84422ZM7.85452 3.73513C7.75755 3.63816 7.6121 3.63816 7.51513 3.73513L4.89695 6.35331C4.79998 6.45028 4.79998 6.59574 4.89695 6.69271C4.99392 6.78968 5.13937 6.78968 5.23634 6.69271L7.85452 4.07453C7.95149 3.97756 7.95149 3.8321 7.85452 3.73513ZM8.02422 5.40786L6.8121 6.61998C6.71513 6.71695 6.71513 6.86241 6.8121 6.95937C6.90907 7.05634 7.05452 7.05634 7.15149 6.95937L8.36361 5.74725C8.46058 5.65028 8.46058 5.50483 8.36361 5.40786C8.26664 5.31089 8.12119 5.31089 8.02422 5.40786Z" fill="#1E866F"/>
<path d="M1.93943 9.26037L1.98792 9.28461C1.5758 9.72098 1.64852 10.3513 2.06065 10.6907L3.05459 11.5149C3.1758 11.6119 3.32125 11.6846 3.46671 11.7089V12.8482C3.46671 13.2604 3.78186 13.5755 4.19398 13.5755H4.26671C4.65459 14.1089 4.96974 14.424 5.21216 14.6664C5.79398 15.2482 5.69701 15.4179 5.74549 15.5634C5.76974 15.6846 5.91519 15.7816 6.0364 15.7331C6.15762 15.7089 6.25459 15.5634 6.2061 15.4422C6.15762 15.321 6.23034 15.0301 5.55155 14.3028C5.33337 14.1331 5.11519 13.9149 4.84853 13.5755H11.1031C11.5152 13.5755 11.8303 13.2604 11.8303 12.8482V8.31491C11.8061 7.99976 11.6606 7.7331 10.9576 6.01188C10.7879 5.47855 11.0061 5.09067 11.6849 4.77552C11.8303 4.70279 11.9758 4.77552 12.0243 4.92098C12.7273 6.83613 13.1637 7.97552 13.4546 8.72704C14.0364 10.2301 13.9152 9.91492 13.8182 10.4967C13.5273 11.6361 12.9697 14.0604 13.1152 15.5392C13.1152 15.6604 13.2364 15.7573 13.3576 15.7573H13.3819C13.5031 15.7331 13.6243 15.6361 13.6 15.4907C13.4546 14.1089 14.0364 11.7331 14.3031 10.5937C14.4 9.93916 14.6182 10.3028 13.9394 8.5331C13.6485 7.78158 13.2122 6.61795 12.5091 4.72704C12.4122 4.46037 12.1697 4.26643 11.8546 4.26643V0.96946C11.8546 0.557339 11.5394 0.242188 11.1273 0.242188H4.16974C3.75762 0.242188 3.44246 0.557339 3.44246 0.96946V3.51491C3.03034 3.36946 2.59398 3.53916 2.35156 3.87855C2.0364 4.31491 2.10913 4.96946 2.54549 5.30885C3.15156 5.7937 3.34549 5.9634 3.46671 6.03613V6.47249C3.29701 6.35128 3.12731 6.30279 2.93337 6.30279C2.64246 6.30279 2.3758 6.42401 2.18186 6.64219C1.91519 6.95734 1.89095 7.3937 2.08489 7.7331C2.01216 7.78158 1.91519 7.85431 1.86671 7.92704C1.47883 8.31492 1.55156 8.92098 1.93943 9.26037ZM3.44246 5.40582C3.29701 5.28461 3.12731 5.13916 2.8364 4.92098C2.61822 4.75128 2.56974 4.41188 2.73943 4.16946C3.03034 3.75734 3.41822 4.07249 3.44246 4.07249V5.40582ZM3.12731 8.70279C3.29701 8.84825 3.51519 8.94522 3.78186 8.92098C3.9758 9.09067 4.02428 9.40582 3.83034 9.59976C3.66065 9.7937 3.34549 9.81795 3.15156 9.64825L2.23034 8.87249C2.0364 8.70279 1.98792 8.38764 2.15762 8.1937C2.2061 8.12098 2.27883 8.09673 2.35156 8.04825L3.12731 8.70279ZM2.3758 10.3513C2.15762 10.1816 2.13337 9.81795 2.3758 9.62401L2.88489 10.0604C3.10307 10.2543 3.41822 10.3513 3.75762 10.2543L3.9758 10.4482C4.16974 10.6179 4.21822 10.9331 4.04853 11.127C3.87883 11.321 3.56368 11.3452 3.36974 11.1755L2.3758 10.3513ZM11.1031 13.0907H4.16974C4.04853 13.0907 3.92731 12.9937 3.92731 12.8482V11.8786H11.3455V12.8482C11.3455 12.9695 11.2485 13.0907 11.1031 13.0907ZM10.497 6.15734C11.2485 7.99976 11.3455 8.14522 11.3455 8.41189V11.3937H4.41216C4.72731 10.9816 4.67883 10.3998 4.26671 10.0604L4.16974 9.98764C4.50913 9.62401 4.53337 9.13916 4.29095 8.77552C4.36368 8.72704 4.4364 8.67855 4.48489 8.60582C4.82428 8.1937 4.7758 7.58764 4.36368 7.24825L3.90307 6.86037V2.98158H11.3213V4.38764C10.3516 4.92098 10.3273 5.62401 10.497 6.15734ZM4.16974 0.727036H11.1031C11.2485 0.727036 11.3455 0.824006 11.3455 0.96946V2.49673H3.92731V0.96946C3.92731 0.824006 4.02428 0.727036 4.16974 0.727036ZM2.52125 6.9331C2.61822 6.81188 2.73943 6.7634 2.88489 6.7634C3.0061 6.7634 3.10307 6.81188 3.20004 6.88461L4.07277 7.61188C4.26671 7.78158 4.31519 8.09673 4.12125 8.29067C3.95156 8.48461 3.6364 8.50885 3.44246 8.33916L2.56974 7.61188C2.47277 7.53916 2.40004 7.41795 2.40004 7.29673C2.40004 7.15128 2.44852 7.03007 2.52125 6.9331Z" fill="#1E866F"/>
</svg>
