<svg width="12" height="12" viewBox="0 0 12 12" fill="none" xmlns="http://www.w3.org/2000/svg">
<path d="M8.29705 3.41854V2.09196C8.2947 1.98991 8.21497 1.90973 8.11882 1.91216C8.02267 1.91459 7.94762 1.99234 7.94528 2.09196V3.41854C7.692 3.49629 7.50909 3.73925 7.50909 4.02595C7.50909 4.15715 7.54661 4.27863 7.61462 4.38068L7.12918 4.94436C7.07055 5.01239 7.07055 5.11929 7.12918 5.18732C7.19953 5.2675 7.32382 5.2675 7.39183 5.18732L7.8843 4.61392C7.95935 4.64551 8.03908 4.66252 8.11882 4.66252C8.45651 4.66252 8.73089 4.37825 8.73089 4.02595C8.73324 3.74168 8.54797 3.49872 8.29705 3.41854ZM8.12116 4.29807C7.97811 4.29807 7.86085 4.17659 7.86085 4.02838C7.86085 3.88017 7.97811 3.75869 8.12116 3.75869C8.26421 3.75869 8.38147 3.88017 8.38147 4.02838C8.38147 4.17659 8.26421 4.29807 8.12116 4.29807Z" fill="#545454"/>
<path d="M8.12584 0C6.41859 0 4.96696 1.14922 4.44869 2.74064C4.36192 2.74064 4.27515 2.76979 4.2048 2.8281L3.85772 3.10751C3.79909 3.07836 3.74047 3.05406 3.67949 3.02976L3.62556 2.57542C3.59976 2.36647 3.42857 2.21097 3.22689 2.21097H2.58901C2.38733 2.21097 2.21614 2.3689 2.19034 2.57542L2.13406 3.02976C2.07309 3.05163 2.01446 3.07836 1.95583 3.10751L1.60875 2.8281C1.44928 2.69933 1.22181 2.71391 1.07876 2.86212L0.626147 3.32861C0.483095 3.47682 0.469024 3.71249 0.593315 3.87771L0.863004 4.23972C0.834863 4.30047 0.811411 4.36121 0.78796 4.42438L0.351768 4.48269C0.150088 4.50941 0 4.68678 0 4.89573V5.55659C0 5.76554 0.150088 5.9429 0.351768 5.96963L0.78796 6.02794C0.809066 6.09111 0.834863 6.15185 0.863004 6.21259L0.593315 6.57461C0.469024 6.73983 0.483095 6.9755 0.626147 7.12371L1.07641 7.5902C1.21946 7.73841 1.44694 7.75299 1.60641 7.62422L1.95348 7.34481C2.01211 7.37396 2.07074 7.39826 2.13171 7.42255L2.18565 7.8769C2.21145 8.08585 2.38264 8.24134 2.58432 8.24134H2.98065C2.9783 8.25592 2.9783 8.2705 2.9783 8.28508V9.02369C2.9783 9.24722 3.14012 9.43673 3.35352 9.46345L3.85538 9.52905C3.88352 9.6068 3.91401 9.68455 3.94684 9.75744L3.63728 10.1729C3.50595 10.3503 3.52003 10.6005 3.67246 10.7585L4.17666 11.2808C4.32909 11.4388 4.57298 11.4558 4.74183 11.3173L5.1405 10.9966C5.2132 11.033 5.2859 11.0646 5.36094 11.0913L5.42426 11.6113C5.45006 11.8324 5.63298 12 5.84873 12H6.56165C6.7774 12 6.96032 11.8324 6.98611 11.6113L7.04943 11.0913C7.12447 11.0622 7.19717 11.0306 7.26987 10.9966L7.66854 11.3173C7.83974 11.4533 8.08128 11.4388 8.23372 11.2808L8.73792 10.7585C8.89035 10.6005 8.90442 10.3478 8.77309 10.1729L8.46354 9.75744C8.49871 9.68212 8.5292 9.6068 8.555 9.52905L9.05685 9.46345C9.27026 9.43673 9.43207 9.24479 9.43207 9.02369V8.28508C9.43207 8.115 9.33827 7.96679 9.20225 7.89148C9.86826 7.69225 10.4733 7.30836 10.9564 6.77141C11.6294 6.02308 12 5.0488 12 4.02835C12.007 1.80522 10.2669 0 8.12584 0ZM2.53742 7.83073L2.46941 7.26463C2.46003 7.19417 2.41313 7.13343 2.34746 7.11399C2.23255 7.07755 2.12468 7.03138 2.01915 6.97307C1.95817 6.93906 1.88313 6.94635 1.82919 6.99008L1.39066 7.33752C1.3719 7.35453 1.34375 7.3521 1.32499 7.33266L0.87473 6.86617C0.855969 6.84673 0.855969 6.81757 0.870039 6.79814L1.20774 6.34622C1.24995 6.29034 1.25698 6.21259 1.22415 6.14942C1.16787 6.04009 1.12331 5.9259 1.08814 5.80684C1.06703 5.73881 1.01075 5.68779 0.942738 5.6805L0.396325 5.61004C0.370529 5.60761 0.351768 5.58575 0.351768 5.55902V4.89816C0.351768 4.87143 0.370529 4.84956 0.396325 4.84714L0.942738 4.77668C1.01075 4.76696 1.06937 4.71836 1.08814 4.65033C1.12331 4.53128 1.16787 4.41709 1.22415 4.30775C1.25698 4.24458 1.24995 4.16684 1.20774 4.11095L0.870039 3.65904C0.853624 3.6396 0.855969 3.60802 0.87473 3.59101L1.32499 3.12452C1.34375 3.10508 1.36955 3.10508 1.39066 3.11966L1.82685 3.46953C1.88079 3.51326 1.95583 3.52055 2.0168 3.48654C2.12233 3.42822 2.23255 3.38206 2.34512 3.34562C2.41078 3.32375 2.46003 3.26544 2.46707 3.19498L2.53507 2.62887C2.53742 2.60215 2.55853 2.58271 2.58432 2.58271H3.22219C3.24799 2.58271 3.2691 2.60215 3.27144 2.62887L3.33945 3.19498C3.34883 3.26544 3.39573 3.32618 3.4614 3.34562C3.57631 3.38206 3.68653 3.42822 3.78971 3.48654C3.85069 3.52055 3.92573 3.51326 3.97967 3.46953L4.3244 3.19255C4.26812 3.4671 4.23998 3.74894 4.23998 4.02835C4.23998 4.71593 4.41117 5.38895 4.73011 5.98421C4.56126 5.85544 4.3244 5.87244 4.17431 6.02794L3.67011 6.55031C3.53644 6.6888 3.5083 6.89775 3.59272 7.06783C3.55051 7.08483 3.50595 7.10184 3.4614 7.11642C3.39573 7.13829 3.34649 7.1966 3.33945 7.26706L3.27144 7.83316C3.2691 7.85989 3.24799 7.87933 3.22219 7.87933H2.58432C2.56322 7.87447 2.54211 7.85503 2.53742 7.83073ZM3.67949 7.42255C3.72405 7.40555 3.77095 7.38611 3.81551 7.36667L3.95153 7.5489C3.91635 7.62422 3.88586 7.69953 3.86007 7.77728L3.63494 7.80644L3.67949 7.42255ZM9.08734 9.02126C9.08734 9.06013 9.0592 9.09415 9.02168 9.09901L8.4096 9.17919C8.34159 9.1889 8.28296 9.2375 8.2642 9.30553C8.22433 9.43916 8.17274 9.56793 8.10942 9.69184C8.07659 9.75501 8.08363 9.83276 8.12584 9.88864L8.5034 10.394C8.52686 10.4256 8.52451 10.4693 8.49637 10.4985L7.99217 11.0209C7.96403 11.05 7.92181 11.0524 7.89133 11.0281L7.40354 10.637C7.34961 10.5932 7.27456 10.5859 7.21359 10.62C7.09399 10.6856 6.9697 10.739 6.84306 10.7803C6.7774 10.8022 6.72815 10.8605 6.72111 10.931L6.64372 11.5651C6.63903 11.604 6.6062 11.6356 6.56868 11.6356H5.85576C5.81824 11.6356 5.78541 11.6064 5.78072 11.5651L5.70333 10.931C5.69395 10.8605 5.64705 10.7998 5.58139 10.7803C5.4524 10.739 5.32811 10.6856 5.21086 10.62C5.14988 10.5859 5.07484 10.5932 5.0209 10.637L4.53077 11.0306C4.50028 11.0549 4.45807 11.0524 4.42993 11.0233L3.92573 10.5009C3.89759 10.4718 3.89524 10.428 3.9187 10.3964L4.29626 9.89107C4.33847 9.83519 4.34551 9.75744 4.31267 9.69427C4.24936 9.57036 4.19776 9.44159 4.1579 9.30796C4.13679 9.23993 4.08051 9.1889 4.0125 9.18162L3.40042 9.10144C3.3629 9.09658 3.33476 9.06256 3.33476 9.02369V8.28508C3.33476 8.2462 3.3629 8.21219 3.40042 8.20733L4.0125 8.12715C4.08051 8.11743 4.13914 8.06884 4.1579 8.00081C4.19776 7.86718 4.24936 7.73841 4.31267 7.6145C4.34551 7.55133 4.33847 7.47358 4.29626 7.4177L3.9187 6.91233C3.89524 6.88074 3.89759 6.83701 3.92573 6.80786L4.42993 6.28548C4.45807 6.25633 4.50028 6.2539 4.53077 6.27819L5.01856 6.66937C5.07249 6.7131 5.14754 6.72039 5.20851 6.68637C5.32811 6.62077 5.4524 6.56732 5.57904 6.52602C5.6447 6.50415 5.69395 6.44584 5.70099 6.37538L5.77838 5.74124C5.78307 5.70237 5.8159 5.67078 5.85342 5.67078H6.56634C6.60386 5.67078 6.63669 5.69994 6.64138 5.74124L6.71877 6.37538C6.72815 6.44584 6.77505 6.50658 6.84071 6.52602C6.9697 6.56732 7.09399 6.62077 7.21124 6.68637C7.27222 6.72039 7.34726 6.7131 7.4012 6.66937L7.88898 6.27819C7.91947 6.2539 7.96168 6.25633 7.98982 6.28548L8.49402 6.80786C8.52217 6.83701 8.52451 6.88074 8.50106 6.91233L8.1235 7.4177C8.08128 7.47358 8.07425 7.55133 8.10708 7.6145C8.1704 7.73841 8.22199 7.86718 8.26186 8.00081C8.28296 8.06884 8.33925 8.11986 8.40725 8.12715L9.01933 8.20733C9.05685 8.21219 9.08499 8.2462 9.08499 8.28508L9.08734 9.02126ZM10.7078 6.51873C10.1286 7.16258 9.35703 7.56347 8.52217 7.65823C8.50809 7.61936 8.49168 7.58291 8.47292 7.54647L8.71447 7.22332C9.35468 7.09698 9.95269 6.75926 10.4053 6.26848C10.4733 6.19559 10.4686 6.07896 10.3983 6.01093C10.3279 5.94047 10.2153 5.94533 10.1497 6.01822C9.80026 6.39725 9.35468 6.67423 8.86924 6.81272C8.85986 6.71553 8.81765 6.62077 8.7473 6.54545L8.2431 6.02308C8.09066 5.86515 7.84677 5.84815 7.67792 5.98664L7.27925 6.30735C7.20655 6.27091 7.13385 6.23932 7.05881 6.21259L6.99549 5.69265C6.9697 5.47155 6.78678 5.30391 6.57103 5.30391H5.85811C5.78541 5.30391 5.71506 5.32334 5.65408 5.35736C5.44771 4.94675 5.33984 4.48998 5.33984 4.02349C5.33984 2.42721 6.59213 1.12978 8.12819 1.12978C9.66424 1.12978 10.9165 2.42964 10.9165 4.02349C10.9165 4.52885 10.7876 5.02936 10.546 5.46426C10.4968 5.55173 10.5272 5.66349 10.6117 5.71452C10.6961 5.76554 10.804 5.73395 10.8509 5.64649C11.1229 5.1557 11.2683 4.59445 11.2683 4.02349C11.2683 2.22798 9.85888 0.765337 8.12584 0.765337C6.3928 0.765337 4.98338 2.22798 4.98338 4.02349C4.98338 4.61389 5.13581 5.18971 5.42661 5.69265L5.36329 6.21259C5.34687 6.21988 5.32811 6.22474 5.3117 6.23203C4.84971 5.60032 4.59643 4.82041 4.59643 4.02349C4.59643 2.00688 6.17939 0.364446 8.1235 0.364446C10.0723 0.364446 11.6552 2.00688 11.6552 4.02349C11.6552 4.95404 11.3175 5.84086 10.7078 6.51873Z" fill="#545454"/>
<path d="M6.21245 7.27406C5.48077 7.27406 4.88511 7.89119 4.88511 8.65167C4.88511 8.99911 5.0094 9.32954 5.23688 9.58465C5.30254 9.65754 5.41511 9.6624 5.48546 9.59194C5.55582 9.52391 5.56051 9.40972 5.49484 9.33683C5.32834 9.14975 5.23688 8.90435 5.23688 8.65167C5.23688 8.09285 5.67542 7.63851 6.21245 7.63851C6.74948 7.63851 7.18802 8.09285 7.18802 8.65167C7.18802 9.21049 6.74948 9.66483 6.21245 9.66483C6.14679 9.66483 6.08112 9.65754 6.01546 9.64539C5.91931 9.62596 5.82785 9.68913 5.80674 9.78874C5.78798 9.88593 5.84896 9.98311 5.94276 10.0026C6.03188 10.022 6.12099 10.0317 6.2101 10.0317C6.94178 10.0317 7.53744 9.41458 7.53744 8.6541C7.53979 7.89362 6.94413 7.27406 6.21245 7.27406ZM4.11357 5.22587C4.11357 4.53586 3.57184 3.97461 2.90818 3.97461C2.80968 3.97704 2.73229 4.05965 2.73464 4.15926C2.73698 4.25888 2.81203 4.33663 2.90818 4.33906C3.37955 4.33906 3.7618 4.73752 3.7618 5.22587C3.7618 5.71423 3.37955 6.11269 2.90818 6.11269C2.43681 6.11269 2.05455 5.71423 2.05455 5.22587C2.05455 4.9659 2.16477 4.71565 2.35707 4.548C2.43212 4.4824 2.4415 4.36821 2.37818 4.29046C2.31486 4.21271 2.20464 4.203 2.1296 4.2686C1.85756 4.5067 1.70044 4.85657 1.70044 5.22587C1.70044 5.91589 2.24216 6.47714 2.90583 6.47714C3.5695 6.47714 4.11357 5.91589 4.11357 5.22587Z" fill="#545454"/>
</svg>
