<svg width="24" height="24" viewBox="0 0 24 24" fill="none" xmlns="http://www.w3.org/2000/svg">
<g clip-path="url(#clip0_1366_2824)">
<path d="M14.6531 16.0125L14.4844 15.2719C13.7484 15.675 12.9 15.9 12.0047 15.9C11.1047 15.9 10.2609 15.6703 9.52031 15.2672L9.35156 16.0078L12.0047 18.7266L14.6531 16.0125ZM6 10.7016H6.79688L6.79219 6.65625L8.89688 3.9375C12.1266 4.575 14.8313 4.01719 15.075 3.90938L17.2031 6.65625V10.7016H18C18.8297 10.7016 19.5 10.0312 19.5 9.20156V8.39531C19.5 7.56563 18.8297 6.89531 18 6.89531V6C18 2.68594 15.3141 0 12 0C8.68594 0 6 2.68594 6 6V6.89531C5.17031 6.89531 4.5 7.56563 4.5 8.39531V9.20156C4.5 10.0312 5.17031 10.7016 6 10.7016Z" fill="#666666"/>
<path d="M11.2453 12.7039H8.775C9.44531 13.782 10.6406 14.4992 12 14.4992C14.0953 14.4992 15.7969 12.7977 15.7969 10.7023V7.13984L14.5078 5.47109C13.6969 5.60234 11.8734 5.79922 9.50156 5.45703L8.20312 7.13516V10.6977C8.20312 10.8992 8.22188 11.1008 8.25 11.293H11.2453V12.7039ZM4.28438 20.8461H5.69063V24.0008H18.3047V20.8461H19.7109V24.0008H24L22.8609 20.382C22.5422 19.3695 21.7453 18.582 20.7281 18.2727L17.9859 17.4383L15.4547 22.257L12 20.5273L8.54531 22.257L6.01406 17.4383L3.27188 18.2727C2.25469 18.582 1.45781 19.3695 1.13906 20.382L0 24.0008H4.28438V20.8461Z" fill="#666666"/>
<path d="M16.6172 17.0207L15.8625 16.791L13.1766 19.5426L14.85 20.3816L16.6172 17.0207ZM10.8234 19.5426L8.1375 16.791L7.38281 17.0207L9.15 20.3816L10.8234 19.5426Z" fill="#666666"/>
</g>
<defs>
<clipPath id="clip0_1366_2824">
<rect width="24" height="24" fill="white"/>
</clipPath>
</defs>
</svg>
