<svg width="15" height="19" viewBox="0 0 15 19" fill="none" xmlns="http://www.w3.org/2000/svg">
<g clip-path="url(#clip0_1231_3207)">
<path d="M14.7352 2.2915H13.8804V1.25113C13.8804 1.11121 13.7631 1 13.6156 1C13.4681 1 13.3508 1.11121 13.3508 1.25113V2.2915H12.2161V1.25113C12.2161 1.11121 12.0989 1 11.9513 1C11.8038 1 11.6866 1.11121 11.6866 1.25113V2.2915H10.5518V1.25113C10.5518 1.11121 10.4346 1 10.2871 1C10.1396 1 10.0223 1.11121 10.0223 1.25113V2.2915H8.88758V1.25113C8.88758 1.11121 8.77032 1 8.62281 1C8.47529 1 8.35804 1.11121 8.35804 1.25113V2.2915H7.22331V1.25113C7.22331 1.11121 7.10606 1 6.95854 1C6.81103 1 6.69377 1.11121 6.69377 1.25113V2.2915H5.55905V1.25113C5.55905 1.11121 5.44179 1 5.29428 1C5.14676 1 5.02951 1.11121 5.02951 1.25113V2.2915H4.17468C4.02717 2.2915 3.90991 2.40271 3.90991 2.54263V16.4621C3.90991 16.602 4.02717 16.7133 4.17468 16.7133H5.02951V17.7536C5.02951 17.8935 5.14676 18.0048 5.29428 18.0048C5.44179 18.0048 5.55905 17.8935 5.55905 17.7536V16.7133H6.69377V17.7536C6.69377 17.8935 6.81103 18.0048 6.95854 18.0048C7.10606 18.0048 7.22331 17.8935 7.22331 17.7536V16.7133H8.35804V17.7536C8.35804 17.8935 8.47529 18.0048 8.62281 18.0048C8.77032 18.0048 8.88758 17.8935 8.88758 17.7536V16.7133H10.0223V17.7536C10.0223 17.8935 10.1396 18.0048 10.2871 18.0048C10.4346 18.0048 10.5518 17.8935 10.5518 17.7536V16.7133H11.6866V17.7536C11.6866 17.8935 11.8038 18.0048 11.9513 18.0048C12.0989 18.0048 12.2161 17.8935 12.2161 17.7536V16.7133H13.3508V17.7536C13.3508 17.8935 13.4681 18.0048 13.6156 18.0048C13.7631 18.0048 13.8804 17.8935 13.8804 17.7536V16.7133H14.7352C14.8827 16.7133 15 16.602 15 16.4621V2.54263C15 2.40271 14.8789 2.2915 14.7352 2.2915ZM14.4704 16.211H4.43945V2.79375H14.4704V16.211Z" fill="#1E866F"/>
<path d="M13.3735 4.77667C12.8251 4.77667 12.3788 4.35334 12.375 3.83316C12.375 3.69324 12.2577 3.58203 12.1102 3.58203H6.79592C6.64841 3.58203 6.53115 3.69324 6.53115 3.83316C6.53115 4.35334 6.08482 4.77667 5.53259 4.77667C5.38508 4.77667 5.26782 4.88788 5.26782 5.02779V15.1697C5.26782 15.3096 5.38508 15.4208 5.53259 15.4208H13.3698C13.5173 15.4208 13.6345 15.3096 13.6345 15.1697V5.02779C13.6383 4.89147 13.5173 4.77667 13.3735 4.77667ZM13.1088 14.9185H5.80114V5.25739C6.43281 5.14977 6.9283 4.68339 7.04178 4.08428H11.8719C11.9854 4.68339 12.4809 5.15336 13.1126 5.25739L13.1088 14.9185Z" fill="#1E866F"/>
<path d="M11.5164 8.27862C11.4597 7.67592 11.0549 7.14856 10.4687 6.91178L9.55711 6.54227C9.48903 6.51716 9.41716 6.51716 9.34908 6.54227L8.43751 6.91178C7.85124 7.14856 7.44652 7.67233 7.38978 8.27862C6.91698 8.56921 6.6333 9.06787 6.6333 9.60241V13.8787C6.6333 14.0186 6.75056 14.1298 6.89807 14.1298H12.0119C12.1594 14.1298 12.2767 14.0186 12.2767 13.8787V9.60241C12.2767 9.06787 11.9892 8.56921 11.5164 8.27862ZM11.7471 13.6276H7.16284V9.60241C7.16284 9.20061 7.39735 8.8311 7.77559 8.64813C7.86259 8.60508 7.91932 8.51898 7.91932 8.42571C7.91932 7.96651 8.20679 7.55395 8.65311 7.37457L9.45877 7.04811L10.2644 7.37457C10.7107 7.55395 10.9982 7.96651 10.9982 8.42571C10.9982 8.51898 11.0549 8.60508 11.1419 8.64813C11.5164 8.8311 11.7547 9.20061 11.7547 9.60241V13.6276H11.7471Z" fill="#1E866F"/>
<path d="M11.1041 11.2852C10.9566 11.2852 10.8394 11.3964 10.8394 11.5363V12.4941C10.8394 12.6341 10.9566 12.7453 11.1041 12.7453C11.2516 12.7453 11.3689 12.6341 11.3689 12.4941V11.5363C11.3689 11.3964 11.2479 11.2852 11.1041 11.2852Z" fill="#1E866F"/>
</g>
<path d="M4.32702 7.65403C6.16448 7.65403 7.65403 6.16448 7.65403 4.32702C7.65403 2.48956 6.16448 1 4.32702 1C2.48956 1 1 2.48956 1 4.32702C1 6.16448 2.48956 7.65403 4.32702 7.65403Z" fill="white" stroke="#1E866F" stroke-width="0.7"/>
<path d="M4.32764 2.99609V4.3269L5.15939 5.15865" fill="white"/>
<path d="M4.32764 2.99609V4.3269L5.15939 5.15865" stroke="#1E866F" stroke-width="0.7" stroke-linecap="round" stroke-linejoin="round"/>
<defs>
<clipPath id="clip0_1231_3207">
<rect width="11.0901" height="17.0048" fill="white" transform="translate(3.90991 1)"/>
</clipPath>
</defs>
</svg>
