<svg width="14" height="18" viewBox="0 0 14 18" fill="none" xmlns="http://www.w3.org/2000/svg">
<path d="M11.7185 10.86C12.5035 9.84583 13 8.56011 13 7.18105C13 3.86704 10.314 1.18105 7 1.18105C3.686 1.18105 1 3.86704 1 7.18105C1 8.56011 1.47949 9.85007 2.26025 10.86L7 17L11.7185 10.86Z" stroke="#1E866F" stroke-width="0.5" stroke-miterlimit="10" stroke-linecap="round" stroke-linejoin="round"/>
<path d="M3.79193 4.64772C3.24031 5.34362 2.91357 6.22622 2.91357 7.18096C2.91357 9.43839 4.74243 11.2715 7.0041 11.2715C9.26152 11.2715 11.0946 9.44263 11.0946 7.18096C11.0946 4.91929 9.26577 3.09044 7.0041 3.09044C6.04512 3.09044 5.16676 3.42141 4.47086 3.9688" stroke="#1E866F" stroke-width="0.5" stroke-miterlimit="10" stroke-linecap="round" stroke-linejoin="round"/>
</svg>
