<svg width="16" height="16" viewBox="0 0 16 16" fill="none" xmlns="http://www.w3.org/2000/svg">
<path d="M4.49297 14.6333C3.7347 14.6335 2.9934 14.4088 2.36287 13.9876C1.73235 13.5663 1.24093 12.9676 0.950808 12.267C0.660686 11.5664 0.584894 10.7955 0.733025 10.0519C0.881155 9.3082 1.24655 8.62519 1.78297 8.08925L7.43964 2.43192C7.53344 2.33812 7.66066 2.28542 7.79331 2.28542C7.92596 2.28542 8.05318 2.33812 8.14697 2.43192C8.24077 2.52571 8.29347 2.65293 8.29347 2.78558C8.29347 2.91823 8.24077 3.04545 8.14697 3.13925L2.48964 8.79592C2.21575 9.05656 1.9968 9.36938 1.84568 9.71595C1.69457 10.0625 1.61434 10.4358 1.60974 10.8139C1.60513 11.192 1.67624 11.5671 1.81887 11.9173C1.9615 12.2674 2.17277 12.5855 2.44023 12.8527C2.70768 13.1199 3.02592 13.3309 3.37619 13.4733C3.72646 13.6156 4.10167 13.6864 4.47973 13.6815C4.85778 13.6766 5.23103 13.596 5.57747 13.4446C5.92392 13.2932 6.23656 13.074 6.49697 12.7999L13.8036 5.49325C14.1385 5.14749 14.324 4.68397 14.3201 4.20268C14.3162 3.72139 14.1233 3.26091 13.783 2.92057C13.4426 2.58024 12.9822 2.38733 12.5009 2.38346C12.0196 2.3796 11.5561 2.56509 11.2103 2.89992L5.31831 8.79592C5.24091 8.87331 5.17952 8.96519 5.13764 9.06631C5.09575 9.16742 5.0742 9.2758 5.0742 9.38525C5.0742 9.4947 5.09575 9.60308 5.13764 9.7042C5.17952 9.80531 5.24091 9.89719 5.31831 9.97458C5.3957 10.052 5.48758 10.1134 5.58869 10.1553C5.68981 10.1971 5.79819 10.2187 5.90764 10.2187C6.01709 10.2187 6.12547 10.1971 6.22658 10.1553C6.3277 10.1134 6.41958 10.052 6.49697 9.97458L10.267 6.20392C10.3131 6.15614 10.3682 6.11802 10.4292 6.09179C10.4902 6.06556 10.5558 6.05173 10.6222 6.05113C10.6886 6.05052 10.7544 6.06314 10.8159 6.08825C10.8774 6.11336 10.9332 6.15046 10.9802 6.19739C11.0271 6.24431 11.0643 6.30012 11.0895 6.36155C11.1146 6.42299 11.1273 6.48882 11.1268 6.55521C11.1262 6.6216 11.1125 6.68722 11.0863 6.74823C11.0601 6.80925 11.022 6.86444 10.9743 6.91058L7.20364 10.6819C7.0334 10.8522 6.83129 10.9873 6.60885 11.0795C6.38641 11.1716 6.14799 11.2191 5.90721 11.2191C5.66643 11.2191 5.428 11.1717 5.20553 11.0796C4.98306 10.9875 4.78092 10.8525 4.61064 10.6823C4.44036 10.512 4.30528 10.3099 4.2131 10.0875C4.12093 9.86502 4.07348 9.6266 4.07345 9.38582C4.07338 8.89954 4.2665 8.43315 4.61031 8.08925L10.5036 2.19992C11.035 1.66851 11.7556 1.36994 12.5071 1.36987C13.2585 1.36981 13.9792 1.66827 14.5106 2.19958C15.042 2.7309 15.3406 3.45156 15.3407 4.20301C15.3407 4.95447 15.0423 5.67518 14.511 6.20658L7.20431 13.5106C6.84902 13.8677 6.42646 14.1507 5.96106 14.3434C5.49567 14.5361 4.99668 14.6346 4.49297 14.6333Z" fill="#1E866F"/>
</svg>
