<svg width="14" height="15" viewBox="0 0 14 15" fill="none" xmlns="http://www.w3.org/2000/svg">
<path d="M6.99793 11.8058C5.25144 11.8058 3.83301 10.3863 3.83301 8.63858C3.83301 6.89084 5.25457 5.46826 6.99793 5.46826C8.74129 5.46826 10.1628 6.88771 10.1628 8.63545C10.1628 10.3832 8.74441 11.8058 6.99793 11.8058ZM6.99793 6.46876C5.80444 6.46876 4.83278 7.44111 4.83278 8.63545C4.83278 9.82979 5.80444 10.8021 6.99793 10.8021C8.19141 10.8021 9.16307 9.82979 9.16307 8.63545C9.16307 7.44111 8.19141 6.46876 6.99793 6.46876Z" fill="#1E866F"/>
<path d="M6.33274 9.80504C6.16716 9.80504 5.99844 9.7175 5.90472 9.5643C5.76412 9.32355 5.83911 9.01715 6.07655 8.87646L6.58269 8.57006C6.6358 8.54192 6.66392 8.48251 6.66392 8.42936V7.81031C6.66392 7.5383 6.892 7.31006 7.16381 7.31006C7.43562 7.31006 7.6637 7.52892 7.6637 7.80405V8.42311C7.6637 8.82956 7.445 9.21725 7.0982 9.4236L6.59206 9.73C6.51395 9.78628 6.42023 9.80504 6.33274 9.80504Z" fill="#1E866F"/>
<path d="M9.66644 14.3416H4.33326C1.2527 14.3416 0.680949 12.9065 0.534107 11.5121L0.0342184 6.16882C-0.0376405 5.46847 -0.0595107 4.43358 0.634084 3.66133C1.23395 2.99537 2.22748 2.67334 3.66778 2.67334H10.3319C11.7785 2.67334 12.772 3.00163 13.3656 3.66133C14.0592 4.43358 14.0373 5.46847 13.9655 6.17507L13.4656 11.5058C13.3188 12.9065 12.7439 14.3416 9.66644 14.3416ZM3.66778 3.66758C2.53991 3.66758 1.76821 3.88644 1.37454 4.32728C1.04649 4.68683 0.940266 5.24023 1.02775 6.06877L1.52764 11.412C1.64011 12.4657 1.92755 13.3411 4.33326 13.3411H9.66644C12.0659 13.3411 12.3596 12.4688 12.4721 11.4058L12.972 6.07502C13.0594 5.24023 12.9532 4.68683 12.6252 4.32728C12.2315 3.88644 11.4598 3.66758 10.3319 3.66758H3.66778Z" fill="#1E866F"/>
<path d="M9.66661 3.66744C9.3948 3.66744 9.16672 3.4392 9.16672 3.16719V2.63568C9.16672 1.44759 9.16672 1.00049 7.53271 1.00049H6.46732C4.83331 1.00049 4.83331 1.44759 4.83331 2.63568V3.17032C4.83331 3.44233 4.60524 3.67056 4.33343 3.67056C4.06161 3.67056 3.83354 3.44233 3.83354 3.17032V2.63568C3.83354 1.46322 3.83354 0 6.46732 0H7.53271C10.1665 0 10.1665 1.4601 10.1665 2.63568V3.17032C10.1665 3.44233 9.93842 3.66744 9.66661 3.66744ZM9.67286 8.76371C9.44478 8.76371 9.24483 8.61051 9.18547 8.38227C9.11986 8.11651 9.2792 7.84138 9.54476 7.77572C10.8445 7.44743 12.0505 6.88153 13.1315 6.09364C13.3502 5.93418 13.6657 5.98108 13.8313 6.20619C13.9906 6.42505 13.9438 6.74083 13.7188 6.90654C12.5378 7.76634 11.2038 8.39165 9.78533 8.74807C9.74784 8.76058 9.71035 8.76371 9.67286 8.76371ZM4.33343 8.78559C4.29281 8.78559 4.25219 8.77934 4.2147 8.77309C2.87438 8.4448 1.61528 7.87577 0.462414 7.091C0.23434 6.9378 0.174979 6.62515 0.328069 6.39691C0.48116 6.16867 0.793591 6.10927 1.02166 6.26247C2.07455 6.98158 3.22117 7.49746 4.44902 7.7976C4.71459 7.86326 4.8833 8.13214 4.81457 8.40415C4.7677 8.63239 4.5615 8.78559 4.33343 8.78559Z" fill="#1E866F"/>
</svg>
