<svg width="16" height="16" viewBox="0 0 16 16" fill="none" xmlns="http://www.w3.org/2000/svg">
<g clip-path="url(#clip0_2889_1584)">
<path d="M14 2.93435H11.3438V2.22467C11.3438 1.64403 11.151 1.15478 10.7656 0.75693C10.3802 0.359081 9.90625 0.160156 9.34375 0.160156H6.65625C6.09375 0.160156 5.61979 0.359081 5.23438 0.75693C4.84896 1.15478 4.65625 1.64403 4.65625 2.22467V2.93435H2C1.4375 2.93435 0.963542 3.1279 0.578125 3.51499C0.192708 3.90209 0 4.39672 0 4.99887V7.7408C0 8.19241 0.21875 8.41822 0.65625 8.41822V13.9343C0.65625 14.2999 0.791667 14.6225 1.0625 14.9021C1.33333 15.1817 1.64583 15.3214 2 15.3214H14C14.3542 15.3214 14.6667 15.1817 14.9375 14.9021C15.2083 14.6225 15.3438 14.2999 15.3438 13.9343V8.41822C15.7812 8.41822 16 8.19241 16 7.7408V4.99887C16 4.39672 15.8073 3.90209 15.4219 3.51499C15.0365 3.1279 14.5625 2.93435 14 2.93435ZM6 2.22467C6 2.03112 6.0625 1.86983 6.1875 1.7408C6.3125 1.61177 6.46875 1.54725 6.65625 1.54725H9.34375C9.53125 1.54725 9.6875 1.61177 9.8125 1.7408C9.9375 1.86983 10 2.03112 10 2.22467V2.93435H6V2.22467ZM2 13.9343V8.41822H6V10.4827C6 10.8698 6.13021 11.1978 6.39062 11.4666C6.65104 11.7354 6.96875 11.8698 7.34375 11.8698H8.65625C9.03125 11.8698 9.34896 11.7354 9.60938 11.4666C9.86979 11.1978 10 10.8698 10 10.4827V8.41822H14V13.9343H2ZM7.34375 10.4827V8.41822H8.65625V10.4827H7.34375ZM14.6562 7.06338H1.34375V4.99887C1.34375 4.52575 1.5625 4.28919 2 4.28919H14C14.4375 4.28919 14.6562 4.52575 14.6562 4.99887V7.06338Z" fill="#FD9C09"/>
</g>
<defs>
<clipPath id="clip0_2889_1584">
<rect width="16" height="16" fill="white"/>
</clipPath>
</defs>
</svg>
