<svg width="16" height="14" viewBox="0 0 16 14" fill="none" xmlns="http://www.w3.org/2000/svg">
<path d="M13.6629 9.40437L12.4601 10.2555L11.0048 9.2466C10.8892 9.16772 10.7309 9.19263 10.6452 9.30473C10.5596 9.41683 10.5896 9.57045 10.7052 9.65348L12.3103 10.7662C12.4002 10.8285 12.52 10.8285 12.6099 10.7662L13.9625 9.8071C14.0781 9.72406 14.1038 9.57045 14.0182 9.45835C13.9368 9.3504 13.7785 9.32549 13.6629 9.40437ZM12.4644 8.69856C12.6057 8.69856 12.7212 8.58646 12.7212 8.44945V8.03427C12.7212 7.89726 12.6057 7.78516 12.4644 7.78516C12.3231 7.78516 12.2076 7.89726 12.2076 8.03427V8.44945C12.2076 8.58646 12.3231 8.69856 12.4644 8.69856ZM12.4644 12.4352C12.3231 12.4352 12.2076 12.5473 12.2076 12.6843V13.0995C12.2076 13.2365 12.3231 13.3486 12.4644 13.3486C12.6057 13.3486 12.7212 13.2365 12.7212 13.0995V12.6843C12.7212 12.5473 12.6057 12.4352 12.4644 12.4352ZM15.0754 10.3178H14.6474C14.5061 10.3178 14.3906 10.4299 14.3906 10.5669C14.3906 10.7039 14.5061 10.816 14.6474 10.816H15.0754C15.2167 10.816 15.3322 10.7039 15.3322 10.5669C15.3322 10.4299 15.221 10.3178 15.0754 10.3178ZM10.2814 10.3178H9.85338C9.71213 10.3178 9.59656 10.4299 9.59656 10.5669C9.59656 10.7039 9.71213 10.816 9.85338 10.816H10.2814C10.4227 10.816 10.5382 10.7039 10.5382 10.5669C10.5382 10.4299 10.4227 10.3178 10.2814 10.3178Z" fill="#F79503"/>
<path d="M13.1364 7.19929V6.41459L13.389 6.35231C13.5217 6.3191 13.6158 6.20285 13.6158 6.06999V3.27995C13.6158 2.74021 13.1664 2.30427 12.6142 2.30427H10.1188V1.586C10.1188 0.709964 9.38684 0.00415184 8.48796 0H5.11504C4.20332 0 3.47566 0.709964 3.47566 1.58185V2.30012H1.00589C0.449438 2.30427 0 2.73606 0 3.2758V6.06584C0 6.1987 0.094168 6.31495 0.226859 6.34816L0.479401 6.41044V11.1601C0.479401 11.6957 0.928839 12.1317 1.48101 12.1317H9.31835C9.92188 13.2776 11.1375 14 12.4687 14C14.4248 14 16.0086 12.4638 16.0086 10.5664C16 8.92645 14.8015 7.51068 13.1364 7.19929ZM6.45051 7.49822V7.02906C6.45051 7 6.47619 6.97509 6.50615 6.97509H7.07972C7.10968 6.97509 7.13537 7 7.13537 7.02906V7.51068C7.13537 7.51483 7.13537 7.51483 7.13537 7.51898V8.2497C7.13537 8.27877 7.10968 8.30368 7.07972 8.30368H6.50615C6.47619 8.30368 6.45051 8.27877 6.45051 8.2497V7.50237C6.45051 7.50237 6.45051 7.50237 6.45051 7.49822ZM4.07491 1.58185C4.07491 1.02966 4.53719 0.581257 5.10647 0.581257H8.48368C9.05297 0.581257 9.51525 1.02966 9.51525 1.586V2.30427H9.10005V1.586C9.10005 1.25386 8.82183 0.988138 8.4794 0.983986H5.10219C4.75976 0.983986 4.48582 1.25386 4.48154 1.58185V2.30012H4.06635L4.07491 1.58185ZM5.08935 1.58185C5.08935 1.57355 5.09791 1.56524 5.11075 1.56524H8.48368C8.49652 1.56524 8.50508 1.57355 8.50508 1.58185V2.30012H5.08935V1.58185ZM0.599251 3.2758C0.599251 3.05991 0.779026 2.88138 1.00161 2.88138L12.61 2.88553C12.8325 2.88553 13.0166 3.05991 13.0166 3.2758C13.0166 3.2758 13.0166 3.2758 13.0166 3.27995V5.84164L7.73462 7.14116V7.03321C7.73462 6.68031 7.44355 6.39798 7.07972 6.39798H6.50615C6.14232 6.39798 5.85126 6.68446 5.85126 7.03321V7.13286L0.599251 5.83749V3.2758ZM1.18994 11.4342C1.11289 11.3594 1.07009 11.2598 1.07009 11.156V6.55575L5.84698 7.73072V8.25386C5.84698 8.60676 6.14232 8.88909 6.50187 8.88909H7.07544C7.43927 8.88909 7.73034 8.60261 7.73034 8.25386V7.73903L12.5415 6.55991V7.13701C12.5158 7.13701 12.4901 7.13286 12.4644 7.13286C10.5126 7.12871 8.92884 8.66074 8.92456 10.5498C8.92456 10.8903 8.97592 11.2266 9.07437 11.5504H1.47673C1.36972 11.5504 1.26699 11.5089 1.18994 11.4342ZM14.5404 12.5842C13.9882 13.1198 13.2434 13.4229 12.4601 13.4187C11.2959 13.4187 10.2429 12.7544 9.77207 11.7206C9.60514 11.3553 9.51953 10.9609 9.51953 10.5623C9.52381 8.98873 10.8379 7.71412 12.4601 7.70996C12.5757 7.70996 12.687 7.71827 12.8026 7.73072C14.4163 7.9134 15.572 9.32918 15.3836 10.8944C15.3066 11.538 15.0112 12.1317 14.5404 12.5842Z" fill="#F79503"/>
</svg>
