<svg width="15" height="14" viewBox="0 0 15 14" fill="none" xmlns="http://www.w3.org/2000/svg">
<path d="M14.9916 3.4836C14.9916 2.77659 14.4328 2.2044 13.7423 2.2044H10.3105V1.5663C10.3105 0.859302 9.7517 0.287109 9.06124 0.287109H5.94245C5.25199 0.287109 4.69319 0.859302 4.69319 1.5663V2.2044H1.26135C0.570891 2.2044 0.012085 2.77659 0.012085 3.4836C0.012085 4.94254 -0.140051 5.90118 0.635256 6.8838V12.432C0.635256 13.139 1.19406 13.7112 1.88453 13.7112H13.1192C13.8096 13.7112 14.3684 13.139 14.3684 12.432V6.8838C15.1262 5.92515 14.9916 5.1133 14.9916 3.4836ZM5.31928 1.5663C5.31928 1.2128 5.60015 0.928204 5.94245 0.928204H9.06416C9.40939 0.928204 9.68734 1.2158 9.68734 1.5663V2.2044H5.31928V1.5663ZM13.1192 13.0701H1.88453C1.53929 13.0701 1.26135 12.7825 1.26135 12.432V7.47097C2.15954 8.0881 2.6218 7.95628 6.2555 7.95628V8.27683C6.08289 8.27683 5.94245 8.42063 5.94245 8.59738C5.94245 8.77413 6.08289 8.91792 6.2555 8.91792C6.2555 9.55602 6.21454 9.69982 6.39594 9.82265C7.41115 10.5147 7.37604 10.5147 7.50477 10.5147C7.6335 10.5147 7.58962 10.5147 8.61361 9.82265C8.79207 9.70581 8.75404 9.58898 8.75404 8.91792C8.92666 8.91792 9.06709 8.77413 9.06709 8.59738C9.06709 8.42063 8.92666 8.27683 8.75404 8.27683V7.95628C12.2532 7.95628 12.812 8.11206 13.7482 7.47097V12.429C13.7453 12.7825 13.4644 13.0701 13.1192 13.0701ZM6.2555 6.35954V5.72144H8.75111V6.35954H6.2555ZM8.12794 6.99763V8.27683H6.87867V6.99763H8.12794ZM6.87867 8.91493H8.12794V9.38227L7.50477 9.81066L6.8816 9.38227V8.91493H6.87867ZM14.3684 5.08034C14.3684 6.3146 13.3913 7.31818 12.1829 7.31818H8.75111V6.99763C9.09635 6.99763 9.37429 6.71004 9.37429 6.35954V5.72144C9.37429 5.36794 9.09342 5.08334 8.75111 5.08334H6.2555C5.91027 5.08334 5.63233 5.37093 5.63233 5.72144V6.35954C5.63233 6.71304 5.9132 6.99763 6.2555 6.99763V7.31818H2.82075C1.61536 7.31818 0.635256 6.3176 0.635256 5.08034V3.4836C0.635256 3.1301 0.916123 2.8455 1.25843 2.8455H13.7423C14.0876 2.8455 14.3655 3.13309 14.3655 3.4836V5.08034H14.3684Z" fill="#1E866F"/>
</svg>
