<svg width="14" height="16" viewBox="0 0 14 16" fill="none" xmlns="http://www.w3.org/2000/svg">
<path d="M13.8173 6.61094C14.1566 5.96719 14.0163 5.20469 13.4681 4.71094L12.6881 4.01094C12.5119 3.85156 12.4075 3.67969 12.352 3.45469L12.1072 2.45469C11.9343 1.75156 11.3142 1.25469 10.5636 1.21406L9.49651 1.15469C9.25502 1.14219 9.05921 1.07344 8.86667 0.935938L8.01166 0.323438C7.40793 -0.107812 6.5986 -0.107812 5.99487 0.323438L5.1366 0.935938C4.94406 1.07656 4.74825 1.14219 4.50676 1.15469L3.43963 1.21094C2.68905 1.25156 2.06574 1.74844 1.89604 2.45156L1.65128 3.44844C1.59581 3.67344 1.49138 3.84531 1.31515 4.00469L0.535201 4.70469C-0.0163146 5.20156 -0.156641 5.96719 0.182753 6.61094L0.665737 7.52344C0.776692 7.72969 0.81259 7.92656 0.783219 8.15781L0.655946 9.17344C0.567835 9.88906 0.972497 10.5609 1.66434 10.8453L2.64662 11.2484C2.76411 11.2953 2.86201 11.3547 2.95012 11.4266L1.44895 14.5172C1.38695 14.6422 1.44569 14.7922 1.57623 14.8484C1.62518 14.8703 1.67739 14.8766 1.72961 14.8672L3.21772 14.6172L3.97809 15.8703C4.04989 15.9891 4.20979 16.0297 4.3338 15.9609C4.37949 15.9359 4.41539 15.8953 4.43823 15.8516L5.75338 13.1453L6.66061 12.8828C6.89231 12.8172 7.10117 12.8172 7.33287 12.8828L8.28578 13.1578L9.59441 15.8516C9.63683 15.9391 9.72821 15.9953 9.83264 15.9953C9.92401 15.9953 10.0121 15.9484 10.0578 15.8703L10.8182 14.6172L12.3063 14.8672C12.4499 14.8922 12.5837 14.7984 12.6098 14.6641C12.6196 14.6141 12.6131 14.5609 12.5902 14.5141L11.076 11.4016C11.1576 11.3391 11.2457 11.2859 11.3534 11.2453L12.3357 10.8422C13.0275 10.5578 13.4322 9.88594 13.3441 9.17031L13.2168 8.15469C13.1874 7.92344 13.2233 7.72969 13.3343 7.52031L13.8173 6.61094ZM4.18042 15.2078L3.57996 14.2203C3.52448 14.1297 3.41679 14.0828 3.30909 14.0984L2.13427 14.2953L3.30909 11.8766L3.74639 12.5172C4.06294 12.9797 4.58182 13.2422 5.13007 13.2484L4.18042 15.2078ZM10.7301 14.0984C10.6224 14.0797 10.5147 14.1297 10.4592 14.2203L9.85874 15.2078L8.90909 13.2484C9.44429 13.2328 9.94686 12.9703 10.2569 12.5172L10.717 11.8422L11.9082 14.2922L10.7301 14.0984ZM12.8676 7.29844C12.7142 7.59219 12.6587 7.89219 12.6979 8.21719L12.8252 9.23281C12.8872 9.73594 12.6163 10.1859 12.1301 10.3859L11.1478 10.7891C10.8345 10.9172 10.5897 11.1141 10.4037 11.3891L9.81958 12.2453C9.5324 12.6672 9.01679 12.8453 8.51422 12.7016L7.48951 12.4047C7.16317 12.3109 6.84336 12.3109 6.51702 12.4047L5.49231 12.7016C4.98648 12.8484 4.47413 12.6703 4.18695 12.2453L3.6028 11.3891C3.41679 11.1141 3.17203 10.9203 2.85874 10.7891L1.87646 10.3859C1.39021 10.1859 1.11935 9.73594 1.18135 9.23281L1.30863 8.21719C1.34779 7.89219 1.29557 7.59219 1.13893 7.29844L0.655946 6.38594C0.417718 5.93594 0.512357 5.42031 0.897438 5.07344L1.67086 4.37344C1.91888 4.14844 2.07879 3.88594 2.15711 3.56719L2.40187 2.57031C2.52261 2.07969 2.94033 1.74219 3.46574 1.71406L4.53287 1.65781C4.87553 1.63906 5.1725 1.53594 5.44662 1.33906L6.30163 0.726562C6.51376 0.576563 6.75525 0.498438 6.99674 0.498438C7.23823 0.498438 7.47972 0.573438 7.69184 0.726562L8.54686 1.33906C8.82098 1.53594 9.12121 1.63906 9.46061 1.65781L10.5277 1.71406C11.0532 1.74219 11.4741 2.07656 11.5916 2.57031L11.8364 3.56719C11.9147 3.88594 12.0746 4.15156 12.3226 4.37344L13.1026 5.07344C13.4876 5.42031 13.5823 5.93281 13.3441 6.38594L12.8676 7.29844ZM7 2.39219C4.56224 2.39219 2.58135 4.29219 2.58135 6.62344C2.58135 8.95781 4.5655 10.8547 7 10.8547C9.4345 10.8547 11.4187 8.95781 11.4187 6.62344C11.4187 4.28906 9.43777 2.39219 7 2.39219ZM7 10.3547C4.84942 10.3547 3.1035 8.67969 3.1035 6.62344C3.1035 4.56406 4.85268 2.89219 7 2.89219C9.14732 2.89219 10.8965 4.56719 10.8965 6.62344C10.8965 8.68281 9.15059 10.3547 7 10.3547ZM8.90909 4.59531C8.67413 4.59531 8.45548 4.68281 8.28905 4.84219L6.45175 6.62031L5.71096 5.90781C5.3683 5.57969 4.81026 5.57969 4.47086 5.90781C4.12821 6.23594 4.12821 6.77031 4.47086 7.09531L5.83823 8.40469C6.00793 8.56719 6.2331 8.65156 6.45828 8.65156C6.68345 8.65156 6.90863 8.57031 7.07832 8.40469C7.59721 7.90781 9.23217 6.32031 9.53567 6.02344C9.87506 5.69531 9.87506 5.16406 9.5324 4.83594C9.36597 4.68281 9.14406 4.59531 8.90909 4.59531ZM9.16364 5.67344C8.85688 5.96719 7.22191 7.55781 6.7063 8.05156C6.56597 8.18594 6.3408 8.18594 6.20373 8.05156L4.83637 6.74219C4.69604 6.60781 4.69604 6.39219 4.83637 6.26094C4.9049 6.19531 4.99627 6.16094 5.08765 6.16094C5.17902 6.16094 5.2704 6.19531 5.33893 6.26094L6.269 7.15156C6.31795 7.19844 6.38322 7.22344 6.45501 7.22344C6.52355 7.22344 6.59208 7.19531 6.64103 7.14844L8.66434 5.19219C8.72961 5.12969 8.82098 5.09219 8.91236 5.09219C9.007 5.09219 9.09511 5.12656 9.16364 5.19219C9.3007 5.32656 9.3007 5.54219 9.16364 5.67344Z" fill="#1E866F"/>
</svg>
