<svg width="75" height="75" viewBox="0 0 75 75" fill="none" xmlns="http://www.w3.org/2000/svg">
<path d="M25 33.5945H31.25C33.4746 33.5848 35.6767 34.0393 37.7156 34.9289C37.9992 35.0646 38.3071 35.1419 38.6211 35.1561C38.9351 35.1704 39.2487 35.1213 39.5434 35.0119C39.838 34.9024 40.1077 34.7348 40.3362 34.5191C40.5648 34.3033 40.7476 34.0438 40.8738 33.7559C41 33.468 41.0671 33.1577 41.0709 32.8434C41.0747 32.5291 41.0153 32.2173 40.8962 31.9264C40.7771 31.6356 40.6006 31.3716 40.3774 31.1503C40.1542 30.929 39.8888 30.7549 39.5969 30.6383C38.9979 30.3779 38.3868 30.1464 37.7656 29.9445C40.0739 27.9735 41.7224 25.3422 42.4891 22.4053C43.2557 19.4684 43.1035 16.3671 42.0531 13.5193C41.0027 10.6715 39.1045 8.21426 36.6144 6.47864C34.1242 4.74302 31.1619 3.8125 28.1266 3.8125C25.0913 3.8125 22.1289 4.74302 19.6388 6.47864C17.1486 8.21426 15.2504 10.6715 14.2 13.5193C13.1496 16.3671 12.9974 19.4684 13.7641 22.4053C14.5307 25.3422 16.1792 27.9735 18.4875 29.9445C14.2533 31.324 10.5633 34.0063 7.94461 37.6082C5.32593 41.2102 3.91251 45.5475 3.90625 50.0008V56.2508C3.90625 56.8724 4.15318 57.4685 4.59272 57.9081C5.03226 58.3476 5.6284 58.5945 6.25 58.5945H28.3125C28.9341 58.5945 29.5302 58.3476 29.9698 57.9081C30.4093 57.4685 30.6563 56.8724 30.6563 56.2508C30.6563 55.6292 30.4093 55.033 29.9698 54.5935C29.5302 54.154 28.9341 53.907 28.3125 53.907H8.59375V50.0008C8.59871 45.6511 10.3288 41.481 13.4045 38.4053C16.4802 35.3296 20.6503 33.5995 25 33.5945ZM28.125 8.59454C30.1337 8.59454 32.0973 9.19019 33.7675 10.3062C35.4377 11.4222 36.7395 13.0083 37.5082 14.8642C38.2769 16.72 38.478 18.7621 38.0861 20.7322C37.6942 22.7023 36.7269 24.512 35.3066 25.9323C33.8862 27.3527 32.0765 28.32 30.1064 28.7119C28.1363 29.1038 26.0942 28.9026 24.2384 28.1339C22.3826 27.3652 20.7964 26.0635 19.6804 24.3933C18.5644 22.7231 17.9688 20.7595 17.9688 18.7508C17.9721 16.0582 19.0432 13.4768 20.9471 11.5729C22.8511 9.66894 25.4324 8.59784 28.125 8.59454ZM65.7031 40.5508C63.2259 38 60.041 36.2501 56.5595 35.5272C53.078 34.8042 49.4597 35.1412 46.1717 36.4948C42.8836 37.8484 40.0767 40.1563 38.1132 43.1208C36.1497 46.0853 35.1197 49.5702 35.1563 53.1258C35.213 57.8738 37.1244 62.4113 40.4819 65.7688C43.8395 69.1264 48.377 71.0378 53.125 71.0945C56.6802 71.131 60.1647 70.1013 63.129 68.1382C66.0933 66.1751 68.4012 63.3687 69.7551 60.0812C71.1089 56.7936 71.4465 53.1758 70.7242 49.6946C70.002 46.2133 68.253 43.0284 65.7031 40.5508ZM53.125 39.8445C55.8353 39.8462 58.4793 40.6832 60.6969 42.2414L42.2406 60.6977C40.8479 58.7099 40.0279 56.3778 39.8701 53.9559C39.7123 51.5339 40.2228 49.1151 41.3459 46.9635C42.4689 44.8119 44.1614 43.01 46.2386 41.7546C48.3158 40.4992 50.6979 39.8385 53.125 39.8445ZM53.125 66.407C50.4147 66.4053 47.7707 65.5684 45.5531 64.0102L64.0094 45.5539C65.4021 47.5416 66.2221 49.8737 66.3799 52.2957C66.5377 54.7177 66.0272 57.1364 64.9041 59.2881C63.7811 61.4397 62.0886 63.2415 60.0114 64.4969C57.9342 65.7523 55.5521 66.4131 53.125 66.407Z" fill="#1E866F"/>
</svg>
