<svg width="16" height="16" viewBox="0 0 16 16" fill="none" xmlns="http://www.w3.org/2000/svg">
<g clip-path="url(#clip0_8190_1612)">
<path d="M10.4079 4.99271H5.59289C5.45539 4.99271 5.34289 5.10521 5.34289 5.24271C5.34289 5.38021 5.45539 5.49271 5.59289 5.49271H10.4054C10.5429 5.49271 10.6554 5.38021 10.6554 5.24271C10.6554 5.10521 10.5429 4.99271 10.4054 4.99271H10.4079ZM10.4079 2.90771H5.59289C5.45539 2.90771 5.34289 3.02021 5.34289 3.15771C5.34289 3.29521 5.45539 3.40771 5.59289 3.40771H10.4054C10.5429 3.40771 10.6554 3.29521 10.6554 3.15771C10.6554 3.02021 10.5429 2.90771 10.4054 2.90771H10.4079ZM13.8504 10.6227C13.7129 10.6227 13.6004 10.7352 13.6004 10.8727V14.1777C13.6004 14.4527 13.3804 14.6777 13.1079 14.6777H8.25039V10.3452C8.25039 10.2077 8.13789 10.0952 8.00039 10.0952C7.86289 10.0952 7.75039 10.2077 7.75039 10.3452V14.6777H2.89289C2.62039 14.6777 2.40039 14.4527 2.40039 14.1777V10.8727C2.40039 10.7352 2.28789 10.6227 2.15039 10.6227C2.01289 10.6227 1.90039 10.7352 1.90039 10.8727V14.1777C1.90039 14.7277 2.34539 15.1777 2.89289 15.1777H13.1079C13.6554 15.1777 14.1004 14.7302 14.1004 14.1777V10.8727C14.1004 10.7352 13.9879 10.6227 13.8504 10.6227Z" fill="#1E866F"/>
<path d="M15.4527 9.4777L13.7902 7.1802C13.7669 7.14835 13.7365 7.12246 13.7013 7.10464C13.6661 7.08683 13.6272 7.07759 13.5877 7.0777H13.0502V1.0752C13.0502 0.937695 12.9377 0.825195 12.8002 0.825195H3.20272C3.06522 0.825195 2.95272 0.937695 2.95272 1.0752V7.0777H2.41522C2.37577 7.07759 2.33686 7.08683 2.30167 7.10464C2.26647 7.12246 2.23599 7.14835 2.21272 7.1802L0.550219 9.4777C0.495219 9.5527 0.487718 9.6552 0.530218 9.7377C0.572718 9.8202 0.660218 9.8727 0.752718 9.8727H6.33772C6.37716 9.8728 6.41608 9.86356 6.45127 9.84575C6.48647 9.82794 6.51694 9.80205 6.54022 9.7702L8.00022 7.7527L9.46022 9.7702C9.48349 9.80205 9.51397 9.82794 9.54917 9.84575C9.58436 9.86356 9.62327 9.8728 9.66272 9.8727H15.2502C15.2961 9.87275 15.3412 9.86012 15.3804 9.83621C15.4196 9.81229 15.4514 9.77801 15.4723 9.73715C15.4933 9.6963 15.5025 9.65045 15.4991 9.60466C15.4956 9.55888 15.4796 9.51494 15.4527 9.4777ZM6.21022 9.3752H1.24022L2.54022 7.5777H7.51022L6.21022 9.3752ZM3.45272 7.0777V1.3252H12.5477V7.0777H3.45272ZM9.79272 9.3752L8.49272 7.5777H13.4627L14.7627 9.3752H9.79272Z" fill="#1E866F"/>
</g>
<defs>
<clipPath id="clip0_8190_1612">
<rect width="16" height="16" fill="white"/>
</clipPath>
</defs>
</svg>
