<svg width="21" height="19" viewBox="0 0 21 19" fill="none" xmlns="http://www.w3.org/2000/svg">
<path d="M18.801 10.293V8.81966C18.801 8.53418 18.5665 8.29968 18.281 8.29968H12.1431" stroke="#1E866F" stroke-width="0.6" stroke-miterlimit="10" stroke-linecap="round" stroke-linejoin="round"/>
<path d="M18.8022 16.666V11.6446" stroke="#1E866F" stroke-width="0.6" stroke-miterlimit="10" stroke-linecap="round" stroke-linejoin="round"/>
<path d="M11.4036 2.25781V1.41665C11.4036 1.14646 11.1946 0.917055 10.9244 0.896664L3.49669 0.315499C3.19591 0.29001 2.93591 0.529613 2.93591 0.835489V1.59508" stroke="#1E866F" stroke-width="0.6" stroke-miterlimit="10" stroke-linecap="round" stroke-linejoin="round"/>
<path d="M12.1438 16.666V2.79963C12.1438 2.52944 11.9348 2.30004 11.6646 2.27964L11.4046 2.25925L2.93695 1.59652L2.75853 1.58123C2.45775 1.55574 2.19775 1.79534 2.19775 2.10122V16.666" stroke="#1E866F" stroke-width="0.6" stroke-miterlimit="10" stroke-linecap="round" stroke-linejoin="round"/>
<path d="M19.3322 16.6643H1.66783C1.30078 16.6643 1 16.9651 1 17.3322C1 17.6992 1.30078 18 1.66783 18H19.3322C19.6992 18 20 17.6992 20 17.3322C20 16.9651 19.6992 16.6643 19.3322 16.6643Z" stroke="#1E866F" stroke-width="0.6" stroke-miterlimit="10" stroke-linecap="round" stroke-linejoin="round"/>
<path d="M4.7732 5.31641H3.61087C3.49362 5.31641 3.40186 5.22464 3.40186 5.10739V4.21525C3.40186 4.098 3.49362 4.00624 3.61087 4.00624H4.7732C4.89045 4.00624 4.98222 4.098 4.98222 4.21525V5.10739C4.98222 5.22464 4.89045 5.31641 4.7732 5.31641Z" stroke="#1E866F" stroke-width="0.6" stroke-miterlimit="10" stroke-linecap="round" stroke-linejoin="round"/>
<path d="M7.66968 5.31641H6.50736C6.3901 5.31641 6.29834 5.22464 6.29834 5.10739V4.21525C6.29834 4.098 6.3901 4.00624 6.50736 4.00624H7.66968C7.78694 4.00624 7.8787 4.098 7.8787 4.21525V5.10739C7.8736 5.22464 7.78184 5.31641 7.66968 5.31641Z" stroke="#1E866F" stroke-width="0.6" stroke-miterlimit="10" stroke-linecap="round" stroke-linejoin="round"/>
<path d="M10.5581 5.31641H9.39578C9.27853 5.31641 9.18677 5.22464 9.18677 5.10739V4.21525C9.18677 4.098 9.27853 4.00624 9.39578 4.00624H10.5581C10.6754 4.00624 10.7671 4.098 10.7671 4.21525V5.10739C10.7671 5.22464 10.6754 5.31641 10.5581 5.31641Z" stroke="#1E866F" stroke-width="0.6" stroke-miterlimit="10" stroke-linecap="round" stroke-linejoin="round"/>
<path d="M4.7732 7.89648H3.61087C3.49362 7.89648 3.40186 7.80472 3.40186 7.68747V6.79533C3.40186 6.67808 3.49362 6.58631 3.61087 6.58631H4.7732C4.89045 6.58631 4.98222 6.67808 4.98222 6.79533V7.68747C4.98222 7.79962 4.89045 7.89648 4.7732 7.89648Z" stroke="#1E866F" stroke-width="0.6" stroke-miterlimit="10" stroke-linecap="round" stroke-linejoin="round"/>
<path d="M7.66968 7.89648H6.50736C6.3901 7.89648 6.29834 7.80472 6.29834 7.68747V6.79533C6.29834 6.67808 6.3901 6.58631 6.50736 6.58631H7.66968C7.78694 6.58631 7.8787 6.67808 7.8787 6.79533V7.68747C7.8736 7.79962 7.78184 7.89648 7.66968 7.89648Z" stroke="#1E866F" stroke-width="0.6" stroke-miterlimit="10" stroke-linecap="round" stroke-linejoin="round"/>
<path d="M10.5581 7.89648H9.39578C9.27853 7.89648 9.18677 7.80472 9.18677 7.68747V6.79533C9.18677 6.67808 9.27853 6.58631 9.39578 6.58631H10.5581C10.6754 6.58631 10.7671 6.67808 10.7671 6.79533V7.68747C10.7671 7.79962 10.6754 7.89648 10.5581 7.89648Z" stroke="#1E866F" stroke-width="0.6" stroke-miterlimit="10" stroke-linecap="round" stroke-linejoin="round"/>
<path d="M4.7732 10.4707H3.61087C3.49362 10.4707 3.40186 10.3789 3.40186 10.2617V9.36955C3.40186 9.2523 3.49362 9.16053 3.61087 9.16053H4.7732C4.89045 9.16053 4.98222 9.2523 4.98222 9.36955V10.2617C4.98222 10.3789 4.89045 10.4707 4.7732 10.4707Z" stroke="#1E866F" stroke-width="0.6" stroke-miterlimit="10" stroke-linecap="round" stroke-linejoin="round"/>
<path d="M6.23631 13.3965H3.66695C3.51911 13.3965 3.40186 13.2792 3.40186 13.1314V12.3514C3.40186 12.2036 3.51911 12.0863 3.66695 12.0863H6.23631C6.38415 12.0863 6.5014 12.2036 6.5014 12.3514V13.1314C6.5014 13.2792 6.38415 13.3965 6.23631 13.3965Z" stroke="#1E866F" stroke-width="0.6" stroke-miterlimit="10" stroke-linecap="round" stroke-linejoin="round"/>
<path d="M7.66968 10.4707H6.50736C6.3901 10.4707 6.29834 10.3789 6.29834 10.2617V9.36955C6.29834 9.2523 6.3901 9.16053 6.50736 9.16053H7.66968C7.78694 9.16053 7.8787 9.2523 7.8787 9.36955V10.2617C7.8736 10.3789 7.78184 10.4707 7.66968 10.4707Z" stroke="#1E866F" stroke-width="0.6" stroke-miterlimit="10" stroke-linecap="round" stroke-linejoin="round"/>
<path d="M10.5581 10.4707H9.39578C9.27853 10.4707 9.18677 10.3789 9.18677 10.2617V9.36955C9.18677 9.2523 9.27853 9.16053 9.39578 9.16053H10.5581C10.6754 9.16053 10.7671 9.2523 10.7671 9.36955V10.2617C10.7671 10.3789 10.6754 10.4707 10.5581 10.4707Z" stroke="#1E866F" stroke-width="0.6" stroke-miterlimit="10" stroke-linecap="round" stroke-linejoin="round"/>
<path d="M7.72913 15.477V16.6699" stroke="#1E866F" stroke-width="0.6" stroke-miterlimit="10" stroke-linecap="round" stroke-linejoin="round"/>
<path d="M10.7665 16.666V12.2716C10.7665 12.1696 10.6849 12.083 10.5779 12.083H7.91165C7.80969 12.083 7.72302 12.1645 7.72302 12.2716V14.1323" stroke="#1E866F" stroke-width="0.6" stroke-miterlimit="10" stroke-linecap="round" stroke-linejoin="round"/>
<path d="M14.7345 11.6797H13.562C13.4294 11.6797 13.3224 11.5726 13.3224 11.4401V10.5123C13.3224 10.3797 13.4294 10.2727 13.562 10.2727H14.7345C14.8671 10.2727 14.9741 10.3797 14.9741 10.5123V11.4401C14.9741 11.5726 14.8671 11.6797 14.7345 11.6797Z" stroke="#1E866F" stroke-width="0.6" stroke-miterlimit="10" stroke-linecap="round" stroke-linejoin="round"/>
<path d="M14.7345 14.3242H13.562C13.4294 14.3242 13.3224 14.2172 13.3224 14.0846V13.1568C13.3224 13.0242 13.4294 12.9172 13.562 12.9172H14.7345C14.8671 12.9172 14.9741 13.0242 14.9741 13.1568V14.0846C14.9741 14.2172 14.8671 14.3242 14.7345 14.3242Z" stroke="#1E866F" stroke-width="0.6" stroke-miterlimit="10" stroke-linecap="round" stroke-linejoin="round"/>
<path d="M17.3981 11.6797H16.2256C16.093 11.6797 15.986 11.5726 15.986 11.4401V10.5123C15.986 10.3797 16.093 10.2727 16.2256 10.2727H17.3981C17.5306 10.2727 17.6377 10.3797 17.6377 10.5123V11.4401C17.6377 11.5726 17.5306 11.6797 17.3981 11.6797Z" stroke="#1E866F" stroke-width="0.6" stroke-miterlimit="10" stroke-linecap="round" stroke-linejoin="round"/>
<path d="M17.3981 14.3242H16.2256C16.093 14.3242 15.986 14.2172 15.986 14.0846V13.1568C15.986 13.0242 16.093 12.9172 16.2256 12.9172H17.3981C17.5306 12.9172 17.6377 13.0242 17.6377 13.1568V14.0846C17.6377 14.2172 17.5306 14.3242 17.3981 14.3242Z" stroke="#1E866F" stroke-width="0.6" stroke-miterlimit="10" stroke-linecap="round" stroke-linejoin="round"/>
</svg>
