<svg width="16" height="16" viewBox="0 0 16 16" fill="none" xmlns="http://www.w3.org/2000/svg">
<g clip-path="url(#clip0_8190_1583)">
<path d="M8.33781 13.8231H2.07969C1.67939 13.8237 1.29517 13.6656 1.01133 13.3833C0.727487 13.1011 0.567197 12.7177 0.565625 12.3174V5.81744H13.4869V6.91557C13.4869 6.99057 13.5167 7.06251 13.5697 7.11554C13.6227 7.16858 13.6947 7.19838 13.7697 7.19838C13.8447 7.19838 13.9166 7.16858 13.9697 7.11554C14.0227 7.06251 14.0525 6.99057 14.0525 6.91557V3.86525C14.0525 2.72494 13.1194 1.79713 11.9725 1.79713H10.3016V1.10557C10.3016 1.03056 10.2718 0.958625 10.2187 0.905588C10.1657 0.85255 10.0938 0.822754 10.0188 0.822754C9.94374 0.822754 9.87181 0.85255 9.81877 0.905588C9.76573 0.958625 9.73594 1.03056 9.73594 1.10557V1.79713H4.31656V1.10557C4.31656 1.03056 4.28677 0.958625 4.23373 0.905588C4.18069 0.85255 4.10876 0.822754 4.03375 0.822754C3.95874 0.822754 3.88681 0.85255 3.83377 0.905588C3.78073 0.958625 3.75094 1.03056 3.75094 1.10557V1.79713H2.07969C0.933125 1.79713 0 2.72494 0 3.86525V12.3174C0 13.4581 0.933125 14.3856 2.07969 14.3856H8.33781C8.41241 14.3856 8.48394 14.3559 8.53669 14.3032C8.58943 14.2504 8.61906 14.1789 8.61906 14.1043C8.61906 14.0297 8.58943 13.9582 8.53669 13.9054C8.48394 13.8527 8.41241 13.8231 8.33781 13.8231ZM2.07969 2.35963H3.75V2.86963C3.50974 2.93788 3.30226 3.09071 3.16584 3.29992C3.02942 3.50914 2.97325 3.76063 3.00771 4.00801C3.04216 4.25539 3.16491 4.48196 3.35331 4.64594C3.54171 4.80992 3.78305 4.90024 4.03281 4.90024C4.28258 4.90024 4.52392 4.80992 4.71232 4.64594C4.90072 4.48196 5.02346 4.25539 5.05792 4.00801C5.09237 3.76063 5.03621 3.50914 4.89979 3.29992C4.76336 3.09071 4.55589 2.93788 4.31563 2.86963V2.35963H9.73594V2.86963C9.49576 2.93788 9.28837 3.09067 9.152 3.29982C9.01564 3.50898 8.95951 3.76039 8.99396 4.00769C9.02841 4.25498 9.15113 4.48148 9.33947 4.6454C9.52781 4.80932 9.76907 4.8996 10.0188 4.8996C10.2684 4.8996 10.5097 4.80932 10.698 4.6454C10.8864 4.48148 11.0091 4.25498 11.0435 4.00769C11.078 3.76039 11.0219 3.50898 10.8855 3.29982C10.7491 3.09067 10.5417 2.93788 10.3016 2.86963V2.35963H11.9725C12.3729 2.35888 12.7571 2.51699 13.0411 2.79926C13.325 3.08153 13.4853 3.4649 13.4869 3.86525V5.25557H0.565625V3.86525C0.567197 3.46496 0.727487 3.08163 1.01133 2.79937C1.29517 2.51711 1.67939 2.35896 2.07969 2.35963ZM4.03375 3.39275C4.12593 3.39319 4.21592 3.42092 4.29236 3.47245C4.3688 3.52397 4.42826 3.59699 4.46323 3.68228C4.49821 3.76757 4.50714 3.86131 4.48889 3.95167C4.47064 4.04203 4.42604 4.12496 4.3607 4.18999C4.29536 4.25502 4.21223 4.29924 4.12178 4.31707C4.03134 4.33489 3.93764 4.32553 3.85252 4.29015C3.76739 4.25477 3.69465 4.19497 3.64348 4.1183C3.59231 4.04162 3.565 3.9515 3.565 3.85932C3.56558 3.73538 3.61522 3.61671 3.70306 3.52927C3.79091 3.44184 3.90981 3.39275 4.03375 3.39275ZM10.0188 3.39275C10.1109 3.39319 10.2009 3.42092 10.2774 3.47245C10.3538 3.52397 10.4133 3.59699 10.4482 3.68228C10.4832 3.76757 10.4921 3.86131 10.4739 3.95167C10.4556 4.04203 10.411 4.12496 10.3457 4.18999C10.2804 4.25502 10.1972 4.29924 10.1068 4.31707C10.0163 4.33489 9.92264 4.32553 9.83751 4.29015C9.75239 4.25477 9.67965 4.19497 9.62848 4.1183C9.57731 4.04162 9.55 3.9515 9.55 3.85932C9.55058 3.73538 9.60022 3.61671 9.68806 3.52927C9.77591 3.44184 9.89481 3.39275 10.0188 3.39275Z" fill="#1E866F"/>
<path d="M12.125 7.47607C9.9875 7.47607 8.25 9.20295 8.25 11.3258C8.25 13.4486 9.98875 15.1754 12.125 15.1754C14.2613 15.1754 16 13.4486 16 11.3258C16 9.20295 14.2613 7.47607 12.125 7.47607ZM12.125 14.6129C10.2981 14.6129 8.8125 13.1383 8.8125 11.3258C8.8125 9.51326 10.2981 8.03857 12.125 8.03857C13.9519 8.03857 15.4344 9.51326 15.4344 11.3258C15.4344 13.1383 13.9491 14.6129 12.125 14.6129Z" fill="#1E866F"/>
<path d="M14.6565 11.0445H12.3918V8.79453C12.3918 8.71952 12.362 8.64759 12.309 8.59455C12.2559 8.54151 12.184 8.51172 12.109 8.51172C12.034 8.51172 11.962 8.54151 11.909 8.59455C11.856 8.64759 11.8262 8.71952 11.8262 8.79453V11.3258C11.8262 11.3628 11.8335 11.3995 11.8477 11.4338C11.862 11.468 11.8828 11.4991 11.9091 11.5252C11.9354 11.5513 11.9666 11.572 12.0009 11.5861C12.0352 11.6001 12.0719 11.6072 12.109 11.607H14.6565C14.7311 11.607 14.8026 11.5774 14.8554 11.5247C14.9081 11.4719 14.9377 11.4004 14.9377 11.3258C14.9377 11.2512 14.9081 11.1797 14.8554 11.1269C14.8026 11.0742 14.7311 11.0445 14.6565 11.0445Z" fill="#1E866F"/>
</g>
<defs>
<clipPath id="clip0_8190_1583">
<rect width="16" height="16" fill="white"/>
</clipPath>
</defs>
</svg>
