<svg width="16" height="16" viewBox="0 0 16 16" fill="none" xmlns="http://www.w3.org/2000/svg">
<path d="M13.75 2.25H12.5V2C12.5 1.80109 12.421 1.61032 12.2803 1.46967C12.1397 1.32902 11.9489 1.25 11.75 1.25C11.5511 1.25 11.3603 1.32902 11.2197 1.46967C11.079 1.61032 11 1.80109 11 2V2.25H8.75V2C8.75 1.80109 8.67098 1.61032 8.53033 1.46967C8.38968 1.32902 8.19891 1.25 8 1.25C7.80109 1.25 7.61032 1.32902 7.46967 1.46967C7.32902 1.61032 7.25 1.80109 7.25 2V2.25H5V2C5 1.80109 4.92098 1.61032 4.78033 1.46967C4.63968 1.32902 4.44891 1.25 4.25 1.25C4.05109 1.25 3.86032 1.32902 3.71967 1.46967C3.57902 1.61032 3.5 1.80109 3.5 2V2.25H2.25C1.91852 2.25013 1.60065 2.38187 1.36626 2.61626C1.13187 2.85065 1.00013 3.16852 1 3.5V10.75C0.999877 10.998 1.09264 11.237 1.26 11.42C1.27 11.4325 4.2925 14.4575 4.2925 14.4575C4.48026 14.6449 4.73473 14.7501 5 14.75H13.75C14.0815 14.7499 14.3993 14.6181 14.6337 14.3837C14.8681 14.1493 14.9999 13.8315 15 13.5V3.5C14.9999 3.16852 14.8681 2.85065 14.6337 2.61626C14.3993 2.38187 14.0815 2.25013 13.75 2.25ZM11.5 2C11.5 1.9337 11.5263 1.87011 11.5732 1.82322C11.6201 1.77634 11.6837 1.75 11.75 1.75C11.8163 1.75 11.8799 1.77634 11.9268 1.82322C11.9737 1.87011 12 1.9337 12 2V3C12 3.0663 11.9737 3.12989 11.9268 3.17678C11.8799 3.22366 11.8163 3.25 11.75 3.25C11.6837 3.25 11.6201 3.22366 11.5732 3.17678C11.5263 3.12989 11.5 3.0663 11.5 3V2ZM7.75 2C7.75 1.9337 7.77634 1.87011 7.82322 1.82322C7.87011 1.77634 7.9337 1.75 8 1.75C8.0663 1.75 8.12989 1.77634 8.17678 1.82322C8.22366 1.87011 8.25 1.9337 8.25 2V3C8.25 3.0663 8.22366 3.12989 8.17678 3.17678C8.12989 3.22366 8.0663 3.25 8 3.25C7.9337 3.25 7.87011 3.22366 7.82322 3.17678C7.77634 3.12989 7.75 3.0663 7.75 3V2ZM4 2C4 1.9337 4.02634 1.87011 4.07322 1.82322C4.12011 1.77634 4.1837 1.75 4.25 1.75C4.3163 1.75 4.37989 1.77634 4.42678 1.82322C4.47366 1.87011 4.5 1.9337 4.5 2V3C4.5 3.0663 4.47366 3.12989 4.42678 3.17678C4.37989 3.22366 4.3163 3.25 4.25 3.25C4.1837 3.25 4.12011 3.22366 4.07322 3.17678C4.02634 3.12989 4 3.0663 4 3V2ZM4 13.455L2.295 11.75H3.25C3.44873 11.7506 3.63915 11.8298 3.77967 11.9703C3.9202 12.1108 3.99941 12.3013 4 12.5V13.455ZM14.5 13.5C14.4994 13.6987 14.4202 13.8892 14.2797 14.0297C14.1392 14.1702 13.9487 14.2494 13.75 14.25H5C4.8677 14.249 4.74109 14.196 4.64753 14.1025C4.55397 14.0089 4.50098 13.8823 4.5 13.75V12.5C4.49987 12.1685 4.36813 11.8507 4.13374 11.6163C3.89935 11.3819 3.58148 11.2501 3.25 11.25H2C1.8677 11.249 1.74109 11.196 1.64753 11.1025C1.55397 11.0089 1.50098 10.8823 1.5 10.75V5.25H14.5V13.5ZM14.5 4.75H1.5V3.5C1.50059 3.30127 1.5798 3.11085 1.72033 2.97033C1.86085 2.8298 2.05127 2.75059 2.25 2.75H3.5V3C3.5 3.19891 3.57902 3.38968 3.71967 3.53033C3.86032 3.67098 4.05109 3.75 4.25 3.75C4.44891 3.75 4.63968 3.67098 4.78033 3.53033C4.92098 3.38968 5 3.19891 5 3V2.75H7.25V3C7.25 3.19891 7.32902 3.38968 7.46967 3.53033C7.61032 3.67098 7.80109 3.75 8 3.75C8.19891 3.75 8.38968 3.67098 8.53033 3.53033C8.67098 3.38968 8.75 3.19891 8.75 3V2.75H11V3C11 3.19891 11.079 3.38968 11.2197 3.53033C11.3603 3.67098 11.5511 3.75 11.75 3.75C11.9489 3.75 12.1397 3.67098 12.2803 3.53033C12.421 3.38968 12.5 3.19891 12.5 3V2.75H13.75C13.9487 2.75059 14.1392 2.8298 14.2797 2.97033C14.4202 3.11085 14.4994 3.30127 14.5 3.5V4.75Z" fill="#858585"/>
</svg>
