<svg width="14" height="15" viewBox="0 0 14 15" fill="none" xmlns="http://www.w3.org/2000/svg">
<path d="M4.12958 3.13931C3.83679 3.13931 3.59112 2.90059 3.59112 2.61609V0.523218C3.59112 0.238718 3.83679 0 4.12958 0C4.42237 0 4.66804 0.238718 4.66804 0.523218V2.61609C4.66804 2.90059 4.42237 3.13931 4.12958 3.13931ZM9.87092 3.13931C9.57814 3.13931 9.33246 2.90059 9.33246 2.61609V0.523218C9.33246 0.238718 9.57814 0 9.87092 0C10.1637 0 10.4094 0.238718 10.4094 0.523218V2.61609C10.4094 2.90059 10.1671 3.13931 9.87092 3.13931ZM4.48631 9.24461C4.39208 9.24461 4.30122 9.22498 4.21372 9.18901C4.11949 9.15304 4.04881 9.10399 3.97814 9.04186C3.85025 8.90778 3.76949 8.73447 3.76949 8.54807C3.76949 8.45651 3.78968 8.36821 3.8267 8.28319C3.86372 8.19817 3.9142 8.12296 3.97814 8.05428C4.04881 7.99215 4.12285 7.9431 4.21372 7.90713C4.47285 7.80249 4.79593 7.85808 4.99785 8.05428C5.12573 8.18836 5.2065 8.36821 5.2065 8.54807C5.2065 8.59058 5.19977 8.63963 5.19304 8.68869C5.18631 8.7312 5.17285 8.77371 5.14929 8.81295C5.13583 8.85546 5.11227 8.89797 5.08535 8.93721C5.06516 8.97318 5.02814 9.00589 4.99785 9.04186C4.85987 9.16612 4.67477 9.24461 4.48631 9.24461ZM7.00025 9.24461C6.90602 9.24461 6.81516 9.22498 6.72766 9.18901C6.63343 9.15304 6.56275 9.10399 6.49208 9.04186C6.3642 8.90778 6.28343 8.73447 6.28343 8.54807C6.28343 8.45651 6.30362 8.36821 6.34064 8.28319C6.37766 8.19817 6.42814 8.12296 6.49208 8.05428C6.56275 7.99215 6.63679 7.9431 6.72766 7.90713C6.98679 7.79595 7.30987 7.85808 7.51179 8.05428C7.63968 8.18836 7.72045 8.36821 7.72045 8.54807C7.72045 8.59058 7.71372 8.63963 7.70698 8.68869C7.70025 8.7312 7.68679 8.77371 7.66323 8.81295C7.64977 8.85546 7.62621 8.89797 7.59929 8.93721C7.5791 8.97318 7.54208 9.00589 7.51179 9.04186C7.37381 9.16612 7.18535 9.24461 7.00025 9.24461ZM9.5142 9.24461C9.41996 9.24461 9.3291 9.22498 9.2416 9.18901C9.14737 9.15304 9.0767 9.10399 9.00602 9.04186L8.91852 8.93721C8.8916 8.89797 8.86804 8.85546 8.85458 8.81295C8.83439 8.77371 8.82093 8.7312 8.81083 8.68869C8.8041 8.63963 8.79737 8.59058 8.79737 8.54807C8.79737 8.36821 8.87477 8.18509 9.00602 8.05428C9.0767 7.99215 9.15073 7.9431 9.2416 7.90713C9.50746 7.79595 9.82381 7.85808 10.0257 8.05428C10.1536 8.18836 10.2344 8.36821 10.2344 8.54807C10.2344 8.59058 10.2277 8.63963 10.2209 8.68869C10.2142 8.7312 10.2007 8.77371 10.1772 8.81295C10.1637 8.85546 10.1402 8.89797 10.1132 8.93721C10.093 8.97318 10.056 9.00589 10.0257 9.04186C9.88775 9.16612 9.69929 9.24461 9.5142 9.24461ZM4.48631 11.6841C4.39208 11.6841 4.30122 11.6645 4.21372 11.6285C4.12622 11.5925 4.04881 11.5435 3.97814 11.4814C3.85025 11.3473 3.76949 11.1674 3.76949 10.9876C3.76949 10.896 3.78968 10.8077 3.8267 10.7227C3.86372 10.6311 3.9142 10.5559 3.97814 10.4938C4.244 10.2354 4.73199 10.2354 4.99785 10.4938C5.12573 10.6279 5.2065 10.8077 5.2065 10.9876C5.2065 11.1674 5.1291 11.3506 4.99785 11.4814C4.85987 11.6089 4.67477 11.6841 4.48631 11.6841ZM7.00025 11.6841C6.81516 11.6841 6.6267 11.6089 6.49208 11.4814C6.3642 11.3473 6.28343 11.1674 6.28343 10.9876C6.28343 10.896 6.30362 10.8077 6.34064 10.7227C6.37766 10.6311 6.42814 10.5559 6.49208 10.4938C6.75795 10.2354 7.24593 10.2354 7.51179 10.4938C7.57573 10.5559 7.62621 10.6344 7.66323 10.7227C7.70025 10.8077 7.72045 10.896 7.72045 10.9876C7.72045 11.1674 7.64304 11.3506 7.51179 11.4814C7.37381 11.6089 7.18535 11.6841 7.00025 11.6841ZM9.5142 11.6841C9.3291 11.6841 9.14064 11.6089 9.00602 11.4814C8.93871 11.416 8.88823 11.3375 8.85458 11.2525C8.81756 11.1674 8.79737 11.0791 8.79737 10.9876C8.79737 10.896 8.81756 10.8077 8.85458 10.7227C8.8916 10.6311 8.94208 10.5559 9.00602 10.4938C9.17093 10.3336 9.42333 10.2551 9.65217 10.3041C9.70266 10.3107 9.74641 10.3237 9.79016 10.3466C9.83391 10.3597 9.87766 10.3826 9.91804 10.4088C9.95506 10.4284 9.98871 10.4644 10.0257 10.4938C10.1536 10.6279 10.2344 10.8077 10.2344 10.9876C10.2344 11.1674 10.157 11.3506 10.0257 11.4814C9.88775 11.6089 9.69929 11.6841 9.5142 11.6841ZM13.1017 5.99411H0.898813C0.606025 5.99411 0.360352 5.7554 0.360352 5.4709C0.360352 5.1864 0.606025 4.94768 0.898813 4.94768H13.1051C13.3978 4.94768 13.6435 5.1864 13.6435 5.4709C13.6435 5.7554 13.3978 5.99411 13.1017 5.99411Z" fill="#1E866F"/>
<path d="M9.87067 15H4.12933C1.50769 15 0 13.5349 0 10.9875V5.05881C0 2.5114 1.50769 1.04639 4.12933 1.04639H9.87404C12.4923 1.04639 14 2.5114 14 5.05881V10.9875C14 13.5349 12.4923 15 9.87067 15ZM4.12933 2.09282C2.07644 2.09282 1.07692 3.06405 1.07692 5.05881V10.9875C1.07692 12.9823 2.07644 13.9535 4.12933 13.9535H9.87404C11.9269 13.9535 12.9264 12.9823 12.9264 10.9875V5.05881C12.9264 3.06405 11.9269 2.09282 9.87404 2.09282H4.12933Z" fill="#1E866F"/>
</svg>
