<svg width="13" height="13" viewBox="0 0 13 13" fill="none" xmlns="http://www.w3.org/2000/svg">
<path d="M11.1875 1.45H11.1875H9.3625V0.5625C9.3625 0.466359 9.32431 0.374156 9.25633 0.306174C9.18834 0.238192 9.09614 0.2 9 0.2C8.90386 0.2 8.81166 0.238192 8.74367 0.306174C8.67569 0.374156 8.6375 0.466359 8.6375 0.5625V1.45H4.3625V0.5625C4.3625 0.466359 4.32431 0.374156 4.25633 0.306174C4.18834 0.238192 4.09614 0.2 4 0.2C3.90386 0.2 3.81166 0.238192 3.74367 0.306174C3.67569 0.374156 3.6375 0.466359 3.6375 0.5625V1.45L1.8125 1.45L1.81244 1.45C1.38495 1.45051 0.975119 1.62056 0.672838 1.92284C0.370558 2.22512 0.200512 2.63495 0.2 3.06244V3.0625L0.2 11.1875L0.2 11.1876C0.200512 11.615 0.370558 12.0249 0.672838 12.3272C0.975119 12.6294 1.38495 12.7995 1.81244 12.8H1.8125H11.1875H11.1875C11.6151 12.7997 12.025 12.6297 12.3273 12.3273C12.6297 12.025 12.7997 11.6151 12.8 11.1875V11.1875V3.0625V3.06246C12.7997 2.63491 12.6297 2.22498 12.3273 1.92266C12.025 1.62034 11.6151 1.45034 11.1875 1.45ZM12.075 11.1875C12.075 11.4229 11.9815 11.6486 11.8151 11.8151C11.6486 11.9815 11.4229 12.075 11.1875 12.075H1.8125C1.57712 12.075 1.35138 11.9815 1.18494 11.8151C1.0185 11.6486 0.925 11.4229 0.925 11.1875V5.925H12.075V11.1875ZM12.075 5.2H0.925V3.0625C0.925 2.57257 1.32141 2.175 1.8125 2.175H3.6375V3.0625C3.6375 3.15864 3.67569 3.25084 3.74367 3.31883C3.81166 3.38681 3.90386 3.425 4 3.425C4.09614 3.425 4.18834 3.38681 4.25633 3.31883C4.32431 3.25084 4.3625 3.15864 4.3625 3.0625V2.175H8.6375V3.0625C8.6375 3.15864 8.67569 3.25084 8.74367 3.31883C8.81166 3.38681 8.90386 3.425 9 3.425C9.09614 3.425 9.18834 3.38681 9.25633 3.31883C9.32431 3.25084 9.3625 3.15864 9.3625 3.0625V2.175H11.1875C11.4229 2.175 11.6486 2.2685 11.8151 2.43494C11.9815 2.60138 12.075 2.82712 12.075 3.0625V5.2Z" fill="#1E866F" stroke="#1E866F" stroke-width="0.1"/>
</svg>
