<svg width="18" height="15" viewBox="0 0 18 15" fill="none" xmlns="http://www.w3.org/2000/svg">
<path d="M16.2697 0H14.5393V1.02307C14.5391 1.11344 14.5025 1.20002 14.4376 1.26392C14.3727 1.32781 14.2848 1.36383 14.1931 1.3641H13.5005C13.4088 1.36383 13.3208 1.32781 13.256 1.26392C13.1911 1.20002 13.1545 1.11344 13.1542 1.02307V0H4.84679V1.02307C4.84652 1.11344 4.80995 1.20002 4.74507 1.26392C4.68019 1.32781 4.59227 1.36383 4.50052 1.3641H3.80797C3.71622 1.36383 3.6283 1.32781 3.56342 1.26392C3.49854 1.20002 3.46197 1.11344 3.4617 1.02307V0H1.73033C1.27184 0.00133872 0.832511 0.181308 0.508305 0.5006C0.184098 0.819892 0.00135932 1.25256 0 1.70411V13.2959C0.00135932 13.7474 0.184098 14.1801 0.508305 14.4994C0.832511 14.8187 1.27184 14.9987 1.73033 15H16.2697C16.7282 14.9987 17.1675 14.8187 17.4917 14.4994C17.8159 14.1801 17.9986 13.7474 18 13.2959V1.70411C17.9986 1.25256 17.8159 0.819892 17.4917 0.5006C17.1675 0.181308 16.7282 0.00133872 16.2697 0ZM16.6159 12.7884C16.6154 13.0144 16.524 13.2309 16.3618 13.3907C16.1996 13.5504 15.9797 13.6404 15.7503 13.641H2.24974C2.02032 13.6404 1.80044 13.5504 1.63821 13.3907C1.47599 13.2309 1.3846 13.0144 1.38406 12.7884V5.11334C1.38433 5.02297 1.4209 4.93639 1.48578 4.87249C1.55066 4.8086 1.63858 4.77258 1.73033 4.77231H16.2697C16.3614 4.77258 16.4493 4.8086 16.5142 4.87249C16.5791 4.93639 16.6157 5.02297 16.6159 5.11334V12.7884Z" fill="#505050" fill-opacity="0.7"/>
</svg>
