<svg width="14" height="14" viewBox="0 0 14 14" fill="none" xmlns="http://www.w3.org/2000/svg">
<path d="M12.75 1.25H11.5V1C11.5 0.801088 11.421 0.610322 11.2803 0.46967C11.1397 0.329018 10.9489 0.25 10.75 0.25C10.5511 0.25 10.3603 0.329018 10.2197 0.46967C10.079 0.610322 10 0.801088 10 1V1.25H7.75V1C7.75 0.801088 7.67098 0.610322 7.53033 0.46967C7.38968 0.329018 7.19891 0.25 7 0.25C6.80109 0.25 6.61032 0.329018 6.46967 0.46967C6.32902 0.610322 6.25 0.801088 6.25 1V1.25H4V1C4 0.801088 3.92098 0.610322 3.78033 0.46967C3.63968 0.329018 3.44891 0.25 3.25 0.25C3.05109 0.25 2.86032 0.329018 2.71967 0.46967C2.57902 0.610322 2.5 0.801088 2.5 1V1.25H1.25C0.91852 1.25013 0.600655 1.38187 0.366263 1.61626C0.131871 1.85065 0.000132635 2.16852 1.22439e-07 2.5V9.75C-0.000123014 9.99798 0.0926364 10.237 0.26 10.42C0.27 10.4325 3.2925 13.4575 3.2925 13.4575C3.48026 13.6449 3.73473 13.7501 4 13.75H12.75C13.0815 13.7499 13.3993 13.6181 13.6337 13.3837C13.8681 13.1493 13.9999 12.8315 14 12.5V2.5C13.9999 2.16852 13.8681 1.85065 13.6337 1.61626C13.3993 1.38187 13.0815 1.25013 12.75 1.25ZM10.5 1C10.5 0.933696 10.5263 0.870107 10.5732 0.823223C10.6201 0.776339 10.6837 0.75 10.75 0.75C10.8163 0.75 10.8799 0.776339 10.9268 0.823223C10.9737 0.870107 11 0.933696 11 1V2C11 2.0663 10.9737 2.12989 10.9268 2.17678C10.8799 2.22366 10.8163 2.25 10.75 2.25C10.6837 2.25 10.6201 2.22366 10.5732 2.17678C10.5263 2.12989 10.5 2.0663 10.5 2V1ZM6.75 1C6.75 0.933696 6.77634 0.870107 6.82322 0.823223C6.87011 0.776339 6.9337 0.75 7 0.75C7.0663 0.75 7.12989 0.776339 7.17678 0.823223C7.22366 0.870107 7.25 0.933696 7.25 1V2C7.25 2.0663 7.22366 2.12989 7.17678 2.17678C7.12989 2.22366 7.0663 2.25 7 2.25C6.9337 2.25 6.87011 2.22366 6.82322 2.17678C6.77634 2.12989 6.75 2.0663 6.75 2V1ZM3 1C3 0.933696 3.02634 0.870107 3.07322 0.823223C3.12011 0.776339 3.1837 0.75 3.25 0.75C3.3163 0.75 3.37989 0.776339 3.42678 0.823223C3.47366 0.870107 3.5 0.933696 3.5 1V2C3.5 2.0663 3.47366 2.12989 3.42678 2.17678C3.37989 2.22366 3.3163 2.25 3.25 2.25C3.1837 2.25 3.12011 2.22366 3.07322 2.17678C3.02634 2.12989 3 2.0663 3 2V1ZM3 12.455L1.295 10.75H2.25C2.44873 10.7506 2.63915 10.8298 2.77967 10.9703C2.9202 11.1108 2.99941 11.3013 3 11.5V12.455ZM13.5 12.5C13.4994 12.6987 13.4202 12.8892 13.2797 13.0297C13.1392 13.1702 12.9487 13.2494 12.75 13.25H4C3.8677 13.249 3.74109 13.196 3.64753 13.1025C3.55397 13.0089 3.50098 12.8823 3.5 12.75V11.5C3.49987 11.1685 3.36813 10.8507 3.13374 10.6163C2.89935 10.3819 2.58148 10.2501 2.25 10.25H1C0.867695 10.249 0.741088 10.196 0.647531 10.1025C0.553975 10.0089 0.500981 9.88231 0.5 9.75V4.25H13.5V12.5ZM13.5 3.75H0.5V2.5C0.500594 2.30127 0.579802 2.11085 0.720326 1.97033C0.86085 1.8298 1.05127 1.75059 1.25 1.75H2.5V2C2.5 2.19891 2.57902 2.38968 2.71967 2.53033C2.86032 2.67098 3.05109 2.75 3.25 2.75C3.44891 2.75 3.63968 2.67098 3.78033 2.53033C3.92098 2.38968 4 2.19891 4 2V1.75H6.25V2C6.25 2.19891 6.32902 2.38968 6.46967 2.53033C6.61032 2.67098 6.80109 2.75 7 2.75C7.19891 2.75 7.38968 2.67098 7.53033 2.53033C7.67098 2.38968 7.75 2.19891 7.75 2V1.75H10V2C10 2.19891 10.079 2.38968 10.2197 2.53033C10.3603 2.67098 10.5511 2.75 10.75 2.75C10.9489 2.75 11.1397 2.67098 11.2803 2.53033C11.421 2.38968 11.5 2.19891 11.5 2V1.75H12.75C12.9487 1.75059 13.1392 1.8298 13.2797 1.97033C13.4202 2.11085 13.4994 2.30127 13.5 2.5V3.75Z" fill="#858585"/>
</svg>
