<svg width="16" height="16" viewBox="0 0 16 16" fill="none" xmlns="http://www.w3.org/2000/svg">
<g clip-path="url(#clip0_11787_3667)">
<path d="M15.8906 6.98678L6.14062 1.3579C5.86067 1.19682 5.52828 1.1533 5.21629 1.23688C4.90431 1.32046 4.63818 1.52432 4.47625 1.80378L3.35375 3.7479L2.6065 5.04203C2.44532 5.32208 2.40179 5.65462 2.48545 5.96672C2.5691 6.27882 2.77312 6.545 3.05275 6.7069L6.39563 8.63678L5.87575 9.52328C5.8066 9.64062 5.70808 9.73793 5.5899 9.80563C5.47172 9.87333 5.33795 9.9091 5.20175 9.9094H3.25V8.4219C3.25 8.36388 3.22695 8.30825 3.18593 8.26722C3.14491 8.2262 3.08927 8.20315 3.03125 8.20315H1.84375V7.9209C1.84345 7.66406 1.74129 7.41783 1.55968 7.23622C1.37807 7.05461 1.13184 6.95245 0.875 6.95215H0.21875C0.190019 6.95214 0.161566 6.95778 0.135019 6.96877C0.108471 6.97976 0.0843499 6.99587 0.0640338 7.01619C0.0437177 7.0365 0.0276053 7.06062 0.0166179 7.08717C0.00563052 7.11372 -1.63962e-05 7.14217 3.57584e-08 7.1709V14.5855C-1.63962e-05 14.6143 0.00563052 14.6427 0.0166179 14.6693C0.0276053 14.6958 0.0437177 14.7199 0.0640338 14.7402C0.0843499 14.7606 0.108471 14.7767 0.135019 14.7877C0.161566 14.7986 0.190019 14.8043 0.21875 14.8043H0.875C1.13184 14.804 1.37807 14.7018 1.55968 14.5202C1.74129 14.3386 1.84345 14.0924 1.84375 13.8355V13.1407H3.03125C3.08927 13.1407 3.14491 13.1176 3.18593 13.0766C3.22695 13.0356 3.25 12.9799 3.25 12.9219V11.8469H5.20175C5.67563 11.8459 6.14108 11.7215 6.5523 11.486C6.96352 11.2505 7.30633 10.912 7.547 10.5038L8.07362 9.60578L9.906 10.6637C10.0905 10.7707 10.3 10.8272 10.5133 10.8274C10.6205 10.8274 10.7272 10.8132 10.8308 10.7854C11.0297 10.7325 11.2119 10.6297 11.3601 10.4868C11.5998 10.598 11.8608 10.6557 12.125 10.656C12.2869 10.6559 12.4481 10.6346 12.6045 10.5925C13.0033 10.4865 13.3545 10.2486 13.6009 9.91753L14.0489 10.1762C14.0738 10.1905 14.1012 10.1999 14.1297 10.2036C14.1582 10.2074 14.1872 10.2055 14.2149 10.1981C14.2427 10.1906 14.2687 10.1778 14.2915 10.1603C14.3143 10.1428 14.3334 10.1209 14.3477 10.096L15.9703 7.2859C15.9847 7.26103 15.994 7.23357 15.9978 7.20508C16.0016 7.17659 15.9998 7.14762 15.9924 7.11985C15.985 7.09207 15.9722 7.06602 15.9547 7.04319C15.9373 7.02036 15.9155 7.00119 15.8906 6.98678ZM1.40625 13.8355C1.40612 13.9764 1.3501 14.1114 1.2505 14.211C1.1509 14.3106 1.01586 14.3666 0.875 14.3668H0.4375V7.38965H0.875C1.01586 7.38978 1.1509 7.4458 1.2505 7.5454C1.3501 7.645 1.40612 7.78005 1.40625 7.9209V13.8355ZM2.8125 12.7032H1.84375V8.64065H2.8125V12.7032ZM7.1695 10.2824C6.96761 10.625 6.67999 10.909 6.33496 11.1067C5.98992 11.3043 5.59937 11.4087 5.20175 11.4095H3.25V10.347H5.20175C5.4142 10.3466 5.62287 10.2908 5.80722 10.1852C5.99157 10.0796 6.14525 9.9278 6.25313 9.74478L6.775 8.85578L7.69525 9.38703L7.1695 10.2824ZM10.125 10.2848L3.2715 6.32803C3.09222 6.22427 2.96142 6.05363 2.9078 5.85354C2.85418 5.65346 2.88213 5.44028 2.9855 5.26078L3.623 4.15615L9.90388 7.7824L11.8295 8.89415L11.1919 9.99928L11.191 10.0007C11.1744 10.0289 11.156 10.056 11.1359 10.0819V10.0828C11.0205 10.2333 10.8544 10.3368 10.6684 10.3739C10.4825 10.4111 10.2893 10.3794 10.125 10.2848ZM12.4921 10.1699C12.2056 10.2474 11.9018 10.2314 11.625 10.1243L12.2091 9.11265L13.2207 9.69665C13.0344 9.92802 12.779 10.0938 12.4919 10.1699H12.4921ZM14.079 9.6874L12.6644 8.87065L12.2375 8.62428L7.40788 5.83603L3.842 3.77728L4.85512 2.02253C4.95892 1.84329 5.12958 1.71254 5.32966 1.65897C5.52974 1.6054 5.7429 1.63338 5.92238 1.73678L15.4824 7.2564L14.079 9.6874Z" fill="#1E866F"/>
<path d="M13.1441 8.49929C13.2714 8.57328 13.4161 8.61231 13.5634 8.61241C13.6374 8.61235 13.711 8.6026 13.7824 8.58341C13.9704 8.53306 14.1352 8.41908 14.2485 8.26089C14.3619 8.1027 14.417 7.91009 14.4042 7.71588C14.3915 7.52167 14.3119 7.33787 14.1789 7.19581C14.0458 7.05374 13.8677 6.96219 13.6747 6.93677C13.4817 6.91134 13.2859 6.9536 13.1206 7.05636C12.9554 7.15911 12.8308 7.316 12.7682 7.50029C12.7056 7.68458 12.7089 7.88486 12.7774 8.06703C12.846 8.24919 12.9755 8.40195 13.1441 8.49929ZM13.2152 7.56891C13.2417 7.52303 13.2769 7.48284 13.319 7.45066C13.3611 7.41848 13.4091 7.39495 13.4603 7.38141C13.4946 7.37225 13.5299 7.36758 13.5653 7.36754C13.6543 7.36755 13.7407 7.39692 13.8113 7.45108C13.8819 7.50525 13.9326 7.58119 13.9556 7.66712C13.9786 7.75306 13.9727 7.84419 13.9386 7.92637C13.9045 8.00856 13.8443 8.07721 13.7673 8.12168C13.6902 8.16615 13.6006 8.18395 13.5124 8.17232C13.4242 8.1607 13.3423 8.12029 13.2795 8.05737C13.2166 7.99446 13.1762 7.91255 13.1646 7.82434C13.153 7.73614 13.1708 7.64657 13.2153 7.56954L13.2152 7.56891ZM5.68731 6.28391L3.89481 5.24879C3.86992 5.2342 3.8424 5.22467 3.81381 5.22077C3.78523 5.21686 3.75616 5.21864 3.72827 5.22602C3.70038 5.23339 3.67422 5.24621 3.6513 5.26373C3.62839 5.28126 3.60916 5.30314 3.59474 5.32812C3.58031 5.35311 3.57097 5.3807 3.56725 5.4093C3.56354 5.43791 3.56551 5.46697 3.57307 5.49481C3.58063 5.52266 3.59362 5.54873 3.6113 5.57153C3.62897 5.59433 3.65098 5.6134 3.67606 5.62766L5.46906 6.66266C5.5191 6.68882 5.57731 6.69463 5.63153 6.67885C5.68574 6.66308 5.73176 6.62695 5.75995 6.57803C5.78814 6.52911 5.79632 6.47118 5.78279 6.41636C5.76925 6.36154 5.73504 6.31409 5.68731 6.28391Z" fill="#1E866F"/>
</g>
<defs>
<clipPath id="clip0_11787_3667">
<rect width="16" height="16" fill="white"/>
</clipPath>
</defs>
</svg>
