<svg width="29" height="23" viewBox="0 0 29 23" fill="none" xmlns="http://www.w3.org/2000/svg">
<path d="M5.49759 22H26.0083C27.1092 22 28 21.1092 28 20.0083V6.7111C28 5.61025 27.1092 4.71942 26.0083 4.71942H22.4812C21.728 4.71942 21.04 4.29935 20.7068 3.6258L19.9826 2.19903C19.6422 1.53272 18.9541 1.10542 18.2082 1.10542H10.7629C10.0024 1.10542 9.31438 1.53272 8.97398 2.21352L8.28594 3.60408C7.95279 4.28487 7.25751 4.71218 6.49705 4.71218H2.99168C1.89083 4.71218 1 5.603 1 6.70386V20.0083C1 21.1092 1.89083 22 2.99168 22H3.78112" stroke="#1E866F" stroke-width="1.2" stroke-miterlimit="10" stroke-linecap="round" stroke-linejoin="round"/>
<path d="M21.0115 13.071C21.0115 16.6633 18.1 19.582 14.5005 19.582C10.9082 19.582 7.9895 16.6705 7.9895 13.071C7.9895 9.47876 10.901 6.56003 14.5005 6.56003C18.0928 6.56003 21.0115 9.47151 21.0115 13.071Z" stroke="#1E866F" stroke-width="1.2" stroke-miterlimit="10" stroke-linecap="round" stroke-linejoin="round"/>
<path d="M18.7229 11.23C18.9691 11.7949 19.1067 12.4177 19.1067 13.0696C19.1067 15.6117 17.0426 17.6758 14.5005 17.6758C11.9584 17.6758 9.89429 15.6117 9.89429 13.0696C9.89429 10.5274 11.9584 8.46333 14.5005 8.46333C15.7317 8.46333 16.8543 8.94858 17.68 9.73801" stroke="#1E866F" stroke-width="1.2" stroke-miterlimit="10" stroke-linecap="round" stroke-linejoin="round"/>
<path d="M5.87422 3.17748H3.63629C3.4335 3.17748 3.27417 3.34406 3.27417 3.53961V4.71289H6.24359V3.53961C6.23635 3.34406 6.06977 3.17748 5.87422 3.17748Z" stroke="#1E866F" stroke-width="1.2" stroke-miterlimit="10" stroke-linecap="round" stroke-linejoin="round"/>
<path d="M4.75146 7.47864C4.75146 7.98562 4.33864 8.39844 3.83166 8.39844C3.32469 8.39844 2.91187 7.98562 2.91187 7.47864C2.91187 6.97167 3.32469 6.55885 3.83166 6.55885C4.33864 6.55885 4.75146 6.97167 4.75146 7.47864Z" stroke="#1E866F" stroke-width="1.2" stroke-miterlimit="10" stroke-linecap="round" stroke-linejoin="round"/>
<path d="M12.4788 3.17578H16.5128" stroke="#1E866F" stroke-width="1.2" stroke-miterlimit="10" stroke-linecap="round" stroke-linejoin="round"/>
<path d="M25.0371 6.95703H25.6817" stroke="#1E866F" stroke-width="1.2" stroke-miterlimit="10" stroke-linecap="round" stroke-linejoin="round"/>
</svg>
