<svg width="45" height="35" viewBox="0 0 45 35" fill="none" xmlns="http://www.w3.org/2000/svg">
<path d="M8.16282 34.2773H40.8281C42.5813 34.2773 44 32.8586 44 31.1054V9.92836C44 8.17514 42.5813 6.75642 40.8281 6.75642H35.2108C34.0113 6.75642 32.9155 6.08743 32.3849 5.01474L31.2315 2.74247C30.6894 1.68131 29.5936 1.00079 28.4056 1.00079H16.5483C15.3372 1.00079 14.2414 1.68131 13.6993 2.76554L12.6035 4.98013C12.073 6.06436 10.9657 6.74489 9.75456 6.74489H4.17194C2.41872 6.74489 1 8.16361 1 9.91683V31.1054C1 32.8586 2.41872 34.2773 4.17194 34.2773H5.42918" stroke="#1E866F" stroke-miterlimit="10" stroke-linecap="round" stroke-linejoin="round"/>
<path d="M32.8708 20.0564C32.8708 25.7774 28.234 30.4258 22.5014 30.4258C16.7804 30.4258 12.1321 25.789 12.1321 20.0564C12.1321 14.3354 16.7689 9.68705 22.5014 9.68705C28.2225 9.68705 32.8708 14.3238 32.8708 20.0564Z" stroke="#1E866F" stroke-miterlimit="10" stroke-linecap="round" stroke-linejoin="round"/>
<path d="M29.2264 17.1251C29.6185 18.0247 29.8377 19.0167 29.8377 20.0548C29.8377 24.1033 26.5504 27.3906 22.5019 27.3906C18.4533 27.3906 15.166 24.1033 15.166 20.0548C15.166 16.0062 18.4533 12.7189 22.5019 12.7189C24.4627 12.7189 26.2505 13.4918 27.5654 14.749" stroke="#1E866F" stroke-miterlimit="10" stroke-linecap="round" stroke-linejoin="round"/>
<path d="M8.76216 4.30081H5.19805C4.87509 4.30081 4.62134 4.5661 4.62134 4.87753V6.74609H9.35042V4.87753C9.33888 4.5661 9.07359 4.30081 8.76216 4.30081Z" stroke="#1E866F" stroke-miterlimit="10" stroke-linecap="round" stroke-linejoin="round"/>
<path d="M6.97391 11.1523C6.97391 11.9597 6.31645 12.6172 5.50905 12.6172C4.70165 12.6172 4.04419 11.9597 4.04419 11.1523C4.04419 10.3449 4.70165 9.68747 5.50905 9.68747C6.31645 9.68747 6.97391 10.3449 6.97391 11.1523Z" stroke="#1E866F" stroke-miterlimit="10" stroke-linecap="round" stroke-linejoin="round"/>
<path d="M19.2812 4.30078H25.7059" stroke="#1E866F" stroke-miterlimit="10" stroke-linecap="round" stroke-linejoin="round"/>
<path d="M39.281 10.3203H40.3076" stroke="#1E866F" stroke-miterlimit="10" stroke-linecap="round" stroke-linejoin="round"/>
</svg>
