<svg width="16" height="16" viewBox="0 0 16 16" fill="none" xmlns="http://www.w3.org/2000/svg">
<path d="M3.19979 4.16125V11.8412C3.19979 12.0959 3.30093 12.34 3.48096 12.5201C3.661 12.7001 3.90518 12.8012 4.15979 12.8012H11.8398C12.0944 12.8012 12.3386 12.7001 12.5186 12.5201C12.6986 12.34 12.7998 12.0959 12.7998 11.8412V4.16125C12.7998 3.90664 12.6986 3.66246 12.5186 3.48243C12.3386 3.30239 12.0944 3.20125 11.8398 3.20125H4.15979C3.90518 3.20125 3.661 3.30239 3.48096 3.48243C3.30093 3.66246 3.19979 3.90664 3.19979 4.16125ZM12.1598 4.16125V11.8412C12.1598 11.9261 12.1261 12.0075 12.0661 12.0675C12.006 12.1275 11.9247 12.1613 11.8398 12.1613H4.15979C4.07492 12.1613 3.99352 12.1275 3.93351 12.0675C3.8735 12.0075 3.83979 11.9261 3.83979 11.8412V4.16125C3.83979 4.07638 3.8735 3.99499 3.93351 3.93498C3.99352 3.87496 4.07492 3.84125 4.15979 3.84125H11.8398C11.9247 3.84125 12.006 3.87496 12.0661 3.93498C12.1261 3.99499 12.1598 4.07638 12.1598 4.16125ZM1.27979 4.80125V2.24125C1.27979 1.98664 1.38093 1.74246 1.56096 1.56243C1.741 1.38239 1.98518 1.28125 2.23979 1.28125H4.79979C4.88465 1.28125 4.96605 1.31496 5.02606 1.37498C5.08607 1.43499 5.11979 1.51638 5.11979 1.60125C5.11979 1.68612 5.08607 1.76751 5.02606 1.82752C4.96605 1.88754 4.88465 1.92125 4.79979 1.92125H2.23979C2.15492 1.92125 2.07352 1.95496 2.01351 2.01498C1.9535 2.07499 1.91979 2.15638 1.91979 2.24125V4.80125C1.91979 4.88612 1.88607 4.96751 1.82606 5.02752C1.76605 5.08754 1.68465 5.12125 1.59979 5.12125C1.51492 5.12125 1.43352 5.08754 1.37351 5.02752C1.3135 4.96751 1.27979 4.88612 1.27979 4.80125ZM14.7198 2.24125V4.80125C14.7198 4.88612 14.6861 4.96751 14.6261 5.02752C14.566 5.08754 14.4847 5.12125 14.3998 5.12125C14.3149 5.12125 14.2335 5.08754 14.1735 5.02752C14.1135 4.96751 14.0798 4.88612 14.0798 4.80125V2.24125C14.0798 2.15638 14.0461 2.07499 13.9861 2.01498C13.926 1.95496 13.8447 1.92125 13.7598 1.92125H11.1998C11.1149 1.92125 11.0335 1.88754 10.9735 1.82752C10.9135 1.76751 10.8798 1.68612 10.8798 1.60125C10.8798 1.51638 10.9135 1.43499 10.9735 1.37498C11.0335 1.31496 11.1149 1.28125 11.1998 1.28125H13.7598C14.0144 1.28125 14.2586 1.38239 14.4386 1.56243C14.6186 1.74246 14.7198 1.98664 14.7198 2.24125ZM14.7198 11.2013V13.7612C14.7198 14.0159 14.6186 14.26 14.4386 14.4401C14.2586 14.6201 14.0144 14.7212 13.7598 14.7212H11.1998C11.1149 14.7212 11.0335 14.6875 10.9735 14.6275C10.9135 14.5675 10.8798 14.4861 10.8798 14.4012C10.8798 14.3164 10.9135 14.235 10.9735 14.175C11.0335 14.115 11.1149 14.0812 11.1998 14.0812H13.7598C13.8447 14.0812 13.926 14.0475 13.9861 13.9875C14.0461 13.9275 14.0798 13.8461 14.0798 13.7612V11.2013C14.0798 11.1164 14.1135 11.035 14.1735 10.975C14.2335 10.915 14.3149 10.8812 14.3998 10.8812C14.4847 10.8812 14.566 10.915 14.6261 10.975C14.6861 11.035 14.7198 11.1164 14.7198 11.2013ZM5.11979 14.4012C5.11979 14.4861 5.08607 14.5675 5.02606 14.6275C4.96605 14.6875 4.88465 14.7212 4.79979 14.7212H2.23979C1.98518 14.7212 1.741 14.6201 1.56096 14.4401C1.38093 14.26 1.27979 14.0159 1.27979 13.7612V11.2013C1.27979 11.1164 1.3135 11.035 1.37351 10.975C1.43352 10.915 1.51492 10.8812 1.59979 10.8812C1.68465 10.8812 1.76605 10.915 1.82606 10.975C1.88607 11.035 1.91979 11.1164 1.91979 11.2013V13.7612C1.91979 13.8461 1.9535 13.9275 2.01351 13.9875C2.07352 14.0475 2.15492 14.0812 2.23979 14.0812H4.79979C4.88465 14.0812 4.96605 14.115 5.02606 14.175C5.08607 14.235 5.11979 14.3164 5.11979 14.4012Z" fill="#1E866F"/>
</svg>
