<svg width="14" height="14" viewBox="0 0 14 14" fill="none" xmlns="http://www.w3.org/2000/svg">
<path d="M7.11753 9.50372C7.11753 9.43742 7.09119 9.37383 7.0443 9.32695C6.99742 9.28006 6.93383 9.25372 6.86753 9.25372H4.06578L4.24953 8.75372H6.75003C6.81633 8.75372 6.87992 8.72738 6.92681 8.6805C6.97369 8.63362 7.00003 8.57003 7.00003 8.50372C7.00003 8.43742 6.97369 8.37383 6.92681 8.32695C6.87992 8.28006 6.81633 8.25372 6.75003 8.25372H4.07503C4.02384 8.2537 3.97388 8.26939 3.9319 8.29868C3.88992 8.32796 3.85794 8.36943 3.84028 8.41747L3.53303 9.25372H1.25003C1.05118 9.25352 0.860527 9.17444 0.719918 9.03383C0.579308 8.89322 0.500227 8.70257 0.500028 8.50372V6.05622C0.498919 5.96359 0.517464 5.87178 0.554438 5.78685C0.591412 5.70191 0.645975 5.62578 0.714528 5.56347C0.995028 5.33072 1.81453 4.64122 2.17078 4.25347H11.829C12.1848 4.64047 13.0028 5.32847 13.2715 5.55147C13.3702 5.63883 13.4419 5.7524 13.4785 5.87897C13.4776 5.9184 13.4858 5.9575 13.5023 5.9933C13.5188 6.02909 13.5434 6.06062 13.574 6.08547C13.6046 6.11031 13.6405 6.12782 13.679 6.13664C13.7174 6.14546 13.7573 6.14536 13.7957 6.13635C13.8341 6.12734 13.8699 6.10965 13.9004 6.08465C13.9309 6.05965 13.9553 6.028 13.9717 5.99213C13.988 5.95625 13.996 5.9171 13.9949 5.87768C13.9938 5.83827 13.9836 5.79962 13.9653 5.76472C13.9048 5.53848 13.7795 5.33487 13.6048 5.17897C13.1088 4.76672 12.5525 4.27747 12.2785 4.00372H13.07C13.2504 4.00372 13.4233 3.93208 13.5509 3.80456C13.6784 3.67703 13.75 3.50407 13.75 3.32372C13.75 3.14338 13.6784 2.97042 13.5509 2.84289C13.4233 2.71537 13.2504 2.64372 13.07 2.64372H12.2125C12.025 2.64399 11.8415 2.69776 11.6835 2.79872C11.4478 2.20771 11.2159 1.6152 10.9878 1.02122C10.8922 0.793762 10.7317 0.59958 10.5262 0.463039C10.3207 0.326498 10.0795 0.253681 9.83278 0.253723H4.16753C3.91943 0.254023 3.67699 0.32782 3.4708 0.465797C3.26462 0.603775 3.10393 0.799747 3.00903 1.02897C2.782 1.62037 2.55116 2.2103 2.31653 2.79872C2.15854 2.69776 1.97502 2.64399 1.78753 2.64372H0.930028C0.749681 2.64372 0.576721 2.71537 0.449196 2.84289C0.321671 2.97042 0.250028 3.14338 0.250028 3.32372C0.250028 3.50407 0.321671 3.67703 0.449196 3.80456C0.576721 3.93208 0.749681 4.00372 0.930028 4.00372H1.72153C1.44653 4.27847 0.888028 4.76972 0.381528 5.19122C0.26043 5.30021 0.163814 5.43363 0.0980539 5.58269C0.0322939 5.73175 -0.00111579 5.89306 2.84274e-05 6.05597V8.50347C0.000839383 8.77143 0.0885646 9.03188 0.250028 9.24572V10.5032C0.250227 10.7021 0.329308 10.8927 0.469918 11.0333C0.610527 11.1739 0.801177 11.253 1.00003 11.2532H2.50003C2.69888 11.253 2.88953 11.1739 3.03014 11.0333C3.17075 10.8927 3.24983 10.7021 3.25003 10.5032V9.75322H6.86753C6.93383 9.75322 6.99742 9.72688 7.0443 9.68C7.09119 9.63312 7.11753 9.56953 7.11753 9.50322V9.50372ZM12.2125 3.14372H13.07C13.1178 3.14372 13.1636 3.16269 13.1973 3.19644C13.2311 3.2302 13.25 3.27598 13.25 3.32372C13.25 3.37146 13.2311 3.41725 13.1973 3.451C13.1636 3.48476 13.1178 3.50372 13.07 3.50372H11.9715C11.9428 3.43547 11.9115 3.36122 11.8773 3.27747C11.9681 3.1923 12.088 3.14454 12.2125 3.14372ZM3.47253 1.21622C3.52997 1.07927 3.62657 0.962328 3.75021 0.880052C3.87384 0.797776 4.01902 0.753829 4.16753 0.753723H9.83253C9.97966 0.753444 10.1236 0.796362 10.2466 0.877156C10.3696 0.95795 10.4661 1.07307 10.5243 1.20822C10.6073 1.42447 11.2268 3.03422 11.5355 3.75372H2.46478C2.77303 3.03522 3.39228 1.42572 3.47278 1.21622H3.47253ZM0.930028 3.50372C0.882289 3.50372 0.836506 3.48476 0.802749 3.451C0.768993 3.41725 0.750028 3.37146 0.750028 3.32372C0.750028 3.27598 0.768993 3.2302 0.802749 3.19644C0.836506 3.16269 0.882289 3.14372 0.930028 3.14372H1.78753C1.91214 3.14445 2.03189 3.19222 2.12278 3.27747C2.09175 3.35305 2.06033 3.42847 2.02853 3.50372H0.930028ZM2.75003 10.5037C2.74996 10.57 2.7236 10.6336 2.67673 10.6804C2.62986 10.7273 2.56631 10.7537 2.50003 10.7537H1.00003C0.933745 10.7537 0.870195 10.7273 0.823325 10.6804C0.776455 10.6336 0.750095 10.57 0.750028 10.5037V9.64747C1.06503 9.83347 2.33578 9.72747 2.75003 9.75347V10.5037Z" fill="#1E866F"/>
<path d="M3.2325 5.75372H1.25C1.1837 5.75372 1.12011 5.78006 1.07322 5.82695C1.02634 5.87383 1 5.93742 1 6.00372C1.0004 6.33512 1.13222 6.65283 1.36655 6.88717C1.60089 7.1215 1.9186 7.25333 2.25 7.25372H3.9C3.94506 7.25318 3.98916 7.24055 4.02767 7.21715C4.06619 7.19375 4.09772 7.16044 4.11897 7.1207C4.14022 7.08096 4.15041 7.03624 4.14848 6.99121C4.14655 6.94618 4.13257 6.9025 4.108 6.86472L3.4405 5.86472C3.41762 5.83056 3.38667 5.80255 3.35039 5.78319C3.31411 5.76383 3.27362 5.75371 3.2325 5.75372ZM2.25 6.75372C2.09489 6.75359 1.94362 6.70545 1.81695 6.61593C1.69028 6.52641 1.59441 6.39989 1.5425 6.25372H3.09875L3.4325 6.75372H2.25ZM7.6725 5.75372H4.4325C4.38724 5.75372 4.34283 5.766 4.304 5.78925C4.26517 5.81251 4.23338 5.84587 4.21203 5.88578C4.19068 5.92569 4.18056 5.97065 4.18276 6.01585C4.18495 6.06106 4.19938 6.10482 4.2245 6.14247L4.892 7.14247C4.91485 7.17669 4.94579 7.20474 4.98207 7.22414C5.01835 7.24355 5.05886 7.25371 5.1 7.25372H7.0625C7.1288 7.25372 7.19239 7.22738 7.23928 7.1805C7.28616 7.13362 7.3125 7.07003 7.3125 7.00372C7.3125 6.93742 7.28616 6.87383 7.23928 6.82695C7.19239 6.78006 7.1288 6.75372 7.0625 6.75372H5.234L4.90025 6.25372H7.67275C7.73905 6.25372 7.80264 6.22738 7.84953 6.1805C7.89641 6.13362 7.92275 6.07003 7.92275 6.00372C7.92275 5.93742 7.89641 5.87383 7.84953 5.82695C7.80264 5.78006 7.73905 5.75372 7.67275 5.75372H7.6725Z" fill="#1E866F"/>
<path d="M10.7499 5.30372C10.1714 5.30253 9.60317 5.45609 9.10401 5.74848C8.60486 6.04086 8.19299 6.46144 7.91111 6.9666C7.62923 7.47176 7.48759 8.04312 7.50088 8.62145C7.51416 9.19978 7.68189 9.76404 7.98667 10.2557L5.77567 12.467C5.67059 12.5718 5.59903 12.7055 5.57006 12.8511C5.5411 12.9966 5.55604 13.1475 5.61299 13.2846C5.66994 13.4217 5.76633 13.5387 5.88992 13.6209C6.01352 13.7031 6.15875 13.7467 6.30717 13.7462C6.40545 13.7465 6.50282 13.7273 6.59369 13.6899C6.68455 13.6524 6.76713 13.5974 6.83667 13.528L9.04767 11.317C9.47522 11.5804 9.95804 11.7411 10.4582 11.7864C10.9583 11.8318 11.4622 11.7606 11.9301 11.5783C12.3981 11.3961 12.8174 11.1078 13.1551 10.7362C13.4929 10.3645 13.7399 9.91961 13.8767 9.43641C14.0134 8.9532 14.0363 8.44486 13.9435 7.95133C13.8507 7.45779 13.6447 6.9925 13.3417 6.59202C13.0387 6.19153 12.6469 5.86677 12.1972 5.64323C11.7475 5.41969 11.2521 5.30348 10.7499 5.30372ZM6.48317 13.1745C6.43623 13.2214 6.37256 13.2478 6.30617 13.2478C6.23979 13.2478 6.17612 13.2214 6.12917 13.1745C6.08223 13.1275 6.05586 13.0639 6.05586 12.9975C6.05586 12.9311 6.08223 12.8674 6.12917 12.8205L8.28417 10.6652C8.39297 10.7921 8.51132 10.9104 8.63817 11.0192L6.48317 13.1745ZM10.7499 11.3037C10.206 11.3037 9.67434 11.1424 9.22211 10.8403C8.76987 10.5381 8.4174 10.1086 8.20925 9.6061C8.00111 9.1036 7.94665 8.55067 8.05276 8.01722C8.15887 7.48377 8.42078 6.99377 8.80538 6.60917C9.18997 6.22458 9.67998 5.96267 10.2134 5.85656C10.7469 5.75045 11.2998 5.80491 11.8023 6.01305C12.3048 6.22119 12.7343 6.57366 13.0365 7.0259C13.3386 7.47814 13.4999 8.00982 13.4999 8.55372C13.4991 9.28282 13.2091 9.98183 12.6936 10.4974C12.178 11.0129 11.479 11.3029 10.7499 11.3037Z" fill="#1E866F"/>
<path d="M11.6984 7.62699L10.3751 8.94999L9.80189 8.37674C9.77883 8.35286 9.75124 8.33381 9.72074 8.32071C9.69024 8.30761 9.65744 8.30071 9.62424 8.30042C9.59105 8.30014 9.55813 8.30646 9.5274 8.31903C9.49668 8.3316 9.46877 8.35017 9.44529 8.37364C9.42182 8.39711 9.40326 8.42503 9.39069 8.45575C9.37812 8.48647 9.37179 8.51939 9.37208 8.55259C9.37237 8.58578 9.37926 8.61859 9.39237 8.64909C9.40547 8.67959 9.42451 8.70718 9.44839 8.73024L10.1984 9.48024C10.2453 9.52711 10.3089 9.55343 10.3751 9.55343C10.4414 9.55343 10.505 9.52711 10.5519 9.48024L12.0519 7.98024C12.0758 7.95718 12.0948 7.92959 12.1079 7.89909C12.121 7.86859 12.1279 7.83578 12.1282 7.80259C12.1285 7.76939 12.1222 7.73647 12.1096 7.70575C12.097 7.67503 12.0785 7.64711 12.055 7.62364C12.0315 7.60017 12.0036 7.5816 11.9729 7.56903C11.9422 7.55646 11.9092 7.55014 11.876 7.55042C11.8428 7.55071 11.81 7.55761 11.7795 7.57071C11.749 7.58381 11.7215 7.60311 11.6984 7.62699Z" fill="#1E866F"/>
</svg>
