<svg width="17" height="16" viewBox="0 0 17 16" fill="none" xmlns="http://www.w3.org/2000/svg">
<g clip-path="url(#clip0_8038_1649)">
<path d="M4.08086 7.60004L2.80586 7.32504C2.45586 7.25004 2.13086 7.52504 2.13086 7.87504V8.40004C2.13086 8.82504 2.45586 8.92504 2.85586 8.92504H4.25586C4.53086 8.92504 4.80586 8.87504 4.80586 8.57504V8.50004C4.80586 8.05004 4.50586 7.67504 4.08086 7.60004ZM2.60586 8.40004V7.85004C2.60586 7.80004 2.65586 7.75004 2.70586 7.77504L3.98086 8.05004C4.15586 8.10004 4.28086 8.25004 4.30586 8.42504C3.43086 8.42504 2.68086 8.42504 2.60586 8.40004Z" fill="#545454"/>
<path d="M15.4305 4.92505L13.6305 4.07505C13.0305 3.80005 12.3805 3.70005 11.7555 3.82505L11.4805 3.27505C11.2805 2.77505 10.8055 2.42505 10.2555 2.42505H4.40547C3.85547 2.42505 3.38047 2.75005 3.18047 3.25005L2.20547 5.27505C1.98047 4.95005 1.60547 4.75005 1.20547 4.75005H0.780469C0.405469 4.75005 0.105469 5.05005 0.105469 5.42505V5.70005C0.105469 6.07505 0.405469 6.37505 0.780469 6.37505H1.43047C1.15547 6.72505 1.03047 7.17505 1.03047 7.62505V9.12505C1.03047 9.70005 1.23047 10.25 1.63047 10.725V11.85C1.63047 12.35 2.03047 12.75 2.53047 12.75H3.45547C3.95547 12.75 4.35547 12.35 4.35547 11.85V11.4H9.35547C10.4555 12.9 12.1805 13.55 12.2055 13.55C12.2555 13.575 12.3055 13.575 12.3805 13.55C12.4055 13.525 16.1055 12.175 16.1055 8.80005V6.00005C16.1055 5.55005 15.8305 5.12505 15.4305 4.92505ZM3.63047 3.45005C3.75547 3.12505 4.05547 2.92505 4.40547 2.92505H10.2555C10.6055 2.92505 10.9055 3.12505 11.0555 3.47505L11.2805 3.95005C11.1805 3.97505 11.0805 4.02505 10.9805 4.07505L9.18047 4.92505C8.78047 5.12505 8.50547 5.52505 8.50547 5.97505H2.38047C2.48047 5.82505 2.38047 6.07505 3.63047 3.45005ZM0.605469 5.70005V5.42505C0.605469 5.32505 0.680469 5.25005 0.780469 5.25005H1.20547C1.70547 5.25005 1.88047 5.70005 1.93047 5.77505C1.90547 5.82505 1.88047 5.85005 1.83047 5.90005H0.780469C0.680469 5.87505 0.605469 5.80005 0.605469 5.70005ZM3.85547 11.825C3.85547 12.05 3.68047 12.225 3.45547 12.225H2.50547C2.28047 12.25 2.10547 12.05 2.10547 11.825V11.1C2.40547 11.275 2.75547 11.375 3.10547 11.375H3.85547V11.825ZM3.08047 10.9C2.18047 10.9 1.48047 10.025 1.48047 9.10005V7.60005C1.48047 7.17505 1.65547 6.77505 1.95547 6.45005H8.50547V8.65005H5.75547C5.63047 8.65005 5.50547 8.75005 5.50547 8.90005C5.50547 9.05005 5.60547 9.15005 5.75547 9.15005H8.53047C8.55547 9.32505 8.55547 9.47505 8.60547 9.62505H5.75547C5.63047 9.62505 5.50547 9.72505 5.50547 9.87505C5.50547 10.025 5.60547 10.125 5.75547 10.125H8.70547C8.80547 10.4 8.90547 10.675 9.05547 10.9H3.08047ZM15.6055 8.80005C15.6055 11.575 12.8055 12.85 12.3055 13.05C10.5055 12.325 9.00547 10.775 9.00547 8.80005V6.00005C9.00547 5.72505 9.15547 5.50005 9.40547 5.37505L11.2055 4.52505C11.9305 4.17505 12.7305 4.17505 13.4555 4.52505L15.2555 5.37505C15.4805 5.50005 15.6555 5.72505 15.6555 6.00005V8.80005H15.6055Z" fill="#545454"/>
<path d="M14.7551 5.95005L13.1051 5.17505C12.6051 4.92505 11.9801 4.92505 11.4801 5.17505L9.85508 5.95005C9.78008 6.00005 9.70508 6.07505 9.70508 6.17505V8.80005C9.70508 10.775 11.4301 11.85 12.1801 12.225C12.2551 12.25 12.3301 12.25 12.4051 12.225C13.1551 11.85 14.8801 10.775 14.8801 8.80005V6.17505C14.8801 6.07505 14.8301 6.00005 14.7551 5.95005ZM14.4051 8.80005C14.4051 10.4 13.0051 11.35 12.3051 11.725C11.4801 11.275 10.2051 10.375 10.2051 8.80005V6.32505L11.7051 5.60005C12.0801 5.42505 12.5301 5.42505 12.9051 5.60005L14.4051 6.32505V8.80005Z" fill="#545454"/>
<path d="M11.3303 8.72503C11.2303 8.65003 11.0803 8.67503 10.9803 8.77503C10.8803 8.87503 10.9303 9.02503 11.0303 9.12503L11.9803 9.85003C12.0803 9.92503 12.2303 9.90003 12.3303 9.80003L13.7303 7.97503C13.8053 7.87503 13.7803 7.72503 13.6803 7.62503C13.5803 7.55003 13.4303 7.57503 13.3303 7.67503L12.0803 9.30003L11.3303 8.72503Z" fill="#545454"/>
</g>
<defs>
<clipPath id="clip0_8038_1649">
<rect width="16" height="16" fill="white" transform="translate(0.105469)"/>
</clipPath>
</defs>
</svg>
