<svg width="16" height="16" viewBox="0 0 16 16" fill="none" xmlns="http://www.w3.org/2000/svg">
<path d="M13.5 6.49018C13.5006 5.6577 13.3122 4.83596 12.949 4.08688C12.5858 3.3378 12.0573 2.68094 11.4034 2.1658C10.7494 1.65067 9.98708 1.2907 9.17379 1.11304C8.36049 0.935377 7.51747 0.944651 6.70828 1.14016C5.89909 1.33568 5.14484 1.71233 4.50238 2.24173C3.85992 2.77112 3.34602 3.43945 2.99941 4.19634C2.65279 4.95323 2.48252 5.77892 2.50142 6.61118C2.52031 7.44344 2.72789 8.26055 3.1085 9.00093C2.9838 9.12648 2.9139 9.2963 2.91408 9.47326C2.91427 9.65022 2.98453 9.81989 3.1095 9.94518L3.585 10.4207C3.40169 10.6532 3.30145 10.9403 3.30025 11.2364V12.6597C3.30075 12.857 3.35179 13.0509 3.44851 13.2229C3.54523 13.3949 3.6844 13.5392 3.85275 13.6422V14.2652C3.85295 14.4629 3.93158 14.6525 4.07139 14.7923C4.21121 14.9321 4.40077 15.0107 4.5985 15.0109H5.06C5.25772 15.0107 5.44729 14.9321 5.5871 14.7923C5.72692 14.6525 5.80555 14.4629 5.80575 14.2652V13.8177H10.1942V14.2652C10.1944 14.4629 10.2731 14.6525 10.4129 14.7923C10.5527 14.9321 10.7423 15.0107 10.94 15.0109H11.4015C11.5992 15.0107 11.7888 14.9321 11.9286 14.7923C12.0684 14.6525 12.1471 14.4629 12.1472 14.2652V13.6422C12.3156 13.5392 12.4548 13.3949 12.5515 13.2229C12.6482 13.0509 12.6993 12.857 12.6997 12.6597V11.2364C12.6986 10.9403 12.5983 10.6532 12.415 10.4207L12.8902 9.94518C13.0152 9.81993 13.0856 9.65027 13.0858 9.47331C13.086 9.29636 13.0162 9.12651 12.8915 9.00093C13.2908 8.22409 13.4993 7.36361 13.5 6.49018ZM11.945 8.99968L11.508 9.43643L10.628 7.79068C10.5635 7.69231 10.4756 7.61147 10.3722 7.55537C10.2688 7.49926 10.1531 7.46965 10.0355 7.46918H5.9645C5.84303 7.47054 5.72388 7.50261 5.61814 7.56241C5.51241 7.62221 5.42352 7.70779 5.35975 7.81118L4.49175 9.43618L4.05525 8.99968C3.9917 8.93622 3.91598 8.88628 3.83263 8.85285C3.74928 8.81943 3.66003 8.80321 3.57025 8.80518C3.2359 8.16553 3.04408 7.46104 3.008 6.74018H3.75925C3.82555 6.74018 3.88914 6.71384 3.93603 6.66695C3.98291 6.62007 4.00925 6.55648 4.00925 6.49018C4.00925 6.42387 3.98291 6.36029 3.93603 6.3134C3.88914 6.26652 3.82555 6.24018 3.75925 6.24018H3.01275C3.06921 5.0896 3.52341 3.99432 4.29775 3.14143L4.8245 3.66793C4.84756 3.69181 4.87515 3.71085 4.90565 3.72395C4.93615 3.73706 4.96895 3.74395 5.00215 3.74424C5.03534 3.74453 5.06826 3.7382 5.09899 3.72563C5.12971 3.71306 5.15762 3.6945 5.1811 3.67103C5.20457 3.64755 5.22313 3.61964 5.2357 3.58892C5.24827 3.55819 5.2546 3.52527 5.25431 3.49208C5.25402 3.45888 5.24713 3.42608 5.23402 3.39558C5.22092 3.36508 5.20188 3.33749 5.178 3.31443L4.65125 2.78768C5.50417 2.01343 6.59945 1.55932 7.75 1.50293V2.24943C7.75 2.31573 7.77634 2.37932 7.82322 2.42621C7.87011 2.47309 7.93369 2.49943 8 2.49943C8.0663 2.49943 8.12989 2.47309 8.17678 2.42621C8.22366 2.37932 8.25 2.31573 8.25 2.24943V1.50293C9.40058 1.55939 10.4959 2.01359 11.3487 2.78793L10.822 3.31468C10.7981 3.33774 10.7791 3.36533 10.766 3.39583C10.7529 3.42633 10.746 3.45913 10.7457 3.49233C10.7454 3.52552 10.7517 3.55844 10.7643 3.58917C10.7769 3.61989 10.7954 3.6478 10.8189 3.67128C10.8424 3.69475 10.8703 3.71331 10.901 3.72588C10.9317 3.73845 10.9647 3.74478 10.9978 3.74449C11.031 3.7442 11.0638 3.73731 11.0943 3.7242C11.1249 3.7111 11.1524 3.69206 11.1755 3.66818L11.7022 3.14143C12.4766 3.99432 12.9308 5.0896 12.9872 6.24018H12.2407C12.1744 6.24018 12.1109 6.26652 12.064 6.3134C12.0171 6.36029 11.9907 6.42387 11.9907 6.49018C11.9907 6.55648 12.0171 6.62007 12.064 6.66695C12.1109 6.71384 12.1744 6.74018 12.2407 6.74018H12.992C12.9559 7.46329 12.7631 8.16993 12.427 8.81118C12.3381 8.80891 12.2496 8.82445 12.1668 8.85686C12.084 8.88927 12.0085 8.93792 11.9447 8.99993L11.945 8.99968ZM12.188 11.1219H10.8705C10.5949 11.1223 10.3307 11.2319 10.1358 11.4268C9.94095 11.6216 9.83133 11.8858 9.831 12.1614V12.3339C9.83113 12.434 9.87098 12.53 9.9418 12.6008C10.0126 12.6716 10.1086 12.7114 10.2087 12.7114H12.1945C12.1819 12.8761 12.1076 13.03 11.9866 13.1424C11.8656 13.2548 11.7067 13.3175 11.5415 13.3179H4.4585C4.29333 13.3175 4.1344 13.2548 4.01338 13.1424C3.89236 13.03 3.81814 12.8761 3.8055 12.7114H5.79125C5.89133 12.7113 5.98727 12.6715 6.05804 12.6007C6.1288 12.5299 6.16862 12.434 6.16875 12.3339V12.1614C6.16842 11.8859 6.05883 11.6217 5.86401 11.4268C5.66919 11.232 5.40505 11.1223 5.1295 11.1219H3.812C3.83933 10.9215 3.93823 10.7377 4.09045 10.6044C4.24267 10.4712 4.43795 10.3975 4.64025 10.3969H11.3597C11.562 10.3975 11.7573 10.4712 11.9095 10.6044C12.0618 10.7377 12.1607 10.9215 12.188 11.1219ZM10.331 12.2114V12.1614C10.3311 12.0184 10.388 11.8812 10.4892 11.7801C10.5903 11.6789 10.7275 11.6221 10.8705 11.6219H12.2V12.2114H10.331ZM5.1295 11.6219C5.27254 11.6221 5.40969 11.6789 5.51084 11.7801C5.61198 11.8812 5.66887 12.0184 5.669 12.1614V12.2114H3.8V11.6219H5.1295ZM4.81225 9.89693L5.7885 8.06743C5.80744 8.03779 5.83343 8.01331 5.86414 7.99617C5.89485 7.97902 5.92933 7.96975 5.9645 7.96918H10.0355C10.0668 7.96907 10.0978 7.97598 10.1261 7.98939C10.1545 8.0028 10.1795 8.02237 10.1992 8.04668L11.1875 9.89668L4.81225 9.89693ZM3.4135 9.47243C3.41348 9.43902 3.42337 9.40636 3.44193 9.37859C3.46049 9.35081 3.48687 9.32916 3.51774 9.31639C3.54861 9.30362 3.58257 9.3003 3.61533 9.30685C3.64809 9.3134 3.67816 9.32952 3.70175 9.35318L4.2455 9.89718L4.2035 9.97593C4.11874 10.0051 4.03716 10.0428 3.96 10.0884L3.46325 9.59168C3.44747 9.57609 3.43495 9.55751 3.42641 9.53704C3.41787 9.51657 3.41348 9.49461 3.4135 9.47243ZM5.30575 14.2652C5.30568 14.3303 5.27976 14.3928 5.23368 14.4388C5.1876 14.4848 5.12513 14.5107 5.06 14.5107H4.5985C4.53337 14.5107 4.4709 14.4848 4.42482 14.4388C4.37874 14.3928 4.35281 14.3303 4.35275 14.2652V13.8072C4.38825 13.8104 4.42225 13.8179 4.4585 13.8179H5.30575V14.2652ZM11.6472 14.2652C11.6472 14.3303 11.6213 14.3928 11.5752 14.4388C11.5291 14.4848 11.4666 14.5107 11.4015 14.5107H10.94C10.8749 14.5107 10.8124 14.4848 10.7663 14.4388C10.7202 14.3928 10.6943 14.3303 10.6942 14.2652V13.8177H11.5415C11.5777 13.8177 11.6117 13.8102 11.6472 13.8072V14.2652ZM12.5367 9.59168L12.04 10.0887C11.9628 10.0431 11.8813 10.0054 11.7965 9.97618L11.7542 9.89693L12.2982 9.35318C12.3304 9.32258 12.3731 9.30551 12.4175 9.30551C12.4619 9.30551 12.5046 9.32258 12.5367 9.35318C12.5683 9.38485 12.586 9.42773 12.586 9.47243C12.586 9.51713 12.5683 9.56001 12.5367 9.59168Z" fill="#858585"/>
<path d="M10.3863 6.24053H8.70377C8.66648 6.13593 8.6064 6.04094 8.52788 5.96242C8.44936 5.8839 8.35436 5.82382 8.24977 5.78653V3.36328C8.24977 3.29698 8.22343 3.23339 8.17654 3.1865C8.12966 3.13962 8.06607 3.11328 7.99977 3.11328C7.93346 3.11328 7.86987 3.13962 7.82299 3.1865C7.7761 3.23339 7.74977 3.29698 7.74977 3.36328V5.78653C7.6304 5.82848 7.52362 5.9 7.43941 5.99443C7.3552 6.08885 7.2963 6.20308 7.26823 6.32645C7.24016 6.44981 7.24383 6.57828 7.2789 6.69984C7.31396 6.82141 7.37928 6.93209 7.46874 7.02156C7.5582 7.11102 7.66889 7.17634 7.79045 7.2114C7.91202 7.24647 8.04049 7.25014 8.16385 7.22206C8.28722 7.19399 8.40145 7.1351 8.49587 7.05089C8.59029 6.96667 8.66182 6.8599 8.70377 6.74053H10.3863C10.4526 6.74053 10.5162 6.71419 10.563 6.66731C10.6099 6.62042 10.6363 6.55684 10.6363 6.49053C10.6363 6.42423 10.6099 6.36064 10.563 6.31375C10.5162 6.26687 10.4526 6.24053 10.3863 6.24053ZM7.99977 6.74053C7.95041 6.74063 7.90212 6.72611 7.861 6.69881C7.81988 6.67151 7.78776 6.63264 7.76869 6.58712C7.74962 6.54159 7.74445 6.49144 7.75384 6.44298C7.76323 6.39452 7.78675 6.34993 7.82145 6.31481C7.85614 6.2797 7.90045 6.25565 7.94879 6.24568C7.99714 6.23571 8.04735 6.24028 8.0931 6.25881C8.13885 6.27733 8.1781 6.30898 8.20589 6.34978C8.23368 6.39057 8.24877 6.43867 8.24927 6.48803L8.24876 6.49053L8.24927 6.49303C8.24861 6.55881 8.22205 6.62169 8.17534 6.66802C8.12864 6.71435 8.06555 6.7404 7.99977 6.74053ZM9.07477 11.281H6.92477C6.80645 11.2812 6.69302 11.3282 6.60936 11.4119C6.52571 11.4955 6.47865 11.609 6.47852 11.7273V12.243C6.47871 12.3613 6.52577 12.4746 6.60936 12.5582C6.69296 12.6418 6.80629 12.6888 6.92452 12.689H9.07502C9.19324 12.6888 9.30657 12.6418 9.39017 12.5582C9.47376 12.4746 9.52082 12.3613 9.52102 12.243V11.7273C9.52088 11.609 9.47386 11.4956 9.39025 11.412C9.30665 11.3283 9.19303 11.2812 9.07477 11.281ZM9.02102 12.189H6.97852V11.781H9.02102V12.189Z" fill="#858585"/>
</svg>
