<svg width="79" height="93" viewBox="0 0 79 93" fill="none" xmlns="http://www.w3.org/2000/svg">
<path d="M65.7172 93.8918H21.1299V11.3797C21.1299 9.86484 22.358 8.63672 23.8728 8.63672H62.9743C64.4891 8.63672 65.7172 9.86484 65.7172 11.3797V93.8918Z" fill="#D7D0D6"/>
<path d="M62.974 8.63672H59.3789C60.8937 8.63672 62.1218 9.86484 62.1218 11.3797V93.8918H65.717V11.3797C65.7168 9.86484 64.4888 8.63672 62.974 8.63672Z" fill="#B5ADB6"/>
<path d="M55.6986 0.703125H31.1487C30.3068 0.703148 29.4851 0.960479 28.7936 1.44063C28.102 1.92079 27.5738 2.60083 27.2796 3.38962L25.3232 8.63569H61.5237L59.5675 3.38962C59.2734 2.6008 58.7452 1.92072 58.0537 1.44055C57.3622 0.960387 56.5405 0.70308 55.6986 0.703125Z" fill="#FFAE36"/>
<path d="M59.5679 3.38963C59.2737 2.60083 58.7455 1.92079 58.0539 1.44063C57.3624 0.960479 56.5407 0.703148 55.6988 0.703125H51.9951C52.837 0.703095 53.6588 0.960405 54.3503 1.44057C55.0418 1.92073 55.57 2.6008 55.8642 3.38963L57.8206 8.63569H61.5242L59.5679 3.38963Z" fill="#FF9900"/>
<path d="M56.9899 28.7838H29.8581C29.5541 28.7838 29.2626 28.663 29.0476 28.4481C28.8327 28.2331 28.7119 27.9416 28.7119 27.6376V15.1501C28.7119 14.8461 28.8327 14.5546 29.0476 14.3396C29.2626 14.1247 29.5541 14.0039 29.8581 14.0039H56.9899C57.2939 14.0039 57.5854 14.1247 57.8004 14.3396C58.0153 14.5546 58.1361 14.8461 58.1361 15.1501V27.6376C58.1361 27.9416 58.0153 28.2331 57.8004 28.4481C57.5854 28.663 57.2939 28.7838 56.9899 28.7838Z" fill="#F9F7F8"/>
<path d="M56.9898 14.0039H53.2861C53.5901 14.0039 53.8817 14.1247 54.0966 14.3396C54.3116 14.5546 54.4323 14.8461 54.4323 15.1501V27.6376C54.4323 27.9416 54.3116 28.2331 54.0966 28.4481C53.8817 28.663 53.5901 28.7838 53.2861 28.7838H56.9898C57.2938 28.7838 57.5853 28.663 57.8003 28.4481C58.0152 28.2331 58.136 27.9416 58.136 27.6376V15.1501C58.136 14.8461 58.0152 14.5546 57.8003 14.3396C57.5853 14.1247 57.2938 14.0039 56.9898 14.0039Z" fill="#EFEDEF"/>
<path d="M53.7794 76.4087C53.5561 76.4086 53.3361 76.3551 53.1376 76.2527L43.9242 71.5161C43.76 71.4317 43.614 71.3157 43.4945 71.1749C43.3751 71.034 43.2845 70.871 43.2281 70.6952C43.1717 70.5193 43.1504 70.3341 43.1656 70.15C43.1808 69.966 43.2321 69.7867 43.3166 69.6225C43.4009 69.4582 43.5168 69.3121 43.6577 69.1927C43.7985 69.0732 43.9615 68.9826 44.1374 68.9262C44.3133 68.8698 44.4985 68.8485 44.6826 68.8638C44.8666 68.879 45.0459 68.9303 45.2101 69.0148L54.4235 73.7514C54.5878 73.8358 54.7338 73.9518 54.8532 74.0926C54.9727 74.2335 55.0632 74.3965 55.1196 74.5723C55.1761 74.7482 55.1973 74.9334 55.1821 75.1175C55.167 75.3015 55.1157 75.4808 55.0312 75.645C54.913 75.8751 54.7336 76.0682 54.5128 76.203C54.2919 76.3377 54.0381 76.4089 53.7794 76.4087ZM73.2592 87.8312C72.1203 87.8309 71.0074 87.4914 70.0621 86.8562L58.2226 78.8291C58.0698 78.7255 57.9388 78.5928 57.8373 78.4385C57.7357 78.2843 57.6655 78.1115 57.6307 77.9302C57.5959 77.7488 57.5972 77.5623 57.6344 77.3815C57.6717 77.2006 57.7442 77.0288 57.8478 76.8759C57.9514 76.7231 58.0842 76.5921 58.2384 76.4906C58.3927 76.389 58.5654 76.3188 58.7468 76.284C58.9281 76.2492 59.1146 76.2505 59.2955 76.2877C59.4764 76.325 59.6481 76.3975 59.801 76.5011L71.6347 84.5243C72.542 85.1333 73.667 85.1901 74.6373 84.6726C75.608 84.1549 76.1874 83.1894 76.1874 82.0896C76.1874 81.5936 76.0602 81.1026 75.8199 80.6694L73.6591 76.7745C72.3676 74.4407 71.9199 71.7331 72.3916 69.1078L75.2874 53.0835C75.3641 52.6618 75.3471 52.2285 75.2375 51.8141C75.1279 51.3998 74.9284 51.0147 74.6532 50.6861C74.3788 50.3569 74.0353 50.0921 73.647 49.9105C73.2587 49.729 72.8352 49.6351 72.4066 49.6356H68.0394C67.2626 49.6356 66.6331 49.0061 66.6331 48.2293C66.6331 47.4525 67.2626 46.8231 68.0394 46.8231H72.4066C74.1125 46.8231 75.7179 47.5738 76.8116 48.8828C77.9053 50.1917 78.3584 51.9051 78.0552 53.5836L75.1595 69.6079C74.8024 71.5946 75.1411 73.6436 76.1186 75.4097L78.2793 79.3046C78.7514 80.1569 78.9993 81.1151 78.9999 82.0894C79.001 83.13 78.7186 84.1512 78.1832 85.0435C77.6478 85.9358 76.8796 86.6654 75.9609 87.1541C75.1296 87.5984 74.2017 87.831 73.2592 87.8312ZM48.4017 38.3672H38.4453C37.6685 38.3672 37.0391 37.7378 37.0391 36.9609C37.0391 36.1841 37.6685 35.5547 38.4453 35.5547H48.4017C49.1786 35.5547 49.808 36.1841 49.808 36.9609C49.808 37.7378 49.1784 38.3672 48.4017 38.3672Z" fill="#554E56"/>
<path d="M61.5507 76.536L59.5493 80.4287C59.5078 80.5095 59.4508 80.5812 59.3815 80.6399C59.3123 80.6986 59.2322 80.7431 59.1457 80.7709C59.0593 80.7986 58.9682 80.809 58.8777 80.8016C58.7872 80.7941 58.6991 80.7689 58.6184 80.7274L51.5614 77.0993C51.4807 77.0578 51.4089 77.0008 51.3502 76.9315C51.2915 76.8623 51.247 76.7821 51.2193 76.6957C51.1916 76.6092 51.1811 76.5182 51.1886 76.4277C51.196 76.3372 51.2212 76.2491 51.2628 76.1683L53.2641 72.2757C53.3056 72.1949 53.3626 72.1231 53.4319 72.0644C53.5012 72.0057 53.5813 71.9612 53.6677 71.9335C53.7542 71.9058 53.8452 71.8953 53.9357 71.9028C54.0262 71.9102 54.1143 71.9355 54.1951 71.977L61.252 75.6051C61.3327 75.6466 61.4045 75.7036 61.4632 75.7729C61.5219 75.8421 61.5664 75.9223 61.5942 76.0087C61.6219 76.0951 61.6323 76.1862 61.6249 76.2767C61.6174 76.3672 61.5922 76.4553 61.5507 76.536ZM68.587 56.1973H65.7177V40.2617H68.587C69.0578 40.2617 69.5093 40.4487 69.8422 40.7816C70.175 41.1145 70.3621 41.566 70.3621 42.0368V54.4221C70.3621 55.4025 69.5673 56.1973 68.587 56.1973ZM-3.3185 56.1973H-11.9142C-13.0016 56.1973 -13.8828 55.3159 -13.8828 54.2288V51.2183C-13.8828 50.131 -13.0014 49.2497 -11.9142 49.2497H-3.3185V56.1973ZM34.2597 56.1973H42.8554C43.9427 56.1973 44.824 55.3159 44.824 54.2288V51.2183C44.824 50.131 43.9426 49.2497 42.8554 49.2497H34.2597V56.1973Z" fill="#685E68"/>
<path d="M39.72 63.8811L16.338 70.4098L-8.7793 63.8811L-2.80798 40.7556C-1.8748 37.1419 1.3847 34.6172 5.11689 34.6172H25.824C29.5562 34.6172 32.8157 37.1419 33.7489 40.7556L39.72 63.8811Z" fill="#1A715E"/>
<path d="M-8.7793 63.8827L16.338 70.4115L39.72 63.8827L38.9788 61.0117H-8.03792L-8.7793 63.8827Z" fill="#1E866F"/>
<path d="M-1.79379 59.0287C-1.87875 59.0287 -1.96256 59.0092 -2.03883 58.9717C-2.1151 58.9343 -2.18181 58.8799 -2.23384 58.8128C-2.28588 58.7456 -2.32186 58.6674 -2.33906 58.5842C-2.35625 58.501 -2.35419 58.415 -2.33304 58.3327L1.8919 41.9707C2.07645 41.2557 2.49339 40.6223 3.07717 40.1701C3.66095 39.7179 4.37847 39.4726 5.1169 39.4727H25.824C26.5625 39.4726 27.28 39.7179 27.8638 40.1701C28.4475 40.6223 28.8645 41.2557 29.049 41.9707L33.2742 58.3329C33.2955 58.4152 33.2977 58.5013 33.2806 58.5846C33.2635 58.6679 33.2275 58.7461 33.1754 58.8133C33.1234 58.8805 33.0566 58.9349 32.9802 58.9723C32.9038 59.0097 32.8199 59.029 32.7349 59.0289L-1.79379 59.0287Z" fill="#DFF6FD"/>
<path d="M29.0491 41.9707C28.8646 41.2557 28.4476 40.6223 27.8639 40.1701C27.2801 39.7179 26.5626 39.4726 25.8241 39.4727H21.5938C22.3322 39.4726 23.0497 39.7179 23.6335 40.1701C24.2173 40.6223 24.6342 41.2557 24.8187 41.9707L29.2235 59.0289H32.735C32.82 59.0288 32.9038 59.0093 32.98 58.9719C33.0563 58.9345 33.123 58.8801 33.1751 58.813C33.2271 58.7458 33.2631 58.6676 33.2803 58.5844C33.2975 58.5012 33.2954 58.4152 33.2742 58.3329L29.0491 41.9707Z" fill="#C8EFFE"/>
<path d="M-4.34586 93.8889C-6.79442 93.8889 -8.7793 91.904 -8.7793 89.4555V80.3711H0.0875797V89.4555C0.0875797 91.904 -1.8973 93.8889 -4.34586 93.8889Z" fill="#685E68"/>
<path d="M-8.7793 81.9648H0.0875797V84.9288H-8.7793V81.9648Z" fill="#554E56"/>
<path d="M35.286 93.8921C32.8374 93.8921 30.8525 91.9073 30.8525 89.4587V79.3125H39.7194V89.4587C39.7194 91.9073 37.7345 93.8921 35.286 93.8921Z" fill="#685E68"/>
<path d="M30.8525 81.9648H39.7194V84.9288H30.8525V81.9648Z" fill="#554E56"/>
<path d="M43.0866 81.9674H-12.1464C-14.0504 81.9674 -15.5938 80.4239 -15.5938 78.52V67.3302C-15.5938 65.4261 -14.0503 63.8828 -12.1464 63.8828H43.0866C44.9907 63.8828 46.534 65.4263 46.534 67.3302V78.52C46.534 80.4239 44.9905 81.9674 43.0866 81.9674Z" fill="#1A715E"/>
<path d="M43.0865 63.8828H39.1953C41.0992 63.8828 42.6427 65.4263 42.6427 67.3302V78.52C42.6427 80.4241 41.0992 81.9674 39.1953 81.9674H43.0865C44.9904 81.9674 46.5339 80.4239 46.5339 78.52V67.3302C46.5339 65.4263 44.9904 63.8828 43.0865 63.8828Z" fill="#1E866F"/>
<path d="M36.1262 76.1683C37.9179 76.1683 39.3705 74.7158 39.3705 72.924C39.3705 71.1322 37.9179 69.6797 36.1262 69.6797C34.3344 69.6797 32.8818 71.1322 32.8818 72.924C32.8818 74.7158 34.3344 76.1683 36.1262 76.1683Z" fill="#FF9900"/>
<path d="M24.4106 71.8164H6.5293C5.75248 71.8164 5.12305 71.187 5.12305 70.4102C5.12305 69.6333 5.75248 69.0039 6.5293 69.0039H24.4106C25.1874 69.0039 25.8169 69.6333 25.8169 70.4102C25.8169 71.187 25.1874 71.8164 24.4106 71.8164ZM24.4106 76.8435H6.5293C5.75248 76.8435 5.12305 76.214 5.12305 75.4372C5.12305 74.6604 5.75248 74.031 6.5293 74.031H24.4106C25.1874 74.031 25.8169 74.6604 25.8169 75.4372C25.8169 76.214 25.1874 76.8435 24.4106 76.8435Z" fill="#F9F7F8"/>
<path d="M77.5938 95.2971H-15.5938C-16.3706 95.2971 -17 94.6676 -17 93.8908C-17 93.114 -16.3706 92.4846 -15.5938 92.4846H77.5938C78.3706 92.4846 79 93.114 79 93.8908C79 94.6676 78.3706 95.2971 77.5938 95.2971ZM51.9917 23.5039H34.8554C34.0786 23.5039 33.4491 22.8745 33.4491 22.0977C33.4491 21.3208 34.0786 20.6914 34.8554 20.6914H51.9917C52.7686 20.6914 53.398 21.3208 53.398 22.0977C53.398 22.8745 52.7684 23.5039 51.9917 23.5039Z" fill="#554E56"/>
</svg>
