<svg width="22" height="24" viewBox="0 0 22 24" fill="none" xmlns="http://www.w3.org/2000/svg">
<path d="M5.83106 14.9395H3.98088C3.59957 14.9395 3.2876 15.2739 3.2876 15.6827V16.4818C3.2876 16.8906 3.59957 17.2251 3.98088 17.2251H5.82673C6.20803 17.2251 6.52 16.8906 6.52 16.4818V15.6827C6.52434 15.2739 6.21236 14.9395 5.83106 14.9395ZM5.83106 16.4818H3.98088V15.6827H5.82673V16.4818H5.83106ZM6.06504 18.0055H3.74689C3.55624 18.0055 3.40026 18.1728 3.40026 18.3772C3.40026 18.5816 3.55624 18.7488 3.74689 18.7488H6.06504C6.25569 18.7488 6.41168 18.5816 6.41168 18.3772C6.41168 18.1728 6.25569 18.0055 6.06504 18.0055ZM18.0197 14.9395H16.1739C15.7926 14.9395 15.4806 15.2739 15.4806 15.6827V16.4818C15.4806 16.8906 15.7926 17.2251 16.1739 17.2251H18.0197C18.401 17.2251 18.713 16.8906 18.713 16.4818V15.6827C18.713 15.2739 18.401 14.9395 18.0197 14.9395ZM18.0197 16.4818H16.1739V15.6827H18.0197V16.4818ZM18.2537 18.0055H15.9356C15.7449 18.0055 15.5889 18.1728 15.5889 18.3772C15.5889 18.5816 15.7449 18.7488 15.9356 18.7488H18.2537C18.4444 18.7488 18.6004 18.5816 18.6004 18.3772C18.6004 18.1728 18.4444 18.0055 18.2537 18.0055ZM14.4494 16.57C14.341 16.0637 13.9207 15.706 13.4354 15.706H8.56517C8.07988 15.706 7.65958 16.0637 7.55125 16.57L7.28261 17.7965C7.15695 18.4004 7.50792 18.9997 8.07121 19.139C8.14487 19.1576 8.21853 19.1669 8.29219 19.1669H13.6998C14.276 19.1623 14.744 18.6559 14.7397 18.038C14.7397 17.9591 14.731 17.8754 14.7137 17.8011L14.4494 16.57ZM13.9771 18.2842C13.9121 18.3725 13.8124 18.4236 13.7041 18.4236H8.29653C8.10588 18.4236 7.94989 18.2517 7.94989 18.0473C7.94989 18.0195 7.95422 17.9916 7.95855 17.9684L8.2272 16.7419C8.26186 16.5747 8.40485 16.4539 8.56517 16.4539C9.77841 16.4539 12.2265 16.4539 13.4398 16.4539C13.6001 16.4539 13.7431 16.5747 13.7778 16.7419L14.0464 17.9684C14.0681 18.0798 14.0421 18.196 13.9771 18.2842Z" fill="#20886F"/>
<path d="M20.0124 10.4522H18.8295C18.5046 10.4754 18.2229 10.703 18.1103 11.0328L17.274 9.42084C16.6024 8.12009 15.3241 7.31641 13.9419 7.31641H8.05773C6.67118 7.31641 5.39728 8.12473 4.72567 9.42084L3.8894 11.0328C3.78108 10.703 3.4951 10.4754 3.17013 10.4522H1.98722C1.60592 10.4522 1.29395 10.7866 1.29395 11.1954V11.9945C1.29395 12.4033 1.60592 12.7378 1.98722 12.7378H2.53318C2.15188 13.0397 1.91789 13.5136 1.90056 14.0246V18.7398C1.90056 19.2787 2.16921 19.7711 2.60684 20.0359C2.59817 20.0638 2.59384 20.0917 2.58951 20.1195V21.3924C2.58951 21.9592 3.01847 22.4144 3.5471 22.4144H5.35828C5.88691 22.4144 6.31587 21.9592 6.31587 21.3924V20.4912C7.79775 20.598 9.46595 20.6817 10.9955 20.6817C12.525 20.6817 14.1932 20.598 15.6751 20.4912V21.3924C15.6751 21.9592 16.1041 22.4144 16.6327 22.4144H18.4439C18.9725 22.4144 19.4015 21.9592 19.4015 21.3924V20.1149C19.4015 20.087 19.3928 20.0592 19.3841 20.0313C19.8218 19.7711 20.0948 19.2741 20.0904 18.7352V14.0246C20.0731 13.5136 19.8391 13.0397 19.4578 12.7378H20.0124C20.3937 12.7378 20.7057 12.4033 20.7057 11.9945V11.1954C20.7057 10.7866 20.3937 10.4522 20.0124 10.4522ZM5.32795 9.78319C5.87824 8.71936 6.92249 8.05969 8.05773 8.05969H13.9419C15.0772 8.05969 16.1214 8.71936 16.6717 9.78319L17.612 11.6042C15.4195 11.8923 13.2096 12.0223 10.9998 11.9991C8.79001 12.027 6.58018 11.8923 4.3877 11.6042L5.32795 9.78319ZM1.98722 11.9945V11.1954H3.17013L3.4821 11.7483L3.24812 11.9945H1.98722ZM5.62693 21.3924C5.62693 21.5457 5.50994 21.6712 5.36695 21.6712H5.36262H3.55143C3.40411 21.6712 3.28712 21.5457 3.28712 21.3924V20.231C3.91107 20.2914 4.72133 20.3704 5.63126 20.4401L5.62693 21.3924ZM18.4482 21.6712H16.637C16.4941 21.6758 16.3727 21.5504 16.3727 21.3971V21.3924V20.4401C17.2827 20.3704 18.0886 20.2914 18.7169 20.231V21.3924C18.7125 21.5504 18.5955 21.6758 18.4482 21.6712ZM19.4058 18.7352C19.4058 19.1161 19.1372 19.4413 18.7819 19.4738C17.0747 19.6457 13.7946 19.9384 10.9998 19.9384C8.20072 19.9384 4.92499 19.6457 3.21779 19.4738C2.86249 19.4366 2.58951 19.1161 2.59384 18.7352V14.0246C2.59384 13.8248 2.67183 13.6297 2.80182 13.4903C3.04014 13.2348 3.72908 12.5241 3.95873 12.2871C6.28988 12.6309 8.64702 12.7796 10.9998 12.7424C13.3526 12.7842 15.7098 12.6309 18.0409 12.2871C18.2749 12.5241 18.9552 13.2441 19.1978 13.4903C19.3322 13.6297 19.4058 13.8248 19.4058 14.0246V18.7352ZM20.0124 11.9898H18.7559L18.5219 11.7436L18.8295 11.1908H20.0124V11.9898Z" fill="#20886F"/>
<g clip-path="url(#clip0_1448_195)">
<path d="M8.14065 13.1869C8.06265 13.4802 8.23738 13.7797 8.53067 13.8577C8.62427 13.8827 8.721 13.8827 8.8146 13.8577L11.3388 13.1838C11.4948 13.1401 11.6602 13.1557 11.8037 13.2274C12.7896 13.736 13.8817 14.0012 14.9924 13.9981C15.3013 13.9981 15.6134 13.9763 15.9191 13.9357C19.7538 13.4302 22.4464 9.91074 21.9378 6.07923C21.4293 2.24771 17.9098 -0.444953 14.0783 0.0636271C10.2467 0.572207 7.55407 4.08859 8.06265 7.92322C8.16873 8.71573 8.40898 9.4864 8.77404 10.1978C8.8458 10.3413 8.8614 10.5098 8.81772 10.6627L8.14065 13.1869ZM9.2171 9.9669C7.57903 6.77189 8.83956 2.85614 12.0346 1.21807C15.2296 -0.419992 19.1453 0.840538 20.7834 4.03555C22.4215 7.23055 21.1609 11.1463 17.9659 12.7844C16.1032 13.7391 13.8942 13.7391 12.0314 12.7844C11.8723 12.7033 11.6976 12.6627 11.5197 12.6627C11.4137 12.6627 11.3107 12.6752 11.2077 12.7033L8.68668 13.3772C8.67107 13.3834 8.65235 13.3772 8.63987 13.3647C8.62739 13.3522 8.62115 13.3335 8.62739 13.3179L9.30134 10.7937C9.3731 10.516 9.34502 10.2228 9.2171 9.9669Z" fill="#1E866F"/>
<path d="M9.2171 9.9669C7.57903 6.77189 8.83956 2.85614 12.0346 1.21807C15.2296 -0.419992 19.1453 0.840538 20.7834 4.03555C22.4215 7.23055 21.1609 11.1463 17.9659 12.7844C16.1032 13.7391 13.8942 13.7391 12.0314 12.7844C11.8723 12.7033 11.6976 12.6627 11.5197 12.6627C11.4137 12.6627 11.3107 12.6752 11.2077 12.7033L8.68668 13.3772C8.67107 13.3834 8.65235 13.3772 8.63987 13.3647C8.62739 13.3522 8.62115 13.3335 8.62739 13.3179L9.30134 10.7937C9.3731 10.516 9.34502 10.2228 9.2171 9.9669Z" fill="white"/>
<path d="M11.2758 8.16398C11.9123 8.16398 12.4272 7.64916 12.4272 7.01265C12.4272 6.37615 11.9123 5.86133 11.2758 5.86133C10.6393 5.86133 10.1245 6.37615 10.1245 7.01265C10.1245 7.64916 10.6425 8.16398 11.2758 8.16398ZM11.2758 6.36055C11.6378 6.36055 11.9279 6.65384 11.9279 7.01265C11.9279 7.37459 11.6347 7.66476 11.2758 7.66476C10.917 7.66476 10.6237 7.37147 10.6237 7.01265C10.6237 6.65072 10.917 6.36055 11.2758 6.36055ZM14.9888 8.16398C15.6253 8.16398 16.1401 7.64916 16.1401 7.01265C16.1401 6.37615 15.6253 5.86133 14.9888 5.86133C14.3523 5.86133 13.8375 6.37615 13.8375 7.01265C13.8375 7.64916 14.3523 8.16398 14.9888 8.16398ZM14.9888 6.36055C15.3507 6.36055 15.6409 6.65384 15.6409 7.01265C15.6409 7.37459 15.3476 7.66476 14.9888 7.66476C14.63 7.66476 14.3367 7.37147 14.3367 7.01265C14.3367 6.65072 14.63 6.36055 14.9888 6.36055ZM18.7017 8.16398C19.3382 8.16398 19.8531 7.64916 19.8531 7.01265C19.8531 6.37615 19.3382 5.86133 18.7017 5.86133C18.0652 5.86133 17.5504 6.37615 17.5504 7.01265C17.5504 7.64916 18.0652 8.16398 18.7017 8.16398ZM18.7017 6.36055C19.0637 6.36055 19.3538 6.65384 19.3538 7.01265C19.3538 7.37147 19.0605 7.66476 18.7017 7.66476C18.3429 7.66476 18.0496 7.37147 18.0496 7.01265C18.0496 6.65072 18.3398 6.36055 18.7017 6.36055Z" fill="#1E866F"/>
</g>
<defs>
<clipPath id="clip0_1448_195">
<rect width="14" height="14" fill="white" transform="translate(8)"/>
</clipPath>
</defs>
</svg>
