<svg width="20" height="16" viewBox="0 0 20 16" fill="none" xmlns="http://www.w3.org/2000/svg">
<path d="M4.83106 7.88281H2.98088C2.59957 7.88281 2.2876 8.21512 2.2876 8.62127V9.41512C2.2876 9.82127 2.59957 10.1536 2.98088 10.1536H4.82673C5.20803 10.1536 5.52 9.82127 5.52 9.41512V8.62127C5.52434 8.21512 5.21236 7.88281 4.83106 7.88281ZM4.83106 9.41512H2.98088V8.62127H4.82673V9.41512H4.83106ZM5.06504 10.929H2.74689C2.55624 10.929 2.40026 11.0951 2.40026 11.2982C2.40026 11.5013 2.55624 11.6674 2.74689 11.6674H5.06504C5.25569 11.6674 5.41168 11.5013 5.41168 11.2982C5.41168 11.0951 5.25569 10.929 5.06504 10.929ZM17.0197 7.88281H15.1739C14.7926 7.88281 14.4806 8.21512 14.4806 8.62127V9.41512C14.4806 9.82127 14.7926 10.1536 15.1739 10.1536H17.0197C17.401 10.1536 17.713 9.82127 17.713 9.41512V8.62127C17.713 8.21512 17.401 7.88281 17.0197 7.88281ZM17.0197 9.41512H15.1739V8.62127H17.0197V9.41512ZM17.2537 10.929H14.9356C14.7449 10.929 14.5889 11.0951 14.5889 11.2982C14.5889 11.5013 14.7449 11.6674 14.9356 11.6674H17.2537C17.4444 11.6674 17.6004 11.5013 17.6004 11.2982C17.6004 11.0951 17.4444 10.929 17.2537 10.929ZM13.4494 9.50281C13.341 8.99974 12.9207 8.64435 12.4354 8.64435H7.56517C7.07988 8.64435 6.65958 8.99974 6.55125 9.50281L6.28261 10.7213C6.15695 11.3213 6.50792 11.9167 7.07121 12.0551C7.14487 12.0736 7.21853 12.0828 7.29219 12.0828H12.6998C13.276 12.0782 13.744 11.5751 13.7397 10.9613C13.7397 10.8828 13.731 10.7997 13.7137 10.7259L13.4494 9.50281ZM12.9771 11.2059C12.9121 11.2936 12.8124 11.3444 12.7041 11.3444H7.29653C7.10588 11.3444 6.94989 11.1736 6.94989 10.9705C6.94989 10.9428 6.95422 10.9151 6.95855 10.892L7.2272 9.67358C7.26186 9.50743 7.40485 9.38743 7.56517 9.38743C8.77841 9.38743 11.2265 9.38743 12.4398 9.38743C12.6001 9.38743 12.7431 9.50743 12.7778 9.67358L13.0464 10.892C13.0681 11.0028 13.0421 11.1182 12.9771 11.2059Z" fill="#20886F"/>
<path d="M19.0124 3.42398H17.8295C17.5046 3.44706 17.2229 3.67321 17.1103 4.0009L16.274 2.39936C15.6024 1.10706 14.3241 0.308594 12.9419 0.308594H7.05773C5.67118 0.308594 4.39728 1.11167 3.72567 2.39936L2.8894 4.0009C2.78108 3.67321 2.4951 3.44706 2.17013 3.42398H0.987223C0.60592 3.42398 0.293945 3.75629 0.293945 4.16244V4.95629C0.293945 5.36244 0.60592 5.69475 0.987223 5.69475H1.53318C1.15188 5.99475 0.917895 6.46552 0.900563 6.97321V11.6578C0.900563 12.1932 1.16921 12.6824 1.60684 12.9455C1.59817 12.9732 1.59384 13.0009 1.58951 13.0286V14.2932C1.58951 14.8563 2.01847 15.3086 2.5471 15.3086H4.35828C4.88691 15.3086 5.31587 14.8563 5.31587 14.2932V13.3978C6.79775 13.504 8.46595 13.5871 9.99549 13.5871C11.525 13.5871 13.1932 13.504 14.6751 13.3978V14.2932C14.6751 14.8563 15.1041 15.3086 15.6327 15.3086H17.4439C17.9725 15.3086 18.4015 14.8563 18.4015 14.2932V13.024C18.4015 12.9963 18.3928 12.9686 18.3841 12.9409C18.8218 12.6824 19.0948 12.1886 19.0904 11.6532V6.97321C19.0731 6.46552 18.8391 5.99475 18.4578 5.69475H19.0124C19.3937 5.69475 19.7057 5.36244 19.7057 4.95629V4.16244C19.7057 3.75629 19.3937 3.42398 19.0124 3.42398ZM4.32795 2.75936C4.87824 1.70244 5.92249 1.04706 7.05773 1.04706H12.9419C14.0772 1.04706 15.1214 1.70244 15.6717 2.75936L16.612 4.56859C14.4195 4.85475 12.2096 4.98398 9.99983 4.9609C7.79001 4.98859 5.58018 4.85475 3.3877 4.56859L4.32795 2.75936ZM0.987223 4.95629V4.16244H2.17013L2.4821 4.71167L2.24812 4.95629H0.987223ZM4.62693 14.2932C4.62693 14.4455 4.50994 14.5701 4.36695 14.5701H4.36262H2.55143C2.40411 14.5701 2.28712 14.4455 2.28712 14.2932V13.1394C2.91107 13.1994 3.72133 13.2778 4.63126 13.3471L4.62693 14.2932ZM17.4482 14.5701H15.637C15.4941 14.5747 15.3727 14.4501 15.3727 14.2978V14.2932V13.3471C16.2827 13.2778 17.0886 13.1994 17.7169 13.1394V14.2932C17.7125 14.4501 17.5955 14.5747 17.4482 14.5701ZM18.4058 11.6532C18.4058 12.0317 18.1372 12.3547 17.7819 12.3871C16.0747 12.5578 12.7946 12.8486 9.99983 12.8486C7.20072 12.8486 3.92499 12.5578 2.21779 12.3871C1.86249 12.3501 1.58951 12.0317 1.59384 11.6532V6.97321C1.59384 6.77475 1.67183 6.5809 1.80182 6.44244C2.04014 6.18859 2.72908 5.48244 2.95873 5.24706C5.28988 5.58859 7.64702 5.73629 9.99983 5.69936C12.3526 5.7409 14.7098 5.58859 17.0409 5.24706C17.2749 5.48244 17.9552 6.19782 18.1978 6.44244C18.3322 6.5809 18.4058 6.77475 18.4058 6.97321V11.6532ZM19.0124 4.95167H17.7559L17.5219 4.70706L17.8295 4.15782H19.0124V4.95167Z" fill="#20886F"/>
</svg>
