<svg width="17" height="16" viewBox="0 0 17 16" fill="none" xmlns="http://www.w3.org/2000/svg">
<g clip-path="url(#clip0_8045_970)">
<path d="M16.1055 9.27498C16.1055 9.02498 15.9555 8.82498 15.7555 8.72498C15.4055 8.57498 15.0805 8.37498 14.7805 8.14998C14.0305 7.57498 13.2055 7.14998 12.3055 6.84998L12.6055 6.74998C12.7055 6.72498 12.7805 6.62498 12.7805 6.52498V5.67498C12.7805 5.57498 12.7055 5.47498 12.6055 5.44998L11.9555 5.24998C11.9055 5.12498 11.8805 5.02498 11.8055 4.89998L12.1055 4.32498C12.1555 4.22498 12.1305 4.12498 12.0555 4.04998L11.4555 3.44998C11.3805 3.37498 11.2555 3.34998 11.1805 3.39998L10.6055 3.67498C10.4805 3.62498 10.3805 3.57498 10.2555 3.52498L10.0555 2.89998C10.0305 2.79998 9.93047 2.72498 9.83047 2.72498H8.98047C8.88047 2.72498 8.78047 2.79998 8.75547 2.89998L8.55547 3.52498C8.43047 3.57498 8.33047 3.59998 8.20547 3.67498L7.60547 3.37498C7.50547 3.32498 7.40547 3.34998 7.33047 3.42498L6.73047 4.02498C6.65547 4.09998 6.63047 4.22498 6.68047 4.29998L6.98047 4.87498C6.93047 4.99998 6.88047 5.12498 6.85547 5.24998L6.23047 5.44998C6.13047 5.47498 6.05547 5.57498 6.05547 5.67498V6.52498C6.05547 6.62498 6.13047 6.72498 6.23047 6.74998L6.73047 6.89998C6.38047 7.07498 6.05547 7.27498 5.75547 7.44998C5.35547 7.69998 4.93047 7.97498 4.40547 8.17498C2.08047 8.29998 0.805469 8.77498 0.255469 9.67498C0.155469 9.84998 0.105469 10.025 0.105469 10.225V10.975C0.105469 11.4 0.405469 11.75 0.830469 11.825L1.88047 11.975C1.98047 12.7 2.60547 13.275 3.35547 13.275C4.10547 13.275 4.70547 12.725 4.83047 12.025L11.8305 12C11.9555 12.7 12.5555 13.25 13.3055 13.25C14.0555 13.25 14.6555 12.7 14.7805 12H15.2555C15.6555 12 16.1055 11.675 16.1055 10.975V9.27498ZM8.45547 6.44998C8.40547 6.34998 8.38047 6.22498 8.38047 6.09998C8.38047 5.59998 8.78047 5.19998 9.25547 5.19998C9.73047 5.19998 10.1305 5.59998 10.1305 6.09998C10.1305 6.22498 10.1055 6.32498 10.0555 6.42498C9.70547 6.39998 9.58047 6.42498 9.15547 6.42498C8.90547 6.42498 8.68047 6.42498 8.45547 6.44998ZM9.43047 6.89998H9.65547C10.8805 6.89998 12.0805 7.19998 13.1555 7.72498L12.6805 8.14998C12.2555 8.52498 11.6805 8.74998 11.1055 8.74998H9.43047V6.89998ZM7.10547 6.52498L6.53047 6.34998V5.84998L7.10547 5.67498C7.18047 5.64998 7.25547 5.59998 7.25547 5.49998C7.30547 5.32498 7.38047 5.17498 7.45547 5.02498C7.50547 4.94998 7.50547 4.87498 7.45547 4.79998L7.20547 4.24998L7.55547 3.89998L8.10547 4.17498C8.18047 4.22498 8.25547 4.19998 8.33047 4.17498C8.48047 4.07498 8.65547 4.02498 8.80547 3.97498C8.88047 3.94998 8.95547 3.89998 8.98047 3.82498L9.15547 3.24998H9.65547L9.83047 3.82498C9.85547 3.89998 9.93047 3.97498 10.0055 3.97498C10.1805 4.02498 10.3305 4.07498 10.4805 4.17498C10.5555 4.22498 10.6305 4.22498 10.7055 4.17498L11.2555 3.89998L11.6055 4.24998L11.3305 4.77498C11.2805 4.84998 11.3055 4.92498 11.3305 4.99998C11.4305 5.14998 11.4805 5.32498 11.5305 5.47498C11.5555 5.54998 11.6055 5.62498 11.6805 5.64998L12.2555 5.82498V6.32498L11.6805 6.49998C11.6305 6.52498 11.5805 6.54998 11.5555 6.59998C11.2305 6.52498 10.9055 6.47498 10.5805 6.42498C10.6055 6.29998 10.6305 6.17498 10.6305 6.04998C10.6305 5.29998 10.0055 4.67498 9.25547 4.67498C8.50547 4.67498 7.88047 5.29998 7.88047 6.04998C7.88047 6.19998 7.90547 6.32498 7.95547 6.47498C7.70547 6.52498 7.48047 6.57498 7.28047 6.64998C7.25547 6.62498 7.18047 6.54998 7.10547 6.52498ZM6.00547 7.87498C6.75547 7.39998 7.45547 6.94998 8.93047 6.89998V8.74998H5.88047C5.53047 8.74998 5.18047 8.67498 4.85547 8.52498C5.30547 8.32498 5.65547 8.09998 6.00547 7.87498ZM3.38047 12.775C2.83047 12.775 2.38047 12.325 2.38047 11.775C2.38047 11.225 2.83047 10.775 3.38047 10.775C3.93047 10.775 4.38047 11.225 4.38047 11.775C4.38047 12.325 3.93047 12.775 3.38047 12.775ZM13.3055 12.725C12.7555 12.725 12.3055 12.275 12.3055 11.725C12.3055 11.175 12.7555 10.725 13.3055 10.725C13.8555 10.725 14.3055 11.175 14.3055 11.725C14.3055 12.275 13.8555 12.725 13.3055 12.725ZM15.2555 11.475H14.7805C14.6555 10.775 14.0555 10.25 13.3055 10.25C12.5555 10.25 11.9555 10.8 11.8305 11.5L4.83047 11.525C4.70547 10.825 4.10547 10.3 3.35547 10.3C2.63047 10.3 2.03047 10.825 1.90547 11.5L0.905469 11.35C0.730469 11.3 0.605469 11.15 0.605469 10.95V10.2C0.605469 10.1 0.630469 9.99998 0.680469 9.89998C0.955469 9.44998 1.60547 8.84998 4.20547 8.64998V8.67498C4.70547 9.02498 5.28047 9.22498 5.88047 9.22498H11.1305C11.8305 9.22498 12.5055 8.97498 13.0305 8.49998L13.6055 7.99998L13.5555 7.94998C13.8555 8.12498 14.1555 8.32498 14.4305 8.52498C14.7555 8.77498 15.1305 8.99998 15.5055 9.17498C15.5555 9.19998 15.5805 9.22498 15.5805 9.27498V10.925C15.6055 11.275 15.4805 11.475 15.2555 11.475Z" fill="#545454"/>
<path d="M8.53008 9.79999H7.58008C7.45508 9.79999 7.33008 9.89999 7.33008 10.05C7.33008 10.2 7.43008 10.3 7.58008 10.3H8.53008C8.65508 10.3 8.78008 10.2 8.78008 10.05C8.78008 9.89999 8.65508 9.79999 8.53008 9.79999Z" fill="#545454"/>
</g>
<defs>
<clipPath id="clip0_8045_970">
<rect width="16" height="16" fill="white" transform="translate(0.105469)"/>
</clipPath>
</defs>
</svg>
