<svg width="16" height="20" viewBox="0 0 16 20" fill="none" xmlns="http://www.w3.org/2000/svg">
<g clip-path="url(#clip0_2346_464)">
<path d="M15.9598 17.0105L13.0954 12.0931L13.85 11.8173C14.2199 11.6831 14.4287 11.3056 14.3445 10.921L14.0697 9.68346C14.0551 9.61814 14.0697 9.56733 14.11 9.51653L15.0551 8.39153C15.3078 8.09032 15.2968 7.66209 15.0294 7.37177L14.165 6.43548C14.121 6.3883 14.1064 6.33386 14.1174 6.27217L14.3664 4.82782C14.4324 4.44677 14.2016 4.07298 13.8316 3.95685L12.6119 3.5758C12.5496 3.55403 12.5093 3.51774 12.4873 3.45604L11.9745 2.08064C11.839 1.71774 11.4507 1.50725 11.0697 1.59072L9.82065 1.8629C9.75472 1.87741 9.69977 1.8629 9.65215 1.82298L8.51662 0.890316C8.21259 0.643542 7.78036 0.6508 7.48732 0.91572L6.54593 1.77217C6.49464 1.81572 6.44336 1.83386 6.37743 1.81935L4.91955 1.57257C4.52761 1.50725 4.15765 1.72862 4.04043 2.10241L3.65582 3.31088C3.6375 3.37257 3.59721 3.41249 3.5386 3.43427L2.15032 3.94233C1.7767 4.07661 1.57157 4.45403 1.65582 4.8387L1.9342 6.0762C1.94886 6.1379 1.9342 6.19233 1.89391 6.24314L0.948857 7.36814C0.699772 7.66572 0.710761 8.10483 0.974498 8.3879L1.83897 9.32419C1.88292 9.37136 1.89757 9.42217 1.88659 9.48749L1.6375 10.9318C1.57157 11.3165 1.79501 11.6831 2.1723 11.8028L2.93787 12.0423L0.0440948 17.0105C-0.0364913 17.1484 0.0111278 17.3262 0.150322 17.406C0.216256 17.446 0.296842 17.4532 0.373765 17.4351L2.63384 16.8363L3.23823 19.0754C3.2712 19.2024 3.38842 19.2895 3.52029 19.2895C3.62285 19.2895 3.72175 19.2351 3.77303 19.1443L6.65948 14.1907L7.48365 14.8693C7.63018 14.9927 7.80966 15.0508 7.98549 15.0508C8.17596 15.0508 8.36278 14.9818 8.51296 14.8439L9.30417 14.1254L12.2272 19.1443C12.2859 19.246 12.4031 19.304 12.5203 19.2859C12.6375 19.2714 12.7364 19.1879 12.7657 19.0718L13.3701 16.8327L15.6302 17.4314C15.7877 17.4714 15.9489 17.3806 15.9891 17.2246C16.0111 17.1556 16.0001 17.0794 15.9598 17.0105ZM3.61919 18.248L3.12102 16.4081C3.09904 16.3355 3.05142 16.2702 2.98549 16.2302C2.91955 16.1903 2.83897 16.1794 2.76204 16.2012L0.904901 16.6948L3.49098 12.2564C3.50197 12.271 3.5093 12.2855 3.51662 12.3036L4.02944 13.679C4.16497 14.0419 4.55325 14.2524 4.9342 14.1689L6.15765 13.9004L3.61919 18.248ZM8.11735 14.4157C8.0441 14.481 7.9342 14.4847 7.85728 14.423L6.72175 13.4867C6.57889 13.3669 6.40673 13.3052 6.22724 13.3052C6.16864 13.3052 6.11003 13.3125 6.05142 13.3234L4.80234 13.5956C4.7071 13.6173 4.61186 13.5665 4.57523 13.4722L4.06241 12.0968C3.97816 11.8645 3.79867 11.6976 3.56424 11.625L3.46534 11.5923H3.46168L2.34446 11.2512C2.24922 11.2222 2.19428 11.1278 2.20893 11.0335L2.45801 9.58911C2.49831 9.34596 2.42871 9.1137 2.26387 8.93588L1.39941 7.99959C1.33347 7.92701 1.32981 7.81814 1.39208 7.74193L2.33713 6.6133C2.49464 6.42459 2.55325 6.1887 2.49831 5.94919L2.22358 4.71169C2.2016 4.61733 2.25655 4.51935 2.34812 4.48669L3.7364 3.97862C3.96717 3.89153 4.13567 3.71733 4.20893 3.48507L4.59721 2.27661C4.62651 2.18225 4.71809 2.12782 4.81699 2.14233L6.27486 2.38911C6.51662 2.43265 6.75472 2.3637 6.93787 2.19677L7.87926 1.34032C7.95618 1.27136 8.06241 1.27136 8.13933 1.33306L9.27486 2.26935C9.46534 2.4254 9.70344 2.48346 9.94519 2.42903L11.1943 2.15685C11.2895 2.13507 11.3848 2.18588 11.4177 2.28024L11.9305 3.65201C12.0148 3.88064 12.1906 4.04757 12.4287 4.12378L13.6485 4.50483C13.7437 4.53386 13.7987 4.62459 13.784 4.72257L13.5349 6.16693C13.4946 6.41007 13.5642 6.64233 13.7291 6.82015L14.5935 7.75644C14.6595 7.82903 14.6631 7.9379 14.6009 8.01411L13.6558 9.14274C13.4983 9.33144 13.4397 9.56733 13.4946 9.80685L13.7694 11.0443C13.7913 11.1387 13.7401 11.2367 13.6448 11.2693L12.2565 11.7774C12.0258 11.8609 11.8536 12.0387 11.7804 12.271L11.4031 13.4831C11.3738 13.5774 11.2822 13.6318 11.1833 13.6173L9.72541 13.3706C9.5679 13.3452 9.41772 13.3633 9.28219 13.425C9.27486 13.4286 9.2712 13.4286 9.26387 13.4323C9.19428 13.4649 9.12834 13.5085 9.06607 13.5629L8.11735 14.4157ZM13.2382 16.2012C13.165 16.1831 13.0844 16.1903 13.0148 16.2302C12.9452 16.2702 12.8976 16.3318 12.8793 16.4081L12.3811 18.248L9.90124 13.9911L11.0807 14.1907C11.469 14.256 11.839 14.0347 11.9598 13.6609L12.3445 12.4524C12.3628 12.3907 12.4031 12.3508 12.4653 12.329L12.5386 12.3036L15.099 16.6984L13.2382 16.2012ZM12.165 7.87983C12.165 5.60443 10.2968 3.75362 8.00014 3.75362C5.70343 3.75362 3.8353 5.60443 3.8353 7.87983C3.8353 10.1552 5.70343 12.0097 8.00014 12.0097C10.2968 12.0097 12.165 10.1552 12.165 7.87983ZM8.00014 11.4254C6.02578 11.4254 4.42138 9.83225 4.42138 7.8762C4.42138 5.92016 6.02578 4.33064 8.00014 4.33064C9.9745 4.33064 11.5789 5.92016 11.5789 7.8762C11.5789 9.83588 9.9745 11.4254 8.00014 11.4254ZM9.98182 6.61693C10.0954 6.72943 10.0954 6.91451 9.98182 7.02701L7.84629 9.14274C7.78768 9.2008 7.71442 9.22983 7.6375 9.22983C7.56058 9.22983 7.48732 9.2008 7.42871 9.14274L6.01845 7.74556C5.9049 7.63306 5.9049 7.44798 6.01845 7.33548C6.13201 7.22298 6.31882 7.22298 6.43237 7.33548L7.6375 8.52943L9.5679 6.61693C9.68146 6.50443 9.86461 6.50443 9.98182 6.61693Z" fill="white"/>
</g>
<defs>
<clipPath id="clip0_2346_464">
<rect width="16" height="18.5806" fill="white" transform="translate(0 0.708984)"/>
</clipPath>
</defs>
</svg>
