<svg width="20" height="19" viewBox="0 0 20 19" fill="none" xmlns="http://www.w3.org/2000/svg">
<path d="M15.8348 4.0793L15.4668 4.87676H18.4726C18.81 4.87676 19.086 4.60071 19.086 4.26333C19.086 2.48439 19.3621 0 17.4911 0L16.5403 0.276043C16.5403 0.276043 14.976 0.828129 14.884 0.950814C14.792 1.0735 14.2706 2.3617 14.2093 2.66841C14.1172 2.97513 15.8348 4.0793 15.8348 4.0793Z" fill="#CCCFF2"/>
<path d="M4.42505 0.0297509H17.4604C16.2029 0.581836 15.8348 1.90071 15.8348 4.29308V16.5923C15.8348 17.4204 15.1601 18.0952 14.3319 18.0952H3.35155C2.52343 18.0952 1.84866 17.4204 1.84866 16.5923V2.54481C1.81798 2.51414 1.72597 -0.0622634 4.42505 0.0297509Z" fill="#E9E7FC"/>
<path d="M14.3012 18.0682H2.21667C1.05116 18.0682 0.100342 17.1174 0.100342 15.9519V15.2771C0.100342 14.909 0.407056 14.6023 0.775113 14.6023H12.1542C12.5223 14.6023 12.829 14.909 12.829 15.2771V16.5653C12.7983 17.3934 13.4731 18.0682 14.3012 18.0682ZM14.3932 9.32682C14.3932 9.48018 14.2705 9.60287 14.1172 9.60287H3.56621C3.41285 9.60287 3.29017 9.48018 3.29017 9.32682C3.29017 9.17347 3.41285 9.05078 3.56621 9.05078H14.1172C14.2705 9.05078 14.3932 9.17347 14.3932 9.32682ZM14.3932 11.0444C14.3932 11.1978 14.2705 11.3205 14.1172 11.3205H3.56621C3.41285 11.3205 3.29017 11.1978 3.29017 11.0444C3.29017 10.8911 3.41285 10.7684 3.56621 10.7684H14.1172C14.2705 10.7684 14.3932 10.8911 14.3932 11.0444ZM14.3932 12.762C14.3932 12.9154 14.2705 13.0381 14.1172 13.0381H3.56621C3.41285 13.0381 3.29017 12.9154 3.29017 12.762C3.29017 12.6087 3.41285 12.486 3.56621 12.486H14.1172C14.2705 12.486 14.3932 12.6087 14.3932 12.762Z" fill="#CCCFF2"/>
<path d="M12.3384 4.69128C12.3384 6.65425 10.7434 8.21849 8.81115 8.21849C6.84818 8.21849 5.28394 6.62358 5.28394 4.69128C5.28394 2.75898 6.84818 1.16406 8.81115 1.16406C10.7741 1.16406 12.3384 2.7283 12.3384 4.69128Z" fill="#FFD06C"/>
<path d="M6.32666 4.69532C6.32666 6.07554 7.43083 7.17971 8.81105 7.17971C10.1913 7.17971 11.2954 6.07554 11.2954 4.69532C11.2954 3.31511 10.1913 2.21094 8.81105 2.21094C7.43083 2.21094 6.32666 3.31511 6.32666 4.69532Z" fill="#F9A83D"/>
<path d="M9.02563 4.47657V3.64844C9.20966 3.64844 9.36302 3.67911 9.51638 3.74046C9.79242 3.86314 9.94578 3.43374 9.66973 3.34173C9.48571 3.28038 9.27101 3.21904 9.02563 3.21904V3.00434C9.02563 2.75897 8.68825 2.75897 8.68825 3.00434V3.21904C8.19751 3.28038 7.82945 3.5871 7.82945 4.07784C7.82945 4.56858 8.22818 4.75261 8.68825 4.8753V5.67275C8.47355 5.64208 8.28952 5.61141 8.10549 5.5194C7.82945 5.39671 7.64542 5.82611 7.92146 5.91813C8.16683 6.01014 8.41221 6.07148 8.68825 6.10215V6.31685C8.68825 6.56223 9.02563 6.53155 9.02563 6.31685V6.10215C9.60839 6.04081 9.9151 5.70343 9.9151 5.3047C9.9151 4.78328 9.54705 4.59925 9.02563 4.47657ZM9.02563 4.96731C9.20966 5.02866 9.45503 5.09 9.45503 5.27403C9.45503 5.48873 9.30168 5.61141 9.02563 5.64208V4.96731ZM8.28952 4.04717C8.28952 3.83247 8.47355 3.70978 8.68825 3.67911V4.38455C8.47355 4.32321 8.28952 4.26187 8.28952 4.04717Z" fill="#FFD06C"/>
<path d="M8.9644 7.17416H8.81105C7.43083 7.17416 6.32666 6.06998 6.32666 4.68977C6.32666 3.34023 7.43083 2.14404 8.9644 2.20539C7.6762 2.2974 6.66405 3.3709 6.66405 4.68977C6.66405 6.00864 7.6762 7.08214 8.9644 7.17416Z" fill="#EA9734"/>
<g opacity="0.2">
<path d="M10.8351 7.60094C10.191 8.09168 9.0562 8.3984 8.01337 8.12235L5.71301 3.06157C6.20376 2.11075 7.09323 1.49732 7.9827 1.28262L10.8351 7.60094ZM11.9086 6.37408C11.786 6.61945 11.6019 6.86482 11.3872 7.1102L8.68814 1.15994C8.8415 1.12927 9.30157 1.15994 9.57761 1.25195L11.9086 6.37408Z" fill="white"/>
</g>
<path d="M11.7863 3.68373C11.4489 3.86776 11.2648 4.14381 11.2035 4.35851C11.1728 4.41985 11.1115 4.41985 11.0808 4.35851C10.9888 4.14381 10.8354 3.86776 10.4981 3.68373C10.4674 3.65306 10.4674 3.59172 10.4981 3.59172C10.8354 3.40769 11.0195 3.13165 11.0808 2.91695C11.1115 2.85561 11.1728 2.85561 11.2035 2.91695C11.2955 3.13165 11.4489 3.40769 11.7863 3.59172C11.8476 3.59172 11.8476 3.65306 11.7863 3.68373ZM2.73819 2.48755C2.64618 2.08882 2.73819 1.50606 3.07558 1.16868C3.44363 0.831291 3.96505 0.769948 4.42512 0.923306C4.05706 1.01532 3.59699 1.10733 3.29028 1.38338C3.01423 1.65942 2.86088 2.11949 2.73819 2.48755ZM12.185 17.4552C11.5409 17.5779 10.9581 17.5779 10.3754 17.6086C9.88463 17.6086 9.20986 17.5779 8.68845 17.4552C9.2712 17.3325 9.9153 17.3325 10.4981 17.3018C11.1115 17.3018 11.6636 17.3325 12.185 17.4552Z" fill="white"/>
</svg>
