<svg width="41" height="41" viewBox="0 0 41 41" fill="none" xmlns="http://www.w3.org/2000/svg">
<mask id="mask0_6737_631" style="mask-type:luminance" maskUnits="userSpaceOnUse" x="0" y="0" width="41" height="41">
<path d="M0 0H41V41H0V0Z" fill="white"/>
</mask>
<g mask="url(#mask0_6737_631)">
<path d="M33.7941 3.13281H17.7107L17.1499 4.82193V28.7036L17.7107 30.3927H33.7941C34.2544 30.3925 34.6957 30.2096 35.0211 29.8842C35.3466 29.5587 35.5295 29.1174 35.5296 28.6572V4.86832C35.5295 4.40809 35.3466 3.96676 35.0211 3.64133C34.6957 3.3159 34.2544 3.13299 33.7941 3.13281Z" fill="white"/>
<path d="M38.6638 3.13281H33.5938C34.054 3.13299 34.4953 3.3159 34.8207 3.64133C35.1462 3.96676 35.3291 4.40809 35.3293 4.86832V28.6572C35.3293 29.1175 35.1464 29.5589 34.8209 29.8844C34.4955 30.2098 34.054 30.3927 33.5938 30.3927H38.6638C39.1241 30.3927 39.5656 30.2098 39.891 29.8844C40.2165 29.5589 40.3993 29.1175 40.3993 28.6572V4.86832C40.3992 4.40809 40.2163 3.96676 39.8908 3.64133C39.5654 3.3159 39.1241 3.13299 38.6638 3.13281Z" fill="white"/>
<path d="M5.42262 3.13281C4.96257 3.13317 4.52149 3.31618 4.19631 3.64161C3.87114 3.96704 3.68848 4.40827 3.68848 4.86832V28.6572C3.68848 29.1175 3.87132 29.5589 4.19679 29.8844C4.52226 30.2098 4.9637 30.3927 5.42398 30.3927H17.711V3.13281H5.42262Z" fill="white"/>
<path d="M8.23579 33.2794C8.97948 32.2874 9.38139 31.081 9.38119 29.8411V22.9585C9.38121 22.9051 9.3604 22.8539 9.32319 22.8156C9.28598 22.7774 9.23532 22.7552 9.18199 22.7538C9.18211 22.5614 9.14347 22.3709 9.06838 22.1938C8.99329 22.0167 8.88329 21.8565 8.74494 21.7228C8.60659 21.5891 8.44272 21.4846 8.26312 21.4156C8.08352 21.3466 7.89186 21.3145 7.69958 21.3212C7.3254 21.3403 6.9731 21.5034 6.7163 21.7762C6.4595 22.049 6.31806 22.4105 6.32154 22.7852V24.1632C6.32166 23.9708 6.28302 23.7804 6.20793 23.6032C6.13284 23.4261 6.02284 23.2659 5.88449 23.1322C5.74614 22.9985 5.58228 22.894 5.40268 22.825C5.22307 22.756 5.03141 22.7239 4.83913 22.7306C4.46507 22.7498 4.11287 22.9127 3.85609 23.1854C3.5993 23.458 3.45779 23.8194 3.46109 24.1939V24.9859C3.46121 24.7935 3.42257 24.6031 3.34748 24.426C3.27239 24.2488 3.16239 24.0886 3.02404 23.9549C2.88569 23.8212 2.72183 23.7167 2.54223 23.6478C2.36262 23.5788 2.17096 23.5466 1.97868 23.5533C1.60456 23.5727 1.25236 23.7357 0.995595 24.0085C0.738827 24.2813 0.59733 24.6427 0.600643 25.0173V29.6563C0.600442 30.4333 0.758272 31.2022 1.06454 31.9164L2.28226 34.7946C2.5218 35.3607 2.64521 35.9692 2.64519 36.584V37.1761H6.46549C6.53957 36.0708 6.93245 35.0106 7.59657 34.124L8.23579 33.2794Z" fill="#FFF0DC"/>
<path d="M12.973 24.21C12.8222 24.208 12.6721 24.2298 12.5282 24.2748C12.4729 24.2931 12.4141 24.298 12.3566 24.2893C12.299 24.2805 12.2444 24.2582 12.1971 24.2243C12.1498 24.1904 12.1112 24.1457 12.0844 24.094C12.0577 24.0424 12.0435 23.9851 12.0432 23.9269V15.8633C12.0465 15.4887 11.905 15.1273 11.6482 14.8545C11.3914 14.5817 11.0392 14.4186 10.6651 14.3993C10.4728 14.3926 10.2812 14.4247 10.1016 14.4937C9.92197 14.5627 9.7581 14.6672 9.61975 14.8009C9.4814 14.9346 9.37141 15.0948 9.29632 15.2719C9.22123 15.4491 9.18258 15.6395 9.1827 15.8319V22.7624C9.1827 22.7548 9.1827 22.7473 9.1827 22.7392V29.8511C9.1829 31.0909 8.78099 32.2973 8.03729 33.2893L7.40012 34.1393C6.736 35.026 6.34313 36.0862 6.26904 37.1915H11.4728C11.7075 33.7123 14.3865 33.4994 14.3865 29.8517V25.6787C14.3859 25.2995 14.2385 24.9351 13.9753 24.6621C13.712 24.3891 13.3533 24.2285 12.9743 24.2141" fill="#FFE4C0"/>
<path d="M7.81921 36.973V35.1406H2.45578C2.21882 35.1403 1.9914 35.234 1.82346 35.4011C1.65551 35.5683 1.56078 35.7953 1.56006 36.0323V36.9696C1.56006 37.2068 1.65428 37.4343 1.82201 37.602C1.98973 37.7697 2.21722 37.864 2.45442 37.864H6.92349C7.16068 37.864 7.38817 37.7697 7.55589 37.602C7.72362 37.4343 7.81784 37.2068 7.81784 36.9696" fill="#20886F"/>
<path d="M11.7937 35.1406H7.61799V36.973C7.61826 37.0906 7.59533 37.2071 7.5505 37.3159C7.50568 37.4246 7.43984 37.5235 7.35676 37.6067C7.27369 37.69 7.175 37.7561 7.06636 37.8011C6.95772 37.8462 6.84125 37.8694 6.72363 37.8694H11.7937C12.0309 37.8694 12.2584 37.7752 12.4261 37.6075C12.5938 37.4397 12.6881 37.2122 12.6881 36.9751V36.035C12.6881 35.7978 12.5938 35.5703 12.4261 35.4026C12.2584 35.2349 12.0309 35.1406 11.7937 35.1406Z" fill="#20886F"/>
<path d="M35.5287 6.28906H21.6849C21.4399 6.28906 21.205 6.38638 21.0318 6.55961C20.8585 6.73283 20.7612 6.96778 20.7612 7.21276V17.3372C20.7612 17.5822 20.8585 17.8172 21.0318 17.9904C21.205 18.1636 21.4399 18.2609 21.6849 18.2609H35.5287V6.28906Z" fill="#F0F0F0"/>
<path d="M36.3347 6.28906H35.3291V18.2602H36.3347C36.5796 18.2602 36.8146 18.1629 36.9878 17.9897C37.161 17.8165 37.2584 17.5815 37.2584 17.3366V7.21276C37.2584 6.96778 37.161 6.73283 36.9878 6.55961C36.8146 6.38638 36.5796 6.28906 36.3347 6.28906Z" fill="#F0ECEF"/>
<path d="M22.1807 22.3984H23.6133" stroke="#20886F" stroke-width="1.5" stroke-miterlimit="10" stroke-linecap="round" stroke-linejoin="round"/>
<path d="M26.2568 22.3984H27.6894" stroke="#20886F" stroke-width="1.5" stroke-miterlimit="10" stroke-linecap="round" stroke-linejoin="round"/>
<path d="M30.333 22.3984H31.7656" stroke="#20886F" stroke-width="1.5" stroke-miterlimit="10" stroke-linecap="round" stroke-linejoin="round"/>
<path d="M34.4087 22.3984H35.8413" stroke="#20886F" stroke-width="1.5" stroke-miterlimit="10" stroke-linecap="round" stroke-linejoin="round"/>
<path d="M22.1807 25.1797H23.6133" stroke="#20886F" stroke-width="1.5" stroke-miterlimit="10" stroke-linecap="round" stroke-linejoin="round"/>
<path d="M26.2568 25.1797H27.6894" stroke="#20886F" stroke-width="1.5" stroke-miterlimit="10" stroke-linecap="round" stroke-linejoin="round"/>
<path d="M30.333 25.1797H31.7656" stroke="#20886F" stroke-width="1.5" stroke-miterlimit="10" stroke-linecap="round" stroke-linejoin="round"/>
<path d="M34.4087 25.1797H35.8413" stroke="#20886F" stroke-width="1.5" stroke-miterlimit="10" stroke-linecap="round" stroke-linejoin="round"/>
<path d="M17.7109 29.8851V30.3934H38.6639C39.1242 30.3934 39.5656 30.2105 39.8911 29.8851C40.2166 29.5596 40.3994 29.1182 40.3994 28.6579V4.869C40.3994 4.40865 40.2166 3.96716 39.8911 3.64158C39.5657 3.316 39.1243 3.13299 38.6639 3.13281H17.7075" stroke="#20886F" stroke-width="1.5" stroke-miterlimit="10" stroke-linecap="round" stroke-linejoin="round"/>
<path d="M0.600623 27.2031C0.59781 28.3112 0.754034 29.414 1.06452 30.4777L2.28224 34.6452C2.33067 34.811 2.37297 34.9795 2.41185 35.15" stroke="#20886F" stroke-miterlimit="10" stroke-linecap="round" stroke-linejoin="round"/>
<path d="M11.9845 35.1688C12.7199 33.5718 14.1197 32.8595 14.3571 30.3934C14.3749 30.2113 14.3844 30.0284 14.3844 29.8476V25.6747C14.3838 25.2954 14.2365 24.9311 13.9732 24.658C13.71 24.385 13.3513 24.2244 12.9723 24.21C12.8215 24.208 12.6714 24.2299 12.5275 24.2748C12.4722 24.2931 12.4134 24.298 12.3559 24.2893C12.2983 24.2805 12.2437 24.2582 12.1964 24.2243C12.1491 24.1904 12.1105 24.1458 12.0837 24.0941C12.057 24.0424 12.0428 23.9851 12.0424 23.9269V15.8633C12.0459 15.4886 11.9045 15.1271 11.6477 14.8543C11.3909 14.5815 11.0386 14.4185 10.6644 14.3993C10.4721 14.3926 10.2805 14.4247 10.1009 14.4937C9.92126 14.5627 9.7574 14.6672 9.61905 14.8009C9.4807 14.9346 9.3707 15.0948 9.29561 15.2719C9.22052 15.4491 9.18188 15.6395 9.182 15.8319V22.7623C9.18211 22.57 9.14347 22.3795 9.06838 22.2024C8.99329 22.0252 8.88328 21.865 8.74493 21.7313C8.60658 21.5976 8.44272 21.4931 8.26312 21.4241C8.08352 21.3552 7.89186 21.323 7.69958 21.3297C7.3254 21.3489 6.9731 21.5119 6.7163 21.7848C6.4595 22.0576 6.31806 22.4191 6.32154 22.7937V24.1718C6.32166 23.9794 6.28302 23.7889 6.20793 23.6118C6.13284 23.4346 6.02284 23.2744 5.88449 23.1407C5.74614 23.007 5.58228 22.9026 5.40268 22.8336C5.22307 22.7646 5.03141 22.7325 4.83913 22.7392C4.60553 22.7491 4.37801 22.8166 4.17676 22.9356C3.97551 23.0546 3.80678 23.2214 3.68554 23.4214C3.53887 23.6567 3.46112 23.9285 3.4611 24.2059V24.9979C3.46121 24.8055 3.42257 24.6151 3.34748 24.4379C3.27239 24.2608 3.16239 24.1006 3.02404 23.9669C2.88569 23.8332 2.72182 23.7287 2.54222 23.6597C2.36262 23.5907 2.17096 23.5586 1.97868 23.5653C1.60462 23.5845 1.25242 23.7474 0.995641 24.0201C0.738857 24.2927 0.597337 24.6541 0.600643 25.0286V26.8358" stroke="#20886F" stroke-miterlimit="10" stroke-linecap="round" stroke-linejoin="round"/>
<path d="M2.45608 35.1406C2.44175 35.1406 2.42743 35.1406 2.41242 35.1406C2.18304 35.1515 1.96665 35.2502 1.80813 35.4164C1.64961 35.5825 1.56113 35.8033 1.56104 36.0329V36.973C1.56077 37.0907 1.58373 37.2073 1.62859 37.316C1.67346 37.4248 1.73936 37.5237 1.82251 37.607C1.90565 37.6903 2.00442 37.7563 2.11314 37.8013C2.22186 37.8464 2.3384 37.8695 2.45608 37.8694H11.7947C11.9123 37.8694 12.0288 37.8462 12.1374 37.8011C12.246 37.7561 12.3447 37.69 12.4278 37.6067C12.5109 37.5235 12.5767 37.4246 12.6215 37.3159C12.6664 37.2071 12.6893 37.0906 12.689 36.973V36.035C12.6889 35.831 12.619 35.6331 12.4909 35.4743C12.3629 35.3155 12.1843 35.2052 11.985 35.1618C11.9225 35.1479 11.8587 35.1409 11.7947 35.1406H2.45608Z" stroke="#20886F" stroke-miterlimit="10" stroke-linecap="round" stroke-linejoin="round"/>
<path d="M15.6552 30.3941H17.7106V3.13281H5.42223C5.19427 3.13272 4.96851 3.17754 4.75787 3.26472C4.54723 3.3519 4.35583 3.47971 4.1946 3.64088C4.03337 3.80204 3.90547 3.99341 3.81821 4.20401C3.73095 4.41462 3.68604 4.64036 3.68604 4.86832V21.825" stroke="#20886F" stroke-width="1.5" stroke-miterlimit="10" stroke-linecap="round" stroke-linejoin="round"/>
</g>
<path d="M29.5329 16.4677C31.6432 16.4677 33.3539 14.8048 33.3539 12.7534C33.3539 10.702 31.6432 9.03906 29.5329 9.03906C27.4226 9.03906 25.7119 10.702 25.7119 12.7534C25.7119 14.8048 27.4226 16.4677 29.5329 16.4677Z" fill="#20886F"/>
<path d="M28.462 13.5578C28.2 13.894 26.7109 14.1215 26.7109 14.1215L28.17 10.7188C28.17 10.7188 28.9465 12.9445 28.462 13.5578Z" fill="#DEDEDF"/>
<path d="M30.5999 13.4787C30.8618 13.8148 32.3558 14.1215 32.3558 14.1215L30.8967 10.7188C30.8967 10.7188 30.1153 12.8654 30.5999 13.4787Z" fill="#DEDEDF"/>
<path d="M28.4056 11.916C28.4795 11.916 28.5393 11.7477 28.5393 11.54C28.5393 11.3324 28.4795 11.1641 28.4056 11.1641C28.3318 11.1641 28.272 11.3324 28.272 11.54C28.272 11.7477 28.3318 11.916 28.4056 11.916Z" fill="#EDD1BE"/>
<path d="M30.661 11.916C30.7348 11.916 30.7947 11.7477 30.7947 11.54C30.7947 11.3324 30.7348 11.1641 30.661 11.1641C30.5872 11.1641 30.5273 11.3324 30.5273 11.54C30.5273 11.7477 30.5872 11.916 30.661 11.916Z" fill="#EDD1BE"/>
<path d="M28.6128 12.6016H30.4528V13.3977H28.6128V12.6016Z" fill="#EDD1BE"/>
<path d="M28.6384 10.4531C28.4807 10.7675 28.4009 11.1153 28.406 11.467C28.406 12.387 28.9107 13.134 29.5339 13.134C30.157 13.134 30.6617 12.387 30.6617 11.467C30.6642 11.1155 30.5844 10.7683 30.4288 10.4531H28.6384Z" fill="#FAE3D3"/>
<path d="M26.0977 14.4075C26.4053 15.0273 26.8799 15.5489 27.468 15.9136C28.056 16.2783 28.7342 16.4715 29.4262 16.4716H29.4886V13.8045L28.26 13.4531C28.26 13.4531 26.1915 14.3284 26.0977 14.4075Z" fill="#595D68"/>
<path d="M30.8028 13.4531L29.3486 13.8045V16.4554C29.4456 16.4652 29.5431 16.4701 29.6406 16.4701C30.3325 16.47 31.0107 16.2768 31.5988 15.9121C32.1869 15.5475 32.6615 15.0259 32.9691 14.406C32.8752 14.3284 30.8028 13.4531 30.8028 13.4531Z" fill="#454956"/>
<path d="M30.676 13.371L30.4843 12.8516C30.4843 13.1386 30.0587 13.371 29.5348 13.371C29.0109 13.371 28.5854 13.1386 28.5854 12.8516L28.3922 13.371C28.381 13.3977 28.3744 13.4261 28.3726 13.4551C28.3726 13.7421 28.892 13.9745 29.5348 13.9745C30.1776 13.9745 30.6971 13.7421 30.6971 13.4551C30.6948 13.4261 30.6877 13.3977 30.676 13.371Z" fill="#343746"/>
<path d="M29.5543 13.3594L29.5248 13.958C29.3245 13.96 29.1248 13.9351 28.9312 13.8837C28.9312 13.8837 29.312 13.9383 29.3961 13.8046C29.469 13.6642 29.5222 13.5143 29.5543 13.3594Z" fill="#242835"/>
<path d="M29.5332 14.4942C29.6179 14.4942 29.6865 14.4255 29.6865 14.3408C29.6865 14.2561 29.6179 14.1875 29.5332 14.1875C29.4485 14.1875 29.3799 14.2561 29.3799 14.3408C29.3799 14.4255 29.4485 14.4942 29.5332 14.4942Z" fill="#343746"/>
<path d="M29.5332 15.4004C29.6179 15.4004 29.6865 15.3318 29.6865 15.2471C29.6865 15.1624 29.6179 15.0938 29.5332 15.0938C29.4485 15.0938 29.3799 15.1624 29.3799 15.2471C29.3799 15.3318 29.4485 15.4004 29.5332 15.4004Z" fill="#343746"/>
<path d="M29.5332 16.2988C29.6179 16.2988 29.6865 16.2302 29.6865 16.1455C29.6865 16.0608 29.6179 15.9922 29.5332 15.9922C29.4485 15.9922 29.3799 16.0608 29.3799 16.1455C29.3799 16.2302 29.4485 16.2988 29.5332 16.2988Z" fill="#343746"/>
<path d="M30.6564 11.4424C30.6766 11.6943 30.638 11.9474 30.5436 12.1818C30.4492 12.4162 30.3015 12.6254 30.1123 12.7929C30.048 12.8224 30.0283 12.3624 30.0283 12.3624L29.6081 12.1747L29.5339 12.2042L29.4597 12.1747L29.0444 12.3575C29.0444 12.3575 29.0248 12.8175 28.9604 12.788C28.7701 12.6213 28.6217 12.4123 28.5271 12.1777C28.4325 11.9431 28.3944 11.6895 28.4159 11.4375C28.3716 11.907 28.4735 12.3787 28.7078 12.788C28.7826 12.9435 28.8998 13.0747 29.0459 13.1665C29.192 13.2583 29.3611 13.3071 29.5337 13.3071C29.7062 13.3071 29.8753 13.2583 30.0214 13.1665C30.1675 13.0747 30.2847 12.9435 30.3595 12.788C30.597 12.3816 30.7008 11.911 30.6564 11.4424ZM29.7364 13.045C29.499 13.1787 29.6769 12.7531 29.6769 12.7531H29.385C29.385 12.7531 29.5629 13.1787 29.3255 13.045C29.2296 12.9723 29.1572 12.8729 29.1176 12.7592C29.078 12.6456 29.0729 12.5227 29.1029 12.4061L29.5285 12.3766L29.9541 12.4061C29.9866 12.5222 29.9832 12.6453 29.9444 12.7594C29.9055 12.8734 29.833 12.973 29.7364 13.045Z" fill="#333842"/>
<path d="M30.6874 10.8095C30.7491 10.9081 30.7818 11.0221 30.7818 11.1385C30.7818 11.2548 30.7491 11.3688 30.6874 11.4675C30.6874 11.4675 30.5242 10.8242 30.4004 10.75L30.6874 10.8095Z" fill="#333842"/>
<path d="M28.379 10.809C28.3174 10.9076 28.2847 11.0216 28.2847 11.138C28.2847 11.2543 28.3174 11.3684 28.379 11.467C28.379 11.467 28.5422 10.8242 28.6661 10.75L28.379 10.809Z" fill="#333842"/>
<path d="M32.969 14.4037C32.8412 14.2847 32.0092 13.5033 31.9861 13.1623C31.9606 12.7912 31.6421 11.1346 31.3379 10.9267C31.0337 10.7188 31.1236 10.3478 30.9143 10.2342C30.6946 10.1153 30.4292 9.34375 29.5382 9.34375C28.6473 9.34375 28.375 10.1134 28.1622 10.2264C27.9494 10.3394 28.0398 10.706 27.7386 10.9188C27.4373 11.1316 27.1159 12.7863 27.0904 13.1544C27.0648 13.4955 26.2279 14.2774 26.1001 14.3958C26.1001 14.4007 26.105 14.4007 26.105 14.4056L26.9218 14.099C27.8555 13.5746 28.1062 11.339 28.1878 11.0771C28.2693 10.8151 29.178 10.8397 29.178 10.8397L29.5304 10.538L29.8827 10.8397C29.8827 10.8397 30.7914 10.8151 30.873 11.0771C30.9546 11.339 31.2047 13.5746 32.139 14.099L32.9557 14.4056C32.9641 14.4066 32.9641 14.4037 32.969 14.4037Z" fill="white"/>
<path d="M30.8361 9.6875H28.2314C28.1923 9.6875 28.1548 9.70303 28.1272 9.73068C28.0995 9.75833 28.084 9.79583 28.084 9.83493C28.084 9.87404 28.0995 9.91153 28.1272 9.93918C28.1548 9.96683 28.1923 9.98237 28.2314 9.98237H30.8361C30.8752 9.98237 30.9127 9.96683 30.9403 9.93918C30.968 9.91153 30.9835 9.87404 30.9835 9.83493C30.9835 9.79583 30.968 9.75833 30.9403 9.73068C30.9127 9.70303 30.8752 9.6875 30.8361 9.6875Z" fill="#414753"/>
<path d="M30.9484 9.98438H28.1191C28.08 9.98438 28.0425 9.99991 28.0149 10.0276C27.9872 10.0552 27.9717 10.0927 27.9717 10.1318C27.9717 10.1709 27.9872 10.2084 28.0149 10.2361C28.0425 10.2637 28.08 10.2792 28.1191 10.2792H30.9484C30.9875 10.2792 31.025 10.2637 31.0526 10.2361C31.0803 10.2084 31.0958 10.1709 31.0958 10.1318C31.0958 10.0927 31.0803 10.0552 31.0526 10.0276C31.025 9.99991 30.9875 9.98438 30.9484 9.98438Z" fill="#333842"/>
<path d="M19.692 38.9175C19.3971 38.9261 19.1041 38.8682 18.8347 38.7481C18.6073 38.6418 18.4173 38.4695 18.2892 38.2536C18.1531 38.0112 18.0792 37.7388 18.0743 37.4608C18.0707 37.3139 18.0688 37.1562 18.0688 36.9878C18.0688 36.8194 18.0707 36.6581 18.0743 36.5041C18.0797 36.2275 18.1546 35.9568 18.292 35.7167C18.4221 35.5004 18.6134 35.3273 18.8417 35.2195C19.1082 35.0985 19.3987 35.0397 19.6912 35.0476C19.9131 35.045 20.1342 35.0759 20.3469 35.139C20.5321 35.1939 20.7053 35.2833 20.8574 35.4024C20.996 35.5115 21.1097 35.649 21.1907 35.8057C21.2711 35.9661 21.3151 36.1423 21.3196 36.3216C21.32 36.3368 21.317 36.3519 21.311 36.3658C21.3049 36.3798 21.296 36.3922 21.2846 36.4024C21.2622 36.4236 21.2323 36.4351 21.2014 36.4346H20.5888C20.5519 36.4367 20.5156 36.4252 20.4866 36.4024C20.4569 36.373 20.4363 36.3357 20.4274 36.2949C20.3974 36.1206 20.3011 35.9646 20.1587 35.8596C20.0173 35.7766 19.8551 35.7357 19.6912 35.7415C19.4985 35.731 19.3094 35.7965 19.1645 35.9241C19.0183 36.0916 18.9431 36.3095 18.9549 36.5315C18.944 36.8254 18.944 37.1264 18.9549 37.4346C18.943 37.6566 19.0182 37.8745 19.1645 38.042C19.3093 38.1696 19.4985 38.2352 19.6912 38.2246C19.8563 38.2302 20.0196 38.1882 20.1615 38.1037C20.3036 38 20.3992 37.8446 20.4276 37.6709C20.4353 37.6289 20.456 37.5904 20.4868 37.5608C20.5165 37.5395 20.5526 37.529 20.589 37.531H21.2017C21.2326 37.5305 21.2624 37.5421 21.2849 37.5632C21.2962 37.5734 21.3052 37.5858 21.3112 37.5998C21.3173 37.6137 21.3202 37.6288 21.3199 37.6439C21.3163 37.8219 21.2729 37.9968 21.1929 38.1559C21.1129 38.3149 20.9984 38.454 20.8576 38.563C20.7056 38.6822 20.5324 38.7715 20.3471 38.8263C20.1346 38.8893 19.9137 38.9201 19.692 38.9175Z" fill="#20886F"/>
<path d="M22.6851 38.9174C22.5087 38.9203 22.334 38.8825 22.1746 38.8069C22.0312 38.7396 21.9073 38.6369 21.8145 38.5086C21.7024 38.35 21.6579 38.1533 21.6907 37.9619C21.7235 37.7705 21.8309 37.5999 21.9894 37.4876C22.2342 37.3263 22.5129 37.2237 22.8038 37.1878L23.5079 37.0856V36.9889C23.5155 36.8732 23.4812 36.7587 23.4112 36.6663C23.3662 36.6243 23.3126 36.5924 23.2542 36.573C23.1958 36.5536 23.1338 36.5469 23.0726 36.5536C22.9729 36.5489 22.874 36.5731 22.7878 36.6233C22.7173 36.6687 22.6598 36.7316 22.6211 36.806C22.6088 36.8278 22.5908 36.8459 22.569 36.8582C22.5472 36.8706 22.5225 36.8767 22.4974 36.8759H21.9867C21.9698 36.877 21.953 36.8745 21.9372 36.8685C21.9214 36.8625 21.9071 36.8532 21.8952 36.8412C21.8847 36.8302 21.8769 36.817 21.8722 36.8026C21.8676 36.7881 21.8663 36.7728 21.8685 36.7577C21.8733 36.6814 21.8974 36.6074 21.9385 36.5429C21.9948 36.4491 22.0676 36.3662 22.1533 36.2982C22.2642 36.2099 22.3897 36.1418 22.5241 36.0968C22.7027 36.0388 22.8899 36.0115 23.0776 36.0161C23.2742 36.0119 23.4701 36.0392 23.6581 36.0968C23.8028 36.1406 23.9354 36.2176 24.0451 36.3217C24.1405 36.4166 24.2139 36.5313 24.26 36.6578C24.3074 36.7897 24.3311 36.9289 24.3299 37.0691V38.7297C24.3308 38.7476 24.3278 38.7654 24.3214 38.7821C24.3149 38.7988 24.305 38.814 24.2924 38.8266C24.2797 38.8392 24.2646 38.8491 24.2479 38.8556C24.2312 38.862 24.2134 38.865 24.1955 38.8641H23.6688C23.6518 38.8644 23.6349 38.8613 23.6192 38.8548C23.6035 38.8484 23.5892 38.8388 23.5773 38.8267C23.5648 38.814 23.555 38.7989 23.5485 38.7822C23.542 38.7656 23.539 38.7478 23.5396 38.73V38.5301C23.4877 38.6035 23.4241 38.668 23.3515 38.721C23.2658 38.7836 23.1705 38.8317 23.0694 38.8634C22.9449 38.9015 22.8152 38.9197 22.6851 38.9174ZM22.9002 38.3582C23.0105 38.3602 23.1196 38.3344 23.2173 38.2832C23.3128 38.2307 23.3897 38.15 23.4377 38.0521C23.4954 37.9296 23.5231 37.7951 23.5184 37.6598V37.5683L23.0186 37.649C22.8681 37.6658 22.7231 37.7154 22.5939 37.7942C22.5535 37.8192 22.52 37.854 22.4965 37.8953C22.473 37.9366 22.4603 37.9831 22.4594 38.0306C22.4582 38.0952 22.4801 38.1581 22.5212 38.208C22.5646 38.2596 22.6213 38.2986 22.6851 38.3207C22.754 38.3459 22.8268 38.3586 22.9002 38.3582Z" fill="#20886F"/>
<path d="M26.082 38.9186C25.8882 38.9227 25.6951 38.8964 25.5095 38.8407C25.3707 38.7992 25.2399 38.7348 25.1225 38.65C25.036 38.5875 24.9614 38.5102 24.9021 38.4216C24.8608 38.3634 24.8341 38.2962 24.8241 38.2255C24.8218 38.2075 24.8241 38.1892 24.8307 38.1723C24.8373 38.1554 24.848 38.1405 24.8618 38.1288C24.8849 38.1061 24.9155 38.0928 24.9478 38.0913H25.4693C25.4802 38.0913 25.4911 38.0931 25.5015 38.0966C25.5147 38.1021 25.5259 38.1114 25.5337 38.1233C25.5802 38.1555 25.6286 38.1922 25.6789 38.2335C25.732 38.2764 25.7909 38.3117 25.8538 38.3382C25.9334 38.3693 26.0184 38.3839 26.1037 38.3812C26.2083 38.3842 26.3119 38.3592 26.4035 38.3087C26.4414 38.2892 26.4731 38.2595 26.495 38.223C26.5168 38.1864 26.528 38.1444 26.5272 38.1018C26.5292 38.0429 26.5091 37.9854 26.4708 37.9406C26.4107 37.8845 26.3377 37.8439 26.2584 37.8224C26.1067 37.7742 25.9523 37.7348 25.7961 37.7043C25.6244 37.6691 25.4581 37.6112 25.3016 37.5323C25.1769 37.4711 25.0711 37.3774 24.9953 37.261C24.9244 37.1417 24.889 37.0047 24.8931 36.8659C24.8946 36.7212 24.9406 36.5804 25.0248 36.4627C25.1244 36.3238 25.2587 36.2135 25.4143 36.1429C25.6169 36.0523 25.8374 36.0091 26.0592 36.0164C26.2349 36.0134 26.4099 36.0379 26.578 36.0891C26.7113 36.1299 26.8374 36.1915 26.9515 36.2718C27.0399 36.3332 27.1171 36.4093 27.1799 36.4967C27.2246 36.5556 27.2532 36.625 27.2631 36.6983C27.2652 36.715 27.2634 36.732 27.2578 36.7478C27.2522 36.7637 27.243 36.7781 27.2308 36.7898C27.2198 36.8015 27.2065 36.8109 27.1917 36.8174C27.177 36.8238 27.161 36.8272 27.1449 36.8272H26.6666C26.6501 36.8275 26.6337 36.8248 26.6182 36.8193C26.604 36.8137 26.5911 36.8051 26.5805 36.7942C26.5348 36.7633 26.4908 36.73 26.4488 36.6943C26.4004 36.6544 26.3472 36.6208 26.2904 36.5944C26.2155 36.563 26.1348 36.5484 26.0537 36.5514C25.9569 36.5449 25.861 36.5725 25.7824 36.6293C25.7526 36.6526 25.7287 36.6823 25.7124 36.7164C25.6961 36.7504 25.6879 36.7877 25.6884 36.8255C25.6886 36.8761 25.7055 36.9252 25.7366 36.9652C25.7912 37.0222 25.8603 37.063 25.9365 37.0833C26.086 37.1315 26.2386 37.1692 26.3933 37.196C26.5968 37.2253 26.7934 37.2909 26.9737 37.3897C27.1012 37.4602 27.2079 37.5631 27.2828 37.688C27.3451 37.7988 27.3775 37.9238 27.377 38.0508C27.3794 38.2134 27.3266 38.372 27.2271 38.5006C27.1125 38.6414 26.9608 38.7475 26.7891 38.8067C26.5621 38.8866 26.3225 38.9245 26.082 38.9186Z" fill="#20886F"/>
<path d="M28.0276 38.864C28.0098 38.8648 27.9919 38.8618 27.9753 38.8553C27.9586 38.8489 27.9435 38.839 27.9308 38.8263C27.9182 38.8137 27.9083 38.7986 27.9018 38.7819C27.8954 38.7652 27.8924 38.7474 27.8932 38.7296V35.1814C27.8924 35.1636 27.8954 35.1457 27.9018 35.1291C27.9083 35.1124 27.9182 35.0973 27.9308 35.0846C27.9435 35.072 27.9586 35.0621 27.9753 35.0556C27.9919 35.0492 28.0098 35.0462 28.0276 35.047H28.6081C28.6251 35.0467 28.642 35.0499 28.6577 35.0564C28.6734 35.0629 28.6876 35.0725 28.6995 35.0847C28.712 35.0974 28.7218 35.1126 28.7283 35.1292C28.7348 35.1458 28.7378 35.1636 28.7372 35.1814V36.3908C28.8348 36.2752 28.9556 36.1816 29.0918 36.1159C29.2503 36.0439 29.423 36.009 29.597 36.0137C29.7937 36.0099 29.9877 36.0591 30.1587 36.1562C30.3243 36.2538 30.4579 36.3976 30.543 36.57C30.6415 36.7751 30.6894 37.0009 30.6827 37.2283V38.7275C30.6835 38.7454 30.6805 38.7632 30.6741 38.7799C30.6676 38.7966 30.6577 38.8117 30.6451 38.8243C30.6324 38.837 30.6173 38.8469 30.6006 38.8533C30.584 38.8598 30.5661 38.8628 30.5483 38.862H29.9623C29.9454 38.8622 29.9286 38.8591 29.9129 38.8526C29.8972 38.8462 29.883 38.8366 29.8711 38.8245C29.8586 38.8118 29.8488 38.7967 29.8423 38.7801C29.8358 38.7634 29.8328 38.7456 29.8334 38.7278V37.2606C29.8433 37.1006 29.7935 36.9427 29.6937 36.8173C29.6432 36.7632 29.5814 36.7209 29.5126 36.6934C29.4438 36.666 29.3699 36.6541 29.296 36.6586C29.221 36.6553 29.1462 36.6678 29.0763 36.6951C29.0064 36.7224 28.943 36.764 28.8902 36.8173C28.8367 36.8775 28.7957 36.9476 28.7694 37.0237C28.7431 37.0998 28.7321 37.1803 28.737 37.2606V38.7278C28.7376 38.7456 28.7346 38.7634 28.7281 38.78C28.7216 38.7967 28.7118 38.8118 28.6993 38.8245C28.6874 38.8366 28.6731 38.8462 28.6574 38.8527C28.6417 38.8591 28.6248 38.8623 28.6078 38.862L28.0276 38.864Z" fill="#20886F"/>
<path d="M31.4408 35.6419C31.4238 35.6422 31.4069 35.639 31.3912 35.6326C31.3755 35.6261 31.3612 35.6166 31.3493 35.6044C31.3368 35.5917 31.3269 35.5766 31.3205 35.56C31.314 35.5433 31.311 35.5256 31.3116 35.5077V35.0777C31.3105 35.0407 31.3241 35.0048 31.3493 34.9778C31.3608 34.9649 31.3749 34.9546 31.3907 34.9477C31.4065 34.9408 31.4235 34.9373 31.4408 34.9375H32.005C32.0234 34.9372 32.0417 34.9406 32.0588 34.9475C32.0759 34.9544 32.0915 34.9647 32.1045 34.9777C32.1176 34.9908 32.1279 35.0063 32.1348 35.0234C32.1418 35.0404 32.1452 35.0588 32.1449 35.0772V35.5067C32.1456 35.5248 32.1423 35.5428 32.1353 35.5595C32.1283 35.5762 32.1178 35.5912 32.1044 35.6034C32.0774 35.6286 32.0415 35.6421 32.0045 35.6409L31.4408 35.6419ZM31.4568 38.8667C31.4398 38.867 31.423 38.8638 31.4073 38.8573C31.3916 38.8509 31.3774 38.8413 31.3656 38.8292C31.353 38.8165 31.3432 38.8014 31.3367 38.7848C31.3302 38.7681 31.3272 38.7504 31.3279 38.7325V36.2063C31.3272 36.1885 31.3302 36.1707 31.3367 36.1541C31.3432 36.1375 31.353 36.1223 31.3656 36.1096C31.3774 36.0975 31.3916 36.088 31.4073 36.0815C31.423 36.0751 31.4398 36.0719 31.4568 36.0722H31.9942C32.0121 36.0714 32.0299 36.0743 32.0466 36.0808C32.0633 36.0873 32.0784 36.0972 32.091 36.1098C32.1037 36.1225 32.1136 36.1376 32.12 36.1543C32.1265 36.1709 32.1294 36.1887 32.1287 36.2066V38.7325C32.1294 38.7504 32.1265 38.7682 32.12 38.7849C32.1136 38.8015 32.1037 38.8167 32.091 38.8293C32.0784 38.8419 32.0633 38.8518 32.0466 38.8583C32.0299 38.8648 32.0121 38.8677 31.9942 38.8669L31.4568 38.8667Z" fill="#20886F"/>
<path d="M33.2417 38.8686C33.2239 38.8694 33.206 38.8664 33.1894 38.8599C33.1727 38.8534 33.1576 38.8435 33.145 38.8309C33.1324 38.8183 33.1225 38.8032 33.116 38.7865C33.1095 38.7699 33.1065 38.7521 33.1073 38.7342V36.708H32.6883C32.6704 36.7088 32.6526 36.7059 32.6359 36.6994C32.6193 36.6929 32.6041 36.683 32.5915 36.6704C32.5788 36.6577 32.5689 36.6426 32.5625 36.6259C32.556 36.6093 32.5531 36.5915 32.5538 36.5736V36.2083C32.5531 36.1904 32.556 36.1726 32.5625 36.156C32.5689 36.1393 32.5788 36.1242 32.5915 36.1115C32.6041 36.0989 32.6193 36.089 32.6359 36.0825C32.6526 36.076 32.6704 36.0731 32.6883 36.0739H33.1073V35.8805C33.0994 35.6842 33.144 35.4893 33.2365 35.316C33.3221 35.1694 33.4545 35.0557 33.6125 34.9934C33.8064 34.9202 34.0128 34.8855 34.2199 34.8912H34.6125C34.6303 34.8905 34.6481 34.8935 34.6647 34.9C34.6813 34.9065 34.6964 34.9164 34.709 34.9291C34.7216 34.9417 34.7315 34.9568 34.738 34.9734C34.7444 34.9901 34.7474 35.0078 34.7467 35.0257V35.3905C34.7474 35.4083 34.7444 35.4261 34.738 35.4427C34.7315 35.4593 34.7216 35.4745 34.709 35.4871C34.6964 35.4997 34.6813 35.5096 34.6647 35.5161C34.6481 35.5226 34.6303 35.5256 34.6125 35.5249H34.2524C34.202 35.5192 34.1509 35.5249 34.103 35.5417C34.055 35.5584 34.0115 35.5857 33.9756 35.6216C33.918 35.7049 33.8905 35.8054 33.8976 35.9065V36.0731H34.5588C34.5766 36.0724 34.5944 36.0753 34.611 36.0818C34.6277 36.0883 34.6428 36.0982 34.6554 36.1109C34.668 36.1235 34.6779 36.1386 34.6843 36.1553C34.6908 36.1719 34.6937 36.1897 34.6929 36.2075V36.5728C34.6937 36.5907 34.6908 36.6085 34.6843 36.6251C34.6779 36.6418 34.668 36.6569 34.6554 36.6696C34.6428 36.6822 34.6277 36.6921 34.611 36.6986C34.5944 36.7051 34.5766 36.708 34.5588 36.7073H33.8976V38.7335C33.8983 38.7513 33.8953 38.7691 33.8889 38.7857C33.8824 38.8023 33.8726 38.8175 33.8601 38.8302C33.8482 38.8424 33.834 38.852 33.8183 38.8585C33.8026 38.8649 33.7857 38.8682 33.7687 38.8679L33.2417 38.8686Z" fill="#20886F"/>
<path d="M37.0034 38.2398C36.9916 38.2276 36.9773 38.218 36.9616 38.2115C36.9459 38.205 36.929 38.2018 36.912 38.2021H36.5194C36.4705 38.2072 36.4211 38.1992 36.3762 38.1789C36.3314 38.1587 36.2928 38.1268 36.2643 38.0866C36.2108 37.9889 36.1857 37.8781 36.1916 37.7668V36.7026H36.8635C36.8805 36.7029 36.8974 36.6997 36.9131 36.6932C36.9289 36.6867 36.9431 36.6771 36.9549 36.6649C36.9675 36.6522 36.9773 36.6371 36.9838 36.6204C36.9903 36.6038 36.9933 36.586 36.9927 36.5682V36.2029C36.9933 36.185 36.9903 36.1673 36.9838 36.1506C36.9773 36.134 36.9675 36.1189 36.9549 36.1062C36.9431 36.094 36.9289 36.0844 36.9131 36.0779C36.8974 36.0714 36.8805 36.0682 36.8635 36.0684H36.1916V35.1817C36.1924 35.1638 36.1895 35.1459 36.183 35.1292C36.1766 35.1126 36.1667 35.0974 36.1541 35.0847C36.1414 35.072 36.1263 35.0622 36.1096 35.0557C36.0929 35.0492 36.0751 35.0462 36.0572 35.047H35.5305C35.4954 35.0467 35.4616 35.0603 35.4365 35.0847C35.4232 35.097 35.4127 35.112 35.4058 35.1287C35.3988 35.1453 35.3956 35.1633 35.3963 35.1814V36.0682H35.9727C35.9906 36.0675 36.0084 36.0704 36.025 36.0769C36.0417 36.0834 36.0568 36.0933 36.0694 36.1059C36.0821 36.1186 36.0919 36.1337 36.0984 36.1503C36.1049 36.167 36.1079 36.1848 36.1072 36.2026V36.5679C36.1079 36.5858 36.1049 36.6036 36.0984 36.6202C36.0919 36.6369 36.0821 36.652 36.0694 36.6646C36.0568 36.6773 36.0417 36.6872 36.025 36.6937C36.0084 36.7001 35.9906 36.7031 35.9727 36.7024H35.3963V37.831C35.3892 38.0314 35.4307 38.2306 35.5172 38.4115C35.5943 38.5623 35.7203 38.6827 35.8745 38.7528C36.0541 38.8306 36.2486 38.8682 36.4442 38.863H36.912C36.929 38.8632 36.9459 38.86 36.9616 38.8535C36.9773 38.8471 36.9916 38.8374 37.0034 38.8252C37.0159 38.8125 37.0257 38.7974 37.0321 38.7808C37.0386 38.7641 37.0416 38.7464 37.0409 38.7285V38.3308C37.0412 38.3138 37.0379 38.2971 37.0315 38.2814C37.0251 38.2658 37.0155 38.2516 37.0034 38.2398Z" fill="#20886F"/>
<path d="M31.0909 32.7203L30.6816 34.3547C30.6791 34.3645 30.6735 34.3731 30.6655 34.3793C30.6575 34.3855 30.6477 34.3889 30.6376 34.3889H30.2568C30.2467 34.389 30.2368 34.3856 30.2287 34.3793C30.2207 34.3731 30.215 34.3643 30.2126 34.3544L29.9937 33.4691C29.9913 33.4593 29.9856 33.4506 29.9776 33.4444C29.9696 33.4381 29.9597 33.4347 29.9496 33.4347C29.9395 33.4347 29.9296 33.4381 29.9216 33.4444C29.9137 33.4506 29.908 33.4593 29.9055 33.4691L29.6849 34.3549C29.6824 34.3647 29.6767 34.3734 29.6686 34.3796C29.6606 34.3858 29.6508 34.3892 29.6406 34.3891H29.2596C29.2495 34.3891 29.2397 34.3857 29.2318 34.3795C29.2238 34.3733 29.2182 34.3647 29.2156 34.3549L28.8066 32.7205C28.8049 32.7138 28.8047 32.7068 28.8061 32.7001C28.8075 32.6933 28.8105 32.6869 28.8147 32.6815C28.819 32.676 28.8244 32.6716 28.8306 32.6686C28.8368 32.6656 28.8436 32.664 28.8506 32.6641H29.1559C29.1661 32.6641 29.176 32.6675 29.184 32.6738C29.1921 32.6801 29.1977 32.6889 29.2001 32.6988L29.3676 33.4047L29.426 33.6795C29.4283 33.6896 29.4339 33.6985 29.442 33.705C29.45 33.7114 29.4601 33.7149 29.4704 33.7149C29.4807 33.7149 29.4907 33.7114 29.4987 33.705C29.5068 33.6985 29.5124 33.6896 29.5147 33.6795L29.5732 33.4047L29.7408 32.6988C29.7432 32.6889 29.7489 32.6801 29.7569 32.6738C29.765 32.6675 29.7749 32.6641 29.7851 32.6641H30.1304C30.1405 32.664 30.1503 32.6674 30.1583 32.6736C30.1662 32.6798 30.1719 32.6885 30.1744 32.6983L30.3493 33.4047L30.4082 33.674C30.4105 33.6841 30.4162 33.6931 30.4242 33.6995C30.4323 33.7059 30.4423 33.7094 30.4526 33.7094C30.4629 33.7094 30.4729 33.7059 30.481 33.6995C30.489 33.6931 30.4947 33.6841 30.4969 33.674L30.5502 33.4057L30.7176 32.6998C30.72 32.6898 30.7256 32.681 30.7337 32.6747C30.7417 32.6684 30.7516 32.665 30.7618 32.665H31.0469C31.0537 32.6651 31.0603 32.6667 31.0664 32.6696C31.0725 32.6726 31.0778 32.6769 31.082 32.6822C31.0863 32.6875 31.0892 32.6937 31.0908 32.7002C31.0923 32.7068 31.0923 32.7137 31.0909 32.7203Z" fill="#FFAE32"/>
<path d="M31.3833 33.3391L31.3419 33.1914C31.3389 33.1805 31.3401 33.1688 31.3452 33.1587C31.3503 33.1486 31.359 33.1408 31.3696 33.1367C31.7714 32.983 32.3178 32.9788 32.3178 33.5115V34.3301C32.3178 34.3421 32.3129 34.3536 32.3044 34.3621C32.2959 34.3705 32.2844 34.3753 32.2724 34.3753H32.008C31.996 34.3753 31.9845 34.3706 31.976 34.3621C31.9675 34.3536 31.9628 34.3421 31.9628 34.3301C31.9627 34.3215 31.9603 34.3132 31.9558 34.306C31.9512 34.2988 31.9447 34.293 31.937 34.2893C31.9293 34.2856 31.9208 34.2841 31.9123 34.2851C31.9038 34.286 31.8957 34.2893 31.8891 34.2946C31.8028 34.3627 31.6959 34.3991 31.586 34.3978C31.54 34.3987 31.4942 34.3898 31.4518 34.3719C31.4094 34.354 31.3712 34.3274 31.3398 34.2937C31.3083 34.2601 31.2842 34.2203 31.2691 34.1768C31.2541 34.1333 31.2483 34.0871 31.2522 34.0412C31.2522 33.7599 31.5003 33.5795 31.9178 33.5785C31.9298 33.5785 31.9413 33.5737 31.9498 33.5652C31.9583 33.5567 31.963 33.5452 31.963 33.5333V33.524C31.963 33.2609 31.6944 33.2844 31.4403 33.3701C31.4345 33.3719 31.4285 33.3725 31.4224 33.3719C31.4164 33.3713 31.4106 33.3695 31.4053 33.3666C31.4 33.3637 31.3953 33.3598 31.3915 33.3551C31.3877 33.3504 31.385 33.3449 31.3833 33.3391ZM31.5847 33.996C31.5847 34.0864 31.6577 34.1289 31.7429 34.1289C31.8196 34.1287 31.8933 34.0994 31.9493 34.047C31.954 34.0428 31.9577 34.0376 31.9602 34.0318C31.9628 34.026 31.9641 34.0198 31.964 34.0135V33.8196C31.964 33.808 31.9596 33.7968 31.9516 33.7884C31.9436 33.78 31.9327 33.7749 31.9211 33.7744C31.6832 33.7671 31.5832 33.9033 31.5832 33.996H31.5847Z" fill="#FFAE32"/>
<path d="M32.5708 34.3284V32.7093C32.5708 32.6973 32.5756 32.6858 32.584 32.6773C32.5925 32.6688 32.604 32.6641 32.616 32.6641H32.8794C32.8853 32.664 32.8913 32.6652 32.8968 32.6674C32.9023 32.6697 32.9073 32.673 32.9115 32.6772C32.9158 32.6814 32.9191 32.6864 32.9214 32.6919C32.9237 32.6974 32.9249 32.7033 32.9249 32.7093V34.3284C32.9249 34.3405 32.9201 34.3521 32.9115 34.3606C32.903 34.3691 32.8914 34.3739 32.8794 34.3739H32.616C32.604 34.3738 32.5925 34.369 32.584 34.3605C32.5756 34.352 32.5708 34.3405 32.5708 34.3284Z" fill="#FFAE32"/>
<path d="M33.207 34.3284V32.7093C33.207 32.7033 33.2082 32.6974 33.2105 32.6919C33.2128 32.6864 33.2161 32.6814 33.2204 32.6772C33.2246 32.673 33.2296 32.6697 33.2351 32.6674C33.2406 32.6652 33.2465 32.664 33.2525 32.6641H33.5156C33.5216 32.664 33.5275 32.6652 33.533 32.6674C33.5385 32.6697 33.5435 32.673 33.5478 32.6772C33.552 32.6814 33.5554 32.6864 33.5576 32.6919C33.5599 32.6974 33.5611 32.7033 33.5611 32.7093V34.3284C33.5611 34.3405 33.5563 34.3521 33.5478 34.3606C33.5392 34.3691 33.5277 34.3739 33.5156 34.3739H33.2525C33.2404 34.3739 33.2289 34.3691 33.2204 34.3606C33.2118 34.3521 33.207 34.3405 33.207 34.3284Z" fill="#FFAE32"/>
<path d="M34.5574 34.1081C34.653 34.1103 34.7483 34.0967 34.8395 34.0679C34.8507 34.0642 34.8629 34.065 34.8736 34.0702C34.8842 34.0754 34.8924 34.0845 34.8964 34.0956L34.9524 34.2536C34.9562 34.2645 34.9558 34.2765 34.9512 34.2871C34.9465 34.2977 34.938 34.3062 34.9274 34.3108C34.789 34.3679 34.6403 34.3955 34.4906 34.392C34.3986 34.4021 34.3054 34.3915 34.218 34.3607C34.1306 34.3299 34.0513 34.2798 33.9859 34.2142C33.9205 34.1486 33.8707 34.0691 33.8403 33.9816C33.8098 33.8941 33.7995 33.8009 33.81 33.7088C33.7991 33.6226 33.8067 33.535 33.8325 33.452C33.8582 33.3689 33.9015 33.2924 33.9593 33.2275C34.0171 33.1625 34.0881 33.1107 34.1676 33.0755C34.2471 33.0403 34.3332 33.0226 34.4202 33.0235C34.7832 33.0235 35.0024 33.3028 34.9409 33.7398C34.9394 33.7507 34.934 33.7607 34.9257 33.7679C34.9175 33.7752 34.9069 33.7792 34.8959 33.7793H34.2295C34.223 33.7793 34.2165 33.7808 34.2105 33.7835C34.2046 33.7863 34.1993 33.7903 34.1951 33.7953C34.1908 33.8003 34.1877 33.8061 34.1858 33.8124C34.184 33.8187 34.1836 33.8253 34.1845 33.8318C34.2103 33.9984 34.3155 34.1081 34.5574 34.1081ZM34.4117 33.2696C34.2867 33.2696 34.204 33.3723 34.183 33.5164C34.1821 33.5229 34.1826 33.5295 34.1844 33.5357C34.1862 33.542 34.1894 33.5478 34.1937 33.5527C34.1979 33.5576 34.2032 33.5616 34.2091 33.5643C34.2151 33.567 34.2215 33.5684 34.228 33.5684H34.5828C34.5892 33.5684 34.5955 33.5671 34.6013 33.5645C34.6071 33.5619 34.6123 33.5582 34.6166 33.5535C34.6209 33.5488 34.6241 33.5432 34.6262 33.5372C34.6282 33.5311 34.6289 33.5248 34.6283 33.5184C34.6148 33.3625 34.5371 33.2696 34.4117 33.2696Z" fill="#FFAE32"/>
<path d="M35.9763 34.1022C35.971 34.0967 35.9646 34.0924 35.9576 34.0896C35.9505 34.0867 35.9429 34.0853 35.9353 34.0854H35.7604C35.7385 34.0877 35.7163 34.0841 35.6962 34.075C35.6761 34.0659 35.6588 34.0517 35.646 34.0337C35.622 33.99 35.6108 33.9404 35.6135 33.8906V33.4138H35.9133C35.921 33.4139 35.9285 33.4125 35.9356 33.4096C35.9426 33.4066 35.949 33.4023 35.9543 33.3968C35.9599 33.3911 35.9643 33.3843 35.9672 33.3768C35.97 33.3693 35.9714 33.3613 35.9711 33.3533V33.1897C35.9713 33.1817 35.97 33.1738 35.9671 33.1663C35.9642 33.1589 35.9599 33.1522 35.9543 33.1465C35.949 33.141 35.9426 33.1366 35.9356 33.1337C35.9285 33.1308 35.921 33.1293 35.9133 33.1295H35.6135V32.7322C35.6139 32.7241 35.6125 32.7161 35.6096 32.7086C35.6067 32.7012 35.6023 32.6944 35.5966 32.6887C35.5909 32.683 35.5841 32.6786 35.5766 32.6757C35.5691 32.6728 35.561 32.6716 35.553 32.6719H35.3171C35.3015 32.6718 35.2864 32.678 35.2752 32.6889C35.2693 32.6944 35.2646 32.7012 35.2615 32.7086C35.2584 32.7161 35.2569 32.7241 35.2572 32.7322V33.1295H35.5155C35.5235 33.1292 35.5315 33.1305 35.5389 33.1335C35.5464 33.1364 35.5531 33.1408 35.5588 33.1465C35.5643 33.1522 35.5687 33.1589 35.5716 33.1663C35.5744 33.1738 35.5758 33.1817 35.5755 33.1897V33.3533C35.5758 33.3613 35.5745 33.3693 35.5716 33.3768C35.5687 33.3843 35.5644 33.3911 35.5588 33.3968C35.5531 33.4024 35.5464 33.4069 35.5389 33.4098C35.5315 33.4127 35.5235 33.4141 35.5155 33.4138H35.2572V33.9195C35.254 34.0094 35.2726 34.0986 35.3114 34.1797C35.346 34.2473 35.4024 34.3012 35.4716 34.3326C35.552 34.3676 35.6392 34.3847 35.7269 34.3826H35.9366C35.9442 34.3827 35.9518 34.3812 35.9588 34.3783C35.9659 34.3754 35.9722 34.3711 35.9775 34.3656C35.9832 34.3599 35.9876 34.353 35.9904 34.3456C35.9933 34.3381 35.9946 34.3301 35.9943 34.3221V34.1439C35.9944 34.1361 35.9928 34.1283 35.9897 34.1212C35.9866 34.114 35.9821 34.1075 35.9763 34.1022Z" fill="#FFAE32"/>
</svg>
