<svg width="41" height="41" viewBox="0 0 41 41" fill="none" xmlns="http://www.w3.org/2000/svg">
<mask id="mask0_6737_724" style="mask-type:luminance" maskUnits="userSpaceOnUse" x="0" y="0" width="41" height="41">
<path d="M0 0H41V41H0V0Z" fill="white"/>
</mask>
<g mask="url(#mask0_6737_724)">
<path d="M33.7941 3.13281H17.7107L17.1499 4.82193V28.7036L17.7107 30.3927H33.7941C34.2544 30.3925 34.6957 30.2096 35.0211 29.8842C35.3466 29.5587 35.5295 29.1174 35.5296 28.6572V4.86832C35.5295 4.40809 35.3466 3.96676 35.0211 3.64133C34.6957 3.3159 34.2544 3.13299 33.7941 3.13281Z" fill="white"/>
<path d="M38.6638 3.13281H33.5938C34.054 3.13299 34.4953 3.3159 34.8207 3.64133C35.1462 3.96676 35.3291 4.40809 35.3293 4.86832V28.6572C35.3293 29.1175 35.1464 29.5589 34.8209 29.8844C34.4955 30.2098 34.054 30.3927 33.5938 30.3927H38.6638C39.1241 30.3927 39.5656 30.2098 39.891 29.8844C40.2165 29.5589 40.3993 29.1175 40.3993 28.6572V4.86832C40.3992 4.40809 40.2163 3.96676 39.8908 3.64133C39.5654 3.3159 39.1241 3.13299 38.6638 3.13281Z" fill="white"/>
<path d="M5.42262 3.13281C4.96257 3.13317 4.52149 3.31618 4.19631 3.64161C3.87114 3.96704 3.68848 4.40827 3.68848 4.86832V28.6572C3.68848 29.1175 3.87132 29.5589 4.19679 29.8844C4.52226 30.2098 4.9637 30.3927 5.42398 30.3927H17.711V3.13281H5.42262Z" fill="white"/>
<path d="M8.23579 33.2794C8.97948 32.2874 9.38139 31.081 9.38119 29.8411V22.9585C9.38121 22.9051 9.3604 22.8539 9.32319 22.8156C9.28598 22.7774 9.23532 22.7552 9.18199 22.7538C9.18211 22.5614 9.14347 22.3709 9.06838 22.1938C8.99329 22.0167 8.88329 21.8565 8.74494 21.7228C8.60659 21.5891 8.44272 21.4846 8.26312 21.4156C8.08352 21.3466 7.89186 21.3145 7.69958 21.3212C7.3254 21.3403 6.9731 21.5034 6.7163 21.7762C6.4595 22.049 6.31806 22.4105 6.32154 22.7852V24.1632C6.32166 23.9708 6.28302 23.7804 6.20793 23.6032C6.13284 23.4261 6.02284 23.2659 5.88449 23.1322C5.74614 22.9985 5.58228 22.894 5.40268 22.825C5.22307 22.756 5.03141 22.7239 4.83913 22.7306C4.46507 22.7498 4.11287 22.9127 3.85609 23.1854C3.5993 23.458 3.45779 23.8194 3.46109 24.1939V24.9859C3.46121 24.7935 3.42257 24.6031 3.34748 24.426C3.27239 24.2488 3.16239 24.0886 3.02404 23.9549C2.88569 23.8212 2.72183 23.7167 2.54223 23.6478C2.36262 23.5788 2.17096 23.5466 1.97868 23.5533C1.60456 23.5727 1.25236 23.7357 0.995595 24.0085C0.738827 24.2813 0.59733 24.6427 0.600643 25.0173V29.6563C0.600442 30.4333 0.758272 31.2022 1.06454 31.9164L2.28226 34.7946C2.5218 35.3607 2.64521 35.9692 2.64519 36.584V37.1761H6.46549C6.53957 36.0708 6.93245 35.0106 7.59657 34.124L8.23579 33.2794Z" fill="#FFF0DC"/>
<path d="M12.973 24.21C12.8222 24.208 12.6721 24.2298 12.5282 24.2748C12.4729 24.2931 12.4141 24.298 12.3566 24.2893C12.299 24.2805 12.2444 24.2582 12.1971 24.2243C12.1498 24.1904 12.1112 24.1457 12.0844 24.094C12.0577 24.0424 12.0435 23.9851 12.0432 23.9269V15.8633C12.0465 15.4887 11.905 15.1273 11.6482 14.8545C11.3914 14.5817 11.0392 14.4186 10.6651 14.3993C10.4728 14.3926 10.2812 14.4247 10.1016 14.4937C9.92197 14.5627 9.7581 14.6672 9.61975 14.8009C9.4814 14.9346 9.37141 15.0948 9.29632 15.2719C9.22123 15.4491 9.18258 15.6395 9.1827 15.8319V22.7624C9.1827 22.7548 9.1827 22.7473 9.1827 22.7392V29.8511C9.1829 31.0909 8.78099 32.2973 8.03729 33.2893L7.40012 34.1393C6.736 35.026 6.34313 36.0862 6.26904 37.1915H11.4728C11.7075 33.7123 14.3865 33.4994 14.3865 29.8517V25.6787C14.3859 25.2995 14.2385 24.9351 13.9753 24.6621C13.712 24.3891 13.3533 24.2285 12.9743 24.2141" fill="#FFE4C0"/>
<path d="M7.81921 36.973V35.1406H2.45578C2.21882 35.1403 1.9914 35.234 1.82346 35.4011C1.65551 35.5683 1.56078 35.7953 1.56006 36.0323V36.9696C1.56006 37.2068 1.65428 37.4343 1.82201 37.602C1.98973 37.7697 2.21722 37.864 2.45442 37.864H6.92349C7.16068 37.864 7.38817 37.7697 7.55589 37.602C7.72362 37.4343 7.81784 37.2068 7.81784 36.9696" fill="#20886F"/>
<path d="M11.7937 35.1406H7.61799V36.973C7.61826 37.0906 7.59533 37.2071 7.5505 37.3159C7.50568 37.4246 7.43984 37.5235 7.35676 37.6067C7.27369 37.69 7.175 37.7561 7.06636 37.8011C6.95772 37.8462 6.84125 37.8694 6.72363 37.8694H11.7937C12.0309 37.8694 12.2584 37.7752 12.4261 37.6075C12.5938 37.4397 12.6881 37.2122 12.6881 36.9751V36.035C12.6881 35.7978 12.5938 35.5703 12.4261 35.4026C12.2584 35.2349 12.0309 35.1406 11.7937 35.1406Z" fill="#20886F"/>
<path d="M35.5287 6.28906H21.6849C21.4399 6.28906 21.205 6.38638 21.0318 6.55961C20.8585 6.73283 20.7612 6.96778 20.7612 7.21276V17.3372C20.7612 17.5822 20.8585 17.8172 21.0318 17.9904C21.205 18.1636 21.4399 18.2609 21.6849 18.2609H35.5287V6.28906Z" fill="#F0F0F0"/>
<path d="M36.3347 6.28906H35.3291V18.2602H36.3347C36.5796 18.2602 36.8146 18.1629 36.9878 17.9897C37.161 17.8165 37.2584 17.5815 37.2584 17.3366V7.21276C37.2584 6.96778 37.161 6.73283 36.9878 6.55961C36.8146 6.38638 36.5796 6.28906 36.3347 6.28906Z" fill="#F0ECEF"/>
<path d="M22.1807 22.3984H23.6133" stroke="#20886F" stroke-width="1.5" stroke-miterlimit="10" stroke-linecap="round" stroke-linejoin="round"/>
<path d="M26.2568 22.3984H27.6894" stroke="#20886F" stroke-width="1.5" stroke-miterlimit="10" stroke-linecap="round" stroke-linejoin="round"/>
<path d="M30.333 22.3984H31.7656" stroke="#20886F" stroke-width="1.5" stroke-miterlimit="10" stroke-linecap="round" stroke-linejoin="round"/>
<path d="M34.4087 22.3984H35.8413" stroke="#20886F" stroke-width="1.5" stroke-miterlimit="10" stroke-linecap="round" stroke-linejoin="round"/>
<path d="M22.1807 25.1797H23.6133" stroke="#20886F" stroke-width="1.5" stroke-miterlimit="10" stroke-linecap="round" stroke-linejoin="round"/>
<path d="M26.2568 25.1797H27.6894" stroke="#20886F" stroke-width="1.5" stroke-miterlimit="10" stroke-linecap="round" stroke-linejoin="round"/>
<path d="M30.333 25.1797H31.7656" stroke="#20886F" stroke-width="1.5" stroke-miterlimit="10" stroke-linecap="round" stroke-linejoin="round"/>
<path d="M34.4087 25.1797H35.8413" stroke="#20886F" stroke-width="1.5" stroke-miterlimit="10" stroke-linecap="round" stroke-linejoin="round"/>
<path d="M17.7109 29.8851V30.3934H38.6639C39.1242 30.3934 39.5656 30.2105 39.8911 29.8851C40.2166 29.5596 40.3994 29.1182 40.3994 28.6579V4.869C40.3994 4.40865 40.2166 3.96716 39.8911 3.64158C39.5657 3.316 39.1243 3.13299 38.6639 3.13281H17.7075" stroke="#20886F" stroke-width="1.5" stroke-miterlimit="10" stroke-linecap="round" stroke-linejoin="round"/>
<path d="M0.600623 27.2031C0.59781 28.3112 0.754034 29.414 1.06452 30.4777L2.28224 34.6452C2.33067 34.811 2.37297 34.9795 2.41185 35.15" stroke="#20886F" stroke-miterlimit="10" stroke-linecap="round" stroke-linejoin="round"/>
<path d="M11.9845 35.1688C12.7199 33.5718 14.1197 32.8595 14.3571 30.3934C14.3749 30.2113 14.3844 30.0284 14.3844 29.8476V25.6747C14.3838 25.2954 14.2365 24.9311 13.9732 24.658C13.71 24.385 13.3513 24.2244 12.9723 24.21C12.8215 24.208 12.6714 24.2299 12.5275 24.2748C12.4722 24.2931 12.4134 24.298 12.3559 24.2893C12.2983 24.2805 12.2437 24.2582 12.1964 24.2243C12.1491 24.1904 12.1105 24.1458 12.0837 24.0941C12.057 24.0424 12.0428 23.9851 12.0424 23.9269V15.8633C12.0459 15.4886 11.9045 15.1271 11.6477 14.8543C11.3909 14.5815 11.0386 14.4185 10.6644 14.3993C10.4721 14.3926 10.2805 14.4247 10.1009 14.4937C9.92126 14.5627 9.7574 14.6672 9.61905 14.8009C9.4807 14.9346 9.3707 15.0948 9.29561 15.2719C9.22052 15.4491 9.18188 15.6395 9.182 15.8319V22.7623C9.18211 22.57 9.14347 22.3795 9.06838 22.2024C8.99329 22.0252 8.88328 21.865 8.74493 21.7313C8.60658 21.5976 8.44272 21.4931 8.26312 21.4241C8.08352 21.3552 7.89186 21.323 7.69958 21.3297C7.3254 21.3489 6.9731 21.5119 6.7163 21.7848C6.4595 22.0576 6.31806 22.4191 6.32154 22.7937V24.1718C6.32166 23.9794 6.28302 23.7889 6.20793 23.6118C6.13284 23.4346 6.02284 23.2744 5.88449 23.1407C5.74614 23.007 5.58228 22.9026 5.40268 22.8336C5.22307 22.7646 5.03141 22.7325 4.83913 22.7392C4.60553 22.7491 4.37801 22.8166 4.17676 22.9356C3.97551 23.0546 3.80678 23.2214 3.68554 23.4214C3.53887 23.6567 3.46112 23.9285 3.4611 24.2059V24.9979C3.46121 24.8055 3.42257 24.6151 3.34748 24.4379C3.27239 24.2608 3.16239 24.1006 3.02404 23.9669C2.88569 23.8332 2.72182 23.7287 2.54222 23.6597C2.36262 23.5907 2.17096 23.5586 1.97868 23.5653C1.60462 23.5845 1.25242 23.7474 0.995641 24.0201C0.738857 24.2927 0.597337 24.6541 0.600643 25.0286V26.8358" stroke="#20886F" stroke-miterlimit="10" stroke-linecap="round" stroke-linejoin="round"/>
<path d="M2.45608 35.1406C2.44175 35.1406 2.42743 35.1406 2.41242 35.1406C2.18304 35.1515 1.96665 35.2502 1.80813 35.4164C1.64961 35.5825 1.56113 35.8033 1.56104 36.0329V36.973C1.56077 37.0907 1.58373 37.2073 1.62859 37.316C1.67346 37.4248 1.73936 37.5237 1.82251 37.607C1.90565 37.6903 2.00442 37.7563 2.11314 37.8013C2.22186 37.8464 2.3384 37.8695 2.45608 37.8694H11.7947C11.9123 37.8694 12.0288 37.8462 12.1374 37.8011C12.246 37.7561 12.3447 37.69 12.4278 37.6067C12.5109 37.5235 12.5767 37.4246 12.6215 37.3159C12.6664 37.2071 12.6893 37.0906 12.689 36.973V36.035C12.6889 35.831 12.619 35.6331 12.4909 35.4743C12.3629 35.3155 12.1843 35.2052 11.985 35.1618C11.9225 35.1479 11.8587 35.1409 11.7947 35.1406H2.45608Z" stroke="#20886F" stroke-miterlimit="10" stroke-linecap="round" stroke-linejoin="round"/>
<path d="M15.6552 30.3941H17.7106V3.13281H5.42223C5.19427 3.13272 4.96851 3.17754 4.75787 3.26472C4.54723 3.3519 4.35583 3.47971 4.1946 3.64088C4.03337 3.80204 3.90547 3.99341 3.81821 4.20401C3.73095 4.41462 3.68604 4.64036 3.68604 4.86832V21.825" stroke="#20886F" stroke-width="1.5" stroke-miterlimit="10" stroke-linecap="round" stroke-linejoin="round"/>
</g>
<path d="M29.5329 16.4677C31.6432 16.4677 33.3539 14.8048 33.3539 12.7534C33.3539 10.702 31.6432 9.03906 29.5329 9.03906C27.4226 9.03906 25.7119 10.702 25.7119 12.7534C25.7119 14.8048 27.4226 16.4677 29.5329 16.4677Z" fill="#20886F"/>
<path d="M28.462 13.5578C28.2 13.894 26.7109 14.1215 26.7109 14.1215L28.17 10.7188C28.17 10.7188 28.9465 12.9445 28.462 13.5578Z" fill="#DEDEDF"/>
<path d="M30.5999 13.4787C30.8618 13.8148 32.3558 14.1215 32.3558 14.1215L30.8967 10.7188C30.8967 10.7188 30.1153 12.8654 30.5999 13.4787Z" fill="#DEDEDF"/>
<path d="M28.4056 11.916C28.4795 11.916 28.5393 11.7477 28.5393 11.54C28.5393 11.3324 28.4795 11.1641 28.4056 11.1641C28.3318 11.1641 28.272 11.3324 28.272 11.54C28.272 11.7477 28.3318 11.916 28.4056 11.916Z" fill="#EDD1BE"/>
<path d="M30.661 11.916C30.7348 11.916 30.7947 11.7477 30.7947 11.54C30.7947 11.3324 30.7348 11.1641 30.661 11.1641C30.5872 11.1641 30.5273 11.3324 30.5273 11.54C30.5273 11.7477 30.5872 11.916 30.661 11.916Z" fill="#EDD1BE"/>
<path d="M28.6128 12.6016H30.4528V13.3977H28.6128V12.6016Z" fill="#EDD1BE"/>
<path d="M28.6384 10.4531C28.4807 10.7675 28.4009 11.1153 28.406 11.467C28.406 12.387 28.9107 13.134 29.5339 13.134C30.157 13.134 30.6617 12.387 30.6617 11.467C30.6642 11.1155 30.5844 10.7683 30.4288 10.4531H28.6384Z" fill="#FAE3D3"/>
<path d="M26.0977 14.4075C26.4053 15.0273 26.8799 15.5489 27.468 15.9136C28.056 16.2783 28.7342 16.4715 29.4262 16.4716H29.4886V13.8045L28.26 13.4531C28.26 13.4531 26.1915 14.3284 26.0977 14.4075Z" fill="#595D68"/>
<path d="M30.8028 13.4531L29.3486 13.8045V16.4554C29.4456 16.4652 29.5431 16.4701 29.6406 16.4701C30.3325 16.47 31.0107 16.2768 31.5988 15.9121C32.1869 15.5475 32.6615 15.0259 32.9691 14.406C32.8752 14.3284 30.8028 13.4531 30.8028 13.4531Z" fill="#454956"/>
<path d="M30.676 13.371L30.4843 12.8516C30.4843 13.1386 30.0587 13.371 29.5348 13.371C29.0109 13.371 28.5854 13.1386 28.5854 12.8516L28.3922 13.371C28.381 13.3977 28.3744 13.4261 28.3726 13.4551C28.3726 13.7421 28.892 13.9745 29.5348 13.9745C30.1776 13.9745 30.6971 13.7421 30.6971 13.4551C30.6948 13.4261 30.6877 13.3977 30.676 13.371Z" fill="#343746"/>
<path d="M29.5543 13.3594L29.5248 13.958C29.3245 13.96 29.1248 13.9351 28.9312 13.8837C28.9312 13.8837 29.312 13.9383 29.3961 13.8046C29.469 13.6642 29.5222 13.5143 29.5543 13.3594Z" fill="#242835"/>
<path d="M29.5332 14.4942C29.6179 14.4942 29.6865 14.4255 29.6865 14.3408C29.6865 14.2561 29.6179 14.1875 29.5332 14.1875C29.4485 14.1875 29.3799 14.2561 29.3799 14.3408C29.3799 14.4255 29.4485 14.4942 29.5332 14.4942Z" fill="#343746"/>
<path d="M29.5332 15.4004C29.6179 15.4004 29.6865 15.3318 29.6865 15.2471C29.6865 15.1624 29.6179 15.0938 29.5332 15.0938C29.4485 15.0938 29.3799 15.1624 29.3799 15.2471C29.3799 15.3318 29.4485 15.4004 29.5332 15.4004Z" fill="#343746"/>
<path d="M29.5332 16.2988C29.6179 16.2988 29.6865 16.2302 29.6865 16.1455C29.6865 16.0608 29.6179 15.9922 29.5332 15.9922C29.4485 15.9922 29.3799 16.0608 29.3799 16.1455C29.3799 16.2302 29.4485 16.2988 29.5332 16.2988Z" fill="#343746"/>
<path d="M30.6564 11.4424C30.6766 11.6943 30.638 11.9474 30.5436 12.1818C30.4492 12.4162 30.3015 12.6254 30.1123 12.7929C30.048 12.8224 30.0283 12.3624 30.0283 12.3624L29.6081 12.1747L29.5339 12.2042L29.4597 12.1747L29.0444 12.3575C29.0444 12.3575 29.0248 12.8175 28.9604 12.788C28.7701 12.6213 28.6217 12.4123 28.5271 12.1777C28.4325 11.9431 28.3944 11.6895 28.4159 11.4375C28.3716 11.907 28.4735 12.3787 28.7078 12.788C28.7826 12.9435 28.8998 13.0747 29.0459 13.1665C29.192 13.2583 29.3611 13.3071 29.5337 13.3071C29.7062 13.3071 29.8753 13.2583 30.0214 13.1665C30.1675 13.0747 30.2847 12.9435 30.3595 12.788C30.597 12.3816 30.7008 11.911 30.6564 11.4424ZM29.7364 13.045C29.499 13.1787 29.6769 12.7531 29.6769 12.7531H29.385C29.385 12.7531 29.5629 13.1787 29.3255 13.045C29.2296 12.9723 29.1572 12.8729 29.1176 12.7592C29.078 12.6456 29.0729 12.5227 29.1029 12.4061L29.5285 12.3766L29.9541 12.4061C29.9866 12.5222 29.9832 12.6453 29.9444 12.7594C29.9055 12.8734 29.833 12.973 29.7364 13.045Z" fill="#333842"/>
<path d="M30.6874 10.8095C30.7491 10.9081 30.7818 11.0221 30.7818 11.1385C30.7818 11.2548 30.7491 11.3688 30.6874 11.4675C30.6874 11.4675 30.5242 10.8242 30.4004 10.75L30.6874 10.8095Z" fill="#333842"/>
<path d="M28.379 10.809C28.3174 10.9076 28.2847 11.0216 28.2847 11.138C28.2847 11.2543 28.3174 11.3684 28.379 11.467C28.379 11.467 28.5422 10.8242 28.6661 10.75L28.379 10.809Z" fill="#333842"/>
<path d="M32.969 14.4037C32.8412 14.2847 32.0092 13.5033 31.9861 13.1623C31.9606 12.7912 31.6421 11.1346 31.3379 10.9267C31.0337 10.7188 31.1236 10.3478 30.9143 10.2342C30.6946 10.1153 30.4292 9.34375 29.5382 9.34375C28.6473 9.34375 28.375 10.1134 28.1622 10.2264C27.9494 10.3394 28.0398 10.706 27.7386 10.9188C27.4373 11.1316 27.1159 12.7863 27.0904 13.1544C27.0648 13.4955 26.2279 14.2774 26.1001 14.3958C26.1001 14.4007 26.105 14.4007 26.105 14.4056L26.9218 14.099C27.8555 13.5746 28.1062 11.339 28.1878 11.0771C28.2693 10.8151 29.178 10.8397 29.178 10.8397L29.5304 10.538L29.8827 10.8397C29.8827 10.8397 30.7914 10.8151 30.873 11.0771C30.9546 11.339 31.2047 13.5746 32.139 14.099L32.9557 14.4056C32.9641 14.4066 32.9641 14.4037 32.969 14.4037Z" fill="white"/>
<path d="M30.8361 9.6875H28.2314C28.1923 9.6875 28.1548 9.70303 28.1272 9.73068C28.0995 9.75833 28.084 9.79583 28.084 9.83493C28.084 9.87404 28.0995 9.91153 28.1272 9.93918C28.1548 9.96683 28.1923 9.98237 28.2314 9.98237H30.8361C30.8752 9.98237 30.9127 9.96683 30.9403 9.93918C30.968 9.91153 30.9835 9.87404 30.9835 9.83493C30.9835 9.79583 30.968 9.75833 30.9403 9.73068C30.9127 9.70303 30.8752 9.6875 30.8361 9.6875Z" fill="#414753"/>
<path d="M30.9484 9.98438H28.1191C28.08 9.98438 28.0425 9.99991 28.0149 10.0276C27.9872 10.0552 27.9717 10.0927 27.9717 10.1318C27.9717 10.1709 27.9872 10.2084 28.0149 10.2361C28.0425 10.2637 28.08 10.2792 28.1191 10.2792H30.9484C30.9875 10.2792 31.025 10.2637 31.0526 10.2361C31.0803 10.2084 31.0958 10.1709 31.0958 10.1318C31.0958 10.0927 31.0803 10.0552 31.0526 10.0276C31.025 9.99991 30.9875 9.98438 30.9484 9.98438Z" fill="#333842"/>
</svg>
