<svg width="16" height="16" viewBox="0 0 16 16" fill="none" xmlns="http://www.w3.org/2000/svg">
<path fill-rule="evenodd" clip-rule="evenodd" d="M3 14.3333C3 14.2449 3.03512 14.1601 3.09763 14.0976C3.16014 14.0351 3.24493 14 3.33333 14H13.3333C13.4217 14 13.5065 14.0351 13.569 14.0976C13.6315 14.1601 13.6667 14.2449 13.6667 14.3333C13.6667 14.4217 13.6315 14.5065 13.569 14.569C13.5065 14.6315 13.4217 14.6667 13.3333 14.6667H3.33333C3.24493 14.6667 3.16014 14.6315 3.09763 14.569C3.03512 14.5065 3 14.4217 3 14.3333Z" fill="#1E866F"/>
<path fill-rule="evenodd" clip-rule="evenodd" d="M4.33341 7.33073V13.9974H6.00008V7.33073H4.33341ZM4.00008 6.66406C3.91168 6.66406 3.82689 6.69918 3.76438 6.76169C3.70187 6.82421 3.66675 6.90899 3.66675 6.9974V14.3307C3.66675 14.4191 3.70187 14.5039 3.76438 14.5664C3.82689 14.6289 3.91168 14.6641 4.00008 14.6641H6.33341C6.42182 14.6641 6.50661 14.6289 6.56912 14.5664C6.63163 14.5039 6.66675 14.4191 6.66675 14.3307V6.9974C6.66675 6.90899 6.63163 6.82421 6.56912 6.76169C6.50661 6.69918 6.42182 6.66406 6.33341 6.66406H4.00008Z" fill="#1E866F"/>
<path fill-rule="evenodd" clip-rule="evenodd" d="M6 1.33203L11.3333 3.33203V7.9987H10.6667V3.79403L6.66667 2.29403V13.9987H9.33333C9.33333 14.0871 9.36845 14.1719 9.43096 14.2344C9.49348 14.2969 9.57826 14.332 9.66667 14.332H11.3333V14.6654H6V1.33203Z" fill="#1E866F"/>
<path d="M7 4.33203H7.66667V4.9987H7V4.33203ZM8.33333 4.33203H9V4.9987H8.33333V4.33203ZM9.66667 4.33203H10.3333V4.9987H9.66667V4.33203ZM7 5.66536H7.66667V6.33203H7V5.66536ZM8.33333 5.66536H9V6.33203H8.33333V5.66536ZM9.66667 5.66536H10.3333V6.33203H9.66667V5.66536ZM7 6.9987H7.66667V7.66536H7V6.9987ZM8.33333 6.9987H9V7.66536H8.33333V6.9987ZM9.66667 6.9987H10.3333V7.66536H9.66667V6.9987ZM7 8.33203H7.66667V8.9987H7V8.33203ZM8.33333 8.33203H9V8.9987H8.33333V8.33203ZM7 9.66536H7.66667V10.332H7V9.66536ZM8.33333 9.66536H9V10.332H8.33333V9.66536ZM7 10.9987H7.66667V11.6654H7V10.9987ZM8.33333 10.9987H9V11.6654H8.33333V10.9987ZM7 12.332H7.66667V12.9987H7V12.332ZM8.33333 12.332H9V12.9987H8.33333V12.332Z" fill="#1E866F"/>
<path fill-rule="evenodd" clip-rule="evenodd" d="M9.99992 8.66667V14H12.3333V8.66667H9.99992ZM9.66659 8C9.57818 8 9.49339 8.03512 9.43088 8.09763C9.36837 8.16014 9.33325 8.24493 9.33325 8.33333V14.3333C9.33325 14.4217 9.36837 14.5065 9.43088 14.569C9.49339 14.6315 9.57818 14.6667 9.66659 14.6667H12.6666C12.755 14.6667 12.8398 14.6315 12.9023 14.569C12.9648 14.5065 12.9999 14.4217 12.9999 14.3333V8.33333C12.9999 8.24493 12.9648 8.16014 12.9023 8.09763C12.8398 8.03512 12.755 8 12.6666 8H9.66659Z" fill="#1E866F"/>
<path fill-rule="evenodd" clip-rule="evenodd" d="M11.6667 9.9987H10.6667V9.33203H11.6667V9.9987ZM11.6667 11.332H10.6667V10.6654H11.6667V11.332ZM11.6667 12.6654H10.6667V11.9987H11.6667V12.6654ZM11.6667 13.9987H10.6667V13.332H11.6667V13.9987ZM5.33341 4.33203V7.33203H4.66675V4.33203H5.33341Z" fill="#1E866F"/>
</svg>
