<svg width="14" height="16" viewBox="0 0 14 16" fill="none" xmlns="http://www.w3.org/2000/svg">
<path d="M10.8406 15.425V3.13438H8.79375V1.6H7.25625V0.0625H6.74375V1.6H5.20625V3.1375H3.15938V15.4281H0.34375V15.9375H13.6562V15.425H10.8406ZM5.71875 2.10938H8.28125V3.13438H5.71875V2.10938ZM8.025 15.425H5.97813V13.3781C5.97813 12.8125 6.4375 12.3531 7.00313 12.3531C7.56875 12.3531 8.02812 12.8125 8.02812 13.3781V15.425H8.025ZM10.3281 15.425H8.53438V13.3781C8.53438 12.5312 7.84375 11.8406 6.99687 11.8406C6.15 11.8406 5.45937 12.5312 5.45937 13.3781V15.425H3.66563V3.64687H10.3219V15.425H10.3281Z" fill="#1E866F"/>
<path d="M4.44067 4.67188H4.95317V5.18437H4.44067V4.67188ZM5.97505 4.67188H6.48755V5.18437H5.97505V4.67188ZM7.51255 4.67188H8.02505V5.18437H7.51255V4.67188ZM9.04692 4.67188H9.55942V5.18437H9.04692V4.67188ZM4.44067 5.95312H4.95317V6.46562H4.44067V5.95312ZM5.97505 5.95312H6.48755V6.46562H5.97505V5.95312ZM7.51255 5.95312H8.02505V6.46562H7.51255V5.95312ZM9.04692 5.95312H9.55942V6.46562H9.04692V5.95312ZM4.44067 7.23125H4.95317V7.74375H4.44067V7.23125ZM5.97505 7.23125H6.48755V7.74375H5.97505V7.23125ZM7.51255 7.23125H8.02505V7.74375H7.51255V7.23125ZM9.04692 7.23125H9.55942V7.74375H9.04692V7.23125ZM4.44067 8.5125H4.95317V9.025H4.44067V8.5125ZM5.97505 8.5125H6.48755V9.025H5.97505V8.5125ZM7.51255 8.5125H8.02505V9.025H7.51255V8.5125ZM9.04692 8.5125H9.55942V9.025H9.04692V8.5125ZM4.44067 9.79375H4.95317V10.3062H4.44067V9.79375ZM5.97505 9.79375H6.48755V10.3062H5.97505V9.79375ZM7.51255 9.79375H8.02505V10.3062H7.51255V9.79375ZM9.04692 9.79375H9.55942V10.3062H9.04692V9.79375ZM4.44067 11.0719H4.95317V11.5844H4.44067V11.0719ZM5.97505 11.0719H6.48755V11.5844H5.97505V11.0719ZM7.51255 11.0719H8.02505V11.5844H7.51255V11.0719ZM9.04692 11.0719H9.55942V11.5844H9.04692V11.0719ZM4.44067 12.3531H4.95317V12.8656H4.44067V12.3531ZM9.04692 12.3531H9.55942V12.8656H9.04692V12.3531ZM4.44067 13.6344H4.95317V14.1469H4.44067V13.6344ZM9.04692 13.6344H9.55942V14.1469H9.04692V13.6344Z" fill="#1E866F"/>
</svg>
