<svg width="14" height="13" viewBox="0 0 14 13" fill="none" xmlns="http://www.w3.org/2000/svg">
<path d="M7.06429 2.88721H6.31453C6.24594 2.88721 6.18982 2.94163 6.18982 3.00814V7.16965C6.18982 7.20895 6.20853 7.24523 6.24126 7.26791L8.8179 9.09244C8.87402 9.13174 8.95196 9.12116 8.99248 9.06674L9.43829 8.47721C9.48038 8.42128 9.46791 8.3457 9.41179 8.30791L7.18899 6.74942V3.00814C7.18899 2.94163 7.13288 2.88721 7.06429 2.88721ZM10.4905 4.02396L12.9346 4.60291C13.0125 4.62105 13.0889 4.56361 13.0889 4.48651L13.1014 2.04523C13.1014 1.94396 12.9814 1.88651 12.9003 1.95L10.4437 3.81082C10.4251 3.82474 10.411 3.84347 10.4029 3.86484C10.3948 3.88622 10.3931 3.90937 10.398 3.93163C10.4029 3.9539 10.4142 3.97437 10.4305 3.99071C10.4469 4.00704 10.4677 4.01856 10.4905 4.02396ZM13.1045 8.57547L12.2207 8.2807C12.1899 8.27046 12.1561 8.27231 12.1267 8.28587C12.0973 8.29943 12.0745 8.32362 12.0633 8.35326C12.0336 8.43035 12.0025 8.50593 11.9697 8.58151C11.6923 9.21791 11.2948 9.79081 10.7866 10.2821C10.2841 10.7709 9.68857 11.1606 9.03301 11.4294C8.3539 11.7079 7.62391 11.8508 6.88659 11.8497C6.1415 11.8497 5.41979 11.7091 4.74017 11.4294C4.08462 11.1606 3.48908 10.7709 2.98656 10.2821C2.47996 9.79081 2.08248 9.21791 1.80346 8.58151C1.51792 7.92257 1.37163 7.21476 1.37324 6.5C1.37324 5.77744 1.51821 5.07605 1.80658 4.41698C2.08404 3.78058 2.48152 3.20768 2.98968 2.7164C3.49219 2.22757 4.08774 1.83792 4.74329 1.56907C5.41979 1.28942 6.14306 1.14884 6.88815 1.14884C7.63324 1.14884 8.35495 1.28942 9.03457 1.56907C9.69013 1.83792 10.2857 2.22757 10.7882 2.7164C10.9472 2.87209 11.0968 3.03384 11.234 3.20465L12.1661 2.49721C10.9394 0.976513 9.02989 -0.00150988 6.88503 1.74977e-06C3.15023 0.00151338 0.151168 2.94314 0.188579 6.56651C0.225989 10.1264 3.21102 13 6.88815 13C9.77966 13 12.2425 11.2223 13.1809 8.73268C13.2043 8.66919 13.17 8.59814 13.1045 8.57547Z" fill="#FF9900"/>
</svg>
