<svg width="13" height="13" viewBox="0 0 13 13" fill="none" xmlns="http://www.w3.org/2000/svg">
<path d="M12.6171 10.7803L8.34145 6.49841L12.6171 2.21648C12.8602 1.97299 12.9968 1.64274 12.9968 1.29838C12.9968 0.954032 12.8602 0.623781 12.6171 0.380287C12.374 0.136792 12.0442 0 11.7004 0C11.3565 0 11.0267 0.136792 10.7836 0.380287L6.50795 4.66222L2.2323 0.380287C1.98916 0.136792 1.65939 0 1.31555 0C0.971698 0 0.641932 0.136792 0.398794 0.380287C0.155657 0.623781 0.0190653 0.954032 0.0190653 1.29838C0.0190653 1.64274 0.155657 1.97299 0.398794 2.21648L4.67445 6.49841L0.398794 10.7803C0.272966 10.8978 0.172626 11.0399 0.104017 11.1978C0.0354081 11.3558 0 11.5262 0 11.6984C0 11.8707 0.0354081 12.0411 0.104017 12.199C0.172626 12.357 0.272966 12.4991 0.398794 12.6165C0.518672 12.738 0.661431 12.8345 0.818796 12.9003C0.976161 12.9661 1.14501 13 1.31555 13C1.48609 13 1.65493 12.9661 1.81229 12.9003C1.96966 12.8345 2.11242 12.738 2.2323 12.6165L6.50795 8.33461L10.7836 12.6165C11.0275 12.8587 11.357 12.9945 11.7004 12.9945C12.0437 12.9945 12.3732 12.8587 12.6171 12.6165C12.7384 12.4965 12.8347 12.3535 12.9004 12.1959C12.9662 12.0383 13 11.8692 13 11.6984C13 11.5277 12.9662 11.3586 12.9004 11.201C12.8347 11.0434 12.7384 10.9004 12.6171 10.7803Z" fill="#1E866F"/>
</svg>
