<svg width="16" height="16" viewBox="0 0 16 16" fill="none" xmlns="http://www.w3.org/2000/svg">
<path d="M8.0002 2.09778C6.3317 2.15078 6.3322 4.57003 8.0002 4.62278C9.66845 4.56978 9.6682 2.15053 8.0002 2.09778ZM8.0002 4.12278C7.79797 4.12278 7.60402 4.04244 7.46103 3.89945C7.31803 3.75645 7.2377 3.56251 7.2377 3.36028C7.2377 3.15805 7.31803 2.96411 7.46103 2.82111C7.60402 2.67811 7.79797 2.59778 8.0002 2.59778C8.20242 2.59778 8.39637 2.67811 8.53936 2.82111C8.68236 2.96411 8.7627 3.15805 8.7627 3.36028C8.7627 3.56251 8.68236 3.75645 8.53936 3.89945C8.39637 4.04244 8.20242 4.12278 8.0002 4.12278ZM4.6592 3.48178C2.99445 3.52278 2.9947 5.96578 4.6592 6.00678C6.32795 5.95628 6.32745 3.53178 4.6592 3.48178ZM5.1982 5.28328C5.05459 5.42326 4.86162 5.50104 4.66109 5.49976C4.46055 5.49848 4.26859 5.41824 4.12678 5.27644C3.98498 5.13464 3.90475 4.94268 3.90347 4.74214C3.90219 4.5416 3.97996 4.34863 4.11995 4.20503C4.26355 4.06505 4.45652 3.98727 4.65705 3.98855C4.85759 3.98983 5.04955 4.07006 5.19136 4.21187C5.33316 4.35367 5.41339 4.54563 5.41467 4.74617C5.41595 4.94671 5.33818 5.13968 5.1982 5.28328ZM4.5377 8.08503C4.4847 6.41703 2.06545 6.41703 2.0127 8.08503C2.0657 9.75378 4.4852 9.75303 4.5377 8.08503ZM3.2752 8.84753C3.07539 8.84391 2.88499 8.762 2.74497 8.61942C2.60495 8.47684 2.5265 8.28499 2.5265 8.08515C2.5265 7.88532 2.60495 7.69347 2.74497 7.55089C2.88499 7.40831 3.07539 7.3264 3.2752 7.32278C3.47742 7.32278 3.67137 7.40311 3.81436 7.54611C3.95736 7.68911 4.0377 7.88305 4.0377 8.08528C4.0377 8.28751 3.95736 8.48145 3.81436 8.62445C3.67137 8.76744 3.47742 8.84753 3.2752 8.84753ZM4.6592 10.1638C2.98995 10.207 2.9997 12.6505 4.6592 12.6883C6.3232 12.6408 6.33195 10.216 4.6592 10.1638ZM5.1982 11.9655C5.05459 12.1055 4.86162 12.1833 4.66109 12.182C4.46055 12.1807 4.26859 12.1005 4.12678 11.9587C3.98498 11.8169 3.90475 11.6249 3.90347 11.4244C3.90219 11.2239 3.97996 11.0309 4.11995 10.8873C4.26355 10.7473 4.45652 10.6695 4.65705 10.6708C4.85759 10.6721 5.04955 10.7523 5.19136 10.8941C5.33316 11.0359 5.41339 11.2279 5.41467 11.4284C5.41595 11.629 5.33818 11.8219 5.1982 11.9655ZM11.4627 8.08503C11.5157 9.75353 13.9349 9.75328 13.9877 8.08503C13.9347 6.41678 11.5152 6.41753 11.4627 8.08503ZM12.7252 8.84753C12.5254 8.84391 12.335 8.762 12.195 8.61942C12.055 8.47684 11.9765 8.28499 11.9765 8.08515C11.9765 7.88532 12.055 7.69347 12.195 7.55089C12.335 7.40831 12.5254 7.3264 12.7252 7.32278C12.9274 7.32278 13.1214 7.40311 13.2644 7.54611C13.4074 7.68911 13.4877 7.88305 13.4877 8.08528C13.4877 8.28751 13.4074 8.48145 13.2644 8.62445C13.1214 8.76744 12.9274 8.84753 12.7252 8.84753ZM12.2342 3.85153C11.0184 2.70703 9.3042 4.42203 10.4487 5.63678C11.6632 6.78053 13.3769 5.06928 12.2342 3.85153ZM11.8804 5.28328C11.7368 5.42326 11.5439 5.50104 11.3433 5.49976C11.1428 5.49848 10.9508 5.41824 10.809 5.27644C10.6672 5.13464 10.587 4.94268 10.5857 4.74214C10.5844 4.5416 10.6622 4.34863 10.8022 4.20503C10.9458 4.06505 11.1388 3.98727 11.3393 3.98855C11.5398 3.98983 11.7318 4.07006 11.8736 4.21187C12.0154 4.35367 12.0956 4.54563 12.0969 4.74617C12.0982 4.94671 12.0204 5.13968 11.8804 5.28328Z" fill="#1E866F"/>
<path d="M12.8188 3.00677C8.55754 -1.10198 1.32004 1.82427 1.01004 7.71002C0.928112 9.32183 1.40355 10.9127 2.35644 12.2152C3.30933 13.5178 4.68159 14.4526 6.24254 14.8625C6.49315 14.9248 6.755 14.9263 7.00632 14.867C7.25764 14.8077 7.49117 14.6892 7.6875 14.5215C7.88384 14.3538 8.0373 14.1416 8.13514 13.9026C8.23299 13.6637 8.27238 13.4048 8.25004 13.1475C8.2507 12.5874 8.47352 12.0504 8.8696 11.6544C9.26568 11.2584 9.80268 11.0356 10.3628 11.035H13.2268C14.8103 11.0185 14.9863 9.31802 15.0003 8.08502C15.0041 7.13423 14.8125 6.1928 14.4372 5.31918C14.062 4.44555 13.5112 3.65838 12.819 3.00652L12.8188 3.00677ZM14.2888 9.73002C14.2256 9.96273 14.0871 10.1679 13.8949 10.3136C13.7027 10.4592 13.4677 10.5371 13.2265 10.535H10.3625C9.66989 10.5357 9.00581 10.8112 8.51603 11.301C8.02625 11.7908 7.75077 12.4549 7.75004 13.1475C7.77307 13.3284 7.75169 13.5122 7.68775 13.6829C7.62382 13.8537 7.51925 14.0063 7.38309 14.1275C7.24693 14.2488 7.08328 14.3351 6.90629 14.3789C6.7293 14.4227 6.5443 14.4228 6.36729 14.379C4.83611 13.9816 3.50236 13.0396 2.61592 11.7293C1.72947 10.4191 1.35115 8.83066 1.55183 7.26153C1.75251 5.6924 2.51842 4.25027 3.70607 3.20532C4.89372 2.16037 6.42163 1.58429 8.00354 1.58502C12.201 1.53277 15.3993 5.68027 14.2888 9.73002Z" fill="#1E866F"/>
</svg>
