<svg width="16" height="16" viewBox="0 0 16 16" fill="none" xmlns="http://www.w3.org/2000/svg">
<path d="M7.32723 7.30644C7.32723 7.13471 7.25901 6.97001 7.13758 6.84858C7.01615 6.72715 6.85145 6.65894 6.67973 6.65894C6.508 6.65894 6.3433 6.72715 6.22188 6.84858C6.10045 6.97001 6.03223 7.13471 6.03223 7.30644C6.03223 7.47816 6.10045 7.64286 6.22188 7.76429C6.3433 7.88572 6.508 7.95394 6.67973 7.95394C6.85145 7.95394 7.01615 7.88572 7.13758 7.76429C7.25901 7.64286 7.32723 7.47816 7.32723 7.30644ZM9.67923 7.30644C9.67923 7.13471 9.61101 6.97001 9.48958 6.84858C9.36815 6.72715 9.20345 6.65894 9.03173 6.65894C8.86 6.65894 8.6953 6.72715 8.57387 6.84858C8.45245 6.97001 8.38423 7.13471 8.38423 7.30644C8.38423 7.47816 8.45245 7.64286 8.57387 7.76429C8.6953 7.88572 8.86 7.95394 9.03173 7.95394C9.20345 7.95394 9.36815 7.88572 9.48958 7.76429C9.61101 7.64286 9.67923 7.47816 9.67923 7.30644Z" fill="#1E866F"/>
<path d="M11.3838 7.95394C11.7414 7.95394 12.0313 7.66404 12.0313 7.30644C12.0313 6.94883 11.7414 6.65894 11.3838 6.65894C11.0262 6.65894 10.7363 6.94883 10.7363 7.30644C10.7363 7.66404 11.0262 7.95394 11.3838 7.95394Z" fill="#1E866F"/>
<path d="M12.9598 2.59949H5.10476C4.76802 2.60117 4.43718 2.68807 4.14308 2.85208C3.84897 3.0161 3.60117 3.25189 3.42276 3.53749C3.36293 3.63877 3.34514 3.75946 3.37321 3.87371C3.40127 3.98795 3.47295 4.08666 3.57291 4.1487C3.67286 4.21073 3.79313 4.23116 3.90796 4.20561C4.02279 4.18006 4.12305 4.11055 4.18726 4.01199C4.28466 3.85625 4.41984 3.72765 4.58025 3.63814C4.74065 3.54863 4.92107 3.50111 5.10476 3.49999H12.9598C13.5608 3.49999 14.0498 3.98899 14.0498 4.58999V10.02C14.0498 10.621 13.5608 11.11 12.9598 11.11H10.6348C10.5751 11.1101 10.5161 11.122 10.4611 11.145C10.4061 11.168 10.3562 11.2016 10.3143 11.244L9.10276 12.471C9.07676 12.4975 9.02526 12.4995 9.03226 12.5005C9.01928 12.5003 9.00647 12.4974 8.99467 12.492C8.98288 12.4866 8.97235 12.4787 8.96376 12.469L7.74876 11.244C7.70696 11.2017 7.6572 11.1682 7.60236 11.1453C7.54753 11.1224 7.48869 11.1105 7.42926 11.1105H5.10426C4.9201 11.1097 4.73914 11.0623 4.5782 10.9728C4.41726 10.8833 4.28157 10.7545 4.18376 10.5985C4.15195 10.5487 4.11064 10.5056 4.06219 10.4718C4.01374 10.438 3.95909 10.414 3.90138 10.4013C3.84367 10.3885 3.78402 10.3873 3.72583 10.3977C3.66765 10.408 3.61206 10.4297 3.56226 10.4615C3.51246 10.4933 3.46941 10.5346 3.43557 10.5831C3.40173 10.6315 3.37776 10.6862 3.36504 10.7439C3.35232 10.8016 3.35109 10.8612 3.36142 10.9194C3.37176 10.9776 3.39345 11.0332 3.42526 11.083C3.60414 11.3667 3.85189 11.6006 4.14545 11.7628C4.43901 11.9251 4.76884 12.0105 5.10426 12.011H7.24176L8.31876 13.097C8.50426 13.2915 8.75576 13.399 9.02626 13.4005H9.03226C9.29876 13.4005 9.55926 13.291 9.74426 13.102L10.8218 12.0105H12.9588C13.4863 12.0098 13.9921 11.8 14.3652 11.4269C14.7382 11.0538 14.9481 10.5481 14.9488 10.0205V4.58999C14.9486 4.06237 14.7391 3.55639 14.3661 3.18317C13.9932 2.80995 13.4874 2.60002 12.9598 2.59949Z" fill="#1E866F"/>
<path d="M4.7293 8.83895C4.7293 8.7196 4.68189 8.60514 4.5975 8.52075C4.51311 8.43636 4.39865 8.38895 4.2793 8.38895H2.5258C2.40646 8.38895 2.292 8.43636 2.20761 8.52075C2.12322 8.60514 2.0758 8.7196 2.0758 8.83895C2.0758 8.9583 2.12322 9.07276 2.20761 9.15715C2.292 9.24154 2.40646 9.28895 2.5258 9.28895H4.2793C4.39865 9.28895 4.51311 9.24154 4.5975 9.15715C4.68189 9.07276 4.7293 8.9583 4.7293 8.83895ZM4.7293 7.30645C4.7293 7.1871 4.68189 7.07264 4.5975 6.98825C4.51311 6.90386 4.39865 6.85645 4.2793 6.85645H2.0123C1.89296 6.85645 1.7785 6.90386 1.69411 6.98825C1.60972 7.07264 1.5623 7.1871 1.5623 7.30645C1.5623 7.4258 1.60972 7.54026 1.69411 7.62465C1.7785 7.70904 1.89296 7.75645 2.0123 7.75645H4.2788C4.33794 7.75652 4.39651 7.74493 4.45117 7.72234C4.50582 7.69976 4.55549 7.66662 4.59733 7.62483C4.63917 7.58303 4.67236 7.5334 4.695 7.47877C4.71765 7.42415 4.7293 7.36559 4.7293 7.30645ZM4.7293 5.77495C4.7293 5.6556 4.68189 5.54114 4.5975 5.45675C4.51311 5.37236 4.39865 5.32495 4.2793 5.32495H1.4998C1.38046 5.32495 1.266 5.37236 1.18161 5.45675C1.09722 5.54114 1.0498 5.6556 1.0498 5.77495C1.0498 5.8943 1.09722 6.00876 1.18161 6.09315C1.266 6.17754 1.38046 6.22495 1.4998 6.22495H4.2793C4.3384 6.22495 4.39692 6.21331 4.45151 6.1907C4.50611 6.16808 4.55572 6.13494 4.5975 6.09315C4.63929 6.05136 4.67244 6.00176 4.69505 5.94716C4.71767 5.89256 4.7293 5.83405 4.7293 5.77495Z" fill="#1E866F"/>
</svg>
