<svg width="16" height="16" viewBox="0 0 16 16" fill="none" xmlns="http://www.w3.org/2000/svg">
<path d="M4.66974 9.11207C5.0337 9.11207 5.32874 8.81702 5.32874 8.45307C5.32874 8.08911 5.0337 7.79407 4.66974 7.79407C4.30579 7.79407 4.01074 8.08911 4.01074 8.45307C4.01074 8.81702 4.30579 9.11207 4.66974 9.11207Z" fill="#1E866F"/>
<path d="M7.06525 9.11207C7.42921 9.11207 7.72425 8.81702 7.72425 8.45307C7.72425 8.08911 7.42921 7.79407 7.06525 7.79407C6.70129 7.79407 6.40625 8.08911 6.40625 8.45307C6.40625 8.81702 6.70129 9.11207 7.06525 9.11207Z" fill="#1E866F"/>
<path d="M9.45978 9.11207C9.82374 9.11207 10.1188 8.81702 10.1188 8.45307C10.1188 8.08911 9.82374 7.79407 9.45978 7.79407C9.09583 7.79407 8.80078 8.08911 8.80078 8.45307C8.80078 8.81702 9.09583 9.11207 9.45978 9.11207Z" fill="#1E866F"/>
<path d="M12.6348 8.57698C12.5155 8.57698 12.401 8.62439 12.3166 8.70878C12.2322 8.79317 12.1848 8.90763 12.1848 9.02698V11.217C12.1837 11.5132 12.0652 11.7969 11.8553 12.0058C11.6453 12.2148 11.361 12.3319 11.0648 12.3315H8.6998C8.64025 12.3315 8.5813 12.3434 8.52637 12.3664C8.47144 12.3894 8.42162 12.4231 8.3798 12.4655L7.1428 13.7175C7.0923 13.77 7.0438 13.771 6.9898 13.7155L5.7548 12.4655C5.71299 12.4231 5.66317 12.3894 5.60824 12.3664C5.55331 12.3434 5.49436 12.3315 5.4348 12.3315H3.0648C2.4503 12.3315 1.9498 11.8315 1.9498 11.217V5.68698C1.9498 5.06948 2.4498 4.56748 3.0648 4.56748H7.1948C7.31415 4.56748 7.42861 4.52007 7.513 4.43568C7.59739 4.35129 7.6448 4.23683 7.6448 4.11748C7.6448 3.99813 7.59739 3.88367 7.513 3.79928C7.42861 3.71489 7.31415 3.66748 7.1948 3.66748H3.0648C2.52993 3.6688 2.01742 3.88221 1.63968 4.26089C1.26194 4.63957 1.0498 5.15261 1.0498 5.68748V11.218C1.05047 11.7522 1.26297 12.2643 1.64072 12.6421C2.01846 13.0198 2.5306 13.2323 3.0648 13.233H5.2468L6.3478 14.3475C6.5348 14.5385 6.7968 14.6485 7.0673 14.6485C7.3378 14.6485 7.6003 14.5385 7.7848 14.3495L8.8878 13.2335H11.0648C11.5997 13.2335 12.1127 13.0213 12.4914 12.6436C12.8701 12.2659 13.0835 11.7534 13.0848 11.2185V9.02848C13.0849 8.90895 13.0376 8.79426 12.9532 8.70961C12.8689 8.62495 12.7543 8.57725 12.6348 8.57698Z" fill="#1E866F"/>
<path d="M14.4741 3.31504L12.9881 1.82904C12.3736 1.21454 11.3021 1.21454 10.6881 1.82904L9.20159 3.31554C8.89459 3.62254 8.72559 4.03104 8.72559 4.46554C8.72559 4.90004 8.89459 5.30854 9.20209 5.61554L10.6881 7.10154V7.10204C10.9951 7.40904 11.4036 7.57804 11.8381 7.57804C12.2726 7.57804 12.6811 7.40904 12.9881 7.10204L14.4741 5.61554C14.7811 5.30854 14.9506 4.90004 14.9506 4.46554C14.9506 4.03104 14.7816 3.62254 14.4741 3.31504ZM13.8376 4.97854L12.3516 6.46504C12.0771 6.74004 11.5986 6.73904 11.3246 6.46554L9.83809 4.97854C9.77047 4.91135 9.71687 4.83141 9.68039 4.74335C9.64392 4.65529 9.62529 4.56086 9.62559 4.46554C9.62559 4.27104 9.70109 4.08904 9.83809 3.95204L11.3246 2.46554C11.4616 2.32904 11.6441 2.25304 11.8381 2.25304C12.0321 2.25304 12.2146 2.32854 12.3516 2.46604L13.8376 3.95204C13.9746 4.08904 14.0501 4.27154 14.0501 4.46554C14.0506 4.65904 13.9751 4.84154 13.8376 4.97854Z" fill="#1E866F"/>
<path d="M11.8377 2.84302C11.7786 2.84302 11.7201 2.85466 11.6655 2.87727C11.6109 2.89989 11.5613 2.93303 11.5195 2.97482C11.4777 3.01661 11.4446 3.06621 11.422 3.12081C11.3993 3.17541 11.3877 3.23392 11.3877 3.29302V4.35952C11.3877 4.47887 11.4351 4.59332 11.5195 4.67772C11.6039 4.76211 11.7183 4.80952 11.8377 4.80952C11.957 4.80952 12.0715 4.76211 12.1559 4.67772C12.2403 4.59332 12.2877 4.47887 12.2877 4.35952V3.29302C12.2877 3.23392 12.2761 3.17541 12.2534 3.12081C12.2308 3.06621 12.1977 3.01661 12.1559 2.97482C12.1141 2.93303 12.0645 2.89989 12.0099 2.87727C11.9553 2.85466 11.8968 2.84302 11.8377 2.84302ZM11.8377 5.09752C11.7183 5.09752 11.6039 5.14493 11.5195 5.22932C11.4351 5.31371 11.3877 5.42817 11.3877 5.54752V5.63752C11.3877 5.75686 11.4351 5.87132 11.5195 5.95572C11.6039 6.04011 11.7183 6.08752 11.8377 6.08752C11.957 6.08752 12.0715 6.04011 12.1559 5.95572C12.2403 5.87132 12.2877 5.75686 12.2877 5.63752V5.54752C12.2877 5.42817 12.2403 5.31371 12.1559 5.22932C12.0715 5.14493 11.957 5.09752 11.8377 5.09752Z" fill="#1E866F"/>
</svg>
