<svg width="23" height="17" viewBox="0 0 23 17" fill="none" xmlns="http://www.w3.org/2000/svg">
<path d="M4.45768 8.41146L0.339721 6.75573L0.0550898 7.41094L2.76826 8.5V11.6875C2.76826 11.8823 2.93353 12.0417 3.13553 12.0417H4.99022C5.18303 12.3339 5.40798 12.6083 5.66048 12.8518C6.00479 13.1839 6.56487 13.1839 6.90918 12.8518C6.95509 12.8076 6.99641 12.7589 7.03313 12.7013L7.102 12.7854C7.39581 13.144 7.93752 13.2016 8.30938 12.9182C8.44711 12.812 8.55269 12.6659 8.5986 12.4977C8.94291 12.8297 9.50299 12.8253 9.84731 12.4888C9.9024 12.4357 9.9483 12.3781 9.98503 12.3117C10.3615 12.4755 10.8114 12.3604 11.0501 12.0328H16.3525C16.5545 12.0328 16.7198 11.8734 16.7198 11.6786V0.354167C16.7198 0.159375 16.5545 0 16.3525 0H3.13094C2.92894 0 2.76367 0.159375 2.76367 0.354167V3.30703L0.399401 1.82839L0 2.42161L5.94052 6.12708L4.45768 8.41146ZM3.50279 11.3333V8.79661L4.23733 9.09323V9.54036C4.23733 10.1557 4.36128 10.7667 4.60459 11.3378H3.50279V11.3333ZM10.2467 11.6432L8.56188 9.69088L7.99721 10.1424L8.91078 11.2005L9.32395 11.7362C9.36068 11.7849 9.37904 11.838 9.37904 11.8956C9.36986 11.9797 9.29641 12.0417 9.20918 12.0372C9.17705 12.0328 9.14491 12.024 9.12196 12.0018L7.43713 10.3727L6.91836 10.8729L7.61158 11.5414L7.84571 11.993C7.89162 12.0771 7.91457 12.1745 7.91457 12.2719C7.90539 12.3427 7.84112 12.3958 7.76766 12.387C7.73553 12.3826 7.70798 12.3693 7.68503 12.3471L6.36287 10.7578L5.78902 11.2005L6.40419 11.9443C6.42715 12.0461 6.44092 12.1479 6.44092 12.2497C6.43174 12.3339 6.35828 12.3958 6.27106 12.3914C6.23892 12.387 6.20679 12.3781 6.18383 12.356C5.40798 11.6122 4.97186 10.594 4.97645 9.54036V8.96042L6.61078 6.43698L7.79062 6.56536C8.83733 6.67604 9.89321 6.73359 10.9491 6.73359C11.1006 6.73359 11.2246 6.8487 11.2246 6.99479C11.2246 7.1099 11.1511 7.21172 11.0363 7.24714C10.6323 7.37552 10.2146 7.44193 9.79222 7.44193H9.02096C8.81896 7.44193 8.65369 7.6013 8.65369 7.79609C8.65369 7.84922 8.66747 7.90677 8.69042 7.95547L10.4212 11.2935C10.4625 11.3776 10.4854 11.4706 10.4854 11.5635C10.4762 11.6388 10.412 11.6919 10.3339 11.6831C10.3018 11.6786 10.2697 11.6654 10.2467 11.6432ZM8.64451 0.708333H10.8481V3.54167H8.64451V0.708333ZM3.50279 3.76745V0.708333H7.90998V3.89583C7.90998 4.09062 8.07525 4.25 8.27725 4.25H11.2154C11.4174 4.25 11.5826 4.09062 11.5826 3.89583V0.708333H15.9898V11.3333H11.1878C11.1695 11.2094 11.1281 11.0854 11.0731 10.9747L10.894 10.625H15.2599V9.91667H10.5267L9.60858 8.14583H9.78762C10.2926 8.14583 10.7884 8.06615 11.2659 7.91562C11.7938 7.7474 12.0784 7.19401 11.904 6.6849C11.7663 6.28646 11.3806 6.02083 10.9445 6.02083C9.91617 6.02083 8.88782 5.96771 7.86866 5.85703L6.64751 5.72422L3.50279 3.76745ZM15.7327 12.781L13.8735 13.0378C13.4052 13.1042 13.0563 13.4893 13.0517 13.9453L10.8022 13.5115C10.2467 13.3964 9.66367 13.4672 9.15409 13.7018C8.6996 13.9187 8.51597 14.45 8.74092 14.8883C8.8511 15.1008 9.03932 15.2602 9.27345 15.331L14.0112 16.8539C14.5437 17.0266 15.113 17.0443 15.6547 16.9159L17.8491 16.3891C17.8904 16.5307 18.019 16.637 18.1705 16.6458L22.9449 17L23 16.2917L18.5653 15.9641V13.8125H22.9725V13.1042H18.198C18.097 13.1042 17.996 13.1484 17.9271 13.2193C17.2707 12.8341 16.4948 12.6792 15.7327 12.781ZM15.4756 16.2297C15.0671 16.3271 14.6401 16.3138 14.2407 16.1854L9.50299 14.6581C9.40659 14.6271 9.35609 14.5297 9.38822 14.4367C9.402 14.3924 9.43413 14.357 9.48004 14.3349C9.84731 14.1667 10.2605 14.1224 10.6553 14.2065L13.5751 14.7687C13.7082 14.8352 13.8551 14.8706 14.0066 14.875H15.2553V14.1667H14.0066C13.8826 14.1667 13.7862 14.0693 13.7862 13.9497C13.7862 13.8435 13.8689 13.7549 13.9745 13.7417L15.8291 13.4849C16.4581 13.4008 17.0962 13.538 17.6242 13.8789L17.8216 14.0029V15.663L15.4756 16.2297Z" fill="#1E866F"/>
</svg>
