<svg width="54" height="40" viewBox="0 0 54 40" fill="none" xmlns="http://www.w3.org/2000/svg">
<path d="M36.9476 29.9644L35.0976 29.9377C34.7164 29.9322 34.3996 30.26 34.3938 30.6661L34.3824 31.4599C34.3765 31.866 34.6837 32.2028 35.0649 32.2083L36.9106 32.2348C37.2919 32.2403 37.6086 31.9125 37.6144 31.5064L37.6259 30.7127C37.6361 30.3066 37.3289 29.9699 36.9476 29.9644ZM36.9256 31.4965L35.0756 31.4699L35.087 30.6761L36.9327 30.7027L36.9212 31.4964L36.9256 31.4965ZM37.1377 33.0136L34.8198 32.9802C34.6292 32.9774 34.4708 33.1413 34.4679 33.3444C34.465 33.5474 34.6186 33.7158 34.8092 33.7186L37.1271 33.752C37.3177 33.7547 37.4761 33.5908 37.479 33.3878C37.4819 33.1847 37.3284 33.0163 37.1377 33.0136ZM49.135 30.1399L47.2894 30.1133C46.9081 30.1078 46.5914 30.4356 46.5856 30.8417L46.5741 31.6355C46.5683 32.0416 46.8754 32.3783 47.2567 32.3838L49.1023 32.4104C49.4836 32.4159 49.8003 32.0881 49.8062 31.682L49.8176 30.8883C49.8235 30.4821 49.5163 30.1454 49.135 30.1399ZM49.113 31.672L47.2673 31.6455L47.2788 30.8517L49.1244 30.8783L49.113 31.672ZM49.3251 33.1891L47.0072 33.1557C46.8166 33.153 46.6582 33.3169 46.6553 33.5199C46.6524 33.723 46.806 33.8913 46.9966 33.8941L49.3145 33.9275C49.5051 33.9302 49.6635 33.7663 49.6664 33.5633C49.6694 33.3602 49.5158 33.1918 49.3251 33.1891ZM45.5417 31.7083C45.4406 31.2037 45.0255 30.8423 44.5403 30.8353L39.6705 30.7652C39.1853 30.7582 38.7599 31.1075 38.6443 31.609L38.3582 32.8234C38.2239 33.4216 38.5662 34.0219 39.1275 34.1685C39.2009 34.188 39.2744 34.1983 39.348 34.1994L44.755 34.2772C45.3313 34.2809 45.8065 33.7846 45.811 33.1708C45.8121 33.0923 45.8047 33.0091 45.7884 32.9351L45.5417 31.7083ZM45.0449 33.4044C44.9787 33.4911 44.8783 33.5405 44.77 33.5389L39.363 33.461C39.1724 33.4583 39.0189 33.2853 39.0218 33.0822C39.0222 33.0546 39.0269 33.0269 39.0316 33.0039L39.3177 31.7895C39.3548 31.6238 39.4995 31.5059 39.6598 31.5082C40.8729 31.5257 43.3208 31.5609 44.5339 31.5784C44.6942 31.5807 44.8354 31.7027 44.8677 31.8694L45.1188 33.0916C45.1388 33.2027 45.1112 33.3177 45.0449 33.4044Z" fill="#20886F"/>
<path d="M51.1916 25.7108L50.0088 25.6938C49.6835 25.7122 49.3987 25.9342 49.2813 26.2603L48.4682 24.6468C47.8152 23.345 46.5486 22.5282 45.1666 22.5083L39.283 22.4236C37.8966 22.4036 36.6112 23.1883 35.9212 24.4661L35.0619 26.0555C34.9583 25.7263 34.6756 25.496 34.351 25.4683L33.1682 25.4512C32.787 25.4457 32.4702 25.7735 32.4644 26.1796L32.453 26.9734C32.4471 27.3795 32.7543 27.7163 33.1355 27.7218L33.6814 27.7296C33.2959 28.0241 33.0551 28.4914 33.0305 28.9988L32.963 33.683C32.9553 34.2183 33.2169 34.7113 33.6507 34.9807C33.6416 35.0083 33.6369 35.0359 33.6321 35.0635L33.6139 36.328C33.6058 36.891 34.0282 37.3495 34.5568 37.3571L36.3678 37.3831C36.8964 37.3908 37.3318 36.9447 37.3399 36.3817L37.3528 35.4864C38.833 35.6138 40.4998 35.7209 42.0292 35.743C43.5586 35.765 45.2278 35.7059 46.7111 35.6211L46.6982 36.5164C46.6901 37.0795 47.1125 37.5379 47.6411 37.5455L49.4521 37.5716C49.9806 37.5792 50.4161 37.1331 50.4242 36.5701L50.4424 35.301C50.4428 35.2733 50.4346 35.2455 50.4263 35.2177C50.8676 34.9655 51.1477 34.4757 51.1511 33.9403L51.2185 29.2608C51.2084 28.7529 50.9813 28.2788 50.6043 27.9733L51.1589 27.9813C51.5401 27.9868 51.8569 27.659 51.8627 27.2529L51.8742 26.4592C51.88 26.053 51.5728 25.7163 51.1916 25.7108ZM36.5182 24.8348C37.0836 23.7859 38.1372 23.1456 39.2723 23.162L45.1559 23.2467C46.2911 23.263 47.3258 23.9334 47.8608 24.9981L48.7749 26.8207C46.5785 27.0753 44.367 27.1727 42.1578 27.1178C39.9478 27.1136 37.7401 26.948 35.552 26.6303L36.5182 24.8348ZM33.1462 26.9834L33.1576 26.1896L34.3404 26.2066L34.6444 26.7603L34.4069 27.0015L33.1462 26.9834ZM36.651 36.3717C36.6489 36.524 36.5301 36.6469 36.3871 36.6449L36.3828 36.6448L34.5718 36.6187C34.4245 36.6166 34.3093 36.4903 34.3115 36.338L34.3281 35.1843C34.9511 35.2533 35.7602 35.3434 36.669 35.4257L36.651 36.3717ZM49.467 36.8333L47.656 36.8072C47.513 36.8097 47.3935 36.6834 47.3957 36.5311L47.3957 36.5265L47.4094 35.5804C48.3202 35.5243 49.1272 35.4575 49.7562 35.4065L49.7396 36.5602C49.733 36.7171 49.6143 36.84 49.467 36.8333ZM50.4665 33.9304C50.4611 34.3089 50.1878 34.628 49.8321 34.6552C48.1226 34.8014 44.8387 35.0449 42.0442 35.0046C39.2454 34.9643 35.9742 34.6264 34.2696 34.4311C33.9149 34.3891 33.6465 34.0667 33.6563 33.6883L33.7237 29.0088C33.7265 28.8104 33.8073 28.6177 33.9393 28.4811C34.1812 28.2307 34.8803 27.5345 35.1133 27.3025C37.4393 27.6776 39.794 27.8592 42.1471 27.8562C44.4991 27.9316 46.8582 27.8132 49.194 27.5053C49.4246 27.744 50.0945 28.4691 50.3336 28.7172C50.4659 28.8576 50.5368 29.0525 50.5339 29.2509L50.4665 33.9304ZM51.1696 27.2383L49.9131 27.2202L49.6827 26.9723L49.9982 26.4275L51.181 26.4446L51.1696 27.2383Z" fill="#20886F"/>
<path d="M4.49813 36.252H20.4509C21.3072 36.252 22 35.5591 22 34.7029V24.3606C22 23.5043 21.3072 22.8115 20.4509 22.8115H17.7076C17.1218 22.8115 16.5867 22.4848 16.3276 21.9609L15.7642 20.8512C15.4995 20.3329 14.9643 20.0006 14.3841 20.0006H8.59336C8.00189 20.0006 7.46675 20.3329 7.202 20.8624L6.66686 21.944C6.40774 22.4735 5.86696 22.8058 5.27549 22.8058H2.54909C1.69287 22.8058 1 23.4987 1 24.3549V34.7029C1 35.5591 1.69287 36.252 2.54909 36.252H3.16309" stroke="#1E866F" stroke-width="0.8" stroke-miterlimit="10" stroke-linecap="round" stroke-linejoin="round"/>
<path d="M16.5645 29.307C16.5645 32.101 14.3001 34.3711 11.5004 34.3711C8.70643 34.3711 6.43631 32.1066 6.43631 29.307C6.43631 26.513 8.7008 24.2429 11.5004 24.2429C14.2944 24.2429 16.5645 26.5073 16.5645 29.307Z" stroke="#1E866F" stroke-width="0.8" stroke-miterlimit="10" stroke-linecap="round" stroke-linejoin="round"/>
<path d="M14.7844 27.8753C14.976 28.3146 15.083 28.7991 15.083 29.306C15.083 31.2832 13.4776 32.8887 11.5004 32.8887C9.52316 32.8887 7.91774 31.2832 7.91774 29.306C7.91774 27.3288 9.52316 25.7234 11.5004 25.7234C12.458 25.7234 13.3311 26.1008 13.9733 26.7148" stroke="#1E866F" stroke-width="0.8" stroke-miterlimit="10" stroke-linecap="round" stroke-linejoin="round"/>
<path d="M4.79117 21.6124H3.05056C2.89283 21.6124 2.76891 21.742 2.76891 21.8941V22.8066H5.07846V21.8941C5.07283 21.742 4.94327 21.6124 4.79117 21.6124Z" stroke="#1E866F" stroke-width="0.8" stroke-miterlimit="10" stroke-linecap="round" stroke-linejoin="round"/>
<path d="M3.91778 24.9584C3.91778 25.3527 3.5967 25.6738 3.20238 25.6738C2.80807 25.6738 2.48698 25.3527 2.48698 24.9584C2.48698 24.5641 2.80807 24.243 3.20238 24.243C3.5967 24.243 3.91778 24.5641 3.91778 24.9584Z" stroke="#1E866F" stroke-width="0.8" stroke-miterlimit="10" stroke-linecap="round" stroke-linejoin="round"/>
<path d="M9.92787 21.6113H13.0655" stroke="#1E866F" stroke-width="0.8" stroke-miterlimit="10" stroke-linecap="round" stroke-linejoin="round"/>
<path d="M19.6956 24.5527H20.197" stroke="#1E866F" stroke-width="0.8" stroke-miterlimit="10" stroke-linecap="round" stroke-linejoin="round"/>
<path d="M38.0328 11.5628H36.6445V9.39699C36.6445 7.8512 35.4485 6.60234 33.9682 6.60234H21.9583V1.72919C21.9583 0.77726 21.214 0 20.3024 0H19.5999C18.6799 0 17.9439 0.77726 17.9439 1.72919V6.60234H17.6763C16.196 6.60234 15 7.8512 15 9.39699V36.3304C15 37.8761 16.196 39.125 17.6763 39.125H33.9682C35.4485 39.125 36.6445 37.8761 36.6445 36.3304V23.5623H38.0328C39.1368 23.5623 40.04 22.6191 40.04 21.4664V13.6588C40.0316 12.506 39.1368 11.5628 38.0328 11.5628ZM19.2821 1.72919C19.2904 1.22266 19.9929 1.43225 20.3024 1.39732C20.478 1.39732 20.6202 1.54579 20.6202 1.72919V6.60234H19.2821V1.72919ZM35.3063 36.3304C35.3063 37.0989 34.7042 37.7277 33.9682 37.7277H17.6763C16.9403 37.7277 16.3381 37.0989 16.3381 36.3304V9.39699C16.3381 8.62846 16.9403 7.99966 17.6763 7.99966C17.6763 7.99966 32.0697 7.99093 33.9682 7.99966C34.7042 7.99966 35.3063 8.62846 35.3063 9.39699V36.3304ZM38.7019 21.4664C38.7019 21.8506 38.4008 22.165 38.0328 22.165H36.6445V12.9602H38.0328C38.4008 12.9602 38.7019 13.2746 38.7019 13.6588V21.4664Z" fill="#20886F"/>
<path d="M19.2821 1.72919C19.2904 1.22266 19.9929 1.43225 20.3024 1.39732C20.478 1.39732 20.6202 1.54579 20.6202 1.72919V6.60234H19.2821V1.72919Z" fill="white"/>
<path d="M35.3063 36.3304C35.3063 37.0989 34.7042 37.7277 33.9682 37.7277H17.6763C16.9403 37.7277 16.3381 37.0989 16.3381 36.3304V9.39699C16.3381 8.62846 16.9403 7.99966 17.6763 7.99966C17.6763 7.99966 32.0697 7.99093 33.9682 7.99966C34.7042 7.99966 35.3063 8.62846 35.3063 9.39699V36.3304Z" fill="white"/>
<path d="M30.7888 9.78125H20.2676C19.1637 9.78125 18.2604 10.7244 18.2604 11.8772V17.9556C18.2604 19.1084 19.1637 20.0516 20.2676 20.0516H30.7804C31.8844 20.0516 32.7876 19.1084 32.7876 17.9556V11.8772C32.796 10.7244 31.8928 9.78998 30.7888 9.78125ZM31.4579 17.9643C31.4579 18.3486 31.1568 18.663 30.7888 18.663H20.2676C19.8996 18.663 19.5986 18.3486 19.5986 17.9643V11.886C19.5986 11.5017 19.8996 11.1873 20.2676 11.1873H30.7804C31.1484 11.1873 31.4495 11.5017 31.4495 11.886V17.9643H31.4579Z" fill="#20886F"/>
<path d="M25.5282 21.6328C21.7229 21.6415 18.6368 24.8554 18.6368 28.8378C19.0131 38.3919 32.0517 38.3919 32.428 28.8378C32.4197 24.8554 29.3336 21.6415 25.5282 21.6328ZM25.5282 34.6366C22.4589 34.6366 19.9749 32.0341 19.9749 28.829C20.2509 21.1437 30.8139 21.1437 31.0899 28.829C31.0815 32.0341 28.5976 34.6366 25.5282 34.6366Z" fill="#20886F"/>
<path d="M25.5283 25.3086C21.0706 25.4571 21.0789 32.1991 25.5283 32.3476C29.986 32.2079 29.986 25.4571 25.5283 25.3086ZM25.5283 30.959C24.4076 30.9415 23.5127 29.9722 23.5294 28.8019C23.5461 27.6578 24.4327 26.7408 25.5283 26.7146C26.649 26.7321 27.5439 27.7015 27.5271 28.8718C27.502 30.0158 26.6239 30.9328 25.5283 30.959Z" fill="#20886F"/>
</svg>
