<svg width="26" height="25" viewBox="0 0 26 25" fill="none" xmlns="http://www.w3.org/2000/svg">
<path d="M24.3927 13.1557L8.07126 22.1384C7.64153 22.3748 7.13549 22.4308 6.66445 22.2941C6.19342 22.1574 5.79596 21.8393 5.55951 21.4095L0.585526 12.3726C0.349254 11.9429 0.293306 11.437 0.429982 10.966C0.566659 10.4951 0.884771 10.0977 1.31437 9.86128L17.6354 0.877441C18.0651 0.641044 18.5712 0.585026 19.0422 0.721709C19.5133 0.858391 19.9107 1.17658 20.1472 1.60629L25.1211 10.6436C25.3574 11.0733 25.4134 11.5792 25.2767 12.0502C25.14 12.5211 24.8219 12.9185 24.3923 13.155L24.3927 13.1557Z" fill="#FEBC1F"/>
<path d="M24.0366 12.5073L7.71482 21.49C7.28508 21.7264 6.77904 21.7824 6.30801 21.6457C5.83697 21.509 5.43952 21.1908 5.20307 20.7611L0.229081 11.7242C-0.00719122 11.2945 -0.0631398 10.7886 0.073537 10.3176C0.210214 9.84667 0.528326 9.44929 0.957928 9.21284L17.2794 0.229004C17.7091 -0.00739369 18.2151 -0.0634118 18.6862 0.0732711C19.1572 0.209954 19.5547 0.528143 19.7911 0.957851L24.7651 9.99516C25.0014 10.4249 25.0573 10.9308 24.9206 11.4017C24.784 11.8727 24.4658 12.2701 24.0362 12.5065L24.0366 12.5073Z" fill="#FFD475"/>
<path d="M17.2793 0.228504L0.957851 9.21115C0.528143 9.4476 0.209954 9.84505 0.0732711 10.3161C-0.0634118 10.7871 -0.00739369 11.2932 0.229004 11.7229L5.20299 20.7606C5.20299 20.7606 0.568472 11.8972 18.9295 0.164334C18.6684 0.0460437 18.3833 -0.00974611 18.0968 0.00139299C17.8103 0.0125321 17.5304 0.0902934 17.2793 0.228504Z" fill="#FEBC1F"/>
<path d="M1.69083 12.8327L2.3155 13.9676C2.39113 14.1049 2.51819 14.2066 2.66875 14.2503C2.81931 14.2939 2.98105 14.276 3.11842 14.2005L20.3366 4.72432C20.474 4.64869 20.5756 4.52163 20.6193 4.37107C20.663 4.22051 20.6451 4.05877 20.5696 3.9214L19.9449 2.78654C19.8693 2.64922 19.7422 2.54756 19.5916 2.50388C19.4411 2.46021 19.2793 2.4781 19.142 2.55362L1.92374 12.0298C1.78643 12.1055 1.68477 12.2325 1.64109 12.3831C1.59742 12.5336 1.61531 12.6954 1.69083 12.8327Z" fill="#1D2943"/>
<path d="M1.51813 12.5163L2.1428 13.6512C2.21843 13.7885 2.34549 13.8902 2.49605 13.9339C2.64661 13.9775 2.80835 13.9596 2.94572 13.8841L20.1639 4.40791C20.3013 4.33228 20.4029 4.20522 20.4466 4.05466C20.4903 3.90411 20.4724 3.74237 20.3969 3.60499L19.7722 2.47013C19.6966 2.33282 19.5695 2.23115 19.4189 2.18748C19.2684 2.1438 19.1066 2.16169 18.9693 2.23722L1.75065 11.7138C1.61334 11.7895 1.51167 11.9165 1.468 12.0671C1.42432 12.2176 1.44221 12.3794 1.51773 12.5167L1.51813 12.5163Z" fill="#4C5C75"/>
<path d="M21.4417 24.518H2.8121C2.32166 24.518 1.85131 24.3232 1.50448 23.9764C1.15765 23.6297 0.962752 23.1594 0.962646 22.6689V12.353C0.962752 11.8625 1.15765 11.3922 1.50448 11.0455C1.85131 10.6987 2.32166 10.5039 2.8121 10.5039H21.4413C21.9317 10.5039 22.4021 10.6987 22.7489 11.0455C23.0957 11.3922 23.2906 11.8625 23.2907 12.353V22.6689C23.2906 23.1594 23.0957 23.6297 22.7489 23.9764C22.4021 24.3232 21.9321 24.518 21.4417 24.518Z" fill="#5094FF"/>
<path d="M2.8117 23.7762H21.4413C21.6842 23.7762 21.9247 23.7284 22.1492 23.6355C22.3736 23.5426 22.5775 23.4064 22.7493 23.2346C22.9211 23.0629 23.0573 22.859 23.1503 22.6346C23.2433 22.4102 23.2911 22.1696 23.2911 21.9267V11.6112C23.2911 11.1207 23.0963 10.6502 22.7494 10.3034C22.4026 9.95657 21.9322 9.76172 21.4417 9.76172H2.8121C2.56922 9.76172 2.32873 9.80956 2.10434 9.9025C1.87996 9.99544 1.67608 10.1317 1.50434 10.3034C1.3326 10.4751 1.19637 10.679 1.10343 10.9034C1.01048 11.1278 0.962647 11.3683 0.962647 11.6112V21.9267C0.962595 22.1696 1.01039 22.4102 1.10331 22.6346C1.19623 22.859 1.33246 23.063 1.5042 23.2348C1.67594 23.4065 1.87984 23.5428 2.10425 23.6358C2.32866 23.7287 2.56919 23.7766 2.8121 23.7766L2.8117 23.7762Z" fill="#57B3FE"/>
<path d="M2.81158 9.76212H21.4412C21.9316 9.76212 22.4019 9.95691 22.7488 10.3037C23.0956 10.6504 23.2905 11.1207 23.2906 11.6112V21.9267C23.2906 21.9267 23.0779 11.9273 1.33447 10.5013C1.5062 10.2717 1.72908 10.0853 1.98542 9.95696C2.24176 9.82858 2.52449 9.76173 2.81118 9.76172L2.81158 9.76212Z" fill="#5094FF"/>
<path d="M21.8419 20.4581V20.7449H21.838C21.8455 21.133 21.5219 21.459 21.1313 21.459H19.2549C18.8719 21.459 18.5407 21.139 18.5486 20.7449H18.5447V20.4581H18.5906C18.7015 20.1792 19.003 19.9883 19.3199 19.9883H21.0667C21.3836 19.9883 21.6851 20.1792 21.796 20.4581H21.8419Z" fill="#E3E7F0"/>
<path d="M21.1293 21.1745H19.3155C18.9503 21.1745 18.6049 20.9265 18.5534 20.5645C18.5386 20.4629 18.5458 20.3594 18.5745 20.2609C18.6032 20.1624 18.6528 20.0713 18.7199 19.9936C18.7869 19.916 18.8699 19.8537 18.9632 19.811C19.0565 19.7683 19.1579 19.7462 19.2605 19.7461H21.0671C21.4545 19.7461 21.8158 20.0273 21.8392 20.4139C21.8458 20.5113 21.8324 20.6089 21.7998 20.7009C21.7672 20.7928 21.716 20.877 21.6494 20.9483C21.5828 21.0197 21.5023 21.0765 21.4129 21.1154C21.3234 21.1543 21.2269 21.1744 21.1293 21.1745Z" fill="white"/>
<path d="M16.464 20.4581V20.7449H16.46C16.468 21.133 16.1439 21.459 15.7538 21.459H13.8774C13.4939 21.459 13.1632 21.139 13.1707 20.7449H13.1667V20.4581H13.2127C13.3236 20.1792 13.6254 19.9883 13.9423 19.9883H15.6888C16.0057 19.9883 16.3075 20.1792 16.4184 20.4581H16.464Z" fill="#E3E7F0"/>
<path d="M15.7516 21.1745H13.9375C13.5722 21.1745 13.2268 20.9265 13.1757 20.5645C13.1609 20.463 13.1681 20.3595 13.1968 20.261C13.2255 20.1626 13.275 20.0714 13.342 19.9938C13.4091 19.9162 13.492 19.8539 13.5853 19.8111C13.6785 19.7684 13.7798 19.7462 13.8824 19.7461H15.6891C16.0769 19.7461 16.4377 20.0273 16.4615 20.4139C16.4682 20.5113 16.4548 20.6089 16.4221 20.7009C16.3895 20.7928 16.3383 20.877 16.2717 20.9483C16.2051 21.0197 16.1246 21.0765 16.0352 21.1154C15.9457 21.1543 15.8492 21.1744 15.7516 21.1745Z" fill="white"/>
<path d="M11.0865 20.4581V20.7449H11.0825C11.09 21.133 10.7664 21.459 10.3758 21.459H8.49944C8.11601 21.459 7.78525 21.139 7.79278 20.7449H7.78882V20.4581H7.83516C7.94608 20.1792 8.24752 19.9883 8.56441 19.9883H10.3113C10.6282 19.9883 10.9296 20.1792 11.0405 20.4581H11.0865Z" fill="#E3E7F0"/>
<path d="M10.3737 21.1745H8.55992C8.1947 21.1745 7.84929 20.9265 7.7978 20.5645C7.78296 20.4629 7.79015 20.3594 7.81887 20.2609C7.84759 20.1624 7.89717 20.0713 7.96424 19.9936C8.03132 19.916 8.11432 19.8537 8.2076 19.811C8.30088 19.7683 8.40226 19.7462 8.50486 19.7461H10.3111C10.6993 19.7461 11.0598 20.0273 11.0836 20.4139C11.0902 20.5113 11.0768 20.6089 11.0442 20.7009C11.0115 20.7928 10.9603 20.877 10.8938 20.9483C10.8272 21.0197 10.7467 21.0765 10.6572 21.1154C10.5678 21.1543 10.4713 21.1744 10.3737 21.1745Z" fill="white"/>
<path d="M5.70838 20.4581V20.7449H5.70441C5.71234 21.133 5.38832 21.459 4.99815 21.459H3.12176C2.73832 21.459 2.40757 21.139 2.41509 20.7449H2.41113V20.4581H2.45708C2.56799 20.1792 2.86943 19.9883 3.18672 19.9883H4.93318C5.25007 19.9883 5.55191 20.1792 5.66243 20.4581H5.70838Z" fill="#E3E7F0"/>
<path d="M4.99652 21.1745H3.18233C2.81711 21.1745 2.4717 20.9265 2.4206 20.5645C2.40577 20.463 2.41295 20.3595 2.44164 20.261C2.47034 20.1626 2.51989 20.0714 2.58692 19.9938C2.65395 19.9162 2.7369 19.8539 2.83013 19.8111C2.92336 19.7684 3.0247 19.7462 3.12727 19.7461H4.93394C5.32173 19.7461 5.68259 20.0273 5.70636 20.4139C5.71303 20.5113 5.69963 20.6089 5.66699 20.7009C5.63434 20.7928 5.58315 20.877 5.51659 20.9483C5.45002 21.0197 5.36951 21.0765 5.28005 21.1154C5.19058 21.1543 5.09408 21.1744 4.99652 21.1745Z" fill="white"/>
<path d="M2.4126 13.0222V14.7477C2.4126 15.1826 2.76514 15.5352 3.20007 15.5352H6.43156C6.86649 15.5352 7.21903 15.1826 7.21903 14.7477V13.0222C7.21903 12.5873 6.86649 12.2344 6.43156 12.2344H3.20007C2.76514 12.2344 2.4126 12.5869 2.4126 13.0222Z" fill="#FEBC1F"/>
<path d="M2.4126 12.7488V14.4743C2.4126 14.9092 2.76514 15.2621 3.20007 15.2621H6.43156C6.86649 15.2621 7.21903 14.9096 7.21903 14.4743V12.7488C7.21903 12.3139 6.86649 11.9609 6.43156 11.9609H3.20007C2.76514 11.9609 2.4126 12.3135 2.4126 12.7488Z" fill="#FFD475"/>
<path d="M4.73257 13.4254V11.9609H4.35824V13.4254H2.41333V13.7993H3.47729V15.2621H3.85122V13.7993H5.53589V15.2621H5.90982V13.7993H7.21937V13.4254H4.73257Z" fill="#FEBC1F"/>
<path d="M21.5006 14.7194H19.3941C19.2186 14.7194 19.053 14.6006 19.0281 14.4267C19.0209 14.3779 19.0243 14.3282 19.0381 14.2809C19.0519 14.2335 19.0757 14.1897 19.1079 14.1524C19.1401 14.1151 19.1799 14.0851 19.2247 14.0646C19.2695 14.044 19.3182 14.0334 19.3675 14.0333H21.4709C21.6567 14.0333 21.8298 14.1684 21.8413 14.3542C21.8445 14.4009 21.838 14.4478 21.8224 14.4919C21.8067 14.5361 21.7821 14.5765 21.7502 14.6107C21.7183 14.645 21.6796 14.6723 21.6367 14.691C21.5937 14.7097 21.5474 14.7194 21.5006 14.7194ZM21.5006 13.251H17.8025C17.627 13.251 17.4614 13.1322 17.4365 12.9579C17.4294 12.9092 17.4328 12.8595 17.4466 12.8122C17.4604 12.7649 17.4842 12.7211 17.5164 12.6839C17.5486 12.6466 17.5885 12.6167 17.6333 12.5962C17.678 12.5757 17.7267 12.565 17.776 12.565H21.4705C21.6567 12.565 21.8298 12.6996 21.8413 12.8858C21.8445 12.9325 21.838 12.9794 21.8224 13.0235C21.8067 13.0677 21.7821 13.1081 21.7502 13.1424C21.7183 13.1766 21.6796 13.2039 21.6367 13.2226C21.5937 13.2413 21.5474 13.251 21.5006 13.251ZM20.9381 5.25391C21.8167 6.3788 22.5403 7.61647 23.0898 8.93379C22.2113 7.80891 21.4874 6.57123 20.9381 5.25391ZM4.53271 8.93261C5.81133 7.95265 7.20178 7.12798 8.67487 6.47591C7.39624 7.45585 6.00579 8.28052 4.53271 8.93261ZM15.1279 22.8473C16.7275 22.6567 18.344 22.6567 19.9435 22.8473C18.3392 23.0386 16.7322 23.0374 15.1279 22.8473Z" fill="white"/>
</svg>
