<svg width="69" height="69" viewBox="0 0 69 69" fill="none" xmlns="http://www.w3.org/2000/svg">
<g clip-path="url(#clip0_3344_461)">
<path d="M55.5313 14.8423L34.1514 61.1446C31.4437 65.4369 28.1922 64.6079 26.4757 63.7165C25.733 63.3319 25.2785 62.9347 25.2785 62.9347L13.7284 54.6294C12.6334 53.8423 12.2353 52.3994 12.7711 51.1624C15.9175 43.8957 26.187 20.1346 28.2607 14.6841C30.717 8.22985 33.8058 8.2749 33.8058 8.2749C39.6266 8.5626 35.9183 8.37886 51.9343 9.17331C56.3694 10.0791 55.5313 14.8423 55.5313 14.8423Z" fill="#5A5A60"/>
<path d="M38.2758 8.49586C38.3421 20.1981 37.1618 46.1624 26.4757 63.7165C25.733 63.3319 25.2785 62.9347 25.2785 62.9347L13.7284 54.6294C12.6334 53.8423 12.2353 52.3994 12.7711 51.1624C15.9175 43.8957 26.187 20.1346 28.2607 14.6841C30.717 8.22985 33.8058 8.2749 33.8058 8.2749L38.2758 8.49586Z" fill="#121212"/>
<path d="M50.1265 14.0762L29.9223 60.1876C29.3779 61.4298 27.7914 61.8039 26.7572 60.9356C26.7436 60.9222 27.0453 61.1404 16.0729 53.2509C15.0783 52.5359 14.7155 51.2254 15.2029 50.1016C18.0894 43.4372 27.5769 21.4839 29.4917 16.4545C31.7549 10.504 34.6015 10.5458 34.6015 10.5458L35.5757 10.5935C35.712 11.9285 36.7659 13.005 38.1246 13.1506L38.235 13.162C38.2387 13.173 38.1587 13.1549 43.0357 13.6717C43.5804 13.7296 44.1303 13.6301 44.6203 13.3851C45.1102 13.1401 45.5197 12.7598 45.8001 12.2892L46.4881 11.1362L48.3633 11.2285C49.7856 11.2986 50.6982 12.772 50.1265 14.0762Z" fill="#BAEDFE"/>
<path d="M38.235 13.162L38.2353 13.1631C37.9498 25.532 36.1036 46.0813 27.8099 61.3935C27.4389 61.3497 27.0724 61.2003 26.7572 60.9357C26.7436 60.9222 27.0453 61.1404 16.0729 53.2509C15.0783 52.5359 14.7155 51.2254 15.2029 50.1016C18.0894 43.4372 27.5769 21.4839 29.4917 16.4545C31.7549 10.504 34.6015 10.5458 34.6015 10.5458L35.5757 10.5935C35.7119 11.9285 36.7659 13.005 38.1246 13.1506L38.235 13.162Z" fill="#9AE1FF"/>
<path d="M13.58 15.5696C6.05961 22.8347 18.6287 42.0238 21.771 46.5479C22.2025 47.1689 22.4558 47.5137 22.4558 47.5137C22.4558 47.5137 32.3228 36.4886 32.5425 26.2346C32.7621 15.9805 22.1307 7.30946 13.58 15.5696ZM20.0108 25.5259C17.2141 22.6067 16.5386 18.6637 18.3791 16.466C20.5955 16.0257 23.4028 17.044 25.5536 19.2866C28.3503 22.2058 29.0247 26.1488 27.1854 28.3465C24.9678 28.7879 22.1593 27.7696 20.0108 25.5259Z" fill="#FFAE32"/>
<path d="M32.5421 26.2337C32.3225 36.4877 22.4555 47.5129 22.4555 47.5129C22.4555 47.5129 22.2022 47.168 21.7706 46.5471L23.1305 44.2302C26.04 40.0987 29.9455 33.3888 30.0828 26.9804C30.1995 21.5344 27.2562 16.5349 23.1882 14.2813C23.1882 14.2813 19.4913 11.9024 13.5796 15.5688C22.1304 7.30863 32.7618 15.9797 32.5421 26.2337Z" fill="#FF9900"/>
<path d="M27.1852 28.3474C27.0912 28.4613 26.9904 28.5692 26.8816 28.6723C24.6757 30.7857 20.5042 30.0105 17.5636 26.9411C14.623 23.8729 14.0271 19.6709 16.2331 17.5575C16.8268 16.9898 17.5621 16.629 18.3788 16.467C16.5384 18.6646 17.2139 22.6077 20.0106 25.5268C22.1591 27.7706 24.9676 28.7888 27.1852 28.3474Z" fill="#FF9900"/>
</g>
<defs>
<clipPath id="clip0_3344_461">
<rect width="53.6138" height="53.6138" fill="white" transform="translate(0.735352 18.1055) rotate(-18.7952)"/>
</clipPath>
</defs>
</svg>
