<svg width="16" height="16" viewBox="0 0 16 16" fill="none" xmlns="http://www.w3.org/2000/svg">
<g clip-path="url(#clip0_5762_3951)">
<path fill-rule="evenodd" clip-rule="evenodd" d="M13.3093 6.30773C13.2576 6.30773 13.2022 6.28558 13.1616 6.24498L12.143 5.2263L11.1206 6.24498C10.925 6.44429 10.6223 6.14533 10.8216 5.94602L11.8403 4.92734L10.8216 3.90865C10.6223 3.70934 10.925 3.40669 11.1206 3.606L12.143 4.62468L13.1616 3.606C13.3573 3.40669 13.6599 3.70934 13.4606 3.90865L12.4419 4.92734L13.4606 5.94602C13.5972 6.07889 13.4975 6.30773 13.3093 6.30773ZM12.0064 16H0.656914C0.542496 16 0.446533 15.904 0.446533 15.7859V0.214072C0.446533 0.0959631 0.542496 0 0.656914 0H12.0064C12.1245 0 12.2205 0.0959631 12.2205 0.214072V1.51326C14.0659 1.55386 15.5533 3.07082 15.5533 4.92734C15.5533 6.73587 14.136 8.2233 12.3533 8.33033V9.7218H13.0177C13.1358 9.7218 13.2318 9.81776 13.2318 9.93587V14.2727C13.2318 14.3908 13.1358 14.4867 13.0177 14.4867H12.2205V15.7859C12.2205 15.904 12.1245 16 12.0064 16ZM11.7923 1.53172V0.424452H0.870985V15.5755H11.7923V14.4867H11.2645C11.1464 14.4867 11.0505 14.3908 11.0505 14.2727V9.93587C11.0505 9.81776 11.1464 9.7218 11.2645 9.7218H11.9289V8.33033C10.1462 8.2233 8.72889 6.73587 8.72889 4.92734C8.72889 3.16309 10.0761 1.70519 11.7923 1.53172ZM8.58125 1.80115H4.08575C3.80524 1.80115 3.80524 1.3767 4.08575 1.3767H8.58125C8.86176 1.3767 8.86176 1.80115 8.58125 1.80115ZM8.1568 3.403H2.46914C2.18863 3.403 2.18863 2.97855 2.46914 2.97855H8.1568C8.43731 2.97855 8.43731 3.403 8.1568 3.403ZM9.69221 9.81407H2.46914C2.18863 9.81407 2.18863 9.38962 2.46914 9.38962H9.69221C9.97272 9.38962 9.97272 9.81407 9.69221 9.81407ZM10.124 11.4196H2.46914C2.18863 11.4196 2.18863 10.9915 2.46914 10.9915H10.124C10.4045 10.9915 10.4045 11.4196 10.124 11.4196ZM9.79555 13.0215H2.46914C2.18863 13.0215 2.18863 12.5933 2.46914 12.5933H9.79555C10.0761 12.5933 10.0761 13.0215 9.79555 13.0215ZM7.75818 14.6233H2.46914C2.18863 14.6233 2.18863 14.1988 2.46914 14.1988H7.75818C8.03869 14.1988 8.03869 14.6233 7.75818 14.6233ZM12.143 1.93772C10.4931 1.93772 9.15334 3.27751 9.15334 4.92734C9.15334 6.57347 10.4931 7.91326 12.143 7.91326C13.7891 7.91326 15.1289 6.57347 15.1289 4.92734C15.1289 3.27751 13.7891 1.93772 12.143 1.93772ZM11.4786 14.0623H12.8073V11.0542H11.4786V14.0623ZM12.8073 10.6298V10.1499H11.4786V10.6298H12.8073ZM8.1568 5.00854H2.46914C2.18863 5.00854 2.18863 4.58039 2.46914 4.58039H8.1568C8.43731 4.58039 8.43731 5.00854 8.1568 5.00854ZM8.1568 6.61038H2.46914C2.18863 6.61038 2.18863 6.18593 2.46914 6.18593H8.1568C8.43731 6.18593 8.43731 6.61038 8.1568 6.61038ZM8.90236 8.21223H2.46914C2.18863 8.21223 2.18863 7.78777 2.46914 7.78777H8.90236C9.18287 7.78777 9.18287 8.21223 8.90236 8.21223Z" fill="#1E866F"/>
</g>
<defs>
<clipPath id="clip0_5762_3951">
<rect width="16" height="16" fill="white"/>
</clipPath>
</defs>
</svg>
