<svg width="16" height="16" viewBox="0 0 16 16" fill="none" xmlns="http://www.w3.org/2000/svg">
<path fill-rule="evenodd" clip-rule="evenodd" d="M9.12767 7.8376C9.02433 7.8376 8.16066 7.39469 7.99826 7.31719L6.96481 7.81546C6.81348 7.88927 6.63632 7.76378 6.66216 7.594L6.81348 6.45721L6.01994 5.62307C5.90184 5.50127 5.96827 5.29827 6.13436 5.26874L7.26746 5.06205L7.81372 4.05075C7.89122 3.89942 8.10899 3.89942 8.1865 4.05075L8.73275 5.06205L9.86216 5.26874C10.0282 5.29827 10.0984 5.50127 9.98027 5.62307L9.18303 6.45721L9.33805 7.594C9.35651 7.72318 9.25685 7.8376 9.12767 7.8376ZM4.61002 15.9945C4.51775 15.9945 4.43655 15.9354 4.40703 15.8505L3.84232 14.1121L2.25893 15.0828C2.08546 15.1898 1.87508 15.0127 1.95259 14.8245L4.20403 9.26228L3.02663 8.9301C2.91591 8.89689 2.84947 8.78247 2.879 8.67174L3.26285 7.15848L2.17404 6.03645C2.09284 5.95156 2.09284 5.82238 2.17404 5.73749L3.26285 4.61915L2.879 3.10219C2.84947 2.99146 2.91591 2.87705 3.02663 2.84383L4.53252 2.41938L4.95697 0.913495C4.99019 0.802768 5.1046 0.736332 5.21533 0.765859L6.73229 1.14971L7.85062 0.0608997C7.93551 -0.0202999 8.0647 -0.0202999 8.14959 0.0608997L9.26793 1.14971L10.7849 0.765859C10.8956 0.736332 11.01 0.802768 11.0432 0.913495L11.4677 2.41938L12.9736 2.84383C13.0843 2.87705 13.1507 2.99146 13.1212 3.10219L12.7374 4.61915L13.8262 5.73749C13.9074 5.82238 13.9074 5.95156 13.8262 6.03645L12.7374 7.15479L13.1212 8.67174C13.1507 8.78247 13.0843 8.89689 12.9736 8.9301L11.7962 9.26228L14.0476 14.8245C14.1251 15.0127 13.9148 15.1898 13.7413 15.0828L12.1579 14.1121L11.5932 15.8505C11.5304 16.0388 11.2684 16.0461 11.1946 15.8616L9.12767 10.7608L8.14959 11.713C8.0647 11.7942 7.93551 11.7942 7.85062 11.713L6.87254 10.7608L4.80564 15.8616C4.77242 15.9428 4.69492 15.9945 4.61002 15.9945ZM4.56942 9.49112L2.58742 14.3815L3.8497 13.6065C3.96781 13.5363 4.12283 13.5917 4.16343 13.7246L4.63217 15.1603L6.43701 10.698L5.21533 11.0081C5.1046 11.0376 4.99019 10.9712 4.95697 10.8604L4.56942 9.49112ZM9.14244 10.185C9.18303 10.1739 9.22733 10.1739 9.26793 10.185L10.6889 10.543L11.0912 9.12572C11.1097 9.0519 11.165 8.99654 11.2352 8.97809L12.6562 8.57578L12.2945 7.14741C12.276 7.07728 12.2981 6.99608 12.3498 6.94441L13.3759 5.88881L12.3498 4.82953C12.2981 4.77785 12.276 4.69666 12.2945 4.62653L12.6562 3.19815L11.2352 2.79585C11.165 2.77739 11.1097 2.72203 11.0912 2.6519L10.6889 1.23091L9.26054 1.59262C9.19042 1.61107 9.10922 1.58893 9.05754 1.53725L7.99826 0.511188C7.84693 0.658824 6.9685 1.55571 6.85408 1.58893C6.81718 1.6 6.77658 1.6 6.73967 1.59262L5.31129 1.23091L4.90899 2.6519C4.89053 2.72203 4.83517 2.77739 4.76135 2.79585L3.34405 3.19815L3.70576 4.62653C3.72421 4.69666 3.70207 4.77785 3.65039 4.82953L2.62064 5.88881L3.65039 6.94441C3.70207 6.99608 3.72421 7.07728 3.70576 7.14741L3.34405 8.57578L4.76135 8.97809C4.83517 8.99654 4.89053 9.0519 4.90899 9.12572L5.31129 10.543L6.79134 10.1776C6.8467 10.1776 6.90576 10.1998 6.94267 10.2367L7.99826 11.2664C8.15328 11.1151 9.03171 10.2182 9.14244 10.185ZM9.5632 10.698L11.368 15.1603L11.8368 13.7246C11.8774 13.5917 12.0324 13.5363 12.1505 13.6065L13.4128 14.3815L11.4308 9.49112L11.0432 10.8604C11.01 10.9712 10.8956 11.0339 10.7849 11.0081L9.5632 10.698ZM7.99826 9.39516C6.06423 9.39516 4.49192 7.82284 4.49192 5.88881C4.49192 3.9511 6.06423 2.37878 7.99826 2.37878C9.93598 2.37878 11.5083 3.9511 11.5083 5.88881C11.5083 7.82284 9.93229 9.39516 7.99826 9.39516ZM7.99826 2.80692C6.30045 2.80692 4.91637 4.18731 4.91637 5.88881C4.91637 7.58662 6.30045 8.9707 7.99826 8.9707C9.69976 8.9707 11.0802 7.58662 11.0802 5.88881C11.0802 4.18731 9.69976 2.80692 7.99826 2.80692ZM7.99826 6.8669C8.09791 6.8669 8.72906 7.19539 8.86562 7.26182L8.74751 6.41292C8.74013 6.34648 8.76227 6.28374 8.80656 6.23576L9.39711 5.61569L8.55558 5.46436C8.49284 5.45329 8.43748 5.41269 8.40426 5.35363L7.99826 4.60069L7.59226 5.35363C7.56274 5.41269 7.50737 5.45329 7.44463 5.46436L6.59941 5.61569L7.19365 6.23576C7.23794 6.28374 7.26008 6.34648 7.24901 6.41292L7.13459 7.26182C7.26746 7.19539 7.9023 6.8669 7.99826 6.8669Z" fill="#1E866F"/>
</svg>
