<svg width="16" height="16" viewBox="0 0 16 16" fill="none" xmlns="http://www.w3.org/2000/svg">
<path fill-rule="evenodd" clip-rule="evenodd" d="M14.9724 4.06732H13.6065C13.4568 4.06732 13.3345 3.94596 13.3345 3.79537L13.3354 2.30539H12.9235C12.6985 2.30539 12.5709 2.04496 12.7091 1.8669L14.0751 0.104972C14.1831 -0.0349906 14.3957 -0.0349906 14.5047 0.104972L15.86 1.8545C16.0195 2.04673 15.8769 2.30539 15.6563 2.30539H15.2444V3.79537C15.2444 3.94596 15.1221 4.06732 14.9724 4.06732ZM12.4079 14.9215H3.56993C3.42022 14.9215 3.29886 14.8001 3.29886 14.6504C3.29886 14.2925 3.0083 14.0029 2.65131 14.0029C2.50072 14.0029 2.37936 13.8806 2.37936 13.7309V10.5986C2.37936 10.448 2.50072 10.3267 2.65131 10.3267C3.0083 10.3267 3.29886 10.0361 3.29886 9.6791C3.29886 9.5294 3.42022 9.40715 3.56993 9.40715H12.4079C12.5585 9.40715 12.6799 9.5294 12.6799 9.6791C12.6799 10.0361 12.9704 10.3267 13.3274 10.3267C13.4771 10.3267 13.5994 10.448 13.5994 10.5986V13.7309C13.5994 13.8806 13.4771 14.0029 13.3274 14.0029C12.9704 14.0029 12.6799 14.2925 12.6799 14.6504C12.6799 14.8001 12.5585 14.9215 12.4079 14.9215ZM3.81087 14.3785H12.1679C12.2706 13.9391 12.617 13.5927 13.0555 13.49V10.8387C12.617 10.7359 12.2706 10.3895 12.1679 9.95106H3.81087C3.70812 10.3895 3.36175 10.7359 2.92238 10.8387V13.49C3.36175 13.5927 3.70812 13.9391 3.81087 14.3785ZM14.4055 15.9996H1.57325C1.42266 15.9996 1.3013 15.8782 1.3013 15.7276V8.60104C1.3013 8.45133 1.42266 8.32909 1.57325 8.32909H14.4055C14.5552 8.32909 14.6774 8.45133 14.6774 8.60104V15.7276C14.6774 15.8782 14.5552 15.9996 14.4055 15.9996ZM1.84431 15.4565H14.1335V8.87299H1.84431V15.4565ZM5.48156 12.4358H3.84454C3.69394 12.4358 3.57258 12.3145 3.57258 12.1648C3.57258 12.0142 3.69394 11.8928 3.84454 11.8928H5.48156C5.63127 11.8928 5.75352 12.0142 5.75352 12.1648C5.75352 12.3145 5.63127 12.4358 5.48156 12.4358ZM12.1342 12.4358H10.4972C10.3466 12.4358 10.2252 12.3145 10.2252 12.1648C10.2252 12.0142 10.3466 11.8928 10.4972 11.8928H12.1342C12.2848 11.8928 12.4062 12.0142 12.4062 12.1648C12.4062 12.3145 12.2848 12.4358 12.1342 12.4358ZM7.98937 13.9621C6.99812 13.9621 6.19201 13.156 6.19201 12.1648C6.19201 11.1735 6.99812 10.3674 7.98937 10.3674C8.98062 10.3674 9.78673 11.1735 9.78673 12.1648C9.78673 13.156 8.98062 13.9621 7.98937 13.9621ZM7.98937 10.9104C7.29753 10.9104 6.73502 11.4729 6.73502 12.1648C6.73502 12.8557 7.29753 13.4182 7.98937 13.4182C8.68032 13.4182 9.24372 12.8557 9.24372 12.1648C9.24372 11.4729 8.68032 10.9104 7.98937 10.9104ZM9.71498 7.02779H0.271952C0.12136 7.02779 0 6.90643 0 6.75584V0.763149C0 0.612557 0.12136 0.491197 0.271952 0.491197H9.71498C9.86557 0.491197 9.98693 0.612557 9.98693 0.763149V6.75584C9.98693 6.90643 9.86557 7.02779 9.71498 7.02779ZM0.543018 6.48477H9.44303V3.86004H0.543018V6.48477ZM9.44303 1.85716V1.03422H0.543018V1.85716H9.44303ZM0.543018 3.31613H9.44303V2.40018H0.543018V3.31613ZM3.10663 6.08703H1.24992C1.09932 6.08703 0.977965 5.96567 0.977965 5.81508V4.75473C0.977965 4.60414 1.09932 4.48278 1.24992 4.48278H3.10663C3.25634 4.48278 3.37858 4.60414 3.37858 4.75473V5.81508C3.37858 5.96567 3.25634 6.08703 3.10663 6.08703ZM1.52098 5.54401H2.83468V5.0258H1.52098V5.54401ZM8.73702 6.08703H6.39309C6.2425 6.08703 6.12114 5.96567 6.12114 5.81508C6.12114 5.66537 6.2425 5.54313 6.39309 5.54313L8.73702 5.54401C8.88672 5.54401 9.00897 5.66537 9.00897 5.81508C9.00897 5.96567 8.88672 6.08703 8.73702 6.08703ZM7.98671 5.0258H6.39309C6.2425 5.0258 6.12114 4.90444 6.12114 4.75473C6.12114 4.60414 6.2425 4.48278 6.39309 4.48278H7.98671C8.13642 4.48278 8.25866 4.60414 8.25866 4.75473C8.25866 4.90444 8.13642 5.0258 7.98671 5.0258ZM11.8685 7.41402L10.5034 5.65209C10.3652 5.47403 10.4927 5.2136 10.7177 5.2136H11.1288V3.72362C11.1288 3.57303 11.251 3.45167 11.4007 3.45167H12.7667C12.9164 3.45167 13.0378 3.57303 13.0378 3.72362V5.2136H13.4497C13.6747 5.2136 13.8022 5.47403 13.664 5.65209L12.2981 7.41402C12.19 7.55309 11.9765 7.55309 11.8685 7.41402ZM11.2723 5.7575L12.0837 6.80456L12.8951 5.7575H12.7667C12.6161 5.7575 12.4947 5.63526 12.4947 5.48555V3.99468H11.6727V5.48555C11.6727 5.63526 11.5504 5.7575 11.4007 5.7575H11.2723ZM13.8784 3.52431H14.7005V2.03344C14.7005 1.88373 14.8227 1.76149 14.9724 1.76149H15.1009L14.2894 0.714428L13.478 1.76149H13.6065C13.7571 1.76149 13.8784 1.88373 13.8784 2.03344V3.52431Z" fill="#1E866F"/>
</svg>
