<svg width="16" height="16" viewBox="0 0 16 16" fill="none" xmlns="http://www.w3.org/2000/svg">
<g clip-path="url(#clip0_5762_3969)">
<path d="M15.7751 13.7598H0.262481C0.230865 13.7615 0.199272 13.7562 0.169949 13.7442C0.140625 13.7323 0.114291 13.714 0.0928164 13.6908C0.0713422 13.6675 0.0552555 13.6398 0.0456994 13.6096C0.0361433 13.5794 0.0333525 13.5475 0.0375252 13.5161V5.34274C0.0375252 5.21151 0.150003 5.10841 0.281228 5.11778H15.7751C15.8969 5.11778 16 5.21151 16 5.34274V13.5443C16 13.6567 15.9063 13.7598 15.7751 13.7598ZM0.478064 13.3099H15.5595V5.55832H0.468691V13.3193L0.478064 13.3099Z" fill="#1E866F"/>
<path d="M13.3098 12.4832H2.72746C2.69837 12.4845 2.66932 12.4798 2.64207 12.4695C2.61483 12.4593 2.58994 12.4436 2.56892 12.4235C2.5479 12.4033 2.53117 12.3791 2.51976 12.3523C2.50834 12.3255 2.50247 12.2967 2.5025 12.2676C2.5025 12.0066 2.39881 11.7563 2.21424 11.5717C2.02967 11.3871 1.77934 11.2834 1.51832 11.2834C1.46114 11.2834 1.40631 11.2607 1.36588 11.2203C1.32545 11.1798 1.30273 11.125 1.30273 11.0678V7.81535C1.31211 7.68412 1.40584 7.59039 1.52769 7.59039C1.65694 7.59039 1.78491 7.56493 1.90432 7.51547C2.02373 7.46601 2.13222 7.39352 2.22361 7.30213C2.315 7.21074 2.3875 7.10224 2.43696 6.98284C2.48642 6.86343 2.51187 6.73545 2.51187 6.60621C2.51187 6.48436 2.6056 6.39062 2.73683 6.39062H13.3004C13.4222 6.39062 13.5253 6.48436 13.5253 6.60621C13.5253 6.86723 13.629 7.11756 13.8136 7.30213C13.9982 7.4867 14.2485 7.59039 14.5095 7.59039C14.622 7.59039 14.7251 7.68412 14.7251 7.81535V11.0678C14.7251 11.1803 14.6314 11.2834 14.5095 11.2834C14.2485 11.2834 13.9982 11.3871 13.8136 11.5717C13.629 11.7563 13.5253 12.0066 13.5253 12.2676C13.5253 12.3895 13.441 12.4832 13.3098 12.4832ZM2.92429 12.0426H13.0942C13.1403 11.746 13.2796 11.4717 13.4919 11.2594C13.7042 11.0471 13.9785 10.9078 14.2752 10.8616V8.01218C13.9816 7.96477 13.7103 7.82606 13.5 7.61573C13.2897 7.40541 13.151 7.13417 13.1036 6.84054H2.93367C2.88752 7.13721 2.74824 7.41152 2.53593 7.62382C2.32363 7.83613 2.04932 7.97541 1.75265 8.02156V10.871C2.04932 10.9171 2.32363 11.0564 2.53593 11.2687C2.74824 11.481 2.88752 11.7553 2.93367 12.052L2.92429 12.0426Z" fill="#1E866F"/>
<path d="M8.01402 11.1641C7.67321 11.1637 7.34015 11.0623 7.0569 10.8728C6.77365 10.6833 6.55291 10.4141 6.42254 10.0992C6.29217 9.78427 6.25802 9.43781 6.3244 9.10352C6.39078 8.76924 6.55472 8.46211 6.79551 8.22092C7.03619 7.97689 7.34413 7.81012 7.68002 7.74187C8.01591 7.67363 8.36452 7.70701 8.68135 7.83777C8.99818 7.96853 9.26886 8.19072 9.45885 8.47599C9.64885 8.76127 9.74953 9.09668 9.74805 9.43943C9.74806 9.66671 9.70314 9.89175 9.61588 10.1016C9.52862 10.3115 9.40075 10.502 9.2396 10.6623C9.07846 10.8226 8.88723 10.9494 8.6769 11.0355C8.46657 11.1216 8.24129 11.1653 8.01402 11.1641ZM7.10482 10.3486C7.28389 10.532 7.51373 10.6575 7.76475 10.7092C8.01577 10.7608 8.2765 10.7361 8.51339 10.6383C8.75028 10.5406 8.9525 10.3741 9.09402 10.1605C9.23554 9.94682 9.3099 9.6957 9.30752 9.43943C9.3099 9.18317 9.23554 8.93205 9.09402 8.71839C8.9525 8.50473 8.75028 8.33831 8.51339 8.24053C8.2765 8.14275 8.01577 8.11808 7.76475 8.16971C7.51373 8.22134 7.28389 8.3469 7.10482 8.53024C6.98522 8.64952 6.89034 8.79123 6.82559 8.94725C6.76085 9.10326 6.72752 9.27052 6.72752 9.43943C6.72752 9.60835 6.76085 9.7756 6.82559 9.93162C6.89034 10.0876 6.98522 10.2293 7.10482 10.3486ZM3.94606 10.761C3.68377 10.7649 3.42636 10.69 3.20704 10.5461C2.98772 10.4021 2.81658 10.1958 2.71568 9.95365C2.61479 9.71151 2.58879 9.44469 2.64102 9.18762C2.69326 8.93056 2.82135 8.69505 3.00875 8.51149C3.19175 8.3247 3.42639 8.19684 3.68256 8.14432C3.93874 8.09181 4.20476 8.11703 4.4465 8.21674C4.68824 8.31646 4.89467 8.48613 5.03932 8.70398C5.18396 8.92184 5.26022 9.17794 5.25831 9.43943C5.25831 9.78746 5.12005 10.1212 4.87396 10.3673C4.62787 10.6134 4.29409 10.7517 3.94606 10.7517V10.761ZM3.32743 10.0674C3.45118 10.1895 3.60825 10.2722 3.77888 10.3051C3.94951 10.3381 4.12608 10.3199 4.28638 10.2528C4.44668 10.1856 4.58355 10.0726 4.67977 9.92788C4.77599 9.78316 4.82727 9.61322 4.82714 9.43943C4.82543 9.26644 4.77284 9.09778 4.67591 8.95449C4.57898 8.81119 4.44202 8.6996 4.28209 8.63363C4.12216 8.56766 3.94635 8.55023 3.77659 8.58352C3.60682 8.6168 3.45061 8.69933 3.32743 8.8208C3.24553 8.90263 3.18055 8.9998 3.13622 9.10675C3.09189 9.2137 3.06907 9.32834 3.06907 9.44412C3.06907 9.5599 3.09189 9.67454 3.13622 9.78149C3.18055 9.88844 3.24553 9.98561 3.32743 10.0674ZM12.0913 10.761C11.8291 10.7649 11.5716 10.69 11.3523 10.5461C11.133 10.4021 10.9619 10.1958 10.861 9.95365C10.7601 9.71151 10.7341 9.44469 10.7863 9.18762C10.8385 8.93056 10.9666 8.69505 11.154 8.51149C11.337 8.3247 11.5717 8.19684 11.8278 8.14432C12.084 8.09181 12.35 8.11703 12.5918 8.21674C12.8335 8.31646 13.04 8.48613 13.1846 8.70398C13.3292 8.92184 13.4055 9.17794 13.4036 9.43943C13.4036 9.78746 13.2653 10.1212 13.0192 10.3673C12.7731 10.6134 12.4394 10.7517 12.0913 10.7517V10.761ZM11.4633 10.0674C11.5866 10.1927 11.7445 10.2782 11.9167 10.3131C12.089 10.3479 12.2677 10.3305 12.4299 10.263C12.5922 10.1954 12.7305 10.081 12.8272 9.9342C12.9239 9.78745 12.9744 9.61515 12.9724 9.43943C12.9707 9.26644 12.9181 9.09778 12.8212 8.95449C12.7243 8.81119 12.5873 8.6996 12.4274 8.63363C12.2674 8.56766 12.0916 8.55023 11.9219 8.58352C11.7521 8.6168 11.5959 8.69933 11.4727 8.8208C11.3908 8.90263 11.3258 8.9998 11.2815 9.10675C11.2372 9.2137 11.2144 9.32834 11.2144 9.44412C11.2144 9.5599 11.2372 9.67454 11.2815 9.78149C11.3258 9.88844 11.3814 9.98561 11.4633 10.0674ZM-4.02651e-05 4.62162C-4.02639e-05 4.68004 0.0231666 4.73607 0.0644752 4.77738C0.105784 4.81869 0.16181 4.84189 0.220229 4.84189C0.278648 4.84189 0.334675 4.81869 0.375983 4.77738C0.417292 4.73607 0.440499 4.68004 0.440499 4.62162V4.12485H15.5594V4.631C15.5594 4.68942 15.5826 4.74544 15.6239 4.78675C15.6652 4.82806 15.7213 4.85127 15.7797 4.85127C15.8381 4.85127 15.8941 4.82806 15.9354 4.78675C15.9768 4.74544 16 4.68942 16 4.631V3.89989C16.0013 3.86999 15.9964 3.84015 15.9855 3.81225C15.9747 3.78436 15.9582 3.75902 15.937 3.73786C15.9159 3.7167 15.8905 3.70018 15.8626 3.68935C15.8347 3.67851 15.8049 3.6736 15.775 3.67493H0.215543C0.186426 3.67491 0.157605 3.68078 0.130819 3.69219C0.104033 3.70361 0.0798367 3.72033 0.0596905 3.74135C0.0395442 3.76238 0.0238652 3.78726 0.0135994 3.81451C0.00333363 3.84176 -0.00130624 3.8708 -4.02651e-05 3.89989V4.62162ZM-4.02651e-05 3.18753C-4.02639e-05 3.24595 0.0231666 3.30197 0.0644752 3.34328C0.105784 3.38459 0.16181 3.4078 0.220229 3.4078C0.278648 3.4078 0.334675 3.38459 0.375983 3.34328C0.417292 3.30197 0.440499 3.24595 0.440499 3.18753V2.67201H15.5594V3.18753C15.5594 3.24595 15.5826 3.30197 15.6239 3.34328C15.6652 3.38459 15.7213 3.4078 15.7797 3.4078C15.8381 3.4078 15.8941 3.38459 15.9354 3.34328C15.9768 3.30197 16 3.24595 16 3.18753V2.45642C15.9988 2.4281 15.992 2.4003 15.98 2.3746C15.9681 2.3489 15.9511 2.32582 15.9302 2.30667C15.9094 2.28751 15.8849 2.27267 15.8582 2.26298C15.8316 2.25329 15.8033 2.24895 15.775 2.25021H0.215543C0.159954 2.25016 0.106494 2.27158 0.066323 2.31001C0.0261523 2.34843 0.00237661 2.40089 -4.02651e-05 2.45642V3.18753Z" fill="#1E866F"/>
</g>
<defs>
<clipPath id="clip0_5762_3969">
<rect width="16" height="16" fill="white"/>
</clipPath>
</defs>
</svg>
