<svg width="16" height="16" viewBox="0 0 16 16" fill="none" xmlns="http://www.w3.org/2000/svg">
<path d="M10.9702 5.13281H15.5373" stroke="#1E866F" stroke-width="0.5" stroke-miterlimit="10" stroke-linecap="round" stroke-linejoin="round"/>
<path d="M0.462891 5.13281H9.94883" stroke="#1E866F" stroke-width="0.5" stroke-miterlimit="10" stroke-linecap="round" stroke-linejoin="round"/>
<path d="M12.0171 15.7656H1.24414C0.812641 15.7656 0.462891 15.4158 0.462891 14.9844V8.51072" stroke="#1E866F" stroke-width="0.5" stroke-miterlimit="10" stroke-linecap="round" stroke-linejoin="round"/>
<path d="M2.61455 1.76309H1.24414C0.812672 1.76309 0.462891 2.11288 0.462891 2.54434V7.48828" stroke="#1E866F" stroke-width="0.5" stroke-miterlimit="10" stroke-linecap="round" stroke-linejoin="round"/>
<path d="M7.25897 1.76367H4.09766" stroke="#1E866F" stroke-width="0.5" stroke-miterlimit="10" stroke-linecap="round" stroke-linejoin="round"/>
<path d="M8.00023 3.29297C7.59073 3.29297 7.25879 2.96103 7.25879 2.55153V0.975C7.25879 0.565532 7.59073 0.233594 8.00023 0.233594C8.40973 0.233594 8.74166 0.565532 8.74166 0.975V2.55153C8.74166 2.96103 8.40973 3.29297 8.00023 3.29297Z" stroke="#1E866F" stroke-width="0.5" stroke-miterlimit="10" stroke-linecap="round" stroke-linejoin="round"/>
<path d="M3.35621 3.29297C2.94671 3.29297 2.61475 2.96103 2.61475 2.55153V0.975C2.61475 0.565532 2.94671 0.233594 3.35621 0.233594C3.76571 0.233594 4.09765 0.565532 4.09765 0.975V2.55153C4.09765 2.96103 3.76571 3.29297 3.35621 3.29297Z" stroke="#1E866F" stroke-width="0.5" stroke-miterlimit="10" stroke-linecap="round" stroke-linejoin="round"/>
<path d="M12.6443 3.29297C12.2348 3.29297 11.9028 2.96103 11.9028 2.55153V0.975C11.9028 0.565532 12.2348 0.233594 12.6443 0.233594C13.0538 0.233594 13.3857 0.565532 13.3857 0.975V2.55153C13.3857 2.96103 13.0538 3.29297 12.6443 3.29297Z" stroke="#1E866F" stroke-width="0.5" stroke-miterlimit="10" stroke-linecap="round" stroke-linejoin="round"/>
<path d="M13.8591 9.75391H11.3248C11.2811 9.7539 11.2392 9.73655 11.2084 9.70567C11.1775 9.67479 11.1602 9.63291 11.1602 9.58925V7.05494C11.1602 7.01127 11.1775 6.9694 11.2084 6.93852C11.2392 6.90764 11.2811 6.89029 11.3248 6.89028H13.8591C13.9028 6.89028 13.9447 6.90763 13.9756 6.93851C14.0064 6.96939 14.0238 7.01127 14.0238 7.05494V9.58925C14.0238 9.63292 14.0064 9.6748 13.9756 9.70568C13.9447 9.73656 13.9028 9.75391 13.8591 9.75391Z" stroke="#1E866F" stroke-width="0.5" stroke-miterlimit="10" stroke-linecap="round" stroke-linejoin="round"/>
<path d="M9.26733 14.0488H6.73295C6.71133 14.0488 6.68992 14.0446 6.66995 14.0363C6.64998 14.028 6.63183 14.0159 6.61655 14.0006C6.60126 13.9853 6.58914 13.9672 6.58087 13.9472C6.5726 13.9272 6.56835 13.9058 6.56836 13.8842V11.3499C6.56836 11.3062 6.5857 11.2643 6.61656 11.2335C6.64743 11.2026 6.68929 11.1852 6.73295 11.1852H9.26733C9.31099 11.1852 9.35286 11.2026 9.38373 11.2335C9.4146 11.2643 9.43194 11.3062 9.43195 11.3499V13.8842C9.43196 13.9058 9.4277 13.9272 9.41943 13.9472C9.41116 13.9672 9.39903 13.9853 9.38375 14.0006C9.36846 14.0159 9.35031 14.028 9.33033 14.0363C9.31036 14.0446 9.28895 14.0488 9.26733 14.0488Z" stroke="#1E866F" stroke-width="0.5" stroke-miterlimit="10" stroke-linecap="round" stroke-linejoin="round"/>
<path d="M4.67553 14.0488H2.14119C2.11956 14.0488 2.09815 14.0446 2.07818 14.0363C2.0582 14.028 2.04005 14.0159 2.02476 14.0006C2.00947 13.9853 1.99735 13.9672 1.98908 13.9472C1.98081 13.9272 1.97655 13.9058 1.97656 13.8842V11.3499C1.97656 11.3062 1.99391 11.2643 2.02478 11.2334C2.05565 11.2026 2.09752 11.1852 2.14119 11.1852H4.67553C4.7192 11.1852 4.76107 11.2026 4.79195 11.2334C4.82283 11.2643 4.84018 11.3062 4.84019 11.3499V13.8842C4.84019 13.9278 4.82284 13.9697 4.79196 14.0006C4.76108 14.0315 4.7192 14.0488 4.67553 14.0488Z" stroke="#1E866F" stroke-width="0.5" stroke-miterlimit="10" stroke-linecap="round" stroke-linejoin="round"/>
<path d="M13.8591 14.0488H11.3248C11.3032 14.0488 11.2818 14.0446 11.2618 14.0363C11.2418 14.028 11.2236 14.0159 11.2084 14.0006C11.1931 13.9853 11.1809 13.9672 11.1727 13.9472C11.1644 13.9272 11.1602 13.9058 11.1602 13.8842V11.3499C11.1602 11.3062 11.1775 11.2643 11.2084 11.2335C11.2393 11.2026 11.2811 11.1852 11.3248 11.1852H13.8591C13.9028 11.1852 13.9447 11.2026 13.9755 11.2334C14.0064 11.2643 14.0238 11.3062 14.0238 11.3499V13.8842C14.0238 13.9058 14.0195 13.9272 14.0113 13.9472C14.003 13.9672 13.9909 13.9853 13.9756 14.0006C13.9603 14.0159 13.9421 14.028 13.9221 14.0363C13.9022 14.0446 13.8807 14.0488 13.8591 14.0488Z" stroke="#1E866F" stroke-width="0.5" stroke-miterlimit="10" stroke-linecap="round" stroke-linejoin="round"/>
<path d="M9.26733 9.75391H6.73295C6.71133 9.7539 6.68993 9.74964 6.66996 9.74136C6.64998 9.73309 6.63184 9.72096 6.61655 9.70567C6.60127 9.69038 6.58915 9.67223 6.58088 9.65225C6.57261 9.63228 6.56836 9.61087 6.56836 9.58925V7.05494C6.56836 7.03332 6.57261 7.01191 6.58088 6.99194C6.58915 6.97196 6.60127 6.95381 6.61655 6.93852C6.63184 6.92323 6.64998 6.9111 6.66996 6.90282C6.68993 6.89455 6.71133 6.89029 6.73295 6.89028H9.26733C9.31099 6.89029 9.35286 6.90764 9.38374 6.93852C9.41461 6.9694 9.43195 7.01127 9.43195 7.05494V9.58925C9.43195 9.63291 9.41461 9.67479 9.38374 9.70567C9.35286 9.73655 9.31099 9.7539 9.26733 9.75391Z" stroke="#1E866F" stroke-width="0.5" stroke-miterlimit="10" stroke-linecap="round" stroke-linejoin="round"/>
<path d="M4.67553 9.75391H2.14119C2.11957 9.75391 2.09816 9.74965 2.07818 9.74137C2.05821 9.7331 2.04006 9.72097 2.02477 9.70568C2.00948 9.69039 1.99736 9.67224 1.98908 9.65226C1.98081 9.63228 1.97656 9.61087 1.97656 9.58925V7.05494C1.97656 7.03332 1.98081 7.01191 1.98908 6.99193C1.99736 6.97195 2.00948 6.9538 2.02477 6.93851C2.04006 6.92322 2.05821 6.91109 2.07818 6.90282C2.09816 6.89454 2.11957 6.89028 2.14119 6.89028H4.67553C4.7192 6.89029 4.76107 6.90764 4.79195 6.93852C4.82283 6.96939 4.84018 7.01127 4.84019 7.05494V9.58925C4.84018 9.63292 4.82283 9.67479 4.79195 9.70567C4.76107 9.73655 4.7192 9.7539 4.67553 9.75391Z" stroke="#1E866F" stroke-width="0.5" stroke-miterlimit="10" stroke-linecap="round" stroke-linejoin="round"/>
<path d="M3.0415 8.32255L3.72113 8.99023L5.30388 7.3967" stroke="#1E866F" stroke-width="0.5" stroke-miterlimit="10" stroke-linecap="round" stroke-linejoin="round"/>
<path d="M7.84375 8.32255L8.52341 8.99023L10.1061 7.3967" stroke="#1E866F" stroke-width="0.5" stroke-miterlimit="10" stroke-linecap="round" stroke-linejoin="round"/>
<path d="M11.903 1.76367H8.7417" stroke="#1E866F" stroke-width="0.5" stroke-miterlimit="10" stroke-linecap="round" stroke-linejoin="round"/>
<path d="M13.0386 15.7656H14.7561C15.1876 15.7656 15.5374 15.4158 15.5374 14.9844V2.54531C15.5374 2.11388 15.1876 1.76406 14.7561 1.76406H13.3857" stroke="#1E866F" stroke-width="0.5" stroke-miterlimit="10" stroke-linecap="round" stroke-linejoin="round"/>
</svg>
