<svg width="16" height="16" viewBox="0 0 16 16" fill="none" xmlns="http://www.w3.org/2000/svg">
<g clip-path="url(#clip0_7524_2991)">
<path d="M12.5913 11.9444H12.5863V7.92645C12.5863 5.39745 10.5288 3.33995 7.9998 3.33995C5.4708 3.33995 3.4138 5.39745 3.4138 7.92645V11.9444H3.4088C2.97021 11.945 2.54974 12.1195 2.23966 12.4297C1.92957 12.7398 1.7552 13.1604 1.7548 13.5989V14.2744C1.7548 14.8684 2.2383 15.3524 2.8328 15.3524H13.1668C13.4526 15.3521 13.7266 15.2384 13.9288 15.0363C14.131 14.8342 14.2448 14.5603 14.2453 14.2744V13.5989C14.2449 13.1604 14.0705 12.7398 13.7605 12.4297C13.4504 12.1195 13.0299 11.945 12.5913 11.9444ZM4.3133 7.92645C4.3133 5.89395 5.9668 4.24045 7.9998 4.24045C10.0328 4.24045 11.6858 5.89395 11.6858 7.92645V11.9444H4.3133V7.92645ZM13.3448 14.2739C13.3448 14.3719 13.2648 14.4514 13.1668 14.4514H2.8328C2.78568 14.4514 2.74048 14.4328 2.70712 14.3995C2.67375 14.3662 2.65494 14.3211 2.6548 14.2739V13.5984C2.65507 13.3986 2.73459 13.2069 2.87594 13.0656C3.01728 12.9242 3.20891 12.8447 3.4088 12.8444H12.5913C12.7912 12.8447 12.9828 12.9242 13.1242 13.0656C13.2655 13.2069 13.345 13.3986 13.3453 13.5984L13.3448 14.2739ZM7.9998 2.20995C8.11915 2.20995 8.23361 2.16254 8.318 2.07815C8.40239 1.99376 8.4498 1.8793 8.4498 1.75995V1.09795C8.4498 0.978602 8.40239 0.864143 8.318 0.779751C8.23361 0.69536 8.11915 0.647949 7.9998 0.647949C7.88046 0.647949 7.766 0.69536 7.68161 0.779751C7.59721 0.864143 7.5498 0.978602 7.5498 1.09795V1.75995C7.5498 1.8793 7.59721 1.99376 7.68161 2.07815C7.766 2.16254 7.88046 2.20995 7.9998 2.20995ZM2.1118 8.09795C2.1118 7.9786 2.06439 7.86414 1.98 7.77975C1.89561 7.69536 1.78115 7.64795 1.6618 7.64795H0.999805C0.880457 7.64795 0.765998 7.69536 0.681607 7.77975C0.597215 7.86414 0.549805 7.9786 0.549805 8.09795C0.549805 8.2173 0.597215 8.33176 0.681607 8.41615C0.765998 8.50054 0.880457 8.54795 0.999805 8.54795H1.6618C1.78115 8.54795 1.89561 8.50054 1.98 8.41615C2.06439 8.33176 2.1118 8.2173 2.1118 8.09795ZM14.9998 7.64795H14.3378C14.2185 7.64795 14.104 7.69536 14.0196 7.77975C13.9352 7.86414 13.8878 7.9786 13.8878 8.09795C13.8878 8.2173 13.9352 8.33176 14.0196 8.41615C14.104 8.50054 14.2185 8.54795 14.3378 8.54795H14.9998C15.1192 8.54795 15.2336 8.50054 15.318 8.41615C15.4024 8.33176 15.4498 8.2173 15.4498 8.09795C15.4498 7.9786 15.4024 7.86414 15.318 7.77975C15.2336 7.69536 15.1192 7.64795 14.9998 7.64795ZM3.1998 3.93395C3.24136 3.97614 3.29088 4.00966 3.34549 4.03256C3.40011 4.05545 3.45873 4.06726 3.51795 4.06731C3.57717 4.06736 3.63581 4.05564 3.69046 4.03283C3.74511 4.01002 3.79469 3.97658 3.8363 3.93445C3.87815 3.89274 3.91135 3.84318 3.93401 3.78861C3.95666 3.73404 3.96832 3.67553 3.96832 3.61645C3.96832 3.55736 3.95666 3.49886 3.93401 3.44429C3.91135 3.38972 3.87815 3.34016 3.8363 3.29845L3.3683 2.82995C3.32688 2.78667 3.27723 2.75211 3.22227 2.72828C3.16731 2.70444 3.10814 2.69182 3.04824 2.69116C2.98834 2.69049 2.9289 2.70179 2.87343 2.7244C2.81795 2.74701 2.76754 2.78046 2.72517 2.82281C2.68279 2.86515 2.6493 2.91553 2.62665 2.97099C2.604 3.02645 2.59265 3.08587 2.59326 3.14577C2.59388 3.20568 2.60646 3.26485 2.63025 3.31983C2.65404 3.37481 2.68856 3.42449 2.7318 3.46595L3.1998 3.93395ZM12.4813 4.06645C12.5963 4.06645 12.7118 4.02245 12.7998 3.93445L13.2683 3.46595C13.3101 3.42416 13.3433 3.37454 13.3659 3.31993C13.3885 3.26533 13.4001 3.2068 13.4001 3.1477C13.4001 3.08859 13.3885 3.03007 13.3659 2.97546C13.3433 2.92086 13.3101 2.87124 13.2683 2.82945C13.2265 2.78766 13.1769 2.7545 13.1223 2.73189C13.0677 2.70927 13.0092 2.69763 12.9501 2.69763C12.8909 2.69763 12.8324 2.70927 12.7778 2.73189C12.7232 2.7545 12.6736 2.78766 12.6318 2.82945L12.1633 3.29795C12.1003 3.36086 12.0573 3.44105 12.0399 3.52837C12.0225 3.61569 12.0313 3.70623 12.0654 3.78851C12.0994 3.87079 12.1571 3.94112 12.2312 3.99059C12.3052 4.04007 12.3923 4.06647 12.4813 4.06645Z" fill="#1E866F"/>
</g>
<defs>
<clipPath id="clip0_7524_2991">
<rect width="16" height="16" fill="white"/>
</clipPath>
</defs>
</svg>
