<svg width="16" height="16" viewBox="0 0 16 16" fill="none" xmlns="http://www.w3.org/2000/svg">
<path d="M10.4079 4.99125H5.59289C5.45539 4.99125 5.34289 5.10375 5.34289 5.24125C5.34289 5.37875 5.45539 5.49125 5.59289 5.49125H10.4054C10.5429 5.49125 10.6554 5.37875 10.6554 5.24125C10.6554 5.10375 10.5429 4.99125 10.4054 4.99125H10.4079ZM10.4079 2.90625H5.59289C5.45539 2.90625 5.34289 3.01875 5.34289 3.15625C5.34289 3.29375 5.45539 3.40625 5.59289 3.40625H10.4054C10.5429 3.40625 10.6554 3.29375 10.6554 3.15625C10.6554 3.01875 10.5429 2.90625 10.4054 2.90625H10.4079ZM13.8504 10.6213C13.7129 10.6213 13.6004 10.7338 13.6004 10.8713V14.1762C13.6004 14.4512 13.3804 14.6762 13.1079 14.6762H8.25039V10.3438C8.25039 10.2063 8.13789 10.0938 8.00039 10.0938C7.86289 10.0938 7.75039 10.2063 7.75039 10.3438V14.6762H2.89289C2.62039 14.6762 2.40039 14.4512 2.40039 14.1762V10.8713C2.40039 10.7338 2.28789 10.6213 2.15039 10.6213C2.01289 10.6213 1.90039 10.7338 1.90039 10.8713V14.1762C1.90039 14.7262 2.34539 15.1762 2.89289 15.1762H13.1079C13.6554 15.1762 14.1004 14.7287 14.1004 14.1762V10.8713C14.1004 10.7338 13.9879 10.6213 13.8504 10.6213Z" fill="#858585"/>
<path d="M15.4527 9.47672L13.7902 7.17922C13.7669 7.14737 13.7365 7.12148 13.7013 7.10366C13.6661 7.08585 13.6272 7.07662 13.5877 7.07672H13.0502V1.07422C13.0502 0.936719 12.9377 0.824219 12.8002 0.824219H3.20272C3.06522 0.824219 2.95272 0.936719 2.95272 1.07422V7.07672H2.41522C2.37577 7.07662 2.33686 7.08585 2.30167 7.10366C2.26647 7.12148 2.23599 7.14737 2.21272 7.17922L0.550219 9.47672C0.495219 9.55172 0.487718 9.65422 0.530218 9.73672C0.572718 9.81922 0.660218 9.87172 0.752718 9.87172H6.33772C6.37716 9.87182 6.41608 9.86259 6.45127 9.84477C6.48647 9.82696 6.51694 9.80107 6.54022 9.76922L8.00022 7.75172L9.46022 9.76922C9.48349 9.80107 9.51397 9.82696 9.54917 9.84477C9.58436 9.86259 9.62327 9.87182 9.66272 9.87172H15.2502C15.2961 9.87178 15.3412 9.85915 15.3804 9.83523C15.4196 9.81131 15.4514 9.77704 15.4723 9.73618C15.4933 9.69532 15.5025 9.64947 15.4991 9.60369C15.4956 9.5579 15.4796 9.51396 15.4527 9.47672ZM6.21022 9.37422H1.24022L2.54022 7.57672H7.51022L6.21022 9.37422ZM3.45272 7.07672V1.32422H12.5477V7.07672H3.45272ZM9.79272 9.37422L8.49272 7.57672H13.4627L14.7627 9.37422H9.79272Z" fill="#858585"/>
</svg>
