<svg width="16" height="16" viewBox="0 0 16 16" fill="none" xmlns="http://www.w3.org/2000/svg">
<path d="M10.6422 10.1705H5.35723C5.23788 10.1705 5.12342 10.2179 5.03903 10.3023C4.95464 10.3867 4.90723 10.5011 4.90723 10.6205C4.90723 10.7398 4.95464 10.8543 5.03903 10.9387C5.12342 11.0231 5.23788 11.0705 5.35723 11.0705H10.6422C10.7616 11.0705 10.876 11.0231 10.9604 10.9387C11.0448 10.8543 11.0922 10.7398 11.0922 10.6205C11.0922 10.5011 11.0448 10.3867 10.9604 10.3023C10.876 10.2179 10.7616 10.1705 10.6422 10.1705ZM10.6422 11.9875H5.35723C5.23788 11.9875 5.12342 12.0349 5.03903 12.1193C4.95464 12.2037 4.90723 12.3181 4.90723 12.4375C4.90723 12.5568 4.95464 12.6713 5.03903 12.7557C5.12342 12.8401 5.23788 12.8875 5.35723 12.8875H10.6422C10.7616 12.8875 10.876 12.8401 10.9604 12.7557C11.0448 12.6713 11.0922 12.5568 11.0922 12.4375C11.0922 12.3181 11.0448 12.2037 10.9604 12.1193C10.876 12.0349 10.7616 11.9875 10.6422 11.9875Z" fill="#1E866F"/>
<path d="M12.51 0.549988H3.49004C2.41504 0.549988 1.54004 1.42499 1.54004 2.49999V13.5C1.54004 14.575 2.41504 15.45 3.49004 15.45H12.51C13.585 15.45 14.46 14.575 14.46 13.5V2.49999C14.46 1.42499 13.585 0.549988 12.51 0.549988ZM13.5595 13.5C13.5595 14.079 13.089 14.55 12.5095 14.55H3.49004C2.91104 14.55 2.44004 14.0795 2.44004 13.5V2.49999C2.44004 1.92099 2.91054 1.44999 3.49004 1.44999H12.51C13.089 1.44999 13.56 1.92049 13.56 2.49999V13.5H13.5595Z" fill="#1E866F"/>
</svg>
