<svg width="22" height="29" viewBox="0 0 22 29" fill="none" xmlns="http://www.w3.org/2000/svg">
<path d="M14.7174 11.3884H13.8303V10.0045C13.8303 9.01674 13.0661 8.21875 12.1202 8.21875H4.44623V5.10491C4.44623 4.49665 3.97061 4 3.38811 4H2.93921C2.35137 4 1.8811 4.49665 1.8811 5.10491V8.21875H1.71009C0.764195 8.21875 0 9.01674 0 10.0045V27.2143C0 28.202 0.764195 29 1.71009 29H12.1202C13.0661 29 13.8303 28.202 13.8303 27.2143V19.0558H14.7174C15.4228 19.0558 16 18.4531 16 17.7165V12.7277C15.9947 11.9911 15.4228 11.3884 14.7174 11.3884ZM2.73614 5.10491C2.74148 4.78125 3.19038 4.91518 3.38811 4.89286C3.50033 4.89286 3.59118 4.98772 3.59118 5.10491V8.21875H2.73614V5.10491ZM12.9753 27.2143C12.9753 27.7054 12.5905 28.1071 12.1202 28.1071H1.71009C1.23981 28.1071 0.855043 27.7054 0.855043 27.2143V10.0045C0.855043 9.51339 1.23981 9.11161 1.71009 9.11161C1.71009 9.11161 10.9071 9.10603 12.1202 9.11161C12.5905 9.11161 12.9753 9.51339 12.9753 10.0045V27.2143ZM15.145 17.7165C15.145 17.9621 14.9526 18.1629 14.7174 18.1629H13.8303V12.2812H14.7174C14.9526 12.2812 15.145 12.4821 15.145 12.7277V17.7165Z" fill="#20886F"/>
<path d="M10.2651 10.5391H3.54233C2.83692 10.5391 2.25977 11.1417 2.25977 11.8783V15.7623C2.25977 16.4989 2.83692 17.1016 3.54233 17.1016H10.2598C10.9652 17.1016 11.5423 16.4989 11.5423 15.7623V11.8783C11.5477 11.1417 10.9705 10.5446 10.2651 10.5391ZM10.6926 15.7679C10.6926 16.0134 10.5002 16.2143 10.2651 16.2143H3.54233C3.30719 16.2143 3.11481 16.0134 3.11481 15.7679V11.8839C3.11481 11.6384 3.30719 11.4375 3.54233 11.4375H10.2598C10.4949 11.4375 10.6873 11.6384 10.6873 11.8839V15.7679H10.6926Z" fill="#20886F"/>
<path d="M6.90396 18.1113C4.47243 18.1169 2.50049 20.1705 2.50049 22.7151C2.74097 28.82 11.0723 28.82 11.3128 22.7151C11.3074 20.1705 9.33549 18.1169 6.90396 18.1113ZM6.90396 26.4205C4.94271 26.4205 3.35553 24.7575 3.35553 22.7095C3.53188 17.7988 10.2814 17.7988 10.4577 22.7095C10.4524 24.7575 8.86522 26.4205 6.90396 26.4205Z" fill="#20886F"/>
<path d="M6.9038 20.4609C4.05544 20.5558 4.06078 24.8638 6.9038 24.9587C9.75216 24.8694 9.75216 20.5558 6.9038 20.4609ZM6.9038 24.0714C6.1877 24.0603 5.61589 23.4408 5.62658 22.6931C5.63727 21.9621 6.20373 21.3761 6.9038 21.3594C7.6199 21.3705 8.19171 21.99 8.18102 22.7377C8.16499 23.4687 7.60387 24.0547 6.9038 24.0714Z" fill="#20886F"/>
<g clip-path="url(#clip0_1448_166)">
<path d="M6.16012 15.0685C6.07097 15.4037 6.27066 15.746 6.60585 15.8351C6.71283 15.8637 6.82337 15.8637 6.93034 15.8351L9.81512 15.0649C9.99342 15.015 10.1824 15.0328 10.3464 15.1148C11.4732 15.6961 12.7213 15.9992 13.9907 15.9956C14.3438 15.9956 14.7003 15.9706 15.0498 15.9243C19.4322 15.3466 22.5096 11.3243 21.9283 6.94546C21.3471 2.56658 17.3248 -0.51075 12.9459 0.0704845C8.56707 0.651719 5.48974 4.67044 6.07097 9.05288C6.19221 9.9586 6.46678 10.8394 6.88399 11.6524C6.966 11.8164 6.98383 12.009 6.93391 12.1837L6.16012 15.0685ZM7.39034 11.3885C5.51827 7.73708 6.95887 3.26193 10.6103 1.38985C14.2617 -0.482223 18.7369 0.958383 20.609 4.60982C22.481 8.26126 21.0404 12.7364 17.389 14.6085C15.2602 15.6996 12.7356 15.6996 10.6067 14.6085C10.4249 14.5158 10.2252 14.4694 10.0219 14.4694C9.9007 14.4694 9.78303 14.4837 9.66536 14.5158L6.78414 15.286C6.76631 15.2931 6.74492 15.286 6.73066 15.2717C6.71639 15.2575 6.70926 15.2361 6.71639 15.2182L7.48662 12.3335C7.56863 12.0161 7.53654 11.6809 7.39034 11.3885Z" fill="#1E866F"/>
<path d="M7.39034 11.3885C5.51827 7.73708 6.95887 3.26193 10.6103 1.38985C14.2617 -0.482223 18.7369 0.958383 20.609 4.60982C22.481 8.26126 21.0404 12.7364 17.389 14.6085C15.2602 15.6996 12.7356 15.6996 10.6067 14.6085C10.4249 14.5158 10.2252 14.4694 10.0219 14.4694C9.9007 14.4694 9.78303 14.4837 9.66536 14.5158L6.78414 15.286C6.76631 15.2931 6.74492 15.286 6.73066 15.2717C6.71639 15.2575 6.70926 15.2361 6.71639 15.2182L7.48662 12.3335C7.56863 12.0161 7.53654 11.6809 7.39034 11.3885Z" fill="white"/>
<path d="M9.74402 9.32692C10.4715 9.32692 11.0598 8.73855 11.0598 8.01111C11.0598 7.28368 10.4715 6.69531 9.74402 6.69531C9.01659 6.69531 8.42822 7.28368 8.42822 8.01111C8.42822 8.73855 9.02015 9.32692 9.74402 9.32692ZM9.74402 7.26585C10.1577 7.26585 10.4893 7.60104 10.4893 8.01111C10.4893 8.42475 10.1541 8.75638 9.74402 8.75638C9.33395 8.75638 8.99876 8.42119 8.99876 8.01111C8.99876 7.59747 9.33395 7.26585 9.74402 7.26585ZM13.9874 9.32692C14.7148 9.32692 15.3032 8.73855 15.3032 8.01111C15.3032 7.28368 14.7148 6.69531 13.9874 6.69531C13.26 6.69531 12.6716 7.28368 12.6716 8.01111C12.6716 8.73855 13.26 9.32692 13.9874 9.32692ZM13.9874 7.26585C14.401 7.26585 14.7327 7.60104 14.7327 8.01111C14.7327 8.42475 14.3975 8.75638 13.9874 8.75638C13.5773 8.75638 13.2421 8.42119 13.2421 8.01111C13.2421 7.59747 13.5773 7.26585 13.9874 7.26585ZM18.2308 9.32692C18.9582 9.32692 19.5466 8.73855 19.5466 8.01111C19.5466 7.28368 18.9582 6.69531 18.2308 6.69531C17.5033 6.69531 16.915 7.28368 16.915 8.01111C16.915 8.73855 17.5033 9.32692 18.2308 9.32692ZM18.2308 7.26585C18.6444 7.26585 18.976 7.60104 18.976 8.01111C18.976 8.42119 18.6408 8.75638 18.2308 8.75638C17.8207 8.75638 17.4855 8.42119 17.4855 8.01111C17.4855 7.59747 17.8171 7.26585 18.2308 7.26585Z" fill="#1E866F"/>
</g>
<defs>
<clipPath id="clip0_1448_166">
<rect width="16" height="16" fill="white" transform="translate(6)"/>
</clipPath>
</defs>
</svg>
