<svg width="16" height="25" viewBox="0 0 16 25" fill="none" xmlns="http://www.w3.org/2000/svg">
<path d="M10.2661 6.54102H3.54331C2.8379 6.54102 2.26074 7.14369 2.26074 7.8803V11.7642C2.26074 12.5008 2.8379 13.1035 3.54331 13.1035H10.2607C10.9662 13.1035 11.5433 12.5008 11.5433 11.7642V7.8803C11.5487 7.14369 10.9715 6.5466 10.2661 6.54102ZM10.6936 11.7698C10.6936 12.0153 10.5012 12.2162 10.2661 12.2162H3.54331C3.30817 12.2162 3.11579 12.0153 3.11579 11.7698V7.88588C3.11579 7.64035 3.30817 7.43945 3.54331 7.43945H10.2607C10.4959 7.43945 10.6883 7.64035 10.6883 7.88588V11.7698H10.6936Z" fill="#20886F"/>
<path d="M14.7174 7.38839H13.8303V6.00446C13.8303 5.01674 13.0661 4.21875 12.1202 4.21875H4.44623V1.10491C4.44623 0.496652 3.97061 0 3.38811 0H2.93921C2.35137 0 1.8811 0.496652 1.8811 1.10491V4.21875H1.71009C0.764195 4.21875 0 5.01674 0 6.00446V23.2143C0 24.202 0.764195 25 1.71009 25H12.1202C13.0661 25 13.8303 24.202 13.8303 23.2143V15.0558H14.7174C15.4228 15.0558 16 14.4531 16 13.7165V8.72768C15.9947 7.99107 15.4228 7.38839 14.7174 7.38839ZM2.73614 1.10491C2.74148 0.78125 3.19038 0.915179 3.38811 0.892857C3.50033 0.892857 3.59118 0.987723 3.59118 1.10491V4.21875H2.73614V1.10491ZM12.9753 23.2143C12.9753 23.7054 12.5905 24.1071 12.1202 24.1071H1.71009C1.23981 24.1071 0.855043 23.7054 0.855043 23.2143V6.00446C0.855043 5.51339 1.23981 5.11161 1.71009 5.11161C1.71009 5.11161 10.9071 5.10603 12.1202 5.11161C12.5905 5.11161 12.9753 5.51339 12.9753 6.00446V23.2143ZM15.145 13.7165C15.145 13.9621 14.9526 14.1629 14.7174 14.1629H13.8303V8.28125H14.7174C14.9526 8.28125 15.145 8.48214 15.145 8.72768V13.7165Z" fill="#20886F"/>
<path d="M6.90445 14.1133C4.47292 14.1189 2.50098 16.1724 2.50098 18.7171C2.74146 24.822 11.0728 24.822 11.3133 18.7171C11.3079 16.1724 9.33598 14.1189 6.90445 14.1133ZM6.90445 22.4224C4.94319 22.4224 3.35602 20.7595 3.35602 18.7115C3.53237 13.8008 10.2819 13.8008 10.4582 18.7115C10.4529 20.7595 8.86571 22.4224 6.90445 22.4224Z" fill="#20886F"/>
<path d="M6.90429 16.4629C4.05593 16.5578 4.06127 20.8658 6.90429 20.9607C9.75265 20.8714 9.75265 16.5578 6.90429 16.4629ZM6.90429 20.0734C6.18819 20.0622 5.61638 19.4428 5.62707 18.695C5.63776 17.964 6.20422 17.3781 6.90429 17.3613C7.62039 17.3725 8.1922 17.9919 8.18151 18.7397C8.16548 19.4707 7.60436 20.0566 6.90429 20.0734Z" fill="#20886F"/>
</svg>
