<svg width="14" height="16" viewBox="0 0 14 16" fill="none" xmlns="http://www.w3.org/2000/svg">
<path d="M13.4426 10.8417C13.4192 10.8133 13.3897 10.7905 13.3564 10.7748C13.3231 10.7591 13.2867 10.751 13.2499 10.751H12.4999V8.18125C12.5756 8.13769 12.6386 8.07499 12.6824 7.99944C12.7263 7.92388 12.7496 7.83812 12.7499 7.75075V7.50075C12.7497 7.3682 12.6969 7.24114 12.6032 7.14741C12.5095 7.05369 12.3824 7.00094 12.2499 7.00075H9.49985V6.50075C9.6324 6.50055 9.75946 6.44781 9.85319 6.35408C9.94691 6.26035 9.99965 6.13329 9.99985 6.00075V5.75075C9.99965 5.6182 9.94691 5.49114 9.85319 5.39741C9.75946 5.30369 9.6324 5.25094 9.49985 5.25075H8.99985V5.00075C8.99932 4.53678 8.81478 4.09197 8.48671 3.76389C8.15863 3.43582 7.71382 3.25128 7.24985 3.25075V2.48175C7.38426 2.42487 7.52988 2.39948 7.6756 2.4075C7.82265 2.42354 7.96453 2.47103 8.0916 2.54675C8.25899 2.63985 8.44101 2.70376 8.62985 2.73575C8.69747 2.74577 8.76574 2.75078 8.8341 2.75075C9.10688 2.74586 9.37448 2.67547 9.61435 2.5455C9.65519 2.52449 9.68944 2.49263 9.71335 2.45342C9.73725 2.41421 9.74988 2.36917 9.74985 2.32325V0.668996C9.74983 0.62613 9.73879 0.583989 9.7178 0.546613C9.69681 0.509237 9.66658 0.477879 9.62999 0.455545C9.5934 0.433211 9.55169 0.420649 9.50885 0.419065C9.46602 0.417481 9.42349 0.426926 9.38535 0.446496C9.17854 0.564103 8.93977 0.613117 8.70335 0.586496C8.56706 0.561907 8.436 0.514132 8.31585 0.445246C8.09829 0.316709 7.85008 0.249258 7.59739 0.250006C7.3447 0.250754 7.0969 0.319673 6.8801 0.449496C6.84068 0.47101 6.80778 0.502747 6.78486 0.541372C6.76194 0.579997 6.74984 0.624083 6.74985 0.668996V3.25075C6.28589 3.25128 5.84107 3.43582 5.513 3.76389C5.18493 4.09197 5.00038 4.53678 4.99985 5.00075V5.25075H4.49985C4.36731 5.25094 4.24024 5.30369 4.14652 5.39741C4.05279 5.49114 4.00005 5.6182 3.99985 5.75075V6.00075C4.00005 6.13329 4.05279 6.26035 4.14652 6.35408C4.24024 6.44781 4.36731 6.50055 4.49985 6.50075V7.00075H1.74985C1.61731 7.00094 1.49024 7.05369 1.39652 7.14741C1.30279 7.24114 1.25005 7.3682 1.24985 7.50075V7.75075C1.25014 7.83812 1.27339 7.92388 1.31727 7.99944C1.36114 8.07499 1.42411 8.13769 1.49985 8.18125V10.7507H0.749853C0.712987 10.7508 0.676582 10.7589 0.643247 10.7747C0.609911 10.7904 0.58047 10.8133 0.557031 10.8418C0.533593 10.8703 0.516738 10.9035 0.507674 10.9393C0.49861 10.975 0.497561 11.0123 0.504603 11.0485C1.0366 13.7735 3.76835 15.751 6.99985 15.751C10.2314 15.751 12.9631 13.7735 13.4951 11.0487C13.5022 11.0125 13.5012 10.9752 13.4921 10.9395C13.483 10.9037 13.4661 10.8702 13.4426 10.8417ZM7.24985 0.826496C7.38407 0.769031 7.52989 0.743857 7.6756 0.752996C7.8226 0.769116 7.96444 0.816511 8.0916 0.891996C8.25898 0.98537 8.44111 1.04938 8.6301 1.08125C8.8375 1.11063 9.04878 1.09546 9.24985 1.03675V2.16325C9.07786 2.23769 8.88903 2.26454 8.7031 2.241C8.56705 2.21639 8.43624 2.16861 8.31635 2.09975C8.13107 1.9941 7.92544 1.92908 7.7131 1.909C7.67958 1.90644 7.64597 1.9051 7.61235 1.905C7.48989 1.90533 7.36801 1.92181 7.24985 1.954V0.826496ZM12.2499 7.50075V7.75075H9.49985V7.50075H12.2499ZM7.74985 9.25075H6.24985C6.18355 9.25075 6.11996 9.27709 6.07308 9.32397C6.02619 9.37085 5.99985 9.43444 5.99985 9.50075V10.7507H4.99985V6.50075H8.99985V10.7507H7.99985V9.50075C7.99985 9.43444 7.97351 9.37085 7.92663 9.32397C7.87975 9.27709 7.81616 9.25075 7.74985 9.25075ZM6.49985 9.75075H7.49985V10.7507H6.49985V9.75075ZM7.24985 12.7565C8.07007 12.7661 8.88777 12.8494 9.6931 13.0052C9.45643 13.4665 9.14103 13.883 8.7611 14.2357C8.26498 14.1222 7.75867 14.0589 7.24985 14.047V12.7565ZM7.24985 12.2565V11.251H10.2224C10.1739 11.693 10.0674 12.1268 9.9056 12.541C9.8706 12.5335 9.8381 12.5245 9.80285 12.5172C8.96147 12.3534 8.10698 12.2661 7.24985 12.2565ZM9.49985 10.751V8.251H11.9999V10.751H9.49985ZM5.49985 5.001C5.50025 4.6696 5.63207 4.35189 5.86641 4.11755C6.10074 3.88322 6.41845 3.75139 6.74985 3.751H7.24985C7.58125 3.75139 7.89896 3.88322 8.1333 4.11755C8.36763 4.35189 8.49946 4.6696 8.49985 5.001V5.251H5.49985V5.001ZM4.49985 5.751H9.49985L9.50035 6.001H4.49985V5.751ZM6.74985 11.251V12.2575C5.85199 12.269 4.95727 12.3661 4.07785 12.5475C3.9149 12.1312 3.80731 11.6953 3.75785 11.251H6.74985ZM6.74985 12.7575V14.0472C6.23484 14.0593 5.72242 14.124 5.2206 14.2405C4.84312 13.8881 4.52889 13.4736 4.2916 13.015C5.10156 12.8551 5.92434 12.7691 6.74985 12.7575ZM1.99985 10.751V8.251H4.49985V10.751H1.99985ZM1.74985 7.501H4.49985V7.751H1.74985V7.501ZM1.06385 11.251H3.25585C3.30467 11.7331 3.41559 12.2068 3.58585 12.6605C3.07711 12.7878 2.57968 12.9567 2.0986 13.1655C1.61142 12.6151 1.25755 11.9601 1.06385 11.251ZM4.12235 14.643C3.51395 14.3727 2.95454 14.0034 2.46685 13.5502C2.89607 13.3761 3.33751 13.2338 3.7876 13.1245C4.01478 13.5929 4.31268 14.0235 4.67085 14.4012C4.48211 14.4677 4.29874 14.5485 4.12235 14.643ZM6.99985 15.2507C6.244 15.2513 5.4929 15.1313 4.77485 14.8952C5.49069 14.6503 6.24333 14.5303 6.99985 14.5405C7.75637 14.5303 8.50902 14.6503 9.22485 14.8952C8.50681 15.1313 7.7557 15.2513 6.99985 15.2507ZM9.8771 14.643C9.69567 14.5461 9.50692 14.4635 9.3126 14.396C9.6708 14.0185 9.9684 13.5878 10.1949 13.1192C10.6504 13.2299 11.0971 13.3745 11.5311 13.5517C11.0438 14.0043 10.4849 14.373 9.8771 14.643ZM11.9006 13.1657C11.4148 12.9534 10.9121 12.7819 10.3979 12.653C10.5669 12.2017 10.6768 11.7303 10.7249 11.2507H12.9359C12.7421 11.96 12.3879 12.6152 11.9006 13.1657Z" fill="#858585"/>
</svg>
