<svg width="16" height="16" viewBox="0 0 16 16" fill="none" xmlns="http://www.w3.org/2000/svg">
<path d="M11.1648 1.00001C10.6638 0.998644 10.1675 1.09666 9.70469 1.2884C9.24183 1.48013 8.82161 1.76177 8.46834 2.11701L1.21908 9.36626C1.07936 9.50728 1.00098 9.69775 1.00098 9.89626C1.00098 10.0948 1.07936 10.2853 1.21908 10.4263L5.57359 14.7813C5.71437 14.9215 5.905 15.0001 6.10369 15C6.30238 15 6.49293 14.9211 6.63358 14.7808L13.8828 7.53151C16.2871 5.13701 14.5431 0.997514 11.1648 1.00001ZM13.5296 7.17801L6.28033 14.4275C6.23341 14.4744 6.16982 14.5007 6.10351 14.5008C6.0372 14.5008 5.97358 14.4746 5.92659 14.4278L1.57234 10.073C1.52571 10.026 1.49955 9.96247 1.49955 9.89626C1.49955 9.83005 1.52571 9.76652 1.57234 9.71951L8.82158 2.47026C9.12905 2.16238 9.49432 1.91829 9.8964 1.75199C10.2985 1.5857 10.7295 1.50049 11.1646 1.50126C14.0771 1.48451 15.6251 5.09376 13.5296 7.17801Z" fill="#707070"/>
<path d="M10.8282 3.50768C10.6584 3.66698 10.5396 3.87306 10.4868 4.09988C10.4341 4.32669 10.4498 4.56405 10.5319 4.78194C10.6141 4.99984 10.759 5.18848 10.9483 5.32402C11.1377 5.45956 11.363 5.53592 11.5957 5.54343C11.8285 5.55095 12.0582 5.48928 12.2559 5.36624C12.4536 5.24319 12.6104 5.06429 12.7064 4.85215C12.8025 4.64001 12.8334 4.40416 12.7955 4.17442C12.7575 3.94467 12.6522 3.73135 12.493 3.56143C12.2786 3.33485 11.9834 3.20209 11.6717 3.19202C11.3599 3.18196 11.0568 3.2954 10.8282 3.50768ZM12.1132 4.84643C11.986 4.9736 11.8136 5.04504 11.6337 5.04504C11.4539 5.04504 11.2814 4.9736 11.1542 4.84643C11.027 4.71926 10.9556 4.54678 10.9556 4.36693C10.9556 4.18708 11.027 4.0146 11.1542 3.88743C11.2814 3.76029 11.4539 3.68888 11.6337 3.6889C11.8135 3.68892 11.986 3.76038 12.1131 3.88755C12.2402 4.01472 12.3116 4.18719 12.3116 4.36702C12.3116 4.54684 12.2404 4.71929 12.1132 4.84643ZM7.13472 5.61668C7.06841 5.61668 7.00483 5.64302 6.95794 5.6899C6.91106 5.73679 6.88472 5.80037 6.88472 5.86668V11.8649C6.88472 11.9312 6.91106 11.9948 6.95794 12.0417C7.00483 12.0886 7.06841 12.1149 7.13472 12.1149C7.20102 12.1149 7.26461 12.0886 7.3115 12.0417C7.35838 11.9948 7.38472 11.9312 7.38472 11.8649V5.86643C7.38472 5.80012 7.35838 5.73654 7.3115 5.68965C7.26461 5.64277 7.20102 5.61668 7.13472 5.61668ZM4.38747 8.26043C4.26776 8.3801 4.18623 8.53257 4.15318 8.69858C4.12014 8.86459 4.13707 9.03667 4.20183 9.19305C4.26659 9.34944 4.37627 9.48311 4.51701 9.57715C4.65774 9.67119 4.8232 9.72139 4.99247 9.72139C5.16173 9.72139 5.3272 9.67119 5.46793 9.57715C5.60866 9.48311 5.71835 9.34944 5.78311 9.19305C5.84787 9.03667 5.8648 8.86459 5.83175 8.69858C5.79871 8.53257 5.71718 8.3801 5.59747 8.26043C5.43632 8.10128 5.21896 8.01204 4.99247 8.01204C4.76598 8.01204 4.54862 8.10128 4.38747 8.26043ZM5.24422 9.11743C5.20279 9.15786 5.15208 9.18752 5.09653 9.20382C5.04098 9.22012 4.98228 9.22256 4.92557 9.21092C4.86887 9.19928 4.81587 9.17392 4.77123 9.13706C4.7266 9.1002 4.69167 9.05296 4.66952 8.99947C4.64736 8.94599 4.63865 8.88789 4.64415 8.83026C4.64965 8.77263 4.66918 8.71723 4.70105 8.6689C4.73292 8.62057 4.77614 8.58078 4.82695 8.55303C4.87775 8.52527 4.93458 8.51039 4.99247 8.50968C5.06236 8.51082 5.1304 8.53238 5.1882 8.57169C5.246 8.611 5.29105 8.66635 5.3178 8.73093C5.34455 8.79551 5.35184 8.86651 5.33877 8.93518C5.32569 9.00385 5.29283 9.06719 5.24422 9.11743ZM8.67197 8.26043C8.5523 8.38011 8.4708 8.53259 8.43778 8.69859C8.40477 8.86459 8.42172 9.03664 8.48649 9.19301C8.55126 9.34937 8.66094 9.48302 8.80167 9.57705C8.9424 9.67108 9.10784 9.72127 9.27709 9.72127C9.44634 9.72127 9.61179 9.67108 9.75252 9.57705C9.89324 9.48302 10.0029 9.34937 10.0677 9.19301C10.1325 9.03664 10.1494 8.86459 10.1164 8.69859C10.0834 8.53259 10.0019 8.38011 9.88222 8.26043C9.72107 8.10128 9.50371 8.01204 9.27722 8.01204C9.05073 8.01204 8.83312 8.10128 8.67197 8.26043ZM9.52872 9.11743C9.46154 9.18215 9.37164 9.21792 9.27836 9.21704C9.18508 9.21616 9.09587 9.1787 9.02993 9.11272C8.96398 9.04674 8.92657 8.95752 8.92574 8.86424C8.9249 8.77096 8.96071 8.68107 9.02547 8.61393C9.09265 8.54921 9.18255 8.51344 9.27583 8.51432C9.36911 8.5152 9.45831 8.55266 9.52426 8.61864C9.59021 8.68461 9.62762 8.77384 9.62845 8.86712C9.62929 8.9604 9.59347 9.05028 9.52872 9.11743Z" fill="#707070"/>
</svg>
