<svg width="12" height="16" viewBox="0 0 12 16" fill="none" xmlns="http://www.w3.org/2000/svg">
<g clip-path="url(#clip0_3295_4177)">
<path d="M1.63295 2.36719C0.732955 2.36719 0 3.07225 0 3.93472V14.4287C0 15.2911 0.732955 15.9962 1.63295 15.9962H10.3705C11.267 15.9962 12 15.2911 12 14.4287V3.93472C12 3.07225 11.267 2.36719 10.3705 2.36719H9V2.89189H10.3705C10.9739 2.89189 11.4545 3.35755 11.4545 3.93472V14.4287C11.4545 15.0091 10.9705 15.4715 10.3705 15.4715H1.63295C1.03636 15.4748 0.548864 15.0091 0.548864 14.4352C0.548864 14.432 0.548864 14.4287 0.548864 14.4287V3.93472C0.548864 3.35428 1.03295 2.89189 1.63295 2.89189H3V2.36719H1.63295Z" fill="#1E866F"/>
<path d="M5.18191 0C4.58191 0 4.091 0.472228 4.091 1.0494V1.31174H3.81827C3.21827 1.31174 2.72736 1.78397 2.72736 2.36114V2.88584C2.72736 3.45973 3.21827 3.93523 3.81827 3.93523H8.18191C8.78191 3.93523 9.27282 3.463 9.27282 2.88584V2.36114C9.27282 1.78397 8.7785 1.31174 8.18191 1.31174H7.90918V1.0494C7.90918 0.472228 7.41827 0 6.81827 0H5.18191ZM5.18191 0.524698H6.81827C7.12168 0.524698 7.36373 0.757532 7.36373 1.0494V1.57409C7.36373 1.71838 7.48645 1.83644 7.63645 1.83644H8.18191C8.48532 1.83644 8.72736 2.06928 8.72736 2.36114V2.88584C8.72736 3.18098 8.48532 3.41053 8.18191 3.41053H3.81827C3.51827 3.41381 3.27623 3.18098 3.27282 2.89568C3.27282 2.8924 3.27282 2.88912 3.27282 2.88584V2.36114C3.27282 2.06928 3.51486 1.83644 3.81827 1.83644H4.36373C4.51373 1.83644 4.63645 1.72166 4.63645 1.57409V1.0494C4.63645 0.757532 4.8785 0.524698 5.18191 0.524698ZM3.27282 4.98463C2.52282 4.98463 1.90918 5.57491 1.90918 6.29637C1.90918 7.01783 2.52282 7.60812 3.27282 7.60812C3.42282 7.60812 3.54554 7.49006 3.54554 7.34577C3.54554 7.20148 3.42282 7.08342 3.27282 7.08342C2.82282 7.0867 2.45804 6.73581 2.45463 6.30293C2.45463 6.29965 2.45463 6.29637 2.45463 6.29637C2.45463 5.85694 2.816 5.50933 3.27282 5.50933C3.55577 5.50933 3.81486 5.64706 3.96486 5.87661C4.04668 5.99795 4.21373 6.03402 4.33986 5.9586C4.466 5.88317 4.5035 5.72248 4.42509 5.59787C4.17623 5.21746 3.74327 4.98463 3.27282 4.98463ZM3.27282 8.13281C2.52282 8.13281 1.90918 8.7231 1.90918 9.44456C1.90918 10.166 2.52282 10.7563 3.27282 10.7563C4.02282 10.7563 4.63986 10.166 4.63986 9.44456C4.63645 8.71982 4.02623 8.13609 3.27282 8.13281ZM3.27282 8.65751C3.72963 8.65751 4.091 9.0084 4.091 9.44456C4.09441 9.87743 3.72963 10.2283 3.27963 10.2316C3.27623 10.2316 3.27282 10.2316 3.27282 10.2316C2.82282 10.2349 2.45804 9.88727 2.45463 9.4544C2.45463 9.45112 2.45463 9.44784 2.45463 9.44456C2.45123 9.01168 2.81259 8.65751 3.26259 8.65751C3.266 8.65751 3.26941 8.65751 3.27282 8.65751ZM3.27282 11.281C2.52282 11.281 1.90918 11.8713 1.90918 12.5927C1.90918 13.3142 2.52282 13.9045 3.27282 13.9045C4.02282 13.9045 4.63645 13.3142 4.63645 12.5927C4.63645 11.8713 4.02282 11.281 3.27282 11.281ZM3.27282 11.8057C3.72282 11.8024 4.091 12.15 4.091 12.5829C4.091 12.5862 4.091 12.5895 4.091 12.5895C4.091 13.0223 3.72623 13.3765 3.27623 13.3765C3.27282 13.3765 3.27282 13.3765 3.26941 13.3765C2.81941 13.3798 2.45463 13.0289 2.45123 12.596C2.45123 12.5927 2.45123 12.5927 2.45123 12.5895C2.45463 12.1533 2.816 11.8057 3.27282 11.8057Z" fill="#1E866F"/>
<path d="M5.72739 5.24609C5.6558 5.24609 5.58762 5.27561 5.53648 5.3248L4.09103 6.71197L3.46376 6.10857C3.35807 6.00691 3.18421 6.00691 3.07853 6.10857C2.97285 6.21023 2.97285 6.37747 3.07853 6.47913L3.89671 7.26618C4.00239 7.36784 4.17626 7.36784 4.28194 7.26618L5.9183 5.69209C6.02398 5.59043 6.02398 5.42318 5.9183 5.32152C5.86717 5.27233 5.79898 5.24609 5.72739 5.24609ZM6.27285 6.29549C6.12285 6.29549 6.00012 6.41355 6.00012 6.55784C6.00012 6.70213 6.12285 6.81691 6.27285 6.82019H9.8183C9.9683 6.82019 10.091 6.70541 10.091 6.55784C10.091 6.41355 9.9683 6.29549 9.8183 6.29549C9.8183 6.29549 9.8183 6.29549 9.81489 6.29549H6.27285ZM5.72739 9.18133C5.57739 9.18133 5.45467 9.29938 5.45467 9.44368C5.45467 9.58797 5.57739 9.70274 5.72739 9.70602H9.8183C9.9683 9.70602 10.091 9.59125 10.091 9.44368C10.091 9.29938 9.9683 9.18133 9.8183 9.18133C9.8183 9.18133 9.8183 9.18133 9.81489 9.18133H5.72739ZM5.72739 12.3295C5.57739 12.3295 5.45467 12.4476 5.45467 12.5919C5.45467 12.7362 5.57739 12.8542 5.72739 12.8542H9.8183C9.9683 12.8542 10.091 12.7362 10.091 12.5919C10.091 12.4476 9.9683 12.3295 9.8183 12.3295H5.72739Z" fill="#1E866F"/>
</g>
<defs>
<clipPath id="clip0_3295_4177">
<rect width="12" height="16" fill="white"/>
</clipPath>
</defs>
</svg>
