<svg width="12" height="12" viewBox="0 0 12 12" fill="none" xmlns="http://www.w3.org/2000/svg">
<g clip-path="url(#clip0_5906_1314)">
<path d="M10.2426 1.75734C9.10938 0.624117 7.60266 0 6 0C4.39732 0 2.89057 0.624117 1.75734 1.75734C0.624094 2.89059 0 4.39734 0 6C0 7.60266 0.624094 9.10938 1.75734 10.2426C2.89059 11.3759 4.39732 12 6 12C7.60266 12 9.10938 11.3759 10.2426 10.2426C11.3759 9.10938 12 7.60266 12 6C12 4.39734 11.3759 2.89062 10.2426 1.75734ZM6 11.2969C3.07929 11.2969 0.703125 8.92071 0.703125 6C0.703125 3.07929 3.07929 0.703125 6 0.703125C8.92071 0.703125 11.2969 3.07929 11.2969 6C11.2969 8.92071 8.92071 11.2969 6 11.2969Z" fill="#FF9900"/>
<path d="M8.86656 4.07168C8.72929 3.93443 8.50668 3.93443 8.3694 4.07171L5.2649 7.17622L3.63067 5.54199C3.4934 5.40472 3.27079 5.40472 3.13349 5.54199C2.99619 5.67926 2.99619 5.90187 3.13349 6.03917L5.01629 7.92197C5.0489 7.95466 5.08765 7.98059 5.13031 7.99826C5.17297 8.01593 5.2187 8.02499 5.26487 8.02493C5.35483 8.02493 5.44483 7.9906 5.51345 7.92197L8.86656 4.56886C9.00386 4.43159 9.00386 4.20898 8.86656 4.07168Z" fill="#FF9900"/>
</g>
<defs>
<clipPath id="clip0_5906_1314">
<rect width="12" height="12" fill="white"/>
</clipPath>
</defs>
</svg>
