<svg width="16" height="16" viewBox="0 0 16 16" fill="none" xmlns="http://www.w3.org/2000/svg">
<path d="M7.33325 6.76683L6.73325 6.1835C6.59992 6.06128 6.44147 6.00283 6.25792 6.00816C6.07436 6.0135 5.9217 6.0775 5.79992 6.20016C5.6777 6.32239 5.61659 6.47794 5.61659 6.66683C5.61659 6.85572 5.6777 7.01128 5.79992 7.1335L7.53325 8.86683C7.65547 8.98905 7.81103 9.05016 7.99992 9.05016C8.18881 9.05016 8.34436 8.98905 8.46659 8.86683L10.2166 7.11683C10.3388 6.99461 10.3973 6.84172 10.3919 6.65816C10.3866 6.47461 10.3226 6.32194 10.1999 6.20016C10.0777 6.07794 9.92214 6.01416 9.73325 6.00883C9.54436 6.0035 9.38881 6.06727 9.26659 6.20016L8.66659 6.76683V4.65016C8.66659 4.46127 8.60259 4.30572 8.47459 4.1835C8.34659 4.06127 8.18836 4.00016 7.99992 4.00016C7.81103 4.00016 7.65259 4.06416 7.52459 4.19216C7.39659 4.32016 7.33281 4.47839 7.33325 4.66683V6.76683ZM5.33325 11.3335H10.6833C10.8721 11.3335 11.0277 11.2697 11.1499 11.1422C11.2721 11.0146 11.3333 10.8562 11.3333 10.6668C11.3333 10.4779 11.2693 10.3197 11.1413 10.1922C11.0133 10.0646 10.855 10.0006 10.6666 10.0002H5.31659C5.1277 10.0002 4.97214 10.0642 4.84992 10.1922C4.7277 10.3202 4.66659 10.4784 4.66659 10.6668C4.66659 10.8557 4.73059 11.0142 4.85859 11.1422C4.98659 11.2702 5.14481 11.3339 5.33325 11.3335ZM7.99992 14.6668C7.0777 14.6668 6.21103 14.4919 5.39992 14.1422C4.58881 13.7924 3.88325 13.3173 3.28325 12.7168C2.68325 12.1168 2.20836 11.4113 1.85859 10.6002C1.50881 9.78905 1.3337 8.92239 1.33325 8.00016C1.33325 7.07794 1.50836 6.21127 1.85859 5.40016C2.20881 4.58905 2.6837 3.8835 3.28325 3.2835C3.88325 2.6835 4.58881 2.20839 5.39992 1.85816C6.21103 1.50794 7.0777 1.33305 7.99992 1.3335C8.92214 1.3335 9.78881 1.50861 10.5999 1.85883C11.411 2.20905 12.1166 2.68394 12.7166 3.2835C13.3166 3.8835 13.7917 4.58905 14.1419 5.40016C14.4921 6.21127 14.667 7.07794 14.6666 8.00016C14.6666 8.92239 14.4915 9.78905 14.1413 10.6002C13.791 11.4113 13.3161 12.1168 12.7166 12.7168C12.1166 13.3168 11.411 13.7919 10.5999 14.1422C9.78881 14.4924 8.92214 14.6673 7.99992 14.6668Z" fill="white"/>
</svg>
