<svg width="32" height="30" viewBox="0 0 32 30" fill="none" xmlns="http://www.w3.org/2000/svg">
<path d="M25.1199 8.34126C24.0074 2.93485 18.7227 -0.546028 13.3163 0.56646C8.68692 1.5191 5.35782 5.58446 5.33658 10.3108C5.33658 10.5359 5.34589 10.7665 5.36588 11.0104C2.07245 11.359 -0.314808 14.3114 0.033805 17.6048C0.356933 20.6575 2.93315 22.9732 6.00283 22.9702H6.70243C6.68644 22.749 6.66913 22.5291 6.66913 22.3039C6.66913 17.5202 10.5471 13.6422 15.3309 13.6422C20.1146 13.6422 23.9925 17.5202 23.9925 22.3039C23.9925 22.5291 23.9752 22.749 23.9592 22.9702H24.6588C28.7021 22.9813 31.9889 19.7124 31.9999 15.6691C32.0106 11.7893 28.9927 8.575 25.1199 8.34126Z" fill="#C9F0E3"/>
<path d="M15.3308 29.6348C19.3786 29.6348 22.6599 26.3534 22.6599 22.3057C22.6599 18.2579 19.3786 14.9766 15.3308 14.9766C11.2831 14.9766 8.00171 18.2579 8.00171 22.3057C8.00171 26.3534 11.2831 29.6348 15.3308 29.6348Z" fill="#FF9900"/>
<path d="M15.3309 26.9687C14.9629 26.9687 14.6646 26.6703 14.6646 26.3024V18.3069C14.6646 17.939 14.9629 17.6406 15.3309 17.6406C15.6988 17.6406 15.9972 17.939 15.9972 18.3069V26.3024C15.9971 26.6703 15.6988 26.9687 15.3309 26.9687Z" fill="#FAFAFA"/>
<path d="M15.3308 26.9655C15.2432 26.9657 15.1565 26.9486 15.0755 26.9152C14.9946 26.8818 14.921 26.8328 14.859 26.7709L12.1939 24.1058C11.9382 23.8411 11.9456 23.4193 12.2102 23.1636C12.3345 23.0436 12.5004 22.9766 12.6731 22.9766C12.8458 22.9766 13.0118 23.0436 13.136 23.1636L15.3308 25.3571L17.5242 23.1636C17.7889 22.908 18.2107 22.9153 18.4663 23.18C18.5863 23.3042 18.6534 23.4702 18.6534 23.6429C18.6534 23.8156 18.5863 23.9816 18.4663 24.1058L15.8012 26.7709C15.6763 26.8955 15.5071 26.9654 15.3308 26.9655Z" fill="#FAFAFA"/>
</svg>
