<svg width="24" height="24" viewBox="0 0 24 24" fill="none" xmlns="http://www.w3.org/2000/svg">
<g clip-path="url(#clip0_5093_806)">
<path d="M18 17H5C2.243 17 0 14.757 0 12C0.00145424 10.7339 0.482597 9.51539 1.34653 8.58986C2.21046 7.66432 3.393 7.10052 4.656 7.012C5.348 3.556 8.433 1 12 1C13.3726 1.00171 14.7185 1.37958 15.8915 2.09254C17.0644 2.80551 18.0195 3.8263 18.653 5.044C20.1223 5.20153 21.4814 5.89706 22.4686 6.99668C23.4558 8.0963 24.0013 9.52226 24 11C24 14.309 21.309 17 18 17Z" fill="#E5E5E5"/>
<path d="M14.25 15.25H13V12C13 11.7348 12.8947 11.4804 12.7071 11.2929C12.5196 11.1054 12.2652 11 12 11C11.7348 11 11.4804 11.1054 11.2929 11.2929C11.1054 11.4804 11 11.7348 11 12V15.25H9.75002C9.08402 15.25 8.74902 16.059 9.22002 16.53L11.47 18.78C11.616 18.927 11.808 19 12 19C12.192 19 12.384 18.927 12.53 18.78L14.78 16.53C15.251 16.059 14.916 15.25 14.25 15.25Z" fill="#1E866F"/>
<path d="M15 23H9C7.897 23 7 22.103 7 21V20C7 19.7348 7.10536 19.4804 7.29289 19.2929C7.48043 19.1054 7.73478 19 8 19C8.26522 19 8.51957 19.1054 8.70711 19.2929C8.89464 19.4804 9 19.7348 9 20V21H15V20C15 19.7348 15.1054 19.4804 15.2929 19.2929C15.4804 19.1054 15.7348 19 16 19C16.2652 19 16.5196 19.1054 16.7071 19.2929C16.8946 19.4804 17 19.7348 17 20V21C17 22.103 16.103 23 15 23Z" fill="#1E866F"/>
<path d="M12 1C8.433 1 5.348 3.556 4.656 7.012C3.393 7.10052 2.21046 7.66432 1.34653 8.58986C0.482597 9.51539 0.00145424 10.7339 0 12C0 14.757 2.243 17 5 17H9.689L9.219 16.53C8.748 16.059 9.083 15.25 9.749 15.25H11V12C11 11.7348 11.1054 11.4804 11.2929 11.2929C11.4804 11.1054 11.7348 11 12 11V1Z" fill="#E5E5E5"/>
<path d="M12 11C11.7348 11 11.4804 11.1054 11.2929 11.2929C11.1054 11.4804 11 11.7348 11 12V15.25H9.75C9.084 15.25 8.749 16.059 9.22 16.53L9.689 17L11.469 18.78C11.616 18.927 11.808 19 12 19V11ZM8 19C7.73478 19 7.48043 19.1054 7.29289 19.2929C7.10536 19.4804 7 19.7348 7 20V21C7 22.103 7.897 23 9 23H12V21H9V20C9 19.7348 8.89464 19.4804 8.70711 19.2929C8.51957 19.1054 8.26522 19 8 19Z" fill="#1E866F"/>
</g>
<defs>
<clipPath id="clip0_5093_806">
<rect width="24" height="24" fill="white"/>
</clipPath>
</defs>
</svg>
