<svg width="15" height="16" viewBox="0 0 15 16" fill="none" xmlns="http://www.w3.org/2000/svg">
<path d="M14.426 9.74961C14.0075 9.30654 12.309 8.64192 11.6198 8.37115V7.46038C12.1121 6.96808 12.309 6.37731 12.3583 6.205C12.7767 5.68808 13.1706 4.94962 12.6044 4.58038L12.6536 3.965H12.8752C13.0475 3.965 13.1706 3.76808 13.0967 3.62038C13.0967 3.59577 12.9983 3.42346 12.7767 3.30038V1.92192C12.7767 1.60192 12.629 1.28192 12.3583 1.10962C11.8167 0.740385 10.7829 0.125 9.6998 0.125C8.61672 0.125 7.55826 0.740385 7.04134 1.10962C6.77057 1.28192 6.62288 1.60192 6.62288 1.92192V3.27577C6.40134 3.39885 6.30288 3.57115 6.30288 3.59577C6.22903 3.74346 6.32749 3.94038 6.52442 3.94038H6.74596L6.79519 4.55577C6.67211 4.62962 6.57365 4.75269 6.54903 4.90038C6.45057 5.22038 6.62288 5.63885 7.06596 6.18038C7.11519 6.37731 7.31211 6.94346 7.80442 7.43577V8.34654C6.99211 8.66654 5.36749 9.33115 4.99826 9.725C4.85057 9.89731 4.72749 10.0696 4.62903 10.2419C4.38288 10.1681 4.13672 10.1435 3.86596 10.1435C2.19211 10.1681 0.912109 11.4481 0.912109 13.0235C0.912109 14.5988 2.19211 15.8788 3.76749 15.8788C5.04749 15.8788 6.15519 15.0173 6.4998 13.8112H14.746C14.8936 13.8112 14.9921 13.7127 14.9921 13.565V11.2512C15.0413 10.7096 14.8444 10.1927 14.426 9.74961ZM11.7675 8.96192L10.5613 10.5373L10.0198 10.0204L11.3983 8.78961L11.7675 8.96192ZM9.67519 9.70038L8.22288 8.42038V7.85423C8.59211 8.07577 9.0598 8.24808 9.67519 8.24808C10.2906 8.24808 10.7583 8.10038 11.1275 7.85423V8.42038L9.67519 9.70038ZM7.06596 1.92192C7.06596 1.74962 7.1398 1.60192 7.28749 1.50346C7.7798 1.15885 8.7398 0.592692 9.67519 0.592692C10.6106 0.592692 11.5706 1.15885 12.0629 1.50346C12.186 1.60192 12.2844 1.74962 12.2844 1.92192V3.02962C10.6352 2.21731 8.69057 2.21731 7.06596 3.02962V1.92192ZM12.0629 3.47269H7.23826C8.76442 2.70962 10.5613 2.70962 12.0629 3.47269ZM7.38596 5.93423C7.16442 5.66346 6.72134 5.07269 7.06596 4.94962C7.06596 4.94962 7.09057 4.925 7.11519 4.925C7.23826 4.85115 7.21365 4.72808 7.21365 4.70346L7.16442 3.98962H12.186C12.1367 4.62962 12.0383 4.87577 12.2844 4.94962C12.629 5.07269 12.186 5.66346 11.9644 5.93423C11.9398 5.95885 11.9152 6.00808 11.9152 6.03269C11.8906 6.10654 11.4967 7.75577 9.6998 7.75577C7.80442 7.75577 7.4598 6.00808 7.38596 5.93423ZM7.92749 8.81423L9.30596 10.045L8.76442 10.5619L7.55826 8.98654L7.92749 8.81423ZM4.21057 13.0235C4.21057 13.245 4.01365 13.4419 3.79211 13.4419C3.54596 13.4419 3.37365 13.245 3.37365 13.0235C3.37365 12.8019 3.57057 12.605 3.79211 12.605C4.01365 12.605 4.21057 12.7773 4.21057 13.0235ZM1.62596 13.9835C1.50288 13.6881 1.42903 13.3681 1.42903 13.0235C1.42903 11.7927 2.36442 10.7835 3.54596 10.6604V12.1373C3.15211 12.2358 2.88134 12.605 2.88134 13.0235C2.88134 13.0973 2.88134 13.1712 2.90596 13.245L1.62596 13.9835ZM3.79211 15.3865C3.00442 15.3865 2.31519 14.9927 1.87211 14.4019L3.15211 13.6635C3.32442 13.8358 3.54596 13.9342 3.79211 13.9342C4.03826 13.9342 4.2598 13.8358 4.43211 13.6635L5.71211 14.4019C5.26903 14.9927 4.5798 15.3865 3.79211 15.3865ZM5.93365 13.9835L4.65365 13.245C4.67826 13.1712 4.67826 13.0973 4.67826 13.0235C4.67826 12.605 4.38288 12.2604 4.01365 12.1373V10.6604C5.19519 10.7835 6.13057 11.7927 6.13057 13.0235C6.15519 13.3681 6.08134 13.6881 5.93365 13.9835ZM14.4998 13.3188H6.62288C6.62288 13.2204 6.64749 13.1219 6.64749 13.0235C6.64749 11.8912 5.98288 10.9065 4.99826 10.4388C5.07211 10.3158 5.14596 10.1927 5.26903 10.0942C5.49057 9.84808 6.42596 9.42962 7.09057 9.15885L8.54288 11.0542C8.64134 11.1773 8.78903 11.1773 8.91211 11.0788L9.67519 10.365L10.4383 11.0788C10.5613 11.1773 10.709 11.1527 10.8075 11.0542L12.2598 9.15885C12.8998 9.405 13.8598 9.84808 14.0813 10.0942C14.4013 10.4388 14.5736 10.8327 14.549 11.2512V13.3188H14.4998Z" fill="#1E866F"/>
</svg>
