<svg width="6" height="9" viewBox="0 0 6 9" fill="none" xmlns="http://www.w3.org/2000/svg">
<path d="M3.08531 8.38714C3.17237 8.27142 3.21938 8.13049 3.21924 7.98568L3.21857 1.31901C3.21857 1.1422 3.14833 0.97263 3.02331 0.847606C2.89829 0.722582 2.72872 0.652344 2.55191 0.652344C2.37509 0.652344 2.20552 0.722582 2.0805 0.847606C1.95548 0.97263 1.88524 1.1422 1.88524 1.31901L1.88524 6.35234L1.13857 5.60501C1.07667 5.54307 1.00318 5.49393 0.922296 5.46039C0.841408 5.42685 0.754705 5.40957 0.667139 5.40954C0.579574 5.40951 0.492859 5.42673 0.411948 5.46021C0.331036 5.49369 0.25751 5.54278 0.19557 5.60468C0.13363 5.66657 0.0844889 5.74006 0.0509503 5.82095C0.0174117 5.90184 0.000133763 5.98854 0.000102761 6.07611C7.1759e-05 6.16367 0.0172882 6.25039 0.0507695 6.3313C0.0842509 6.41221 0.133341 6.48574 0.195237 6.54768L1.98724 8.33968C2.06399 8.46248 2.17864 8.55696 2.31386 8.60881C2.44907 8.66067 2.59749 8.66708 2.73668 8.62709C2.87587 8.5871 2.99824 8.50287 3.08531 8.38714Z" fill="#FF9900"/>
<path d="M2.34405 8.3865C2.26292 8.27078 2.2191 8.12987 2.21924 7.98506L2.21986 1.31895C2.21986 1.14216 2.28532 0.972603 2.40183 0.84759C2.51834 0.722576 2.67637 0.652344 2.84114 0.652344C3.00592 0.652344 3.16395 0.722576 3.28046 0.84759C3.39697 0.972603 3.46243 1.14216 3.46243 1.31895L3.46243 6.35187L4.15827 5.6046C4.21595 5.54266 4.28444 5.49352 4.35982 5.45999C4.4352 5.42645 4.516 5.40917 4.59761 5.40914C4.67921 5.40911 4.76002 5.42633 4.83543 5.45981C4.91083 5.49328 4.97935 5.54237 5.03708 5.60426C5.0948 5.66615 5.1406 5.73964 5.17185 5.82052C5.20311 5.9014 5.21921 5.9881 5.21924 6.07565C5.21927 6.16321 5.20322 6.24992 5.17202 6.33083C5.14082 6.41173 5.09507 6.48525 5.03739 6.54718L3.36737 8.33903C3.29584 8.46183 3.189 8.55629 3.06299 8.60814C2.93698 8.65999 2.79866 8.66641 2.66895 8.62642C2.53924 8.58643 2.42519 8.50221 2.34405 8.3865Z" fill="#FF9900"/>
</svg>
