<svg width="12" height="11" viewBox="0 0 12 11" fill="none" xmlns="http://www.w3.org/2000/svg">
<g clip-path="url(#clip0_2171_198)">
<path d="M1.15078 3.68759C1.30312 3.7957 1.76016 4.11296 2.52422 4.64409C3.28828 5.17522 3.87188 5.58179 4.27969 5.8685C4.32422 5.89906 4.42031 5.96721 4.56328 6.07297C4.70859 6.17872 4.82812 6.26333 4.92422 6.32913C5.02031 6.39493 5.13516 6.46779 5.27344 6.54769C5.40938 6.62759 5.53828 6.6887 5.65781 6.72865C5.77734 6.7686 5.88984 6.78975 5.99297 6.78975H6.00703C6.11016 6.78975 6.22031 6.7686 6.34219 6.72865C6.46172 6.6887 6.59062 6.62759 6.72656 6.54769C6.8625 6.46779 6.97969 6.39493 7.07578 6.32913C7.17188 6.26333 7.29141 6.17872 7.43672 6.07297C7.58203 5.96721 7.67578 5.89906 7.72031 5.8685C8.13047 5.58179 9.17578 4.8556 10.8539 3.68524C11.1797 3.45728 11.4516 3.18231 11.6719 2.86035C11.8898 2.53838 12 2.19996 12 1.84744C12 1.55133 11.8945 1.29987 11.6812 1.08835C11.4703 0.876843 11.2172 0.773438 10.9289 0.773438H1.07109C0.726562 0.773438 0.464062 0.890944 0.278906 1.12361C0.09375 1.35627 0 1.64533 0 1.9955C0 2.27752 0.121875 2.58303 0.367969 2.91205C0.614062 3.24107 0.874219 3.49958 1.15078 3.68759Z" fill="#6C6565"/>
<path d="M11.3297 4.40745C9.86484 5.40155 8.75391 6.17239 7.99453 6.72467C7.73906 6.91268 7.53281 7.05838 7.37578 7.16414C7.21641 7.2699 7.00547 7.37565 6.74297 7.48611C6.48047 7.59656 6.23437 7.65062 6.00703 7.65062H5.99297C5.76562 7.65062 5.51953 7.59656 5.25703 7.48611C4.99453 7.37565 4.78359 7.2699 4.62422 7.16414C4.46484 7.05838 4.25859 6.91268 4.00547 6.72467C3.40312 6.28049 2.29453 5.50965 0.677344 4.40745C0.421875 4.23589 0.196875 4.04083 0 3.82227V9.1547C0 9.45081 0.105469 9.70227 0.314062 9.91378C0.525 10.1253 0.775781 10.2287 1.07109 10.2287H10.9289C11.2242 10.2287 11.475 10.1229 11.6859 9.91378C11.8969 9.70227 12 9.45081 12 9.1547V3.82227C11.8078 4.03848 11.5852 4.23119 11.3297 4.40745Z" fill="#6C6565"/>
</g>
<defs>
<clipPath id="clip0_2171_198">
<rect width="12" height="9.45455" fill="white" transform="translate(0 0.773438)"/>
</clipPath>
</defs>
</svg>
