<svg width="17" height="16" viewBox="0 0 17 16" fill="none" xmlns="http://www.w3.org/2000/svg">
<path d="M16.9895 4.01701C16.9895 3.21579 16.3562 2.56734 15.5738 2.56734H11.6846V1.8442C11.6846 1.04298 11.0513 0.394531 10.2688 0.394531H6.7344C5.95192 0.394531 5.31864 1.04298 5.31864 1.8442V2.56734H1.42945C0.646973 2.56734 0.0136955 3.21579 0.0136955 4.01701C0.0136955 5.67038 -0.158715 6.75679 0.719916 7.87035V14.1579C0.719916 14.9591 1.35319 15.6076 2.13567 15.6076H14.8675C15.65 15.6076 16.2833 14.9591 16.2833 14.1579V7.87035C17.142 6.78395 16.9895 5.8639 16.9895 4.01701ZM6.02818 1.8442C6.02818 1.44359 6.34647 1.12106 6.7344 1.12106H10.2721C10.6634 1.12106 10.9784 1.44699 10.9784 1.8442V2.56734H6.02818V1.8442ZM14.8675 14.8811H2.13567C1.74443 14.8811 1.42945 14.5551 1.42945 14.1579V8.53577C2.44734 9.23515 2.9712 9.08577 7.08917 9.08577V9.44903C6.89355 9.44903 6.7344 9.61199 6.7344 9.8123C6.7344 10.0126 6.89355 10.1756 7.08917 10.1756C7.08917 10.8987 7.04275 11.0617 7.24831 11.2009C8.39882 11.9851 8.35904 11.9851 8.50492 11.9851C8.65081 11.9851 8.60108 11.9851 9.76153 11.2009C9.96378 11.0685 9.92068 10.936 9.92068 10.1756C10.1163 10.1756 10.2754 10.0126 10.2754 9.8123C10.2754 9.61199 10.1163 9.44903 9.92068 9.44903V9.08577C13.8861 9.08577 14.5194 9.26231 15.5804 8.53577V14.1545C15.5771 14.5551 15.2588 14.8811 14.8675 14.8811ZM7.08917 7.27622V6.55309H9.91737V7.27622H7.08917ZM9.21114 7.99936V9.44903H7.79539V7.99936H9.21114ZM7.79539 10.1722H9.21114V10.7018L8.50492 11.1873L7.7987 10.7018V10.1722H7.79539ZM16.2833 5.82655C16.2833 7.2253 15.1759 8.36263 13.8066 8.36263H9.91737V7.99936C10.3086 7.99936 10.6236 7.67344 10.6236 7.27622V6.55309C10.6236 6.15247 10.3053 5.82995 9.91737 5.82995H7.08917C6.69793 5.82995 6.38295 6.15587 6.38295 6.55309V7.27622C6.38295 7.67684 6.70124 7.99936 7.08917 7.99936V8.36263H3.19666C1.83064 8.36263 0.719916 7.22869 0.719916 5.82655V4.01701C0.719916 3.6164 1.03821 3.29387 1.42614 3.29387H15.5738C15.965 3.29387 16.28 3.61979 16.28 4.01701V5.82655H16.2833Z" fill="#1E866F"/>
</svg>
