<svg width="16" height="20" viewBox="0 0 16 20" fill="none" xmlns="http://www.w3.org/2000/svg">
<path d="M14.4189 6.47848C14.7647 6.13266 15.0721 5.9098 15.0721 5.39107C15.0798 4.79933 14.6033 4.31518 14.0116 4.3075C13.7157 4.30365 13.4352 4.42277 13.2277 4.6341L12.9203 4.9415C11.7637 4.03468 10.3805 3.466 8.92417 3.30077V2.93189C9.51975 2.88963 9.96548 2.37474 9.92321 1.77916C9.88094 1.18358 9.36605 0.73785 8.77047 0.780118H7.23349C6.63791 0.73785 6.12302 1.18358 6.08075 1.77916C6.03849 2.37474 6.48421 2.88963 7.07979 2.93189V3.30077C5.61966 3.46984 4.23637 4.04237 3.08363 4.94919L2.77624 4.64179C2.36125 4.21912 1.67729 4.21143 1.25462 4.62642C0.831953 5.04141 0.824268 5.72536 1.23925 6.14803L1.57355 6.47848C-2.31502 11.7158 1.43522 19.2239 8.00198 19.2239C14.5687 19.2239 18.3151 11.7042 14.4189 6.47848ZM13.6811 5.08367C13.8579 4.90308 14.1461 4.89923 14.3228 5.07599C14.4074 5.16052 14.4573 5.27195 14.4612 5.39107C14.4612 5.50634 14.4112 5.61777 14.3267 5.69847C14.0193 6.00586 14.0577 6.00586 14.0193 5.9636C13.8271 5.74073 13.6197 5.5294 13.4045 5.32959L13.6811 5.08367ZM7.23733 1.39491H8.77432C9.02792 1.39491 9.23541 1.6024 9.23541 1.85601C9.23541 2.10961 9.02792 2.3171 8.77432 2.3171H7.23733C6.98373 2.3171 6.77624 2.10961 6.77624 1.85601C6.77624 1.6024 6.98373 1.39491 7.23733 1.39491ZM7.69843 3.23929V2.93189H8.31322V3.23929H7.69843ZM2.33051 5.08367C2.63791 5.39107 2.61485 5.3488 2.58411 5.3757C2.36894 5.56782 2.16144 5.77531 1.96932 5.99049L1.69266 5.69847C1.55818 5.48713 1.61581 5.21047 1.82715 5.07214C1.98085 4.97224 2.18066 4.97608 2.33051 5.08367ZM13.6427 16.0001C11.0145 19.1163 6.36125 19.5083 3.24502 16.8839C2.92609 16.6149 2.63022 16.319 2.36125 16.0001C-1.69254 11.1893 1.76567 3.85409 8.00582 3.85409C14.246 3.85409 17.7042 11.1855 13.6427 15.9847V16.0001Z" fill="#1E866F"/>
<path d="M13.0548 7.21264C10.8339 4.42301 6.7724 3.96192 3.98278 6.18286C3.60237 6.48641 3.25655 6.83224 2.953 7.21264C-0.401469 11.4201 2.59949 17.6872 8.00583 17.6872C13.4122 17.6872 16.417 11.4201 13.0548 7.21264ZM12.4669 14.9975C10.3843 17.4605 6.69555 17.764 4.23638 15.6814C3.99046 15.4739 3.75991 15.2434 3.55242 14.9975C0.317071 11.1973 3.06443 5.39131 8.00199 5.39131C12.9395 5.39131 15.6908 11.1934 12.4669 14.9975Z" fill="#1E866F"/>
<path d="M8.00577 6.62261C8.17484 6.62261 8.31317 6.48428 8.31317 6.31521C8.31317 6.14614 8.17484 6.00781 8.00577 6.00781C7.83671 6.00781 7.69838 6.14614 7.69838 6.31521C7.69838 6.48428 7.83671 6.62261 8.00577 6.62261ZM8.00577 15.8445C7.83671 15.8445 7.69838 15.9828 7.69838 16.1519C7.69838 16.321 7.83671 16.4593 8.00577 16.4593C8.17484 16.4593 8.31317 16.321 8.31317 16.1519C8.31317 15.9828 8.17484 15.8445 8.00577 15.8445ZM12.9241 10.9262C12.7551 10.9262 12.6167 11.0645 12.6167 11.2336C12.6167 11.4026 12.7551 11.541 12.9241 11.541C13.0932 11.541 13.2315 11.4026 13.2315 11.2336C13.2315 11.0645 13.0932 10.9262 12.9241 10.9262ZM3.08743 10.9262C2.91836 10.9262 2.78003 11.0645 2.78003 11.2336C2.78003 11.4026 2.91836 11.541 3.08743 11.541C3.25649 11.541 3.39482 11.4026 3.39482 11.2336C3.39482 11.0645 3.25649 10.9262 3.08743 10.9262ZM4.31701 7.5448C4.20558 7.67544 4.22095 7.86756 4.35159 7.97899C4.46687 8.0789 4.63594 8.0789 4.75121 7.97899C4.86264 7.84835 4.84727 7.65623 4.71663 7.5448C4.60135 7.44489 4.43229 7.44489 4.31701 7.5448ZM11.268 14.4958C11.172 14.6341 11.2065 14.8263 11.3487 14.9223C11.4525 14.9953 11.5908 14.9953 11.6945 14.9223C11.7906 14.784 11.756 14.5919 11.6138 14.4958C11.5101 14.4228 11.3718 14.4228 11.268 14.4958ZM11.268 7.5448C11.172 7.68312 11.2065 7.87525 11.3487 7.97131C11.4525 8.04432 11.5908 8.04432 11.6945 7.97131C11.7906 7.83298 11.756 7.64086 11.6138 7.5448C11.5101 7.47179 11.3718 7.47179 11.268 7.5448ZM4.31701 14.4958C4.22095 14.6341 4.25553 14.8263 4.3977 14.9223C4.50145 14.9953 4.63978 14.9953 4.74353 14.9223C4.83959 14.784 4.80501 14.5919 4.66283 14.4958C4.55909 14.4228 4.42076 14.4228 4.31701 14.4958ZM8.31317 10.3652V7.85219C8.31317 7.68312 8.17484 7.5448 8.00577 7.5448C7.83671 7.5448 7.69838 7.68312 7.69838 7.85219V10.3652C7.21807 10.5342 6.96831 11.0606 7.13738 11.541C7.30645 12.0213 7.83286 12.271 8.31317 12.102C8.79348 11.9329 9.04324 11.4065 8.87417 10.9262C8.78195 10.6649 8.57446 10.4574 8.31317 10.3652ZM8.00577 11.541C7.83671 11.541 7.69838 11.4026 7.69838 11.2336C7.69838 11.0645 7.83671 10.9262 8.00577 10.9262C8.17484 10.9262 8.31317 11.0645 8.31317 11.2336C8.31317 11.4026 8.17484 11.541 8.00577 11.541Z" fill="#1E866F"/>
</svg>
