<svg width="18" height="17" viewBox="0 0 18 17" fill="none" xmlns="http://www.w3.org/2000/svg">
<path d="M7.53783 7.4432L5.04994 8.8796C5.01617 8.89909 4.9789 8.91174 4.94025 8.91683C4.90159 8.92192 4.86232 8.91934 4.82466 8.90925C4.787 8.89916 4.7517 8.88175 4.72077 8.85802C4.68983 8.83428 4.66388 8.80469 4.64439 8.77092C4.6249 8.73716 4.61224 8.69988 4.60716 8.66123C4.60207 8.62258 4.60464 8.5833 4.61473 8.54564C4.62483 8.50798 4.64224 8.47268 4.66597 8.44175C4.6897 8.41082 4.7193 8.38487 4.75306 8.36537L6.94408 7.10043V3.66592C6.94408 3.58718 6.97535 3.51167 7.03103 3.45599C7.0867 3.40032 7.16221 3.36904 7.24095 3.36904C7.31969 3.36904 7.3952 3.40032 7.45087 3.45599C7.50655 3.51167 7.53783 3.58718 7.53783 3.66592V7.4432ZM17.1716 8.89908V11.3797C17.1708 12.1161 16.8779 12.8221 16.3572 13.3428C15.8365 13.8635 15.1305 14.1564 14.3941 14.1572H14.2113C13.941 14.5149 13.6096 14.822 13.2323 15.0641H15.8394V16.0246C15.8391 16.2792 15.7378 16.5233 15.5578 16.7033C15.3778 16.8834 15.1336 16.9847 14.879 16.985H6.50819C6.25357 16.9847 6.00946 16.8834 5.82942 16.7033C5.64937 16.5233 5.54809 16.2792 5.5478 16.0246V15.0641H8.15492C7.88749 14.8924 7.64267 14.6878 7.4262 14.4552C7.36516 14.4567 7.30374 14.4577 7.24095 14.4577C3.27863 14.4577 0.0550537 11.2341 0.0550537 7.27183C0.0550537 3.30955 3.27863 0.0859375 7.24095 0.0859375C11.2033 0.0859375 14.4268 3.30952 14.4268 7.27183C14.4267 7.55609 14.4099 7.84009 14.3766 8.12238H14.9717V8.6022H16.8747C16.9535 8.6022 17.029 8.63348 17.0847 8.68916C17.1403 8.74483 17.1716 8.82034 17.1716 8.89908ZM14.9717 11.8901C14.9718 12.1709 14.9405 12.4508 14.8784 12.7246C15.1143 12.6081 15.313 12.4281 15.4523 12.2048C15.5915 11.9816 15.6658 11.724 15.6667 11.4609V10.0525H14.9717V11.8901ZM6.9715 13.858C6.86524 13.6852 6.77314 13.5041 6.69611 13.3164C5.18693 13.1804 3.78322 12.4847 2.76096 11.3662C1.73871 10.2476 1.17186 8.78714 1.17186 7.27183C1.17186 3.92531 3.89443 1.20274 7.24095 1.20274C10.5875 1.20274 13.31 3.92531 13.31 7.27183C13.3115 7.55637 13.2922 7.84063 13.2525 8.12238H13.7785C13.8148 7.84031 13.833 7.55622 13.8331 7.27183C13.8331 3.63693 10.8759 0.679687 7.24095 0.679687C3.60605 0.679687 0.648804 3.63697 0.648804 7.27183C0.648804 10.8164 3.46106 13.7161 6.9715 13.858ZM6.41545 11.8901V8.12238H12.6518C12.6813 7.93905 12.7005 7.7542 12.7092 7.56871H12.1251C12.0464 7.56871 11.9709 7.53743 11.9152 7.48176C11.8595 7.42608 11.8282 7.35057 11.8282 7.27183C11.8282 7.1931 11.8595 7.11759 11.9152 7.06191C11.9709 7.00624 12.0464 6.97496 12.1251 6.97496H12.7081C12.6678 6.21563 12.4687 5.47321 12.1235 4.79567L11.6192 5.08683C11.551 5.1262 11.47 5.13687 11.3939 5.11649C11.3179 5.09611 11.253 5.04635 11.2136 4.97816C11.1743 4.90997 11.1636 4.82893 11.184 4.75288C11.2044 4.67682 11.2541 4.61198 11.3223 4.57261L11.8256 4.28204C11.4095 3.64623 10.8665 3.1032 10.2307 2.68697L9.94014 3.19029C9.90077 3.25848 9.83592 3.30824 9.75986 3.32863C9.68381 3.34901 9.60277 3.33835 9.53457 3.29898C9.46637 3.25961 9.41661 3.19476 9.39623 3.11871C9.37584 3.04265 9.38651 2.96161 9.42588 2.89341L9.71707 2.38906C9.03954 2.04393 8.29713 1.84478 7.53783 1.80447V2.38765C7.53783 2.46638 7.50655 2.54189 7.45087 2.59757C7.3952 2.65324 7.31969 2.68452 7.24095 2.68452C7.16221 2.68452 7.0867 2.65324 7.03103 2.59757C6.97535 2.54189 6.94408 2.46638 6.94408 2.38765V1.80462C6.18474 1.84492 5.44231 2.04409 4.76475 2.38924L5.05595 2.89356C5.07575 2.92733 5.08868 2.96469 5.09398 3.00348C5.09928 3.04227 5.09686 3.08173 5.08685 3.11958C5.07685 3.15743 5.05945 3.19293 5.03567 3.22403C5.01189 3.25513 4.98219 3.28122 4.94828 3.3008C4.91438 3.32038 4.87693 3.33305 4.83811 3.3381C4.79928 3.34315 4.75984 3.34046 4.72206 3.33021C4.68427 3.31995 4.64889 3.30232 4.61795 3.27833C4.58701 3.25434 4.56111 3.22447 4.54176 3.19043L4.25116 2.68697C3.61541 3.10317 3.07243 3.64614 2.65624 4.28189L3.15955 4.57246C3.19331 4.59195 3.22291 4.61791 3.24664 4.64884C3.27038 4.67977 3.28779 4.71507 3.29788 4.75273C3.30797 4.79039 3.31055 4.82966 3.30546 4.86832C3.30037 4.90697 3.28772 4.94425 3.26822 4.97801C3.24873 5.01178 3.22278 5.04137 3.19185 5.0651C3.16092 5.08884 3.12562 5.10625 3.08796 5.11634C3.0503 5.12643 3.01102 5.12901 2.97237 5.12392C2.93371 5.11883 2.89644 5.10618 2.86267 5.08669L2.35836 4.79553C2.01316 5.4731 1.814 6.21558 1.77374 6.97496H2.35669C2.43542 6.97496 2.51094 7.00624 2.56661 7.06191C2.62229 7.11759 2.65356 7.1931 2.65356 7.27183C2.65356 7.35057 2.62229 7.42608 2.56661 7.48176C2.51094 7.53743 2.43542 7.56871 2.35669 7.56871H1.77407C1.81534 8.32767 2.01543 9.06951 2.3614 9.74629L2.86282 9.45683C2.8966 9.43703 2.93396 9.42411 2.97275 9.4188C3.01154 9.4135 3.051 9.41592 3.08885 9.42593C3.1267 9.43594 3.1622 9.45333 3.1933 9.47711C3.2244 9.5009 3.25049 9.5306 3.27007 9.5645C3.28964 9.59841 3.30232 9.63585 3.30736 9.67468C3.31241 9.7135 3.30973 9.75294 3.29947 9.79073C3.28921 9.82851 3.27158 9.86389 3.24759 9.89484C3.22361 9.92578 3.19373 9.95167 3.1597 9.97102L2.65965 10.2597C3.07564 10.8949 3.61774 11.4379 4.25231 11.8548L4.54176 11.3532C4.56111 11.3192 4.58701 11.2893 4.61795 11.2653C4.64889 11.2414 4.68427 11.2237 4.72206 11.2135C4.75984 11.2032 4.79928 11.2005 4.83811 11.2056C4.87693 11.2106 4.91438 11.2233 4.94828 11.2429C4.98219 11.2624 5.01189 11.2885 5.03567 11.3196C5.05945 11.3507 5.07685 11.3862 5.08685 11.4241C5.09686 11.4619 5.09928 11.5014 5.09398 11.5402C5.08868 11.579 5.07575 11.6163 5.05595 11.6501L4.76538 12.1533C5.30961 12.4316 5.89708 12.6156 6.50281 12.6974C6.4447 12.4322 6.41541 12.1616 6.41545 11.8901ZM11.204 15.6578H6.14155V16.0245C6.14166 16.1217 6.18032 16.2149 6.24905 16.2836C6.31779 16.3524 6.41098 16.391 6.50819 16.3911H14.879C14.9762 16.391 15.0694 16.3524 15.1382 16.2836C15.2069 16.2149 15.2456 16.1217 15.2457 16.0245V15.6578H11.204ZM14.378 11.8901V8.71613H7.0092V11.8901C7.01016 12.7316 7.34486 13.5383 7.93986 14.1333C8.53486 14.7283 9.34158 15.0631 10.1831 15.0641H11.2039C12.0454 15.0631 12.8522 14.7285 13.4472 14.1334C14.0423 13.5384 14.377 12.7316 14.378 11.8901ZM16.5779 9.19595H14.9717V9.4588H15.9636C16.0424 9.4588 16.1179 9.49008 16.1735 9.54575C16.2292 9.60143 16.2605 9.67694 16.2605 9.75568V11.4609C16.2588 11.9244 16.097 12.373 15.8025 12.7309C15.5081 13.0888 15.099 13.334 14.6446 13.4251C14.625 13.4687 14.6046 13.5119 14.5834 13.5547C15.1274 13.5068 15.6338 13.257 16.0029 12.8545C16.372 12.452 16.5771 11.9259 16.5779 11.3797V9.19595Z" fill="#1E866F"/>
</svg>
