<svg width="17" height="18" viewBox="0 0 17 18" fill="none" xmlns="http://www.w3.org/2000/svg">
<path d="M16.5621 11.7837C16.4333 11.5261 16.2273 11.32 15.9697 11.2428C15.7121 11.1655 15.4545 11.1912 15.2227 11.32C12.4409 13.0973 12.003 13.5352 10.8439 13.9988C9.06666 14.5912 8.70605 15.0291 8.31969 14.6428C8.11363 14.3852 7.67575 14.2049 7.85605 13.87C7.88181 13.8443 7.93332 13.7412 8.06211 13.7412H10.6636C11.2045 13.7412 11.6424 13.2776 11.6424 12.6852C11.6424 12.0928 11.2045 11.6291 10.6636 11.6291H7.95908C7.90757 11.6291 7.80454 11.6291 7.75302 11.5518C6.87726 10.4443 5.09999 10.6761 4.37878 10.8564V10.3928C4.37878 10.2382 4.27575 10.1352 4.1212 10.1352H0.592415C0.437869 10.1352 0.334839 10.2382 0.334839 10.3928V16.5488C0.334839 16.7034 0.437869 16.8064 0.592415 16.8064H4.09545C4.24999 16.8064 4.35302 16.7034 4.35302 16.5488V16.214L5.35757 16.1625L8.49999 17.27C8.70605 17.3473 8.91211 17.3731 9.11817 17.3731C9.45302 17.3731 9.81363 17.27 10.097 17.0897C15.4288 13.7412 12.0803 15.8276 16.15 13.2003C16.6136 12.917 16.7939 12.2988 16.5621 11.7837ZM3.83787 16.2655H0.84999V10.6246H3.83787V16.2655ZM15.8924 12.7367L12.2091 15.1321L9.81363 16.6261C9.45302 16.8579 9.0409 16.8837 8.65454 16.7549C5.30605 15.57 5.48635 15.5958 5.38332 15.5958L4.32726 15.6473V11.3458C4.86817 11.217 6.56817 10.9079 7.28938 11.8352C7.44393 12.0155 7.64999 12.1185 7.90757 12.1185H10.6379C10.8954 12.1185 11.1015 12.3761 11.1015 12.6594C11.1015 12.9428 10.8954 13.2003 10.6379 13.2003H8.08787C7.80454 13.2003 7.57272 13.3549 7.44393 13.6125C7.28938 13.9215 7.3409 14.2821 7.5212 14.4882C7.57272 14.5655 7.83029 14.7973 8.0106 14.9776C8.29393 15.2609 8.70605 15.3382 9.06666 15.2094L11.0757 14.4367C12.3121 13.9731 12.8015 13.4579 15.5318 11.7321C15.6606 11.6549 15.7636 11.6806 15.8409 11.7064C15.9697 11.7579 16.0727 11.8352 16.1242 11.964C16.2273 12.2731 16.1242 12.6079 15.8924 12.7367ZM7.1606 6.27154L6.90302 6.58063C7.1606 6.81245 7.46969 6.94124 7.80454 6.99276V7.25033H8.03636V6.99276C8.29393 6.99276 8.49999 6.91548 8.62878 6.76094C8.78332 6.63215 8.8606 6.45185 8.8606 6.24579C8.8606 6.03973 8.78332 5.85942 8.65454 5.75639C8.52575 5.65336 8.31969 5.55033 8.03636 5.49882V4.80336C8.21666 4.82912 8.39696 4.90639 8.55151 5.00942L8.78332 4.67457C8.55151 4.52003 8.29393 4.417 8.0106 4.39124V4.21094H7.77878V4.39124C7.54696 4.39124 7.3409 4.46851 7.18635 4.62306C7.03181 4.75185 6.95454 4.93215 6.95454 5.13821C6.95454 5.34427 7.03181 5.49882 7.1606 5.6276C7.28938 5.73063 7.49545 5.83366 7.77878 5.88518V6.60639C7.57272 6.55488 7.36666 6.45185 7.1606 6.27154ZM8.03636 5.9367C8.1909 5.98821 8.29393 6.03973 8.34545 6.09124C8.39696 6.14276 8.42272 6.22003 8.42272 6.2973C8.42272 6.37457 8.39696 6.45185 8.31969 6.50336C8.24242 6.55488 8.16514 6.60639 8.03636 6.60639V5.9367ZM7.5212 5.29276C7.46969 5.24124 7.44393 5.18973 7.44393 5.08669C7.44393 5.00942 7.46969 4.93215 7.54696 4.88063C7.59848 4.82912 7.70151 4.80336 7.80454 4.7776V5.42154C7.64999 5.39579 7.57272 5.34427 7.5212 5.29276Z" fill="#1E866F"/>
<path d="M1.41663 9.438H14.3985C14.553 9.438 14.656 9.33497 14.656 9.18042V8.02133H15.6348C15.7894 8.02133 15.8924 7.9183 15.8924 7.76376V0.886482C15.8924 0.731937 15.7894 0.628906 15.6348 0.628906H2.653C2.49845 0.628906 2.39542 0.731937 2.39542 0.886482V2.04557H1.41663C1.28785 2.04557 1.15906 2.1486 1.15906 2.30315V9.15466C1.15906 9.30921 1.26209 9.438 1.41663 9.438ZM14.0894 2.56072V3.90012C13.4197 3.79709 12.8788 3.25618 12.75 2.56072H14.0894ZM2.653 2.56072H3.0136C2.91057 3.23042 2.36966 3.77133 1.67421 3.90012V2.56072H2.653ZM3.503 2.56072H12.2348C12.3636 3.53951 13.1106 4.28648 14.0894 4.41527V7.0683C13.1106 7.19709 12.3636 7.94406 12.2348 8.92285H3.503C3.37421 7.96982 2.62724 7.19709 1.64845 7.0683V4.41527C2.62724 4.31224 3.39997 3.53951 3.503 2.56072ZM1.67421 8.92285V7.58345C2.36966 7.68648 2.91057 8.22739 3.0136 8.92285H1.67421ZM14.0894 8.92285H12.75C12.853 8.25315 13.3939 7.71224 14.0894 7.58345V7.738V8.92285ZM2.91057 1.14406H15.3515V7.48042H14.6303V2.30315C14.6303 2.1486 14.5015 2.04557 14.3727 2.04557H2.91057V1.14406Z" fill="#1E866F"/>
<path d="M7.88178 8.46061C9.11814 8.46061 10.0969 7.25 10.0969 5.7303C10.0969 4.23636 9.09238 3 7.88178 3C6.64541 3 5.66663 4.21061 5.66663 5.7303C5.66663 7.25 6.64541 8.46061 7.88178 8.46061ZM7.88178 3.54091C8.83481 3.54091 9.58178 4.5197 9.58178 5.75606C9.58178 6.96667 8.80905 7.97121 7.88178 7.97121C6.9545 7.97121 6.18178 6.96667 6.18178 5.7303C6.18178 4.5197 6.92875 3.54091 7.88178 3.54091Z" fill="#1E866F"/>
</svg>
