<svg width="14" height="13" viewBox="0 0 14 13" fill="none" xmlns="http://www.w3.org/2000/svg">
<path d="M4.12535 8.98678C4.3075 8.98673 4.48554 8.93267 4.63696 8.83144C4.78839 8.73021 4.9064 8.58635 4.97607 8.41805C5.04574 8.24976 5.06394 8.06458 5.02837 7.88594C4.99281 7.7073 4.90507 7.54322 4.77626 7.41444C4.64744 7.28566 4.48334 7.19797 4.30469 7.16245C4.12604 7.12694 3.94087 7.14519 3.77259 7.21491C3.60432 7.28462 3.46049 7.40267 3.3593 7.55412C3.25811 7.70557 3.2041 7.88363 3.2041 8.06578C3.20443 8.30998 3.30161 8.54409 3.47431 8.71674C3.64701 8.8894 3.88115 8.98651 4.12535 8.98678ZM4.12535 7.64478C4.20861 7.64482 4.28998 7.66956 4.35918 7.71585C4.42838 7.76214 4.4823 7.82791 4.51413 7.90484C4.54595 7.98177 4.55425 8.06641 4.53798 8.14806C4.52171 8.22971 4.48159 8.3047 4.42271 8.36356C4.36382 8.42241 4.2888 8.46248 4.20714 8.4787C4.12548 8.49493 4.04085 8.48658 3.96393 8.4547C3.88702 8.42283 3.82128 8.36887 3.77504 8.29964C3.72879 8.23042 3.7041 8.14903 3.7041 8.06578C3.7043 7.95416 3.74876 7.84718 3.82773 7.7683C3.9067 7.68943 4.01374 7.64509 4.12535 7.64503V7.64478Z" fill="#1E866F"/>
<path d="M6.5 8.625C6.5 8.15527 6.36071 7.69609 6.09974 7.30552C5.83877 6.91496 5.46785 6.61055 5.03387 6.43079C4.5999 6.25103 4.12237 6.204 3.66166 6.29564C3.20096 6.38728 2.77777 6.61347 2.44562 6.94562C2.11347 7.27777 1.88728 7.70096 1.79564 8.16166C1.704 8.62237 1.75103 9.0999 1.93079 9.53387C2.11055 9.96785 2.41496 10.3388 2.80552 10.5997C3.19609 10.8607 3.65527 11 4.125 11C4.75469 10.9993 5.35839 10.7489 5.80365 10.3036C6.2489 9.85839 6.49934 9.25469 6.5 8.625ZM2.25 8.625C2.24954 8.32531 2.32092 8.02988 2.45815 7.76347C2.59539 7.49705 2.79449 7.26741 3.03877 7.09379C3.28304 6.92018 3.56537 6.80764 3.8621 6.76562C4.15882 6.7236 4.4613 6.75332 4.74418 6.85229C5.02705 6.95125 5.28208 7.11658 5.4879 7.33442C5.69371 7.55225 5.84431 7.81625 5.92708 8.10428C6.00984 8.39231 6.02236 8.69599 5.96358 8.98985C5.9048 9.28372 5.77644 9.55922 5.58925 9.79325C5.42159 9.56186 5.20147 9.37351 4.94695 9.24362C4.69243 9.11373 4.41075 9.04601 4.125 9.04601C3.83925 9.04601 3.55757 9.11373 3.30305 9.24362C3.04853 9.37351 2.82842 9.56186 2.66075 9.79325C2.39475 9.46199 2.24984 9.04984 2.25 8.625ZM3.024 10.1395C3.14405 9.95718 3.3075 9.80753 3.49966 9.70398C3.69183 9.60043 3.90671 9.54622 4.125 9.54622C4.34329 9.54622 4.55817 9.60043 4.75034 9.70398C4.94251 9.80753 5.10595 9.95718 5.226 10.1395C4.9067 10.3738 4.52101 10.5001 4.125 10.5001C3.72899 10.5001 3.3433 10.3738 3.024 10.1395ZM5.375 12H2.875C2.8087 12 2.74511 11.9737 2.69822 11.9268C2.65134 11.8799 2.625 11.8163 2.625 11.75C2.625 11.6837 2.65134 11.6201 2.69822 11.5732C2.74511 11.5263 2.8087 11.5 2.875 11.5H5.375C5.44131 11.5 5.50489 11.5263 5.55178 11.5732C5.59866 11.6201 5.625 11.6837 5.625 11.75C5.625 11.8163 5.59866 11.8799 5.55178 11.9268C5.50489 11.9737 5.44131 12 5.375 12ZM12 7.375H7.5C7.4337 7.375 7.37011 7.34866 7.32322 7.30178C7.27634 7.25489 7.25 7.19131 7.25 7.125C7.25 7.0587 7.27634 6.99511 7.32322 6.94822C7.37011 6.90134 7.4337 6.875 7.5 6.875H12C12.0663 6.875 12.1299 6.90134 12.1768 6.94822C12.2237 6.99511 12.25 7.0587 12.25 7.125C12.25 7.19131 12.2237 7.25489 12.1768 7.30178C12.1299 7.34866 12.0663 7.375 12 7.375ZM12 8.875H7.5C7.4337 8.875 7.37011 8.84866 7.32322 8.80178C7.27634 8.75489 7.25 8.69131 7.25 8.625C7.25 8.5587 7.27634 8.49511 7.32322 8.44822C7.37011 8.40134 7.4337 8.375 7.5 8.375H12C12.0663 8.375 12.1299 8.40134 12.1768 8.44822C12.2237 8.49511 12.25 8.5587 12.25 8.625C12.25 8.69131 12.2237 8.75489 12.1768 8.80178C12.1299 8.84866 12.0663 8.875 12 8.875ZM12 10.375H7.5C7.4337 10.375 7.37011 10.3487 7.32322 10.3018C7.27634 10.2549 7.25 10.1913 7.25 10.125C7.25 10.0587 7.27634 9.99511 7.32322 9.94822C7.37011 9.90134 7.4337 9.875 7.5 9.875H12C12.0663 9.875 12.1299 9.90134 12.1768 9.94822C12.2237 9.99511 12.25 10.0587 12.25 10.125C12.25 10.1913 12.2237 10.2549 12.1768 10.3018C12.1299 10.3487 12.0663 10.375 12 10.375Z" fill="#1E866F"/>
<path d="M12.25 3H8.5V1.625C8.5 1.22718 8.34196 0.845644 8.06066 0.56434C7.77936 0.283035 7.39782 0.125 7 0.125C6.60218 0.125 6.22064 0.283035 5.93934 0.56434C5.65804 0.845644 5.5 1.22718 5.5 1.625V3H1.75C1.35232 3.00046 0.971056 3.15865 0.689851 3.43985C0.408647 3.72106 0.250463 4.10232 0.25 4.5V11.5C0.250463 11.8977 0.408647 12.2789 0.689851 12.5601C0.971056 12.8414 1.35232 12.9995 1.75 13H12.25C12.6477 12.9995 13.0289 12.8414 13.3101 12.5601C13.5914 12.2789 13.7495 11.8977 13.75 11.5V4.5C13.7495 4.10232 13.5914 3.72106 13.3101 3.43985C13.0289 3.15865 12.6477 3.00046 12.25 3ZM6 1.625C6 1.35978 6.10536 1.10543 6.29289 0.917893C6.48043 0.730357 6.73478 0.625 7 0.625C7.26522 0.625 7.51957 0.730357 7.70711 0.917893C7.89464 1.10543 8 1.35978 8 1.625L8.00025 4.125H6V1.625ZM1.75 3.5H5.5V4.125C5.50013 4.25757 5.55285 4.38467 5.64659 4.47841C5.74033 4.57215 5.86743 4.62487 6 4.625H8C8.13257 4.62487 8.25967 4.57215 8.35341 4.47841C8.44715 4.38467 8.49987 4.25757 8.5 4.125V3.5H12.25C12.5151 3.50026 12.7693 3.60571 12.9568 3.79319C13.1443 3.98066 13.2497 4.23486 13.25 4.5V5H0.75V4.5C0.750265 4.23486 0.855707 3.98066 1.04319 3.79319C1.23066 3.60571 1.48486 3.50026 1.75 3.5ZM12.25 12.5H1.75C1.48486 12.4997 1.23066 12.3943 1.04319 12.2068C0.855707 12.0193 0.750265 11.7651 0.75 11.5V5.5H13.25V11.5C13.2497 11.7651 13.1443 12.0193 12.9568 12.2068C12.7693 12.3943 12.5151 12.4997 12.25 12.5Z" fill="#1E866F"/>
<path d="M7 2.375C6.85166 2.375 6.70666 2.33101 6.58332 2.2486C6.45999 2.16619 6.36386 2.04906 6.30709 1.91201C6.25032 1.77497 6.23547 1.62417 6.26441 1.47868C6.29335 1.3332 6.36478 1.19956 6.46967 1.09467C6.57456 0.989781 6.7082 0.91835 6.85368 0.889411C6.99917 0.860472 7.14997 0.875325 7.28701 0.932091C7.42406 0.988856 7.54119 1.08499 7.6236 1.20832C7.70601 1.33166 7.75 1.47666 7.75 1.625C7.7498 1.82385 7.67072 2.0145 7.53011 2.15511C7.3895 2.29572 7.19885 2.3748 7 2.375ZM7 1.375C6.95056 1.375 6.90222 1.38966 6.86111 1.41713C6.82 1.4446 6.78795 1.48365 6.76903 1.52933C6.75011 1.57501 6.74516 1.62528 6.7548 1.67377C6.76445 1.72227 6.78826 1.76681 6.82322 1.80178C6.85819 1.83674 6.90273 1.86055 6.95123 1.8702C6.99972 1.87984 7.04999 1.87489 7.09567 1.85597C7.14135 1.83705 7.1804 1.80501 7.20787 1.76389C7.23534 1.72278 7.25 1.67445 7.25 1.625C7.24993 1.55872 7.22357 1.49517 7.1767 1.4483C7.12983 1.40143 7.06628 1.37507 7 1.375Z" fill="#1E866F"/>
</svg>
