<svg width="16" height="16" viewBox="0 0 16 16" fill="none" xmlns="http://www.w3.org/2000/svg">
<path d="M14.4953 11.849L13.5756 12.139C14.5015 10.888 14.9797 9.36188 14.9334 7.80616C14.887 6.25044 14.3186 4.75555 13.3198 3.56194C12.3209 2.36832 10.9496 1.54538 9.42644 1.22548C7.90326 0.905578 6.31675 1.10732 4.92211 1.79824C3.52746 2.48917 2.40576 3.62912 1.73742 5.03473C1.06908 6.44034 0.892963 8.0299 1.23739 9.54772C1.58183 11.0655 2.42679 12.4234 3.63636 13.4029C4.84593 14.3823 6.3498 14.9265 7.90606 14.9478H7.90956C7.94239 14.9479 7.97494 14.9417 8.00535 14.9293C8.03575 14.9169 8.06342 14.8987 8.08678 14.8756C8.11013 14.8525 8.12871 14.8251 8.14146 14.7948C8.1542 14.7646 8.16087 14.7321 8.16106 14.6993C8.16126 14.6664 8.15499 14.6339 8.14261 14.6035C8.13022 14.5731 8.11198 14.5454 8.0889 14.522C8.06582 14.4987 8.03837 14.4801 8.00812 14.4674C7.97786 14.4546 7.94539 14.4479 7.91256 14.4478C6.50865 14.4277 5.14962 13.9501 4.0417 13.0877C2.93377 12.2252 2.13745 11.0248 1.77356 9.66875C1.44347 8.43719 1.48602 7.13541 1.89582 5.92803C2.30562 4.72066 3.06426 3.66193 4.07581 2.88574C5.08736 2.10955 6.30636 1.65077 7.57866 1.56743C8.85096 1.48408 10.1194 1.77991 11.2236 2.4175C12.0112 2.87197 12.6936 3.488 13.2261 4.22509C13.7586 4.96219 14.129 5.80365 14.313 6.69414C14.497 7.58464 14.4904 8.50399 14.2937 9.39176C14.097 10.2795 13.7145 11.1156 13.1716 11.845L13.1963 10.878C13.198 10.8117 13.1733 10.7475 13.1276 10.6995C13.082 10.6514 13.0191 10.6235 12.9528 10.6218C12.9199 10.6205 12.8871 10.6259 12.8563 10.6375C12.8254 10.6492 12.7973 10.6668 12.7734 10.6895C12.7495 10.7122 12.7304 10.7394 12.7172 10.7696C12.704 10.7998 12.697 10.8323 12.6966 10.8653L12.6573 12.407C12.6559 12.4696 12.6695 12.5317 12.6969 12.588C12.7242 12.6444 12.7647 12.6933 12.8148 12.7309C12.8649 12.7685 12.9232 12.7936 12.985 12.8042C13.0467 12.8147 13.1101 12.8104 13.1698 12.7915L14.6458 12.326C14.6771 12.3161 14.7062 12.3002 14.7314 12.279C14.7565 12.2579 14.7773 12.2321 14.7924 12.2029C14.8076 12.1738 14.8168 12.142 14.8197 12.1093C14.8226 12.0765 14.8189 12.0436 14.8091 12.0123C14.7992 11.9809 14.7832 11.9519 14.7621 11.9267C14.741 11.9016 14.7151 11.8808 14.686 11.8656C14.6569 11.8505 14.625 11.8412 14.5923 11.8384C14.5596 11.8355 14.5266 11.8391 14.4953 11.849Z" fill="#1E866F"/>
<path d="M12.5025 5.94723C12.4918 5.89596 12.4709 5.84733 12.4412 5.80416C12.4115 5.76099 12.3736 5.72413 12.3295 5.69573L8.33379 3.10073C8.28985 3.07218 8.24071 3.05257 8.18919 3.04301C8.13767 3.03345 8.08477 3.03414 8.03351 3.04502C7.98225 3.05591 7.93364 3.07679 7.89045 3.10647C7.84726 3.13614 7.81034 3.17404 7.78179 3.21798L7.51854 3.62373C7.46239 3.7097 7.44177 3.81409 7.46102 3.91495C7.48028 4.01581 7.53791 4.10526 7.62179 4.16448C7.38973 4.57531 7.23747 5.02632 7.17304 5.49373C7.13417 5.92849 7.18036 6.36665 7.30904 6.78373C7.38579 7.10223 7.47254 7.46348 7.38679 7.59523C7.30154 7.72698 6.93604 7.79448 6.61379 7.85423C6.17499 7.90732 5.75097 8.04648 5.36604 8.26373C4.97064 8.51071 4.62536 8.83004 4.34829 9.20498C4.26009 9.15243 4.15493 9.13615 4.05496 9.15956C3.95499 9.18296 3.868 9.24424 3.81229 9.33048L3.54879 9.73623C3.52024 9.78018 3.50063 9.82931 3.49107 9.88084C3.48151 9.93236 3.48219 9.98526 3.49308 10.0365C3.50397 10.0878 3.52485 10.1364 3.55453 10.1796C3.5842 10.2228 3.6221 10.2597 3.66604 10.2882L7.66204 12.8832C7.72642 12.9253 7.80164 12.9477 7.87854 12.9477C7.90669 12.9477 7.93476 12.9448 7.96229 12.939C8.01362 12.9283 8.0623 12.9074 8.10552 12.8777C8.14874 12.848 8.18562 12.8101 8.21404 12.766L8.47729 12.3602C8.53351 12.2743 8.55417 12.1699 8.53491 12.069C8.51565 11.9681 8.45797 11.8787 8.37404 11.8195C8.60605 11.4086 8.7583 10.9576 8.82279 10.4902C8.86167 10.0556 8.81548 9.61748 8.68679 9.20048C8.61004 8.88173 8.52329 8.52048 8.60879 8.38873C8.69429 8.25698 9.05979 8.18948 9.38204 8.12973C9.82097 8.07653 10.2451 7.9372 10.63 7.71973C11.0256 7.47263 11.371 7.15313 11.648 6.77798C11.7084 6.81451 11.7775 6.83419 11.848 6.83498C11.8762 6.83498 11.9043 6.83205 11.9318 6.82623C11.9831 6.8155 12.0318 6.79468 12.075 6.76498C12.1182 6.73529 12.1551 6.6973 12.1835 6.65323L12.447 6.24748C12.4757 6.20359 12.4953 6.15446 12.5049 6.10292C12.5144 6.05138 12.5136 5.99846 12.5025 5.94723ZM7.84954 12.4087L4.02304 9.92398L4.17679 9.68773L4.27904 9.75423L4.60979 9.96923L8.00304 12.1727L7.84954 12.4087ZM10.3428 7.31048C10.0159 7.48466 9.65907 7.59576 9.29104 7.63798C8.82879 7.72373 8.39204 7.80448 8.18954 8.11648C7.98704 8.42823 8.09079 8.86023 8.20054 9.31748C8.31311 9.67646 8.3558 10.0537 8.32629 10.4287C8.27197 10.8206 8.14631 11.1992 7.95554 11.5457L4.76854 9.47573C5.0116 9.1562 5.31144 8.88416 5.65304 8.67323C5.97998 8.49906 6.33677 8.38796 6.70479 8.34573C7.16704 8.26023 7.60379 8.17948 7.80629 7.86748C8.00879 7.55548 7.90504 7.12373 7.79529 6.66648C7.68263 6.30736 7.63995 5.92995 7.66954 5.55473C7.72387 5.16304 7.84953 4.78462 8.04029 4.43823L9.63379 5.47323L11.227 6.50798C10.984 6.82744 10.6843 7.09947 10.3428 7.31048ZM11.8193 6.29623L10.155 5.21548L8.09504 3.87798L8.09454 3.87748L7.99279 3.81148L8.14629 3.57498L11.9725 6.05998L11.8193 6.29623Z" fill="#1E866F"/>
</svg>
