<svg width="16" height="16" viewBox="0 0 16 16" fill="none" xmlns="http://www.w3.org/2000/svg">
<path d="M8 14.9688C6.62171 14.9688 5.27438 14.56 4.12837 13.7943C2.98237 13.0286 2.08917 11.9402 1.56172 10.6668C1.03427 9.39346 0.896265 7.99227 1.16516 6.64047C1.43405 5.28866 2.09776 4.04695 3.07235 3.07235C4.04695 2.09776 5.28866 1.43405 6.64047 1.16516C7.99227 0.896265 9.39346 1.03427 10.6668 1.56172C11.9402 2.08917 13.0286 2.98237 13.7943 4.12837C14.56 5.27438 14.9688 6.62171 14.9688 8C14.9666 9.84758 14.2318 11.6189 12.9253 12.9253C11.6189 14.2318 9.84758 14.9666 8 14.9688ZM8 1.53125C6.72061 1.53125 5.46994 1.91064 4.40616 2.62143C3.34238 3.33223 2.51326 4.34251 2.02366 5.52452C1.53405 6.70653 1.40595 8.00718 1.65555 9.26199C1.90515 10.5168 2.52124 11.6694 3.42591 12.5741C4.33058 13.4788 5.4832 14.0949 6.73801 14.3445C7.99283 14.5941 9.29348 14.466 10.4755 13.9763C11.6575 13.4867 12.6678 12.6576 13.3786 11.5938C14.0894 10.5301 14.4688 9.2794 14.4688 8C14.4668 6.28497 13.7847 4.64074 12.572 3.42803C11.3593 2.21532 9.71503 1.53317 8 1.53125Z" fill="#1E866F"/>
<path d="M7.99994 3.64075C7.93363 3.64075 7.87004 3.61441 7.82316 3.56753C7.77628 3.52064 7.74994 3.45705 7.74994 3.39075V2.49225C7.74994 2.42594 7.77628 2.36236 7.82316 2.31547C7.87004 2.26859 7.93363 2.24225 7.99994 2.24225C8.06624 2.24225 8.12983 2.26859 8.17671 2.31547C8.2236 2.36236 8.24994 2.42594 8.24994 2.49225V3.39075C8.24994 3.45705 8.2236 3.52064 8.17671 3.56753C8.12983 3.61441 8.06624 3.64075 7.99994 3.64075ZM5.69544 4.25825C5.65151 4.25829 5.60835 4.24676 5.5703 4.22482C5.53225 4.20287 5.50065 4.17129 5.47869 4.13325L5.02944 3.355C4.99629 3.29755 4.98731 3.22928 5.0045 3.16521C5.02168 3.10114 5.06361 3.04653 5.12106 3.01337C5.17852 2.98022 5.24678 2.97125 5.31085 2.98843C5.37492 3.00562 5.42954 3.04755 5.46269 3.105L5.91169 3.88325C5.93362 3.92123 5.94517 3.96432 5.94518 4.00818C5.94519 4.05205 5.93366 4.09514 5.91175 4.13314C5.88984 4.17113 5.85832 4.2027 5.82035 4.22466C5.78238 4.24662 5.7393 4.2582 5.69544 4.25825ZM4.00794 5.94525C3.96405 5.94528 3.92093 5.93373 3.88294 5.91175L3.10494 5.46275C3.04749 5.4296 3.00556 5.37498 2.98837 5.31091C2.97119 5.24685 2.98016 5.17858 3.01331 5.12112C3.04646 5.06367 3.10108 5.02174 3.16515 5.00456C3.22922 4.98738 3.29748 4.99635 3.35494 5.0295L4.13319 5.47875C4.18086 5.50628 4.21812 5.54877 4.23917 5.59964C4.26023 5.65051 4.2639 5.70691 4.24963 5.76008C4.23535 5.81325 4.20392 5.86022 4.16022 5.8937C4.11652 5.92718 4.06299 5.9453 4.00794 5.94525ZM3.39069 8.25H2.49219C2.42588 8.25 2.36229 8.22366 2.31541 8.17678C2.26853 8.12989 2.24219 8.0663 2.24219 8C2.24219 7.93369 2.26853 7.87011 2.31541 7.82322C2.36229 7.77634 2.42588 7.75 2.49219 7.75H3.39069C3.45699 7.75 3.52058 7.77634 3.56746 7.82322C3.61435 7.87011 3.64069 7.93369 3.64069 8C3.64069 8.0663 3.61435 8.12989 3.56746 8.17678C3.52058 8.22366 3.45699 8.25 3.39069 8.25ZM3.23019 11.004C3.17508 11.0041 3.12148 10.986 3.07773 10.9525C3.03398 10.9189 3.00253 10.8719 2.98827 10.8187C2.97402 10.7654 2.97775 10.709 2.99889 10.6581C3.02004 10.6072 3.05741 10.5647 3.10519 10.5372L3.88319 10.0882C3.91163 10.0716 3.94309 10.0607 3.97576 10.0562C4.00842 10.0518 4.04165 10.0538 4.07352 10.0622C4.1054 10.0707 4.13529 10.0853 4.16148 10.1053C4.18767 10.1254 4.20964 10.1504 4.22613 10.1789C4.24261 10.2075 4.25329 10.239 4.25754 10.2717C4.26179 10.3044 4.25953 10.3376 4.25089 10.3694C4.24225 10.4012 4.2274 10.431 4.2072 10.4571C4.187 10.4831 4.16185 10.505 4.13319 10.5212L3.35494 10.9705C3.31702 10.9924 3.27399 11.004 3.23019 11.004ZM5.24569 13.02C5.20183 13.02 5.15875 13.0084 5.12078 12.9864C5.08281 12.9644 5.05129 12.9329 5.02937 12.8949C5.00746 12.8569 4.99593 12.8138 4.99594 12.7699C4.99596 12.7261 5.00751 12.683 5.02944 12.645L5.47869 11.8667C5.49498 11.8381 5.51679 11.8129 5.54284 11.7927C5.5689 11.7725 5.5987 11.7577 5.63051 11.749C5.66233 11.7404 5.69555 11.7381 5.72824 11.7424C5.76094 11.7466 5.79247 11.7573 5.82102 11.7738C5.84957 11.7903 5.87458 11.8123 5.89461 11.8385C5.91464 11.8646 5.92929 11.8945 5.93771 11.9264C5.94614 11.9583 5.94818 11.9915 5.94371 12.0242C5.93925 12.0568 5.92836 12.0883 5.91169 12.1167L5.46269 12.895C5.4407 12.9331 5.40907 12.9647 5.37097 12.9866C5.33287 13.0086 5.28966 13.0201 5.24569 13.02ZM7.99994 13.7577C7.93363 13.7577 7.87004 13.7314 7.82316 13.6845C7.77628 13.6376 7.74994 13.5741 7.74994 13.5077V12.6095C7.74994 12.5432 7.77628 12.4796 7.82316 12.4327C7.87004 12.3858 7.93363 12.3595 7.99994 12.3595C8.06624 12.3595 8.12983 12.3858 8.17671 12.4327C8.2236 12.4796 8.24994 12.5432 8.24994 12.6095V13.5077C8.24994 13.5741 8.2236 13.6376 8.17671 13.6845C8.12983 13.7314 8.06624 13.7577 7.99994 13.7577ZM10.7542 13.02C10.7102 13.0201 10.667 13.0086 10.6289 12.9866C10.5908 12.9647 10.5592 12.9331 10.5372 12.895L10.0882 12.1167C10.0715 12.0883 10.0606 12.0568 10.0562 12.0242C10.0517 11.9915 10.0537 11.9583 10.0622 11.9264C10.0706 11.8945 10.0852 11.8646 10.1053 11.8385C10.1253 11.8123 10.1503 11.7903 10.1789 11.7738C10.2074 11.7573 10.2389 11.7466 10.2716 11.7424C10.3043 11.7381 10.3375 11.7404 10.3694 11.749C10.4012 11.7577 10.431 11.7725 10.457 11.7927C10.4831 11.8129 10.5049 11.8381 10.5212 11.8667L10.9704 12.645C10.9924 12.683 11.0039 12.7261 11.0039 12.7699C11.0039 12.8138 10.9924 12.8569 10.9705 12.8949C10.9486 12.9329 10.9171 12.9644 10.8791 12.9864C10.8411 13.0084 10.798 13.02 10.7542 13.02ZM12.7697 11.004C12.7258 11.004 12.6827 10.9925 12.6447 10.9705L11.8667 10.5212C11.838 10.505 11.8129 10.4831 11.7927 10.4571C11.7725 10.431 11.7576 10.4012 11.749 10.3694C11.7403 10.3376 11.7381 10.3044 11.7423 10.2717C11.7466 10.239 11.7573 10.2075 11.7737 10.1789C11.7902 10.1504 11.8122 10.1254 11.8384 10.1053C11.8646 10.0853 11.8945 10.0707 11.9264 10.0622C11.9582 10.0538 11.9915 10.0518 12.0241 10.0562C12.0568 10.0607 12.0882 10.0716 12.1167 10.0882L12.8949 10.5372C12.9427 10.5647 12.9801 10.6072 13.0013 10.6581C13.0224 10.7091 13.0261 10.7655 13.0118 10.8188C12.9975 10.872 12.966 10.9191 12.9222 10.9526C12.8785 10.9861 12.8248 11.0041 12.7697 11.004ZM13.5077 8.25H12.6094C12.5431 8.25 12.4795 8.22366 12.4327 8.17678C12.3858 8.12989 12.3594 8.0663 12.3594 8C12.3594 7.93369 12.3858 7.87011 12.4327 7.82322C12.4795 7.77634 12.5431 7.75 12.6094 7.75H13.5077C13.574 7.75 13.6376 7.77634 13.6845 7.82322C13.7313 7.87011 13.7577 7.93369 13.7577 8C13.7577 8.0663 13.7313 8.12989 13.6845 8.17678C13.6376 8.22366 13.574 8.25 13.5077 8.25ZM11.9919 5.94525C11.9369 5.94525 11.8834 5.92709 11.8398 5.89358C11.7961 5.86008 11.7647 5.81311 11.7505 5.75995C11.7362 5.7068 11.7399 5.65043 11.761 5.59958C11.782 5.54874 11.8193 5.50627 11.8669 5.47875L12.6449 5.0295C12.7024 4.99635 12.7707 4.98738 12.8347 5.00456C12.8988 5.02174 12.9534 5.06367 12.9866 5.12112C13.0197 5.17858 13.0287 5.24685 13.0115 5.31091C12.9943 5.37498 12.9524 5.4296 12.8949 5.46275L12.1167 5.91175C12.0788 5.93368 12.0357 5.94524 11.9919 5.94525ZM10.3044 4.25825C10.2606 4.2582 10.2175 4.24662 10.1795 4.22466C10.1416 4.2027 10.11 4.17113 10.0881 4.13314C10.0662 4.09514 10.0547 4.05205 10.0547 4.00818C10.0547 3.96432 10.0663 3.92123 10.0882 3.88325L10.5372 3.105C10.5703 3.04755 10.625 3.00562 10.689 2.98843C10.7531 2.97125 10.8214 2.98022 10.8788 3.01337C10.9363 3.04653 10.9782 3.10114 10.9954 3.16521C11.0126 3.22928 11.0036 3.29755 10.9704 3.355L10.5212 4.13325C10.4992 4.17129 10.4676 4.20287 10.4296 4.22482C10.3915 4.24676 10.3484 4.25829 10.3044 4.25825ZM10.3047 8.25H7.99994C7.93363 8.25 7.87004 8.22366 7.82316 8.17678C7.77628 8.12989 7.74994 8.0663 7.74994 8V4.5C7.74994 4.43369 7.77628 4.37011 7.82316 4.32322C7.87004 4.27634 7.93363 4.25 7.99994 4.25C8.06624 4.25 8.12983 4.27634 8.17671 4.32322C8.2236 4.37011 8.24994 4.43369 8.24994 4.5V7.75H10.3047C10.371 7.75 10.4346 7.77634 10.4815 7.82322C10.5283 7.87011 10.5547 7.93369 10.5547 8C10.5547 8.0663 10.5283 8.12989 10.4815 8.17678C10.4346 8.22366 10.371 8.25 10.3047 8.25Z" fill="#1E866F"/>
</svg>
