<svg width="16" height="16" viewBox="0 0 16 16" fill="none" xmlns="http://www.w3.org/2000/svg">
<path d="M5.69288 2.72498C5.44565 2.72498 5.20398 2.79829 4.99842 2.93564C4.79286 3.07299 4.63264 3.26821 4.53803 3.49662C4.44342 3.72503 4.41867 3.97636 4.4669 4.21884C4.51513 4.46131 4.63418 4.68404 4.809 4.85886C4.98381 5.03367 5.20654 5.15273 5.44902 5.20096C5.69149 5.24919 5.94283 5.22443 6.17123 5.12983C6.39964 5.03522 6.59486 4.875 6.73222 4.66944C6.86957 4.46388 6.94288 4.2222 6.94288 3.97498C6.94189 3.64376 6.80988 3.32639 6.57567 3.09219C6.34146 2.85798 6.0241 2.72596 5.69288 2.72498ZM5.69288 4.72498C5.54454 4.72498 5.39954 4.68099 5.2762 4.59858C5.15287 4.51617 5.05674 4.39903 4.99997 4.26199C4.9432 4.12494 4.92835 3.97414 4.95729 3.82866C4.98623 3.68317 5.05766 3.54954 5.16255 3.44465C5.26744 3.33976 5.40108 3.26833 5.54656 3.23939C5.69205 3.21045 5.84285 3.2253 5.97989 3.28207C6.11694 3.33883 6.23407 3.43496 6.31648 3.5583C6.39889 3.68163 6.44288 3.82664 6.44288 3.97498C6.44288 4.17389 6.36386 4.36465 6.22321 4.50531C6.08256 4.64596 5.89179 4.72498 5.69288 4.72498ZM5.69288 5.62998C5.08638 5.62557 4.50143 5.85469 4.05927 6.26986C3.61711 6.68502 3.35164 7.2544 3.31788 7.85998C3.31532 7.90694 3.32268 7.95392 3.33948 7.99786C3.35627 8.04179 3.38214 8.0817 3.41538 8.11498C3.4477 8.14961 3.48679 8.17724 3.53022 8.19616C3.57365 8.21508 3.62051 8.22489 3.66788 8.22498H7.72038C7.76775 8.22489 7.81461 8.21508 7.85804 8.19616C7.90147 8.17724 7.94056 8.14961 7.97288 8.11498C8.00531 8.08123 8.03047 8.04118 8.04681 7.99732C8.06315 7.95346 8.07032 7.90672 8.06788 7.85998C8.0349 7.25412 7.76968 6.68428 7.32734 6.26895C6.88501 5.85362 6.29961 5.62477 5.69288 5.62998ZM3.83288 7.72498C3.90177 7.28078 4.12725 6.87586 4.46859 6.58338C4.80993 6.29089 5.24462 6.13013 5.69413 6.13013C6.14364 6.13013 6.57833 6.29089 6.91967 6.58338C7.26101 6.87586 7.48649 7.28078 7.55538 7.72498H3.83288Z" fill="#1E866F"/>
<path d="M14.4779 12.7875L10.9629 9.27247C10.8924 9.20249 10.7972 9.16299 10.6979 9.16247C10.5984 9.16256 10.5031 9.20213 10.4329 9.27247L10.0479 9.65747L9.07536 8.68497C9.85009 7.80052 10.2492 6.64873 10.1879 5.47454C10.1266 4.30036 9.60965 3.19641 8.74701 2.39746C7.88436 1.59852 6.74408 1.1676 5.56864 1.19636C4.39321 1.22511 3.27536 1.71127 2.45281 2.55144C1.63027 3.39161 1.16792 4.51952 1.16409 5.6953C1.16026 6.87108 1.61525 8.00197 2.4323 8.84749C3.24935 9.693 4.36401 10.1864 5.53923 10.2228C6.71446 10.2593 7.85752 9.83578 8.72536 9.04247L9.69536 10.01L9.30536 10.4C9.27032 10.4346 9.24249 10.4759 9.22351 10.5214C9.20452 10.5669 9.19475 10.6157 9.19475 10.665C9.19475 10.7143 9.20452 10.7631 9.22351 10.8086C9.24249 10.854 9.27032 10.8953 9.30536 10.93L12.8204 14.445C12.9246 14.5496 13.0485 14.6326 13.185 14.6892C13.3214 14.7459 13.4676 14.775 13.6154 14.775C13.7631 14.775 13.9093 14.7459 14.0458 14.6892C14.1822 14.6326 14.3061 14.5496 14.4104 14.445L14.4779 14.38C14.5825 14.2755 14.6656 14.1514 14.7223 14.0147C14.7789 13.8781 14.8081 13.7316 14.8081 13.5837C14.8081 13.4358 14.7789 13.2893 14.7223 13.1527C14.6656 13.0161 14.5825 12.892 14.4779 12.7875ZM5.69286 9.72497C4.90173 9.72497 4.12837 9.49038 3.47058 9.05085C2.81278 8.61133 2.30009 7.98661 1.99734 7.25571C1.69459 6.5248 1.61537 5.72054 1.76972 4.94461C1.92406 4.16869 2.30502 3.45596 2.86443 2.89655C3.42384 2.33714 4.13657 1.95617 4.9125 1.80183C5.68842 1.64749 6.49269 1.7267 7.22359 2.02946C7.95449 2.33221 8.57921 2.8449 9.01873 3.50269C9.45826 4.16049 9.69286 4.93385 9.69286 5.72497C9.69147 6.78541 9.26959 7.80202 8.51975 8.55187C7.76991 9.30171 6.7533 9.72358 5.69286 9.72497ZM14.1229 14.025L14.0579 14.0925C13.9401 14.209 13.781 14.2743 13.6154 14.2743C13.4497 14.2743 13.2907 14.209 13.1729 14.0925L9.74786 10.665L10.6979 9.71497L14.1229 13.1425C14.1814 13.2001 14.228 13.2687 14.2597 13.3445C14.2915 13.4203 14.3078 13.5016 14.3078 13.5837C14.3078 13.6659 14.2915 13.7472 14.2597 13.823C14.228 13.8987 14.1814 13.9674 14.1229 14.025Z" fill="#1E866F"/>
</svg>
