<svg width="16" height="16" viewBox="0 0 16 16" fill="none" xmlns="http://www.w3.org/2000/svg">
<path d="M6.71557 7.41754C6.10025 7.41754 5.49875 7.23507 4.98713 6.89322C4.47551 6.55137 4.07675 6.06548 3.84128 5.497C3.60581 4.92851 3.5442 4.30297 3.66424 3.69948C3.78428 3.09598 4.08059 2.54163 4.51568 2.10654C4.95078 1.67144 5.50513 1.37514 6.10862 1.25509C6.71212 1.13505 7.33766 1.19666 7.90614 1.43213C8.47462 1.66761 8.96051 2.06636 9.30237 2.57798C9.64422 3.0896 9.82668 3.69111 9.82668 4.30642C9.82668 5.13154 9.4989 5.92287 8.91546 6.50631C8.33201 7.08976 7.54069 7.41754 6.71557 7.41754ZM6.71557 2.11976C6.27606 2.11976 5.84641 2.25009 5.48097 2.49427C5.11553 2.73845 4.8307 3.08551 4.6625 3.49157C4.49431 3.89763 4.4503 4.34445 4.53605 4.77551C4.62179 5.20658 4.83344 5.60255 5.14422 5.91333C5.45501 6.22411 5.85097 6.43576 6.28204 6.5215C6.71311 6.60725 7.15992 6.56324 7.56598 6.39505C7.97204 6.22685 8.3191 5.94202 8.56328 5.57658C8.80746 5.21114 8.93779 4.78149 8.93779 4.34198C8.93779 4.05015 8.88031 3.76119 8.76864 3.49157C8.65696 3.22196 8.49327 2.97698 8.28692 2.77063C8.08057 2.56428 7.83559 2.40059 7.56598 2.28892C7.29637 2.17724 7.0074 2.11976 6.71557 2.11976ZM9.19113 7.95531C6.78598 7.41411 4.2698 7.67478 2.02668 8.69754C1.71819 8.84489 1.45791 9.07686 1.27615 9.36642C1.09439 9.65598 0.998625 9.99121 1.00001 10.3331V12.9775C1.00001 13.0359 1.01151 13.0937 1.03385 13.1476C1.05618 13.2015 1.08892 13.2505 1.13019 13.2918C1.17146 13.3331 1.22046 13.3658 1.27438 13.3882C1.3283 13.4105 1.38609 13.422 1.44446 13.422C1.50282 13.422 1.56062 13.4105 1.61454 13.3882C1.66846 13.3658 1.71746 13.3331 1.75873 13.2918C1.8 13.2505 1.83274 13.2015 1.85507 13.1476C1.87741 13.0937 1.8889 13.0359 1.8889 12.9775V10.3331C1.88503 10.1601 1.93176 9.98968 2.02334 9.84284C2.11492 9.69599 2.24738 9.57907 2.40446 9.50642C3.75569 8.88252 5.22727 8.56241 6.71557 8.56865C7.54949 8.56758 8.38055 8.66606 9.19113 8.86198V7.95531ZM9.25335 12.182H11.9822V12.8042H9.25335V12.182Z" fill="#1E866F"/>
<path d="M14.1555 9.54309H11.8577V10.432H13.7111V14.152H7.4133V10.432H10.2133V10.6186C10.2133 10.7365 10.2601 10.8496 10.3435 10.9329C10.4268 11.0163 10.5399 11.0631 10.6577 11.0631C10.7756 11.0631 10.8887 11.0163 10.972 10.9329C11.0554 10.8496 11.1022 10.7365 11.1022 10.6186V8.88976C11.1022 8.77188 11.0554 8.65884 10.972 8.57549C10.8887 8.49214 10.7756 8.44531 10.6577 8.44531C10.5399 8.44531 10.4268 8.49214 10.3435 8.57549C10.2601 8.65884 10.2133 8.77188 10.2133 8.88976V9.54309H6.96886C6.85098 9.54309 6.73794 9.58992 6.65459 9.67327C6.57124 9.75661 6.52441 9.86966 6.52441 9.98753V14.5964C6.52441 14.7143 6.57124 14.8273 6.65459 14.9107C6.73794 14.994 6.85098 15.0409 6.96886 15.0409H14.1555C14.2734 15.0409 14.3864 14.994 14.4698 14.9107C14.5531 14.8273 14.6 14.7143 14.6 14.5964V9.98753C14.6 9.86966 14.5531 9.75661 14.4698 9.67327C14.3864 9.58992 14.2734 9.54309 14.1555 9.54309Z" fill="#1E866F"/>
</svg>
