<svg width="11" height="16" viewBox="0 0 11 16" fill="none" xmlns="http://www.w3.org/2000/svg">
<g clip-path="url(#clip0_4536_770)">
<path d="M9.9001 13.4821V15.5691H1.1001V13.4821C1.1001 12.8928 1.27197 12.314 1.59166 11.8229L4.03228 8.08729L1.59166 4.35164C1.27197 3.86057 1.1001 3.28181 1.1001 2.68901V0.605469H9.9001V2.69252C9.9001 3.28181 9.72822 3.86057 9.40854 4.35164L6.96791 8.08729L9.40854 11.8229C9.72822 12.314 9.9001 12.8928 9.9001 13.4821Z" fill="white"/>
<path d="M3.30005 14.0757V13.5776C3.30005 12.9287 3.5063 12.3009 3.88786 11.7817L5.50005 9.58594L7.11224 11.7817C7.4938 12.2974 7.70005 12.9287 7.70005 13.5741V14.0722H3.30005V14.0757Z" fill="#FF9900"/>
<path d="M0.732188 13.4824V15.1976H0.367813C0.165 15.1976 0 15.366 0 15.5729C0 15.7799 0.165 15.9448 0.367813 15.9448H10.6356C10.8384 15.9448 11.0034 15.7764 11.0034 15.5694C11.0034 15.3625 10.8384 15.1941 10.6356 15.1941H10.2678V13.4789C10.2678 12.8124 10.0753 12.167 9.71438 11.6128L7.40781 8.08761L9.71438 4.55891C10.0753 4.0047 10.2678 3.35579 10.2678 2.69284V0.977599H10.6356C10.8384 0.977599 11.0034 0.809232 11.0034 0.60228C11.0034 0.395328 10.835 0.230469 10.6322 0.230469H0.367813C0.165 0.230469 0 0.398836 0 0.605788C0 0.812739 0.165 0.981107 0.367813 0.981107H0.735625V2.69635C0.735625 3.3628 0.928125 4.00821 1.28906 4.56242L3.59219 8.08761L1.28906 11.6163C0.924688 12.167 0.732188 12.8194 0.732188 13.4824ZM1.46781 13.4824C1.46781 12.9632 1.61563 12.4617 1.8975 12.0302L4.33812 8.29456C4.42063 8.16829 4.42063 8.00694 4.33812 7.88066L1.8975 4.14501C1.61563 3.71357 1.46781 3.20847 1.46781 2.69284V0.977599H9.53563V2.69284C9.53563 3.21197 9.38781 3.71357 9.10594 4.14501L6.66531 7.88066C6.58281 8.00694 6.58281 8.16829 6.66531 8.29456L9.10594 12.0302C9.38781 12.4617 9.53563 12.9632 9.53563 13.4824V15.1976H1.46781V13.4824ZM5.79219 9.36089C5.65812 9.19603 5.42094 9.17148 5.25594 9.30828C5.23531 9.32581 5.21812 9.34335 5.20437 9.36089L3.59219 11.5567C3.16594 12.1354 2.93219 12.851 2.93219 13.5771V14.0752C2.93219 14.2821 3.09719 14.4505 3.3 14.4505H7.7C7.90281 14.4505 8.06781 14.2821 8.06781 14.0752V13.5771C8.06781 12.8545 7.83406 12.1354 7.40781 11.5567L5.79219 9.36089ZM7.33219 13.6999H3.66781V13.5736C3.66781 13.0124 3.85 12.4546 4.18 12.0022L5.5 10.2062L6.82 12.0022C7.15 12.4546 7.33219 13.0124 7.33219 13.5736V13.6999Z" fill="#1E866F"/>
</g>
<defs>
<clipPath id="clip0_4536_770">
<rect width="11" height="15.7143" fill="white" transform="translate(0 0.230469)"/>
</clipPath>
</defs>
</svg>
