<svg width="54" height="49" viewBox="0 0 54 49" fill="none" xmlns="http://www.w3.org/2000/svg">
<path d="M52.8398 35.9789L34.541 4.34737C32.9906 1.66316 30.1008 0 27 0C23.8992 0 21.0094 1.66316 19.459 4.34737L1.16016 35.9789C0.400781 37.3053 0 38.8 0 40.3158C0 45.1053 3.90234 49 8.70117 49H45.2988C50.0977 49 54 45.1053 54 40.3158C54 38.8 53.5992 37.3053 52.8398 35.9789ZM45.2988 47.4211H8.70117C4.77773 47.4211 1.58203 44.2316 1.58203 40.3158C1.58203 39.0737 1.90898 37.8526 2.53125 36.7684L20.8301 5.13684C22.1063 2.94737 24.4688 1.57895 27 1.57895C29.5312 1.57895 31.8937 2.94737 33.1699 5.13684L51.4688 36.7684C52.091 37.8421 52.418 39.0737 52.418 40.3158C52.418 44.2316 49.2223 47.4211 45.2988 47.4211Z" fill="#FF9900"/>
<path d="M49.1801 38.0846L30.8812 6.45304C30.0797 5.0741 28.5926 4.21094 27 4.21094C25.4074 4.21094 23.9203 5.0741 23.1187 6.45304L14.7551 20.9057C14.5441 21.2846 14.6707 21.7688 15.0504 21.9794C15.4301 22.1899 15.9047 22.0636 16.1262 21.6951L24.4898 7.24252C25.0066 6.34778 25.9664 5.78988 27 5.78988C28.0336 5.78988 28.9934 6.34778 29.5102 7.24252L47.809 38.8741C48.0621 39.3162 48.1992 39.8004 48.1992 40.3162C48.1992 41.9162 46.902 43.2109 45.2988 43.2109H8.70117C7.09805 43.2109 5.80078 41.9162 5.80078 40.3162C5.80078 39.8004 5.92734 39.3162 6.19102 38.8741L14.5547 24.4215C14.7762 24.0425 14.6391 23.5583 14.2699 23.3478C13.8902 23.1267 13.4051 23.2636 13.1941 23.632L4.81992 38.0846C4.41914 38.7688 4.21875 39.5162 4.21875 40.3162C4.21875 42.7794 6.2332 44.7899 8.70117 44.7899H45.2988C47.7668 44.7899 49.7812 42.7794 49.7812 40.3162C49.7812 39.5267 49.5809 38.7688 49.1801 38.0846Z" fill="#FF9900"/>
<path d="M27 11.1055C25.1121 11.1055 23.5723 12.6423 23.5723 14.5265V28.737C23.5723 30.6213 25.1121 32.1581 27 32.1581C28.8879 32.1581 30.4277 30.6213 30.4277 28.737V14.5265C30.4277 12.6423 28.8879 11.1055 27 11.1055ZM28.8457 28.737C28.8457 29.7476 28.0125 30.5792 27 30.5792C25.9875 30.5792 25.1543 29.7476 25.1543 28.737V14.5265C25.1543 13.516 25.9875 12.6844 27 12.6844C28.0125 12.6844 28.8457 13.516 28.8457 14.5265V28.737ZM27 33.737C25.1121 33.737 23.5723 35.2739 23.5723 37.1581C23.5723 39.0423 25.1121 40.5792 27 40.5792C28.8879 40.5792 30.4277 39.0423 30.4277 37.1581C30.4277 35.2739 28.8879 33.737 27 33.737ZM27 39.0002C25.9875 39.0002 25.1543 38.1686 25.1543 37.1581C25.1543 36.1476 25.9875 35.316 27 35.316C28.0125 35.316 28.8457 36.1476 28.8457 37.1581C28.8457 38.1686 28.0125 39.0002 27 39.0002Z" fill="#FF9900"/>
</svg>
