<svg width="16" height="16" viewBox="0 0 16 16" fill="none" xmlns="http://www.w3.org/2000/svg">
<path d="M7.34389 12.6725C7.34404 12.8173 7.29702 12.9583 7.20996 13.074C7.1229 13.1897 7.00052 13.2739 6.86133 13.3139C6.72215 13.3539 6.57373 13.3475 6.43851 13.2956C6.3033 13.2438 6.18864 13.1493 6.11189 13.0265L4.31989 11.2345C4.19489 11.1094 4.12469 10.9398 4.12476 10.7629C4.12482 10.5861 4.19513 10.4165 4.32022 10.2915C4.44532 10.1665 4.61495 10.0963 4.79179 10.0964C4.96864 10.0964 5.13822 10.1667 5.26322 10.2918L6.00989 11.0392L6.00989 6.00584C6.00989 5.82903 6.08013 5.65946 6.20515 5.53444C6.33018 5.40941 6.49975 5.33917 6.67656 5.33917C6.85337 5.33917 7.02294 5.40941 7.14796 5.53444C7.27299 5.65946 7.34322 5.82903 7.34322 6.00584L7.34389 12.6725ZM8.65589 3.32984C8.65575 3.18502 8.70276 3.0441 8.78982 2.92837C8.87689 2.81265 8.99926 2.72842 9.13845 2.68843C9.27763 2.64844 9.42606 2.65485 9.56127 2.70671C9.69649 2.75856 9.81114 2.85303 9.88789 2.97584L11.6799 4.76784C11.7418 4.82978 11.7909 4.90331 11.8244 4.98422C11.8578 5.06513 11.8751 5.15184 11.875 5.23941C11.875 5.32697 11.8577 5.41368 11.8242 5.49457C11.7906 5.57545 11.7415 5.64894 11.6796 5.71084C11.6176 5.77274 11.5441 5.82183 11.4632 5.85531C11.3823 5.88879 11.2956 5.90601 11.208 5.90598C11.1204 5.90594 11.0337 5.88867 10.9528 5.85513C10.8719 5.82159 10.7985 5.77245 10.7366 5.71051L9.98989 4.96317V9.99651C9.98989 10.1733 9.91965 10.3429 9.79463 10.4679C9.66961 10.5929 9.50004 10.6632 9.32322 10.6632C9.14641 10.6632 8.97684 10.5929 8.85182 10.4679C8.7268 10.3429 8.65656 10.1733 8.65656 9.99651L8.65589 3.32984Z" fill="#FF9900"/>
</svg>
