<svg width="21" height="26" viewBox="0 0 21 26" fill="none" xmlns="http://www.w3.org/2000/svg">
<path d="M10.5153 24.4669H2C1.44772 24.4669 1 24.0192 1 23.4669V4.54688C1 3.99459 1.44772 3.54688 2 3.54688H16.3933C16.9456 3.54688 17.3933 3.99459 17.3933 4.54687V14.488" stroke="black" stroke-width="0.7" stroke-linecap="round"/>
<path d="M9.44201 1.00698C10.0436 1.00157 10.4094 1.33593 10.6197 1.73084C10.8718 2.20432 11.2902 2.65085 11.8266 2.65085H12.3256C12.8779 2.65085 13.3256 3.09856 13.3256 3.65085V4.14566C13.3256 4.69794 12.8779 5.14566 12.3256 5.14566H6.27148C5.7192 5.14566 5.27148 4.69794 5.27148 4.14566V3.65085C5.27148 3.09856 5.7192 2.65085 6.27148 2.65085H6.78651C7.31643 2.65085 7.71171 2.21111 7.95629 1.74102C8.27341 1.13149 8.84675 0.983364 9.22693 1.00143C9.29858 1.00483 9.37028 1.00762 9.44201 1.00698Z" fill="white" stroke="black" stroke-width="0.7" stroke-linecap="round"/>
<path d="M11.4809 18.7015L11.5069 18.6469C11.6214 18.4064 11.6167 18.1262 11.4941 17.8897L11.4834 17.8691C11.3076 17.5301 11.3657 17.1169 11.6281 16.8395L11.9685 16.4797C12.2451 16.1872 12.6834 16.1162 13.0382 16.3063L13.084 16.3308C13.3048 16.4491 13.5685 16.4556 13.7948 16.3484C13.9968 16.2527 14.1488 16.0759 14.213 15.8618L14.2321 15.7981C14.3512 15.4009 14.7168 15.1289 15.1315 15.1289H15.5783C15.9746 15.1289 16.3214 15.3954 16.4235 15.7783L16.428 15.7952C16.4957 16.049 16.6783 16.2565 16.9214 16.3559L16.9472 16.3665C17.181 16.4621 17.4464 16.4395 17.6606 16.3056C17.9635 16.1163 18.356 16.1554 18.6157 16.4006L18.9331 16.7005C19.248 16.9979 19.3431 17.4606 19.1708 17.8581L19.1416 17.9256C19.0477 18.1423 19.0472 18.3881 19.1402 18.6052L19.1583 18.6475C19.2567 18.8771 19.4604 19.0446 19.7046 19.097C20.0595 19.173 20.3131 19.4867 20.3131 19.8497V20.5708C20.3131 20.9247 20.0528 21.2247 19.7025 21.2747C19.4614 21.3092 19.2546 21.4647 19.1546 21.6869L19.14 21.7194C19.0476 21.9248 19.049 22.1602 19.1438 22.3645L19.1743 22.4302C19.3436 22.7948 19.2607 23.2269 18.9684 23.5029L18.6431 23.8101C18.3634 24.0743 17.9461 24.1299 17.607 23.9482L17.5492 23.9173C17.3172 23.793 17.0379 23.7951 16.8078 23.923C16.633 24.02 16.5026 24.1809 16.4438 24.372L16.4349 24.4011C16.3252 24.7576 15.9958 25.0009 15.6228 25.0009H15.0394C14.6763 25.0009 14.3532 24.7708 14.2344 24.4277C14.1565 24.2024 13.9877 24.0202 13.7691 23.9251L13.6704 23.8822C13.4338 23.7793 13.1617 23.7996 12.943 23.9363C12.6441 24.1231 12.2574 24.0873 11.9979 23.8488L11.6471 23.5264C11.3304 23.2354 11.2319 22.7762 11.4013 22.3809L11.4235 22.3292C11.5027 22.1442 11.5145 21.9372 11.4567 21.7445L11.446 21.7089C11.3745 21.4706 11.1943 21.2804 10.9602 21.1961C10.6489 21.084 10.4414 20.7887 10.4414 20.4579V19.798C10.4414 19.4633 10.6709 19.1723 10.9963 19.0942C11.2088 19.0432 11.387 18.8989 11.4809 18.7015Z" stroke="black" stroke-width="0.8" stroke-linecap="round"/>
<path d="M15.3945 17.7949C16.6585 17.7949 17.6835 18.82 17.6836 20.084C17.6836 21.3481 16.6586 22.373 15.3945 22.373C14.1305 22.373 13.1055 21.348 13.1055 20.084C13.1056 18.82 14.1306 17.795 15.3945 17.7949Z" stroke="black" stroke-width="0.8"/>
<path d="M3.06445 7.73438H15.3951" stroke="black" stroke-width="0.8" stroke-linecap="round"/>
<path d="M3.06445 10.1484H15.3951" stroke="black" stroke-width="0.8" stroke-linecap="round"/>
<path d="M3.06445 12.5625H15.3951" stroke="black" stroke-width="0.8" stroke-linecap="round"/>
<path d="M3.06445 14.9766H9.90689" stroke="black" stroke-width="0.8" stroke-linecap="round"/>
</svg>
