<svg width="36" height="38" viewBox="0 0 36 38" fill="none" xmlns="http://www.w3.org/2000/svg">
<path d="M31.8 19.0492L31.75 18.9992C31.6 18.8492 31.35 18.8492 31.15 18.9992L24.25 23.7992V19.3992C24.25 19.1992 24.15 19.0492 24 18.9992C23.85 18.8992 23.65 18.9492 23.5 19.0492L16.6 23.8492V19.4492C16.6 19.2492 16.5 19.0992 16.35 18.9992C16.2 18.8992 16 18.9492 15.85 19.0492L9.75 23.4492L10.7 36.9992C10.7 37.1992 10.7 37.3992 10.6 37.5992H31.4C31.65 37.5992 31.9 37.3992 31.9 37.0992V19.3492C31.95 19.2492 31.9 19.0992 31.8 19.0492ZM17.25 32.1492C17.25 32.3992 17.05 32.6492 16.75 32.6492H12.5C12.25 32.6492 12 32.4492 12 32.1492V28.8492C12 28.5992 12.2 28.3492 12.5 28.3492H16.75C17 28.3492 17.25 28.5492 17.25 28.8492V32.1492ZM23.6 32.1492C23.6 32.3992 23.4 32.6492 23.1 32.6492H18.85C18.6 32.6492 18.35 32.4492 18.35 32.1492V28.8492C18.35 28.5992 18.55 28.3492 18.85 28.3492H23.1C23.35 28.3492 23.6 28.5492 23.6 28.8492V32.1492ZM29.95 32.1492C29.95 32.3992 29.75 32.6492 29.45 32.6492H25.2C24.95 32.6492 24.7 32.4492 24.7 32.1492V28.8492C24.7 28.5992 24.9 28.3492 25.2 28.3492H29.45C29.7 28.3492 29.95 28.5492 29.95 28.8492V32.1492Z" fill="#1E866F"/>
<path d="M0.0498047 37L1.0998 22.75H7.7498L8.7498 37C8.7498 37.1 8.69981 37.25 8.5998 37.35C8.4998 37.45 8.3998 37.5 8.2498 37.5H0.549805C0.399805 37.5 0.299805 37.45 0.199805 37.35C0.0998048 37.25 0.0498047 37.15 0.0498047 37Z" fill="#FF9900"/>
<path d="M1.2998 19.5H7.4998L7.6498 21.8H1.1498L1.2998 19.5Z" fill="#FF9900"/>
<path d="M6.59981 13.25C6.84981 13.25 7.09981 13.45 7.09981 13.7L7.3998 18.55H1.3498L1.6998 13.7C1.7498 13.45 1.9498 13.25 2.1998 13.25H6.59981Z" fill="#FF9900"/>
<path d="M3.14981 11.5C3.14981 11.8 2.8998 12 2.6498 12C2.3998 12 2.1498 11.8 2.1498 11.5C2.1498 10.1 3.2498 8.45 4.5498 8.35L7.84981 7.65H7.9498C8.7998 7.6 9.4998 6.9 9.4998 6C9.4998 5.7 9.7498 5.5 9.9998 5.5C10.2998 5.5 10.4998 5.75 10.4998 6C10.4998 7.35 9.44981 8.5 8.0998 8.6L4.7998 9.3H4.6998C3.8998 9.35 3.14981 10.55 3.14981 11.5Z" fill="#FF9900"/>
<path d="M5.4998 13.2C5.1998 13.2 4.9998 12.95 4.9998 12.7C4.9998 11.35 6.0998 10.2 7.4998 10.1L10.7998 9.95C11.6498 9.9 12.3498 9.2 12.3498 8.3C12.3498 8 12.5998 7.8 12.8498 7.8C13.1498 7.8 13.3498 8.05 13.3498 8.3C13.3498 9.7 12.2498 10.85 10.8498 10.9L7.54981 11.05C6.69981 11.1 5.9998 11.8 5.9998 12.7C5.9998 13 5.7498 13.2 5.4998 13.2Z" fill="#FF9900"/>
<g filter="url(#filter0_d_12228_3963)">
<path fill-rule="evenodd" clip-rule="evenodd" d="M34.8107 8.65096C34.838 6.99684 34.3884 5.37053 33.5168 3.97105C32.6452 2.57158 31.3894 1.45966 29.9032 0.771368C28.417 0.0830775 26.7647 -0.151722 25.1487 0.0957061C23.5327 0.343134 22.023 1.06205 20.8044 2.16448C19.5857 3.26691 18.7111 4.70503 18.2874 6.30282C17.8637 7.90062 17.9093 9.58879 18.4188 11.1607C18.9283 12.7326 19.8794 14.1201 21.1558 15.1534C22.4322 16.1867 23.9785 16.8209 25.6055 16.9784C26.027 17.0175 26.8484 16.9947 27.2064 16.9784C29.2698 16.7957 31.192 15.8414 32.598 14.3017C34.0039 12.7621 34.7928 10.7475 34.8107 8.65096ZM21.6202 3.83943C20.3447 5.1094 19.6189 6.83963 19.6021 8.65056C19.6041 9.58211 19.798 10.5034 20.1714 11.3548C20.5449 12.2062 21.0896 12.9695 21.7709 13.5957L29.7526 2.75944C28.7302 2.17983 27.5778 1.87573 26.406 1.8763C24.6168 1.86345 22.8957 2.56946 21.6202 3.83943ZM23.0593 14.5417C24.0817 15.1213 25.2341 15.4254 26.406 15.4248C28.195 15.4377 29.916 14.7317 31.1916 13.4618C32.4671 12.1919 33.1929 10.4618 33.2098 8.65096C33.2079 7.71934 33.014 6.79837 32.6406 5.94688C32.2671 5.09539 31.7223 4.3321 31.041 3.70578L23.0593 14.5417Z" fill="#FF0000"/>
</g>
<defs>
<filter id="filter0_d_12228_3963" x="18" y="0" width="17.812" height="17" filterUnits="userSpaceOnUse" color-interpolation-filters="sRGB">
<feFlood flood-opacity="0" result="BackgroundImageFix"/>
<feColorMatrix in="SourceAlpha" type="matrix" values="0 0 0 0 0 0 0 0 0 0 0 0 0 0 0 0 0 0 127 0" result="hardAlpha"/>
<feOffset dx="1"/>
<feComposite in2="hardAlpha" operator="out"/>
<feColorMatrix type="matrix" values="0 0 0 0 0.6125 0 0 0 0 0.0588942 0 0 0 0 0.0588942 0 0 0 1 0"/>
<feBlend mode="normal" in2="BackgroundImageFix" result="effect1_dropShadow_12228_3963"/>
<feBlend mode="normal" in="SourceGraphic" in2="effect1_dropShadow_12228_3963" result="shape"/>
</filter>
</defs>
</svg>
