<svg width="16" height="14" viewBox="0 0 16 14" fill="none" xmlns="http://www.w3.org/2000/svg">
<path d="M4.49297 13.6333C3.7347 13.6335 2.9934 13.4088 2.36287 12.9876C1.73235 12.5664 1.24093 11.9676 0.950808 11.2671C0.660686 10.5665 0.584894 9.79559 0.733025 9.05193C0.881155 8.30826 1.24655 7.62525 1.78297 7.08931L7.43964 1.43198C7.53344 1.33818 7.66066 1.28548 7.79331 1.28548C7.92596 1.28548 8.05318 1.33818 8.14697 1.43198C8.24077 1.52578 8.29347 1.65299 8.29347 1.78564C8.29347 1.9183 8.24077 2.04551 8.14697 2.13931L2.48964 7.79598C2.21575 8.05662 1.9968 8.36944 1.84568 8.71601C1.69457 9.06259 1.61434 9.4359 1.60974 9.81396C1.60513 10.192 1.67624 10.5672 1.81887 10.9173C1.9615 11.2675 2.17277 11.5855 2.44023 11.8528C2.70768 12.12 3.02592 12.331 3.37619 12.4733C3.72646 12.6157 4.10167 12.6865 4.47973 12.6816C4.85778 12.6766 5.23103 12.5961 5.57747 12.4447C5.92392 12.2933 6.23656 12.0741 6.49697 11.8L13.8036 4.49331C14.1385 4.14756 14.324 3.68403 14.3201 3.20274C14.3162 2.72145 14.1233 2.26097 13.783 1.92063C13.4426 1.5803 12.9822 1.38739 12.5009 1.38353C12.0196 1.37966 11.5561 1.56515 11.2103 1.89998L5.31831 7.79598C5.24091 7.87337 5.17952 7.96525 5.13764 8.06637C5.09575 8.16748 5.0742 8.27586 5.0742 8.38531C5.0742 8.49476 5.09575 8.60314 5.13764 8.70426C5.17952 8.80537 5.24091 8.89725 5.31831 8.97464C5.3957 9.05204 5.48758 9.11343 5.58869 9.15531C5.68981 9.1972 5.79819 9.21875 5.90764 9.21875C6.01709 9.21875 6.12547 9.1972 6.22658 9.15531C6.3277 9.11343 6.41958 9.05204 6.49697 8.97464L10.267 5.20398C10.3131 5.1562 10.3682 5.11809 10.4292 5.09185C10.4902 5.06562 10.5558 5.0518 10.6222 5.05119C10.6886 5.05058 10.7544 5.0632 10.8159 5.08831C10.8774 5.11342 10.9332 5.15052 10.9802 5.19745C11.0271 5.24437 11.0643 5.30018 11.0895 5.36161C11.1146 5.42305 11.1273 5.48888 11.1268 5.55527C11.1262 5.62166 11.1125 5.68728 11.0863 5.74829C11.0601 5.80931 11.022 5.8645 10.9743 5.91064L7.20364 9.68198C7.0334 9.85226 6.83129 9.98734 6.60885 10.0795C6.38641 10.1717 6.14799 10.2191 5.90721 10.2192C5.66643 10.2192 5.428 10.1718 5.20553 10.0797C4.98306 9.98758 4.78092 9.85255 4.61064 9.68231C4.44036 9.51207 4.30528 9.30997 4.2131 9.08752C4.12093 8.86508 4.07348 8.62666 4.07345 8.38588C4.07338 7.8996 4.2665 7.43321 4.61031 7.08931L10.5036 1.19998C11.035 0.668572 11.7556 0.369997 12.5071 0.369934C13.2585 0.369872 13.9792 0.668327 14.5106 1.19964C15.042 1.73096 15.3406 2.45162 15.3407 3.20308C15.3407 3.95453 15.0423 4.67524 14.511 5.20665L7.20431 12.5106C6.84902 12.8677 6.42646 13.1508 5.96106 13.3435C5.49567 13.5362 4.99668 13.6347 4.49297 13.6333Z" fill="#1E866F"/>
</svg>
