<svg width="42" height="36" viewBox="0 0 42 36" fill="none" xmlns="http://www.w3.org/2000/svg">
<path d="M41.2485 5.25H36V0.75H41.2485C41.8958 0.75 42.2392 1.51425 41.8087 1.998L40.9185 3L41.8087 4.002C42.2392 4.48575 41.8958 5.25 41.2485 5.25Z" fill="#FF3B3B"/>
<path d="M36.75 27.75C36.75 31.0087 34.104 33.75 30.75 33.75H1.5C1.0875 33.75 0.75 33.4125 0.75 33C0.75 32.5875 1.0875 32.25 1.5 32.25H30.75C33.189 32.25 35.25 30.2708 35.25 27.75C35.25 25.2855 33.243 23.25 30.75 23.25H11.25C7.89 23.25 5.25 20.505 5.25 17.25C5.25 13.995 7.89 11.25 11.25 11.25H36C36.4125 11.25 36.75 11.5875 36.75 12C36.75 12.4125 36.4125 12.75 36 12.75H11.25C8.7675 12.75 6.75 14.775 6.75 17.25C6.75 19.725 8.7675 21.75 11.25 21.75H30.75C34.0793 21.75 36.75 24.4762 36.75 27.75Z" fill="#1E866F"/>
<path d="M36.7504 27.75C36.7504 29.1375 36.2779 30.4275 35.4679 31.4475C34.9354 31.3575 34.4554 31.125 34.0654 30.7875C34.8301 29.9611 35.2534 28.8759 35.2504 27.75C35.2504 27.0375 35.0854 26.3625 34.7854 25.7625C35.1604 25.59 35.5654 25.5 36.0004 25.5C36.1054 25.5 36.2104 25.5075 36.3154 25.515C36.6004 26.205 36.7504 26.9625 36.7504 27.75Z" fill="#1E866F"/>
<path d="M36 12.75C35.8011 12.75 35.6103 12.671 35.4697 12.5303C35.329 12.3897 35.25 12.1989 35.25 12V0.75C35.25 0.551088 35.329 0.360322 35.4697 0.21967C35.6103 0.0790178 35.8011 0 36 0C36.1989 0 36.3897 0.0790178 36.5303 0.21967C36.671 0.360322 36.75 0.551088 36.75 0.75V12C36.75 12.1989 36.671 12.3897 36.5303 12.5303C36.3897 12.671 36.1989 12.75 36 12.75Z" fill="#222222"/>
<path d="M19.5 25.5C21.1569 25.5 22.5 24.1569 22.5 22.5C22.5 20.8431 21.1569 19.5 19.5 19.5C17.8431 19.5 16.5 20.8431 16.5 22.5C16.5 24.1569 17.8431 25.5 19.5 25.5Z" fill="#FF9900"/>
<path d="M19.5 24C20.3284 24 21 23.3284 21 22.5C21 21.6716 20.3284 21 19.5 21C18.6716 21 18 21.6716 18 22.5C18 23.3284 18.6716 24 19.5 24Z" fill="#F0F0F0"/>
<path d="M19.5 15C21.1569 15 22.5 13.6569 22.5 12C22.5 10.3431 21.1569 9 19.5 9C17.8431 9 16.5 10.3431 16.5 12C16.5 13.6569 17.8431 15 19.5 15Z" fill="#FF9900"/>
<path d="M19.5 13.5C20.3284 13.5 21 12.8284 21 12C21 11.1716 20.3284 10.5 19.5 10.5C18.6716 10.5 18 11.1716 18 12C18 12.8284 18.6716 13.5 19.5 13.5Z" fill="#F0F0F0"/>
<path d="M3 36C4.65685 36 6 34.6569 6 33C6 31.3431 4.65685 30 3 30C1.34315 30 0 31.3431 0 33C0 34.6569 1.34315 36 3 36Z" fill="#FF9900"/>
<path d="M5.81992 31.996L3.53242 34.2835C3.23992 34.576 2.75992 34.576 2.46742 34.2835L0.967422 32.7835C0.674922 32.491 0.674922 32.011 0.967422 31.7185C1.25992 31.426 1.73992 31.426 2.03242 31.7185L2.99992 32.6935L4.95742 30.7285C5.34742 31.066 5.64742 31.501 5.81992 31.996Z" fill="#FF9900"/>
<path d="M4.5 33C4.50086 33.3726 4.36185 33.7319 4.11047 34.0069C3.85909 34.2819 3.51366 34.4525 3.1425 34.485C3.0975 34.4925 3.045 34.5 3 34.5C2.955 34.5 2.9025 34.4925 2.8575 34.485C2.48635 34.4525 2.14092 34.2819 1.88954 34.0069C1.63816 33.7319 1.49915 33.3726 1.5 33C1.5 32.505 1.74 32.07 2.1075 31.7925C2.355 31.605 2.67 31.5 3 31.5C3.33 31.5 3.645 31.605 3.8925 31.8C4.26 32.07 4.5 32.505 4.5 33Z" fill="#F0F0F0"/>
<path d="M4.5 33.0005C4.5 33.128 4.485 33.248 4.455 33.3605L3.5325 34.283C3.38968 34.4212 3.19873 34.4984 3 34.4984C2.80127 34.4984 2.61032 34.4212 2.4675 34.283L1.545 33.3605C1.515 33.248 1.5 33.128 1.5 33.0005C1.5 32.5055 1.74 32.0705 2.1075 31.793L3 32.693L3.8925 31.8005C4.26 32.0705 4.5 32.5055 4.5 33.0005Z" fill="white"/>
<path d="M2.46964 33.5301L0.969637 32.0301C0.900003 31.9605 0.844767 31.8778 0.807082 31.7869C0.769396 31.6959 0.75 31.5984 0.75 31.4999C0.75 31.4014 0.769396 31.3039 0.807082 31.2129C0.844767 31.1219 0.900003 31.0393 0.969636 30.9696C1.03927 30.9 1.12194 30.8448 1.21292 30.8071C1.3039 30.7694 1.40141 30.75 1.49989 30.75C1.59836 30.75 1.69588 30.7694 1.78686 30.8071C1.87784 30.8448 1.9605 30.9 2.03014 30.9696L2.99989 31.9394L5.46964 29.4696C5.53927 29.4 5.62194 29.3448 5.71292 29.3071C5.8039 29.2694 5.90141 29.25 5.99989 29.25C6.09836 29.25 6.19588 29.2694 6.28686 29.3071C6.37784 29.3448 6.4605 29.4 6.53014 29.4696C6.59977 29.5393 6.65501 29.6219 6.69269 29.7129C6.73038 29.8039 6.74977 29.9014 6.74977 29.9999C6.74977 30.0984 6.73038 30.1959 6.69269 30.2869C6.65501 30.3778 6.59977 30.4605 6.53014 30.5301L3.53014 33.5301C3.46055 33.5998 3.37789 33.6551 3.28691 33.6929C3.19592 33.7306 3.09839 33.75 2.99989 33.75C2.90139 33.75 2.80385 33.7306 2.71287 33.6929C2.62188 33.6551 2.53923 33.5998 2.46964 33.5301Z" fill="#125042"/>
<path d="M19.5 36C21.1569 36 22.5 34.6569 22.5 33C22.5 31.3431 21.1569 30 19.5 30C17.8431 30 16.5 31.3431 16.5 33C16.5 34.6569 17.8431 36 19.5 36Z" fill="#FF9900"/>
<path d="M22.3199 31.996L20.0324 34.2835C19.7399 34.576 19.2599 34.576 18.9674 34.2835L17.4674 32.7835C17.1749 32.491 17.1749 32.011 17.4674 31.7185C17.7599 31.426 18.2399 31.426 18.5324 31.7185L19.4999 32.6935L21.4574 30.7285C21.8474 31.066 22.1474 31.501 22.3199 31.996Z" fill="#FF9900"/>
<path d="M21 33C21.0009 33.3726 20.8618 33.7319 20.6105 34.0069C20.3591 34.2819 20.0137 34.4525 19.6425 34.485C19.5975 34.4925 19.545 34.5 19.5 34.5C19.455 34.5 19.4025 34.4925 19.3575 34.485C18.9864 34.4525 18.6409 34.2819 18.3895 34.0069C18.1382 33.7319 17.9991 33.3726 18 33C18 32.505 18.24 32.07 18.6075 31.7925C18.855 31.605 19.17 31.5 19.5 31.5C19.83 31.5 20.145 31.605 20.3925 31.8C20.76 32.07 21 32.505 21 33Z" fill="#F0F0F0"/>
<path d="M21 33.0005C21 33.128 20.985 33.248 20.955 33.3605L20.0325 34.283C19.8897 34.4212 19.6987 34.4984 19.5 34.4984C19.3013 34.4984 19.1103 34.4212 18.9675 34.283L18.045 33.3605C18.015 33.248 18 33.128 18 33.0005C18 32.5055 18.24 32.0705 18.6075 31.793L19.5 32.693L20.3925 31.8005C20.76 32.0705 21 32.5055 21 33.0005Z" fill="white"/>
<path d="M18.9696 33.5301L17.4696 32.0301C17.4 31.9605 17.3448 31.8778 17.3071 31.7869C17.2694 31.6959 17.25 31.5984 17.25 31.4999C17.25 31.4014 17.2694 31.3039 17.3071 31.2129C17.3448 31.1219 17.4 31.0393 17.4696 30.9696C17.5393 30.9 17.6219 30.8448 17.7129 30.8071C17.8039 30.7694 17.9014 30.75 17.9999 30.75C18.0984 30.75 18.1959 30.7694 18.2869 30.8071C18.3778 30.8448 18.4605 30.9 18.5301 30.9696L19.4999 31.9394L21.9696 29.4696C22.1103 29.329 22.301 29.25 22.4999 29.25C22.6988 29.25 22.8895 29.329 23.0301 29.4696C23.1708 29.6103 23.2498 29.801 23.2498 29.9999C23.2498 30.1988 23.1708 30.3895 23.0301 30.5301L20.0301 33.5301C19.9605 33.5998 19.8779 33.6551 19.7869 33.6929C19.6959 33.7306 19.5984 33.75 19.4999 33.75C19.4014 33.75 19.3039 33.7306 19.2129 33.6929C19.1219 33.6551 19.0392 33.5998 18.9696 33.5301Z" fill="#125042"/>
<path d="M36 30.75C37.6569 30.75 39 29.4069 39 27.75C39 26.0931 37.6569 24.75 36 24.75C34.3431 24.75 33 26.0931 33 27.75C33 29.4069 34.3431 30.75 36 30.75Z" fill="#FF9900"/>
<path d="M38.8199 26.746L36.5324 29.0335C36.2399 29.326 35.7599 29.326 35.4674 29.0335L33.9674 27.5335C33.6749 27.241 33.6749 26.761 33.9674 26.4685C34.2599 26.176 34.7399 26.176 35.0324 26.4685L35.9999 27.4435L37.9574 25.4785C38.3474 25.816 38.6474 26.251 38.8199 26.746Z" fill="#FF9900"/>
<path d="M37.5 27.75C37.5009 28.1226 37.3618 28.4819 37.1105 28.7569C36.8591 29.0319 36.5137 29.2025 36.1425 29.235C36.0975 29.2425 36.045 29.25 36 29.25C35.955 29.25 35.9025 29.2425 35.8575 29.235C35.4864 29.2025 35.1409 29.0319 34.8895 28.7569C34.6382 28.4819 34.4991 28.1226 34.5 27.75C34.5 27.255 34.74 26.82 35.1075 26.5425C35.355 26.355 35.67 26.25 36 26.25C36.33 26.25 36.645 26.355 36.8925 26.55C37.26 26.82 37.5 27.255 37.5 27.75Z" fill="#F0F0F0"/>
<path d="M37.5 27.7505C37.5 27.878 37.485 27.998 37.455 28.1105L36.5325 29.033C36.3897 29.1712 36.1987 29.2484 36 29.2484C35.8013 29.2484 35.6103 29.1712 35.4675 29.033L34.545 28.1105C34.515 27.998 34.5 27.878 34.5 27.7505C34.5 27.2555 34.74 26.8205 35.1075 26.543L36 27.443L36.8925 26.5505C37.26 26.8205 37.5 27.2555 37.5 27.7505Z" fill="white"/>
<path d="M35.4696 28.2801L33.9696 26.7801C33.829 26.6395 33.75 26.4488 33.75 26.2499C33.75 26.051 33.829 25.8603 33.9696 25.7196C34.1103 25.579 34.301 25.5 34.4999 25.5C34.6988 25.5 34.8895 25.579 35.0301 25.7196L35.9999 26.6894L38.4696 24.2196C38.5393 24.15 38.6219 24.0948 38.7129 24.0571C38.8039 24.0194 38.9014 24 38.9999 24C39.0984 24 39.1959 24.0194 39.2869 24.0571C39.3778 24.0948 39.4605 24.15 39.5301 24.2196C39.5998 24.2893 39.655 24.3719 39.6927 24.4629C39.7304 24.5539 39.7498 24.6514 39.7498 24.7499C39.7498 24.8484 39.7304 24.9459 39.6927 25.0369C39.655 25.1278 39.5998 25.2105 39.5301 25.2801L36.5301 28.2801C36.4605 28.3498 36.3779 28.4051 36.2869 28.4429C36.1959 28.4806 36.0984 28.5 35.9999 28.5C35.9014 28.5 35.8039 28.4806 35.7129 28.4429C35.6219 28.4051 35.5392 28.3498 35.4696 28.2801Z" fill="#125042"/>
</svg>
