<svg width="37" height="44" viewBox="0 0 37 44" fill="none" xmlns="http://www.w3.org/2000/svg">
<path d="M4.25284 33H2.588C1.70435 33 1 32.373 1 31.6116V2.38838C1 1.61581 1.71716 1 2.588 1H34.412C35.2956 1 36 1.62701 36 2.38838V31.6116C36 32.3842 35.2828 33 34.412 33H26.9202" stroke="#1E866F" stroke-miterlimit="10" stroke-linecap="round" stroke-linejoin="round"/>
<path d="M9.63892 32.5624L7.13403 32.5234" stroke="#1E866F" stroke-miterlimit="10" stroke-linecap="round" stroke-linejoin="round"/>
<path d="M12 8.5C12 9.88105 10.8833 11 9.50503 11C8.12676 11 7 9.88105 7 8.5C7 7.11895 8.1167 6 9.49497 6C10.8732 6 12 7.11895 12 8.5Z" stroke="#1E866F" stroke-miterlimit="10" stroke-linecap="round" stroke-linejoin="round"/>
<path d="M26.9175 34.5605C26.9175 38.9623 23.047 42.5352 18.2783 42.5352C13.5097 42.5352 9.63916 38.9623 9.63916 34.5605C9.63916 30.1587 13.5097 26.5859 18.2783 26.5859C23.047 26.5859 26.9175 30.1587 26.9175 34.5605Z" stroke="#1E866F" stroke-miterlimit="10" stroke-linecap="round" stroke-linejoin="round"/>
<path d="M24.5 26L13.0077 16L1.5 26" stroke="#1E866F" stroke-miterlimit="10" stroke-linecap="round" stroke-linejoin="round"/>
<path d="M35.5 26L26.1288 17L20.5 22.3913" stroke="#1E866F" stroke-miterlimit="10" stroke-linecap="round" stroke-linejoin="round"/>
<path d="M23.5945 34.883C23.5945 37.6329 21.2113 39.8672 18.2781 39.8672C15.3449 39.8672 12.9617 37.6329 12.9617 34.883C12.9617 32.1332 15.3449 29.8989 18.2781 29.8989C21.2113 29.9104 23.5945 32.1332 23.5945 34.883Z" stroke="#1E866F" stroke-miterlimit="10" stroke-linecap="round" stroke-linejoin="round"/>
<path d="M18.5061 32.521V36.7656" stroke="#1E866F" stroke-miterlimit="10" stroke-linecap="round" stroke-linejoin="round"/>
<path d="M20.0942 35.3432L18.5062 36.7656L16.9182 35.3546" stroke="#1E866F" stroke-miterlimit="10" stroke-linecap="round" stroke-linejoin="round"/>
</svg>
