<svg width="14" height="16" viewBox="0 0 14 16" fill="none" xmlns="http://www.w3.org/2000/svg">
<path d="M12.0341 13.614C12.4122 13.6135 12.7748 13.4631 13.0422 13.1957C13.3096 12.9283 13.4601 12.5657 13.4606 12.1875V3.238C13.4601 2.85981 13.3096 2.49724 13.0422 2.22982C12.7748 1.9624 12.4122 1.81196 12.0341 1.8115H11.2433C11.2105 1.8115 11.178 1.81797 11.1476 1.83053C11.1173 1.84309 11.0897 1.86151 11.0665 1.88472C11.0433 1.90794 11.0249 1.9355 11.0123 1.96583C10.9998 1.99616 10.9933 2.02867 10.9933 2.0615C10.9933 2.09433 10.9998 2.12684 11.0123 2.15717C11.0249 2.1875 11.0433 2.21506 11.0665 2.23828C11.0897 2.26149 11.1173 2.27991 11.1476 2.29247C11.178 2.30503 11.2105 2.3115 11.2433 2.3115H12.0341C12.2797 2.31176 12.5152 2.40946 12.6889 2.58316C12.8626 2.75685 12.9603 2.99236 12.9606 3.238V3.43575L11.4173 4.66125C11.2847 4.76599 11.1777 4.89946 11.1043 5.0516C11.0308 5.20373 10.9929 5.37056 10.9933 5.5395C10.9936 5.83684 11.1119 6.1219 11.3221 6.33215C11.5324 6.54241 11.8175 6.66067 12.1148 6.661H12.9606V12.1873C12.9606 12.698 12.5451 13.1138 12.0341 13.1138C11.5231 13.1138 11.1076 12.698 11.1076 12.1873V9.33275C11.1071 8.95456 10.9566 8.59199 10.6892 8.32457C10.4218 8.05715 10.0592 7.90671 9.68105 7.90625H9.52605V2.85225C9.52605 1.55525 8.4708 0.5 7.1738 0.5H2.8918C1.5948 0.5 0.539551 1.55525 0.539551 2.85225V15.25C0.539551 15.3163 0.56589 15.3799 0.612774 15.4268C0.659658 15.4737 0.723247 15.5 0.789551 15.5H9.27605C9.34235 15.5 9.40594 15.4737 9.45283 15.4268C9.49971 15.3799 9.52605 15.3163 9.52605 15.25V8.40625H9.68105C9.92669 8.40651 10.1622 8.50421 10.3359 8.67791C10.5096 8.8516 10.6073 9.08711 10.6076 9.33275V12.1873C10.608 12.5654 10.7585 12.928 11.0259 13.1954C11.2933 13.4628 11.6559 13.6135 12.0341 13.614ZM12.1148 6.161C11.95 6.1608 11.7921 6.09526 11.6756 5.97875C11.559 5.86224 11.4935 5.70427 11.4933 5.5395C11.4933 5.34875 11.5791 5.1715 11.7283 5.05275L12.9606 4.07425V6.161H12.1148ZM9.02605 15H1.03955V2.85225C1.03955 1.831 1.87055 1 2.8918 1H7.17355C8.1948 1 9.0258 1.831 9.0258 2.85225L9.02605 15Z" fill="#707070"/>
<path d="M7.27983 2.79688H2.78583C2.57383 2.79714 2.37059 2.88149 2.2207 3.03142C2.07082 3.18136 1.98653 3.38462 1.98633 3.59663V4.31013C1.98653 4.52213 2.07082 4.72539 2.2207 4.87533C2.37059 5.02526 2.57383 5.10961 2.78583 5.10987H7.28008C7.49208 5.10961 7.69532 5.02526 7.84521 4.87533C7.99509 4.72539 8.07938 4.52213 8.07958 4.31013V3.59663C8.07938 3.38462 7.99509 3.18136 7.84521 3.03142C7.69532 2.88149 7.49183 2.79714 7.27983 2.79688ZM7.57933 4.31013C7.57926 4.38956 7.54769 4.46573 7.49155 4.52192C7.4354 4.57811 7.35926 4.60974 7.27983 4.60987H2.78583C2.70639 4.60974 2.63025 4.57811 2.57411 4.52192C2.51796 4.46573 2.48639 4.38956 2.48633 4.31013V3.59663C2.48639 3.51719 2.51796 3.44102 2.57411 3.38483C2.63025 3.32864 2.70639 3.29701 2.78583 3.29688H7.28008C7.35951 3.29701 7.43565 3.32864 7.4918 3.38483C7.54794 3.44102 7.57951 3.51719 7.57958 3.59663L7.57933 4.31013ZM5.20758 7.08687C5.16087 7.04122 5.09815 7.01566 5.03283 7.01566C4.96751 7.01566 4.90479 7.04122 4.85808 7.08687C4.64058 7.29987 2.73283 9.20162 2.73283 10.4044C2.73283 11.6726 3.76458 12.7044 5.03283 12.7044C6.30108 12.7044 7.33283 11.6726 7.33283 10.4044C7.33283 9.20162 5.42508 7.29987 5.20758 7.08687ZM5.03283 12.2044C4.04033 12.2044 3.23283 11.3969 3.23283 10.4044C3.23283 9.64138 4.40483 8.27088 5.03283 7.62063C5.66108 8.27088 6.83283 9.64138 6.83283 10.4044C6.83283 11.3969 6.02533 12.2044 5.03283 12.2044Z" fill="#707070"/>
<path d="M4.78271 11.6211C4.78271 11.6874 4.80905 11.751 4.85594 11.7979C4.90282 11.8448 4.96641 11.8711 5.03271 11.8711C5.41698 11.8707 5.7854 11.7179 6.05714 11.4462C6.32888 11.1745 6.48175 10.8061 6.48221 10.4219C6.48221 10.3556 6.45588 10.292 6.40899 10.2451C6.36211 10.1982 6.29852 10.1719 6.23221 10.1719C6.16591 10.1719 6.10232 10.1982 6.05544 10.2451C6.00855 10.292 5.98221 10.3556 5.98221 10.4219C5.98188 10.6736 5.88173 10.9149 5.70373 11.0928C5.52573 11.2708 5.28441 11.3709 5.03271 11.3711C4.96641 11.3711 4.90282 11.3975 4.85594 11.4443C4.80905 11.4912 4.78271 11.5548 4.78271 11.6211Z" fill="#707070"/>
</svg>
