<svg width="15" height="11" viewBox="0 0 15 11" fill="none" xmlns="http://www.w3.org/2000/svg">
<path d="M7.04004 10.116H1.26563C1.14258 10.116 1.0459 10.0188 1.0459 9.8951V3.54373C1.0459 3.42001 1.14258 3.32279 1.26563 3.32279C1.38867 3.32279 1.48535 3.42001 1.48535 3.54373V9.68594H6.83789V0.600777C6.83789 0.477049 6.93457 0.388672 7.05762 0.388672C7.18066 0.388672 7.27734 0.485887 7.27734 0.600777V9.8951C7.25977 10.0188 7.16309 10.116 7.04004 10.116Z" fill="#888998"/>
<path d="M1.60807 4.88716C1.50261 4.88716 1.38835 4.87833 1.25651 4.86065C1.13346 4.85181 1.04557 4.73692 1.07194 4.63087C1.09831 4.51598 1.19499 4.43644 1.30046 4.44528C1.47624 4.47179 1.59929 4.47179 1.71354 4.45412C2.68034 4.40993 3.30436 3.78245 3.65593 3.26986C4.06901 2.67774 4.69304 2.28004 5.46647 2.06793C5.82682 1.97072 6.26628 1.90886 6.60026 1.91769L7.07487 1.94421C7.19792 1.96188 7.28581 2.0591 7.27702 2.16515C7.25944 2.28888 7.16276 2.37725 7.05729 2.35958L6.59147 2.3419C6.31022 2.32423 5.90593 2.38609 5.58952 2.47447C4.89518 2.66006 4.37663 3.00473 4.02507 3.49964C3.44499 4.33923 2.64518 4.8253 1.76628 4.87833C1.69596 4.88716 1.64323 4.88716 1.60807 4.88716ZM1.60807 3.80013C1.47624 3.80013 1.33561 3.78245 1.22136 3.7471C1.1071 3.72059 1.03679 3.59686 1.06315 3.49081C1.09831 3.37592 1.20378 3.30521 1.31804 3.33173C1.4235 3.35824 1.57292 3.36708 1.69596 3.35824C2.08268 3.32289 2.43425 3.08427 2.74186 2.63355C3.30436 1.82048 4.1569 1.2637 5.21159 0.989735C5.67741 0.866007 6.22233 0.804143 6.64421 0.821818L7.05729 0.839494C7.18034 0.857169 7.25944 0.954384 7.25065 1.07811C7.24186 1.20184 7.13639 1.28138 7.02214 1.27254L6.61784 1.24603C6.23991 1.23719 5.73893 1.29905 5.30827 1.39627C4.35905 1.6614 3.60319 2.16515 3.09343 2.88984C2.7155 3.43778 2.24968 3.7471 1.73112 3.80013H1.60807Z" fill="#888998"/>
<path d="M2.33789 10.116C2.21484 10.116 2.11816 10.0188 2.11816 9.8951V4.56891C2.11816 4.44518 2.21484 4.34797 2.33789 4.34797C2.46094 4.34797 2.55762 4.44518 2.55762 4.56891V9.90688C2.55762 10.0188 2.46094 10.116 2.33789 10.116ZM3.25195 10.116C3.12891 10.116 3.03223 10.0188 3.03223 9.8951V4.03865C3.03223 3.91492 3.12891 3.8177 3.25195 3.8177C3.375 3.8177 3.47168 3.91492 3.47168 4.03865V9.90688C3.47168 10.0188 3.375 10.116 3.25195 10.116ZM4.15723 10.116C4.03418 10.116 3.9375 10.0188 3.9375 9.8951V3.00463C3.9375 2.88091 4.03418 2.78369 4.15723 2.78369C4.28027 2.78369 4.37695 2.88091 4.37695 3.00463V9.90688C4.37695 10.0188 4.28027 10.116 4.15723 10.116ZM5.07129 10.116C4.94824 10.116 4.85156 10.0188 4.85156 9.8951V2.42134C4.85156 2.29762 4.94824 2.2004 5.07129 2.2004C5.19434 2.2004 5.29102 2.29762 5.29102 2.42134V9.89804C5.29102 10.0188 5.19434 10.116 5.07129 10.116ZM5.96777 10.116C5.84473 10.116 5.74805 10.0188 5.74805 9.8951V2.18273C5.74805 2.059 5.84473 1.96178 5.96777 1.96178C6.09082 1.96178 6.1875 2.059 6.1875 2.18273V9.8951C6.1875 10.0188 6.09082 10.116 5.96777 10.116ZM13.7256 10.116H13.7168L7.94238 9.74486C7.82812 9.73602 7.74902 9.64764 7.74902 9.54159V0.600777C7.74902 0.477049 7.8457 0.388672 7.96875 0.388672C8.0918 0.388672 8.18848 0.485887 8.18848 0.600777V9.32949L13.5322 9.66532V3.54373C13.5322 3.42001 13.6289 3.32279 13.752 3.32279C13.875 3.32279 13.9717 3.42001 13.9717 3.54373V9.89804C13.9717 9.95991 13.9453 10.0129 13.9014 10.0571C13.8311 10.0895 13.7783 10.116 13.7256 10.116Z" fill="#888998"/>
<path d="M13.3912 4.88737H13.2681C12.3804 4.83434 11.5718 4.35711 11.0093 3.51753C10.6578 3.01378 10.1304 2.66911 9.4361 2.48351C9.1197 2.40397 8.72419 2.34211 8.42536 2.35095L7.96833 2.37746C7.85407 2.3863 7.7486 2.28908 7.7486 2.18303C7.73102 2.0593 7.8277 1.96209 7.94196 1.96209L8.40778 1.93558C8.74177 1.9179 9.18122 1.97976 9.54157 2.08582C10.3062 2.28025 10.939 2.69562 11.3521 3.27007C11.7037 3.78266 12.3277 4.41013 13.2945 4.45432C13.4088 4.472 13.5318 4.45432 13.7076 4.44549C13.8306 4.43665 13.9273 4.51619 13.9361 4.63108C13.9449 4.75481 13.8658 4.85202 13.7515 4.86086C13.6109 4.88737 13.4966 4.88737 13.3912 4.88737ZM13.3736 3.80033H13.2681C12.7408 3.74731 12.275 3.43799 11.9058 2.89005C11.3873 2.16536 10.649 1.66161 9.67341 1.42299C9.24274 1.3081 8.74177 1.24623 8.36384 1.27275L7.96833 1.29926C7.84528 1.3081 7.7486 1.21088 7.73102 1.10483C7.72224 0.981103 7.81892 0.883889 7.93317 0.866213L8.32868 0.8397C8.75934 0.830862 9.30427 0.892726 9.77009 1.00762C10.8336 1.27275 11.6861 1.8472 12.2398 2.64259C12.5474 3.08448 12.899 3.33193 13.3033 3.36729C13.3912 3.37612 13.5318 3.36729 13.6812 3.34077C13.7867 3.3231 13.9097 3.3938 13.9361 3.49985C13.9625 3.61474 13.8922 3.73847 13.7779 3.75614C13.6549 3.78266 13.5142 3.80033 13.3736 3.80033Z" fill="#888998"/>
<path d="M12.6533 10.0543C12.5391 10.0543 12.4424 9.95711 12.4424 9.83338V4.56905C12.4424 4.44533 12.5391 4.34811 12.6533 4.34811C12.7764 4.34811 12.873 4.44533 12.873 4.56905V9.83633C12.8643 9.95711 12.7676 10.0543 12.6533 10.0543ZM11.7393 9.99246C11.625 9.99246 11.5283 9.89525 11.5283 9.77152V4.03879C11.5283 3.91506 11.625 3.81785 11.7393 3.81785C11.8623 3.81785 11.959 3.91506 11.959 4.03879V9.79214C11.9502 9.89524 11.8623 9.99246 11.7393 9.99246ZM10.8428 9.9306C10.7197 9.9306 10.623 9.83338 10.623 9.70965V3.00478C10.623 2.88105 10.7197 2.78384 10.8428 2.78384C10.9658 2.78384 11.0625 2.88105 11.0625 3.00478V9.73027C11.0449 9.83338 10.9482 9.9306 10.8428 9.9306ZM9.92871 9.86873C9.80566 9.86873 9.70898 9.77152 9.70898 9.64779V2.42149C9.70898 2.29776 9.80566 2.20055 9.92871 2.20055C10.0518 2.20055 10.1484 2.29776 10.1484 2.42149V9.66841C10.1309 9.77152 10.0518 9.86873 9.92871 9.86873ZM9.02344 9.82454C8.90039 9.82454 8.80371 9.72733 8.80371 9.6036V2.17993C8.80371 2.0562 8.90039 1.95898 9.02344 1.95898C9.14648 1.95898 9.24316 2.0562 9.24316 2.17993V9.6036C9.23438 9.72733 9.1377 9.82454 9.02344 9.82454ZM1.26563 10.9646H0.325195C0.210938 10.9646 0.105469 10.8674 0.105469 10.7437V2.41265C0.105469 2.28893 0.210938 2.19171 0.325195 2.19171H1.26563C1.38867 2.19171 1.48535 2.28893 1.48535 2.41265V10.7437C1.48535 10.8674 1.38867 10.9646 1.26563 10.9646ZM0.544922 10.5316H1.06348V2.6336H0.544922V10.5316ZM14.666 11H13.7256C13.6113 11 13.5146 10.9027 13.5146 10.779V2.448C13.5146 2.32428 13.6113 2.22706 13.7256 2.22706H14.666C14.7891 2.22706 14.8857 2.32428 14.8857 2.448V10.779C14.877 10.9027 14.7803 11 14.666 11ZM13.9365 10.5669H14.4463V2.66895H13.9365V10.5669Z" fill="#888998"/>
<path d="M0.799805 2.63386C0.685547 2.63386 0.588867 2.53664 0.588867 2.41291V1.42309C0.588867 1.29936 0.685547 1.20215 0.799805 1.20215C0.922852 1.20215 1.01953 1.29936 1.01953 1.42309V2.42175C1.01953 2.53664 0.922852 2.63386 0.799805 2.63386ZM14.1914 2.66921C14.0684 2.66921 13.9717 2.57199 13.9717 2.44827V1.44077C13.9717 1.32588 14.0684 1.21982 14.1914 1.21982C14.3145 1.21982 14.4111 1.32588 14.4111 1.44077V2.44827C14.4023 2.57199 14.3057 2.66921 14.1914 2.66921Z" fill="#888998"/>
<path d="M0.799805 1.6173C0.369141 1.6173 0 1.26379 0 0.804231C0 0.362346 0.351562 0 0.799805 0C1.23926 0 1.6084 0.353508 1.6084 0.804231C1.6084 1.26379 1.23926 1.6173 0.799805 1.6173ZM0.799805 0.441885C0.597656 0.441885 0.430664 0.609802 0.430664 0.821907C0.430664 1.02517 0.597656 1.20193 0.799805 1.20193C1.01074 1.20193 1.17773 1.02517 1.17773 0.821907C1.17773 0.609802 1.01074 0.441885 0.799805 0.441885ZM14.1914 1.66149C13.752 1.66149 13.3916 1.30798 13.3916 0.866095C13.3916 0.441885 13.7432 0.0883771 14.1914 0.0883771C14.6396 0.0883771 15 0.441885 15 0.866095C14.9824 1.30798 14.6309 1.66149 14.1914 1.66149ZM14.1914 0.512587C13.9893 0.512587 13.8135 0.671666 13.8135 0.866095C13.8135 1.0782 13.9717 1.23728 14.1914 1.23728C14.4023 1.23728 14.5693 1.0782 14.5693 0.866095C14.5605 0.671666 14.4023 0.512587 14.1914 0.512587Z" fill="#888998"/>
</svg>
