<svg width="16" height="16" viewBox="0 0 16 16" fill="none" xmlns="http://www.w3.org/2000/svg">
<path d="M6.42103 5.91991V7.17116L5.8101 5.88273C5.75239 5.76111 5.65387 5.66358 5.53168 5.60711C5.40949 5.55064 5.27136 5.53881 5.14135 5.57366C4.84447 5.65304 4.6626 5.9521 4.72822 6.25241L5.21416 8.4671C5.24728 8.61804 5.30447 8.76241 5.38353 8.89523L6.35072 10.5168C6.48583 10.7432 6.6774 10.9307 6.9067 11.0609C7.13599 11.1911 7.39516 11.2596 7.65885 11.2596H9.85978C10.3104 11.2596 10.6757 10.8943 10.6757 10.4437V9.76273L11.1101 8.97804C11.1482 8.90898 11.1807 8.83679 11.2063 8.76241M6.42113 3.80601V3.28538C6.42113 2.97945 6.66913 2.73145 6.97506 2.73145H7.0831C7.38903 2.73145 7.63703 2.97945 7.63703 3.28538V6.40851M6.42113 6.76304V4.90298" stroke="#1E866F" stroke-width="0.4" stroke-miterlimit="10" stroke-linecap="round" stroke-linejoin="round"/>
<path d="M7.63645 6.40834V2.6688C7.63645 2.35499 7.89086 2.10059 8.20467 2.10059H8.28414C8.59795 2.10059 8.85236 2.35499 8.85236 2.6688V6.40834V3.28521C8.85236 2.97927 9.10036 2.73127 9.4063 2.73127H9.51433C9.82027 2.73127 10.0683 2.97927 10.0683 3.28521V6.76287L10.0683 3.8538C10.0683 3.54787 10.3161 3.30005 10.622 3.30005H10.7302C11.0361 3.30005 11.2842 3.54787 11.2842 3.8538V5.17599M6.42058 7.17112H6.65923C7.27114 7.17112 7.7672 7.66718 7.7672 8.27909M6.22808 12.5141L5.75111 13.3593M7.56783 12.5141L7.09086 13.3593M8.90761 12.5141L8.43064 13.3593M10.2474 12.5141L9.77039 13.3593M10.777 13.3593H5.22142C4.98802 13.3593 4.79883 13.1701 4.79883 12.9367C4.79883 12.7033 4.98802 12.5141 5.22142 12.5141H10.777C11.0105 12.5141 11.1996 12.7033 11.1996 12.9367C11.1997 13.1701 11.0105 13.3593 10.777 13.3593Z" stroke="#1E866F" stroke-width="0.4" stroke-miterlimit="10" stroke-linecap="round" stroke-linejoin="round"/>
<path d="M12.023 8.9405C13.1025 8.9405 13.9776 8.06538 13.9776 6.98588C13.9776 5.90637 13.1025 5.03125 12.023 5.03125C10.9435 5.03125 10.0684 5.90637 10.0684 6.98588C10.0684 8.06538 10.9435 8.9405 12.023 8.9405Z" stroke="#1E866F" stroke-width="0.4" stroke-miterlimit="10" stroke-linecap="round" stroke-linejoin="round"/>
<path d="M11.2804 6.90116L11.8322 7.45303L12.7663 6.51894M13.1327 13.8218V13.6437C13.1327 13.4103 13.3219 13.2211 13.5553 13.2211C13.7887 13.2211 13.9779 13.4103 13.9779 13.6437V15.343C13.9779 15.5764 13.7887 15.7656 13.5553 15.7656H11.856C11.6226 15.7656 11.4334 15.5764 11.4334 15.343C11.4334 15.1096 11.6226 14.9204 11.856 14.9204H13.1327M2.44408 2.77891C2.21067 2.77891 2.02148 2.58972 2.02148 2.35631V0.656969C2.02148 0.423563 2.21067 0.234375 2.44408 0.234375H4.14339C4.3768 0.234375 4.56598 0.423563 4.56598 0.656969C4.56598 0.890375 4.3768 1.07956 4.14339 1.07956H2.86667V2.35628C2.86667 2.58969 2.67748 2.77891 2.44408 2.77891ZM13.5553 2.77891C13.7887 2.77891 13.9779 2.58972 13.9779 2.35631V0.656969C13.9779 0.423563 13.7887 0.234375 13.5553 0.234375H11.856C11.6226 0.234375 11.4334 0.423563 11.4334 0.656969C11.4334 0.890375 11.6226 1.07956 11.856 1.07956H13.1327V2.35628C13.1327 2.58969 13.3219 2.77891 13.5553 2.77891ZM2.44408 13.2211C2.21067 13.2211 2.02148 13.4103 2.02148 13.6437V15.343C2.02148 15.5764 2.21067 15.7656 2.44408 15.7656H4.14339C4.3768 15.7656 4.56598 15.5764 4.56598 15.343C4.56598 15.1096 4.3768 14.9204 4.14339 14.9204H2.86667V13.6437C2.86667 13.4103 2.67748 13.2211 2.44408 13.2211Z" stroke="#1E866F" stroke-width="0.4" stroke-miterlimit="10" stroke-linecap="round" stroke-linejoin="round"/>
</svg>
