<svg width="14" height="14" viewBox="0 0 14 14" fill="none" xmlns="http://www.w3.org/2000/svg">
<g clip-path="url(#clip0_8693_4320)">
<path d="M2.00623 9.65809V5.59891M2.00623 4.64187V2.21266C2.00623 1.99473 2.09455 1.79758 2.23729 1.65457C2.3803 1.51184 2.57745 1.42352 2.79537 1.42352C3.23123 1.42352 3.58452 1.7768 3.58452 2.21266V7.15832M4.42583 1.02047V0.205078H3.6508M3.62745 3.27395H4.42583V2.45859M1.94009 0.205078H1.16506V1.02047M1.16506 2.45859V3.27395H1.9361M8.33024 10.0304C8.2734 10.5633 8.10231 11.0778 7.82862 11.5386C7.48411 12.1187 7.30349 12.7814 7.306 13.4561V13.7949M2.04364 13.7949V13.148C2.04364 12.4443 1.78002 11.7662 1.30476 11.2472C0.912124 10.8185 0.694339 10.2582 0.694336 9.67687V8.27693C0.694339 8.06516 0.74307 7.85624 0.836759 7.66633C0.930448 7.47642 1.06658 7.31062 1.23462 7.18175C1.25488 7.16644 1.2758 7.15203 1.29732 7.13855L1.88201 6.76706M5.20529 7.67446V5.42079C5.20529 4.97323 5.56811 4.61043 6.01565 4.61043C6.14014 4.61043 6.25808 4.63851 6.36346 4.68866M3.58454 4.90457C3.58454 4.457 3.94737 4.09421 4.3949 4.09421C4.84246 4.09421 5.20526 4.45703 5.20526 4.90457V5.42079M6.40776 9.10273V9.66711C6.40776 9.82652 6.53709 9.95586 6.69651 9.95586H10.6244M6.40776 8.1457V2.56922C6.40776 2.4098 6.53709 2.28047 6.69651 2.28047H13.0173C13.1767 2.28047 13.306 2.4098 13.306 2.56922V3.13715M13.306 4.09418V9.66711C13.306 9.82652 13.1767 9.95586 13.0173 9.95586H11.5815M7.62827 8.22462C8.29415 8.89049 9.37062 8.8917 10.035 8.2273C10.6787 7.5836 10.6977 6.55312 10.0927 5.88396" stroke="#1E866F" stroke-width="0.4" stroke-miterlimit="10" stroke-linecap="round" stroke-linejoin="round"/>
<path d="M11.945 8.405C12.4972 7.15679 12.26 5.64402 11.2343 4.61836C10.5685 3.95248 9.492 3.95128 8.8276 4.61568C8.1632 5.28008 8.16438 6.35655 8.83028 7.02242" stroke="#1E866F" stroke-width="0.4" stroke-miterlimit="10" stroke-linecap="round" stroke-linejoin="round"/>
<path d="M11.3679 7.30823C11.3069 7.86421 11.0633 8.4037 10.6369 8.83007C10.5884 8.87856 10.5381 8.92509 10.4859 8.96956M11.835 4.01788C10.8361 3.01904 9.22143 3.01726 8.22481 4.01388C7.22818 5.01051 7.22999 6.62518 8.2288 7.62402C8.56174 7.95696 9.09997 7.95756 9.43217 7.62536C9.76437 7.29316 9.76377 6.75493 9.43083 6.42199C9.0979 6.08905 9.09729 5.55082 9.42949 5.21862C9.76169 4.88642 10.2999 4.88702 10.6329 5.21996C10.9375 5.52457 11.1493 5.88644 11.2685 6.27059" stroke="#1E866F" stroke-width="0.4" stroke-miterlimit="10" stroke-linecap="round" stroke-linejoin="round"/>
</g>
<defs>
<clipPath id="clip0_8693_4320">
<rect width="14" height="14" fill="white"/>
</clipPath>
</defs>
</svg>
