<svg width="17" height="16" viewBox="0 0 17 16" fill="none" xmlns="http://www.w3.org/2000/svg">
<g clip-path="url(#clip0_8038_1639)">
<path d="M13.2086 7.88382C13.0369 7.74841 12.8115 7.73028 12.6204 7.8366L11.9524 8.20816C11.8277 8.27753 11.7483 8.39882 11.7346 8.54085C11.7337 8.55028 11.7338 8.5596 11.7335 8.56897L11.42 8.74335C10.9735 8.99166 10.495 9.03447 9.99763 8.87053C9.35563 8.65894 8.66878 8.77688 7.95622 9.22113L7.94856 9.22591C7.37781 8.86891 6.8665 8.9131 6.37094 8.95607C5.85319 9.00097 5.31778 9.04738 4.61831 8.65397L4.47766 8.57485C4.47744 8.56353 4.4775 8.55222 4.47641 8.54078C4.46269 8.39875 4.38328 8.2775 4.25856 8.20816L3.59053 7.8366C3.39944 7.73038 3.17406 7.74844 3.00234 7.88385C1.90209 8.75166 1.29009 10.2943 1.54712 11.552C1.58269 11.7261 1.69691 11.8658 1.8605 11.9352L2.38428 12.1577C2.43749 12.1805 2.49476 12.1923 2.55266 12.1925C2.63381 12.1925 2.71406 12.1687 2.78569 12.1218C2.80279 12.1105 2.81908 12.098 2.83444 12.0844L4.05931 12.7158L4.41216 13.0955L4.40128 13.1143C4.19194 13.477 4.31662 13.9423 4.67925 14.1517C4.78369 14.212 4.90109 14.2465 5.02159 14.2521C4.98612 14.382 4.98596 14.519 5.02112 14.649C5.07375 14.8453 5.19916 15.0091 5.37431 15.1103C5.48895 15.1768 5.61912 15.2118 5.75166 15.2118C5.81787 15.2118 5.88459 15.2031 5.95038 15.1855C6.00645 15.1702 6.06062 15.1487 6.11184 15.1212C6.17722 15.2635 6.2852 15.3819 6.42084 15.4601C6.53584 15.5267 6.66637 15.5617 6.79925 15.5617C6.93613 15.5617 7.07097 15.5244 7.18878 15.4545C7.25496 15.5881 7.35922 15.6991 7.48841 15.7735C7.6034 15.8401 7.73393 15.8752 7.86681 15.8751C8.12556 15.8751 8.37747 15.7426 8.51919 15.506L8.64359 15.576C8.79944 15.6659 8.95944 15.7113 9.11094 15.7113C9.23472 15.7113 9.35281 15.681 9.45828 15.6201C9.65728 15.5053 9.78559 15.2962 9.80081 15.0668C9.83138 15.0707 9.86222 15.0728 9.89316 15.0728C9.957 15.0728 10.0213 15.0643 10.0848 15.0473C10.2741 14.9966 10.432 14.8757 10.5295 14.7068C10.6039 14.5783 10.6371 14.4302 10.6249 14.2822C10.877 14.2706 11.1185 14.1351 11.2538 13.9008C11.3361 13.7585 11.3702 13.5934 11.351 13.4302C11.4017 13.4268 11.4519 13.4185 11.501 13.4053C11.6989 13.3523 11.8641 13.2258 11.9659 13.0493C12.0344 12.9306 12.0689 12.7939 12.0672 12.6567L13.3528 12.0618C13.3747 12.0844 13.399 12.1044 13.4252 12.1218C13.4968 12.1686 13.577 12.1924 13.6582 12.1924C13.7147 12.1924 13.7717 12.1809 13.8266 12.1576L14.3504 11.9351C14.514 11.8657 14.6282 11.726 14.6637 11.5519C14.9207 10.2942 14.3088 8.75156 13.2085 7.88375L13.2086 7.88382ZM2.54178 11.7492L2.03147 11.5325C1.99978 11.519 1.98263 11.498 1.97572 11.4643C1.74997 10.3597 2.29566 8.99835 3.27325 8.22735C3.29125 8.21316 3.31091 8.206 3.33097 8.206C3.34656 8.206 3.36238 8.21028 3.37788 8.21891L4.03344 8.58357C3.07413 9.39613 2.55869 10.4899 2.54178 11.7492ZM4.78016 13.3331L5.16872 12.6601C5.25747 12.5064 5.45472 12.4536 5.60841 12.5423C5.76209 12.6311 5.81497 12.8283 5.72625 12.982L5.33769 13.655C5.24894 13.8087 5.05175 13.8615 4.898 13.7728C4.74431 13.6841 4.69144 13.4868 4.78016 13.3331V13.3331ZM5.83712 14.7629C5.75369 14.7853 5.66697 14.7741 5.59303 14.7314C5.51909 14.6887 5.46606 14.6192 5.44369 14.5358C5.42131 14.4523 5.43253 14.3657 5.47522 14.2917L6.10506 13.2008C6.14775 13.1268 6.21722 13.0738 6.30069 13.0514C6.32832 13.044 6.35682 13.0402 6.38544 13.0402C6.44103 13.0402 6.49569 13.0546 6.54475 13.0829C6.61869 13.1256 6.67172 13.1951 6.69409 13.2785C6.71644 13.362 6.70525 13.4487 6.66256 13.5226L6.03272 14.6136C5.99003 14.6875 5.92059 14.7405 5.83712 14.7629ZM6.63959 15.0813C6.48591 14.9925 6.43303 14.7953 6.52175 14.6416L7.04147 13.7414C7.08416 13.6674 7.15363 13.6144 7.23709 13.592C7.32056 13.5697 7.40722 13.5809 7.48119 13.6236C7.55512 13.6663 7.60816 13.7357 7.63053 13.8192C7.65287 13.9026 7.64169 13.9893 7.599 14.0633L7.07928 14.9634C6.99053 15.1172 6.79328 15.17 6.63959 15.0813ZM7.70716 15.3947C7.55344 15.3059 7.50059 15.1087 7.58931 14.955L7.97784 14.282C8.02053 14.2081 8.09 14.1551 8.17347 14.1327C8.25694 14.1103 8.34359 14.1215 8.41753 14.1642C8.57125 14.2529 8.62409 14.4502 8.53537 14.6039L8.14681 15.2768C8.05806 15.4306 7.86084 15.4834 7.70716 15.3947ZM9.23956 15.2413C9.14256 15.2973 9.00863 15.2816 8.86022 15.1959L8.73834 15.1274L8.91428 14.8227C8.94384 14.7714 8.96731 14.7168 8.98419 14.6601L9.22119 14.7969C9.33997 14.8655 9.36491 14.9565 9.36491 15.0208C9.36491 15.1108 9.31572 15.1973 9.23959 15.2413H9.23956ZM11.5871 12.8306C11.5436 12.9059 11.4728 12.96 11.3878 12.9828C11.3028 13.0055 11.2144 12.9941 11.1391 12.9506L10.9739 12.8553L10.9737 12.8551C10.9736 12.8551 10.9736 12.8551 10.9736 12.8551L10.007 12.297C9.98214 12.2824 9.95462 12.2729 9.92603 12.269C9.89745 12.2651 9.86838 12.2669 9.84049 12.2743C9.8126 12.2816 9.78644 12.2945 9.76352 12.312C9.74061 12.3295 9.72138 12.3514 9.70696 12.3764C9.69253 12.4014 9.68319 12.4289 9.67947 12.4576C9.67576 12.4862 9.67773 12.5152 9.68529 12.5431C9.69285 12.5709 9.70584 12.597 9.72352 12.6198C9.74119 12.6426 9.7632 12.6617 9.78828 12.6759L10.7551 13.2341C10.9116 13.3245 10.9654 13.5254 10.875 13.682C10.7846 13.8386 10.5836 13.8925 10.427 13.8021L9.28006 13.1399C9.25518 13.1253 9.22765 13.1158 9.19907 13.1119C9.17048 13.108 9.14141 13.1098 9.11352 13.1171C9.08563 13.1245 9.05947 13.1373 9.03655 13.1549C9.01364 13.1724 8.99441 13.1943 8.97999 13.2192C8.96556 13.2442 8.95622 13.2718 8.95251 13.3004C8.94879 13.329 8.95076 13.3581 8.95832 13.3859C8.96588 13.4138 8.97887 13.4398 8.99655 13.4626C9.01422 13.4854 9.03623 13.5045 9.06131 13.5188L10.0428 14.0854C10.1835 14.1667 10.2319 14.3473 10.1507 14.488C10.1116 14.5557 10.048 14.6043 9.97156 14.6248C9.89512 14.6452 9.81575 14.635 9.74809 14.5959L9.43994 14.418L9.43987 14.418L8.95053 14.1355C8.88576 13.9883 8.77569 13.8656 8.63634 13.7853C8.46119 13.6842 8.25659 13.6574 8.06028 13.7101C8.05834 13.7106 8.0565 13.7114 8.05456 13.7119C8.05403 13.7099 8.05366 13.708 8.05312 13.706C8.0005 13.5096 7.87509 13.3458 7.69997 13.2447C7.52484 13.1436 7.32025 13.1169 7.12391 13.1695C7.12197 13.17 7.12012 13.1708 7.11819 13.1713C7.11766 13.1693 7.11728 13.1674 7.11675 13.1654C7.06416 12.969 6.93872 12.8052 6.76356 12.7041C6.58841 12.603 6.38375 12.5763 6.1875 12.6289C6.18566 12.6294 6.18391 12.6301 6.18206 12.6306C6.13272 12.4404 6.01038 12.2693 5.82716 12.1635C5.4645 11.9542 4.99919 12.0788 4.78984 12.4414L4.64103 12.6992L4.35378 12.3901C4.33656 12.3715 4.31626 12.3561 4.29378 12.3445L2.98134 11.668C3.01684 10.5833 3.4495 9.67278 4.26825 8.95903L4.40384 9.03532C5.22103 9.49494 5.85206 9.44019 6.40875 9.39194C6.81566 9.35663 7.15481 9.32747 7.52172 9.49207L6.19953 10.3164C6.0205 10.4281 5.91478 10.5952 5.90191 10.7871C5.88797 10.9945 5.98878 11.214 6.16497 11.3599C6.77259 11.8631 7.33016 11.5907 7.82206 11.3504C8.12425 11.2028 8.43672 11.0501 8.77769 11.0481H8.78472C9.15687 11.0481 9.46109 11.2241 9.783 11.4103L11.4572 12.3769C11.5656 12.4565 11.5877 12.5046 11.6214 12.5917C11.6403 12.6733 11.628 12.7599 11.5871 12.8307L11.5871 12.8306ZM11.6858 12.0037L10.0021 11.0315C9.64422 10.8245 9.27431 10.6105 8.78506 10.6105H8.77509C8.33434 10.6131 7.96016 10.7959 7.63 10.9572C7.10706 11.2127 6.81681 11.3315 6.44397 11.0228C6.37628 10.9668 6.33387 10.8838 6.33841 10.8163C6.33962 10.798 6.34338 10.7423 6.431 10.6876L8.18769 9.59235C8.79328 9.21475 9.34056 9.11453 9.86066 9.286C10.4702 9.48691 11.0829 9.43144 11.6326 9.12566L11.9386 8.95547C12.7523 9.66303 13.1857 10.5644 13.2283 11.6375L11.9309 12.2378C11.8829 12.1683 11.8137 12.0943 11.7042 12.0155C11.6983 12.0113 11.6921 12.0073 11.6858 12.0037V12.0037ZM14.2353 11.4644C14.2283 11.4981 14.2112 11.5191 14.1795 11.5325L13.6691 11.7492C13.6525 10.4907 13.1372 9.39688 12.1775 8.58357L12.8331 8.21894C12.8686 8.19919 12.9058 8.20216 12.9377 8.22735C13.9153 8.99841 14.461 10.3598 14.2353 11.4644ZM15.7017 3.70519L15.4487 3.65528L15.2732 3.23182L15.4169 3.0176C15.5086 2.88085 15.4907 2.69707 15.3742 2.58069L14.8921 2.0986C14.7757 1.98213 14.5919 1.96416 14.4552 2.05591L14.241 2.19957L13.8175 2.02413L13.7676 1.77113C13.7357 1.6096 13.5931 1.49235 13.4285 1.49235H12.7466C12.582 1.49235 12.4393 1.6096 12.4075 1.77113L12.3576 2.02416L11.9341 2.1996L11.7199 2.05594C11.5832 1.96422 11.3994 1.98219 11.283 2.0986L10.8008 2.58072C10.6844 2.69716 10.6665 2.88088 10.7582 3.01766L10.9018 3.23188L10.7264 3.65535L10.4734 3.70525C10.3118 3.7371 10.1946 3.87972 10.1946 4.04438V4.72622C10.1946 4.89091 10.3118 5.0335 10.4734 5.06538L10.7264 5.11525L10.9018 5.53872L10.7582 5.75294C10.6665 5.88966 10.6844 6.07341 10.8008 6.18985L11.283 6.67194C11.3994 6.78841 11.5832 6.80638 11.7199 6.71463L11.9342 6.57097L12.3576 6.74641L12.4075 6.99944C12.4393 7.16097 12.582 7.27825 12.7466 7.27825H13.4285C13.5931 7.27825 13.7357 7.161 13.7676 6.99947L13.8175 6.74644L14.2409 6.571L14.4552 6.71466C14.5919 6.80644 14.7757 6.78841 14.8921 6.67203L15.3742 6.18991C15.4907 6.07347 15.5086 5.88972 15.4169 5.75297L15.2732 5.53875L15.4487 5.11528L15.7017 5.06541C15.8632 5.03357 15.9805 4.89094 15.9805 4.72625V4.04441C15.9805 3.87975 15.8632 3.73713 15.7017 3.70528V3.70519ZM15.543 4.65066L15.2491 4.7086C15.2137 4.71557 15.1807 4.73116 15.1528 4.75399C15.1249 4.77682 15.1031 4.80619 15.0893 4.83947L14.8242 5.47941C14.8104 5.5127 14.8051 5.54889 14.8086 5.58475C14.8122 5.62061 14.8246 5.65504 14.8446 5.68497L15.0115 5.93378L14.6362 6.30913L14.3873 6.14225C14.3574 6.12218 14.323 6.10982 14.2871 6.10626C14.2512 6.1027 14.215 6.10805 14.1818 6.12185L13.5418 6.38697C13.5085 6.40076 13.4792 6.42256 13.4563 6.45044C13.4335 6.47831 13.4179 6.5114 13.4109 6.54675L13.353 6.84063H12.8222L12.7642 6.54672C12.7572 6.51137 12.7417 6.47829 12.7188 6.45041C12.696 6.42254 12.6666 6.40073 12.6333 6.38694L11.9934 6.12185C11.9601 6.10805 11.9239 6.1027 11.8881 6.10626C11.8522 6.10982 11.8178 6.12218 11.7878 6.14225L11.539 6.30913L11.1637 5.93378L11.3305 5.68497C11.3506 5.65504 11.363 5.62062 11.3665 5.58475C11.3701 5.54889 11.3647 5.5127 11.3509 5.47941L11.0858 4.83947C11.072 4.80618 11.0502 4.77681 11.0223 4.75398C10.9945 4.73115 10.9614 4.71556 10.926 4.7086L10.6322 4.65066V4.11982L10.926 4.06188C10.9614 4.05491 10.9945 4.03932 11.0223 4.01649C11.0502 3.99365 11.072 3.96429 11.0858 3.931L11.3509 3.29107C11.3647 3.25777 11.3701 3.22159 11.3665 3.18572C11.363 3.14986 11.3506 3.11544 11.3305 3.0855L11.1637 2.83669L11.539 2.46135L11.7878 2.62819C11.8178 2.64825 11.8522 2.66061 11.8881 2.66417C11.9239 2.66773 11.9601 2.66238 11.9934 2.6486L12.6333 2.38347C12.6666 2.36968 12.696 2.34788 12.7188 2.32001C12.7417 2.29213 12.7573 2.25904 12.7642 2.22369L12.8222 1.92982H13.353L13.4109 2.22369C13.4179 2.25904 13.4335 2.29212 13.4563 2.32C13.4792 2.34787 13.5085 2.36968 13.5418 2.38347L14.1818 2.6486C14.215 2.66238 14.2512 2.66773 14.2871 2.66417C14.323 2.66061 14.3574 2.64825 14.3873 2.62819L14.6361 2.46135L15.0115 2.83669L14.8446 3.0855C14.8245 3.11543 14.8122 3.14986 14.8086 3.18572C14.8051 3.22159 14.8104 3.25777 14.8242 3.29107L15.0893 3.931C15.1031 3.96429 15.1249 3.99366 15.1528 4.0165C15.1807 4.03933 15.2137 4.05492 15.2491 4.06188L15.543 4.11982V4.65066ZM13.0875 2.7951C12.2107 2.7951 11.4974 3.50844 11.4974 4.38522C11.4974 5.262 12.2107 5.97538 13.0875 5.97538C13.9643 5.97538 14.6777 5.26203 14.6777 4.38522C14.6777 3.50841 13.9643 2.7951 13.0875 2.7951ZM13.0875 5.53788C12.452 5.53788 11.9349 5.02082 11.9349 4.38522C11.9349 3.74963 12.452 3.2326 13.0875 3.2326C13.7231 3.2326 14.2402 3.74966 14.2402 4.38522C14.2402 5.02078 13.7231 5.53788 13.0875 5.53788ZM6.01631 4.38522C6.01631 2.79007 4.71856 1.49228 3.12337 1.49228C1.52819 1.49228 0.230469 2.79003 0.230469 4.38519C0.230469 5.98035 1.52822 7.27813 3.12341 7.27813C4.71859 7.27813 6.01634 5.98038 6.01634 4.38519L6.01631 4.38522ZM0.667969 4.38522C0.667969 3.03128 1.76947 1.92978 3.12341 1.92978C4.47734 1.92978 5.57884 3.03128 5.57884 4.38522C5.57884 5.73916 4.47734 6.84066 3.12341 6.84066C1.76947 6.84066 0.667969 5.73916 0.667969 4.38522ZM3.34216 4.29463L4.11212 5.0646C4.13244 5.08491 4.14855 5.10903 4.15954 5.13557C4.17053 5.16211 4.17619 5.19055 4.17619 5.21928C4.17619 5.24801 4.17053 5.27645 4.15953 5.30299C4.14854 5.32953 4.13242 5.35364 4.11211 5.37396C4.0918 5.39427 4.06768 5.41038 4.04114 5.42137C4.0146 5.43236 3.98615 5.43802 3.95743 5.43802C3.9287 5.43802 3.90025 5.43236 3.87372 5.42136C3.84718 5.41037 3.82306 5.39425 3.80275 5.37394L2.96872 4.53991C2.9277 4.49888 2.90466 4.44324 2.90466 4.38522V3.14807C2.90466 3.09005 2.9277 3.03441 2.96873 2.99339C3.00975 2.95236 3.06539 2.92932 3.12341 2.92932C3.18142 2.92932 3.23706 2.95236 3.27809 2.99339C3.31911 3.03441 3.34216 3.09005 3.34216 3.14807V4.29463ZM4.42909 3.0795C4.40588 3.05629 4.38746 3.02872 4.3749 2.99839C4.36234 2.96806 4.35587 2.93554 4.35587 2.90271C4.35587 2.86988 4.36234 2.83737 4.37491 2.80703C4.38748 2.7767 4.40589 2.74914 4.42911 2.72592C4.45233 2.70271 4.47989 2.68429 4.51022 2.67173C4.54056 2.65917 4.57307 2.6527 4.6059 2.6527C4.63873 2.65271 4.67125 2.65917 4.70158 2.67174C4.73191 2.68431 4.75947 2.70272 4.78269 2.72594C4.8059 2.74916 4.82432 2.77672 4.83688 2.80705C4.84944 2.83739 4.85591 2.8699 4.85591 2.90273C4.85591 2.93557 4.84944 2.96808 4.83687 2.99841C4.82431 3.02874 4.80589 3.0563 4.78267 3.07952C4.75945 3.10273 4.73189 3.12115 4.70156 3.13371C4.67122 3.14628 4.63871 3.15274 4.60588 3.15274C4.57305 3.15274 4.54054 3.14627 4.5102 3.1337C4.47987 3.12114 4.45231 3.10272 4.42909 3.0795ZM1.27688 4.38525C1.27688 4.45156 1.25054 4.51515 1.20365 4.56203C1.15677 4.60891 1.09318 4.63525 1.02688 4.63525C0.960571 4.63525 0.896982 4.60891 0.850098 4.56203C0.803214 4.51515 0.776875 4.45156 0.776875 4.38525C0.776875 4.31895 0.803214 4.25536 0.850098 4.20848C0.896982 4.16159 0.960571 4.13525 1.02688 4.13525C1.09318 4.13525 1.15677 4.16159 1.20365 4.20848C1.25054 4.25536 1.27688 4.31895 1.27688 4.38525ZM4.96997 4.38522C4.96997 4.31892 4.99631 4.25533 5.04319 4.20845C5.09008 4.16156 5.15366 4.13522 5.21997 4.13522C5.28627 4.13522 5.34986 4.16156 5.39675 4.20845C5.44363 4.25533 5.46997 4.31892 5.46997 4.38522C5.46997 4.45153 5.44363 4.51511 5.39675 4.562C5.34986 4.60888 5.28627 4.63522 5.21997 4.63522C5.15366 4.63522 5.09008 4.60888 5.04319 4.562C4.99631 4.51511 4.96997 4.45153 4.96997 4.38522ZM4.78272 5.69094C4.8296 5.73783 4.85594 5.80142 4.85594 5.86773C4.85594 5.93404 4.82959 5.99763 4.7827 6.04452C4.73581 6.0914 4.67222 6.11774 4.60591 6.11774C4.5396 6.11774 4.47601 6.09139 4.42912 6.0445C4.40591 6.02129 4.3875 5.99372 4.37493 5.96339C4.36237 5.93305 4.3559 5.90054 4.3559 5.86771C4.35591 5.83488 4.36237 5.80237 4.37494 5.77203C4.38751 5.7417 4.40592 5.71414 4.42914 5.69092C4.45236 5.66771 4.47992 5.64929 4.51025 5.63673C4.54059 5.62417 4.5731 5.6177 4.60593 5.6177C4.63877 5.61771 4.67128 5.62417 4.70161 5.63674C4.73194 5.64931 4.7595 5.66772 4.78272 5.69094ZM2.87344 2.28869C2.87344 2.22239 2.89978 2.1588 2.94666 2.11191C2.99354 2.06503 3.05713 2.03869 3.12344 2.03869C3.18974 2.03869 3.25333 2.06503 3.30021 2.11191C3.3471 2.1588 3.37344 2.22239 3.37344 2.28869C3.37344 2.35499 3.3471 2.41858 3.30021 2.46547C3.25333 2.51235 3.18974 2.53869 3.12344 2.53869C3.05713 2.53869 2.99354 2.51235 2.94666 2.46547C2.89978 2.41858 2.87344 2.35499 2.87344 2.28869ZM3.12347 6.73178C3.05716 6.73178 2.99358 6.70544 2.94669 6.65856C2.89981 6.61168 2.87347 6.54809 2.87347 6.48178C2.87347 6.41548 2.89981 6.35189 2.94669 6.30501C2.99358 6.25812 3.05716 6.23178 3.12347 6.23178C3.18977 6.23178 3.25336 6.25812 3.30025 6.30501C3.34713 6.35189 3.37347 6.41548 3.37347 6.48178C3.37347 6.54809 3.34713 6.61168 3.30025 6.65856C3.25336 6.70544 3.18977 6.73178 3.12347 6.73178ZM1.81775 5.69094C1.86464 5.73783 1.89097 5.80142 1.89097 5.86773C1.89097 5.93404 1.86462 5.99763 1.81773 6.04452C1.77084 6.0914 1.70725 6.11774 1.64094 6.11774C1.57463 6.11774 1.51104 6.09139 1.46416 6.0445C1.41727 5.99761 1.39093 5.93402 1.39094 5.86771C1.39094 5.8014 1.41728 5.73781 1.46417 5.69092C1.51106 5.64404 1.57466 5.6177 1.64096 5.6177C1.70727 5.61771 1.77086 5.64405 1.81775 5.69094ZM1.46416 3.07953C1.41727 3.03264 1.39093 2.96905 1.39094 2.90274C1.39094 2.83643 1.41728 2.77284 1.46417 2.72596C1.51106 2.67907 1.57466 2.65273 1.64096 2.65274C1.70727 2.65274 1.77086 2.67908 1.81775 2.72597C1.86464 2.77286 1.89097 2.83646 1.89097 2.90276C1.89097 2.96907 1.86462 3.03266 1.81773 3.07955C1.77084 3.12644 1.70725 3.15277 1.64094 3.15277C1.57463 3.15277 1.51104 3.12642 1.46416 3.07953ZM5.09462 1.72763C5.05263 1.68761 5.02825 1.63254 5.02685 1.57455C5.02545 1.51656 5.04714 1.46038 5.08716 1.41838C5.88184 0.584253 6.95378 0.124878 8.10547 0.124878C8.98328 0.124878 9.83347 0.40094 10.5394 0.909034L10.4929 0.73019C10.4783 0.674048 10.4866 0.614401 10.5159 0.56437C10.5453 0.51434 10.5933 0.478023 10.6495 0.463409C10.7662 0.432878 10.8858 0.503065 10.9163 0.620003L11.1386 1.47432C11.1473 1.50737 11.148 1.54198 11.1408 1.57538C11.1337 1.60879 11.1188 1.64004 11.0974 1.66665C11.0759 1.69325 11.0486 1.71447 11.0175 1.72859C10.9864 1.74272 10.9524 1.74935 10.9183 1.74797L10.0631 1.714C10.0051 1.7117 9.95042 1.68646 9.91106 1.64384C9.8717 1.60123 9.85088 1.54472 9.85319 1.48675C9.85549 1.42879 9.88073 1.37411 9.92335 1.33475C9.96596 1.29539 10.0225 1.27457 10.0804 1.27688L10.3141 1.28616C9.67386 0.815669 8.90001 0.562086 8.10547 0.562409C7.07466 0.562409 6.11519 0.973565 5.40387 1.72016C5.38346 1.74164 5.35889 1.75873 5.33166 1.77039C5.30442 1.78206 5.2751 1.78805 5.24547 1.788C5.18928 1.78807 5.13523 1.76644 5.09459 1.72763H5.09462ZM8.1055 8.46175C7.22769 8.46175 6.3775 8.18572 5.67153 7.6776L5.71809 7.85644C5.73206 7.91237 5.72339 7.97154 5.69397 8.02111C5.66454 8.07068 5.61674 8.10663 5.56096 8.12115C5.50518 8.13566 5.44591 8.12758 5.39606 8.09864C5.34621 8.06971 5.30979 8.02227 5.29472 7.96663L5.07234 7.11232C5.06372 7.07926 5.06296 7.04465 5.07012 7.01125C5.07729 6.97785 5.09218 6.94659 5.11361 6.91998C5.13503 6.89338 5.16239 6.87216 5.1935 6.85804C5.2246 6.84392 5.25859 6.83728 5.29272 6.83866L6.14791 6.87263C6.17661 6.87376 6.20481 6.88054 6.23089 6.89258C6.25698 6.90461 6.28043 6.92167 6.29992 6.94277C6.31941 6.96388 6.33455 6.98861 6.34448 7.01557C6.35441 7.04253 6.35893 7.07117 6.35778 7.09988C6.353 7.2206 6.25072 7.31472 6.13053 7.30975L5.89684 7.30047C6.5371 7.77097 7.31096 8.02455 8.1055 8.02422C9.13631 8.02422 10.0958 7.61307 10.8071 6.86647C10.8473 6.82522 10.9021 6.80148 10.9597 6.80041C11.0173 6.79934 11.073 6.82102 11.1147 6.86075C11.1564 6.90048 11.1807 6.95505 11.1824 7.01262C11.1841 7.0702 11.1631 7.12612 11.1238 7.16825C10.3291 8.00235 9.25719 8.46172 8.10547 8.46172L8.1055 8.46175Z" fill="#545454"/>
</g>
<defs>
<clipPath id="clip0_8038_1639">
<rect width="16" height="16" fill="white" transform="translate(0.105469)"/>
</clipPath>
</defs>
</svg>
