<svg width="16" height="16" viewBox="0 0 16 16" fill="none" xmlns="http://www.w3.org/2000/svg">
<g clip-path="url(#clip0_7524_3054)">
<path d="M7.99981 0.550049C3.89181 0.550049 0.549805 3.89205 0.549805 8.00005C0.549805 12.108 3.89181 15.4501 7.99981 15.4501C12.1078 15.4501 15.4498 12.108 15.4498 8.00005C15.4498 3.89205 12.1078 0.550049 7.99981 0.550049ZM7.99981 14.5501C4.3883 14.5501 1.4498 11.6121 1.4498 8.00005C1.4498 4.38855 4.3883 1.45005 7.99981 1.45005C11.6113 1.45005 14.5498 4.38855 14.5498 8.00005C14.5498 11.6121 11.6113 14.5501 7.99981 14.5501Z" fill="#FF9900"/>
<path d="M10.6868 7.55011H6.39832L6.73632 7.21211C6.77817 7.1704 6.81137 7.12084 6.83403 7.06627C6.85668 7.0117 6.86834 6.9532 6.86834 6.89411C6.86834 6.83503 6.85668 6.77652 6.83403 6.72195C6.81137 6.66738 6.77817 6.61782 6.73632 6.57611C6.69461 6.53426 6.64505 6.50106 6.59048 6.47841C6.53591 6.45575 6.47741 6.44409 6.41832 6.44409C6.35924 6.44409 6.30074 6.45575 6.24617 6.47841C6.1916 6.50106 6.14204 6.53426 6.10032 6.57611L4.99432 7.68211C4.95248 7.72382 4.91928 7.77338 4.89662 7.82795C4.87397 7.88252 4.8623 7.94103 4.8623 8.00011C4.8623 8.0592 4.87397 8.1177 4.89662 8.17227C4.91928 8.22684 4.95248 8.2764 4.99432 8.31811L6.10032 9.42411C6.142 9.46602 6.19155 9.49927 6.24613 9.52196C6.3007 9.54466 6.35922 9.55634 6.41832 9.55634C6.47743 9.55634 6.53595 9.54466 6.59052 9.52196C6.64509 9.49927 6.69465 9.46602 6.73632 9.42411C6.77813 9.38232 6.81129 9.33271 6.83391 9.2781C6.85653 9.2235 6.86818 9.16497 6.86818 9.10586C6.86818 9.04675 6.85653 8.98823 6.83391 8.93362C6.81129 8.87901 6.77813 8.8294 6.73632 8.78761L6.39832 8.45011H10.6868C10.8062 8.45011 10.9206 8.4027 11.005 8.31831C11.0894 8.23392 11.1368 8.11946 11.1368 8.00011C11.1368 7.88076 11.0894 7.7663 11.005 7.68191C10.9206 7.59752 10.8062 7.55011 10.6868 7.55011Z" fill="#FF9900"/>
</g>
<defs>
<clipPath id="clip0_7524_3054">
<rect width="16" height="16" fill="white"/>
</clipPath>
</defs>
</svg>
