<svg width="52" height="59" viewBox="0 0 52 59" fill="none" xmlns="http://www.w3.org/2000/svg">
<path d="M26.7858 32.7723H25.2143C23.712 32.7723 22.4987 33.9937 22.4987 35.4803V36.7479C22.4987 38.2459 23.7236 39.4559 25.2143 39.4559H26.7858C28.288 39.4559 29.5014 38.2344 29.5014 36.7479V35.4803C29.5129 33.9937 28.288 32.7723 26.7858 32.7723ZM27.7796 36.7594C27.7796 37.301 27.3405 37.7389 26.7974 37.7389H25.2258C24.6827 37.7389 24.2436 37.301 24.2436 36.7594V35.4918C24.2436 34.9502 24.6827 34.5123 25.2258 34.5123H26.7974C27.3405 34.5123 27.7796 34.9502 27.7796 35.4918V36.7594ZM28.6809 16.4205C28.6578 16.893 29.016 17.3078 29.5014 17.3309C29.9751 17.3539 30.3911 16.9967 30.4143 16.5127L30.4951 15.0377C30.5645 13.7932 30.1254 12.6062 29.2703 11.6959C28.4151 10.7855 27.248 10.29 26 10.29C24.752 10.29 23.5849 10.7855 22.7298 11.6959C21.8747 12.6062 21.4356 13.7932 21.5049 15.0377L22.2098 27.5291C22.3138 29.2691 23.7583 30.6289 25.5031 30.6289H26.4969C28.2418 30.6289 29.6978 29.2691 29.7903 27.5291L30.2178 19.9697C30.2409 19.4973 29.8827 19.0824 29.3974 19.0594C28.9236 19.0363 28.5076 19.3936 28.4845 19.8775L28.0569 27.4369C28.0107 28.2666 27.3289 28.9119 26.4969 28.9119H25.5031C24.6711 28.9119 23.9894 28.2666 23.9431 27.4369L23.2383 14.9455C23.192 14.185 23.4578 13.4475 23.9894 12.8943C24.5209 12.3412 25.2374 12.0301 26 12.0301C26.7743 12.0301 27.4791 12.3412 28.0107 12.8943C28.5423 13.4475 28.808 14.185 28.7618 14.9455L28.6809 16.4205Z" fill="#FF9900"/>
<path d="M44.3269 7.5248C39.4158 2.67344 32.91 0 25.9998 0C25.942 0 25.8727 0 25.8149 0C22.1287 0.0230469 18.5811 0.818164 15.2415 2.33926C12.0175 3.81426 9.17488 5.88848 6.77133 8.52734C6.44777 8.88457 6.47088 9.42617 6.8291 9.74883C7.18733 10.0715 7.73044 10.0484 8.05399 9.69121C10.2958 7.23672 12.9535 5.28926 15.958 3.91797C19.0664 2.48906 22.3944 1.75156 25.8264 1.72852C25.8842 1.72852 25.942 1.72852 25.9998 1.72852C32.4478 1.72852 38.5144 4.21758 43.102 8.75781C47.7242 13.3326 50.2664 19.44 50.2664 25.9277C50.2664 30.2605 49.0993 34.5127 46.9038 38.2232C44.766 41.8301 41.7153 44.8377 38.0753 46.9234C37.6593 47.1654 37.5322 47.6955 37.7749 48.1103C38.0175 48.5137 38.526 48.652 38.942 48.4215C42.8362 46.1859 46.1064 42.9709 48.3944 39.1105C50.7518 35.135 51.9998 30.5717 51.9998 25.9277C51.9998 18.9676 49.2727 12.4338 44.3269 7.5248ZM35.0593 48.3869C34.2735 48.698 33.4762 48.9746 32.6673 49.2051C31.4887 49.5393 30.518 50.2998 29.9055 51.3369L26.7162 56.8566C26.4967 57.2254 26.15 57.2715 25.9998 57.2715C25.8495 57.2715 25.5029 57.2369 25.2833 56.8566L22.094 51.3369C21.4931 50.2998 20.5109 49.5393 19.3322 49.2051C14.398 47.7992 9.93755 44.7801 6.78288 40.7123C3.52421 36.5062 1.77933 31.4705 1.7331 26.1467C1.68688 21.2031 3.15444 16.4209 5.96244 12.3301C6.22821 11.9383 6.12421 11.3967 5.73133 11.1316C5.33844 10.8666 4.79533 10.9703 4.52955 11.3506C1.5251 15.741 -0.0464519 20.8574 -0.000229687 26.1582C0.0459925 31.8623 1.91799 37.2668 5.40777 41.7725C8.79355 46.1398 13.566 49.3664 18.8584 50.876C19.598 51.0834 20.2104 51.5559 20.5918 52.2127L23.7811 57.7324C24.2433 58.5275 25.0753 59.0115 25.9998 59.0115C26.9242 59.0115 27.7562 58.5391 28.2184 57.7324L31.4078 52.2127C31.7891 51.5674 32.4015 51.0834 33.1411 50.876C34.0078 50.634 34.8629 50.3344 35.7064 50.0002C36.1571 49.8273 36.3767 49.3203 36.2033 48.8824C36.03 48.433 35.5215 48.2141 35.0824 48.3869C35.0709 48.3869 35.0593 48.3869 35.0593 48.3869Z" fill="#FF9900"/>
</svg>
