<svg width="18" height="18" viewBox="0 0 18 18" fill="none" xmlns="http://www.w3.org/2000/svg">
<g clip-path="url(#clip0_9627_2488)">
<path d="M16.125 15.75H1.875C1.3779 15.7494 0.901334 15.5517 0.549832 15.2002C0.198331 14.8487 0.000595447 14.3721 0 13.875L0 4.125C0 3.0915 0.8415 2.25 1.875 2.25H16.125C17.1585 2.25 18 3.0915 18 4.125V13.875C18 14.9085 17.1585 15.75 16.125 15.75ZM1.875 3C1.25475 3 0.75 3.50475 0.75 4.125V13.875C0.75 14.4952 1.25475 15 1.875 15H16.125C16.7453 15 17.25 14.4952 17.25 13.875V4.125C17.25 3.50475 16.7453 3 16.125 3H1.875Z" fill="#1E866F"/>
<path d="M5.625 9C4.5915 9 3.75 8.1585 3.75 7.125C3.75 6.0915 4.5915 5.25 5.625 5.25C6.6585 5.25 7.5 6.0915 7.5 7.125C7.5 8.1585 6.6585 9 5.625 9ZM5.625 6C5.00475 6 4.5 6.50475 4.5 7.125C4.5 7.74525 5.00475 8.25 5.625 8.25C6.24525 8.25 6.75 7.74525 6.75 7.125C6.75 6.50475 6.24525 6 5.625 6ZM8.625 12.75C8.52554 12.75 8.43016 12.7105 8.35983 12.6402C8.28951 12.5698 8.25 12.4745 8.25 12.375V11.625C8.25 11.0048 7.74525 10.5 7.125 10.5H4.125C3.50475 10.5 3 11.0048 3 11.625V12.375C3 12.4745 2.96049 12.5698 2.89016 12.6402C2.81984 12.7105 2.72446 12.75 2.625 12.75C2.52554 12.75 2.43016 12.7105 2.35984 12.6402C2.28951 12.5698 2.25 12.4745 2.25 12.375V11.625C2.25 10.5915 3.0915 9.75 4.125 9.75H7.125C8.1585 9.75 9 10.5915 9 11.625V12.375C9 12.4745 8.96049 12.5698 8.89017 12.6402C8.81984 12.7105 8.72446 12.75 8.625 12.75ZM15.375 6.75H10.875C10.7755 6.75 10.6802 6.71049 10.6098 6.64017C10.5395 6.56984 10.5 6.47446 10.5 6.375C10.5 6.27554 10.5395 6.18016 10.6098 6.10983C10.6802 6.03951 10.7755 6 10.875 6H15.375C15.4745 6 15.5698 6.03951 15.6402 6.10983C15.7105 6.18016 15.75 6.27554 15.75 6.375C15.75 6.47446 15.7105 6.56984 15.6402 6.64017C15.5698 6.71049 15.4745 6.75 15.375 6.75ZM15.375 9.75H10.875C10.7755 9.75 10.6802 9.71049 10.6098 9.64017C10.5395 9.56984 10.5 9.47446 10.5 9.375C10.5 9.27554 10.5395 9.18016 10.6098 9.10983C10.6802 9.03951 10.7755 9 10.875 9H15.375C15.4745 9 15.5698 9.03951 15.6402 9.10983C15.7105 9.18016 15.75 9.27554 15.75 9.375C15.75 9.47446 15.7105 9.56984 15.6402 9.64017C15.5698 9.71049 15.4745 9.75 15.375 9.75ZM15.375 12.75H10.875C10.7755 12.75 10.6802 12.7105 10.6098 12.6402C10.5395 12.5698 10.5 12.4745 10.5 12.375C10.5 12.2755 10.5395 12.1802 10.6098 12.1098C10.6802 12.0395 10.7755 12 10.875 12H15.375C15.4745 12 15.5698 12.0395 15.6402 12.1098C15.7105 12.1802 15.75 12.2755 15.75 12.375C15.75 12.4745 15.7105 12.5698 15.6402 12.6402C15.5698 12.7105 15.4745 12.75 15.375 12.75Z" fill="#1E866F"/>
</g>
<defs>
<clipPath id="clip0_9627_2488">
<rect width="18" height="18" fill="white"/>
</clipPath>
</defs>
</svg>
