<svg width="71" height="71" viewBox="0 0 71 71" fill="none" xmlns="http://www.w3.org/2000/svg">
<g clip-path="url(#clip0_2124_250)">
<path d="M35.5001 5.91602C51.839 5.91602 65.0834 19.1605 65.0834 35.4993C65.0834 51.8382 51.839 65.0827 35.5001 65.0827C19.1612 65.0827 5.91675 51.8382 5.91675 35.4993C5.91675 19.1605 19.1612 5.91602 35.5001 5.91602ZM35.4705 29.5827H32.5417C31.7877 29.5835 31.0625 29.8722 30.5142 30.3899C29.9659 30.9075 29.636 31.6149 29.5918 32.3676C29.5476 33.1204 29.7925 33.8616 30.2764 34.4398C30.7604 35.018 31.4469 35.3896 32.1956 35.4786L32.5417 35.4993V50.2614C32.5417 51.7998 33.7073 53.0718 35.2042 53.2316L35.5297 53.2493H36.9792C37.6014 53.2494 38.2078 53.0532 38.712 52.6888C39.2163 52.3244 39.5929 51.8102 39.7882 51.2195C39.9834 50.6288 39.9875 49.9915 39.7997 49.3983C39.612 48.8052 39.242 48.2863 38.7424 47.9155L38.4584 47.7291V32.5706C38.4584 31.0323 37.2928 29.7602 35.7959 29.6004L35.4705 29.5827ZM35.5001 20.7077C34.7155 20.7077 33.963 21.0194 33.4082 21.5742C32.8534 22.129 32.5417 22.8814 32.5417 23.666C32.5417 24.4506 32.8534 25.2031 33.4082 25.7579C33.963 26.3127 34.7155 26.6243 35.5001 26.6243C36.2847 26.6243 37.0371 26.3127 37.5919 25.7579C38.1467 25.2031 38.4584 24.4506 38.4584 23.666C38.4584 22.8814 38.1467 22.129 37.5919 21.5742C37.0371 21.0194 36.2847 20.7077 35.5001 20.7077Z" fill="#FD9C09"/>
</g>
<defs>
<clipPath id="clip0_2124_250">
<rect width="71" height="71" fill="white"/>
</clipPath>
</defs>
</svg>
