<svg width="66" height="50" viewBox="0 0 66 50" fill="none" xmlns="http://www.w3.org/2000/svg">
<path d="M4.53653 29.4329H5.52933V36.0833C5.52946 36.3248 5.59389 36.5619 5.71599 36.7702C5.8381 36.9785 6.01347 37.1506 6.22409 37.2687C6.43471 37.3868 6.67299 37.4468 6.91443 37.4423C7.15587 37.4378 7.39177 37.3692 7.59789 37.2434L20.3968 29.4329H28.4317V36.8612C28.4332 37.97 28.8742 39.033 29.6581 39.8172C30.442 40.6014 31.5049 41.0428 32.6137 41.0446H45.5976L58.4048 48.8482C58.611 48.9738 58.8468 49.0421 59.0882 49.0464C59.3296 49.0506 59.5677 48.9905 59.7781 48.8722C59.9886 48.754 60.1638 48.5819 60.2857 48.3736C60.4076 48.1652 60.4719 47.9282 60.472 47.6868V41.0446H61.4634C62.5704 41.0435 63.6318 40.6032 64.4145 39.8205C65.1973 39.0377 65.6375 37.9764 65.6386 36.8694V16.7482C65.6368 15.6393 65.1954 14.5765 64.4113 13.7926C63.6271 13.0086 62.5641 12.5676 61.4552 12.5662H37.5587V5.12832C37.5576 4.02132 37.1174 2.95997 36.3346 2.17721C35.5518 1.39444 34.4905 0.954205 33.3835 0.953125H4.53653C3.42773 0.956007 2.36536 1.39868 1.58259 2.184C0.799825 2.96932 0.360605 4.03312 0.361329 5.14192V25.2563C0.362409 26.3633 0.802642 27.4247 1.58541 28.2074C2.36818 28.9902 3.42953 29.4304 4.53653 29.4315V29.4329ZM62.9173 16.7482V36.8694C62.9173 37.6718 62.2645 38.3246 61.4621 38.3246H59.112C58.7513 38.3246 58.4054 38.4678 58.1503 38.7229C57.8953 38.9779 57.752 39.3239 57.752 39.6846V45.266L46.6856 38.5231C46.4726 38.3933 46.2279 38.3246 45.9784 38.3246H32.6137C32.226 38.3238 31.8543 38.1694 31.5803 37.8951C31.3062 37.6208 31.1521 37.249 31.1517 36.8612V16.74C31.1517 15.9376 31.8045 15.2848 32.6056 15.2848H61.4552C62.2617 15.2848 62.9173 15.9417 62.9173 16.7482ZM3.08269 5.14464C3.08269 4.33408 3.73549 3.67584 4.53789 3.67584H33.3835C34.1859 3.67584 34.8387 4.32865 34.8387 5.13105V12.5675H32.6056C31.4986 12.5686 30.4372 13.0088 29.6545 13.7916C28.8717 14.5744 28.4314 15.6357 28.4304 16.7427V26.7142H20.0147C19.7652 26.7142 19.5205 26.7829 19.3075 26.9128L8.25069 33.6611V28.0742C8.25069 27.7136 8.1074 27.3676 7.85235 27.1126C7.5973 26.8575 7.25138 26.7142 6.89069 26.7142H4.53789C3.73549 26.7142 3.08269 26.0614 3.08269 25.259V5.14464Z" fill="#1E866F"/>
<path d="M43.2258 25.072C43.5865 25.072 43.9325 24.9287 44.1875 24.6736C44.4426 24.4186 44.5858 24.0727 44.5858 23.712C44.5858 23.0156 44.8823 22.352 45.4018 21.8868C45.6596 21.6546 45.9641 21.4803 46.2949 21.3754C46.6256 21.2706 46.9749 21.2377 47.3194 21.2789C48.421 21.4013 49.3458 22.3248 49.4682 23.4277C49.5231 23.8938 49.4427 24.3658 49.2365 24.7874C49.0303 25.2089 48.707 25.5622 48.3054 25.805C46.6585 26.8114 45.6738 28.5359 45.6738 30.4208C45.6738 30.7815 45.8171 31.1275 46.0722 31.3825C46.3272 31.6376 46.6731 31.7808 47.0338 31.7808C47.3945 31.7808 47.7405 31.6376 47.9955 31.3825C48.2506 31.1275 48.3938 30.7815 48.3938 30.4208C48.3938 29.492 48.8916 28.6338 49.7226 28.1265C50.5674 27.6164 51.2475 26.8738 51.6816 25.9875C52.1157 25.1012 52.2855 24.1087 52.1706 23.1285C52.0355 21.9674 51.5122 20.8859 50.6855 20.0594C49.8588 19.2329 48.7771 18.7099 47.6159 18.5752C46.8918 18.4966 46.1591 18.5703 45.4651 18.7916C44.7712 19.013 44.1311 19.377 43.5862 19.8604C43.0451 20.3456 42.6122 20.9393 42.3158 21.6029C42.0194 22.2666 41.866 22.9852 41.8658 23.712C41.8658 24.0727 42.0091 24.4186 42.2642 24.6736C42.5192 24.9287 42.8651 25.072 43.2258 25.072ZM47.0352 32.7138C46.6745 32.7138 46.3286 32.8571 46.0735 33.1121C45.8185 33.3672 45.6752 33.7131 45.6752 34.0738V34.528C45.6752 34.8887 45.8185 35.2347 46.0735 35.4897C46.3286 35.7448 46.6745 35.888 47.0352 35.888C47.3959 35.888 47.7418 35.7448 47.9969 35.4897C48.2519 35.2347 48.3952 34.8887 48.3952 34.528V34.0738C48.3952 33.7131 48.2519 33.3672 47.9969 33.1121C47.7418 32.8571 47.3959 32.7138 47.0352 32.7138ZM18.9022 24.7632C19.2629 24.7632 19.6089 24.62 19.8639 24.3649C20.119 24.1099 20.2622 23.7639 20.2622 23.4032V22.9204C20.2622 22.5597 20.119 22.2138 19.8639 21.9588C19.6089 21.7037 19.2629 21.5604 18.9022 21.5604C18.5415 21.5604 18.1956 21.7037 17.9406 21.9588C17.6855 22.2138 17.5422 22.5597 17.5422 22.9204V23.4032C17.5422 23.7639 17.6855 24.1099 17.9406 24.3649C18.1956 24.62 18.5415 24.7632 18.9022 24.7632ZM19.0151 20.2725C19.3758 20.2725 19.7217 20.1292 19.9768 19.8742C20.2318 19.6191 20.3751 19.2732 20.3751 18.9125V7.00844C20.3751 6.64774 20.2318 6.30182 19.9768 6.04677C19.7217 5.79172 19.3758 5.64844 19.0151 5.64844C18.6544 5.64844 18.3085 5.79172 18.0535 6.04677C17.7984 6.30182 17.6551 6.64774 17.6551 7.00844V18.9125C17.6551 19.2732 17.7984 19.6191 18.0535 19.8742C18.3085 20.1292 18.6544 20.2725 19.0151 20.2725Z" fill="#1E866F"/>
</svg>
