<svg width="12" height="16" viewBox="0 0 12 16" fill="none" xmlns="http://www.w3.org/2000/svg">
<path d="M2.72754 8.82381H7.09118V9.92678H2.72754V8.82381ZM2.72754 6.06641H9.27299V7.16937H2.72754V6.06641ZM2.72754 11.5812H5.45481V12.6842H2.72754V11.5812Z" fill="#FF9C07"/>
<path d="M10.9091 1.65444H9.27273V1.10296C9.27273 0.810439 9.15779 0.529896 8.95321 0.32305C8.74862 0.116205 8.47115 0 8.18182 0H3.81818C3.52885 0 3.25138 0.116205 3.04679 0.32305C2.84221 0.529896 2.72727 0.810439 2.72727 1.10296V1.65444H1.09091C0.801582 1.65445 0.524105 1.77065 0.31952 1.9775C0.114935 2.18434 0 2.46488 0 2.75741V14.3385C0 14.631 0.114935 14.9116 0.31952 15.1184C0.524105 15.3253 0.801582 15.4415 1.09091 15.4415H10.9091C11.1984 15.4415 11.4759 15.3253 11.6805 15.1184C11.8851 14.9116 12 14.631 12 14.3385V2.75741C12 2.46488 11.8851 2.18434 11.6805 1.9775C11.4759 1.77065 11.1984 1.65445 10.9091 1.65444ZM3.81818 1.10296H8.18182V3.30889H3.81818V1.10296ZM10.9091 14.3385H1.09091V2.75741H2.72727V4.41185H9.27273V2.75741H10.9091V14.3385Z" fill="#FF9C07"/>
</svg>
