<svg width="16" height="10" viewBox="0 0 16 10" fill="none" xmlns="http://www.w3.org/2000/svg">
<path d="M14.1333 0.466675H1.86667C0.836233 0.467841 0.00116667 1.30291 0 2.33334V7.66668C0.00116667 8.69711 0.836233 9.53218 1.86667 9.53334H14.1333C15.1638 9.53218 15.9988 8.69711 16 7.66668V2.33334C15.9988 1.30291 15.1638 0.467841 14.1333 0.466675ZM15.4667 7.66668C15.4658 8.40268 14.8693 8.99914 14.1333 9.00001H1.86667C1.13067 8.99914 0.5342 8.40268 0.533333 7.66668V2.33334C0.5342 1.59734 1.13067 1.00087 1.86667 1.00001H14.1333C14.8693 1.00087 15.4658 1.59734 15.4667 2.33334V7.66668Z" fill="#1E866F"/>
<path d="M14.1331 1.53333H1.86641C1.42457 1.53333 1.06641 1.89149 1.06641 2.33333V7.66666C1.06641 8.10849 1.42457 8.46666 1.86641 8.46666H14.1331C14.5749 8.46666 14.9331 8.10849 14.9331 7.66666V2.33333C14.9331 1.89149 14.5749 1.53333 14.1331 1.53333ZM14.3997 7.66666C14.3997 7.73738 14.3716 7.80521 14.3216 7.85522C14.2716 7.90523 14.2038 7.93333 14.1331 7.93333H1.86641C1.79568 7.93333 1.72785 7.90523 1.67784 7.85522C1.62783 7.80521 1.59974 7.73738 1.59974 7.66666V6.86666H14.3997V7.66666ZM14.3997 6.33333H1.59974V3.66666H14.3997V6.33333ZM14.3997 3.13333H1.59974V2.33333C1.59974 2.2626 1.62783 2.19477 1.67784 2.14476C1.72785 2.09475 1.79568 2.06666 1.86641 2.06666H14.1331C14.2038 2.06666 14.2716 2.09475 14.3216 2.14476C14.3716 2.19477 14.3997 2.2626 14.3997 2.33333V3.13333Z" fill="#1E866F"/>
<path d="M5.33372 2.33337H4.80039C4.72967 2.33337 4.66184 2.36147 4.61183 2.41148C4.56182 2.46149 4.53372 2.52932 4.53372 2.60004C4.53372 2.67077 4.56182 2.73859 4.61183 2.7886C4.66184 2.83861 4.72967 2.86671 4.80039 2.86671H5.33372C5.40445 2.86671 5.47228 2.83861 5.52229 2.7886C5.5723 2.73859 5.60039 2.67077 5.60039 2.60004C5.60039 2.52932 5.5723 2.46149 5.52229 2.41148C5.47228 2.36147 5.40445 2.33337 5.33372 2.33337ZM11.2004 2.33337H10.6671C10.5963 2.33337 10.5285 2.36147 10.4785 2.41148C10.4285 2.46149 10.4004 2.52932 10.4004 2.60004C10.4004 2.67077 10.4285 2.73859 10.4785 2.7886C10.5285 2.83861 10.5963 2.86671 10.6671 2.86671H11.2004C11.2711 2.86671 11.3389 2.83861 11.389 2.7886C11.439 2.73859 11.4671 2.67077 11.4671 2.60004C11.4671 2.52932 11.439 2.46149 11.389 2.41148C11.3389 2.36147 11.2711 2.33337 11.2004 2.33337ZM5.33372 7.13337H4.80039C4.72967 7.13337 4.66184 7.16147 4.61183 7.21148C4.56182 7.26149 4.53372 7.32932 4.53372 7.40004C4.53372 7.47077 4.56182 7.53859 4.61183 7.5886C4.66184 7.63861 4.72967 7.66671 4.80039 7.66671H5.33372C5.40445 7.66671 5.47228 7.63861 5.52229 7.5886C5.5723 7.53859 5.60039 7.47077 5.60039 7.40004C5.60039 7.32932 5.5723 7.26149 5.52229 7.21148C5.47228 7.16147 5.40445 7.13337 5.33372 7.13337ZM11.2004 7.13337H10.6671C10.5963 7.13337 10.5285 7.16147 10.4785 7.21148C10.4285 7.26149 10.4004 7.32932 10.4004 7.40004C10.4004 7.47077 10.4285 7.53859 10.4785 7.5886C10.5285 7.63861 10.5963 7.66671 10.6671 7.66671H11.2004C11.2711 7.66671 11.3389 7.63861 11.389 7.5886C11.439 7.53859 11.4671 7.47077 11.4671 7.40004C11.4671 7.32932 11.439 7.26149 11.389 7.21148C11.3389 7.16147 11.2711 7.13337 11.2004 7.13337ZM7.46706 4.73337H8.53372V5.26671H7.46706V4.73337ZM3.46706 3.93337C2.87796 3.93337 2.40039 4.41094 2.40039 5.00004C2.40039 5.58914 2.87796 6.06671 3.46706 6.06671C4.05616 6.06671 4.53372 5.58914 4.53372 5.00004C4.53372 4.41094 4.05616 3.93337 3.46706 3.93337ZM3.46706 5.53337C3.17249 5.53337 2.93372 5.29461 2.93372 5.00004C2.93372 4.70547 3.17249 4.46671 3.46706 4.46671C3.76162 4.46671 4.00039 4.70547 4.00039 5.00004C4.00039 5.29461 3.76162 5.53337 3.46706 5.53337ZM5.86706 3.93337C5.27796 3.93337 4.80039 4.41094 4.80039 5.00004C4.80039 5.58914 5.27796 6.06671 5.86706 6.06671C6.45616 6.06671 6.93372 5.58914 6.93372 5.00004C6.93372 4.41094 6.45616 3.93337 5.86706 3.93337ZM5.86706 5.53337C5.57249 5.53337 5.33372 5.29461 5.33372 5.00004C5.33372 4.70547 5.57249 4.46671 5.86706 4.46671C6.16162 4.46671 6.40039 4.70547 6.40039 5.00004C6.40039 5.29461 6.16162 5.53337 5.86706 5.53337ZM10.1337 3.93337C9.54462 3.93337 9.06706 4.41094 9.06706 5.00004C9.06706 5.58914 9.54462 6.06671 10.1337 6.06671C10.7228 6.06671 11.2004 5.58914 11.2004 5.00004C11.2004 4.41094 10.7228 3.93337 10.1337 3.93337ZM10.1337 5.53337C9.83916 5.53337 9.60039 5.29461 9.60039 5.00004C9.60039 4.70547 9.83916 4.46671 10.1337 4.46671C10.4283 4.46671 10.6671 4.70547 10.6671 5.00004C10.6671 5.29461 10.4283 5.53337 10.1337 5.53337ZM12.5337 3.93337C11.9446 3.93337 11.4671 4.41094 11.4671 5.00004C11.4671 5.58914 11.9446 6.06671 12.5337 6.06671C13.1228 6.06671 13.6004 5.58914 13.6004 5.00004C13.6004 4.41094 13.1228 3.93337 12.5337 3.93337ZM12.5337 5.53337C12.2392 5.53337 12.0004 5.29461 12.0004 5.00004C12.0004 4.70547 12.2392 4.46671 12.5337 4.46671C12.8283 4.46671 13.0671 4.70547 13.0671 5.00004C13.0671 5.29461 12.8283 5.53337 12.5337 5.53337Z" fill="#1E866F"/>
</svg>
