<svg width="153" height="153" viewBox="0 0 153 153" fill="none" xmlns="http://www.w3.org/2000/svg">
<path fill-rule="evenodd" clip-rule="evenodd" d="M77.8768 71.953C76.4414 76.3933 74.5045 80.6554 72.1034 84.6568L70.9273 86.6171C70.7473 86.921 70.656 87.2691 70.6635 87.6222C70.671 87.9753 70.7771 88.3192 70.9699 88.6151C71.1626 88.911 71.4342 89.1472 71.7541 89.2968C72.074 89.4465 72.4293 89.5037 72.78 89.462H72.7848C80.1167 88.5456 87.0044 85.4482 92.5552 80.5712C96.3778 81.8072 100.456 82.4766 104.688 82.4766C126.459 82.4766 144.133 64.8027 144.133 43.0313C144.133 21.2598 126.459 3.58594 104.688 3.58594C82.9186 3.58594 65.2424 21.2598 65.2424 43.0313C65.2424 54.4537 70.1097 64.7501 77.8768 71.953ZM73.5187 86.9446L74.1522 85.888C76.7828 81.5042 78.8769 76.82 80.3894 71.9363C80.4571 71.7173 80.4604 71.4835 80.399 71.2626C80.3375 71.0418 80.2138 70.8433 80.0427 70.6908C76.1366 67.2195 73.0109 62.9595 70.8718 58.1918C68.7327 53.424 67.6288 48.2569 67.633 43.0313C67.633 22.5795 84.2383 5.97656 104.688 5.97656C125.139 5.97656 141.742 22.5795 141.742 43.0313C141.742 63.4831 125.139 80.0859 104.688 80.0859C100.48 80.0859 96.4328 79.3831 92.6628 78.0874C92.46 78.018 92.2422 78.0045 92.0323 78.0483C91.8224 78.092 91.6282 78.1914 91.4699 78.336C86.4627 82.9081 80.2187 85.9025 73.5187 86.9446ZM76.1484 147.6L46.115 47.4683C46.0411 47.2225 45.8901 47.0071 45.6843 46.8539C45.4785 46.7006 45.2288 46.6176 44.9722 46.6172H40.1862C39.9292 46.6171 39.679 46.6998 39.4728 46.8531C39.2665 47.0064 39.1151 47.2221 39.0411 47.4683L8.91684 147.875C8.87163 148.025 8.85648 148.183 8.87226 148.339C8.88805 148.495 8.93444 148.647 9.00881 148.785C9.08318 148.923 9.18406 149.046 9.30569 149.145C9.42732 149.244 9.56732 149.319 9.7177 149.364C9.86807 149.409 10.0259 149.424 10.1821 149.408C10.3383 149.393 10.4899 149.346 10.6282 149.272C10.7665 149.198 10.8888 149.097 10.9882 148.975C11.0875 148.853 11.1618 148.713 11.2071 148.563L41.0755 49.0078H44.0805L73.8582 148.286C73.9492 148.589 74.1571 148.845 74.4361 148.995C74.7152 149.145 75.0426 149.179 75.3463 149.088C75.65 148.997 75.9052 148.789 76.0556 148.51C76.206 148.231 76.2394 147.903 76.1484 147.6Z" fill="#1E866F"/>
<path fill-rule="evenodd" clip-rule="evenodd" d="M18.8785 142.837L69.6362 130.252C69.894 130.193 70.1244 130.048 70.2911 129.843C70.4578 129.637 70.5513 129.382 70.5567 129.118C70.5622 128.853 70.4794 128.594 70.3214 128.382C70.1633 128.17 69.9391 128.016 69.684 127.946L20.4372 113.602C20.1328 113.513 19.8057 113.549 19.5277 113.701C19.2498 113.854 19.0437 114.11 18.955 114.415C18.8662 114.719 18.902 115.046 19.0544 115.324C19.2069 115.602 19.4635 115.808 19.7678 115.897L64.757 129L18.3023 140.518C18.0036 140.602 17.7495 140.8 17.5937 141.068C17.4378 141.336 17.3926 141.655 17.4674 141.956C17.5422 142.258 17.7313 142.518 17.9947 142.682C18.2581 142.847 18.575 142.902 18.8785 142.837ZM28.19 113.657L61.795 103.944C62.0382 103.873 62.2527 103.727 62.4076 103.526C62.5624 103.326 62.6496 103.082 62.6565 102.828C62.6634 102.575 62.5897 102.326 62.4461 102.118C62.3024 101.909 62.0962 101.752 61.8571 101.668L27.6688 89.7147C27.3695 89.61 27.041 89.6286 26.7554 89.7662C26.4698 89.9039 26.2506 90.1493 26.146 90.4486C26.0414 90.7478 26.0599 91.0764 26.1976 91.362C26.3352 91.6476 26.5806 91.8668 26.8799 91.9714L57.5325 102.689L27.5254 111.359C27.2207 111.448 26.9636 111.653 26.8105 111.931C26.6573 112.209 26.6208 112.536 26.709 112.84C26.7971 113.145 27.0027 113.402 27.2804 113.555C27.5581 113.708 27.8853 113.745 28.19 113.657ZM35.4144 89.3011L55.4001 82.4113C55.6273 82.3321 55.8254 82.1862 55.9686 81.9927C56.1117 81.7992 56.1932 81.5671 56.2025 81.3266C56.2118 81.0861 56.1484 80.8484 56.0207 80.6444C55.8929 80.4405 55.7066 80.2798 55.4861 80.1832L33.49 70.6207C33.3459 70.5581 33.1909 70.5245 33.0338 70.5217C32.8767 70.519 32.7206 70.5473 32.5744 70.6049C32.4282 70.6625 32.2948 70.7483 32.1818 70.8575C32.0688 70.9667 31.9784 71.097 31.9158 71.2411C31.8531 71.3852 31.8195 71.5402 31.8168 71.6973C31.8141 71.8544 31.8423 72.0105 31.8999 72.1567C31.9575 72.3029 32.0433 72.4363 32.1525 72.5493C32.2617 72.6623 32.392 72.7527 32.5361 72.8153L51.7161 81.1514L34.6351 87.0419C34.4829 87.09 34.3418 87.168 34.2202 87.2715C34.0987 87.3749 33.999 87.5017 33.9273 87.6443C33.8555 87.7869 33.813 87.9424 33.8023 88.1016C33.7916 88.2609 33.8129 88.4207 33.8649 88.5716C33.917 88.7225 33.9987 88.8615 34.1054 88.9803C34.212 89.0991 34.3413 89.1953 34.4858 89.2633C34.6302 89.3313 34.7868 89.3696 34.9463 89.3761C35.1058 89.3826 35.265 89.3571 35.4144 89.3011ZM39.0721 69.5402L49.8801 63.1859C50.0547 63.0815 50.1999 62.9343 50.302 62.7584C50.4042 62.5824 50.4599 62.3834 50.4639 62.1799C50.468 61.9765 50.4203 61.7754 50.3253 61.5955C50.2302 61.4156 50.091 61.2628 49.9207 61.1515L38.7039 53.9103C38.5721 53.825 38.4247 53.7666 38.2703 53.7383C38.1159 53.71 37.9574 53.7124 37.8039 53.7454C37.6503 53.7784 37.5048 53.8412 37.3756 53.9304C37.2464 54.0196 37.1361 54.1334 37.0508 54.2653C36.9656 54.3971 36.9072 54.5445 36.8789 54.6989C36.8506 54.8534 36.853 55.0119 36.886 55.1654C36.9189 55.3189 36.9818 55.4644 37.071 55.5936C37.1602 55.7228 37.274 55.8332 37.4058 55.9184L46.997 62.1077L37.8624 67.4795C37.5994 67.6448 37.411 67.9061 37.3373 68.208C37.2636 68.5099 37.3104 68.8286 37.4677 69.0966C37.625 69.3645 37.8805 69.5607 38.18 69.6435C38.4795 69.7264 38.7995 69.6893 39.0721 69.5402Z" fill="#1E866F"/>
<path d="M42.5312 49.5938C47.1523 49.5938 50.8984 45.8476 50.8984 41.2266C50.8984 36.6055 47.1523 32.8594 42.5312 32.8594C37.9102 32.8594 34.1641 36.6055 34.1641 41.2266C34.1641 45.8476 37.9102 49.5938 42.5312 49.5938Z" fill="#FF9900"/>
<path fill-rule="evenodd" clip-rule="evenodd" d="M84.403 38.1374C92.304 30.2387 103.681 27.9127 113.628 31.1615C114.227 31.3427 114.872 31.2823 115.427 30.9932C115.981 30.704 116.4 30.2092 116.594 29.6148C116.788 29.0203 116.741 28.3736 116.464 27.8132C116.187 27.2528 115.701 26.8234 115.111 26.6169C103.509 22.8278 90.2385 25.5412 81.0226 34.757C80.5872 35.2079 80.3462 35.8118 80.3517 36.4386C80.3571 37.0654 80.6085 37.665 81.0518 38.1082C81.495 38.5515 82.0946 38.8029 82.7214 38.8084C83.3482 38.8138 83.9521 38.5728 84.403 38.1374ZM120.348 34.3817C121.986 35.4503 123.538 36.7006 124.974 38.1374C125.196 38.3593 125.46 38.5354 125.75 38.6555C126.04 38.7756 126.351 38.8375 126.664 38.8375C126.978 38.8375 127.289 38.7756 127.579 38.6555C127.869 38.5354 128.133 38.3593 128.355 38.1374C128.577 37.9154 128.753 37.6519 128.873 37.3619C128.993 37.0719 129.055 36.7611 129.055 36.4472C129.055 36.1333 128.993 35.8225 128.873 35.5325C128.753 35.2425 128.577 34.979 128.355 34.757C126.713 33.1147 124.906 31.6469 122.961 30.3774C122.698 30.2058 122.404 30.0877 122.096 30.0298C121.787 29.9719 121.47 29.9754 121.163 30.04C120.856 30.1046 120.564 30.2291 120.305 30.4063C120.046 30.5836 119.824 30.8101 119.653 31.0731C119.481 31.336 119.363 31.6301 119.305 31.9387C119.247 32.2473 119.251 32.5642 119.315 32.8715C119.38 33.1787 119.504 33.4702 119.682 33.7293C119.859 33.9885 120.085 34.2101 120.348 34.3817ZM92.3948 46.1292C94.3791 44.144 96.8148 42.669 99.4935 41.8305C102.172 40.992 105.014 40.815 107.776 41.3145C108.4 41.4261 109.043 41.2853 109.563 40.923C110.083 40.5608 110.438 40.0068 110.549 39.3829C110.661 38.759 110.52 38.1163 110.158 37.5963C109.796 37.0762 109.242 36.7213 108.618 36.6098C105.097 35.9729 101.474 36.1987 98.0598 37.2679C94.6453 38.337 91.5409 40.2177 89.0121 42.7489C88.5639 43.1975 88.3121 43.8057 88.3124 44.4399C88.3126 45.0741 88.5647 45.6822 89.0133 46.1304C89.4619 46.5787 90.0702 46.8304 90.7043 46.8302C91.3385 46.8299 91.9466 46.5778 92.3948 46.1292ZM114.499 44.0661C115.388 44.6759 116.22 45.3665 116.982 46.1292C117.433 46.5647 118.037 46.8057 118.664 46.8002C119.291 46.7948 119.89 46.5433 120.334 46.1001C120.777 45.6569 121.028 45.0573 121.034 44.4305C121.039 43.8036 120.798 43.1998 120.363 42.7489C119.392 41.7773 118.333 40.8977 117.2 40.1216C116.677 39.7726 116.037 39.6438 115.42 39.7633C114.802 39.8827 114.256 40.2407 113.901 40.7596C113.546 41.2785 113.409 41.9166 113.521 42.5355C113.633 43.1545 113.984 43.7044 114.499 44.0661ZM100.384 54.1211C100.867 53.6382 101.41 53.2557 101.988 52.9688C102.557 52.6876 102.99 52.1921 103.193 51.5914C103.396 50.9906 103.353 50.3338 103.071 49.7654C102.79 49.197 102.295 48.7635 101.694 48.5604C101.093 48.3573 100.436 48.4012 99.8679 48.6824C98.8072 49.2075 97.8398 49.9028 97.004 50.7407C96.5685 51.1916 96.3275 51.7955 96.333 52.4223C96.3384 53.0491 96.5898 53.6487 97.0331 54.092C97.4763 54.5352 98.0759 54.7866 98.7027 54.7921C99.3296 54.7975 99.9334 54.5566 100.384 54.1211ZM108.211 53.4613C108.486 53.6549 108.747 53.8749 108.991 54.1211C109.441 54.5566 110.045 54.7975 110.672 54.7921C111.299 54.7866 111.899 54.5352 112.342 54.092C112.785 53.6487 113.036 53.0491 113.042 52.4223C113.047 51.7955 112.806 51.1916 112.371 50.7407C111.943 50.31 111.479 49.9165 110.984 49.5646C110.468 49.1968 109.826 49.0494 109.201 49.1548C108.575 49.2601 108.017 49.6096 107.649 50.1264C107.282 50.6431 107.134 51.2847 107.24 51.9102C107.345 52.5356 107.694 53.0935 108.211 53.4613Z" fill="#FF9900"/>
<path d="M104.688 64.1953C106.668 64.1953 108.273 62.5898 108.273 60.6094C108.273 58.6289 106.668 57.0234 104.688 57.0234C102.707 57.0234 101.102 58.6289 101.102 60.6094C101.102 62.5898 102.707 64.1953 104.688 64.1953Z" fill="#FF9900"/>
<path fill-rule="evenodd" clip-rule="evenodd" d="M116.633 20.6188L90.6975 62.9449C90.5277 63.2126 90.4129 63.5114 90.3596 63.8239C90.3064 64.1365 90.3159 64.4565 90.3875 64.7653C90.4591 65.0742 90.5914 65.3657 90.7767 65.6229C90.9621 65.8802 91.1967 66.0979 91.4671 66.2636C91.7374 66.4293 92.0379 66.5395 92.3513 66.588C92.6646 66.6364 92.9844 66.622 93.2921 66.5456C93.5998 66.4692 93.8893 66.3324 94.1436 66.1432C94.3979 65.9539 94.6121 65.7159 94.7736 65.4431L120.712 23.117C121.043 22.5762 121.146 21.9259 120.998 21.3092C120.85 20.6926 120.463 20.16 119.922 19.8287C119.381 19.4974 118.731 19.3946 118.114 19.5427C117.497 19.6909 116.965 20.078 116.633 20.6188Z" fill="#FF9900"/>
</svg>
