<svg width="27" height="40" viewBox="0 0 27 40" fill="none" xmlns="http://www.w3.org/2000/svg">
<path d="M24.9915 39.7822H1.71858C0.769485 39.7822 0 39.0127 0 38.0637V5.73225C0 4.78316 0.769485 4.01367 1.71858 4.01367H24.9913C25.9404 4.01367 26.7099 4.78316 26.7099 5.73225V38.0635C26.7101 39.0127 25.9406 39.7822 24.9915 39.7822Z" fill="#1E866F"/>
<path d="M25.6983 4.16602C25.7988 4.38831 25.8506 4.62951 25.8503 4.87345V37.2047C25.8503 38.1538 25.0808 38.9233 24.1317 38.9233H0.858805C0.614861 38.9236 0.373664 38.8718 0.151367 38.7713C0.287554 39.0728 0.507814 39.3285 0.785727 39.5079C1.06364 39.6873 1.3874 39.7827 1.71818 39.7826H24.9909C25.94 39.7826 26.7095 39.0132 26.7095 38.0641V5.73283C26.7096 5.40206 26.6143 5.07828 26.4349 4.80036C26.2555 4.52243 25.9998 4.30217 25.6983 4.16602Z" fill="#135A4B"/>
<path d="M23.8573 37.3867H2.85216C2.70022 37.3867 2.55452 37.3263 2.44708 37.2189C2.33965 37.1115 2.2793 36.9658 2.2793 36.8138V6.98888C2.2793 6.83694 2.33965 6.69123 2.44708 6.5838C2.55452 6.47637 2.70022 6.41602 2.85216 6.41602H23.8573C24.0093 6.41602 24.155 6.47637 24.2624 6.5838C24.3698 6.69123 24.4302 6.83694 24.4302 6.98888V36.8138C24.4302 36.9658 24.3698 37.1115 24.2624 37.2189C24.155 37.3263 24.0093 37.3867 23.8573 37.3867Z" fill="#F1F2F2"/>
<path d="M23.8573 6.41602H23.5708V35.9545C23.5708 36.1064 23.5105 36.2521 23.403 36.3595C23.2956 36.467 23.1499 36.5273 22.998 36.5273H2.2793V36.8138C2.2793 36.9658 2.33965 37.1115 2.44708 37.2189C2.55452 37.3263 2.70022 37.3867 2.85216 37.3867H23.8573C24.0093 37.3867 24.155 37.3263 24.2624 37.2189C24.3698 37.1115 24.4302 36.9658 24.4302 36.8138V6.98888C24.4302 6.83694 24.3698 6.69123 24.2624 6.5838C24.155 6.47637 24.0093 6.41602 23.8573 6.41602Z" fill="#E6E7E8"/>
<path d="M3.31055 26.7729C3.12148 26.7729 2.9668 26.6182 2.9668 26.4291C2.9668 26.2401 3.12148 26.0854 3.31055 26.0854C3.49978 26.0854 3.6543 26.2401 3.6543 26.4291C3.6543 26.6182 3.49961 26.7729 3.31055 26.7729ZM3.31055 25.3979C3.12148 25.3979 2.9668 25.2432 2.9668 25.0541V7.44727C2.9668 7.35617 3.00289 7.26852 3.0682 7.20492C3.1318 7.13961 3.22134 7.10352 3.31055 7.10352H5.76148C5.95072 7.10352 6.10523 7.2582 6.10523 7.44727C6.10523 7.63633 5.95072 7.79102 5.76148 7.79102H3.6543V25.0541C3.6543 25.2432 3.49961 25.3979 3.31055 25.3979Z" fill="white"/>
<path d="M19.9677 6.35666L19.1093 3.27752C19.0421 3.03647 18.8979 2.82406 18.6986 2.67272C18.4993 2.52139 18.2559 2.43946 18.0057 2.43945H14.4293C14.4243 2.72098 14.3089 2.98928 14.1081 3.18659C13.9072 3.3839 13.6369 3.49446 13.3553 3.49446C13.0737 3.49446 12.8034 3.3839 12.6025 3.18659C12.4017 2.98928 12.2863 2.72098 12.2812 2.43945H8.70487C8.45463 2.43946 8.21128 2.52139 8.012 2.67272C7.81271 2.82406 7.66845 3.03647 7.60126 3.27752L6.74291 6.35666C6.53941 7.08695 7.08855 7.81003 7.8467 7.81003H18.8642C19.6222 7.81003 20.1712 7.08695 19.9677 6.35666Z" fill="#FF9900"/>
<path d="M19.9678 6.35666L19.1095 3.27752C19.0423 3.03647 18.898 2.82406 18.6988 2.67272C18.4995 2.52139 18.2561 2.43946 18.0059 2.43945H17.6362L18.2491 4.63791C18.4528 5.3682 17.9036 6.09128 17.1455 6.09128H6.81682L6.74291 6.35666C6.53941 7.08695 7.08855 7.81003 7.8467 7.81003H18.8642C19.6224 7.81003 20.1713 7.08695 19.9678 6.35666Z" fill="#FF9900"/>
<path d="M19.968 6.35656L19.1096 3.27742C19.0544 3.07913 18.9467 2.8994 18.798 2.7571C18.6492 2.6148 18.4649 2.51519 18.2644 2.46875L19.1086 5.49719C19.3123 6.22748 18.7631 6.95056 18.005 6.95056H6.9873C6.90056 6.95059 6.81408 6.94091 6.72949 6.92169C6.84482 7.41909 7.28929 7.80994 7.84668 7.80994H18.8642C19.6225 7.80994 20.1715 7.08686 19.968 6.35656Z" fill="#EF7816"/>
<path d="M12.2993 2.63625C12.2872 2.57134 12.2812 2.50547 12.2812 2.43945H11.8516C11.9836 2.53881 12.1368 2.60617 12.2993 2.63625Z" fill="#FF9900"/>
<path d="M13.3555 0.21875C12.1295 0.21875 11.1357 1.21253 11.1357 2.43869C11.1357 3.66467 12.1295 4.65845 13.3555 4.65845C14.5815 4.65845 15.5754 3.66467 15.5754 2.43869C15.5754 1.2127 14.5815 0.21875 13.3555 0.21875ZM13.3555 3.51273C13.2133 3.51453 13.0722 3.48808 12.9403 3.43491C12.8084 3.38173 12.6883 3.3029 12.5872 3.20298C12.486 3.10306 12.4056 2.98404 12.3508 2.85282C12.2959 2.72161 12.2677 2.58081 12.2677 2.4386C12.2677 2.29639 12.2959 2.15559 12.3508 2.02438C12.4056 1.89317 12.486 1.77415 12.5872 1.67423C12.6883 1.5743 12.8084 1.49547 12.9403 1.4423C13.0722 1.38912 13.2133 1.36267 13.3555 1.36447C13.638 1.36804 13.9078 1.48278 14.1063 1.68383C14.3048 1.88488 14.4161 2.15605 14.4161 2.4386C14.4161 2.72115 14.3048 2.99232 14.1063 3.19337C13.9078 3.39442 13.638 3.50916 13.3555 3.51273Z" fill="#FF9900"/>
<path d="M14.7436 0.707031C15.06 1.10056 15.2321 1.59051 15.2314 2.09544C15.2314 3.32142 14.2376 4.3152 13.0115 4.3152C12.5065 4.31598 12.0166 4.1439 11.623 3.82759C11.8309 4.08729 12.0945 4.29686 12.3943 4.44078C12.6942 4.5847 13.0226 4.65927 13.3552 4.65895C14.5812 4.65895 15.5751 3.66517 15.5751 2.43919C15.5751 1.73862 15.2505 1.11386 14.7436 0.707031Z" fill="#FF9900"/>
<path d="M12.4437 3.00746C12.3154 2.8015 12.2606 2.55818 12.2883 2.31712C12.3159 2.07606 12.4244 1.85147 12.596 1.67991C12.7676 1.50835 12.9922 1.39993 13.2332 1.3723C13.4743 1.34468 13.7176 1.39948 13.9235 1.52778C13.838 1.3905 13.7226 1.2743 13.5859 1.18784C13.4493 1.10139 13.2948 1.04691 13.1341 1.02848C12.9735 1.01005 12.8107 1.02814 12.658 1.0814C12.5053 1.13466 12.3665 1.22172 12.2522 1.33607C12.1378 1.45043 12.0507 1.58913 11.9975 1.74184C11.9442 1.89455 11.9261 2.05731 11.9445 2.21799C11.9629 2.37868 12.0174 2.53313 12.1038 2.66982C12.1902 2.80652 12.3064 2.92194 12.4437 3.00746Z" fill="#FF9900"/>
<path d="M20.0559 14.3927H12.1397C11.9327 14.3927 11.7343 14.3104 11.5879 14.1641C11.4416 14.0178 11.3594 13.8193 11.3594 13.6123C11.3594 13.4054 11.4416 13.2069 11.5879 13.0606C11.7343 12.9142 11.9327 12.832 12.1397 12.832H20.0557C20.2627 12.832 20.4612 12.9142 20.6075 13.0605C20.7539 13.2068 20.8361 13.4053 20.8361 13.6123C20.8362 13.8192 20.754 14.0177 20.6076 14.164C20.4613 14.3104 20.2629 14.3926 20.0559 14.3927Z" fill="#D1D3D4"/>
<path d="M22.512 11.6876H12.1397C11.9327 11.6876 11.7343 11.6054 11.5879 11.459C11.4416 11.3127 11.3594 11.1142 11.3594 10.9073C11.3594 10.7003 11.4416 10.5018 11.5879 10.3555C11.7343 10.2092 11.9327 10.127 12.1397 10.127H22.512C22.719 10.127 22.9174 10.2092 23.0638 10.3555C23.2101 10.5018 23.2923 10.7003 23.2923 10.9073C23.2923 11.1142 23.2101 11.3127 23.0638 11.459C22.9174 11.6054 22.719 11.6876 22.512 11.6876Z" fill="#FF9900"/>
<path d="M20.0559 21.4766H12.1397C11.9327 21.4766 11.7343 21.3944 11.5879 21.2481C11.4416 21.1018 11.3594 20.9033 11.3594 20.6963C11.3594 20.4894 11.4416 20.2909 11.5879 20.1446C11.7343 19.9982 11.9327 19.916 12.1397 19.916H20.0557C20.2627 19.916 20.4612 19.9982 20.6075 20.1445C20.7539 20.2908 20.8361 20.4893 20.8361 20.6962C20.8362 20.9032 20.754 21.1017 20.6076 21.248C20.4613 21.3944 20.2629 21.4766 20.0559 21.4766Z" fill="#D1D3D4"/>
<path d="M22.512 18.7735H12.1397C12.0372 18.7735 11.9357 18.7533 11.8411 18.7141C11.7464 18.6749 11.6604 18.6174 11.5879 18.545C11.5155 18.4725 11.458 18.3865 11.4188 18.2918C11.3796 18.1971 11.3594 18.0957 11.3594 17.9932C11.3594 17.8907 11.3796 17.7893 11.4188 17.6946C11.458 17.5999 11.5155 17.5139 11.5879 17.4414C11.6604 17.369 11.7464 17.3115 11.8411 17.2723C11.9357 17.2331 12.0372 17.2129 12.1397 17.2129H22.512C22.6145 17.2129 22.7159 17.2331 22.8106 17.2723C22.9053 17.3115 22.9913 17.369 23.0638 17.4414C23.1362 17.5139 23.1937 17.5999 23.2329 17.6946C23.2721 17.7893 23.2923 17.8907 23.2923 17.9932C23.2923 18.0957 23.2721 18.1971 23.2329 18.2918C23.1937 18.3865 23.1362 18.4725 23.0638 18.545C22.9913 18.6174 22.9053 18.6749 22.8106 18.7141C22.7159 18.7533 22.6145 18.7735 22.512 18.7735Z" fill="#FF9900"/>
<path d="M20.0559 28.5606H12.1397C11.9327 28.5606 11.7343 28.4784 11.5879 28.3321C11.4416 28.1857 11.3594 27.9873 11.3594 27.7803C11.3594 27.5734 11.4416 27.3749 11.5879 27.2285C11.7343 27.0822 11.9327 27 12.1397 27H20.0557C20.2627 27 20.4612 27.0822 20.6075 27.2285C20.7539 27.3748 20.8361 27.5733 20.8361 27.7802C20.8362 27.9872 20.754 28.1857 20.6076 28.332C20.4613 28.4784 20.2629 28.5606 20.0559 28.5606Z" fill="#D1D3D4"/>
<path d="M22.512 25.8575H12.1397C11.9327 25.8575 11.7343 25.7753 11.5879 25.629C11.4416 25.4826 11.3594 25.2841 11.3594 25.0772C11.3594 24.8702 11.4416 24.6718 11.5879 24.5254C11.7343 24.3791 11.9327 24.2969 12.1397 24.2969H22.512C22.719 24.2969 22.9174 24.3791 23.0638 24.5254C23.2101 24.6718 23.2923 24.8702 23.2923 25.0772C23.2923 25.2841 23.2101 25.4826 23.0638 25.629C22.9174 25.7753 22.719 25.8575 22.512 25.8575Z" fill="#FF9900"/>
<path d="M20.0559 35.6446H12.1397C11.9327 35.6446 11.7343 35.5624 11.5879 35.4161C11.4416 35.2697 11.3594 35.0713 11.3594 34.8643C11.3594 34.6573 11.4416 34.4589 11.5879 34.3125C11.7343 34.1662 11.9327 34.084 12.1397 34.084H20.0557C20.2627 34.084 20.4612 34.1662 20.6075 34.3125C20.7539 34.4588 20.8361 34.6573 20.8361 34.8642C20.8362 35.0712 20.754 35.2696 20.6076 35.416C20.4613 35.5624 20.2629 35.6446 20.0559 35.6446Z" fill="#D1D3D4"/>
<path d="M22.5122 32.9403H12.1399C11.933 32.9403 11.7345 32.8581 11.5881 32.7117C11.4418 32.5654 11.3596 32.3669 11.3596 32.16C11.3596 31.953 11.4418 31.7545 11.5881 31.6082C11.7345 31.4619 11.933 31.3796 12.1399 31.3796H22.5122C22.7192 31.3796 22.9176 31.4619 23.064 31.6082C23.2103 31.7545 23.2925 31.953 23.2925 32.16C23.2925 32.3669 23.2103 32.5654 23.064 32.7117C22.9176 32.8581 22.7192 32.9403 22.5122 32.9403ZM8.68058 14.3913H5.79102C5.60868 14.3913 5.43381 14.3189 5.30488 14.19C5.17595 14.061 5.10352 13.8862 5.10352 13.7038V10.8145C5.10352 10.6321 5.17595 10.4572 5.30488 10.3283C5.43381 10.1994 5.60868 10.127 5.79102 10.127H8.68058C8.86292 10.127 9.03778 10.1994 9.16671 10.3283C9.29565 10.4572 9.36808 10.6321 9.36808 10.8145V13.704C9.36803 13.8863 9.29558 14.0611 9.16665 14.19C9.03773 14.3189 8.86289 14.3913 8.68058 14.3913Z" fill="#FF9900"/>
<path d="M6.97357 13.3331C6.86495 13.3331 6.76045 13.2898 6.68362 13.2129L5.88182 12.4111C5.84374 12.3731 5.81354 12.3279 5.79293 12.2781C5.77232 12.2284 5.76172 12.175 5.76172 12.1212C5.76172 12.0673 5.77232 12.014 5.79293 11.9643C5.81354 11.9145 5.84374 11.8693 5.88182 11.8312C5.9199 11.7932 5.9651 11.763 6.01485 11.7424C6.0646 11.7217 6.11793 11.7111 6.17177 11.7111C6.22562 11.7111 6.27895 11.7217 6.3287 11.7424C6.37845 11.763 6.42365 11.7932 6.46173 11.8312L6.97357 12.3429L8.01066 11.3056C8.08757 11.2287 8.19186 11.1855 8.30062 11.1855C8.40937 11.1855 8.51367 11.2287 8.59057 11.3056C8.66747 11.3825 8.71067 11.4868 8.71067 11.5956C8.71067 11.7044 8.66747 11.8087 8.59057 11.8856L7.26352 13.2129C7.22548 13.2511 7.18029 13.2813 7.13053 13.3019C7.08077 13.3225 7.02743 13.3331 6.97357 13.3331Z" fill="#F1F2F2"/>
<path d="M8.68058 21.4775H5.79102C5.60868 21.4775 5.43381 21.405 5.30488 21.2761C5.17595 21.1472 5.10352 20.9723 5.10352 20.79V17.9004C5.10352 17.7181 5.17595 17.5432 5.30488 17.4143C5.43381 17.2853 5.60868 17.2129 5.79102 17.2129H8.68058C8.86292 17.2129 9.03778 17.2853 9.16671 17.4143C9.29565 17.5432 9.36808 17.7181 9.36808 17.9004V20.79C9.36808 20.9723 9.29565 21.1472 9.16671 21.2761C9.03778 21.405 8.86292 21.4775 8.68058 21.4775Z" fill="#FF9900"/>
<path d="M6.97357 20.419C6.86495 20.419 6.76045 20.3757 6.68362 20.2989L5.88182 19.4971C5.80492 19.4202 5.76172 19.3159 5.76172 19.2071C5.76172 19.0984 5.80492 18.9941 5.88182 18.9172C5.95872 18.8403 6.06302 18.7971 6.17177 18.7971C6.28053 18.7971 6.38483 18.8403 6.46173 18.9172L6.97357 19.4289L8.01066 18.3916C8.08757 18.3147 8.19186 18.2715 8.30062 18.2715C8.40937 18.2715 8.51367 18.3147 8.59057 18.3916C8.66747 18.4685 8.71067 18.5728 8.71067 18.6815C8.71067 18.7903 8.66747 18.8946 8.59057 18.9715L7.26352 20.2989C7.22548 20.337 7.18029 20.3673 7.13053 20.3879C7.08077 20.4085 7.02743 20.4191 6.97357 20.419Z" fill="#F1F2F2"/>
<path d="M8.68058 28.5614H5.79102C5.60868 28.5614 5.43381 28.489 5.30488 28.3601C5.17595 28.2311 5.10352 28.0563 5.10352 27.8739V24.9844C5.10352 24.802 5.17595 24.6272 5.30488 24.4982C5.43381 24.3693 5.60868 24.2969 5.79102 24.2969H8.68058C8.86292 24.2969 9.03778 24.3693 9.16671 24.4982C9.29565 24.6272 9.36808 24.802 9.36808 24.9844V27.8739C9.36808 28.0563 9.29565 28.2311 9.16671 28.3601C9.03778 28.489 8.86292 28.5614 8.68058 28.5614Z" fill="#FF9900"/>
<path d="M6.97357 27.503C6.86495 27.503 6.76045 27.4597 6.68362 27.3829L5.88182 26.5811C5.80492 26.5042 5.76172 26.3999 5.76172 26.2911C5.76172 26.1824 5.80492 26.0781 5.88182 26.0012C5.95872 25.9243 6.06302 25.8811 6.17177 25.8811C6.28053 25.8811 6.38483 25.9243 6.46173 26.0012L6.97357 26.5128L8.01066 25.4756C8.08757 25.3987 8.19186 25.3555 8.30062 25.3555C8.40937 25.3555 8.51367 25.3987 8.59057 25.4756C8.66747 25.5525 8.71067 25.6568 8.71067 25.7655C8.71067 25.8743 8.66747 25.9786 8.59057 26.0555L7.26352 27.3829C7.22545 27.421 7.18025 27.4512 7.1305 27.4718C7.08075 27.4924 7.02742 27.503 6.97357 27.503Z" fill="#F1F2F2"/>
<path d="M8.68058 35.6454H5.79102C5.60868 35.6454 5.43381 35.573 5.30488 35.4441C5.17595 35.3151 5.10352 35.1403 5.10352 34.9579V32.0684C5.10352 31.886 5.17595 31.7112 5.30488 31.5822C5.43381 31.4533 5.60868 31.3809 5.79102 31.3809H8.68058C8.86292 31.3809 9.03778 31.4533 9.16671 31.5822C9.29565 31.7112 9.36808 31.886 9.36808 32.0684V34.9579C9.36808 35.1403 9.29565 35.3151 9.16671 35.4441C9.03778 35.573 8.86292 35.6454 8.68058 35.6454Z" fill="#FF9900"/>
<path d="M6.97357 34.587C6.86495 34.587 6.76045 34.5437 6.68362 34.4669L5.88182 33.6651C5.84374 33.627 5.81354 33.5818 5.79293 33.532C5.77232 33.4823 5.76172 33.429 5.76172 33.3751C5.76172 33.3213 5.77232 33.2679 5.79293 33.2182C5.81354 33.1684 5.84374 33.1232 5.88182 33.0851C5.9199 33.0471 5.9651 33.0169 6.01485 32.9963C6.0646 32.9757 6.11793 32.965 6.17177 32.965C6.22562 32.965 6.27895 32.9757 6.3287 32.9963C6.37845 33.0169 6.42365 33.0471 6.46173 33.0851L6.97357 33.5968L8.01066 32.5596C8.08757 32.4827 8.19186 32.4395 8.30062 32.4395C8.40937 32.4395 8.51367 32.4827 8.59057 32.5596C8.66747 32.6365 8.71067 32.7408 8.71067 32.8495C8.71067 32.9583 8.66747 33.0626 8.59057 33.1395L7.26352 34.4669C7.22545 34.5049 7.18025 34.5352 7.1305 34.5558C7.08075 34.5764 7.02742 34.587 6.97357 34.587Z" fill="#F1F2F2"/>
</svg>
