<svg width="17" height="16" viewBox="0 0 17 16" fill="none" xmlns="http://www.w3.org/2000/svg">
<path d="M11 8.75C11.1381 8.75 11.25 8.63807 11.25 8.5C11.25 8.36193 11.1381 8.25 11 8.25C10.8619 8.25 10.75 8.36193 10.75 8.5C10.75 8.63807 10.8619 8.75 11 8.75Z" fill="#1E866F"/>
<path d="M8.5 6.5C8.99445 6.5 9.4778 6.35338 9.88893 6.07867C10.3 5.80397 10.6205 5.41352 10.8097 4.95671C10.9989 4.49989 11.0484 3.99723 10.952 3.51228C10.8555 3.02732 10.6174 2.58187 10.2678 2.23223C9.91814 1.8826 9.47268 1.6445 8.98773 1.54804C8.50277 1.45157 8.00011 1.50108 7.54329 1.6903C7.08648 1.87952 6.69603 2.19995 6.42133 2.61108C6.14662 3.0222 6 3.50555 6 4C6.00073 4.66282 6.26435 5.29828 6.73304 5.76696C7.20172 6.23565 7.83718 6.49927 8.5 6.5ZM8.5 2C8.89556 2 9.28224 2.1173 9.61114 2.33706C9.94004 2.55682 10.1964 2.86918 10.3478 3.23463C10.4991 3.60009 10.5387 4.00222 10.4616 4.39018C10.3844 4.77814 10.1939 5.13451 9.91421 5.41421C9.63451 5.69392 9.27814 5.8844 8.89018 5.96157C8.50222 6.03874 8.10009 5.99914 7.73463 5.84776C7.36918 5.69638 7.05682 5.44004 6.83706 5.11114C6.6173 4.78224 6.5 4.39556 6.5 4C6.5006 3.46975 6.7115 2.96139 7.08644 2.58645C7.46139 2.2115 7.96975 2.0006 8.5 2Z" fill="#1E866F"/>
<path d="M7.5 4.75H7.75V5C7.75 5.13261 7.80268 5.25979 7.89645 5.35355C7.99021 5.44732 8.11739 5.5 8.25 5.5H8.75C8.88261 5.5 9.00979 5.44732 9.10355 5.35355C9.19732 5.25979 9.25 5.13261 9.25 5V4.75H9.5C9.63261 4.75 9.75979 4.69732 9.85355 4.60355C9.94732 4.50979 10 4.38261 10 4.25V3.75C10 3.61739 9.94732 3.49021 9.85355 3.39645C9.75979 3.30268 9.63261 3.25 9.5 3.25H9.25V3C9.25 2.86739 9.19732 2.74021 9.10355 2.64645C9.00979 2.55268 8.88261 2.5 8.75 2.5H8.25C8.11739 2.5 7.99021 2.55268 7.89645 2.64645C7.80268 2.74021 7.75 2.86739 7.75 3V3.25H7.5C7.36739 3.25 7.24021 3.30268 7.14645 3.39645C7.05268 3.49021 7 3.61739 7 3.75V4.25C7 4.38261 7.05268 4.50979 7.14645 4.60355C7.24021 4.69732 7.36739 4.75 7.5 4.75ZM7.5 3.75H8C8.0663 3.75 8.12989 3.72366 8.17678 3.67678C8.22366 3.62989 8.25 3.5663 8.25 3.5V3H8.75V3.5C8.75 3.5663 8.77634 3.62989 8.82322 3.67678C8.87011 3.72366 8.9337 3.75 9 3.75H9.5V4.25H9C8.9337 4.25 8.87011 4.27634 8.82322 4.32322C8.77634 4.37011 8.75 4.4337 8.75 4.5V5H8.25V4.5C8.25 4.4337 8.22366 4.37011 8.17678 4.32322C8.12989 4.27634 8.0663 4.25 8 4.25H7.5V3.75ZM6 7.5H11C11.0663 7.5 11.1299 7.47366 11.1768 7.42678C11.2237 7.37989 11.25 7.3163 11.25 7.25C11.25 7.1837 11.2237 7.12011 11.1768 7.07322C11.1299 7.02634 11.0663 7 11 7H6C5.9337 7 5.87011 7.02634 5.82322 7.07322C5.77634 7.12011 5.75 7.1837 5.75 7.25C5.75 7.3163 5.77634 7.37989 5.82322 7.42678C5.87011 7.47366 5.9337 7.5 6 7.5ZM10.25 8.5C10.25 8.4337 10.2237 8.37011 10.1768 8.32322C10.1299 8.27634 10.0663 8.25 10 8.25H6C5.9337 8.25 5.87011 8.27634 5.82322 8.32322C5.77634 8.37011 5.75 8.4337 5.75 8.5C5.75 8.5663 5.77634 8.62989 5.82322 8.67678C5.87011 8.72366 5.9337 8.75 6 8.75H10C10.0663 8.75 10.1299 8.72366 10.1768 8.67678C10.2237 8.62989 10.25 8.5663 10.25 8.5Z" fill="#1E866F"/>
<path d="M15.3822 5.4945L13.75 4.53775V1.25C13.75 1.05109 13.671 0.860322 13.5303 0.71967C13.3897 0.579018 13.1989 0.5 13 0.5H4C3.80109 0.5 3.61032 0.579018 3.46967 0.71967C3.32902 0.860322 3.25 1.05109 3.25 1.25V4.53775L1.61775 5.4945C1.43 5.60516 1.27431 5.7628 1.16599 5.95191C1.05767 6.14101 1.00046 6.35507 1 6.573V14.25C1.0004 14.5814 1.13222 14.8991 1.36655 15.1334C1.60089 15.3678 1.9186 15.4996 2.25 15.5H14.75C15.0814 15.4996 15.3991 15.3678 15.6334 15.1334C15.8678 14.8991 15.9996 14.5814 16 14.25V6.573C15.9995 6.35507 15.9423 6.14101 15.834 5.95191C15.7257 5.7628 15.57 5.60516 15.3822 5.4945ZM13.75 5.1175L15.1292 5.925C15.1841 5.95761 15.2345 5.9971 15.2793 6.0425L13.75 7.36975V5.1175ZM3.75 1.25C3.75 1.1837 3.77634 1.12011 3.82322 1.07322C3.87011 1.02634 3.9337 1 4 1H13C13.0663 1 13.1299 1.02634 13.1768 1.07322C13.2237 1.12011 13.25 1.1837 13.25 1.25V7.803L10.262 10.3923L9.3 9.59025C9.07524 9.40349 8.79223 9.30124 8.5 9.30124C8.20777 9.30124 7.92476 9.40349 7.7 9.59025L6.738 10.392L3.75 7.803V1.25ZM1.87075 5.925L3.25 5.1175V7.36975L1.71975 6.04475C1.76471 5.99849 1.81546 5.95824 1.87075 5.925ZM1.5 14.25V6.573C1.5 6.55525 1.50575 6.5385 1.507 6.52075L6.35 10.7168L1.62175 14.6573C1.54252 14.5362 1.50022 14.3947 1.5 14.25ZM14.75 15H2.25C2.17663 14.999 2.10383 14.987 2.034 14.9645L8.01975 9.975C8.15453 9.86269 8.32443 9.80118 8.49988 9.80118C8.67532 9.80118 8.84522 9.86269 8.98 9.975L14.966 14.965C14.8961 14.9874 14.8233 14.9992 14.75 15ZM15.5 14.25C15.4998 14.3947 15.4575 14.5362 15.3783 14.6573L10.65 10.7168L15.493 6.52075C15.493 6.5385 15.5 6.55525 15.5 6.573V14.25Z" fill="#1E866F"/>
</svg>
