<svg width="17" height="16" viewBox="0 0 17 16" fill="none" xmlns="http://www.w3.org/2000/svg">
<g clip-path="url(#clip0_5999_1727)">
<path d="M12.1332 1.77461C12.1714 1.75262 12.2021 1.71982 12.2216 1.68035C12.2411 1.64089 12.2484 1.59654 12.2427 1.5529C12.2369 1.50927 12.2184 1.46831 12.1894 1.43522C12.1604 1.40212 12.1222 1.37837 12.0797 1.36697C12.0372 1.35557 11.9923 1.35703 11.9506 1.37117C11.9089 1.38531 11.8724 1.41149 11.8456 1.4464C11.8188 1.48131 11.8029 1.52338 11.8 1.5673C11.7972 1.61121 11.8074 1.65499 11.8294 1.69311C11.8589 1.74421 11.9074 1.7815 11.9644 1.79678C12.0214 1.81206 12.0821 1.80409 12.1332 1.77461Z" fill="#1E866F"/>
<path d="M16.208 6.99274C16.293 6.80355 16.332 6.59694 16.3218 6.38978C16.3117 6.18263 16.2526 5.98083 16.1495 5.80087L13.215 0.718118C13.0407 0.416972 12.754 0.19728 12.4179 0.107246C12.0818 0.0172117 11.7236 0.0641879 11.4221 0.237868L1.33087 6.06399C1.13808 6.17602 0.976995 6.33531 0.862832 6.52685C0.748668 6.7184 0.685186 6.93586 0.678375 7.15874C0.561672 7.35826 0.500111 7.58522 0.5 7.81637V14.6914C0.500397 15.0393 0.638805 15.373 0.884861 15.619C1.13092 15.8651 1.46453 16.0035 1.8125 16.0039H15.1875C15.5355 16.0035 15.8691 15.8651 16.1151 15.619C16.3612 15.373 16.4996 15.0393 16.5 14.6914V7.81637C16.5001 7.51644 16.397 7.22561 16.208 6.99274ZM1.51838 6.38874L11.6096 0.562493C11.825 0.438515 12.0808 0.405015 12.3209 0.469336C12.5609 0.533658 12.7657 0.690553 12.8903 0.905618L15.825 5.98837C15.8881 6.09849 15.9281 6.22027 15.9427 6.34634C15.9573 6.4724 15.9462 6.60011 15.91 6.72174C15.6959 6.57948 15.4445 6.50367 15.1875 6.50387H14.999C15.0168 6.47004 15.0256 6.43217 15.0245 6.39394C15.0234 6.35571 15.0125 6.31841 14.9927 6.28566C14.973 6.25291 14.9451 6.22582 14.9118 6.20701C14.8785 6.18821 14.8409 6.17833 14.8026 6.17833C14.7644 6.17833 14.7268 6.18821 14.6935 6.20701C14.6602 6.22582 14.6323 6.25291 14.6125 6.28566C14.5928 6.31841 14.5818 6.35571 14.5807 6.39394C14.5796 6.43217 14.5884 6.47004 14.6062 6.50387H13.7165C13.6957 6.29559 13.7356 6.08574 13.8315 5.89967C13.9273 5.71361 14.0751 5.55929 14.2568 5.45537C14.2998 5.4305 14.3312 5.38955 14.3441 5.34152C14.357 5.29349 14.3502 5.24231 14.3254 5.19924L12.8239 2.59924C12.7988 2.55641 12.7579 2.52518 12.7099 2.51233C12.662 2.49949 12.6109 2.50606 12.5677 2.53062C12.3169 2.67492 12.019 2.71384 11.7395 2.63886C11.46 2.56387 11.2216 2.3811 11.0766 2.13062C11.0518 2.08755 11.0108 2.05613 10.9628 2.04326C10.9147 2.03039 10.8636 2.03713 10.8205 2.06199C10.7653 2.11049 3.18925 6.43612 3.15613 6.50387H1.8125C1.61308 6.50398 1.41635 6.54991 1.2375 6.63812C1.31323 6.53679 1.4088 6.45194 1.51838 6.38874ZM13.3396 6.50387H10.3801C9.98938 4.39962 7.01125 4.40387 6.61888 6.50387H3.877L10.8561 2.47449C11.0531 2.73197 11.3298 2.91706 11.6429 3.00094C11.9561 3.08481 12.2882 3.06277 12.5875 2.93824L13.9125 5.23462C13.7184 5.38135 13.5643 5.57444 13.4642 5.79619C13.3641 6.01794 13.3213 6.26127 13.3396 6.50387ZM9.99875 6.50387H7.00087C7.364 4.89862 9.63863 4.89824 9.99875 6.50387ZM16.125 14.6914C16.1247 14.9399 16.0259 15.1782 15.8501 15.354C15.6744 15.5297 15.4361 15.6286 15.1875 15.6289H1.8125C1.56394 15.6286 1.32564 15.5297 1.14988 15.354C0.974122 15.1782 0.875265 14.9399 0.875 14.6914V7.81637C0.875265 7.56781 0.974122 7.32951 1.14988 7.15375C1.32564 6.97799 1.56394 6.87913 1.8125 6.87887H15.1875C15.4361 6.87913 15.6744 6.97799 15.8501 7.15375C16.0259 7.32951 16.1247 7.56781 16.125 7.81637V14.6914Z" fill="#1E866F"/>
<path d="M14.875 8.375C15.0131 8.375 15.125 8.26307 15.125 8.125C15.125 7.98693 15.0131 7.875 14.875 7.875C14.7369 7.875 14.625 7.98693 14.625 8.125C14.625 8.26307 14.7369 8.375 14.875 8.375Z" fill="#1E866F"/>
<path d="M14.875 14.625C15.0131 14.625 15.125 14.5131 15.125 14.375C15.125 14.2369 15.0131 14.125 14.875 14.125C14.7369 14.125 14.625 14.2369 14.625 14.375C14.625 14.5131 14.7369 14.625 14.875 14.625Z" fill="#1E866F"/>
<path d="M2.125 8.375C2.26307 8.375 2.375 8.26307 2.375 8.125C2.375 7.98693 2.26307 7.875 2.125 7.875C1.98693 7.875 1.875 7.98693 1.875 8.125C1.875 8.26307 1.98693 8.375 2.125 8.375Z" fill="#1E866F"/>
<path d="M2.125 14.625C2.26307 14.625 2.375 14.5131 2.375 14.375C2.375 14.2369 2.26307 14.125 2.125 14.125C1.98693 14.125 1.875 14.2369 1.875 14.375C1.875 14.5131 1.98693 14.625 2.125 14.625Z" fill="#1E866F"/>
<path d="M15.0625 12.9375V9.5625C15.0625 9.51277 15.0427 9.46508 15.0076 9.42992C14.9724 9.39475 14.9247 9.375 14.875 9.375C14.5436 9.37464 14.2259 9.24282 13.9915 9.00848C13.7572 8.77414 13.6254 8.45641 13.625 8.125C13.625 8.07527 13.6052 8.02758 13.5701 7.99242C13.5349 7.95725 13.4872 7.9375 13.4375 7.9375H3.5625C3.51277 7.9375 3.46508 7.95725 3.42992 7.99242C3.39475 8.02758 3.375 8.07527 3.375 8.125C3.37464 8.45641 3.24282 8.77414 3.00848 9.00848C2.77414 9.24282 2.45641 9.37464 2.125 9.375C2.07527 9.375 2.02758 9.39475 1.99242 9.42992C1.95725 9.46508 1.9375 9.51277 1.9375 9.5625V12.9375C1.9375 12.9872 1.95725 13.0349 1.99242 13.0701C2.02758 13.1052 2.07527 13.125 2.125 13.125C2.45641 13.1254 2.77414 13.2572 3.00848 13.4915C3.24282 13.7259 3.37464 14.0436 3.375 14.375C3.375 14.4247 3.39475 14.4724 3.42992 14.5076C3.46508 14.5427 3.51277 14.5625 3.5625 14.5625H13.4375C13.4872 14.5625 13.5349 14.5427 13.5701 14.5076C13.6052 14.4724 13.625 14.4247 13.625 14.375C13.6254 14.0436 13.7572 13.7259 13.9915 13.4915C14.2259 13.2572 14.5436 13.1254 14.875 13.125C14.9247 13.125 14.9724 13.1052 15.0076 13.0701C15.0427 13.0349 15.0625 12.9872 15.0625 12.9375ZM14.6875 12.7607C14.3239 12.8035 13.9853 12.9676 13.7264 13.2264C13.4676 13.4853 13.3035 13.8239 13.2607 14.1875H3.73925C3.6965 13.8239 3.53244 13.4853 3.27356 13.2264C3.01468 12.9676 2.6761 12.8035 2.3125 12.7607V9.73925C2.6761 9.6965 3.01468 9.53244 3.27356 9.27356C3.53244 9.01468 3.6965 8.6761 3.73925 8.3125H13.2607C13.3035 8.6761 13.4676 9.01468 13.7264 9.27356C13.9853 9.53244 14.3239 9.6965 14.6875 9.73925V12.7607Z" fill="#1E866F"/>
<path d="M8.5 9.125C8.07972 9.125 7.66887 9.24963 7.31941 9.48313C6.96996 9.71662 6.69759 10.0485 6.53676 10.4368C6.37592 10.8251 6.33384 11.2524 6.41583 11.6646C6.49783 12.0768 6.70021 12.4554 6.9974 12.7526C7.29459 13.0498 7.67322 13.2522 8.08543 13.3342C8.49764 13.4162 8.92491 13.3741 9.3132 13.2132C9.7015 13.0524 10.0334 12.78 10.2669 12.4306C10.5004 12.0811 10.625 11.6703 10.625 11.25C10.6244 10.6866 10.4003 10.1465 10.0019 9.74809C9.60353 9.34971 9.06339 9.12563 8.5 9.125ZM8.5 13C8.15388 13 7.81554 12.8974 7.52775 12.7051C7.23997 12.5128 7.01567 12.2395 6.88321 11.9197C6.75076 11.5999 6.7161 11.2481 6.78363 10.9086C6.85115 10.5691 7.01782 10.2573 7.26256 10.0126C7.50731 9.76782 7.81913 9.60115 8.15859 9.53363C8.49806 9.4661 8.84993 9.50076 9.1697 9.63321C9.48947 9.76566 9.76278 9.98997 9.95507 10.2778C10.1474 10.5655 10.25 10.9039 10.25 11.25C10.2495 11.714 10.065 12.1588 9.73689 12.4869C9.40881 12.815 8.96398 12.9995 8.5 13Z" fill="#1E866F"/>
</g>
<defs>
<clipPath id="clip0_5999_1727">
<rect width="16" height="16" fill="white" transform="translate(0.5)"/>
</clipPath>
</defs>
</svg>
