<svg width="15" height="16" viewBox="0 0 15 16" fill="none" xmlns="http://www.w3.org/2000/svg">
<path d="M5 10.5C5 11.1922 5.20527 11.8689 5.58986 12.4445C5.97444 13.0201 6.52107 13.4687 7.16061 13.7336C7.80015 13.9985 8.50388 14.0678 9.18282 13.9327C9.86175 13.7977 10.4854 13.4644 10.9749 12.9749C11.4644 12.4854 11.7977 11.8618 11.9327 11.1828C12.0678 10.5039 11.9985 9.80015 11.7336 9.16061C11.4687 8.52107 11.0201 7.97444 10.4445 7.58986C9.86892 7.20527 9.19223 7 8.5 7C7.57205 7.00099 6.68238 7.37006 6.02622 8.02622C5.37006 8.68238 5.00099 9.57205 5 10.5ZM8.5 7.5C9.09334 7.5 9.67336 7.67595 10.1667 8.00559C10.6601 8.33524 11.0446 8.80377 11.2716 9.35195C11.4987 9.90013 11.5581 10.5033 11.4424 11.0853C11.3266 11.6672 11.0409 12.2018 10.6213 12.6213C10.2018 13.0409 9.66721 13.3266 9.08527 13.4424C8.50333 13.5581 7.90013 13.4987 7.35195 13.2716C6.80377 13.0446 6.33524 12.6601 6.00559 12.1667C5.67595 11.6734 5.5 11.0933 5.5 10.5C5.50086 9.70461 5.81721 8.94205 6.37963 8.37963C6.94205 7.81721 7.70461 7.50086 8.5 7.5Z" fill="#1E866F"/>
<path d="M6.616 11.0672L7.4625 11.8922C7.61645 12.0408 7.822 12.1241 8.036 12.1245C8.14904 12.1245 8.26088 12.1012 8.36451 12.056C8.46813 12.0109 8.56133 11.9448 8.63825 11.862L10.1632 10.212C10.235 10.1341 10.2904 10.0427 10.3262 9.94305C10.3621 9.84345 10.3777 9.73767 10.372 9.63196C10.3664 9.52625 10.3397 9.42273 10.2934 9.3275C10.2472 9.23227 10.1823 9.14726 10.1027 9.07746C9.94124 8.93727 9.73169 8.86509 9.51811 8.8761C9.30452 8.8871 9.1035 8.98041 8.95725 9.13646L8.005 10.1672L7.76275 9.93121C7.6086 9.78301 7.40308 9.70024 7.18925 9.70024C6.97542 9.70024 6.76989 9.78301 6.61575 9.93121C6.53999 10.0051 6.47979 10.0935 6.43869 10.1911C6.3976 10.2886 6.37644 10.3934 6.37646 10.4993C6.37649 10.6051 6.39769 10.7099 6.43883 10.8074C6.47997 10.905 6.54021 10.9933 6.616 11.0672ZM6.966 10.2895C7.02651 10.2314 7.10713 10.199 7.191 10.199C7.27486 10.199 7.35548 10.2314 7.416 10.2895L7.841 10.7045C7.86482 10.7279 7.89314 10.7462 7.92425 10.7584C7.95536 10.7705 7.98861 10.7763 8.022 10.7752C8.05536 10.7743 8.08822 10.7668 8.11861 10.753C8.14901 10.7392 8.17635 10.7195 8.199 10.695L9.325 9.47596C9.38236 9.41444 9.46143 9.37769 9.54544 9.37349C9.62944 9.36929 9.71178 9.39797 9.775 9.45346C9.80465 9.47904 9.82885 9.51035 9.84614 9.54549C9.86343 9.58064 9.87346 9.61891 9.87563 9.65802C9.8778 9.69713 9.87207 9.73627 9.85877 9.77312C9.84548 9.80996 9.82489 9.84375 9.79825 9.87246L8.27325 11.5225C8.24317 11.5548 8.20671 11.5805 8.16618 11.598C8.12564 11.6156 8.08191 11.6245 8.03775 11.6242C7.95415 11.6231 7.87396 11.5909 7.81275 11.534L6.966 10.709C6.93768 10.6819 6.91512 10.6494 6.89967 10.6134C6.88422 10.5774 6.8762 10.5386 6.87608 10.4995C6.87596 10.4603 6.88376 10.4215 6.89899 10.3854C6.91423 10.3493 6.93659 10.3167 6.96475 10.2895H6.966Z" fill="#1E866F"/>
<path d="M14.2501 3.5H13.7501V2.25C13.7501 2.1837 13.7237 2.12011 13.6768 2.07322C13.63 2.02634 13.5664 2 13.5001 2H12.0001V0.75C12.0001 0.683696 11.9737 0.620107 11.9268 0.573223C11.88 0.526339 11.8164 0.5 11.7501 0.5H1.25007C1.18376 0.5 1.12017 0.526339 1.07329 0.573223C1.02641 0.620107 1.00007 0.683696 1.00007 0.75V3.5H0.920566C0.666138 3.51124 0.426502 3.62273 0.254021 3.81011C0.0815406 3.99748 -0.00976143 4.24551 6.59505e-05 4.5V14.4797C-0.0103843 14.7389 0.0820991 14.9916 0.257325 15.1827C0.43255 15.3739 0.676285 15.4879 0.935316 15.5H14.1036C14.3572 15.4823 14.5937 15.3652 14.7615 15.1742C14.9294 14.9831 15.0151 14.7336 15.0001 14.4797V4.25C15.0001 4.05109 14.921 3.86032 14.7804 3.71967C14.6397 3.57902 14.449 3.5 14.2501 3.5ZM13.2501 2.5V5.5H8.08982C8.03678 5.49942 7.98598 5.47858 7.94782 5.44175L6.09332 3.6945C5.96264 3.56993 5.78911 3.5003 5.60857 3.5H3.25007V2.5H13.2501ZM0.935316 15C0.809061 14.9876 0.692711 14.9262 0.611309 14.8289C0.529906 14.7316 0.48996 14.6062 0.500066 14.4797V4.5C0.490536 4.37815 0.529282 4.25744 0.607946 4.16391C0.686611 4.07037 0.79889 4.0115 0.920566 4H1.00007V14.25C1.00007 14.3163 1.02641 14.3799 1.07329 14.4268C1.12017 14.4737 1.18376 14.5 1.25007 14.5H2.00182C2.00466 14.6744 2.04842 14.8456 2.12957 15H0.935316ZM14.5001 14.4797C14.5001 14.7617 14.3183 15 14.1036 15H2.89657C2.68182 15 2.50007 14.7617 2.50007 14.4797V10.25C2.50007 10.1837 2.47373 10.1201 2.42684 10.0732C2.37996 10.0263 2.31637 10 2.25007 10C2.18376 10 2.12017 10.0263 2.07329 10.0732C2.02641 10.1201 2.00007 10.1837 2.00007 10.25V14H1.50007V1H11.5001V2H3.00007C2.93376 2 2.87017 2.02634 2.82329 2.07322C2.77641 2.12011 2.75007 2.1837 2.75007 2.25V3.51525C2.52968 3.56587 2.33398 3.69209 2.19697 3.87199C2.05996 4.05188 1.99029 4.27408 2.00007 4.5V8.25C2.00007 8.3163 2.02641 8.37989 2.07329 8.42678C2.12017 8.47366 2.18376 8.5 2.25007 8.5C2.31637 8.5 2.37996 8.47366 2.42684 8.42678C2.47373 8.37989 2.50007 8.3163 2.50007 8.25V4.5C2.4882 4.38363 2.52117 4.26711 2.59224 4.17421C2.66331 4.0813 2.76714 4.019 2.88257 4H5.60757C5.66052 4.00059 5.71124 4.02144 5.74932 4.05825L7.60382 5.8055C7.7346 5.93007 7.9082 5.99969 8.08882 6H14.5001V14.4797ZM14.5001 5.5H13.7501V4H14.2501C14.3164 4 14.38 4.02634 14.4268 4.07322C14.4737 4.12011 14.5001 4.1837 14.5001 4.25V5.5Z" fill="#1E866F"/>
<path d="M7.5 3.75H12.5C12.5663 3.75 12.6299 3.72366 12.6768 3.67678C12.7237 3.62989 12.75 3.5663 12.75 3.5C12.75 3.4337 12.7237 3.37011 12.6768 3.32322C12.6299 3.27634 12.5663 3.25 12.5 3.25H7.5C7.4337 3.25 7.37011 3.27634 7.32322 3.32322C7.27634 3.37011 7.25 3.4337 7.25 3.5C7.25 3.5663 7.27634 3.62989 7.32322 3.67678C7.37011 3.72366 7.4337 3.75 7.5 3.75ZM12.5 4.25H8.75C8.6837 4.25 8.62011 4.27634 8.57322 4.32322C8.52634 4.37011 8.5 4.4337 8.5 4.5C8.5 4.5663 8.52634 4.62989 8.57322 4.67678C8.62011 4.72366 8.6837 4.75 8.75 4.75H12.5C12.5663 4.75 12.6299 4.72366 12.6768 4.67678C12.7237 4.62989 12.75 4.5663 12.75 4.5C12.75 4.4337 12.7237 4.37011 12.6768 4.32322C12.6299 4.27634 12.5663 4.25 12.5 4.25Z" fill="#1E866F"/>
<path d="M2.25 9.5C2.38807 9.5 2.5 9.38807 2.5 9.25C2.5 9.11193 2.38807 9 2.25 9C2.11193 9 2 9.11193 2 9.25C2 9.38807 2.11193 9.5 2.25 9.5Z" fill="#1E866F"/>
</svg>
