<svg width="17" height="16" viewBox="0 0 17 16" fill="none" xmlns="http://www.w3.org/2000/svg">
<g clip-path="url(#clip0_5999_1756)">
<path d="M13.5625 6.76107e-06H6.02851C5.85601 -0.00054881 5.68511 0.0331402 5.52573 0.0991211C5.36634 0.165102 5.22164 0.262062 5.10001 0.384382L2.50938 2.97501C2.38706 3.09664 2.2901 3.24134 2.22412 3.40073C2.15814 3.56011 2.12445 3.73101 2.12501 3.90351V14.6875C2.1254 15.0355 2.26381 15.3691 2.50987 15.6151C2.75592 15.8612 3.08953 15.9996 3.43751 16H13.5625C13.9105 15.9996 14.2441 15.8612 14.4901 15.6151C14.7362 15.3691 14.8746 15.0355 14.875 14.6875V1.31251C14.8746 0.964532 14.7362 0.630923 14.4901 0.384868C14.2441 0.138812 13.9105 0.000403766 13.5625 6.76107e-06ZM5.37501 0.641007V2.68751C5.37484 2.83664 5.31553 2.97962 5.21007 3.08507C5.10462 3.19053 4.96164 3.24984 4.81251 3.25001H2.76601L5.37501 0.641007ZM14.5 14.6875C14.4997 14.9361 14.4009 15.1744 14.2251 15.3501C14.0494 15.5259 13.8111 15.6247 13.5625 15.625H3.43751C3.18895 15.6247 2.95064 15.5259 2.77489 15.3501C2.59913 15.1744 2.50027 14.9361 2.50001 14.6875V3.90351C2.49996 3.80908 2.51416 3.71519 2.54213 3.62501H4.81251C5.06107 3.62474 5.29937 3.52589 5.47513 3.35013C5.65088 3.17437 5.74974 2.93607 5.75001 2.68751V0.417132C5.84019 0.389158 5.93408 0.374956 6.02851 0.375007H13.5625C13.8111 0.375271 14.0494 0.474128 14.2251 0.649886C14.4009 0.825644 14.4997 1.06395 14.5 1.31251V14.6875Z" fill="#1E866F"/>
<path d="M10.9375 1.375H13.5625C13.6122 1.375 13.6599 1.35525 13.6951 1.32008C13.7302 1.28492 13.75 1.23723 13.75 1.1875C13.75 1.13777 13.7302 1.09008 13.6951 1.05492C13.6599 1.01975 13.6122 1 13.5625 1H10.9375C10.8878 1 10.8401 1.01975 10.8049 1.05492C10.7698 1.09008 10.75 1.13777 10.75 1.1875C10.75 1.23723 10.7698 1.28492 10.8049 1.32008C10.8401 1.35525 10.8878 1.375 10.9375 1.375ZM13.5625 2H11.9375C11.8878 2 11.8401 2.01975 11.8049 2.05492C11.7698 2.09008 11.75 2.13777 11.75 2.1875C11.75 2.23723 11.7698 2.28492 11.8049 2.32008C11.8401 2.35525 11.8878 2.375 11.9375 2.375H13.5625C13.6122 2.375 13.6599 2.35525 13.6951 2.32008C13.7302 2.28492 13.75 2.23723 13.75 2.1875C13.75 2.13777 13.7302 2.09008 13.6951 2.05492C13.6599 2.01975 13.6122 2 13.5625 2ZM5.875 8.75C6.3367 8.74896 6.78557 8.59797 7.15403 8.31975C7.52249 8.04153 7.7906 7.65115 7.918 7.20738C7.92471 7.18368 7.92669 7.15889 7.92383 7.13443C7.92096 7.10997 7.91331 7.08631 7.9013 7.06481C7.88929 7.04331 7.87317 7.02438 7.85385 7.00911C7.83452 6.99384 7.81238 6.98253 7.78869 6.97581C7.76499 6.9691 7.74021 6.96712 7.71574 6.96998C7.69128 6.97285 7.66763 6.9805 7.64612 6.99251C7.62462 7.00452 7.60569 7.02064 7.59042 7.03997C7.57515 7.05929 7.56384 7.08143 7.55712 7.10512C7.45903 7.44767 7.25864 7.75208 6.98278 7.9776C6.70692 8.20312 6.36875 8.33899 6.01354 8.36702C5.65833 8.39506 5.30303 8.31392 4.99521 8.13446C4.68739 7.95501 4.44172 7.68581 4.29111 7.36289C4.1405 7.03997 4.09212 6.67876 4.15245 6.32759C4.21278 5.97642 4.37895 5.65206 4.6287 5.39793C4.87845 5.1438 5.19988 4.97202 5.54994 4.9056C5.90001 4.83917 6.26202 4.88127 6.5875 5.02625C6.61004 5.03665 6.63443 5.04248 6.65925 5.04338C6.68406 5.04428 6.70881 5.04025 6.73205 5.03151C6.75529 5.02277 6.77657 5.00951 6.79464 4.99248C6.81271 4.97545 6.82722 4.955 6.83733 4.93232C6.84744 4.90964 6.85294 4.88518 6.85352 4.86036C6.85409 4.83553 6.84973 4.81084 6.84069 4.78772C6.83165 4.76459 6.8181 4.74349 6.80084 4.72565C6.78357 4.7078 6.76294 4.69356 6.74012 4.68375C6.45096 4.55499 6.13669 4.49246 5.82027 4.50072C5.50385 4.50899 5.19327 4.58783 4.91122 4.7315C4.62917 4.87517 4.38279 5.08003 4.19006 5.33112C3.99733 5.58221 3.86312 5.87319 3.79725 6.18279C3.73138 6.49239 3.73551 6.81279 3.80933 7.1206C3.88315 7.4284 4.02481 7.71582 4.22394 7.96186C4.42307 8.20791 4.67465 8.40636 4.96031 8.54271C5.24596 8.67907 5.55847 8.74989 5.875 8.75ZM13.485 6H9.765C9.6616 6.0001 9.56245 6.04122 9.48934 6.11434C9.41622 6.18746 9.3751 6.2866 9.375 6.39V6.86C9.3751 6.9634 9.41622 7.06254 9.48934 7.13566C9.56245 7.20878 9.6616 7.2499 9.765 7.25H13.485C13.5884 7.2499 13.6875 7.20878 13.7607 7.13566C13.8338 7.06254 13.8749 6.9634 13.875 6.86V6.39C13.8749 6.2866 13.8338 6.18746 13.7607 6.11434C13.6875 6.04122 13.5884 6.0001 13.485 6ZM13.5 6.86C13.5 6.86398 13.4984 6.86779 13.4956 6.87061C13.4928 6.87342 13.489 6.875 13.485 6.875H9.765C9.76102 6.875 9.75721 6.87342 9.75439 6.87061C9.75158 6.86779 9.75 6.86398 9.75 6.86V6.39C9.75 6.38602 9.75158 6.38221 9.75439 6.37939C9.75721 6.37658 9.76102 6.375 9.765 6.375H13.485C13.489 6.375 13.4928 6.37658 13.4956 6.37939C13.4984 6.38221 13.5 6.38602 13.5 6.39V6.86ZM13.485 11.25H9.765C9.6616 11.2501 9.56245 11.2912 9.48934 11.3643C9.41622 11.4375 9.3751 11.5366 9.375 11.64V12.11C9.3751 12.2134 9.41622 12.3125 9.48934 12.3857C9.56245 12.4588 9.6616 12.4999 9.765 12.5H13.485C13.5884 12.4999 13.6875 12.4588 13.7607 12.3857C13.8338 12.3125 13.8749 12.2134 13.875 12.11V11.64C13.8749 11.5366 13.8338 11.4375 13.7607 11.3643C13.6875 11.2912 13.5884 11.2501 13.485 11.25ZM13.5 12.11C13.5 12.114 13.4984 12.1178 13.4956 12.1206C13.4928 12.1234 13.489 12.125 13.485 12.125H9.765C9.76102 12.125 9.75721 12.1234 9.75439 12.1206C9.75158 12.1178 9.75 12.114 9.75 12.11V11.64C9.75 11.636 9.75158 11.6322 9.75439 11.6294C9.75721 11.6266 9.76102 11.625 9.765 11.625H13.485C13.489 11.625 13.4928 11.6266 13.4956 11.6294C13.4984 11.6322 13.5 11.636 13.5 11.64V12.11Z" fill="#1E866F"/>
<path d="M8.11664 5.13735C7.99933 5.01418 7.83807 4.94243 7.66804 4.93774C7.49802 4.93306 7.33305 4.99583 7.20914 5.11235L6.11514 6.14985L5.80264 5.83735C5.68178 5.71949 5.51936 5.654 5.35056 5.65506C5.18175 5.65612 5.02016 5.72364 4.9008 5.84301C4.78144 5.96237 4.71391 6.12396 4.71285 6.29277C4.71179 6.46157 4.77728 6.62399 4.89514 6.74485L5.64989 7.49985C5.76764 7.61896 5.92748 7.68702 6.09495 7.68935C6.26242 7.69169 6.42411 7.62812 6.54514 7.51235L8.09214 6.04485C8.21554 5.92778 8.28747 5.76655 8.29216 5.59652C8.29685 5.42648 8.2339 5.26153 8.11714 5.13785L8.11664 5.13735ZM7.83414 5.77235L6.28664 7.23922C6.23635 7.2874 6.16913 7.31388 6.09949 7.31295C6.02985 7.31201 5.96337 7.28374 5.91439 7.23422L5.16039 6.48022C5.1124 6.42982 5.086 6.36265 5.08685 6.29306C5.08769 6.22346 5.11569 6.15695 5.16489 6.10772C5.21409 6.05849 5.28058 6.03044 5.35017 6.02955C5.41977 6.02867 5.48695 6.05501 5.53739 6.10297L5.97876 6.54422C6.0133 6.5788 6.05997 6.59853 6.10884 6.59921C6.15771 6.59989 6.20491 6.58146 6.24039 6.54785L7.46689 5.38535C7.49233 5.36125 7.52227 5.3424 7.555 5.32987C7.58773 5.31735 7.6226 5.31139 7.65764 5.31234C7.69267 5.31329 7.72717 5.32113 7.75917 5.33542C7.79117 5.34971 7.82004 5.37015 7.84414 5.3956C7.86824 5.42104 7.88709 5.45098 7.89961 5.48371C7.91214 5.51644 7.9181 5.55131 7.91714 5.58634C7.91619 5.62138 7.90835 5.65588 7.89406 5.68788C7.87978 5.71988 7.85933 5.74875 7.83389 5.77285L7.83414 5.77235ZM7.78864 12.2257C7.76494 12.219 7.74015 12.217 7.71569 12.2199C7.69122 12.2227 7.66756 12.2304 7.64604 12.2424C7.62453 12.2544 7.6056 12.2705 7.59032 12.2898C7.57505 12.3091 7.56373 12.3313 7.55701 12.355C7.45892 12.6975 7.25853 13.0019 6.98267 13.2274C6.70681 13.453 6.36864 13.5888 6.01343 13.6169C5.65822 13.6449 5.30292 13.5638 4.9951 13.3843C4.68727 13.2049 4.44161 12.9357 4.291 12.6127C4.14039 12.2898 4.09201 11.9286 4.15234 11.5774C4.21267 11.2263 4.37884 10.9019 4.62859 10.6478C4.87834 10.3936 5.19977 10.2219 5.54983 10.1554C5.8999 10.089 6.2619 10.1311 6.58739 10.2761C6.60993 10.2865 6.63432 10.2923 6.65914 10.2932C6.68395 10.2941 6.7087 10.2901 6.73194 10.2814C6.75518 10.2726 6.77645 10.2594 6.79453 10.2423C6.8126 10.2253 6.82711 10.2049 6.83722 10.1822C6.84733 10.1595 6.85283 10.135 6.8534 10.1102C6.85398 10.0854 6.84962 10.0607 6.84058 10.0376C6.83153 10.0144 6.81799 9.99334 6.80072 9.97549C6.78346 9.95765 6.76282 9.9434 6.74001 9.9336C6.34445 9.75719 5.90444 9.70587 5.4789 9.7865C5.05336 9.86714 4.66262 10.0759 4.35902 10.3848C4.05541 10.6936 3.85344 11.0879 3.78015 11.5148C3.70687 11.9417 3.76577 12.3807 3.94896 12.7732C4.13216 13.1656 4.4309 13.4927 4.80518 13.7107C5.17946 13.9286 5.6114 14.027 6.04314 13.9927C6.47489 13.9583 6.88582 13.7928 7.2209 13.5184C7.55598 13.244 7.79921 12.8737 7.91801 12.4572C7.92472 12.4335 7.9267 12.4087 7.92383 12.3843C7.92095 12.3598 7.91329 12.3362 7.90128 12.3147C7.88927 12.2932 7.87313 12.2743 7.85381 12.259C7.83448 12.2437 7.81234 12.2324 7.78864 12.2257Z" fill="#1E866F"/>
<path d="M8.11669 10.3872C7.99934 10.2641 7.83809 10.1924 7.66809 10.1877C7.4981 10.1831 7.33315 10.2458 7.20919 10.3622L6.11519 11.3997L5.80269 11.0872C5.68184 10.9693 5.51942 10.9038 5.35061 10.9049C5.18181 10.906 5.02022 10.9735 4.90085 11.0929C4.78149 11.2122 4.71396 11.3738 4.7129 11.5426C4.71184 11.7114 4.77734 11.8738 4.89519 11.9947L5.64994 12.7497C5.76769 12.8688 5.92754 12.9369 6.09501 12.9392C6.26248 12.9415 6.42416 12.878 6.54519 12.7622L8.09219 11.2947C8.21559 11.1776 8.28753 11.0164 8.29221 10.8464C8.2969 10.6763 8.23396 10.5114 8.11719 10.3877L8.11669 10.3872ZM7.83419 11.0222L6.28669 12.4891C6.2364 12.5372 6.16918 12.5637 6.09954 12.5628C6.0299 12.5619 5.96342 12.5336 5.91444 12.4841L5.16044 11.7301C5.11245 11.6797 5.08606 11.6125 5.0869 11.5429C5.08774 11.4733 5.11575 11.4068 5.16495 11.3576C5.21414 11.3083 5.28063 11.2803 5.35023 11.2794C5.41982 11.2785 5.48701 11.3049 5.53744 11.3528L5.97882 11.7941C6.01335 11.8287 6.06002 11.8484 6.10889 11.8491C6.15776 11.8497 6.20496 11.8313 6.24044 11.7977L7.46694 10.6352C7.49239 10.6111 7.52233 10.5922 7.55506 10.5797C7.58778 10.5672 7.62266 10.5612 7.65769 10.5622C7.69272 10.5631 7.72722 10.571 7.75922 10.5853C7.79122 10.5996 7.8201 10.62 7.84419 10.6454C7.86829 10.6709 7.88714 10.7008 7.89967 10.7336C7.91219 10.7663 7.91815 10.8012 7.9172 10.8362C7.91625 10.8712 7.9084 10.9057 7.89412 10.9377C7.87983 10.9697 7.85939 10.9986 7.83394 11.0227L7.83419 11.0222Z" fill="#1E866F"/>
</g>
<defs>
<clipPath id="clip0_5999_1756">
<rect width="16" height="16" fill="white" transform="translate(0.5)"/>
</clipPath>
</defs>
</svg>
