<svg width="16" height="16" viewBox="0 0 16 16" fill="none" xmlns="http://www.w3.org/2000/svg">
<g clip-path="url(#clip0_5999_1538)">
<path d="M10.25 6.75H3.75C3.6837 6.75 3.62011 6.77634 3.57322 6.82322C3.52634 6.87011 3.5 6.9337 3.5 7C3.5 7.0663 3.52634 7.12989 3.57322 7.17678C3.62011 7.22366 3.6837 7.25 3.75 7.25H10.25C10.3163 7.25 10.3799 7.22366 10.4268 7.17678C10.4737 7.12989 10.5 7.0663 10.5 7C10.5 6.9337 10.4737 6.87011 10.4268 6.82322C10.3799 6.77634 10.3163 6.75 10.25 6.75ZM7.25 9.75H3.75C3.6837 9.75 3.62011 9.77634 3.57322 9.82322C3.52634 9.87011 3.5 9.9337 3.5 10C3.5 10.0663 3.52634 10.1299 3.57322 10.1768C3.62011 10.2237 3.6837 10.25 3.75 10.25H7.25C7.3163 10.25 7.37989 10.2237 7.42678 10.1768C7.47366 10.1299 7.5 10.0663 7.5 10C7.5 9.9337 7.47366 9.87011 7.42678 9.82322C7.37989 9.77634 7.3163 9.75 7.25 9.75ZM5.25 12.75H3.75C3.6837 12.75 3.62011 12.7763 3.57322 12.8232C3.52634 12.8701 3.5 12.9337 3.5 13C3.5 13.0663 3.52634 13.1299 3.57322 13.1768C3.62011 13.2237 3.6837 13.25 3.75 13.25H5.25C5.3163 13.25 5.37989 13.2237 5.42678 13.1768C5.47366 13.1299 5.5 13.0663 5.5 13C5.5 12.9337 5.47366 12.8701 5.42678 12.8232C5.37989 12.7763 5.3163 12.75 5.25 12.75ZM2.25 6.25C2.10166 6.25 1.95666 6.29399 1.83332 6.3764C1.70999 6.45881 1.61386 6.57594 1.55709 6.71299C1.50032 6.85003 1.48547 7.00083 1.51441 7.14632C1.54335 7.2918 1.61478 7.42544 1.71967 7.53033C1.82456 7.63522 1.9582 7.70665 2.10368 7.73559C2.24917 7.76453 2.39997 7.74968 2.53701 7.69291C2.67406 7.63614 2.79119 7.54001 2.8736 7.41668C2.95601 7.29334 3 7.14834 3 7C3 6.80109 2.92098 6.61032 2.78033 6.46967C2.63968 6.32902 2.44891 6.25 2.25 6.25ZM2.25 7.25C2.20055 7.25 2.15222 7.23534 2.11111 7.20787C2.07 7.1804 2.03795 7.14135 2.01903 7.09567C2.00011 7.04999 1.99516 6.99972 2.0048 6.95123C2.01445 6.90273 2.03826 6.85819 2.07322 6.82322C2.10819 6.78826 2.15273 6.76445 2.20123 6.7548C2.24972 6.74516 2.29999 6.75011 2.34567 6.76903C2.39135 6.78795 2.4304 6.82 2.45787 6.86111C2.48534 6.90222 2.5 6.95055 2.5 7C2.5 7.0663 2.47366 7.12989 2.42678 7.17678C2.37989 7.22366 2.3163 7.25 2.25 7.25ZM2.25 9.25C2.10166 9.25 1.95666 9.29399 1.83332 9.3764C1.70999 9.45881 1.61386 9.57594 1.55709 9.71299C1.50032 9.85003 1.48547 10.0008 1.51441 10.1463C1.54335 10.2918 1.61478 10.4254 1.71967 10.5303C1.82456 10.6352 1.9582 10.7067 2.10368 10.7356C2.24917 10.7645 2.39997 10.7497 2.53701 10.6929C2.67406 10.6361 2.79119 10.54 2.8736 10.4167C2.95601 10.2933 3 10.1483 3 10C3 9.80109 2.92098 9.61032 2.78033 9.46967C2.63968 9.32902 2.44891 9.25 2.25 9.25ZM2.25 10.25C2.20055 10.25 2.15222 10.2353 2.11111 10.2079C2.07 10.1804 2.03795 10.1414 2.01903 10.0957C2.00011 10.05 1.99516 9.99972 2.0048 9.95123C2.01445 9.90273 2.03826 9.85819 2.07322 9.82322C2.10819 9.78826 2.15273 9.76445 2.20123 9.7548C2.24972 9.74516 2.29999 9.75011 2.34567 9.76903C2.39135 9.78795 2.4304 9.82 2.45787 9.86111C2.48534 9.90222 2.5 9.95055 2.5 10C2.5 10.0663 2.47366 10.1299 2.42678 10.1768C2.37989 10.2237 2.3163 10.25 2.25 10.25ZM2.25 12.25C2.10166 12.25 1.95666 12.294 1.83332 12.3764C1.70999 12.4588 1.61386 12.5759 1.55709 12.713C1.50032 12.85 1.48547 13.0008 1.51441 13.1463C1.54335 13.2918 1.61478 13.4254 1.71967 13.5303C1.82456 13.6352 1.9582 13.7067 2.10368 13.7356C2.24917 13.7645 2.39997 13.7497 2.53701 13.6929C2.67406 13.6361 2.79119 13.54 2.8736 13.4167C2.95601 13.2933 3 13.1483 3 13C3 12.8011 2.92098 12.6103 2.78033 12.4697C2.63968 12.329 2.44891 12.25 2.25 12.25ZM2.25 13.25C2.20055 13.25 2.15222 13.2353 2.11111 13.2079C2.07 13.1804 2.03795 13.1414 2.01903 13.0957C2.00011 13.05 1.99516 12.9997 2.0048 12.9512C2.01445 12.9027 2.03826 12.8582 2.07322 12.8232C2.10819 12.7883 2.15273 12.7645 2.20123 12.7548C2.24972 12.7452 2.29999 12.7501 2.34567 12.769C2.39135 12.788 2.4304 12.82 2.45787 12.8611C2.48534 12.9022 2.5 12.9506 2.5 13C2.5 13.0663 2.47366 13.1299 2.42678 13.1768C2.37989 13.2237 2.3163 13.25 2.25 13.25Z" fill="#1E866F"/>
<path d="M1.75 15.5H10.25C10.5814 15.4996 10.8991 15.3678 11.1334 15.1334C11.3678 14.8991 11.4996 14.5814 11.5 14.25V10.0588L14.825 6.73375C14.8916 6.87319 14.9135 7.0298 14.8878 7.18217C14.862 7.33454 14.7898 7.47523 14.681 7.585L12.3825 9.88325C12.337 9.9304 12.3118 9.99355 12.3123 10.0591C12.3129 10.1246 12.3392 10.1874 12.3855 10.2337C12.4319 10.2801 12.4946 10.3063 12.5602 10.3069C12.6257 10.3075 12.6888 10.2823 12.736 10.2367L15.0343 7.93875C15.2683 7.70414 15.3997 7.38627 15.3997 7.05487C15.3997 6.72348 15.2683 6.40561 15.0343 6.171L14.8575 5.99425L15.3877 5.46375C15.4574 5.3941 15.5127 5.31142 15.5504 5.22042C15.5881 5.12941 15.6075 5.03188 15.6075 4.93337C15.6075 4.83487 15.5881 4.73734 15.5504 4.64633C15.5127 4.55533 15.4574 4.47265 15.3877 4.403C15.2449 4.2667 15.055 4.19067 14.8575 4.19067C14.66 4.19067 14.4701 4.2667 14.3272 4.403L13.7968 4.93325C13.7503 4.8868 13.6952 4.84995 13.6345 4.82481C13.5738 4.79967 13.5088 4.78673 13.4431 4.78673C13.3774 4.78673 13.3124 4.79967 13.2517 4.82481C13.1911 4.84995 13.1359 4.8868 13.0895 4.93325L11.5 6.52325V3C11.4996 2.6686 11.3678 2.35089 11.1334 2.11655C10.8991 1.88222 10.5814 1.7504 10.25 1.75H10.125V1.375C10.125 1.14294 10.0328 0.920376 9.86872 0.756282C9.70462 0.592187 9.48206 0.5 9.25 0.5C9.01794 0.5 8.79538 0.592187 8.63128 0.756282C8.46719 0.920376 8.375 1.14294 8.375 1.375V1.75H6.875V1.375C6.875 1.14294 6.78281 0.920376 6.61872 0.756282C6.45462 0.592187 6.23206 0.5 6 0.5C5.76794 0.5 5.54538 0.592187 5.38128 0.756282C5.21719 0.920376 5.125 1.14294 5.125 1.375V1.75H3.625V1.375C3.625 1.14294 3.53281 0.920376 3.36872 0.756282C3.20462 0.592187 2.98206 0.5 2.75 0.5C2.51794 0.5 2.29538 0.592187 2.13128 0.756282C1.96719 0.920376 1.875 1.14294 1.875 1.375V1.75H1.75C1.4186 1.7504 1.10089 1.88222 0.866555 2.11655C0.63222 2.35089 0.500397 2.6686 0.5 3V14.25C0.500397 14.5814 0.63222 14.8991 0.866555 15.1334C1.10089 15.3678 1.4186 15.4996 1.75 15.5ZM8.847 12.0048L7.7865 10.944L9.731 9L10.7915 10.0605L8.847 12.0048ZM7.25875 12.5323L7.56075 11.425L8.3655 12.2297L7.25875 12.5323ZM10.438 8.29225L11.5 9.353L11.145 9.7065L10.0845 8.646L10.438 8.29225ZM14.6807 4.75675C14.7283 4.71124 14.7917 4.68584 14.8575 4.68584C14.9233 4.68584 14.9867 4.71124 15.0343 4.75675C15.0811 4.80363 15.1074 4.86721 15.1074 4.9335C15.1074 4.99979 15.0811 5.06337 15.0343 5.11025L14.504 5.64075L14.15 5.287L14.6807 4.75675ZM13.443 5.287L14.504 6.34775L11.8523 9L10.7915 7.93925L13.443 5.287ZM7.25725 10.7662C7.2259 10.7972 7.20331 10.836 7.19175 10.8785L6.77625 12.4C6.75304 12.485 6.75273 12.5747 6.77535 12.6599C6.79797 12.7451 6.84272 12.8229 6.90506 12.8852C6.9674 12.9475 7.04511 12.9923 7.13032 13.0149C7.21553 13.0375 7.3052 13.0372 7.39025 13.014C7.7705 12.9095 8.9125 12.5985 8.9125 12.5985C8.95504 12.5869 8.99376 12.5643 9.02475 12.533L10.9998 10.558V14.25C10.9998 14.4489 10.9207 14.6397 10.7801 14.7803C10.6394 14.921 10.4487 15 10.2498 15H1.75C1.55109 15 1.36032 14.921 1.21967 14.7803C1.07902 14.6397 1 14.4489 1 14.25V5.25H11V7.02325L7.25725 10.7662ZM8.875 1.375C8.875 1.27554 8.91451 1.18016 8.98483 1.10983C9.05516 1.03951 9.15054 1 9.25 1C9.34946 1 9.44484 1.03951 9.51517 1.10983C9.58549 1.18016 9.625 1.27554 9.625 1.375V2.375C9.625 2.47446 9.58549 2.56984 9.51517 2.64017C9.44484 2.71049 9.34946 2.75 9.25 2.75C9.15054 2.75 9.05516 2.71049 8.98483 2.64017C8.91451 2.56984 8.875 2.47446 8.875 2.375V1.375ZM5.625 1.375C5.625 1.27554 5.66451 1.18016 5.73484 1.10983C5.80516 1.03951 5.90054 1 6 1C6.09946 1 6.19484 1.03951 6.26516 1.10983C6.33549 1.18016 6.375 1.27554 6.375 1.375V2.375C6.375 2.47446 6.33549 2.56984 6.26516 2.64017C6.19484 2.71049 6.09946 2.75 6 2.75C5.90054 2.75 5.80516 2.71049 5.73484 2.64017C5.66451 2.56984 5.625 2.47446 5.625 2.375V1.375ZM2.375 1.375C2.375 1.27554 2.41451 1.18016 2.48483 1.10983C2.55516 1.03951 2.65054 1 2.75 1C2.84946 1 2.94484 1.03951 3.01517 1.10983C3.08549 1.18016 3.125 1.27554 3.125 1.375V2.375C3.125 2.47446 3.08549 2.56984 3.01517 2.64017C2.94484 2.71049 2.84946 2.75 2.75 2.75C2.65054 2.75 2.55516 2.71049 2.48483 2.64017C2.41451 2.56984 2.375 2.47446 2.375 2.375V1.375ZM1.75 2.25H1.875V2.375C1.875 2.60706 1.96719 2.82962 2.13128 2.99372C2.29538 3.15781 2.51794 3.25 2.75 3.25C2.98206 3.25 3.20462 3.15781 3.36872 2.99372C3.53281 2.82962 3.625 2.60706 3.625 2.375V2.25H5.125V2.375C5.125 2.60706 5.21719 2.82962 5.38128 2.99372C5.54538 3.15781 5.76794 3.25 6 3.25C6.23206 3.25 6.45462 3.15781 6.61872 2.99372C6.78281 2.82962 6.875 2.60706 6.875 2.375V2.25H8.375V2.375C8.375 2.60706 8.46719 2.82962 8.63128 2.99372C8.79538 3.15781 9.01794 3.25 9.25 3.25C9.48206 3.25 9.70462 3.15781 9.86872 2.99372C10.0328 2.82962 10.125 2.60706 10.125 2.375V2.25H10.25C10.4489 2.25 10.6397 2.32902 10.7803 2.46967C10.921 2.61032 11 2.80109 11 3V4.75H1V3C1 2.80109 1.07902 2.61032 1.21967 2.46967C1.36032 2.32902 1.55109 2.25 1.75 2.25Z" fill="#1E866F"/>
<path d="M6.25 13.25C6.38807 13.25 6.5 13.1381 6.5 13C6.5 12.8619 6.38807 12.75 6.25 12.75C6.11193 12.75 6 12.8619 6 13C6 13.1381 6.11193 13.25 6.25 13.25Z" fill="#1E866F"/>
</g>
<defs>
<clipPath id="clip0_5999_1538">
<rect width="16" height="16" fill="white"/>
</clipPath>
</defs>
</svg>
