<svg width="16" height="16" viewBox="0 0 16 16" fill="none" xmlns="http://www.w3.org/2000/svg">
<g clip-path="url(#clip0_5999_1418)">
<path d="M0.224927 13.9189L2.07843 15.7848C2.15689 15.8625 2.25655 15.9155 2.36494 15.9369C2.47334 15.9584 2.58565 15.9474 2.68782 15.9053C2.78999 15.8632 2.87749 15.792 2.93936 15.7004C3.00123 15.6089 3.03474 15.5011 3.03568 15.3906V14.9531H7.99993C9.21355 14.9537 10.4062 14.6364 11.4591 14.0329C12.512 13.4293 13.3885 12.5606 14.0015 11.5131C14.6144 10.4657 14.9423 9.27595 14.9527 8.06237C14.963 6.84878 14.6554 5.65365 14.0604 4.59588L15.7749 2.87038C15.8784 2.76543 15.9364 2.62399 15.9364 2.47663C15.9364 2.32927 15.8784 2.18782 15.7749 2.08288L13.9214 0.216503C13.8428 0.139062 13.7432 0.0864476 13.6349 0.0652078C13.5266 0.0439681 13.4145 0.0550413 13.3125 0.0970493C13.2105 0.139057 13.123 0.210145 13.0611 0.301463C12.9992 0.392781 12.9655 0.500297 12.9642 0.610628V1.04813H7.99993C6.78639 1.04766 5.59389 1.36496 4.54105 1.96844C3.48821 2.57193 2.61174 3.44058 1.99883 4.48796C1.38592 5.53534 1.05794 6.72495 1.04752 7.93844C1.0371 9.15193 1.3446 10.347 1.93943 11.4048L0.224927 13.1309C0.121323 13.2358 0.0632324 13.3774 0.0632324 13.5249C0.0632324 13.6724 0.121323 13.8139 0.224927 13.9189ZM1.4218 8.00063C1.42379 6.25661 2.11748 4.58459 3.35068 3.35138C4.58389 2.11818 6.25591 1.42449 7.99993 1.4225H13.1517C13.2014 1.4225 13.2491 1.40275 13.2843 1.36759C13.3194 1.33242 13.3392 1.28473 13.3392 1.235V0.610628C13.3389 0.573848 13.3496 0.537821 13.37 0.507189C13.3903 0.476557 13.4194 0.452725 13.4534 0.438764C13.4874 0.424803 13.5249 0.421353 13.5609 0.428859C13.5969 0.436365 13.6298 0.454483 13.6554 0.480878L15.5087 2.3465C15.5428 2.3811 15.562 2.42776 15.562 2.47638C15.562 2.52499 15.5428 2.57165 15.5087 2.60625L13.6556 4.472C13.6299 4.49844 13.597 4.5166 13.561 4.52413C13.5249 4.53166 13.4875 4.52822 13.4534 4.51426C13.4194 4.50029 13.3903 4.47644 13.3699 4.44578C13.3496 4.41512 13.3388 4.37906 13.3392 4.34225V3.71788C13.3392 3.66815 13.3194 3.62046 13.2843 3.5853C13.2491 3.55013 13.2014 3.53038 13.1517 3.53038H7.99993C6.97311 3.53018 5.97753 3.88354 5.18061 4.53105C4.38368 5.17856 3.83401 6.08073 3.62402 7.08585C3.41403 8.09097 3.55653 9.13774 4.02756 10.0501C4.49859 10.9626 5.26941 11.685 6.21043 12.0959H3.03543V11.6584C3.03471 11.5636 3.01006 11.4705 2.96376 11.3878C2.91747 11.3052 2.85103 11.2355 2.77061 11.1853C2.69019 11.1352 2.5984 11.1062 2.50377 11.101C2.40914 11.0958 2.31473 11.1146 2.2293 11.1556C1.69929 10.1885 1.42157 9.10344 1.4218 8.00063ZM12.0953 8.00063C12.0953 8.81062 11.8552 9.60243 11.4052 10.2759C10.9552 10.9494 10.3156 11.4744 9.56725 11.7843C8.81892 12.0943 7.99547 12.1755 7.20104 12.0175C6.4066 11.8594 5.67687 11.4694 5.1041 10.8967C4.53134 10.3239 4.14128 9.59419 3.98325 8.79977C3.82522 8.00534 3.90632 7.18189 4.21628 6.43355C4.52625 5.68521 5.05116 5.04559 5.72465 4.59558C6.39813 4.14557 7.18993 3.90538 7.99993 3.90538C9.08569 3.9066 10.1266 4.33845 10.8944 5.10619C11.6622 5.87393 12.094 6.91486 12.0953 8.00063ZM0.491052 13.395L2.3443 11.5293C2.36991 11.5028 2.40285 11.4847 2.43888 11.4771C2.47491 11.4696 2.51237 11.473 2.54642 11.487C2.58048 11.501 2.60957 11.5248 2.62993 11.5555C2.6503 11.5861 2.66101 11.6222 2.66068 11.659V12.284C2.66068 12.3337 2.68043 12.3814 2.71559 12.4166C2.75076 12.4517 2.79845 12.4715 2.84818 12.4715H7.99993C9.027 12.472 10.0229 12.1188 10.8202 11.4713C11.6174 10.8237 12.1673 9.92134 12.3773 8.91597C12.5873 7.9106 12.4447 6.86356 11.9734 5.95101C11.502 5.03846 10.7308 4.31607 9.78943 3.90538H12.9644V4.34225C12.9651 4.43703 12.9898 4.53008 13.0361 4.61278C13.0824 4.69548 13.1488 4.76514 13.2292 4.81529C13.3097 4.86545 13.4015 4.89447 13.4961 4.89966C13.5907 4.90485 13.6851 4.88605 13.7706 4.845C14.3189 5.84661 14.5969 6.97372 14.5774 8.11542C14.5578 9.25712 14.2413 10.3741 13.659 11.3563C13.0767 12.3385 12.2486 13.1522 11.2564 13.7172C10.2641 14.2822 9.14179 14.5792 7.99993 14.5788H2.84818C2.79845 14.5788 2.75076 14.5985 2.71559 14.6337C2.68043 14.6688 2.66068 14.7165 2.66068 14.7663V15.3913C2.66111 15.4281 2.65046 15.4642 2.63012 15.4949C2.60978 15.5256 2.58069 15.5495 2.54661 15.5635C2.51253 15.5775 2.47503 15.5809 2.43898 15.5733C2.40293 15.5658 2.36999 15.5475 2.34443 15.521L0.491177 13.6548C0.457008 13.6202 0.437835 13.5735 0.437812 13.5249C0.437789 13.4763 0.456916 13.4296 0.491052 13.395Z" fill="#1E866F"/>
<path d="M8.00004 11.1314C8.61952 11.1314 9.22508 10.9477 9.74016 10.6036C10.2552 10.2594 10.6567 9.77025 10.8938 9.19793C11.1308 8.62561 11.1928 7.99584 11.072 7.38827C10.9511 6.78069 10.6528 6.2226 10.2148 5.78457C9.77676 5.34653 9.21867 5.04823 8.61109 4.92737C8.00352 4.80652 7.37375 4.86854 6.80143 5.10561C6.22911 5.34267 5.73994 5.74412 5.39578 6.2592C5.05162 6.77427 4.86792 7.37984 4.86792 7.99931C4.86888 8.82971 5.19918 9.62582 5.78636 10.213C6.37354 10.8002 7.16965 11.1305 8.00004 11.1314ZM8.00004 5.24219C8.54535 5.24219 9.07841 5.40389 9.53182 5.70685C9.98523 6.00981 10.3386 6.44041 10.5473 6.94421C10.756 7.44801 10.8106 8.00237 10.7042 8.5372C10.5978 9.07203 10.3352 9.56331 9.94963 9.9489C9.56404 10.3345 9.07276 10.5971 8.53793 10.7035C8.0031 10.8098 7.44874 10.7552 6.94494 10.5466C6.44114 10.3379 6.01054 9.9845 5.70758 9.53109C5.40462 9.07768 5.24292 8.54462 5.24292 7.99931C5.24375 7.26833 5.53449 6.56753 6.05138 6.05065C6.56826 5.53376 7.26906 5.24302 8.00004 5.24219Z" fill="#1E866F"/>
<path d="M6.86737 9.13262C6.88479 9.15005 6.90546 9.16387 6.92822 9.1733C6.95098 9.18273 6.97537 9.18759 7 9.18759C7.02463 9.18759 7.04902 9.18273 7.07178 9.1733C7.09454 9.16387 7.11521 9.15005 7.13263 9.13262L9.13262 7.13263C9.1678 7.09745 9.18756 7.04974 9.18756 7C9.18756 6.95026 9.1678 6.90255 9.13262 6.86738C9.09745 6.8322 9.04974 6.81244 9 6.81244C8.95026 6.81244 8.90255 6.8322 8.86738 6.86738L6.86737 8.86738C6.84995 8.88479 6.83613 8.90546 6.8267 8.92822C6.81727 8.95098 6.81242 8.97537 6.81242 9C6.81242 9.02463 6.81727 9.04903 6.8267 9.07178C6.83613 9.09454 6.84995 9.11521 6.86737 9.13262ZM7.1875 7.8125C7.29875 7.8125 7.40751 7.77951 7.50001 7.7177C7.59251 7.65589 7.66461 7.56804 7.70718 7.46526C7.74976 7.36248 7.7609 7.24938 7.73919 7.14026C7.71749 7.03115 7.66391 6.93092 7.58525 6.85225C7.50658 6.77359 7.40635 6.72001 7.29724 6.69831C7.18812 6.6766 7.07502 6.68774 6.97224 6.73032C6.86946 6.77289 6.78161 6.84499 6.7198 6.93749C6.65799 7.02999 6.625 7.13875 6.625 7.25C6.62517 7.39913 6.68448 7.54211 6.78994 7.64757C6.89539 7.75302 7.03837 7.81233 7.1875 7.8125ZM7.1875 7.0625C7.22458 7.0625 7.26084 7.0735 7.29167 7.0941C7.3225 7.1147 7.34654 7.14399 7.36073 7.17825C7.37492 7.21251 7.37863 7.25021 7.3714 7.28658C7.36416 7.32295 7.34631 7.35636 7.32008 7.38258C7.29386 7.40881 7.26045 7.42666 7.22408 7.4339C7.18771 7.44113 7.15001 7.43742 7.11575 7.42323C7.08149 7.40904 7.0522 7.385 7.0316 7.35417C7.011 7.32334 7 7.28708 7 7.25C7 7.20027 7.01975 7.15258 7.05492 7.11742C7.09008 7.08225 7.13777 7.0625 7.1875 7.0625ZM8.25 8.75C8.25 8.86125 8.28299 8.97001 8.3448 9.06251C8.40661 9.15501 8.49446 9.22711 8.59724 9.26968C8.70002 9.31226 8.81312 9.3234 8.92224 9.30169C9.03135 9.27999 9.13158 9.22642 9.21025 9.14775C9.28891 9.06908 9.34249 8.96885 9.36419 8.85974C9.3859 8.75062 9.37476 8.63752 9.33218 8.53474C9.28961 8.43196 9.21751 8.34411 9.12501 8.2823C9.03251 8.22049 8.92375 8.1875 8.8125 8.1875C8.66337 8.18767 8.52039 8.24698 8.41494 8.35244C8.30948 8.45789 8.25017 8.60087 8.25 8.75ZM9 8.75C9 8.78708 8.989 8.82334 8.9684 8.85417C8.9478 8.885 8.91851 8.90904 8.88425 8.92323C8.84999 8.93742 8.81229 8.94113 8.77592 8.9339C8.73955 8.92666 8.70614 8.90881 8.67992 8.88258C8.6537 8.85636 8.63584 8.82295 8.6286 8.78658C8.62137 8.75021 8.62508 8.71251 8.63927 8.67825C8.65346 8.64399 8.6775 8.6147 8.70833 8.5941C8.73916 8.5735 8.77542 8.5625 8.8125 8.5625C8.86223 8.5625 8.90992 8.58225 8.94508 8.61742C8.98025 8.65258 9 8.70027 9 8.75Z" fill="#1E866F"/>
</g>
<defs>
<clipPath id="clip0_5999_1418">
<rect width="16" height="16" fill="white"/>
</clipPath>
</defs>
</svg>
