<svg width="16" height="16" viewBox="0 0 16 16" fill="none" xmlns="http://www.w3.org/2000/svg">
<g clip-path="url(#clip0_5999_1698)">
<path d="M15.5879 10.6218C15.4667 10.3794 15.2728 10.1855 15.0303 10.1127C14.7879 10.04 14.5455 10.0643 14.3273 10.1855C11.7091 11.8582 11.297 12.2703 10.2061 12.7067C8.53337 13.2643 8.19397 13.6764 7.83034 13.3127C7.6364 13.0703 7.22428 12.9006 7.39397 12.5855C7.41822 12.5612 7.4667 12.4643 7.58791 12.4643H10.0364C10.5455 12.4643 10.9576 12.0279 10.9576 11.4703C10.9576 10.9127 10.5455 10.4764 10.0364 10.4764H7.49094C7.44246 10.4764 7.34549 10.4764 7.297 10.4036C6.47276 9.36122 4.80003 9.5794 4.12125 9.7491V9.31274C4.12125 9.16728 4.02428 9.07031 3.87882 9.07031H0.55761C0.412155 9.07031 0.315186 9.16728 0.315186 9.31274V15.1067C0.315186 15.2521 0.412155 15.3491 0.55761 15.3491H3.85458C4.00003 15.3491 4.097 15.2521 4.097 15.1067V14.7915L5.04246 14.743L8.00003 15.7855C8.19397 15.8582 8.38791 15.8824 8.58185 15.8824C8.89701 15.8824 9.2364 15.7855 9.50307 15.6158C14.5212 12.4643 11.3697 14.4279 15.2 11.9552C15.6364 11.6885 15.8061 11.1067 15.5879 10.6218ZM3.61216 14.84H0.800034V9.53092H3.61216V14.84ZM14.9576 11.5188L11.4909 13.7733L9.2364 15.1794C8.89701 15.3976 8.50913 15.4218 8.14549 15.3006C4.99397 14.1855 5.16367 14.2097 5.0667 14.2097L4.07276 14.2582V10.2097C4.58185 10.0885 6.18185 9.79759 6.86064 10.6703C7.00609 10.84 7.20003 10.937 7.44246 10.937H10.0122C10.2546 10.937 10.4485 11.1794 10.4485 11.4461C10.4485 11.7127 10.2546 11.9552 10.0122 11.9552H7.61216C7.34549 11.9552 7.12731 12.1006 7.0061 12.343C6.86064 12.6339 6.90913 12.9733 7.07882 13.1673C7.12731 13.24 7.36973 13.4582 7.53943 13.6279C7.8061 13.8946 8.19397 13.9673 8.53337 13.8461L10.4243 13.1188C11.5879 12.6824 12.0485 12.1976 14.6182 10.5733C14.7394 10.5006 14.8364 10.5249 14.9091 10.5491C15.0303 10.5976 15.1273 10.6703 15.1758 10.7915C15.2728 11.0824 15.1758 11.3976 14.9576 11.5188Z" fill="#1E866F"/>
<path d="M1.33349 8.41591H13.5517C13.6971 8.41591 13.7941 8.31894 13.7941 8.17348V7.08258H14.7153C14.8608 7.08258 14.9577 6.98561 14.9577 6.84015V0.367424C14.9577 0.22197 14.8608 0.125 14.7153 0.125H2.49713C2.35167 0.125 2.2547 0.22197 2.2547 0.367424V1.45833H1.33349C1.21228 1.45833 1.09106 1.5553 1.09106 1.70076V8.14924C1.09106 8.2947 1.18803 8.41591 1.33349 8.41591ZM13.2608 1.94318V3.20379C12.6305 3.10682 12.1214 2.59773 12.0002 1.94318H13.2608ZM2.49713 1.94318H2.83652C2.73955 2.57348 2.23046 3.08258 1.57591 3.20379V1.94318H2.49713ZM3.29713 1.94318H11.5153C11.6365 2.86439 12.3395 3.56742 13.2608 3.68864V6.18561C12.3395 6.30682 11.6365 7.00985 11.5153 7.93106H3.29713C3.17591 7.03409 2.47288 6.30682 1.55167 6.18561V3.68864C2.47288 3.59167 3.20016 2.86439 3.29713 1.94318ZM1.57591 7.93106V6.67045C2.23046 6.76742 2.73955 7.27652 2.83652 7.93106H1.57591ZM13.2608 7.93106H12.0002C12.0971 7.30076 12.6062 6.79167 13.2608 6.67045V6.81591V7.93106ZM2.73955 0.609848H14.4486V6.57348H13.7699V1.70076C13.7699 1.5553 13.6486 1.45833 13.5274 1.45833H2.73955V0.609848Z" fill="#1E866F"/>
<path d="M7.4181 7.49096C8.58174 7.49096 9.50295 6.35156 9.50295 4.92126C9.50295 3.5152 8.55749 2.35156 7.4181 2.35156C6.25446 2.35156 5.33325 3.49096 5.33325 4.92126C5.33325 6.35156 6.25446 7.49096 7.4181 7.49096ZM7.4181 2.86065C8.31507 2.86065 9.0181 3.78187 9.0181 4.9455C9.0181 6.0849 8.29083 7.03035 7.4181 7.03035C6.54537 7.03035 5.8181 6.0849 5.8181 4.92126C5.8181 3.78187 6.52113 2.86065 7.4181 2.86065Z" fill="#1E866F"/>
</g>
<defs>
<clipPath id="clip0_5999_1698">
<rect width="16" height="16" fill="white"/>
</clipPath>
</defs>
</svg>
