<svg width="16" height="16" viewBox="0 0 16 16" fill="none" xmlns="http://www.w3.org/2000/svg">
<g clip-path="url(#clip0_5999_1663)">
<path d="M15.5 9.5882V7.26932C15.5003 6.96416 15.3938 6.66852 15.1989 6.4337C15.4254 5.69944 15.3815 4.90835 15.0753 4.20363C14.769 3.49891 14.2205 2.92715 13.5291 2.59184C12.8377 2.25652 12.0491 2.17983 11.3061 2.37564C10.5631 2.57145 9.91471 3.02682 9.47838 3.65932H8.49875C8.47496 2.67584 8.06565 1.74109 7.35907 1.05659C6.65248 0.372089 5.70521 -0.00733737 4.72147 0.000107524C3.73773 0.00755242 2.7963 0.401272 2.10016 1.09639C1.40401 1.7915 1.0089 2.73234 1 3.71607C0.718574 3.79426 0.469611 3.96058 0.289638 4.19063C0.109664 4.42068 0.00815438 4.70235 0 4.99432V14.6443C0.000397005 14.9923 0.138805 15.3259 0.384861 15.572C0.630916 15.818 0.964525 15.9564 1.3125 15.9568H14.1875C14.5355 15.9564 14.8691 15.818 15.1151 15.572C15.3612 15.3259 15.4996 14.9923 15.5 14.6443V12.5754C15.6371 12.5604 15.7639 12.4954 15.8561 12.3928C15.9483 12.2902 15.9996 12.1573 16 12.0193V10.1443C15.9996 10.0064 15.9483 9.87343 15.8561 9.77085C15.7639 9.66827 15.6371 9.60325 15.5 9.5882ZM12.125 2.64432C12.5559 2.64366 12.9812 2.74104 13.3689 2.92911C13.7566 3.11717 14.0964 3.39098 14.3625 3.7298C14.6287 4.06862 14.8143 4.46357 14.9053 4.88473C14.9962 5.30589 14.9901 5.74223 14.8875 6.1607C14.7508 6.07372 14.599 6.01302 14.44 5.9817C14.5148 5.63716 14.5117 5.28027 14.431 4.93708C14.3502 4.59389 14.1939 4.27306 13.9734 3.998C13.7528 3.72293 13.4736 3.50058 13.1562 3.34717C12.8388 3.19376 12.4911 3.11317 12.1385 3.11127C11.786 3.10936 11.4375 3.1862 11.1184 3.33618C10.7993 3.48615 10.5178 3.70548 10.2943 3.97815C10.0708 4.25081 9.91098 4.56994 9.82655 4.91224C9.74212 5.25454 9.73518 5.61137 9.80625 5.9567H9.3205C9.2521 5.54923 9.27336 5.13175 9.38282 4.73334C9.49227 4.33493 9.68728 3.96518 9.95426 3.64985C10.2212 3.33452 10.5538 3.0812 10.9287 2.90754C11.3036 2.73388 11.7118 2.64405 12.125 2.64432ZM12.2087 5.30057H12.0413C11.9801 5.30057 11.9214 5.27627 11.8782 5.23302C11.8349 5.18977 11.8106 5.13111 11.8106 5.06995C11.8106 5.00878 11.8349 4.95012 11.8782 4.90687C11.9214 4.86362 11.9801 4.83932 12.0413 4.83932H12.2925C12.3314 4.83952 12.3687 4.85516 12.3961 4.88282C12.4236 4.91047 12.4389 4.94788 12.4388 4.98682C12.4388 5.03655 12.4585 5.08424 12.4937 5.1194C12.5288 5.15457 12.5765 5.17432 12.6263 5.17432C12.676 5.17432 12.7237 5.15457 12.7588 5.1194C12.794 5.08424 12.8138 5.03655 12.8138 4.98682C12.8136 4.85212 12.7613 4.72271 12.6679 4.62568C12.5745 4.52866 12.4471 4.47155 12.3125 4.46632V4.3182C12.3125 4.29357 12.3076 4.26919 12.2982 4.24644C12.2888 4.22369 12.275 4.20302 12.2576 4.18561C12.2402 4.1682 12.2195 4.15439 12.1968 4.14497C12.174 4.13555 12.1496 4.1307 12.125 4.1307C12.1004 4.1307 12.076 4.13555 12.0532 4.14497C12.0305 4.15439 12.0098 4.1682 11.9924 4.18561C11.975 4.20302 11.9612 4.22369 11.9518 4.24644C11.9424 4.26919 11.9375 4.29357 11.9375 4.3182V4.47482C11.7884 4.50084 11.6544 4.58182 11.5621 4.70178C11.4698 4.82174 11.4258 4.97195 11.4388 5.12277C11.4519 5.27358 11.521 5.41402 11.6325 5.51637C11.744 5.61871 11.8899 5.67552 12.0413 5.67557H12.2087C12.2433 5.67552 12.2773 5.68329 12.3084 5.6983C12.3395 5.71332 12.3668 5.73518 12.3882 5.76226C12.4096 5.78933 12.4246 5.8209 12.432 5.8546C12.4394 5.8883 12.4391 5.92325 12.4311 5.95682H11.808C11.7999 5.91388 11.7771 5.87512 11.7434 5.84723C11.7098 5.81934 11.6674 5.80408 11.6237 5.80408C11.5801 5.80408 11.5377 5.81934 11.5041 5.84723C11.4704 5.87512 11.4476 5.91388 11.4395 5.95682H10.1888C10.1173 5.66356 10.1134 5.3579 10.1774 5.06291C10.2413 4.76793 10.3714 4.49132 10.5579 4.25397C10.7444 4.01662 10.9823 3.82473 11.2538 3.69278C11.5253 3.56082 11.8232 3.49226 12.125 3.49226C12.4268 3.49226 12.7247 3.56082 12.9962 3.69278C13.2677 3.82473 13.5056 4.01662 13.6921 4.25397C13.8786 4.49132 14.0087 4.76793 14.0726 5.06291C14.1366 5.3579 14.1327 5.66356 14.0612 5.95682H12.8099C12.8172 5.87345 12.8071 5.78946 12.7802 5.71021C12.7533 5.63095 12.7102 5.55815 12.6537 5.49643C12.5972 5.43472 12.5284 5.38543 12.4518 5.35172C12.3752 5.318 12.2924 5.30058 12.2087 5.30057ZM9.25463 4.03432C8.95198 4.62671 8.84261 5.29905 8.94188 5.95682H7.74813C8.16961 5.39795 8.42519 4.73169 8.48563 4.03432H9.25463ZM4.75 0.331821C5.40163 0.331551 6.03939 0.52004 6.58618 0.874503C7.13297 1.22897 7.56538 1.73423 7.83114 2.3292C8.0969 2.92418 8.18462 3.5834 8.08371 4.22717C7.9828 4.87094 7.69757 5.4717 7.2625 5.95682H6.3275C6.80639 5.62125 7.16585 5.14176 7.35367 4.58798C7.54149 4.0342 7.54789 3.43497 7.37195 2.87731C7.19601 2.31964 6.84689 1.83257 6.37528 1.48684C5.90367 1.14111 5.33414 0.954707 4.74937 0.954707C4.16461 0.954707 3.59508 1.14111 3.12347 1.48684C2.65186 1.83257 2.30274 2.31964 2.1268 2.87731C1.95086 3.43497 1.95727 4.0342 2.14508 4.58798C2.3329 5.14176 2.69236 5.62125 3.17125 5.95682H2.2375C1.80243 5.4717 1.5172 4.87094 1.41629 4.22717C1.31538 3.5834 1.4031 2.92418 1.66886 2.3292C1.93462 1.73423 2.36703 1.22897 2.91382 0.874503C3.46061 0.52004 4.09837 0.331551 4.75 0.331821ZM5.5045 5.95682H3.9955C3.46107 5.77776 3.00773 5.41448 2.71653 4.9319C2.42533 4.44932 2.31525 3.87891 2.40596 3.32262C2.49667 2.76634 2.78226 2.26045 3.21169 1.89538C3.64111 1.53031 4.18637 1.32985 4.75 1.32985C5.31363 1.32985 5.85889 1.53031 6.28831 1.89538C6.71774 2.26045 7.00333 2.76634 7.09404 3.32262C7.18475 3.87891 7.07467 4.44932 6.78347 4.9319C6.49227 5.41448 6.03893 5.77776 5.5045 5.95682ZM1.02175 4.10445C1.09262 4.7767 1.345 5.41701 1.75188 5.95682H1.36437C0.87325 5.96932 0.36875 5.49232 0.37475 4.9962C0.383638 4.80059 0.449659 4.61188 0.564648 4.45339C0.679638 4.2949 0.838554 4.17359 1.02175 4.10445ZM0.375 5.89257C0.501467 6.0286 0.654148 6.13764 0.823854 6.21313C0.99356 6.28862 1.17678 6.32899 1.3625 6.33182H14.1875C14.4361 6.33209 14.6744 6.43094 14.8501 6.6067C15.0259 6.78246 15.1247 7.02076 15.125 7.26932V7.52082L1.24637 7.54182C1.02187 7.53938 0.806755 7.45142 0.64485 7.29588C0.482945 7.14034 0.38644 6.92892 0.375 6.7047V5.89257ZM15.125 14.6443C15.1247 14.8929 15.0259 15.1312 14.8501 15.3069C14.6744 15.4827 14.4361 15.5816 14.1875 15.5818H1.3125C1.06394 15.5816 0.825638 15.4827 0.64988 15.3069C0.474122 15.1312 0.375265 14.8929 0.375 14.6443V13.9513C0.503917 14.0872 0.65838 14.1962 0.829531 14.2722C1.00068 14.3483 1.18516 14.3897 1.37238 14.3943H1.376L15.125 14.3228V14.6443ZM15.125 13.9478L1.375 14.0193H1.3725C1.23292 14.015 1.09563 13.9827 0.968736 13.9244C0.841847 13.8661 0.72794 13.7829 0.63375 13.6798C0.485061 13.5304 0.393495 13.3336 0.375 13.1236V7.55682C0.489276 7.67129 0.625063 7.76203 0.774545 7.82381C0.924027 7.8856 1.08425 7.91721 1.246 7.91682L15.125 7.89582V9.58182H13.2347C12.8357 9.57897 12.4512 9.73138 12.1625 10.0068C11.8737 10.2823 11.7034 10.6592 11.6875 11.0579C11.6845 11.4589 11.8408 11.8446 12.122 12.1304C12.4033 12.4161 12.7866 12.5785 13.1875 12.5818H15.125V13.9478ZM15.625 12.0193C15.625 12.069 15.6052 12.1167 15.5701 12.1519C15.5349 12.1871 15.4872 12.2068 15.4375 12.2068H13.1875C12.8867 12.2044 12.5993 12.0826 12.3883 11.8682C12.1773 11.6538 12.0601 11.3645 12.0625 11.0637C12.076 10.7631 12.2059 10.4796 12.4246 10.273C12.6434 10.0665 12.9339 9.95308 13.2347 9.95682H15.4375C15.4872 9.95682 15.5349 9.97658 15.5701 10.0117C15.6052 10.0469 15.625 10.0946 15.625 10.1443V12.0193Z" fill="#1E866F"/>
<path d="M13.375 10.4531C13.2514 10.4531 13.1305 10.4898 13.0278 10.5585C12.925 10.6271 12.8449 10.7247 12.7976 10.8389C12.7503 10.9532 12.7379 11.0788 12.762 11.2001C12.7861 11.3213 12.8457 11.4327 12.9331 11.5201C13.0205 11.6075 13.1318 11.667 13.2531 11.6911C13.3743 11.7152 13.5 11.7029 13.6142 11.6556C13.7284 11.6082 13.826 11.5281 13.8947 11.4254C13.9633 11.3226 14 11.2017 14 11.0781C13.9998 10.9124 13.9339 10.7536 13.8167 10.6364C13.6996 10.5192 13.5407 10.4533 13.375 10.4531ZM13.375 11.3281C13.3256 11.3281 13.2772 11.3135 13.2361 11.286C13.195 11.2585 13.163 11.2195 13.144 11.1738C13.1251 11.1281 13.1202 11.0778 13.1298 11.0294C13.1395 10.9809 13.1633 10.9363 13.1982 10.9013C13.2332 10.8664 13.2777 10.8426 13.3262 10.8329C13.3747 10.8233 13.425 10.8282 13.4707 10.8472C13.5164 10.8661 13.5554 10.8981 13.5829 10.9392C13.6103 10.9803 13.625 11.0287 13.625 11.0781C13.625 11.1444 13.5987 11.208 13.5518 11.2549C13.5049 11.3018 13.4413 11.3281 13.375 11.3281Z" fill="#1E866F"/>
</g>
<defs>
<clipPath id="clip0_5999_1663">
<rect width="16" height="16" fill="white"/>
</clipPath>
</defs>
</svg>
