<svg width="11" height="12" viewBox="0 0 11 12" fill="none" xmlns="http://www.w3.org/2000/svg">
<g clip-path="url(#clip0_2435_294)">
<path d="M7.03714 4.90959C6.93817 4.90959 6.85696 4.99141 6.85696 5.09113C6.85696 7.97287 4.22025 10.9134 3.60866 11.5578C2.99707 10.9134 0.360358 7.97287 0.360358 5.09113C0.362896 3.28333 1.81448 1.82073 3.60866 1.81817C3.70763 1.81817 3.78884 1.73635 3.78884 1.63663C3.78884 1.5369 3.70763 1.45508 3.60866 1.45508C1.61654 1.45764 0.00253774 3.08389 0 5.09113C0 8.49194 3.3422 11.8084 3.48431 11.949C3.55537 12.018 3.66703 12.018 3.73555 11.949C3.87766 11.8084 7.21986 8.49194 7.21986 5.09113C7.21732 4.99141 7.13865 4.90959 7.03714 4.90959Z" fill="#545454"/>
<path d="M3.60878 3.27325C3.70775 3.27325 3.78896 3.19143 3.78896 3.0917C3.78896 2.99198 3.70775 2.91016 3.60878 2.91016C2.41351 2.91016 1.44409 3.88693 1.44409 5.09128C1.44409 6.29562 2.41351 7.2724 3.60878 7.2724C4.80405 7.2724 5.77347 6.29562 5.77347 5.09128C5.77347 4.99155 5.69226 4.90973 5.59329 4.90973C5.49432 4.90973 5.41311 4.99155 5.41311 5.09128C5.41311 6.09618 4.60611 6.9093 3.60878 6.9093C2.61145 6.9093 1.80445 6.09618 1.80445 5.09128C1.80445 4.08638 2.61145 3.27325 3.60878 3.27325Z" fill="#545454"/>
<path d="M9.20434 0H4.87243C4.37503 0 3.97153 0.406563 3.96899 0.910292V5.81973C3.96899 5.91945 4.0502 6.00128 4.14917 6.00128C4.20247 6.00128 4.25322 5.97827 4.28621 5.93735L5.15158 4.91967C5.25563 4.79949 5.40535 4.72789 5.56269 4.73045H9.2018C9.6992 4.73045 10.1027 4.32389 10.1052 3.82016V0.910292C10.1052 0.406563 9.70174 0 9.20434 0ZM9.74488 3.8176C9.74488 4.11933 9.50126 4.36224 9.20434 4.36224H5.56523C5.30131 4.36224 5.05261 4.47731 4.88004 4.67931L4.33189 5.32367V0.910292C4.33189 0.608566 4.57551 0.365651 4.87243 0.365651H9.20434C9.5038 0.365651 9.74488 0.611123 9.74488 0.910292V3.8176Z" fill="#545454"/>
<path d="M8.42787 0.780259C8.35682 0.708663 8.24262 0.708663 8.17156 0.780259L6.00687 2.96138C5.98403 2.98439 5.96627 3.01508 5.95866 3.04576L5.77848 3.77195C5.7531 3.86912 5.814 3.96884 5.91044 3.99185C5.92566 3.99441 5.93835 3.99697 5.95358 3.99697C5.96881 3.99697 5.98403 3.99441 5.99672 3.99185L6.71744 3.8103C6.75043 3.80263 6.77834 3.78473 6.80118 3.76172L8.96587 1.5806C9.03693 1.509 9.03693 1.39394 8.96587 1.32234L8.42787 0.780259ZM6.58548 3.47278L6.20482 3.56995L6.30125 3.1864L8.30352 1.16892L8.59029 1.45786L6.58548 3.47278Z" fill="#545454"/>
</g>
<defs>
<clipPath id="clip0_2435_294">
<rect width="10.1053" height="12" fill="white"/>
</clipPath>
</defs>
</svg>
