<svg width="14" height="14" viewBox="0 0 14 14" fill="none" xmlns="http://www.w3.org/2000/svg">
<path d="M7.00016 6.99935C7.321 6.99935 7.59575 6.88502 7.82441 6.65635C8.05269 6.42807 8.16683 6.15352 8.16683 5.83268C8.16683 5.51185 8.05269 5.2371 7.82441 5.00843C7.59575 4.78015 7.321 4.66602 7.00016 4.66602C6.67933 4.66602 6.40477 4.78015 6.1765 5.00843C5.94783 5.2371 5.8335 5.51185 5.8335 5.83268C5.8335 6.15352 5.94783 6.42807 6.1765 6.65635C6.40477 6.88502 6.67933 6.99935 7.00016 6.99935ZM7.00016 12.8327C5.43488 11.5007 4.26588 10.2635 3.49316 9.12093C2.72005 7.97877 2.3335 6.92157 2.3335 5.94935C2.3335 4.49102 2.80269 3.32921 3.74108 2.46393C4.67908 1.59865 5.76544 1.16602 7.00016 1.16602C8.23488 1.16602 9.32125 1.59865 10.2592 2.46393C11.1976 3.32921 11.6668 4.49102 11.6668 5.94935C11.6668 6.92157 11.2805 7.97877 10.5077 9.12093C9.73463 10.2635 8.56544 11.5007 7.00016 12.8327Z" fill="#20886F"/>
</svg>
