<svg width="22" height="27" viewBox="0 0 22 27" fill="none" xmlns="http://www.w3.org/2000/svg">
<path d="M11.0004 0C6.60342 0 3 3.61505 3 8.02724C3 9.73681 3.54266 11.3257 4.461 12.6316L10.024 22.3086C10.803 23.3327 11.3209 23.1382 11.9688 22.2545L18.1048 11.7475C18.2285 11.5219 18.3258 11.2816 18.4105 11.0362C18.7999 10.0814 19.0002 9.05928 19 8.02724C19.0003 3.61505 15.3979 0 11.0004 0ZM11.0004 3.76116C13.3684 3.76116 15.2514 5.65149 15.2514 8.02724C15.2514 10.403 13.3684 12.2925 11.0004 12.2925C8.63263 12.2925 6.7489 10.4033 6.7489 8.02724C6.7489 5.65149 8.63263 3.76143 11.0004 3.76143V3.76116Z" fill="#1E866F"/>
<path d="M6.60165 18C2.717 18.5806 0 19.9694 0 22.0138C0 24.7677 4.5397 27 11 27C17.4603 27 22 24.7677 22 22.0138C22 19.9694 19.2833 18.5806 15.3989 18L14.8607 18.9691C17.7884 19.3987 19.8 20.3016 19.8 21.3492C19.8 22.8181 15.8601 24.0085 11 24.0085C6.13993 24.0085 2.2 22.8181 2.2 21.3492C2.19973 20.305 4.19815 19.4031 7.13488 18.9718C6.9575 18.6477 6.7793 18.3243 6.60165 18Z" fill="#1E866F"/>
</svg>
