<svg width="16" height="16" viewBox="0 0 16 16" fill="none" xmlns="http://www.w3.org/2000/svg">
<path d="M8.00008 7.9987C8.36675 7.9987 8.68075 7.86803 8.94208 7.6067C9.20342 7.34537 9.33386 7.03159 9.33342 6.66536C9.33342 6.2987 9.20275 5.9847 8.94142 5.72336C8.68008 5.46203 8.3663 5.33159 8.00008 5.33203C7.63342 5.33203 7.31942 5.4627 7.05808 5.72403C6.79675 5.98536 6.6663 6.29914 6.66675 6.66536C6.66675 7.03203 6.79742 7.34603 7.05875 7.60737C7.32008 7.8687 7.63386 7.99914 8.00008 7.9987ZM8.00008 12.8987C9.35564 11.6543 10.3612 10.5236 11.0167 9.5067C11.6723 8.48981 12.0001 7.58714 12.0001 6.7987C12.0001 5.58759 11.6139 4.59603 10.8414 3.82403C10.069 3.05203 9.12186 2.66581 8.00008 2.66536C6.87786 2.66536 5.93053 3.05159 5.15808 3.82403C4.38564 4.59648 3.99964 5.58803 4.00008 6.7987C4.00008 7.58759 4.32786 8.49048 4.98341 9.50736C5.63897 10.5243 6.64453 11.6547 8.00008 12.8987ZM8.00008 14.6654C6.21119 13.1431 4.87519 11.7294 3.99208 10.424C3.10897 9.1187 2.66719 7.91025 2.66675 6.7987C2.66675 5.13203 3.20297 3.80425 4.27541 2.81536C5.34786 1.82648 6.58942 1.33203 8.00008 1.33203C9.41119 1.33203 10.653 1.82648 11.7254 2.81536C12.7979 3.80425 13.3339 5.13203 13.3334 6.7987C13.3334 7.90981 12.8916 9.11825 12.0081 10.424C11.1245 11.7298 9.78853 13.1436 8.00008 14.6654Z" fill="#1E866F"/>
</svg>
