<svg width="12" height="13" viewBox="0 0 12 13" fill="none" xmlns="http://www.w3.org/2000/svg">
<path d="M8.2484 8.17634C7.99 8.11394 7.896 8.50074 8.1516 8.56474C9.0316 8.78394 9.6 9.13034 9.6 9.44714C9.6 9.97754 8.0604 10.5703 6 10.5703C3.9396 10.5703 2.4 9.97754 2.4 9.44714C2.4 9.13034 2.9684 8.78354 3.8484 8.56434C4.1044 8.50034 4.0096 8.11354 3.7516 8.17594C2.622 8.45794 2 8.90954 2 9.44714C2 10.4367 4.0608 10.9703 6 10.9703C7.9392 10.9703 10 10.4367 10 9.44714C10 8.90954 9.378 8.45794 8.2484 8.17634ZM6 5.37034C6.6616 5.37034 7.2 4.83194 7.2 4.17034C7.2 3.50874 6.6616 2.97034 6 2.97034C5.3384 2.97034 4.8 3.50874 4.8 4.17034C4.8 4.83194 5.3384 5.37034 6 5.37034ZM6 3.37034C6.4412 3.37034 6.8 3.72914 6.8 4.17034C6.8 4.61154 6.4412 4.97034 6 4.97034C5.5588 4.97034 5.2 4.61154 5.2 4.17034C5.2 3.72914 5.5588 3.37034 6 3.37034ZM9.628 5.07594C9.866 4.83469 9.99944 4.50943 9.99944 4.17054C9.99944 3.83165 9.866 3.50639 9.628 3.26514C9.442 3.07714 9.1576 3.35874 9.344 3.54674C9.50803 3.71292 9.60001 3.93703 9.60001 4.17054C9.60001 4.40404 9.50803 4.62815 9.344 4.79434C9.1552 4.98474 9.4444 5.26114 9.628 5.07594ZM2.656 4.79434C2.49223 4.62793 2.40044 4.40381 2.40044 4.17034C2.40044 3.93686 2.49223 3.71274 2.656 3.54634C2.842 3.35834 2.5588 3.07714 2.372 3.26474C2.134 3.50599 2.00056 3.83125 2.00056 4.17014C2.00056 4.50903 2.134 4.83429 2.372 5.07554C2.558 5.26354 2.8424 4.98234 2.656 4.79434Z" fill="#545454"/>
<path d="M10.4512 2.34716C10.2648 2.15916 9.98116 2.44116 10.1672 2.62876C11.0092 3.47876 11.0092 4.86196 10.1672 5.71196C9.97836 5.90236 10.2676 6.17876 10.4512 5.99356C11.4476 4.98836 11.4476 3.35236 10.4512 2.34716ZM1.54876 2.34716C0.552758 3.35236 0.552758 4.98836 1.54876 5.99356C1.73236 6.17876 2.02156 5.90236 1.83276 5.71196C0.990758 4.86196 0.990758 3.47876 1.83276 2.62876C2.01876 2.44076 1.73476 2.15956 1.54876 2.34716ZM5.82476 9.66676C5.84202 9.69812 5.86739 9.72427 5.8982 9.74248C5.92902 9.76069 5.96416 9.7703 5.99996 9.7703C6.03575 9.7703 6.07089 9.76069 6.10171 9.74248C6.13253 9.72427 6.15789 9.69812 6.17516 9.66676C8.20956 5.77156 8.79996 5.37516 8.79996 4.17036C8.79996 2.62636 7.54396 1.37036 5.99996 1.37036C4.45596 1.37036 3.19996 2.62636 3.19996 4.17036C3.19996 5.37596 3.76196 5.71676 5.82476 9.66676ZM5.99996 1.77036C7.32356 1.77036 8.39996 2.84676 8.39996 4.17036C8.39996 5.21316 7.92316 5.47996 5.99996 9.15516C4.07876 5.48436 3.59996 5.21356 3.59996 4.17036C3.59996 2.84676 4.67636 1.77036 5.99996 1.77036Z" fill="#545454"/>
</svg>
