<svg width="18" height="16" viewBox="0 0 18 16" fill="none" xmlns="http://www.w3.org/2000/svg">
<path d="M12.4111 11.3433C11.9804 11.2393 11.8237 11.884 12.2497 11.9906C13.7164 12.356 14.6637 12.9333 14.6637 13.4613C14.6637 14.3453 12.0977 15.3333 8.66374 15.3333C5.22974 15.3333 2.66374 14.3453 2.66374 13.4613C2.66374 12.9333 3.61107 12.3553 5.07774 11.99C5.5044 11.8833 5.3464 11.2386 4.9164 11.3426C3.03374 11.8126 1.99707 12.5653 1.99707 13.4613C1.99707 15.1106 5.43174 16 8.66374 16C11.8957 16 15.3304 15.1106 15.3304 13.4613C15.3304 12.5653 14.2937 11.8126 12.4111 11.3433ZM8.66374 6.66663C9.7664 6.66663 10.6637 5.76929 10.6637 4.66663C10.6637 3.56396 9.7664 2.66663 8.66374 2.66663C7.56107 2.66663 6.66374 3.56396 6.66374 4.66663C6.66374 5.76929 7.56107 6.66663 8.66374 6.66663ZM8.66374 3.33329C9.39907 3.33329 9.99707 3.93129 9.99707 4.66663C9.99707 5.40196 9.39907 5.99996 8.66374 5.99996C7.9284 5.99996 7.3304 5.40196 7.3304 4.66663C7.3304 3.93129 7.9284 3.33329 8.66374 3.33329ZM14.7104 6.17596C15.1071 5.77388 15.3295 5.23177 15.3295 4.66696C15.3295 4.10214 15.1071 3.56004 14.7104 3.15796C14.4004 2.84463 13.9264 3.31396 14.2371 3.62729C14.5105 3.90427 14.6637 4.27778 14.6637 4.66696C14.6637 5.05613 14.5105 5.42965 14.2371 5.70663C13.9224 6.02396 14.4044 6.48463 14.7104 6.17596ZM3.0904 5.70663C2.81745 5.42928 2.66448 5.05575 2.66448 4.66663C2.66448 4.2775 2.81745 3.90397 3.0904 3.62663C3.4004 3.31329 2.9284 2.84463 2.61707 3.15729C2.2204 3.55938 1.99801 4.10148 1.99801 4.66629C1.99801 5.23111 2.2204 5.77321 2.61707 6.17529C2.92707 6.48863 3.40107 6.01996 3.0904 5.70663Z" fill="#1E866F"/>
<path d="M16.0823 1.628C15.7717 1.31467 15.299 1.78467 15.609 2.09733C17.0123 3.514 17.0123 5.81933 15.609 7.236C15.2943 7.55333 15.7763 8.014 16.0823 7.70533C17.743 6.03 17.743 3.30333 16.0823 1.628ZM1.245 1.628C-0.415 3.30333 -0.415 6.03 1.245 7.70533C1.551 8.014 2.033 7.55333 1.71833 7.236C0.315 5.81933 0.315 3.514 1.71833 2.09733C2.02833 1.784 1.555 1.31533 1.245 1.628ZM8.37167 13.8273C8.40044 13.8796 8.44271 13.9232 8.49408 13.9535C8.54544 13.9839 8.60401 13.9999 8.66367 13.9999C8.72333 13.9999 8.78189 13.9839 8.83325 13.9535C8.88462 13.9232 8.92689 13.8796 8.95567 13.8273C12.3463 7.33533 13.3303 6.67467 13.3303 4.66667C13.3303 2.09333 11.237 0 8.66367 0C6.09033 0 3.997 2.09333 3.997 4.66667C3.997 6.676 4.93367 7.244 8.37167 13.8273ZM8.66367 0.666667C10.8697 0.666667 12.6637 2.46067 12.6637 4.66667C12.6637 6.40467 11.869 6.84933 8.66367 12.9747C5.46167 6.85667 4.66367 6.40533 4.66367 4.66667C4.66367 2.46067 6.45767 0.666667 8.66367 0.666667Z" fill="#1E866F"/>
</svg>
