<svg width="8" height="11" viewBox="0 0 8 11" fill="none" xmlns="http://www.w3.org/2000/svg">
<path d="M4 8.5C3.73478 8.5 3.48043 8.39464 3.29289 8.20711C3.10536 8.01957 3 7.76522 3 7.5C3 6.945 3.445 6.5 4 6.5C4.26522 6.5 4.51957 6.60536 4.70711 6.79289C4.89464 6.98043 5 7.23478 5 7.5C5 7.76522 4.89464 8.01957 4.70711 8.20711C4.51957 8.39464 4.26522 8.5 4 8.5ZM7 10V5H1V10H7ZM7 4C7.26522 4 7.51957 4.10536 7.70711 4.29289C7.89464 4.48043 8 4.73478 8 5V10C8 10.2652 7.89464 10.5196 7.70711 10.7071C7.51957 10.8946 7.26522 11 7 11H1C0.734784 11 0.48043 10.8946 0.292893 10.7071C0.105357 10.5196 0 10.2652 0 10V5C0 4.445 0.445 4 1 4H1.5V3C1.5 2.33696 1.76339 1.70107 2.23223 1.23223C2.70107 0.763392 3.33696 0.5 4 0.5C4.3283 0.5 4.65339 0.564664 4.95671 0.690301C5.26002 0.815938 5.53562 1.00009 5.76777 1.23223C5.99991 1.46438 6.18406 1.73998 6.3097 2.04329C6.43534 2.34661 6.5 2.6717 6.5 3V4H7ZM4 1.5C3.60218 1.5 3.22064 1.65804 2.93934 1.93934C2.65804 2.22064 2.5 2.60218 2.5 3V4H5.5V3C5.5 2.60218 5.34196 2.22064 5.06066 1.93934C4.77936 1.65804 4.39782 1.5 4 1.5Z" fill="#545454"/>
</svg>
