<svg width="24" height="24" viewBox="0 0 24 24" fill="none" xmlns="http://www.w3.org/2000/svg">
<g clip-path="url(#clip0_12331_2693)">
<path d="M21.9326 9.21729L19.868 9.0183C19.6489 8.13924 19.2953 7.2993 18.8197 6.52817L20.1357 4.93947C20.1981 4.8643 20.2301 4.76857 20.2256 4.67101C20.2211 4.57346 20.1803 4.48111 20.1112 4.41206L17.8781 2.17872C17.809 2.1097 17.7167 2.06894 17.6191 2.06441C17.5216 2.05988 17.4259 2.0919 17.3507 2.15421L15.7608 3.47063C14.9883 2.99856 14.1492 2.64507 13.2718 2.42198L13.0727 0.354451C13.0633 0.257394 13.0181 0.167314 12.9459 0.101781C12.8737 0.036248 12.7797 -3.82715e-05 12.6822 3.0291e-08H9.63017C9.5327 -9.4189e-06 9.43872 0.0362945 9.36657 0.101829C9.29442 0.167364 9.24927 0.257428 9.23993 0.354451L9.04055 2.42193C8.16307 2.64496 7.32405 2.99846 6.55155 3.47063L4.96167 2.15382C4.88649 2.09153 4.79077 2.05952 4.69325 2.06406C4.59572 2.06859 4.50339 2.10934 4.43431 2.17833L2.20122 4.41191C2.13218 4.481 2.09141 4.57336 2.08688 4.67092C2.08234 4.76848 2.11438 4.86422 2.1767 4.93942L3.49229 6.52798C3.01641 7.29915 2.66255 8.13924 2.44325 9.01849L0.379741 9.21768C0.282928 9.22709 0.193121 9.27233 0.127931 9.34452C0.0627405 9.41671 0.0268688 9.51065 0.0273495 9.60792V12.7739C0.0268196 12.8712 0.0626485 12.9651 0.127807 13.0373C0.192965 13.1095 0.28275 13.1547 0.379545 13.1641L2.44546 13.3633C2.66826 14.2408 3.02152 15.0798 3.49342 15.8523L2.17641 17.442C2.11144 17.5204 2.07952 17.621 2.08739 17.7225C2.09526 17.8241 2.1423 17.9186 2.21857 17.9861L3.91239 19.4842C3.95382 19.5209 4.00254 19.5484 4.05535 19.5649C4.10815 19.5814 4.16386 19.5865 4.21879 19.58C4.27372 19.5733 4.32662 19.5552 4.37405 19.5267C4.42148 19.4982 4.46236 19.4601 4.49402 19.4147L6.9284 15.9217C6.98102 15.8461 7.00539 15.7544 6.99723 15.6627C6.98908 15.5709 6.94892 15.485 6.88379 15.4199C4.54824 13.0843 4.548 9.29735 6.88379 6.96155C9.21954 4.62576 13.0065 4.62576 15.3423 6.96155C17.6781 9.29735 17.6781 13.0843 15.3423 15.4199C15.2764 15.4858 15.2361 15.573 15.2286 15.6658C15.2212 15.7587 15.247 15.8512 15.3015 15.9268L17.8215 19.4196C17.8535 19.4641 17.8945 19.5013 17.9418 19.5289C17.9891 19.5565 18.0417 19.5739 18.0961 19.58C18.1506 19.5861 18.2057 19.5807 18.2579 19.5641C18.3101 19.5476 18.3583 19.5203 18.3993 19.484L20.0937 17.9864C20.17 17.919 20.2171 17.8244 20.225 17.7228C20.2329 17.6213 20.2009 17.5206 20.1359 17.4422L18.8193 15.8523C19.2914 15.0798 19.6448 14.2408 19.8678 13.3633L21.9326 13.1642C22.0294 13.1548 22.1191 13.1095 22.1843 13.0373C22.2494 12.9651 22.2852 12.8712 22.2847 12.7739V9.60758C22.2852 9.51034 22.2494 9.41641 22.1842 9.34421C22.1191 9.27201 22.0293 9.22675 21.9326 9.21729H21.9326ZM21.5004 12.4175L19.5112 12.6094C19.4289 12.6173 19.3512 12.6512 19.2893 12.7061C19.2275 12.7611 19.1847 12.8342 19.1671 12.9151C18.9508 13.8957 18.5577 14.8288 18.0071 15.6686C17.9612 15.7388 17.939 15.8218 17.9438 15.9055C17.9485 15.9891 17.9799 16.0691 18.0334 16.1336L19.2897 17.6501L18.2044 18.6096L16.1281 15.7317C18.5323 13.0795 18.4553 8.96506 15.897 6.40679C13.2592 3.76899 8.96701 3.76899 6.32927 6.40679C3.76958 8.96638 3.69398 13.0839 6.10175 15.7357L4.10221 18.6048L3.02253 17.65L4.2786 16.1334C4.33206 16.0689 4.36343 15.9889 4.36812 15.9052C4.37281 15.8215 4.35058 15.7384 4.30468 15.6683C3.75394 14.8286 3.36056 13.8956 3.14377 12.9151C3.12642 12.8343 3.08386 12.7612 3.02225 12.7063C2.96063 12.6513 2.88315 12.6174 2.80099 12.6094L0.811799 12.4175V9.96414L2.80099 9.77206C2.88365 9.76408 2.96161 9.72997 3.02356 9.67467C3.08551 9.61936 3.12822 9.54575 3.14549 9.46452C3.35659 8.4837 3.74964 7.55113 4.30429 6.7151C4.35072 6.64486 4.37333 6.56155 4.36878 6.47747C4.36422 6.39339 4.33274 6.313 4.279 6.24819L3.00836 4.71405L4.7365 2.98572L6.27064 4.25616C6.33514 4.30969 6.41512 4.34112 6.49881 4.34582C6.58251 4.35051 6.6655 4.32823 6.73559 4.28224C7.5753 3.73147 8.50826 3.33816 9.48883 3.12152C9.56973 3.10363 9.64287 3.06059 9.69779 2.99856C9.7527 2.93653 9.78656 2.8587 9.79451 2.77624L9.98639 0.784596H12.326L12.5181 2.77624C12.526 2.85866 12.5599 2.93646 12.6147 2.99849C12.6696 3.06051 12.7427 3.10358 12.8235 3.12152C13.8042 3.33819 14.7372 3.73157 15.577 4.28243C15.647 4.32843 15.7301 4.35072 15.8138 4.34603C15.8975 4.34133 15.9775 4.3099 16.042 4.25635L17.5759 2.98592L19.304 4.71405L18.0336 6.24819C17.9799 6.31303 17.9486 6.3934 17.9441 6.47744C17.9396 6.56147 17.9622 6.64473 18.0087 6.71491C18.5635 7.55099 18.9566 8.48362 19.1678 9.46452C19.1848 9.54566 19.2273 9.61925 19.289 9.67457C19.3507 9.72989 19.4285 9.76405 19.511 9.77206L21.5004 9.96394V12.4175Z" fill="black"/>
<path d="M12.5247 18.0934V12.1383C13.5132 11.5674 14.1622 10.4837 14.1622 9.36684C14.1622 7.84074 13.2896 6.7293 11.8278 6.39397C11.7678 6.38017 11.7054 6.38068 11.6457 6.39544C11.5859 6.41021 11.5305 6.43883 11.4838 6.47898C11.4372 6.51921 11.4008 6.56982 11.3773 6.62672C11.3539 6.68363 11.3441 6.74524 11.3488 6.80661L11.4785 8.47101C11.3172 8.55564 11.1378 8.59989 10.9556 8.59995C10.7735 8.6 10.594 8.55588 10.4327 8.47135L10.5721 6.79783C10.5774 6.73445 10.5672 6.67073 10.5424 6.61217C10.5175 6.55361 10.4788 6.50198 10.4296 6.46172C10.3804 6.42145 10.3222 6.39374 10.2599 6.381C10.1976 6.36826 10.1331 6.37086 10.0721 6.38857C8.73518 6.77577 7.90234 7.92556 7.90234 9.38964C7.90234 10.7334 8.60747 11.8204 9.78407 12.2915V18.2237C8.95065 18.7157 8.14762 19.714 8.16026 20.9843C8.16026 22.4979 9.0232 23.6168 10.466 23.9778C10.5264 23.9929 10.5894 23.9935 10.6501 23.9794C10.7107 23.9654 10.7671 23.9371 10.8146 23.897C10.8622 23.8569 10.8996 23.8061 10.9237 23.7487C10.9477 23.6913 10.9579 23.6291 10.9532 23.567L10.8241 21.9029C10.9854 21.8183 11.1648 21.774 11.3469 21.7739C11.5291 21.7738 11.7085 21.8179 11.8699 21.9023L11.7305 23.576C11.7252 23.6394 11.7354 23.7031 11.7602 23.7617C11.7851 23.8202 11.8237 23.8719 11.873 23.9121C11.9222 23.9524 11.9804 23.9801 12.0427 23.9929C12.105 24.0056 12.1695 24.003 12.2305 23.9853C13.5609 23.5998 14.3955 22.4557 14.4088 20.9953C14.409 19.6514 13.6947 18.5646 12.5247 18.0935V18.0934ZM12.5666 22.9886L12.671 21.7345C12.6765 21.6688 12.6653 21.6028 12.6386 21.5426C12.6118 21.4824 12.5703 21.4299 12.518 21.39L12.5032 21.3787C11.8126 20.8545 10.8559 20.8609 10.1724 21.394C10.1218 21.4339 10.0819 21.4857 10.0561 21.5447C10.0302 21.6037 10.0193 21.6682 10.0243 21.7324L10.1245 23.0226C9.36942 22.6462 8.94717 21.9273 8.94717 20.9804C8.93702 19.9485 9.66357 19.1352 10.3452 18.8158C10.4124 18.784 10.4692 18.7337 10.5088 18.6708C10.5484 18.6078 10.5691 18.5349 10.5686 18.4605V12.0136C10.5691 11.9295 10.5424 11.8476 10.4926 11.78C10.4428 11.7123 10.3725 11.6625 10.2921 11.638C9.30181 11.3391 8.68807 10.4775 8.68807 9.3892C8.68807 8.51268 9.07796 7.78804 9.73539 7.38471L9.63146 8.63887C9.62596 8.70461 9.63714 8.77067 9.66399 8.83093C9.69083 8.89118 9.73246 8.94369 9.785 8.98356L9.79956 8.99469C10.4891 9.51867 11.4449 9.51308 12.1283 8.98131L12.1388 8.97288C12.1869 8.93274 12.2247 8.88166 12.2491 8.82392C12.2734 8.76618 12.2836 8.70345 12.2788 8.64098L12.1773 7.33706C12.9475 7.69803 13.3782 8.41365 13.3782 9.36699C13.3782 10.2556 12.797 11.1522 11.9647 11.5474C11.8977 11.5793 11.8411 11.6294 11.8015 11.6922C11.7618 11.7549 11.7408 11.8275 11.7409 11.9017V18.3711C11.7409 18.4553 11.768 18.5373 11.8182 18.6049C11.8684 18.6725 11.939 18.7221 12.0197 18.7465C13.0101 19.0456 13.625 19.9072 13.625 20.9918C13.6166 21.8645 13.2235 22.5867 12.5668 22.9886H12.5666Z" fill="black"/>
</g>
<defs>
<clipPath id="clip0_12331_2693">
<rect width="24" height="24" fill="white"/>
</clipPath>
</defs>
</svg>
