<svg width="43" height="38" viewBox="0 0 43 38" fill="none" xmlns="http://www.w3.org/2000/svg">
<g filter="url(#filter0_d_12226_3457)">
<path d="M1.0139 13.4346C0.652271 21.7331 7.43658 22.5504 10.8739 21.9217L23.4462 35.0097C25.5256 37.8673 28.1172 36.6767 29.1532 35.7241C31.1195 33.6209 29.9725 31.5139 29.1532 30.7233L15.5638 17.0638C16.9199 7.16495 9.85686 6.40482 6.15582 7.26211C4.91272 7.6736 5.63786 8.57662 6.15582 8.97668L9.82861 12.5773C10.9361 13.3546 10.2901 14.4252 9.82861 14.8634L8.58551 16.1493C7.68144 16.9266 6.58902 16.3017 6.15582 15.8922L2.7938 12.4058C1.34728 11.0342 1.00448 12.5201 1.0139 13.4346Z" fill="#1E866F"/>
<path d="M1.0139 13.4346C0.652271 21.7331 7.43658 22.5504 10.8739 21.9217L23.4462 35.0097C25.5256 37.8673 28.1172 36.6767 29.1532 35.7241C31.1195 33.6209 29.9725 31.5139 29.1532 30.7233L15.5638 17.0638C16.9199 7.16495 9.85686 6.40482 6.15582 7.26211C4.91272 7.6736 5.63786 8.57662 6.15582 8.97668L9.82861 12.5773C10.9361 13.3546 10.2901 14.4252 9.82861 14.8634L8.58551 16.1493C7.68144 16.9266 6.58902 16.3017 6.15582 15.8922L2.7938 12.4058C1.34728 11.0342 1.00448 12.5201 1.0139 13.4346Z" stroke="#1E866F" stroke-linecap="round"/>
</g>
<g filter="url(#filter1_d_12226_3457)">
<path d="M23.1404 12.9169L28.6584 3.43738C30.5826 -0.976953 32.5728 1.59808 33.3273 3.43738L39.1282 12.9169C41.392 16.4823 38.185 17.1143 36.2985 16.9846H25.2627C21.0748 17.1261 22.1029 14.3317 23.1404 12.9169Z" fill="#FF9900" stroke="#FF9900" stroke-width="2" stroke-linecap="round"/>
<path d="M29.9418 5.69253C29.8977 5.0259 30.4265 4.46094 31.0946 4.46094C31.7655 4.46094 32.2953 5.03033 32.247 5.69943L31.8581 11.0927C31.8286 11.5015 31.4883 11.8182 31.0784 11.8182C30.6667 11.8182 30.3256 11.4988 30.2984 11.088L29.9418 5.69253Z" fill="white"/>
<ellipse cx="31.0983" cy="13.9798" rx="1.23799" ry="1.16725" fill="white"/>
</g>
<circle cx="26" cy="33" r="2" fill="white"/>
<defs>
<filter id="filter0_d_12226_3457" x="0.5" y="5.5" width="31.2388" height="31.8008" filterUnits="userSpaceOnUse" color-interpolation-filters="sRGB">
<feFlood flood-opacity="0" result="BackgroundImageFix"/>
<feColorMatrix in="SourceAlpha" type="matrix" values="0 0 0 0 0 0 0 0 0 0 0 0 0 0 0 0 0 0 127 0" result="hardAlpha"/>
<feOffset dx="1" dy="-1"/>
<feComposite in2="hardAlpha" operator="out"/>
<feColorMatrix type="matrix" values="0 0 0 0 0.0901961 0 0 0 0 0.415686 0 0 0 0 0.345098 0 0 0 1 0"/>
<feBlend mode="normal" in2="BackgroundImageFix" result="effect1_dropShadow_12226_3457"/>
<feBlend mode="normal" in="SourceGraphic" in2="effect1_dropShadow_12226_3457" result="shape"/>
</filter>
<filter id="filter1_d_12226_3457" x="21.2197" y="0" width="21.687" height="19" filterUnits="userSpaceOnUse" color-interpolation-filters="sRGB">
<feFlood flood-opacity="0" result="BackgroundImageFix"/>
<feColorMatrix in="SourceAlpha" type="matrix" values="0 0 0 0 0 0 0 0 0 0 0 0 0 0 0 0 0 0 127 0" result="hardAlpha"/>
<feOffset dx="2" dy="1"/>
<feComposite in2="hardAlpha" operator="out"/>
<feColorMatrix type="matrix" values="0 0 0 0 0.909804 0 0 0 0 0.564706 0 0 0 0 0.0431373 0 0 0 1 0"/>
<feBlend mode="normal" in2="BackgroundImageFix" result="effect1_dropShadow_12226_3457"/>
<feBlend mode="normal" in="SourceGraphic" in2="effect1_dropShadow_12226_3457" result="shape"/>
</filter>
</defs>
</svg>
