<svg width="17" height="16" viewBox="0 0 17 16" fill="none" xmlns="http://www.w3.org/2000/svg">
<g clip-path="url(#clip0_8038_1551)">
<path d="M10.9758 4.84833C10.8033 4.84833 10.6633 4.98802 10.6633 5.16073C10.6633 5.33333 10.8033 5.47323 10.9758 5.47323C11.1487 5.47323 11.2883 5.33333 11.2883 5.16073C11.2884 5.11969 11.2803 5.07904 11.2646 5.04112C11.2489 5.00319 11.2259 4.96873 11.1969 4.93971C11.1678 4.9107 11.1334 4.88769 11.0954 4.87201C11.0575 4.85632 11.0169 4.84828 10.9758 4.84833ZM5.29785 10.5262C5.12498 10.5262 4.98535 10.6662 4.98535 10.8387C4.98531 10.8798 4.99337 10.9204 5.00906 10.9583C5.02475 10.9963 5.04776 11.0307 5.07679 11.0598C5.10582 11.0888 5.14028 11.1118 5.17821 11.1275C5.21615 11.1432 5.2568 11.1512 5.29785 11.1512C5.47035 11.1512 5.61035 11.0115 5.61035 10.8387C5.61035 10.6662 5.47035 10.5262 5.29785 10.5262Z" fill="#545454"/>
<path d="M15.7479 1.92248C15.696 1.9104 15.6419 1.91179 15.5907 1.92654C15.5395 1.94128 15.493 1.96887 15.4554 2.0067L14.1599 3.31248H13.5388L12.8551 2.60411V1.97436L14.1321 0.678325C14.1693 0.640584 14.1963 0.594002 14.2105 0.542963C14.2247 0.491924 14.2257 0.438107 14.2134 0.386575C14.2011 0.335053 14.1759 0.287497 14.1402 0.248378C14.1045 0.209259 14.0595 0.179861 14.0093 0.16295C13.6885 0.0547937 13.3528 -1.88524e-05 13.0113 -1.88524e-05C11.9935 -1.88524e-05 11.0688 0.474606 10.4744 1.30211C9.91797 2.07676 9.74647 3.02611 9.99219 3.93467L7.69031 6.23654L3.85534 2.39279V1.63842C3.85535 1.58445 3.84138 1.53141 3.81479 1.48444C3.7882 1.43748 3.7499 1.39821 3.70362 1.37045L1.49403 0.0445124C1.43428 0.00862544 1.36425 -0.00624007 1.29507 0.00228284C1.2259 0.0108058 1.16156 0.0422271 1.11231 0.0915437L0.228531 0.9752C0.179277 1.02451 0.147903 1.08887 0.139389 1.15804C0.130874 1.22722 0.145706 1.29726 0.181531 1.35704L1.50719 3.56664C1.53494 3.61289 1.57419 3.65117 1.62112 3.67776C1.66805 3.70434 1.72106 3.71833 1.775 3.71836L2.52919 3.71861L6.3645 7.56236L4.07141 9.85545C3.16284 9.60983 2.213 9.78161 1.43797 10.3384C0.611 10.9325 0.136719 11.8569 0.136719 12.8747C0.136719 13.216 0.191531 13.5519 0.299688 13.8725C0.316699 13.923 0.346337 13.9683 0.385788 14.0042C0.425239 14.04 0.473191 14.0651 0.525089 14.0772C0.576987 14.0892 0.631108 14.0878 0.682309 14.0731C0.733509 14.0583 0.78009 14.0307 0.817625 13.9929L2.11303 12.6872H2.73756L3.44913 13.3988V14.0233L2.14341 15.3187C2.10559 15.3563 2.078 15.4028 2.06325 15.454C2.04851 15.5052 2.04709 15.5594 2.05915 15.6113C2.07121 15.6632 2.09634 15.7111 2.13215 15.7506C2.16796 15.79 2.21326 15.8197 2.26375 15.8367C2.58444 15.9448 2.92025 15.9996 3.26156 15.9996C4.27938 15.9996 5.20372 15.5253 5.79794 14.6983C6.35472 13.9232 6.52647 12.9735 6.28084 12.0649L8.12253 10.2233L8.54441 10.6815L8.35081 10.875C8.22872 10.9971 8.22872 11.1949 8.35081 11.317C8.47288 11.439 8.67062 11.439 8.79281 11.317L8.96813 11.1417L12.9264 15.4413C12.9293 15.4444 12.9323 15.4475 12.9354 15.4505C13.6678 16.1829 14.8545 16.1832 15.5873 15.4504C16.318 14.7194 16.318 13.5298 15.5873 12.7987C15.5841 12.7955 15.5808 12.7924 15.5775 12.7894L11.2712 8.83873L11.4446 8.66539C11.5667 8.54345 11.5667 8.34558 11.4446 8.22351C11.3225 8.10145 11.1248 8.10142 11.0026 8.22351L10.8103 8.41589L10.3512 7.99448L12.2018 6.14389C12.4659 6.21439 12.738 6.25002 13.0113 6.24986C14.7345 6.24986 16.1362 4.84798 16.1362 3.12498C16.1362 2.78354 16.0814 2.44786 15.9733 2.12704C15.9563 2.07655 15.9267 2.03125 15.8872 1.99544C15.8478 1.95964 15.7998 1.93452 15.7479 1.92248ZM2.88 3.18542C2.82141 3.12667 2.74194 3.09679 2.65894 3.09679L1.95216 3.09654L0.843031 1.24473L1.38172 0.706044L3.23034 1.81542V2.52217C3.23035 2.60492 3.26319 2.68429 3.32166 2.74286L7.24841 6.67854L6.80641 7.12042L2.88 3.18542ZM10.8288 9.28111L15.1498 13.2451C15.6324 13.7329 15.631 14.5227 15.1453 15.0086C14.6584 15.4955 13.8704 15.4969 13.3816 15.0129L9.41041 10.6994L10.8288 9.28111ZM10.3679 8.85814L8.98672 10.2391L8.56484 9.78086L9.90884 8.43676L10.3679 8.85814ZM13.0113 5.62486C12.7398 5.62515 12.47 5.58115 12.2127 5.49461C12.1575 5.4761 12.0983 5.47333 12.0416 5.48661C11.985 5.49989 11.9332 5.5287 11.892 5.56979C10.3253 7.13645 6.94959 10.5121 5.70653 11.7552C5.66535 11.7964 5.63649 11.8482 5.62321 11.9049C5.60992 11.9616 5.61274 12.0209 5.63134 12.076C5.89113 12.8474 5.76684 13.6701 5.29028 14.3336C4.81506 14.9951 4.07556 15.3746 3.26159 15.3746C3.17016 15.3746 3.07922 15.3696 2.98913 15.36L3.98169 14.3751C4.01097 14.3461 4.03421 14.3115 4.05007 14.2734C4.06593 14.2354 4.07409 14.1945 4.07409 14.1533V13.2693C4.07408 13.1864 4.04114 13.1069 3.98253 13.0483L3.08791 12.1537C3.02931 12.0951 2.94984 12.0621 2.86697 12.0621H1.98291C1.94165 12.0621 1.90081 12.0703 1.86272 12.0861C1.82464 12.102 1.79007 12.1252 1.761 12.1545L0.77625 13.1471C0.766463 13.0566 0.761571 12.9656 0.761594 12.8746C0.761594 12.0605 1.14097 11.3212 1.80262 10.8459C2.46594 10.3694 3.28881 10.245 4.06031 10.5049C4.11546 10.5234 4.1747 10.5263 4.23136 10.513C4.28802 10.4997 4.33983 10.4708 4.38097 10.4297C4.39819 10.4126 10.562 4.24864 10.5664 4.24423C10.6076 4.20308 10.6364 4.15127 10.6497 4.09461C10.663 4.03796 10.6602 3.97872 10.6416 3.92357C10.3817 3.1522 10.5057 2.3297 10.9819 1.6667C11.4576 1.00464 12.1972 0.624981 13.0112 0.624981C13.1055 0.624981 13.1991 0.630231 13.2919 0.640481L12.32 1.62692C12.2624 1.68536 12.2301 1.76412 12.2301 1.84617V2.73023C12.2301 2.8112 12.2615 2.889 12.3178 2.94723L13.1812 3.84192C13.2103 3.87212 13.2453 3.89614 13.2839 3.91254C13.3225 3.92893 13.3641 3.93737 13.406 3.93736H14.2901C14.3313 3.93736 14.3722 3.92919 14.4102 3.91333C14.4483 3.89747 14.4828 3.87423 14.5119 3.84495L15.4966 2.85251C15.5064 2.94261 15.5112 3.03354 15.5112 3.12498C15.5112 4.50342 14.3898 5.62486 13.0114 5.62486H13.0113Z" fill="#545454"/>
<path d="M9.87112 5.82358L5.96062 9.73411C5.83865 9.85608 5.83865 10.054 5.96062 10.176C6.08268 10.2981 6.28055 10.2981 6.40262 10.176L10.3131 6.26549C10.4352 6.14355 10.4352 5.94568 10.3131 5.82361C10.1911 5.70155 9.99321 5.70152 9.87112 5.82361V5.82358ZM13.8201 14.125C13.9422 14.2467 14.1401 14.2467 14.2621 14.1243C14.3839 14.0021 14.3836 13.8042 14.2614 13.6824L11.4446 10.8746C11.3224 10.7528 11.1244 10.7532 11.0027 10.8754C10.8808 10.9977 10.8811 11.1954 11.0033 11.3172L13.8201 14.125Z" fill="#545454"/>
</g>
<defs>
<clipPath id="clip0_8038_1551">
<rect width="16" height="16" fill="white" transform="translate(0.105469)"/>
</clipPath>
</defs>
</svg>
