<svg width="15" height="20" viewBox="0 0 15 20" fill="none" xmlns="http://www.w3.org/2000/svg">
<path d="M3.40918 10.9091H8.86373V12.2727H3.40918V10.9091ZM3.40918 7.5H11.591V8.86364H3.40918V7.5ZM3.40918 14.3182H6.81827V15.6818H3.40918V14.3182Z" fill="#FF9C07"/>
<path d="M13.6364 2.04545H11.5909V1.36364C11.5909 1.00198 11.4472 0.655131 11.1915 0.3994C10.9358 0.143668 10.5889 0 10.2273 0H4.77273C4.41107 0 4.06422 0.143668 3.80849 0.3994C3.55276 0.655131 3.40909 1.00198 3.40909 1.36364V2.04545H1.36364C1.00198 2.04545 0.655131 2.18912 0.3994 2.44485C0.143668 2.70059 0 3.04743 0 3.40909V17.7273C0 18.0889 0.143668 18.4358 0.3994 18.6915C0.655131 18.9472 1.00198 19.0909 1.36364 19.0909H13.6364C13.998 19.0909 14.3449 18.9472 14.6006 18.6915C14.8563 18.4358 15 18.0889 15 17.7273V3.40909C15 3.04743 14.8563 2.70059 14.6006 2.44485C14.3449 2.18912 13.998 2.04545 13.6364 2.04545ZM4.77273 1.36364H10.2273V4.09091H4.77273V1.36364ZM13.6364 17.7273H1.36364V3.40909H3.40909V5.45455H11.5909V3.40909H13.6364V17.7273Z" fill="#FF9C07"/>
</svg>
