<svg width="14" height="21" viewBox="0 0 14 21" fill="none" xmlns="http://www.w3.org/2000/svg">
<path id="Vector" d="M13.6338 20.3944C13.6338 20.4571 13.6307 20.5096 13.6261 20.5533C13.5843 20.5198 13.5444 20.4841 13.5064 20.4464L7.48292 14.5048C7.35481 14.3785 7.18107 14.3075 6.99991 14.3075C6.81875 14.3075 6.64501 14.3785 6.5169 14.5048L0.493425 20.4464C0.4556 20.4841 0.415804 20.5198 0.374199 20.5534C0.368693 20.5006 0.366033 20.4475 0.366229 20.3944V1.47821C0.366229 0.854824 0.880341 0.347656 1.51231 0.347656H7H12.4877C13.1197 0.347656 13.6338 0.854824 13.6338 1.47821V20.3944Z" fill="#FF9900"/>
</svg>
