<svg width="174" height="174" viewBox="0 0 174 174" fill="none" xmlns="http://www.w3.org/2000/svg">
<circle cx="87" cy="87" r="87" fill="url(#paint0_linear_8611_1835)" fill-opacity="0.15"/>
<g clip-path="url(#clip0_8611_1835)">
<path d="M80.0726 117.673C98.6941 117.673 113.844 102.524 113.844 83.9024C113.844 65.281 98.6939 50.1313 80.0726 50.1313C79.9998 50.1313 79.9272 50.1326 79.8545 50.1338L79.7341 50.1356C79.3839 50.1372 79.0487 50.2778 78.8022 50.5266C78.5557 50.7754 78.4181 51.1119 78.4197 51.4621C78.4214 51.8123 78.562 52.1475 78.8108 52.394C79.0595 52.6405 79.396 52.778 79.7462 52.7764H79.7591L79.8996 52.7745C79.9571 52.7734 80.0147 52.7724 80.0725 52.7724C87.0601 52.7724 93.5172 55.087 98.718 58.9893L84.7835 78.0357H69.747C69.0176 78.0357 68.4265 78.6269 68.4265 79.3561C68.4265 80.0853 69.0176 80.6765 69.747 80.6765H85.4536C85.6613 80.6765 85.866 80.6276 86.0511 80.5336C86.2363 80.4396 86.3967 80.3033 86.5193 80.1357L100.764 60.6657C101.935 61.7093 103.027 62.8393 104.029 64.0461L93.3987 78.5765C93.2547 78.7734 93.168 79.0062 93.1483 79.2493C93.1286 79.4923 93.1765 79.7361 93.2869 79.9536C93.3972 80.171 93.5656 80.3537 93.7734 80.4813C93.9812 80.6089 94.2203 80.6765 94.4642 80.6765H111.036C111.146 81.7373 111.203 82.8133 111.203 83.9026C111.203 84.3737 111.19 84.8418 111.17 85.3079H100.966C100.237 85.3079 99.6455 85.8991 99.6455 86.6283C99.6455 87.3575 100.237 87.9487 100.966 87.9487H110.94C110.045 94.8131 106.905 100.981 102.283 105.691H86.027C85.2976 105.691 84.7066 106.282 84.7066 107.012C84.7066 107.741 85.2976 108.332 86.027 108.332H99.3457C94.0411 112.526 87.3445 115.033 80.0728 115.033C72.8012 115.033 66.1045 112.526 60.8 108.332H75.2494C75.9788 108.332 76.5698 107.741 76.5698 107.012C76.5698 106.282 75.9788 105.691 75.2494 105.691H57.8627C57.2584 105.076 56.6798 104.436 56.1283 103.773L67.7054 87.9487H95.339C96.0684 87.9487 96.6594 87.3575 96.6594 86.6283C96.6594 85.8991 96.0684 85.3079 95.339 85.3079H67.035C66.8273 85.3079 66.6226 85.3568 66.4375 85.4508C66.2523 85.5448 66.0919 85.6811 65.9693 85.8487L54.462 101.578C53.5 100.188 52.6526 98.7234 51.9282 97.1969L59.0898 87.4079C59.2337 87.211 59.3204 86.9782 59.3401 86.7351C59.3599 86.4921 59.3119 86.2483 59.2016 86.0308C59.0912 85.8134 58.9228 85.6307 58.715 85.5031C58.5072 85.3755 58.2681 85.3079 58.0243 85.3079H48.9757C48.9542 84.8397 48.9432 84.3712 48.9426 83.9026C48.9426 82.8195 48.9996 81.7436 49.1095 80.6765H54.0144C54.7438 80.6765 55.3348 80.0853 55.3348 79.3561C55.3348 78.6269 54.7438 78.0357 54.0144 78.0357H49.4968C49.8283 76.2974 50.3084 74.5907 50.9317 72.9345C50.9947 72.7718 51.0249 72.5982 51.0205 72.4238C51.0161 72.2494 50.9771 72.0776 50.9059 71.9183C50.8347 71.7591 50.7327 71.6155 50.6056 71.4959C50.4786 71.3763 50.3291 71.283 50.1658 71.2216C50.0026 71.1601 49.8287 71.1316 49.6544 71.1377C49.48 71.1437 49.3086 71.1843 49.15 71.2571C48.9914 71.3298 48.8488 71.4333 48.7304 71.5614C48.6121 71.6896 48.5203 71.84 48.4604 72.0038C47.028 75.8074 46.3018 79.8107 46.3018 83.9024C46.3016 102.524 61.4512 117.673 80.0726 117.673ZM97.0664 78.0355L105.694 66.2428C108.103 69.7274 109.82 73.7248 110.646 78.0355H97.0664ZM55.4222 87.9487L50.7452 94.3416C50.0058 92.2715 49.4895 90.1283 49.2053 87.9485H55.4222V87.9487Z" fill="#1E866F"/>
<path d="M126.904 121.256L113.828 108.18C118.904 101.154 121.645 92.7395 121.645 83.9022C121.645 72.7978 117.321 62.3579 109.469 54.506C101.617 46.6539 91.1772 42.3296 80.0726 42.3296C78.3703 42.3296 76.6466 42.4354 74.949 42.6442C74.6015 42.6869 74.2851 42.866 74.0695 43.142C73.854 43.418 73.7569 43.7683 73.7996 44.1159C73.8423 44.4634 74.0214 44.7798 74.2973 44.9954C74.5733 45.2109 74.9236 45.308 75.2712 45.2653C76.8642 45.0696 78.4675 44.9712 80.0725 44.9706C90.4714 44.9706 100.248 49.0202 107.601 56.3736C114.955 63.7269 119.004 73.5035 119.004 83.9026C119.004 94.3017 114.955 104.078 107.601 111.432C100.248 118.785 90.4714 122.834 80.0725 122.834C69.6735 122.834 59.897 118.784 52.5438 111.431C45.1905 104.078 41.1408 94.3013 41.1408 83.9022C41.1408 77.4418 42.756 71.0431 45.8114 65.398C45.9765 65.0902 46.0128 64.7295 45.9125 64.395C45.8123 64.0604 45.5835 63.7792 45.2763 63.6129C44.9692 63.4466 44.6087 63.4088 44.2737 63.5078C43.9387 63.6067 43.6566 63.8343 43.4891 64.1408C40.2252 70.1709 38.5 77.0042 38.5 83.9022C38.5 95.0066 42.8245 105.447 50.6764 113.298C58.5283 121.15 68.9681 125.475 80.0726 125.475C89.2298 125.475 97.9335 122.532 105.108 117.097L109.06 121.049C109.318 121.307 109.656 121.436 109.994 121.436C110.332 121.436 110.67 121.307 110.928 121.049C111.175 120.801 111.315 120.465 111.315 120.115C111.315 119.765 111.175 119.429 110.928 119.182L107.175 115.429C108.994 113.861 110.675 112.142 112.202 110.289L125.037 123.124C125.567 123.654 125.859 124.36 125.859 125.11C125.859 125.86 125.567 126.565 125.037 127.096L123.925 128.207C123.395 128.738 122.689 129.03 121.939 129.03C121.189 129.03 120.484 128.738 119.954 128.207L114.907 123.16C114.659 122.915 114.324 122.777 113.975 122.778C113.625 122.778 113.291 122.917 113.044 123.164C112.797 123.411 112.658 123.746 112.657 124.095C112.656 124.444 112.794 124.78 113.04 125.028L118.086 130.074C119.116 131.104 120.484 131.67 121.94 131.67C123.395 131.67 124.764 131.104 125.793 130.074L126.904 128.963C127.934 127.934 128.501 126.565 128.501 125.11C128.5 123.654 127.933 122.286 126.904 121.256Z" fill="#1E866F"/>
<path d="M61.8805 48.624C60.6406 48.6238 59.4153 48.8905 58.2877 49.4059C57.1601 49.9214 56.1567 50.6735 55.3456 51.6112C53.9852 53.1821 53.2365 55.1906 53.2368 57.2687C53.2368 62.0349 57.1143 65.9124 61.8805 65.9124C63.1202 65.9126 64.3455 65.646 65.4731 65.1306C66.6006 64.6153 67.604 63.8632 68.4151 62.9256C69.7759 61.3552 70.5247 59.3467 70.5241 57.2687C70.5241 52.502 66.6466 48.624 61.8805 48.624ZM66.4192 61.1964C65.8559 61.8477 65.159 62.3702 64.3758 62.7283C63.5927 63.0863 62.7416 63.2716 61.8805 63.2715C58.5704 63.2715 55.8777 60.5788 55.8777 57.2687C55.8773 55.8259 56.3969 54.4312 57.3412 53.3404L57.3417 53.34C57.905 52.6887 58.6019 52.1662 59.385 51.8081C60.1681 51.45 61.0192 51.2648 61.8803 51.2649C65.1903 51.2649 67.8833 53.9582 67.8833 57.2687C67.8838 58.7115 67.3639 60.106 66.4192 61.1964Z" fill="#1E866F"/>
<path d="M56.0715 74.5128C56.9677 75.7452 57.596 77.1515 57.9161 78.6414L58.3731 80.7563C58.7275 82.3965 60.2028 83.5871 61.8808 83.5871C63.5586 83.5871 65.034 82.3966 65.3887 80.7563L65.8458 78.6415C66.1657 77.1517 66.794 75.7453 67.6902 74.5128L69.6085 71.8679C69.7103 71.7276 69.7834 71.5685 69.8238 71.3999C69.8641 71.2312 69.8709 71.0563 69.8436 70.885C69.8163 70.7138 69.7556 70.5496 69.6649 70.4018C69.5741 70.254 69.4552 70.1256 69.3148 70.0238C69.1744 69.9219 69.0154 69.8488 68.8467 69.8084C68.6781 69.7681 68.5031 69.7614 68.3319 69.7886C68.1606 69.8159 67.9964 69.8766 67.8486 69.9674C67.7009 70.0581 67.5724 70.177 67.4706 70.3174L65.5523 72.9623C64.4407 74.491 63.6613 76.2356 63.2645 78.0836L62.8074 80.1984C62.7139 80.6317 62.3241 80.9463 61.8808 80.9463C61.4375 80.9463 61.0481 80.6318 60.9544 80.1986L60.4974 78.0836C60.1004 76.2356 59.321 74.4912 58.2094 72.9625L52.0942 64.5303C50.5242 62.4183 49.6942 59.9072 49.6942 57.2683C49.6942 53.9588 50.9983 50.8624 53.3662 48.5495C55.7333 46.2375 58.8608 45.0071 62.1756 45.0853C65.318 45.1592 68.281 46.4423 70.5187 48.6981C72.7563 50.9539 74.016 53.9273 74.0658 57.0706C74.1086 59.7822 73.2792 62.3616 71.6581 64.5428L70.7988 65.7276C70.3706 66.318 70.5021 67.1435 71.0924 67.5717C71.6828 67.9998 72.5085 67.8685 72.9366 67.278L73.7868 66.1056C75.7489 63.466 76.7584 60.3273 76.7063 57.0287C76.6456 53.1997 75.1141 49.5807 72.3935 46.8381C69.6725 44.0955 66.0659 42.5353 62.2377 42.4451C58.2037 42.3508 54.4009 43.8472 51.521 46.6603C48.64 49.4742 47.0532 53.2416 47.0532 57.2683C47.0532 60.4789 48.0634 63.5349 49.9654 66.0931L56.0715 74.5128ZM80.6382 109.93C80.9884 109.93 81.3242 109.791 81.5719 109.543C81.8195 109.296 81.9586 108.96 81.9586 108.61V103.41C84.3938 102.816 86.207 100.616 86.207 98.0008C86.207 94.9302 83.709 92.432 80.6382 92.432C77.5674 92.432 75.0692 94.9302 75.0692 98.0008C75.0692 100.616 76.8826 102.816 79.3178 103.41V108.61C79.3178 108.96 79.4569 109.296 79.7045 109.543C79.9521 109.791 80.288 109.93 80.6382 109.93ZM77.71 98.0006C77.71 96.3862 79.0236 95.0727 80.6382 95.0727C82.2526 95.0727 83.5662 96.3862 83.5662 98.0006C83.5662 99.6151 82.2526 100.929 80.6382 100.929C79.0236 100.929 77.71 99.6151 77.71 98.0006Z" fill="#1E866F"/>
</g>
<defs>
<linearGradient id="paint0_linear_8611_1835" x1="-3.62426" y1="-47.6562" x2="276.099" y2="109.436" gradientUnits="userSpaceOnUse">
<stop offset="0.282986" stop-color="#1E866F"/>
<stop offset="1" stop-color="#B3E59F" stop-opacity="0.75"/>
</linearGradient>
<clipPath id="clip0_8611_1835">
<rect width="90" height="90" fill="white" transform="translate(38.5 42)"/>
</clipPath>
</defs>
</svg>
