<svg width="15" height="14" viewBox="0 0 15 14" fill="none" xmlns="http://www.w3.org/2000/svg">
<path d="M14.7949 4.66519H14.1416L14.2266 4.45745C14.4229 3.97966 14.3145 3.43361 13.9541 3.06859L13.374 2.48099V1.76579C13.374 1.65005 13.2832 1.55805 13.1689 1.55805C13.0547 1.55805 12.9639 1.65005 12.9639 1.76579V2.48099L12.3838 3.06859C12.0234 3.43361 11.915 3.97966 12.1113 4.45745L12.1963 4.66519H11.543C11.4287 4.66519 11.3379 4.75718 11.3379 4.87292V6.10746C11.3379 6.2232 11.4287 6.3152 11.543 6.3152H12.0117V7.65658H11.1035V6.87015C11.1035 6.75441 11.0127 6.66242 10.8984 6.66242H10.4648C11.0215 5.81367 11.001 4.70376 10.4121 3.87876C9.93164 3.20213 9.25488 2.6917 8.47852 2.41867L8.25293 2.33558C8.44043 1.92604 8.42285 1.45122 8.20605 1.05652L7.68164 0.106871C7.62598 0.00597059 7.50293 -0.0296412 7.40332 0.0267442C7.37109 0.0445501 7.3418 0.0742266 7.32422 0.106871L6.7998 1.05652C6.58301 1.45122 6.56543 1.92604 6.75293 2.33558L6.52734 2.41867C5.74805 2.6917 5.07422 3.20213 4.59375 3.87876C4.00488 4.70376 3.98438 5.81367 4.54102 6.66242H4.10156C3.9873 6.66242 3.89648 6.75441 3.89648 6.87015V7.65658H2.98828V6.3152H3.46582C3.58008 6.3152 3.6709 6.2232 3.6709 6.10746V4.87292C3.6709 4.75718 3.58008 4.66519 3.46582 4.66519H2.80957L2.89453 4.45745C3.09082 3.97966 2.98242 3.43361 2.62207 3.06859L2.03906 2.48099V1.76579C2.03906 1.65005 1.94824 1.55805 1.83398 1.55805C1.71973 1.55805 1.62891 1.65005 1.62891 1.76579V2.48099L1.04883 3.06859C0.688477 3.43361 0.580078 3.97966 0.776367 4.45745L0.861328 4.66519H0.205078C0.0908203 4.66519 0 4.75718 0 4.87292V6.10746C0 6.2232 0.0908203 6.3152 0.205078 6.3152H0.682617V13.4287C0.682617 13.5444 0.773438 13.6364 0.887695 13.6364H14.1152C14.2295 13.6364 14.3203 13.5444 14.3203 13.4287V6.3152H14.7949C14.9092 6.3152 15 6.2232 15 6.10746V4.87292C15 4.75718 14.9092 4.66519 14.7949 4.66519ZM12.4863 4.30016C12.3545 3.97966 12.4277 3.6087 12.6709 3.36239L13.166 2.86085L13.6611 3.36239C13.9043 3.6087 13.9775 3.97669 13.8457 4.30016L13.6963 4.66519H12.6328L12.4863 4.30016ZM7.1543 1.25832L7.5 0.635113L7.8457 1.26129C8.00391 1.55212 8.0127 1.9023 7.86328 2.19907L7.57031 2.09223C7.52637 2.07739 7.47656 2.07739 7.43262 2.09223L7.13965 2.19907C6.9873 1.9023 6.99609 1.54915 7.1543 1.25832ZM4.9248 4.11617C5.35547 3.51077 5.96191 3.05375 6.65918 2.8104L7.5 2.50473L8.33789 2.80743C9.03516 3.05078 9.6416 3.50483 10.0723 4.1132C10.6201 4.88776 10.5732 5.94128 9.95508 6.66242H5.04199C4.42676 5.94424 4.37695 4.88776 4.9248 4.11617ZM4.30664 7.07789H10.6934V7.65658H4.30664V7.07789ZM1.1543 4.30016C1.02246 3.97966 1.0957 3.6087 1.33887 3.36239L1.83398 2.86085L2.3291 3.36239C2.57227 3.6087 2.64551 3.97669 2.51367 4.30016L2.36426 4.66519H1.30371L1.1543 4.30016ZM0.410156 5.08066H3.26074V5.89973H0.410156V5.08066ZM1.09277 6.3152H2.57812V13.2209H1.09277V6.3152ZM2.98828 8.07205H12.0117V13.2209H11.6279V11.651C11.6279 11.2356 11.458 10.8379 11.1592 10.553L10.708 10.1257C10.6289 10.0515 10.5059 10.0515 10.4268 10.1257L9.97559 10.553C9.67676 10.8379 9.50684 11.2356 9.50684 11.651V13.2209H8.95898V10.826C8.95898 10.2444 8.71875 9.68645 8.2998 9.28879L7.64062 8.66261C7.56152 8.58842 7.43848 8.58842 7.35938 8.66261L6.7002 9.28879C6.28125 9.68645 6.04395 10.2444 6.04102 10.826V13.2209H5.49023V11.651C5.49023 11.2356 5.32031 10.8379 5.02148 10.553L4.57031 10.1257C4.49121 10.0515 4.36816 10.0515 4.28906 10.1257L3.84082 10.553C3.54199 10.8379 3.37207 11.2356 3.37207 11.651V13.2209H2.98828V8.07205ZM3.78223 13.2209V11.651C3.78223 11.3513 3.90527 11.0634 4.12207 10.8557L4.43262 10.5619L4.74316 10.8557C4.95996 11.0605 5.08301 11.3483 5.08301 11.651V13.2209H3.78223ZM6.4541 13.2209V10.826C6.4541 10.3571 6.64746 9.912 6.98145 9.59149L7.5 9.09886L8.01855 9.59149C8.35547 9.912 8.5459 10.3571 8.5459 10.826V13.2209H6.4541ZM9.91699 13.2209V11.651C9.91699 11.3513 10.04 11.0634 10.2568 10.8557L10.5674 10.5619L10.8779 10.8557C11.0947 11.0605 11.2178 11.3483 11.2178 11.651V13.2209H9.91699ZM13.9072 13.2209H12.4219V6.3152H13.9072V13.2209ZM14.5898 5.89973H11.7393V5.08066H14.5898V5.89973Z" fill="#888998"/>
<path d="M8.16239 3.31196C8.05692 3.27338 7.93681 3.32977 7.89872 3.4366C7.86063 3.54344 7.9163 3.66511 8.02177 3.70369C8.53446 3.87878 8.9827 4.21116 9.30497 4.65631C9.36942 4.75127 9.49833 4.77501 9.59208 4.70973C9.68583 4.64444 9.70927 4.51386 9.64481 4.4189C9.27274 3.90549 8.75419 3.51673 8.16239 3.31196Z" fill="#888998"/>
</svg>
