<svg width="68" height="68" viewBox="0 0 68 68" fill="none" xmlns="http://www.w3.org/2000/svg">
<path d="M5.53653 38.4319H6.52933V45.0823C6.52946 45.3238 6.59389 45.5609 6.71599 45.7692C6.8381 45.9776 7.01347 46.1496 7.22409 46.2677C7.43471 46.3859 7.67299 46.4458 7.91443 46.4413C8.15587 46.4369 8.39177 46.3682 8.59789 46.2424L21.3968 38.4319H29.4317V45.8602C29.4332 46.969 29.8742 48.0321 30.6581 48.8162C31.442 49.6004 32.5049 50.0418 33.6137 50.0436H46.5976L59.4048 57.8473C59.611 57.9728 59.8468 58.0412 60.0882 58.0454C60.3296 58.0496 60.5677 57.9895 60.7781 57.8713C60.9886 57.753 61.1638 57.5809 61.2857 57.3726C61.4076 57.1642 61.4719 56.9272 61.472 56.6858V50.0436H62.4634C63.5704 50.0425 64.6318 49.6023 65.4145 48.8195C66.1973 48.0367 66.6375 46.9754 66.6386 45.8684V25.7472C66.6368 24.6384 66.1954 23.5755 65.4113 22.7916C64.6271 22.0076 63.5641 21.5666 62.4552 21.5652H38.5587V14.1273C38.5576 13.0203 38.1174 11.959 37.3346 11.1762C36.5518 10.3935 35.4905 9.95323 34.3835 9.95215H5.53653C4.42773 9.95503 3.36536 10.3977 2.58259 11.183C1.79982 11.9683 1.3606 13.0321 1.36133 14.1409V34.2553C1.36241 35.3623 1.80264 36.4237 2.58541 37.2065C3.36818 37.9892 4.42953 38.4295 5.53653 38.4305V38.4319ZM63.9173 25.7472V45.8684C63.9173 46.6708 63.2645 47.3236 62.4621 47.3236H60.112C59.7513 47.3236 59.4054 47.4669 59.1503 47.7219C58.8953 47.977 58.752 48.3229 58.752 48.6836V54.265L47.6856 47.5221C47.4726 47.3923 47.2279 47.3237 46.9784 47.3236H33.6137C33.226 47.3229 32.8543 47.1684 32.5803 46.8941C32.3062 46.6198 32.1521 46.248 32.1517 45.8602V25.739C32.1517 24.9366 32.8045 24.2838 33.6056 24.2838H62.4552C63.2617 24.2838 63.9173 24.9407 63.9173 25.7472ZM4.08269 14.1437C4.08269 13.3331 4.73549 12.6749 5.53789 12.6749H34.3835C35.1859 12.6749 35.8387 13.3277 35.8387 14.1301V21.5665H33.6056C32.4986 21.5676 31.4372 22.0079 30.6545 22.7906C29.8717 23.5734 29.4314 24.6347 29.4304 25.7417V35.7133H21.0147C20.7652 35.7132 20.5205 35.7819 20.3075 35.9118L9.25069 42.6601V37.0733C9.25069 36.7126 9.1074 36.3667 8.85235 36.1116C8.5973 35.8566 8.25138 35.7133 7.89069 35.7133H5.53789C4.73549 35.7133 4.08269 35.0605 4.08269 34.2581V14.1437Z" fill="#FF0000"/>
<path d="M44.2256 34.0681C44.5863 34.0681 44.9322 33.9248 45.1873 33.6697C45.4423 33.4147 45.5856 33.0687 45.5856 32.7081C45.5856 32.0117 45.8821 31.3481 46.4016 30.8829C46.6594 30.6507 46.9639 30.4764 47.2946 30.3715C47.6254 30.2667 47.9747 30.2338 48.3192 30.275C49.4208 30.3974 50.3456 31.3209 50.468 32.4238C50.5229 32.8899 50.4424 33.3619 50.2362 33.7835C50.03 34.205 49.7068 34.5583 49.3052 34.8011C47.6582 35.8075 46.6736 37.532 46.6736 39.4169C46.6736 39.7776 46.8169 40.1235 47.0719 40.3786C47.327 40.6336 47.6729 40.7769 48.0336 40.7769C48.3943 40.7769 48.7402 40.6336 48.9953 40.3786C49.2503 40.1235 49.3936 39.7776 49.3936 39.4169C49.3936 38.4881 49.8914 37.6299 50.7223 37.1226C51.5672 36.6125 52.2473 35.8699 52.6814 34.9836C53.1155 34.0973 53.2852 33.1048 53.1703 32.1246C53.0353 30.9635 52.512 29.882 51.6852 29.0555C50.8585 28.229 49.7769 27.706 48.6157 27.5713C47.8915 27.4927 47.1589 27.5664 46.4649 27.7877C45.7709 28.0091 45.1309 28.3731 44.586 28.8565C44.0448 29.3417 43.6119 29.9354 43.3155 30.599C43.0191 31.2626 42.8658 31.9812 42.8656 32.7081C42.8656 33.0687 43.0089 33.4147 43.2639 33.6697C43.519 33.9248 43.8649 34.0681 44.2256 34.0681ZM48.035 41.7099C47.6743 41.7099 47.3283 41.8532 47.0733 42.1082C46.8182 42.3633 46.675 42.7092 46.675 43.0699V43.5241C46.675 43.8848 46.8182 44.2307 47.0733 44.4858C47.3283 44.7408 47.6743 44.8841 48.035 44.8841C48.3956 44.8841 48.7416 44.7408 48.9966 44.4858C49.2517 44.2307 49.395 43.8848 49.395 43.5241V43.0699C49.395 42.7092 49.2517 42.3633 48.9966 42.1082C48.7416 41.8532 48.3956 41.7099 48.035 41.7099ZM19.902 33.7593C20.2627 33.7593 20.6086 33.616 20.8637 33.361C21.1187 33.1059 21.262 32.76 21.262 32.3993V31.9165C21.262 31.5558 21.1187 31.2099 20.8637 30.9549C20.6086 30.6998 20.2627 30.5565 19.902 30.5565C19.5413 30.5565 19.1954 30.6998 18.9403 30.9549C18.6853 31.2099 18.542 31.5558 18.542 31.9165V32.3993C18.542 32.76 18.6853 33.1059 18.9403 33.361C19.1954 33.616 19.5413 33.7593 19.902 33.7593ZM20.0149 29.2686C20.3756 29.2686 20.7215 29.1253 20.9765 28.8703C21.2316 28.6152 21.3749 28.2693 21.3749 27.9086V16.0045C21.3749 15.6438 21.2316 15.2979 20.9765 15.0429C20.7215 14.7878 20.3756 14.6445 20.0149 14.6445C19.6542 14.6445 19.3083 14.7878 19.0532 15.0429C18.7982 15.2979 18.6549 15.6438 18.6549 16.0045V27.9086C18.6549 28.2693 18.7982 28.6152 19.0532 28.8703C19.3083 29.1253 19.6542 29.2686 20.0149 29.2686Z" fill="#FF0000"/>
</svg>
