<svg width="14" height="18" viewBox="0 0 14 18" fill="none" xmlns="http://www.w3.org/2000/svg">
<path d="M7 17.8182L1.63164 11.487C1.55705 11.3919 1.48323 11.2963 1.41019 11.2C0.493176 9.99203 -0.0022153 8.51659 7.44728e-06 6.99999C7.44728e-06 5.14348 0.737505 3.363 2.05026 2.05025C3.36301 0.737497 5.14349 0 7 0C8.85651 0 10.637 0.737497 11.9497 2.05025C13.2625 3.363 14 5.14348 14 6.99999C14.0022 8.5159 13.507 9.99067 12.5904 11.1981L12.5898 11.2C12.5898 11.2 12.3989 11.4507 12.3703 11.4844L7 17.8182ZM2.42582 10.4332C2.4271 10.4332 2.57473 10.6292 2.60846 10.6712L7 15.8505L11.3973 10.6642C11.4253 10.6292 11.5742 10.4319 11.5748 10.4313C12.3239 9.44433 12.7287 8.23901 12.7273 6.99999C12.7273 5.48103 12.1239 4.02427 11.0498 2.9502C9.97572 1.87613 8.51897 1.27273 7 1.27273C5.48103 1.27273 4.02428 1.87613 2.95021 2.9502C1.87614 4.02427 1.27273 5.48103 1.27273 6.99999C1.2714 8.23978 1.67605 9.4458 2.42582 10.4332Z" fill="#1E866F"/>
<path d="M10.182 10.18H8.90926V5.08913H5.09109V10.18H3.81836V5.08913C3.8187 4.75169 3.9529 4.42816 4.1915 4.18955C4.43011 3.95094 4.75364 3.81674 5.09109 3.81641H8.90926C9.24671 3.81674 9.57024 3.95094 9.80884 4.18955C10.0475 4.42816 10.1817 4.75169 10.182 5.08913V10.18Z" fill="#1E866F"/>
<path d="M6.36377 8.90873H7.6365V10.1815H6.36377V8.90873ZM6.36377 6.36328H7.6365V7.63601H6.36377V6.36328Z" fill="#1E866F"/>
</svg>
