<svg width="18" height="18" viewBox="0 0 18 18" fill="none" xmlns="http://www.w3.org/2000/svg">
<g clip-path="url(#clip0_10190_4195)">
<path d="M4.77949 6.99379C3.95965 6.99379 3.29273 7.66141 3.29273 8.4816C3.29273 9.3018 3.95965 9.96941 4.77949 9.96941C5.60004 9.96941 6.2673 9.3018 6.2673 8.4816C6.2673 7.66141 5.60004 6.99379 4.77949 6.99379ZM4.77949 9.40726C4.26973 9.40726 3.85453 8.99207 3.85453 8.4816C3.85453 7.97113 4.26937 7.55594 4.77949 7.55594C5.28996 7.55594 5.70516 7.97113 5.70516 8.4816C5.70516 8.99207 5.28996 9.40726 4.77949 9.40726ZM17.2209 2.18652C17.2206 2.18617 17.2206 2.18652 17.2209 2.18652C16.708 1.61383 15.955 1.28582 15.1548 1.28547H15.1545C14.5114 1.28547 13.8987 1.49816 13.4163 1.87926C11.9914 0.912461 10.3307 0.402344 8.59852 0.402344C6.30211 0.402344 4.14281 1.29672 2.51859 2.92094C0.894375 4.54516 0 6.70445 0 9.00086C0 11.2973 0.894375 13.4566 2.51859 15.0808C4.14281 16.705 6.30176 17.5994 8.59852 17.5994C10.8953 17.5994 13.0542 16.705 14.6784 15.0808C16.3027 13.4566 17.1967 11.2973 17.1967 9.00086C17.1967 8.28051 17.1067 7.56332 16.9288 6.86723C17.1633 6.54871 17.3781 6.23828 17.5525 5.94719C18.2566 4.77086 18.1171 3.18918 17.2209 2.18652ZM8.59852 0.964844C9.06328 0.964844 9.52207 1.00422 9.97207 1.08156C8.86219 2.49098 7.93652 3.44687 5.96496 4.29941C5.08992 4.67699 4.43742 5.15582 3.91852 5.80059C3.45445 5.94684 3.03715 6.21016 2.71477 6.57051C2.45426 6.86125 2.25809 7.20121 2.12766 7.56543C1.66781 7.6041 1.20199 7.56437 0.714375 7.44344C1.44141 3.7552 4.70004 0.964844 8.59852 0.964844ZM6.69621 10.0422C6.33867 10.6377 5.78672 11.3402 5.25305 12.019C5.14055 12.1625 5.02945 12.3034 4.92258 12.4409C4.88496 12.4894 4.84102 12.5109 4.77949 12.5109C4.71973 12.5109 4.67473 12.4887 4.63746 12.4409C4.52918 12.302 4.41703 12.1589 4.30277 12.0138C3.77016 11.3366 3.21961 10.6363 2.86418 10.0425C2.79823 9.93185 2.74076 9.81632 2.69227 9.69695C2.6891 9.68781 2.68523 9.67902 2.68102 9.67023C2.46059 9.11195 2.43703 8.48758 2.5998 7.92156C2.60297 7.91242 2.60578 7.90328 2.60824 7.89379C2.71301 7.54434 2.88844 7.21809 3.13313 6.94457C3.53918 6.4907 4.13895 6.2302 4.77879 6.2302H4.77914C5.41969 6.2302 6.02016 6.4907 6.42656 6.94457C7.16379 7.76863 7.27699 9.07117 6.69621 10.0422ZM0.624375 7.99926C1.02059 8.09418 1.4059 8.14199 1.78664 8.14199C1.85098 8.14199 1.91496 8.14023 1.97895 8.13742C1.89141 8.67074 1.93359 9.22832 2.11078 9.74547C1.71141 10.2869 1.34086 10.893 0.987539 11.5824C0.711914 10.7717 0.562148 9.90332 0.562148 9.00051C0.562148 8.6616 0.583594 8.32762 0.624375 7.99926ZM1.26598 12.2883C1.61895 11.5469 1.98703 10.9021 2.38254 10.3319C2.7566 10.9559 3.31805 11.6703 3.86121 12.3607C3.97477 12.5052 4.08656 12.6473 4.19414 12.7854C4.33793 12.9704 4.54605 13.0723 4.77984 13.0723C5.01434 13.0723 5.22246 12.9704 5.36625 12.7854C5.47242 12.6487 5.58281 12.5084 5.69496 12.366C5.93016 12.0668 6.16852 11.7634 6.39387 11.4646C6.96762 11.5908 7.59727 11.8373 7.69113 12.3164C7.81594 12.9549 7.00453 13.9579 5.67105 14.8136C5.15953 15.0871 4.83258 15.5445 4.60195 15.9706C3.1384 15.1286 1.96348 13.8384 1.26598 12.2883ZM5.09941 16.2346C5.355 15.7674 5.62113 15.4756 5.94387 15.3058C5.9509 15.3019 5.95758 15.298 5.96426 15.2938C6.67969 14.8357 7.27137 14.3281 7.67461 13.8261C8.13973 13.2467 8.3359 12.6877 8.24238 12.2096C8.12848 11.6267 7.62785 11.2125 6.75316 10.9752C6.90996 10.7537 7.05445 10.5375 7.1782 10.3315C7.88238 9.15449 7.74246 7.57281 6.84562 6.57086C6.34008 6.0059 5.60074 5.6793 4.81324 5.67016C5.19082 5.33055 5.63977 5.05211 6.18785 4.81586C8.37387 3.87086 9.37512 2.7673 10.5841 1.21199C11.4416 1.42961 12.2583 1.78926 13.0075 2.28215C12.3064 3.1382 12.1233 4.36727 12.5058 5.41773C11.3502 5.7025 9.97664 6.13211 9.98859 7.30316C9.99387 7.84773 9.68941 7.94758 9.36738 8.0534C9.27316 8.08434 9.18457 8.11352 9.10688 8.1557C8.51449 8.47879 8.3366 9.01844 8.61926 9.63648C8.84426 10.1287 9.38531 10.6915 10.0666 11.1419C10.3996 11.362 11.2257 11.8545 11.7084 11.6734C11.9739 11.5743 12.188 11.2568 12.4147 10.9207C12.5107 10.7784 12.6591 10.5586 12.76 10.4577C12.8043 10.5548 12.8767 10.7801 12.9389 11.2881C13.089 12.507 13.3738 13.722 13.8308 15.0962C12.4239 16.3056 10.5954 17.0379 8.59887 17.0379C7.34484 17.0369 6.15797 16.7486 5.09941 16.2346ZM16.6345 9.00086C16.6345 11.2136 15.7356 13.22 14.284 14.6747C13.8853 13.4358 13.6329 12.3277 13.4961 11.2189C13.3857 10.321 13.2166 9.94094 12.8921 9.86289C12.5111 9.77184 12.2375 10.1768 11.9482 10.6061C11.8216 10.7938 11.6096 11.1081 11.5112 11.1464C11.4135 11.1802 10.9747 11.0723 10.3584 10.6609C9.76957 10.2679 9.29602 9.77992 9.12305 9.38688C8.97363 9.04762 9.04922 8.82684 9.37512 8.64895C9.40781 8.63102 9.47637 8.60852 9.54246 8.58672C9.87258 8.47809 10.5595 8.25238 10.5504 7.29684C10.5427 6.56629 11.5235 6.23723 12.7505 5.93629C12.7526 5.93981 12.7547 5.94367 12.7568 5.94719C13.1323 6.57508 13.6965 7.29297 14.2425 7.9873C14.3536 8.12863 14.4629 8.2675 14.568 8.40285C14.7118 8.58777 14.9203 8.68973 15.1545 8.68973C15.3896 8.68973 15.5981 8.58742 15.7398 8.4032C15.8425 8.27137 15.9493 8.13566 16.0576 7.9982C16.2 7.8175 16.3434 7.63504 16.4844 7.45293C16.5839 7.96199 16.6345 8.48055 16.6345 9.00086ZM17.0701 5.65855C16.7108 6.25902 16.1543 6.96637 15.6161 7.65051C15.5071 7.78867 15.4002 7.92508 15.2958 8.05902C15.2596 8.10578 15.2149 8.12758 15.1548 8.12758C15.0936 8.12758 15.0493 8.10613 15.0117 8.05762C14.9059 7.92156 14.7959 7.78164 14.6844 7.63996C14.1497 6.95934 13.5967 6.25586 13.2391 5.6582C12.6577 4.68719 12.7705 3.38465 13.5074 2.56094C13.9141 2.10742 14.5143 1.84727 15.1545 1.84727H15.1548C15.7954 1.84727 16.3958 2.10742 16.8022 2.56094C17.5384 3.38535 17.6512 4.68789 17.0701 5.65855ZM15.1548 2.61086C14.3343 2.61086 13.667 3.27848 13.667 4.09867C13.667 4.91852 14.3343 5.58543 15.1548 5.58543C15.9746 5.58543 16.6416 4.91852 16.6416 4.09867C16.6416 3.27848 15.9746 2.61086 15.1548 2.61086ZM15.1548 5.02363C14.6443 5.02363 14.2291 4.60879 14.2291 4.09867C14.2291 3.5882 14.6443 3.17301 15.1548 3.17301C15.6646 3.17301 16.0798 3.5882 16.0798 4.09867C16.0794 4.60879 15.6646 5.02363 15.1548 5.02363Z" fill="#1E866F"/>
</g>
<defs>
<clipPath id="clip0_10190_4195">
<rect width="18" height="18" fill="white"/>
</clipPath>
</defs>
</svg>
