<svg width="19" height="21" viewBox="0 0 19 21" fill="none" xmlns="http://www.w3.org/2000/svg">
<path d="M1.26259 21.0544H1.31259V21.0044V20.9323L7.37319 16.5704L7.39399 16.5555V16.5298V5.46995V5.44432L7.37318 5.42936L1.8328 1.44526H17.1672L11.6268 5.42936L11.606 5.44432V5.46995V16.5298V16.5555L11.6268 16.5704L17.6874 20.9279V21V21.05H17.7374H19H19.05V21V0V-0.05H19H0H-0.05V0V21.0044V21.0544H0H1.26259ZM0.869395 0.945345H0.819395V0.995345V20.5545H0.438825V0.445472H18.5612V20.5501H18.1806V0.995345V0.945345H18.1306H0.869395ZM13.6375 11.642V12.5943L13.1608 12.4657V10.9951L13.6375 10.8556V11.2643V11.3238L13.4557 11.3573L13.4147 11.3648V11.4065V11.4642V11.5096L13.4599 11.514L14.6919 11.634L14.7467 11.6393V11.5842V11.1799V11.1198L14.6877 11.1307L14.1132 11.2363V11.1976V10.2556V10.1863L14.0475 10.2082L12.7237 10.6481L12.6895 10.6594V10.6955V12.6951V12.731L12.7236 12.7425L14.0473 13.1868L14.1132 13.209V13.1394V11.6953V11.6519L14.0703 11.6458L13.6945 11.5925L13.6375 11.5844V11.642ZM5.41491 12.5943V11.642V11.5844L5.35789 11.5925L4.98217 11.6458L4.93919 11.6519V11.6953V13.1394V13.209L5.0051 13.1868L6.32886 12.7425L6.36295 12.731V12.6951V10.6955V10.6594L6.32871 10.6481L5.00496 10.2082L4.93919 10.1863V10.2556V11.1976V11.2363L4.36476 11.1307L4.30571 11.1198V11.1799V11.5842V11.6393L4.36056 11.634L5.59257 11.514L5.63772 11.5096V11.4642V11.4065V11.3648L5.59677 11.3573L5.41491 11.3238V11.2643V10.8556L5.8916 10.9951V12.4657L5.41491 12.5943ZM17.6918 20.3248L12.0992 16.2998V5.69999L17.6918 1.67941V20.3248ZM1.31259 20.3203V1.67503L6.90516 5.69997V16.2954L1.31259 20.3203Z" fill="white" stroke="white" stroke-width="0.1"/>
</svg>
