<svg width="16" height="18" viewBox="0 0 16 18" fill="none" xmlns="http://www.w3.org/2000/svg">
<path d="M14.1078 12.6878C14.3685 12.3891 14.5133 12.0036 14.5133 11.6053C14.5133 10.6931 13.7699 9.95117 12.856 9.95117C12.3765 9.95117 11.9196 10.16 11.6042 10.5229C11.3435 10.8248 11.1987 11.2071 11.1987 11.6053C11.1987 12.5175 11.9421 13.2595 12.856 13.2595C13.3355 13.2595 13.7925 13.0507 14.1078 12.6878ZM11.6814 11.6085C11.6814 11.3259 11.7844 11.0561 11.9678 10.8441C12.1899 10.5871 12.5149 10.4394 12.856 10.4394C13.5028 10.4394 14.0274 10.9662 14.0274 11.6085C14.0274 11.8912 13.9244 12.161 13.741 12.373C13.5189 12.63 13.1939 12.7777 12.8528 12.7777C12.2092 12.7777 11.6814 12.2509 11.6814 11.6085Z" fill="#1E866F"/>
<path d="M15.0858 9.39873C14.5098 8.81736 13.7439 8.48653 12.9298 8.46726C12.0738 8.44799 11.2661 8.76276 10.6546 9.36018C10.0432 9.95761 9.70531 10.7542 9.70531 11.6086C9.70531 12.0165 9.78255 12.4148 9.93701 12.7906C9.9885 12.9126 10.1301 12.9704 10.2524 12.919C10.3714 12.8677 10.4294 12.7295 10.3843 12.6107C10.2556 12.2927 10.188 11.9555 10.188 11.6086C10.188 10.8859 10.4744 10.2114 10.9893 9.70708C11.5074 9.2028 12.1896 8.93299 12.9137 8.95226C13.5991 8.96832 14.2492 9.24777 14.7383 9.7392C15.2274 10.2306 15.5042 10.8794 15.5138 11.5668C15.5235 12.1578 15.3433 12.7199 14.9893 13.1953L13.6764 15.0036C13.4414 15.328 13.2741 15.6974 13.1904 16.086L13.0907 16.5389C13.0649 16.6514 12.9652 16.7317 12.8493 16.7317C12.7335 16.7317 12.6337 16.6514 12.608 16.5389L12.5082 16.086C12.4245 15.6942 12.2604 15.3248 12.0223 15.0036L10.896 13.4394C10.8187 13.3334 10.6675 13.3077 10.5581 13.388C10.4519 13.4651 10.4261 13.616 10.5034 13.722L11.6393 15.2831C11.8356 15.5529 11.974 15.8612 12.0448 16.1856L12.1446 16.6385C12.2154 16.9726 12.5179 17.2134 12.859 17.2134C13.2001 17.2134 13.4994 16.9726 13.5734 16.6385L13.6731 16.1856C13.7439 15.8612 13.8823 15.5529 14.0754 15.2831L15.3883 13.4779C15.8035 12.919 16.0191 12.2542 16.0094 11.554C15.9869 10.7445 15.6619 9.98009 15.0858 9.39873ZM2.56774 4.71889C2.96678 4.71889 3.3465 4.54544 3.60716 4.24352C3.82277 3.99298 3.94184 3.675 3.94184 3.34738C3.94184 3.14824 3.9 2.95231 3.81633 2.77244C3.76163 2.65038 3.61682 2.59899 3.49453 2.65359C3.37225 2.7082 3.32076 2.85274 3.37547 2.97479C3.43017 3.09042 3.45913 3.2189 3.45592 3.34738C3.45592 3.56258 3.37868 3.76815 3.23709 3.92875C3.06654 4.12468 2.82197 4.23709 2.56452 4.23709C2.07217 4.23709 1.67313 3.83881 1.67313 3.34738C1.67313 3.13218 1.75037 2.92661 1.89196 2.76601C2.06251 2.57008 2.30708 2.45766 2.56452 2.45766C2.60958 2.45766 2.65463 2.46088 2.69968 2.4673C2.83162 2.48657 2.95391 2.39664 2.97643 2.26495C2.99574 2.13325 2.90563 2.0112 2.7737 1.98872C2.7029 1.97908 2.63532 1.97266 2.56452 1.97266C2.16549 1.97266 1.78576 2.1461 1.5251 2.44803C1.3095 2.69856 1.19043 3.01655 1.19043 3.34417C1.19365 4.10219 1.81151 4.71889 2.56774 4.71889Z" fill="#1E866F"/>
<path d="M1.55752 6.31813C1.71199 6.5269 1.81818 6.7678 1.87289 7.02155L1.95012 7.3845C2.01126 7.67358 2.27192 7.88236 2.56798 7.88236C2.86404 7.88236 3.1247 7.67358 3.18584 7.3845L3.26307 7.02155C3.31778 6.7678 3.42397 6.5269 3.57844 6.31813L4.62751 4.87274C4.96862 4.41664 5.1424 3.87382 5.13274 3.3053C5.12309 2.64363 4.85599 2.0173 4.38616 1.54514C3.91633 1.06977 3.29203 0.799965 2.62912 0.783905C1.93081 0.767845 1.27112 1.02801 0.772325 1.51302C0.273532 2.00124 0 2.65006 0 3.34706C0 3.90273 0.173773 4.42949 0.505229 4.87274L1.55752 6.31813ZM1.11022 1.8567C1.50282 1.47448 2.02092 1.2657 2.56798 1.2657C2.58407 1.2657 2.60338 1.2657 2.61947 1.2657C3.15688 1.27855 3.66533 1.49696 4.04827 1.8824C4.43121 2.26783 4.64682 2.77533 4.65648 3.31172C4.66291 3.77425 4.52132 4.21429 4.24457 4.58688L3.19228 6.03547C2.9992 6.29885 2.86404 6.60078 2.79646 6.92198L2.71923 7.28493C2.70314 7.35238 2.64199 7.40377 2.57442 7.40377C2.50684 7.40377 2.44248 7.35559 2.42961 7.28493L2.35237 6.92198C2.28479 6.60399 2.14964 6.30207 1.95656 6.03547L0.904264 4.58688C0.624296 4.22714 0.482703 3.79673 0.482703 3.34706C0.482703 2.78175 0.704746 2.25177 1.11022 1.8567ZM13.6444 3.53014C13.5543 3.62971 13.564 3.78067 13.6637 3.87061C13.7603 3.95733 13.9115 3.95091 14.0016 3.85455L14.0048 3.85133C14.0113 3.84491 14.0177 3.83849 14.0209 3.83206C14.2043 3.62007 14.3041 3.35027 14.3041 3.07083C14.3041 2.43164 13.7828 1.90809 13.1392 1.90809C12.8045 1.90809 12.4859 2.05263 12.2639 2.30317C12.1738 2.40274 12.1834 2.5537 12.2832 2.64363C12.3829 2.73357 12.5342 2.72393 12.6243 2.62436L12.6275 2.62115C12.7562 2.4734 12.9429 2.38989 13.1392 2.38989C13.5157 2.38989 13.8182 2.69503 13.8182 3.06761C13.8182 3.23142 13.7603 3.38881 13.6508 3.51087L13.6444 3.53014Z" fill="#1E866F"/>
<path d="M11.1473 2.26126C11.2567 2.33835 11.408 2.31265 11.4852 2.20666C11.8392 1.71523 12.4088 1.43257 13.0106 1.44542C13.4804 1.45506 13.9245 1.64778 14.2592 1.98503C14.5938 2.32229 14.7837 2.76554 14.7901 3.23449C14.7966 3.6392 14.6711 4.02463 14.4297 4.35225L14.1787 4.69594C14.1015 4.80514 14.1272 4.9561 14.2366 5.03319C14.3428 5.11028 14.4909 5.08458 14.5713 4.97859L14.8191 4.63812C15.1248 4.22699 15.2825 3.74198 15.2728 3.22807C15.2632 2.63385 15.025 2.07176 14.6003 1.64456C14.1787 1.22059 13.6156 0.976475 13.0202 0.963628C12.2575 0.944356 11.5335 1.3041 11.0894 1.92401C11.0669 1.95291 11.0057 2.10388 11.1055 2.22593C11.1184 2.23878 11.1312 2.24842 11.1473 2.26126ZM10.7515 15.3982C10.7515 15.3276 10.7226 15.2633 10.6711 15.2183C10.5713 15.1284 10.4201 15.138 10.33 15.2376C10.1755 15.4079 10.0178 15.5652 9.85369 15.7066C9.51258 15.8254 9.16503 15.9153 8.80783 15.9764C9.07814 15.3982 9.30662 14.6016 9.48361 13.6381C9.50614 13.5064 9.41925 13.3811 9.29053 13.3586C9.16181 13.3361 9.03309 13.4229 9.01056 13.5513C8.81105 14.637 8.5343 15.5171 8.22537 16.0502C8.02263 16.0663 7.8199 16.0759 7.61394 16.0759C7.40799 16.0759 7.20525 16.0663 7.00252 16.047C6.64532 15.4335 6.35248 14.4057 6.15296 13.1466C6.63888 13.1852 7.1248 13.2044 7.61394 13.2044C8.0709 13.2044 8.5343 13.1884 8.98482 13.153C9.11676 13.1434 9.21652 13.0278 9.20686 12.8961C9.19721 12.7644 9.08136 12.6648 8.94942 12.6745C8.50533 12.7066 8.05803 12.7259 7.61394 12.7259C7.09584 12.7259 6.58096 12.7034 6.08216 12.6584C5.95023 11.6852 5.87621 10.5963 5.86656 9.47213H9.78289C9.91483 9.47213 10.0242 9.36293 10.0242 9.23124C10.0242 9.11882 9.94701 9.02567 9.84403 8.99997C9.83438 7.88542 9.76358 6.81905 9.6413 5.85546C10.449 5.9486 11.2149 6.09957 11.9132 6.29871C12.0612 6.83189 12.1707 7.39399 12.235 7.96572C12.2511 8.09741 12.3702 8.19056 12.5053 8.1745C12.6373 8.15844 12.7306 8.04281 12.7177 7.91112C12.663 7.4229 12.5793 6.9411 12.4603 6.46573C13.1168 6.68736 13.6992 6.95716 14.1884 7.26551C14.3106 7.67343 14.3943 8.09099 14.4394 8.51497C14.4522 8.64666 14.5713 8.74302 14.7032 8.73017C14.8352 8.71732 14.9317 8.59848 14.9189 8.46679C14.7322 6.67451 13.8891 5.01713 12.5472 3.80301C11.1956 2.57925 9.445 1.90473 7.61716 1.90473C6.87058 1.90473 6.13687 2.01715 5.43212 2.23557C5.3034 2.27411 5.23261 2.40901 5.27444 2.53749C5.31628 2.66597 5.44822 2.73663 5.57694 2.69488C5.8569 2.60816 6.14009 2.5407 6.42649 2.48931C6.10469 3.17667 5.84081 4.16917 5.6606 5.36081C5.38707 5.38972 5.11354 5.42826 4.84645 5.47002C4.71451 5.4925 4.62762 5.61777 4.65015 5.74946C4.67267 5.87794 4.79496 5.96788 4.92368 5.9486C5.14572 5.91327 5.37098 5.88115 5.59303 5.85546C5.55441 6.16702 5.51901 6.47858 5.49327 6.79014C5.48039 6.92183 5.58015 7.04067 5.71209 7.05031C5.71853 7.05031 5.72496 7.05031 5.73462 7.05031C5.86012 7.05031 5.9631 6.95395 5.97597 6.82868C6.00493 6.485 6.04355 6.14453 6.0886 5.80406C7.10871 5.71413 8.13526 5.71413 9.15537 5.80406C9.28731 6.77729 9.36133 7.86615 9.37098 8.99034H5.86978C5.87299 8.6049 5.88265 8.22268 5.90196 7.84688C5.90839 7.71519 5.80542 7.59956 5.67348 7.59313C5.53832 7.58671 5.42569 7.68949 5.41925 7.82118C5.39994 8.20983 5.39029 8.59848 5.38707 8.98713H2.9285C2.9285 8.91646 2.93172 8.8458 2.93494 8.77192C2.94138 8.64023 2.83518 8.52781 2.70324 8.52139C2.5713 8.51497 2.45867 8.62096 2.45224 8.75265C2.44902 8.82974 2.4458 8.91004 2.4458 8.98713H0.762777C0.785303 8.34794 0.894715 7.72161 1.09101 7.11455C1.12963 6.98607 1.05883 6.85117 0.933332 6.81262C0.807829 6.77408 0.672672 6.84153 0.630838 6.9668C0.395922 7.70234 0.276855 8.46036 0.276855 9.23445C0.276855 11.1905 1.03953 13.031 2.42649 14.4154C3.81346 15.7997 5.65739 16.5609 7.61716 16.5609C8.72416 16.5609 9.78932 16.3201 10.7805 15.8479C10.8995 15.7901 10.951 15.6455 10.8931 15.5267C10.8674 15.4657 10.8159 15.4175 10.7515 15.3982ZM9.57694 5.36403C9.39673 4.18523 9.13607 3.18952 8.81105 2.49252C9.16503 2.55355 9.51579 2.6467 9.8569 2.76233C10.4587 3.27946 10.9929 4.01179 11.3983 4.88223C11.5271 5.15846 11.6461 5.45075 11.7491 5.75267C11.0701 5.57923 10.3396 5.44754 9.57694 5.36403ZM13.9341 6.56851C13.4514 6.31798 12.9044 6.09635 12.3058 5.91327C12.1739 5.47966 12.0162 5.06852 11.836 4.67988C11.5946 4.16275 11.3082 3.68738 10.9896 3.27303C11.4337 3.52357 11.8456 3.82228 12.2221 4.16275C12.9687 4.83726 13.5512 5.65953 13.9341 6.56851ZM7.61716 5.25803C7.1248 5.25803 6.63566 5.2773 6.15618 5.31585C6.35891 4.05033 6.65819 3.01929 7.00896 2.41544C7.21169 2.39617 7.41443 2.38974 7.61716 2.38974C7.82311 2.38974 8.02585 2.39938 8.22858 2.41544C8.58578 3.02892 8.87862 4.05675 9.07814 5.31585C8.59222 5.2773 8.10308 5.25803 7.61716 5.25803ZM6.42328 15.9732C6.06607 15.9121 5.71853 15.819 5.37742 15.7034C4.56004 14.9999 3.91 13.9528 3.48522 12.713C4.16422 12.8897 4.89793 13.0214 5.6606 13.1049C5.83759 14.2837 6.10147 15.2794 6.42328 15.9732ZM5.58981 12.6102C4.78208 12.5171 4.0162 12.3661 3.31467 12.167C3.08297 11.3287 2.94781 10.4165 2.9285 9.47534H5.38385C5.39351 10.5835 5.46752 11.6498 5.58981 12.6102ZM0.762777 9.47534H2.4458C2.46189 10.3522 2.57774 11.2034 2.77404 12C2.11756 11.7783 1.5351 11.5085 1.04918 11.2002C0.878625 10.6381 0.785303 10.0599 0.762777 9.47534ZM1.30019 11.8972C1.78289 12.1477 2.32995 12.3661 2.9285 12.5524C3.23743 13.5578 3.68152 14.4571 4.24146 15.1862C2.93172 14.4475 1.8923 13.2912 1.30019 11.8972Z" fill="#1E866F"/>
</svg>
