<svg width="16" height="16" viewBox="0 0 16 16" fill="none" xmlns="http://www.w3.org/2000/svg">
<g clip-path="url(#clip0_9379_3226)">
<path d="M11.6363 8.4021H7.92691V7.87295H11.6363C12.926 7.87295 13.9751 6.8237 13.9751 5.53401C13.9751 4.90863 13.732 4.32107 13.2906 3.87965C12.8492 3.43833 12.2617 3.19522 11.6363 3.19522H9.84509V2.66602H11.6363C12.403 2.66602 13.1235 2.96419 13.6648 3.50547C14.2061 4.04675 14.5042 4.76726 14.5042 5.53396C14.5042 7.11552 13.2176 8.4021 11.6363 8.4021ZM6.07489 13.0771H12.6999V13.6063H6.07489V13.0771ZM4.17786 13.6063H3.41594C1.83444 13.6063 0.547852 12.3197 0.547852 10.7382C0.547852 9.97444 0.845875 9.25423 1.38691 8.71018C1.92691 8.17003 2.64737 7.8729 3.41594 7.8729H6.02993V8.40205H3.41594C2.78874 8.40205 2.20118 8.64413 1.76158 9.08377C1.32027 9.52755 1.07701 10.1152 1.07701 10.7381C1.07701 12.0278 2.12625 13.0771 3.41594 13.0771H4.17791L4.17786 13.6063ZM2.17239 2.66602H7.94811V3.19517H2.17239V2.66602Z" fill="#1E866F"/>
<path d="M1.22364 4.01759C0.548923 4.01759 0 3.46867 0 2.79395C0 2.11924 0.548923 1.57031 1.22364 1.57031C1.89836 1.57031 2.44728 2.11924 2.44728 2.79395C2.44728 3.46867 1.89841 4.01759 1.22364 4.01759ZM1.22364 2.09942C0.840735 2.09942 0.529107 2.411 0.529107 2.79395C0.529107 3.17691 0.840686 3.48849 1.22364 3.48849C1.6066 3.48849 1.91817 3.17691 1.91817 2.79395C1.91817 2.411 1.6066 2.09942 1.22364 2.09942ZM8.89511 4.01631C8.29117 4.01631 7.77128 3.56607 7.68606 2.96899C7.67674 2.91783 7.67275 2.85774 7.67275 2.79395C7.67275 2.11997 8.22113 1.57159 8.89511 1.57159C9.57051 1.57159 10.1201 2.11997 10.1201 2.79395C10.1201 2.85779 10.1161 2.91783 10.1053 2.97791C10.0215 3.56607 9.50057 4.01631 8.89511 4.01631ZM8.89511 2.1007C8.51284 2.1007 8.2019 2.41164 8.2019 2.7939C8.2019 2.8254 8.20308 2.85527 8.20836 2.8851C8.2581 3.23212 8.55277 3.48711 8.89511 3.48711C9.23902 3.48711 9.53473 3.23207 9.58303 2.89402C9.58974 2.85527 9.59092 2.8254 9.59092 2.7939C9.59087 2.41169 9.27875 2.1007 8.89511 2.1007ZM6.97688 9.22309C6.3728 9.22309 5.85306 8.77286 5.76783 8.17592C5.75852 8.12451 5.75452 8.06442 5.75452 8.00088C5.75452 7.32538 6.3029 6.77581 6.97688 6.77581C7.65229 6.77581 8.20185 7.32538 8.20185 8.00088C8.20185 8.06442 8.19786 8.12451 8.18711 8.1847C8.10327 8.77286 7.58239 9.22309 6.97688 9.22309ZM6.97688 7.30492C6.59462 7.30492 6.28368 7.61719 6.28368 8.00083C6.28368 8.03233 6.28486 8.0622 6.29014 8.09217C6.33987 8.43905 6.63454 8.69394 6.97688 8.69394C7.3208 8.69394 7.6165 8.43905 7.66481 8.10095C7.67151 8.0622 7.6727 8.03233 7.6727 8.00083C7.6727 7.61714 7.36058 7.30492 6.97688 7.30492ZM5.12747 14.4301C4.51821 14.4301 3.99719 13.978 3.91556 13.3783C3.90639 13.3287 3.9025 13.2682 3.9025 13.2078C3.9025 12.5324 4.45206 11.9827 5.12747 11.9827C5.80145 11.9827 6.34983 12.5324 6.34983 13.2078C6.34983 13.2682 6.34594 13.3287 6.33509 13.3892C6.25514 13.978 5.73515 14.4301 5.12747 14.4301ZM5.12747 12.5117C4.74378 12.5117 4.43166 12.8241 4.43166 13.2078C4.43166 13.2372 4.43294 13.2667 4.43811 13.2961C4.48593 13.6457 4.78163 13.901 5.12747 13.901C5.47188 13.901 5.76645 13.6457 5.81254 13.307C5.81939 13.2667 5.82067 13.2372 5.82067 13.2078C5.82067 12.8241 5.50974 12.5117 5.12747 12.5117ZM13.2809 14.1656C12.8145 14.1656 12.4351 13.786 12.4351 13.3197C12.4351 12.8533 12.8145 12.4737 13.2809 12.4737C13.7474 12.4737 14.1268 12.8533 14.1268 13.3197C14.1268 13.786 13.7474 14.1656 13.2809 14.1656ZM13.2809 13.0029C13.1063 13.0029 12.9642 13.145 12.9642 13.3196C12.9642 13.4943 13.1063 13.6364 13.2809 13.6364C13.4555 13.6364 13.5976 13.4943 13.5976 13.3196C13.5976 13.145 13.4555 13.0029 13.2809 13.0029ZM13.2809 9.57953C13.2107 9.57953 13.1434 9.55166 13.0938 9.50204C13.0442 9.45243 13.0163 9.38514 13.0163 9.31498V8.99186C13.0163 8.9217 13.0442 8.85441 13.0938 8.8048C13.1434 8.75518 13.2107 8.72731 13.2809 8.72731C13.351 8.72731 13.4183 8.75518 13.4679 8.8048C13.5175 8.85441 13.5454 8.9217 13.5454 8.99186V9.31498C13.5454 9.38514 13.5175 9.45243 13.4679 9.50204C13.4183 9.55166 13.351 9.57953 13.2809 9.57953Z" fill="#1E866F"/>
<path d="M13.2812 13.0036C13.2464 13.0036 13.212 12.9968 13.1799 12.9835C13.1478 12.9702 13.1186 12.9507 13.0941 12.9261C13.0695 12.9016 13.05 12.8724 13.0367 12.8403C13.0234 12.8082 13.0166 12.7738 13.0166 12.739V10.995C13.0166 10.9249 13.0445 10.8576 13.0941 10.808C13.1437 10.7583 13.211 10.7305 13.2812 10.7305C13.3513 10.7305 13.4186 10.7583 13.4682 10.808C13.5178 10.8576 13.5457 10.9249 13.5457 10.995V12.739C13.5457 12.7738 13.5389 12.8082 13.5256 12.8403C13.5123 12.8724 13.4928 12.9016 13.4683 12.9261C13.4437 12.9507 13.4145 12.9702 13.3824 12.9835C13.3503 12.9968 13.3159 13.0036 13.2812 13.0036Z" fill="#1E866F"/>
<path d="M15.7357 11.2592H13.2812C13.2464 11.2592 13.212 11.2523 13.1799 11.2391C13.1478 11.2258 13.1187 11.2063 13.0941 11.1817C13.0695 11.1571 13.05 11.128 13.0367 11.0959C13.0234 11.0638 13.0166 11.0294 13.0166 10.9946V9.31533C13.0166 9.28059 13.0234 9.24619 13.0367 9.21409C13.05 9.182 13.0695 9.15283 13.0941 9.12827C13.1187 9.1037 13.1478 9.08421 13.1799 9.07092C13.212 9.05762 13.2464 9.05078 13.2812 9.05078H15.7357C15.8343 9.05078 15.9246 9.10555 15.9702 9.19289C15.9926 9.2357 16.0028 9.28383 15.9998 9.33205C15.9967 9.38026 15.9805 9.42672 15.9529 9.46637L15.4741 10.1548L15.953 10.8436C15.9806 10.8833 15.9968 10.9298 15.9998 10.978C16.0028 11.0262 15.9926 11.0744 15.9702 11.1172C15.9478 11.16 15.9141 11.1959 15.8728 11.2209C15.8314 11.2459 15.784 11.2592 15.7357 11.2592ZM13.5458 10.73H15.2296L14.9345 10.3058C14.9037 10.2614 14.8872 10.2087 14.8873 10.1547C14.8873 10.1007 14.9038 10.048 14.9347 10.0037L15.2295 9.57984H13.5458V10.73H13.5458Z" fill="#1E866F"/>
</g>
<defs>
<clipPath id="clip0_9379_3226">
<rect width="16" height="16" fill="white"/>
</clipPath>
</defs>
</svg>
