<svg width="37" height="31" viewBox="0 0 37 31" fill="none" xmlns="http://www.w3.org/2000/svg">
<path d="M31.9062 22.8125H29.4688C27.4494 22.8125 25.8125 24.4494 25.8125 26.4688C25.8125 28.4881 27.4494 30.125 29.4688 30.125H31.9062C33.9256 30.125 35.5625 28.4881 35.5625 26.4688C35.5625 24.4494 33.9256 22.8125 31.9062 22.8125ZM8.75 22.8125H6.3125C4.29318 22.8125 2.65625 24.4494 2.65625 26.4688C2.65625 28.4881 4.29318 30.125 6.3125 30.125H8.75C10.7693 30.125 12.4062 28.4881 12.4062 26.4688C12.4062 24.4494 10.7693 22.8125 8.75 22.8125ZM22.1562 22.8125H19.7188C17.6994 22.8125 16.0625 24.4494 16.0625 26.4688C16.0625 28.4881 17.6994 30.125 19.7188 30.125H22.1562C24.1756 30.125 25.8125 28.4881 25.8125 26.4688C25.8125 24.4494 24.1756 22.8125 22.1562 22.8125ZM28.25 19.1562H6.3125L8.50625 16.2313C8.96034 15.6258 9.54916 15.1344 10.2261 14.7959C10.903 14.4575 11.6494 14.2813 12.4062 14.2813H22.5012C23.328 14.2812 24.1412 14.4915 24.8644 14.8924C25.5876 15.2932 26.1969 15.8714 26.6352 16.5725L28.25 19.1562Z" fill="#463C4B"/>
<path d="M19.7188 19.1562H6.3125L8.50625 16.2313C8.96034 15.6258 9.54916 15.1344 10.2261 14.7959C10.903 14.4575 11.6494 14.2813 12.4062 14.2813H13.9699C14.7967 14.2812 15.61 14.4915 16.3332 14.8924C17.0563 15.2932 17.6657 15.8714 18.1039 16.5725L19.7188 19.1562Z" fill="#555A6E"/>
<path d="M33.125 19.1562H2.65625C1.31006 19.1562 0.21875 20.2476 0.21875 21.5938V25.25C0.21875 25.9231 0.764369 26.4688 1.4375 26.4688H35.5625C36.2356 26.4688 36.7812 25.9231 36.7812 25.25V22.8125C36.7812 20.7932 35.1443 19.1562 33.125 19.1562Z" fill="#F06423"/>
<path d="M27.9453 22.2031H24.2891C23.7843 22.2031 23.375 21.7939 23.375 21.2891C23.375 21.2083 23.4071 21.1308 23.4642 21.0736C23.5214 21.0165 23.5989 20.9844 23.6797 20.9844H27.3359C27.8407 20.9844 28.25 21.3936 28.25 21.8984C28.25 21.9792 28.2179 22.0567 28.1608 22.1139C28.1036 22.171 28.0261 22.2031 27.9453 22.2031ZM36.2909 20.9844H34.6484C34.1436 20.9844 33.7344 21.3936 33.7344 21.8984C33.7344 21.9792 33.7665 22.0567 33.8236 22.1139C33.8808 22.171 33.9583 22.2031 34.0391 22.2031H36.7298C36.6577 21.7739 36.509 21.3611 36.2909 20.9844Z" fill="#D7E6F0"/>
<path d="M22.1562 19.1562H2.65625C1.31006 19.1562 0.21875 20.2476 0.21875 21.5938V25.25C0.21875 25.9231 0.764369 26.4688 1.4375 26.4688H24.5938C25.2669 26.4688 25.8125 25.9231 25.8125 25.25V22.8125C25.8125 20.7932 24.1756 19.1562 22.1562 19.1562Z" fill="#FAA019"/>
<path d="M35.5625 24.6406H27.0312C27.0312 23.631 27.8497 22.8125 28.8594 22.8125H33.7344C34.744 22.8125 35.5625 23.631 35.5625 24.6406Z" fill="#463C4B"/>
<path d="M6.3125 22.8125C4.29318 22.8125 2.65625 24.4494 2.65625 26.4688C2.65625 28.4881 4.29318 30.125 6.3125 30.125C8.33182 30.125 9.96875 28.4881 9.96875 26.4688C9.96875 24.4494 8.33182 22.8125 6.3125 22.8125Z" fill="#555A6E"/>
<path d="M6.3125 25.25C5.63937 25.25 5.09375 25.7956 5.09375 26.4688C5.09375 27.1419 5.63937 27.6875 6.3125 27.6875C6.98563 27.6875 7.53125 27.1419 7.53125 26.4688C7.53125 25.7956 6.98563 25.25 6.3125 25.25Z" fill="#D7E6F0"/>
<path d="M19.7188 22.8125C17.6994 22.8125 16.0625 24.4494 16.0625 26.4688C16.0625 28.4881 17.6994 30.125 19.7188 30.125C21.7381 30.125 23.375 28.4881 23.375 26.4688C23.375 24.4494 21.7381 22.8125 19.7188 22.8125Z" fill="#555A6E"/>
<path d="M19.7188 25.25C19.0456 25.25 18.5 25.7956 18.5 26.4688C18.5 27.1419 19.0456 27.6875 19.7188 27.6875C20.3919 27.6875 20.9375 27.1419 20.9375 26.4688C20.9375 25.7956 20.3919 25.25 19.7188 25.25Z" fill="#D7E6F0"/>
<path d="M14.2344 21.5938H13.0156C12.854 21.5938 12.699 21.5295 12.5847 21.4153C12.4705 21.301 12.4062 21.146 12.4062 20.9844C12.4062 20.8228 12.4705 20.6678 12.5847 20.5535C12.699 20.4392 12.854 20.375 13.0156 20.375H14.2344C14.396 20.375 14.551 20.4392 14.6653 20.5535C14.7795 20.6678 14.8438 20.8228 14.8438 20.9844C14.8438 21.146 14.7795 21.301 14.6653 21.4153C14.551 21.5295 14.396 21.5938 14.2344 21.5938ZM8.14062 21.5938H6.92188C6.76026 21.5938 6.60526 21.5295 6.49098 21.4153C6.3767 21.301 6.3125 21.146 6.3125 20.9844C6.3125 20.8228 6.3767 20.6678 6.49098 20.5535C6.60526 20.4392 6.76026 20.375 6.92188 20.375H8.14062C8.30224 20.375 8.45724 20.4392 8.57152 20.5535C8.6858 20.6678 8.75 20.8228 8.75 20.9844C8.75 21.146 8.6858 21.301 8.57152 21.4153C8.45724 21.5295 8.30224 21.5938 8.14062 21.5938Z" fill="#F06423"/>
<path d="M12.4062 5.75C12.4062 3.05763 10.2236 0.875 7.53125 0.875H5.09375C2.40138 0.875 0.21875 3.05763 0.21875 5.75C0.21875 6.71548 0.500586 7.61454 0.984734 8.37176H0.983059L4.57989 13.9996H4.5805C4.68882 14.1688 4.87795 14.2812 5.09375 14.2812H7.53125C7.63358 14.2813 7.73425 14.2555 7.82396 14.2062C7.91366 14.157 7.98949 14.0859 8.04442 13.9996H8.04503L11.6419 8.37176H11.6402C12.1414 7.58928 12.4073 6.67926 12.4062 5.75Z" fill="#E8900B"/>
<path d="M9.96875 5.75C9.96875 3.05763 7.78612 0.875 5.09375 0.875C2.40138 0.875 0.21875 3.05763 0.21875 5.75C0.21875 6.71548 0.500586 7.61454 0.984734 8.37176H0.983059L4.57989 13.9996H4.5805C4.63546 14.0859 4.7113 14.1569 4.801 14.2062C4.89071 14.2554 4.99138 14.2812 5.09371 14.2812C5.19604 14.2812 5.29671 14.2554 5.38642 14.2062C5.47613 14.1569 5.55197 14.0859 5.60692 13.9996H5.60753L9.20436 8.37176H9.20269C9.70394 7.58928 9.96984 6.67926 9.96875 5.75Z" fill="#FF9900"/>
<path d="M5.09375 8.1875C6.43994 8.1875 7.53125 7.09619 7.53125 5.75C7.53125 4.40381 6.43994 3.3125 5.09375 3.3125C3.74756 3.3125 2.65625 4.40381 2.65625 5.75C2.65625 7.09619 3.74756 8.1875 5.09375 8.1875Z" fill="white"/>
<path d="M36.7813 5.75C36.7813 3.05763 34.5986 0.875 31.9062 0.875H29.4688C26.7764 0.875 24.5938 3.05763 24.5938 5.75C24.5938 6.71548 24.8756 7.61454 25.3597 8.37176H25.3581L28.9549 13.9996C29.0632 14.1687 29.2529 14.2812 29.4687 14.2812H31.9062C32.0085 14.2813 32.1092 14.2555 32.1989 14.2062C32.2886 14.157 32.3644 14.0859 32.4193 13.9996L36.0168 8.37176H36.0151C36.5164 7.5893 36.7824 6.67928 36.7813 5.75Z" fill="#176A58"/>
<path d="M34.3437 5.75C34.3437 3.05763 32.1611 0.875 29.4687 0.875C26.7764 0.875 24.5938 3.05763 24.5938 5.75C24.5938 6.71548 24.8756 7.61454 25.3597 8.37176H25.3581L28.9549 13.9996H28.9555C29.0104 14.0859 29.0862 14.157 29.1759 14.2063C29.2657 14.2555 29.3663 14.2814 29.4687 14.2814C29.571 14.2814 29.6717 14.2555 29.7614 14.2063C29.8511 14.157 29.9269 14.0859 29.9818 13.9996H29.9825L33.5793 8.37176H33.5776C34.0789 7.5893 34.3449 6.67928 34.3437 5.75Z" fill="#1E866F"/>
<path d="M29.4688 8.1875C30.8149 8.1875 31.9062 7.09619 31.9062 5.75C31.9062 4.40381 30.8149 3.3125 29.4688 3.3125C28.1226 3.3125 27.0312 4.40381 27.0312 5.75C27.0312 7.09619 28.1226 8.1875 29.4688 8.1875Z" fill="white"/>
<path d="M19.1094 11.8438H17.8906C17.729 11.8438 17.574 11.908 17.4597 12.0222C17.3455 12.1365 17.2812 12.2915 17.2812 12.4531C17.2812 12.6147 17.3455 12.7697 17.4597 12.884C17.574 12.9983 17.729 13.0625 17.8906 13.0625H19.1094C19.271 13.0625 19.426 12.9983 19.5403 12.884C19.6545 12.7697 19.7188 12.6147 19.7188 12.4531C19.7188 12.2915 19.6545 12.1365 19.5403 12.0222C19.426 11.908 19.271 11.8438 19.1094 11.8438ZM15.4531 11.8438H14.2344C14.0728 11.8438 13.9178 11.908 13.8035 12.0222C13.6892 12.1365 13.625 12.2915 13.625 12.4531C13.625 12.6147 13.6892 12.7697 13.8035 12.884C13.9178 12.9983 14.0728 13.0625 14.2344 13.0625H15.4531C15.6147 13.0625 15.7697 12.9983 15.884 12.884C15.9983 12.7697 16.0625 12.6147 16.0625 12.4531C16.0625 12.2915 15.9983 12.1365 15.884 12.0222C15.7697 11.908 15.6147 11.8438 15.4531 11.8438ZM11.7969 11.8438H10.5781C10.4165 11.8438 10.2615 11.908 10.1472 12.0222C10.033 12.1365 9.96875 12.2915 9.96875 12.4531C9.96875 12.6147 10.033 12.7697 10.1472 12.884C10.2615 12.9983 10.4165 13.0625 10.5781 13.0625H11.7969C11.9585 13.0625 12.1135 12.9983 12.2278 12.884C12.342 12.7697 12.4062 12.6147 12.4062 12.4531C12.4062 12.2915 12.342 12.1365 12.2278 12.0222C12.1135 11.908 11.9585 11.8438 11.7969 11.8438ZM26.4219 11.8438H25.2031C25.0415 11.8438 24.8865 11.908 24.7722 12.0222C24.658 12.1365 24.5938 12.2915 24.5938 12.4531C24.5938 12.6147 24.658 12.7697 24.7722 12.884C24.8865 12.9983 25.0415 13.0625 25.2031 13.0625H26.4219C26.5835 13.0625 26.7385 12.9983 26.8528 12.884C26.967 12.7697 27.0312 12.6147 27.0312 12.4531C27.0312 12.2915 26.967 12.1365 26.8528 12.0222C26.7385 11.908 26.5835 11.8438 26.4219 11.8438ZM22.7656 11.8438H21.5469C21.3853 11.8438 21.2303 11.908 21.116 12.0222C21.0017 12.1365 20.9375 12.2915 20.9375 12.4531C20.9375 12.6147 21.0017 12.7697 21.116 12.884C21.2303 12.9983 21.3853 13.0625 21.5469 13.0625H22.7656C22.9272 13.0625 23.0822 12.9983 23.1965 12.884C23.3108 12.7697 23.375 12.6147 23.375 12.4531C23.375 12.2915 23.3108 12.1365 23.1965 12.0222C23.0822 11.908 22.9272 11.8438 22.7656 11.8438Z" fill="#A5C3DC"/>
</svg>
