<svg width="13" height="15" viewBox="0 0 13 15" fill="none" xmlns="http://www.w3.org/2000/svg">
<path d="M1.39286 0C1.02345 0 0.66917 0.146747 0.407958 0.407958C0.146747 0.66917 0 1.02345 0 1.39286V13.4643C0 13.8337 0.146747 14.188 0.407958 14.4492C0.66917 14.7104 1.02345 14.8571 1.39286 14.8571H7.89286C8.26227 14.8571 8.61654 14.7104 8.87776 14.4492C9.13897 14.188 9.28571 13.8337 9.28571 13.4643V12.0714C9.28571 11.9483 9.2368 11.8302 9.14973 11.7431C9.06266 11.6561 8.94456 11.6071 8.82143 11.6071C8.43793 11.6071 8.19279 11.5124 8.02657 11.388C7.85664 11.2608 7.72757 11.0704 7.63286 10.8095C7.43414 10.2635 7.42857 9.54014 7.42857 8.82143C7.42856 8.76035 7.41649 8.69988 7.39307 8.64347C7.36965 8.58706 7.33533 8.53583 7.29207 8.49271L7.0265 8.22621L5.90014 7.09986C5.4665 6.66621 5.33929 6.37557 5.31514 6.21307C5.29657 6.08307 5.33557 5.99579 5.42843 5.90664C5.62714 5.71629 5.76921 5.58721 5.92986 5.54821C6.0255 5.52407 6.24371 5.50736 6.63557 5.89921L9.42129 8.68493C9.50834 8.77211 9.62647 8.82113 9.74967 8.82122C9.81068 8.82127 9.87109 8.80929 9.92747 8.78599C9.98385 8.76268 10.0351 8.7285 10.0782 8.68539C10.1214 8.64229 10.1557 8.5911 10.1791 8.53475C10.2024 8.47841 10.2145 8.41801 10.2145 8.35701C10.2146 8.296 10.2026 8.23559 10.1793 8.17921C10.156 8.12283 10.1218 8.0716 10.0787 8.02843L9.28571 7.23636V4.37079L11.6629 6.74793C11.7923 6.87725 11.8951 7.03083 11.9652 7.19988C12.0353 7.36893 12.0714 7.55013 12.0714 7.73314V14.3929C12.0714 14.516 12.1203 14.6341 12.2074 14.7212C12.2945 14.8082 12.4126 14.8571 12.5357 14.8571C12.6588 14.8571 12.7769 14.8082 12.864 14.7212C12.9511 14.6341 13 14.516 13 14.3929V7.73314C12.9999 7.11774 12.7554 6.52757 12.3203 6.09236L9.28571 3.05779V1.39286C9.28571 1.02345 9.13897 0.66917 8.87776 0.407958C8.61654 0.146747 8.26227 0 7.89286 0H1.39286ZM8.35714 3.25V6.30779L7.293 5.24271C6.75536 4.706 6.22143 4.52121 5.70979 4.64564C5.60927 4.67045 5.51181 4.70626 5.41914 4.75243C5.00407 4.63219 4.56671 4.61013 4.14164 4.688C3.71657 4.76587 3.31544 4.94154 2.96994 5.20111C2.62444 5.46068 2.34405 5.79706 2.15092 6.18364C1.95779 6.57022 1.85721 6.99643 1.85714 7.42857C1.8571 7.96709 2.01316 8.49408 2.30641 8.94575C2.59967 9.39742 3.01755 9.75441 3.50949 9.97351C4.00143 10.1926 4.54632 10.2644 5.07823 10.1803C5.61013 10.0961 6.10624 9.85956 6.5065 9.49928C6.52229 10.036 6.57614 10.6229 6.76 11.1271C6.89743 11.505 7.11657 11.8662 7.46943 12.1299L7.475 12.1355C7.19224 12.2244 6.94523 12.4012 6.76987 12.6402C6.59452 12.8792 6.49998 13.1679 6.5 13.4643V13.9286H2.78571V13.4643C2.78571 13.0949 2.63897 12.7406 2.37776 12.4794C2.11654 12.2182 1.76227 12.0714 1.39286 12.0714H0.928571V2.78571H1.39286C1.76227 2.78571 2.11654 2.63897 2.37776 2.37776C2.63897 2.11654 2.78571 1.76227 2.78571 1.39286V0.928571H6.5V1.39286C6.5 1.76227 6.64675 2.11654 6.90796 2.37776C7.16917 2.63897 7.52345 2.78571 7.89286 2.78571H8.35714V3.25ZM8.35714 13.4643V13.4726C8.35495 13.5943 8.30507 13.7103 8.21824 13.7956C8.1314 13.8808 8.01456 13.9286 7.89286 13.9286H7.42857V13.4643C7.42857 13.3411 7.47749 13.2231 7.56456 13.136C7.65163 13.0489 7.76972 13 7.89286 13H8.35714V13.4643ZM2.78571 7.42857C2.78572 6.95628 2.96566 6.50174 3.28893 6.15743C3.6122 5.81311 4.05451 5.6049 4.52586 5.57514C4.41071 5.78871 4.35221 6.04871 4.39679 6.34864C4.46271 6.79621 4.74779 7.26143 5.24271 7.75636L6.08493 8.59857C5.84315 8.89652 5.51502 9.11226 5.14564 9.21614C4.77626 9.32002 4.38377 9.30694 4.02213 9.17869C3.6605 9.05044 3.34746 8.81333 3.12606 8.49994C2.90465 8.18655 2.78576 7.81228 2.78571 7.42857ZM1.85714 0.928571V1.39286C1.85714 1.51599 1.80823 1.63409 1.72116 1.72116C1.63409 1.80823 1.51599 1.85714 1.39286 1.85714H0.928571V1.39286C0.928571 1.26972 0.977487 1.15163 1.06456 1.06456C1.15163 0.977487 1.26972 0.928571 1.39286 0.928571H1.85714ZM0.928571 13H1.39286C1.51599 13 1.63409 13.0489 1.72116 13.136C1.80823 13.2231 1.85714 13.3411 1.85714 13.4643V13.9286H1.39286C1.26972 13.9286 1.15163 13.8797 1.06456 13.7926C0.977487 13.7055 0.928571 13.5874 0.928571 13.4643V13ZM8.35714 1.85714H7.89286C7.76972 1.85714 7.65163 1.80823 7.56456 1.72116C7.47749 1.63409 7.42857 1.51599 7.42857 1.39286V0.928571H7.89286C8.01599 0.928571 8.13409 0.977487 8.22116 1.06456C8.30823 1.15163 8.35714 1.26972 8.35714 1.39286V1.85714Z" fill="#1E866F"/>
</svg>
