<svg width="32" height="32" viewBox="0 0 32 32" fill="none" xmlns="http://www.w3.org/2000/svg">
<path d="M24.0999 2.07202L29.6639 7.87202V29.928H8.87891V30H29.7349V7.94502L24.0999 2.07202Z" fill="#909090"/>
<path d="M24.0306 2H8.80762V29.928H29.6636V7.873L24.0306 2Z" fill="#F4F4F4"/>
<path d="M8.65465 3.5H2.26465V10.327H22.3646V3.5H8.65465Z" fill="#7A7B7C"/>
<path d="M22.4715 10.211H2.39453V3.37903H22.4715V10.211Z" fill="#DD2025"/>
<path d="M9.05212 4.53404H7.74512V9.33404H8.77312V7.71504L9.00012 7.72804C9.22076 7.725 9.43938 7.68547 9.64712 7.61104C9.82974 7.54903 9.99758 7.44996 10.1401 7.32004C10.2863 7.19748 10.4011 7.04185 10.4751 6.86604C10.5764 6.57476 10.6122 6.26475 10.5801 5.95804C10.5744 5.73889 10.536 5.52183 10.4661 5.31404C10.4031 5.16385 10.3095 5.02846 10.1912 4.91653C10.0729 4.8046 9.93256 4.71861 9.77912 4.66404C9.64683 4.61505 9.50974 4.58019 9.37012 4.56004C9.26465 4.54287 9.15797 4.53417 9.05112 4.53404M8.86212 6.82804H8.77312V5.34804H8.96612C9.0513 5.3419 9.13677 5.35498 9.21622 5.3863C9.29566 5.41763 9.36706 5.46641 9.42512 5.52904C9.54544 5.69006 9.60971 5.88604 9.60812 6.08704C9.60812 6.33304 9.60812 6.55604 9.38612 6.71304C9.22622 6.80111 9.04415 6.84173 8.86212 6.82804ZM12.5331 4.52104C12.4221 4.52104 12.3141 4.52904 12.2381 4.53204L12.0001 4.53804H11.2201V9.33804H12.1381C12.4889 9.34706 12.8381 9.28762 13.1661 9.16304C13.4302 9.05874 13.664 8.88993 13.8461 8.67204C14.0246 8.45319 14.152 8.19732 14.2191 7.92304C14.298 7.61297 14.3363 7.29397 14.3331 6.97404C14.3527 6.5962 14.3235 6.21741 14.2461 5.84704C14.1721 5.57473 14.0351 5.32364 13.8461 5.11404C13.6979 4.94455 13.5156 4.80825 13.3111 4.71404C13.1359 4.63284 12.9516 4.57308 12.7621 4.53604C12.6868 4.52369 12.6105 4.518 12.5341 4.51904M12.3521 8.45604H12.2521V5.39204H12.2651C12.4713 5.3682 12.6799 5.40541 12.8651 5.49904C13.0008 5.60737 13.1113 5.74384 13.1891 5.89904C13.2731 6.06238 13.3215 6.24165 13.3311 6.42504C13.3401 6.64504 13.3311 6.82504 13.3311 6.97404C13.3348 7.14567 13.3238 7.3173 13.2981 7.48704C13.2667 7.66111 13.2097 7.82958 13.1291 7.98704C13.0381 8.13388 12.9137 8.25722 12.7661 8.34704C12.6428 8.42705 12.4967 8.46429 12.3501 8.45304M17.4301 4.53804H15.0001V9.33804H16.0281V7.43404H17.3281V6.54204H16.0281V5.43004H17.4281V4.53804" fill="#464648"/>
<path d="M21.7807 20.255C21.7807 20.255 24.9687 19.677 24.9687 20.766C24.9687 21.855 22.9937 21.412 21.7807 20.255ZM19.4237 20.338C18.9171 20.4496 18.4235 20.6135 17.9507 20.827L18.3507 19.927C18.7507 19.027 19.1657 17.8 19.1657 17.8C19.6418 18.6041 20.1972 19.3586 20.8237 20.052C20.3521 20.1223 19.8847 20.2184 19.4237 20.34V20.338ZM18.1617 13.838C18.1617 12.889 18.4687 12.63 18.7077 12.63C18.9467 12.63 19.2157 12.745 19.2247 13.569C19.1467 14.3976 18.9732 15.2143 18.7077 16.003C18.3427 15.3413 18.1543 14.5967 18.1607 13.841L18.1617 13.838ZM13.5127 24.354C12.5347 23.769 15.5637 21.968 16.1127 21.91C16.1097 21.911 14.5367 24.966 13.5127 24.354ZM25.8997 20.895C25.8897 20.795 25.7997 19.688 23.8297 19.735C23.0085 19.7206 22.1877 19.7785 21.3767 19.908C20.5906 19.1167 19.9139 18.2238 19.3647 17.253C19.7105 16.2523 19.92 15.2096 19.9877 14.153C19.9587 12.953 19.6717 12.265 18.7517 12.275C17.8317 12.285 17.6977 13.09 17.8187 14.288C17.9371 15.0931 18.1607 15.8791 18.4837 16.626C18.4837 16.626 18.0587 17.949 17.4967 19.265C16.9347 20.581 16.5507 21.271 16.5507 21.271C15.5733 21.5888 14.6532 22.0615 13.8257 22.671C13.0017 23.438 12.6667 24.027 13.1007 24.616C13.4747 25.124 14.7837 25.239 15.9537 23.706C16.5743 22.9134 17.1422 22.081 17.6537 21.214C17.6537 21.214 19.4377 20.725 19.9927 20.591C20.5477 20.457 21.2187 20.351 21.2187 20.351C21.2187 20.351 22.8477 21.99 24.4187 21.932C25.9897 21.874 25.9137 20.993 25.9037 20.897" fill="#DD2025"/>
<path d="M23.9541 2.07703V7.95003H29.5871L23.9541 2.07703Z" fill="#909090"/>
<path d="M24.0312 2V7.873H29.6642L24.0312 2Z" fill="#F4F4F4"/>
<path d="M8.97497 4.45702H7.66797V9.25702H8.69997V7.63902L8.92797 7.65202C9.14861 7.64897 9.36723 7.60944 9.57497 7.53502C9.75759 7.47301 9.92543 7.37394 10.068 7.24402C10.213 7.12112 10.3268 6.96551 10.4 6.79002C10.5012 6.49873 10.5371 6.18872 10.505 5.88202C10.4993 5.66287 10.4608 5.4458 10.391 5.23802C10.328 5.08782 10.2344 4.95243 10.1161 4.84051C9.99778 4.72858 9.85741 4.64258 9.70397 4.58802C9.57108 4.53854 9.4333 4.50335 9.29297 4.48302C9.1875 4.46584 9.08083 4.45715 8.97397 4.45702M8.78497 6.75102H8.69597V5.27102H8.88997C8.97515 5.26487 9.06062 5.27795 9.14007 5.30928C9.21952 5.34061 9.29091 5.38939 9.34897 5.45202C9.46929 5.61303 9.53356 5.80902 9.53197 6.01002C9.53197 6.25602 9.53197 6.47902 9.30997 6.63602C9.15008 6.72409 8.968 6.7637 8.78597 6.75002M12.456 4.44402C12.345 4.44402 12.237 4.45202 12.161 4.45502L11.926 4.46102H11.146V9.26101H12.064C12.4148 9.27004 12.7639 9.2106 13.092 9.08602C13.3561 8.98171 13.5899 8.81291 13.772 8.59502C13.9504 8.37617 14.0778 8.1203 14.145 7.84602C14.2238 7.53594 14.2622 7.21695 14.259 6.89702C14.2785 6.51917 14.2493 6.14038 14.172 5.77002C14.0979 5.4977 13.9609 5.24662 13.772 5.03702C13.6238 4.86753 13.4415 4.73122 13.237 4.63702C13.0618 4.55581 12.8775 4.49605 12.688 4.45902C12.6126 4.44666 12.5363 4.44097 12.46 4.44202M12.278 8.37901H12.178V5.31502H12.191C12.3971 5.29118 12.6058 5.32838 12.791 5.42202C12.9266 5.53034 13.0372 5.66681 13.115 5.82202C13.1989 5.98535 13.2473 6.16462 13.257 6.34802C13.266 6.56802 13.257 6.74802 13.257 6.89702C13.2607 7.06864 13.2496 7.24027 13.224 7.41002C13.1925 7.58408 13.1356 7.75256 13.055 7.91002C12.9639 8.05686 12.8396 8.18019 12.692 8.27002C12.5687 8.35002 12.4225 8.38727 12.276 8.37602M17.353 4.46102H14.923V9.26101H15.951V7.35702H17.251V6.46502H15.951V5.35302H17.351V4.46102" fill="white"/>
</svg>
