<svg width="12" height="16" viewBox="0 0 12 16" fill="none" xmlns="http://www.w3.org/2000/svg">
<path d="M11.0688 11.4623C10.9182 10.7079 10.369 10.3987 10.0551 10.2816C10.05 10.2797 10.0448 10.278 10.0395 10.2764L8.06285 9.69335L7.44647 9.27654V8.8916C8.44044 8.37195 9.11197 7.33151 9.11197 6.13632V6.09304C9.62219 5.99876 10.0062 5.60338 10.0062 5.13123C10.0062 4.87485 9.89288 4.64113 9.70769 4.46595V2.44401C9.70769 1.32151 8.6915 0.462696 7.57916 0.659227C6.06816 -0.473335 3.89419 -0.115116 2.83991 1.49198C2.80582 1.54398 2.79377 1.60739 2.80641 1.66827C2.81906 1.72915 2.85536 1.78251 2.90735 1.81663C2.95935 1.85072 3.02276 1.86276 3.08363 1.85011C3.14451 1.83747 3.19788 1.80117 3.232 1.7492C3.75788 0.947477 4.64331 0.468884 5.60044 0.468884C6.2531 0.468884 6.86638 0.684884 7.374 1.09348C7.40201 1.11602 7.43483 1.13182 7.46992 1.13966C7.50501 1.14749 7.54144 1.14715 7.57638 1.13866C8.42678 0.932009 9.23888 1.5786 9.23888 2.44401V4.19991C9.19139 4.18587 9.1431 4.17465 9.09428 4.16632C9.05925 4.01179 8.96763 3.87785 8.8986 3.82395L7.92394 3.0651C7.68406 2.87838 7.37478 2.8511 7.16888 2.9447C4.80744 3.85754 3.39216 3.85754 3.32191 3.8676C3.14563 3.88448 2.97191 3.98851 2.91578 4.1661C2.86591 4.17454 2.81719 4.18591 2.76988 4.19988C2.78294 3.44395 2.73241 3.15538 2.83747 2.6826C2.84416 2.65255 2.84485 2.62148 2.83953 2.59116C2.8342 2.56084 2.82295 2.53186 2.80642 2.50589C2.7899 2.47992 2.76842 2.45746 2.74321 2.43979C2.718 2.42212 2.68955 2.40959 2.6595 2.40291C2.62945 2.39622 2.59838 2.39552 2.56805 2.40084C2.53773 2.40616 2.50875 2.41741 2.48278 2.43394C2.4568 2.45047 2.43434 2.47195 2.41667 2.49717C2.39901 2.52238 2.38648 2.55083 2.37981 2.58088C2.25635 3.13648 2.3171 3.46557 2.30103 4.46585C2.11588 4.64104 2.00256 4.87473 2.00256 5.1311C2.00256 5.60326 2.3866 5.99863 2.89678 6.09292V6.09535C2.89678 7.24041 3.52438 8.32226 4.55391 8.87791V9.28007L3.9471 9.69041C3.89916 9.70457 1.96022 10.276 1.94522 10.2815C1.63131 10.3986 1.08222 10.7078 0.931565 11.4623L0.248377 14.8929C0.247524 14.8971 0.246795 14.9014 0.24619 14.9057C0.155815 15.543 0.497783 16 1.1966 16H3.69416C3.82366 16 3.9286 15.8951 3.9286 15.7656C3.9286 15.6361 3.82366 15.5311 3.69416 15.5311H2.84947V13.3215C2.84948 13.2908 2.84341 13.2603 2.83163 13.2318C2.81985 13.2034 2.80259 13.1775 2.78082 13.1558C2.75904 13.134 2.7332 13.1167 2.70475 13.1049C2.67631 13.0932 2.64582 13.0871 2.61503 13.0871C2.58425 13.0871 2.55376 13.0932 2.52531 13.1049C2.49687 13.1167 2.47102 13.134 2.44925 13.1558C2.42748 13.1775 2.41021 13.2034 2.39843 13.2318C2.38665 13.2603 2.38059 13.2908 2.3806 13.3215V15.5311H1.19653C0.876627 15.5311 0.703752 15.4236 0.701315 15.1037C0.700002 14.9443 0.693034 15.1031 1.39119 11.5541C1.49616 11.0283 1.87794 10.8087 2.1016 10.7237L3.89722 10.194L4.327 11.3984C4.41138 11.6348 4.65175 11.7468 4.86685 11.7021L5.6025 12.3475C5.82813 12.5455 6.17003 12.5471 6.39766 12.3484L7.13819 11.702C7.35925 11.748 7.596 11.6296 7.67847 11.3984L8.10775 10.1954L9.89853 10.7237C10.1222 10.8087 10.5039 11.0283 10.6089 11.554C11.3188 15.1625 11.3052 14.9575 11.2983 15.1284C11.287 15.4107 11.1391 15.5311 10.8036 15.5311H9.62797V13.3215C9.62797 13.192 9.52303 13.0871 9.39353 13.0871C9.26403 13.0871 9.1591 13.192 9.1591 13.3215V15.5311H4.78822C4.75743 15.5311 4.72695 15.5372 4.6985 15.549C4.67006 15.5608 4.64421 15.578 4.62244 15.5998C4.60067 15.6216 4.5834 15.6474 4.57162 15.6759C4.55984 15.7043 4.55378 15.7348 4.55378 15.7656C4.55378 15.7964 4.55984 15.8268 4.57162 15.8553C4.5834 15.8837 4.60067 15.9096 4.62244 15.9314C4.64421 15.9531 4.67006 15.9704 4.6985 15.9822C4.72695 15.994 4.75743 16 4.78822 16H10.8037C11.3828 16 11.7624 15.6814 11.7678 15.1074C11.7684 15.0163 11.7864 15.1077 11.0688 11.4623ZM9.11197 4.65038C9.67953 4.81907 9.67678 5.44423 9.11197 5.61207V4.65038ZM2.89669 5.61207C2.33078 5.44388 2.33031 4.81876 2.89669 4.65038V5.61207ZM3.36556 6.09545V4.33501C3.36869 4.33445 5.08256 4.28423 7.3385 3.38185L7.35666 3.37479C7.40216 3.36001 7.51325 3.33966 7.63588 3.4351L8.59697 4.18338C8.66356 4.26479 8.64313 4.20913 8.64313 6.13632C8.64313 7.17888 8.0411 8.08216 7.1591 8.51038C7.10263 8.5211 6.17088 9.0131 5.083 8.60595C4.05844 8.21563 3.36556 7.20801 3.36556 6.09545ZM6.9776 9.08932V9.35395L6.37966 10.783L5.62797 10.783C5.4815 10.4343 4.99163 9.2677 5.02266 9.3412V9.0826C5.66975 9.30173 6.36047 9.29151 6.9776 9.08932ZM4.77219 11.2429C4.76563 11.2426 4.78756 11.2876 4.32591 10.0003L4.68778 9.75557L5.18272 10.9385L4.77219 11.2429ZM6.08938 11.9952C6.06474 12.0166 6.0332 12.0284 6.00056 12.0284C5.96793 12.0283 5.9364 12.0165 5.91181 11.995L5.28638 11.4464L5.55003 11.2518H6.45828L6.71922 11.4454L6.08938 11.9952ZM7.2365 11.242C7.23232 11.2462 7.23972 11.2453 6.82291 10.9385L7.31785 9.75557L7.67969 10.0003L7.2365 11.242Z" fill="#1E866F"/>
</svg>
