<svg width="12" height="12" viewBox="0 0 12 12" fill="none" xmlns="http://www.w3.org/2000/svg">
<g clip-path="url(#clip0_2171_193)">
<path d="M11.9742 9.29766C11.9414 9.19453 11.7234 9.04453 11.3273 8.84531C11.2195 8.78203 11.0672 8.69766 10.868 8.58984C10.6875 8.49141 10.507 8.39297 10.3266 8.29219C10.1742 8.20547 10.0219 8.11875 9.86953 8.02734C9.84609 8.01094 9.77578 7.96172 9.65625 7.87734C9.53672 7.79531 9.43594 7.73437 9.35391 7.69453C9.27188 7.65469 9.18984 7.63594 9.11016 7.63594C8.99766 7.63594 8.85469 7.71797 8.68359 7.87969C8.5125 8.04141 8.35547 8.21953 8.21484 8.40937C8.07187 8.59922 7.92188 8.775 7.7625 8.93672C7.60313 9.09844 7.47188 9.18047 7.37109 9.18047C7.31953 9.18047 7.25625 9.16641 7.17891 9.13828C7.10156 9.11016 7.04297 9.08672 7.00312 9.06562C6.96328 9.04453 6.89531 9.00703 6.79922 8.94609C6.70312 8.8875 6.64922 8.85469 6.6375 8.84766C5.85938 8.41641 5.19141 7.92188 4.63359 7.36406C4.07578 6.80625 3.58359 6.14062 3.15 5.36016C3.14531 5.34844 3.1125 5.29453 3.05156 5.19844C2.99297 5.10234 2.95312 5.03438 2.93203 4.99453C2.91328 4.95469 2.8875 4.89609 2.85938 4.81875C2.83125 4.74141 2.81719 4.67812 2.81719 4.62656C2.81719 4.52344 2.89922 4.39453 3.06094 4.23516C3.22266 4.07578 3.39844 3.92578 3.58828 3.78281C3.77813 3.64219 3.95391 3.48516 4.11563 3.31406C4.27734 3.14297 4.35938 3.00234 4.35938 2.8875C4.35938 2.80781 4.34062 2.72813 4.30078 2.64375C4.26094 2.56172 4.2 2.46094 4.11797 2.34141C4.03594 2.22187 3.98672 2.15156 3.96797 2.12813C3.87891 1.97813 3.78984 1.82578 3.70312 1.67344C3.60234 1.49297 3.50391 1.3125 3.40547 1.13203C3.29766 0.932812 3.21328 0.780469 3.15 0.672656C2.95078 0.274219 2.80078 0.0585938 2.69766 0.0257813C2.6625 0.009375 2.60156 0 2.52187 0C2.36953 0 2.16797 0.028125 1.92188 0.084375C1.67578 0.140625 1.48125 0.201562 1.33828 0.2625C1.05469 0.382031 0.752344 0.728906 0.435938 1.30312C0.145313 1.8375 0 2.36719 0 2.88984C0 3.04219 0.009375 3.19219 0.0304687 3.3375C0.0492187 3.48281 0.0867188 3.64688 0.135938 3.82734C0.1875 4.01016 0.227344 4.14375 0.260156 4.23281C0.290625 4.32188 0.349219 4.47891 0.435938 4.70625C0.520312 4.93359 0.571875 5.07188 0.588281 5.12344C0.7875 5.68125 1.02188 6.17813 1.29609 6.61406C1.74375 7.34063 2.35781 8.09297 3.13359 8.86875C3.90937 9.64453 4.66172 10.2562 5.38828 10.7062C5.82656 10.9781 6.32344 11.2148 6.87891 11.4141C6.93047 11.4305 7.06875 11.482 7.29609 11.5664C7.52344 11.6508 7.68047 11.7094 7.76953 11.7422C7.85859 11.7727 7.99219 11.8148 8.175 11.8664C8.35781 11.918 8.51953 11.9531 8.66484 11.9742C8.81016 11.993 8.95781 12.0047 9.1125 12.0047C9.63516 12.0047 10.1625 11.8594 10.6969 11.5711C11.2711 11.2523 11.618 10.9523 11.7375 10.6664C11.8008 10.5234 11.8594 10.3289 11.9156 10.0828C11.9719 9.83672 12 9.63516 12 9.48281C12 9.39844 11.9906 9.3375 11.9742 9.29766Z" fill="#6C6565"/>
</g>
<defs>
<clipPath id="clip0_2171_193">
<rect width="12" height="12" fill="white"/>
</clipPath>
</defs>
</svg>
