<svg width="7" height="17" viewBox="0 0 7 17" fill="none" xmlns="http://www.w3.org/2000/svg">
<path d="M1.32491 9.80753H5.43754C5.58428 9.80753 5.70093 9.68358 5.70093 9.52764V6.46885C5.70093 6.31292 5.58428 6.18896 5.43754 6.18896H1.32491C1.17817 6.18896 1.06152 6.31292 1.06152 6.46885V9.52764C1.06152 9.68358 1.17817 9.80753 1.32491 9.80753ZM1.5883 6.74874H5.17415V9.24776H1.5883V6.74874Z" fill="#1E866F"/>
<path d="M6.76532 10.3595V5.68537C6.76532 5.26953 6.49065 4.91367 6.10685 4.83371V4.10199C6.10685 3.94606 5.99021 3.82211 5.84346 3.82211H4.91032C4.76357 3.82211 4.64693 3.94606 4.64693 4.10199V4.81371H4.37225V4.10199C4.37225 3.94606 4.25561 3.82211 4.10886 3.82211H3.17571C3.02897 3.82211 2.91233 3.94606 2.91233 4.10199V4.81371H2.37426V1.41506C2.37426 0.911257 1.99047 0.503418 1.51637 0.503418C1.04227 0.503418 0.658471 0.911257 0.658471 1.41506V4.83371C0.274677 4.91367 0 5.27353 0 5.68537V15.4215C0 15.9013 0.364981 16.2892 0.816505 16.2892H5.94506C6.39658 16.2892 6.76156 15.9013 6.76156 15.4215V10.3595H6.76532ZM5.1737 4.38188H5.58008V4.81371H5.1737V4.38188ZM3.4391 4.38188H3.84547V4.81371H3.4391V4.38188ZM1.51637 1.0632C1.70074 1.0632 1.84748 1.21913 1.84748 1.41506V4.81371H1.18525V1.41506C1.18525 1.22313 1.33199 1.0632 1.51637 1.0632ZM0.820267 5.37349H5.94506C6.10685 5.37349 6.23478 5.51344 6.23478 5.68137V10.2396L5.27906 11.2432C5.09093 11.4431 4.98181 11.715 4.98181 11.9989V15.7294H1.77975V11.9989C1.77975 11.715 1.67064 11.4431 1.4825 11.2432L0.526777 10.2396V5.68137C0.526777 5.51344 0.658471 5.37349 0.820267 5.37349ZM0.526777 15.4175V11.0273L1.10999 11.643C1.2003 11.739 1.24921 11.8669 1.24921 11.9989V15.7294H0.820267C0.658471 15.7294 0.526777 15.5895 0.526777 15.4175ZM5.94506 15.7294H5.51235V11.9989C5.51235 11.8629 5.56502 11.735 5.65157 11.643L6.23478 11.0273V15.4175C6.23478 15.5895 6.10685 15.7294 5.94506 15.7294Z" fill="#1E866F"/>
<path d="M4.24075 10.7075H2.5212C2.37446 10.7075 2.25781 10.8315 2.25781 10.9874C2.25781 11.1433 2.37446 11.2673 2.5212 11.2673H4.24075C4.3875 11.2673 4.50414 11.1433 4.50414 10.9874C4.50414 10.8315 4.3875 10.7075 4.24075 10.7075ZM4.24075 12.015H2.5212C2.37446 12.015 2.25781 12.139 2.25781 12.2949C2.25781 12.4508 2.37446 12.5748 2.5212 12.5748H4.24075C4.3875 12.5748 4.50414 12.4508 4.50414 12.2949C4.50414 12.139 4.3875 12.015 4.24075 12.015ZM4.24075 13.3185H2.5212C2.37446 13.3185 2.25781 13.4424 2.25781 13.5984C2.25781 13.7543 2.37446 13.8783 2.5212 13.8783H4.24075C4.3875 13.8783 4.50414 13.7543 4.50414 13.5984C4.50414 13.4424 4.3875 13.3185 4.24075 13.3185ZM4.24075 14.622H2.5212C2.37446 14.622 2.25781 14.7459 2.25781 14.9019C2.25781 15.0578 2.37446 15.1818 2.5212 15.1818H4.24075C4.3875 15.1818 4.50414 15.0578 4.50414 14.9019C4.50414 14.7459 4.3875 14.622 4.24075 14.622Z" fill="#1E866F"/>
</svg>
