<svg width="16" height="16" viewBox="0 0 16 16" fill="none" xmlns="http://www.w3.org/2000/svg">
<g clip-path="url(#clip0_3218_2037)">
<path d="M11.1111 1.77734H4.88889C4.65314 1.77734 4.42705 1.87099 4.26035 2.03769C4.09365 2.20439 4 2.43048 4 2.66623V13.3329C4 13.5686 4.09365 13.7947 4.26035 13.9614C4.42705 14.1281 4.65314 14.2218 4.88889 14.2218H11.1111C11.3469 14.2218 11.573 14.1281 11.7397 13.9614C11.9063 13.7947 12 13.5686 12 13.3329V2.66623C12 2.43048 11.9063 2.20439 11.7397 2.03769C11.573 1.87099 11.3469 1.77734 11.1111 1.77734ZM8.44444 13.3329H7.55556V12.444H8.44444V13.3329ZM4.88889 11.5551V2.66623H11.1111V11.5551H4.88889Z" fill="#1E866F"/>
</g>
<defs>
<clipPath id="clip0_3218_2037">
<rect width="16" height="16" fill="white"/>
</clipPath>
</defs>
</svg>
