<svg width="15" height="15" viewBox="0 0 15 15" fill="none" xmlns="http://www.w3.org/2000/svg">
<path d="M14.7593 10.9757L12.3982 8.6147C12.0776 8.29399 11.5558 8.29408 11.2351 8.61467L9.60543 10.2444C9.3579 10.4919 9.302 10.8627 9.43882 11.166C8.16364 11.6325 5.29893 9.64381 4.16843 7.37005C4.14216 7.31844 4.09658 7.27929 4.04159 7.26111C3.98661 7.24293 3.92667 7.24719 3.87482 7.27298C3.82296 7.29876 3.78338 7.34397 3.76469 7.39878C3.746 7.4536 3.7497 7.51357 3.775 7.56567C5.03556 10.101 8.42931 12.4528 9.88252 11.426C9.99279 11.3481 10.0073 11.1899 9.91302 11.0932C9.76735 10.9439 9.76873 10.7025 9.91612 10.5551L10.5952 9.87608L13.498 12.7788L12.8189 13.4579C12.6779 13.5989 12.4387 13.6181 12.2693 13.45C12.229 13.41 12.1749 13.3872 12.1182 13.3863C12.0615 13.3853 12.0066 13.4064 11.9651 13.445C11.5199 13.8586 11.0055 14.1617 10.4363 14.3458C10.4088 14.3547 10.3834 14.3689 10.3614 14.3876C10.3395 14.4063 10.3214 14.4291 10.3083 14.4548C10.2952 14.4805 10.2872 14.5085 10.2849 14.5373C10.2826 14.5661 10.286 14.595 10.2949 14.6224C10.3038 14.6499 10.318 14.6753 10.3367 14.6973C10.3554 14.7192 10.3782 14.7373 10.4039 14.7504C10.4296 14.7636 10.4576 14.7715 10.4864 14.7738C10.5151 14.7761 10.5441 14.7727 10.5715 14.7638C11.1433 14.5789 11.6647 14.2859 12.1242 13.8918C12.4402 14.0818 12.8573 14.0408 13.1295 13.7686L14.7593 12.1388C15.0799 11.8182 15.0799 11.2965 14.7593 10.9757ZM14.4486 11.8281L13.8087 12.468L10.9059 9.5653L11.5457 8.92539C11.6951 8.77607 11.9381 8.77598 12.0875 8.92539L14.4485 11.2865C14.5979 11.4358 14.5979 11.6788 14.4486 11.8281Z" fill="#1E866F"/>
<path d="M10.0192 14.687C10.0007 14.567 9.88818 14.4847 9.76865 14.5032C4.68403 15.2858 -2.30014 7.18599 1.55585 3.03532C1.59457 2.99363 1.61561 2.93855 1.61454 2.88166C1.61347 2.82477 1.59037 2.77052 1.55011 2.73031C1.38452 2.56505 1.40026 2.32423 1.54293 2.18153L2.22209 1.5024L5.12486 4.40522L4.44575 5.08435C4.29833 5.23168 4.05693 5.23309 3.90766 5.08737C3.81107 4.99312 3.65272 5.0075 3.57482 5.11783C3.22747 5.60938 3.30356 6.27676 3.48274 6.84878C3.51907 6.96453 3.64229 7.0291 3.75807 6.99269C3.7856 6.98406 3.81116 6.9701 3.83329 6.9516C3.85542 6.93309 3.87368 6.91041 3.88705 6.88484C3.90041 6.85928 3.90861 6.83133 3.91117 6.8026C3.91373 6.77387 3.91061 6.74491 3.90198 6.71739C3.79088 6.3631 3.7068 5.91163 3.8348 5.56162C4.13802 5.69835 4.50886 5.64254 4.75639 5.39507L6.38609 3.76532C6.70747 3.4439 6.70756 2.9237 6.38609 2.60229L4.02505 0.241077C3.70364 -0.080398 3.18347 -0.0803393 2.862 0.241135L1.23224 1.87089C0.960101 2.14306 0.918968 2.56013 1.10899 2.87624C0.644837 3.41715 0.322454 4.04129 0.149691 4.73431C-0.49985 7.33977 1.0603 10.0988 2.98103 12.0196C4.78238 13.821 7.33044 15.323 9.8355 14.9375C9.86401 14.9331 9.89138 14.9232 9.91605 14.9082C9.94071 14.8932 9.96218 14.8735 9.97924 14.8503C9.9963 14.827 10.0086 14.8006 10.0155 14.7726C10.0223 14.7446 10.0236 14.7155 10.0192 14.687ZM3.17269 0.551799C3.32234 0.402122 3.56462 0.401975 3.71436 0.551711L6.07542 2.91292C6.22513 3.06257 6.22513 3.30486 6.07542 3.45456L5.43555 4.09449L2.53282 1.1917L3.17269 0.551799Z" fill="#1E866F"/>
</svg>
