<svg width="15" height="17" viewBox="0 0 15 17" fill="none" xmlns="http://www.w3.org/2000/svg">
<path d="M14.9826 4.33319C14.875 3.7172 14.2986 3.30654 13.6944 3.41274L13.3333 3.47647V1.41608C13.3333 0.633694 12.7118 0 11.9444 0H4.7222C3.95483 0 3.33331 0.633694 3.33331 1.41608V7.82028C1.88886 9.32133 0.927057 11.233 0.576363 13.304L0.00691848 16.6601C-0.0243315 16.8124 0.0763629 16.9611 0.225668 16.9929C0.374974 17.0248 0.520807 16.9221 0.552057 16.7699C0.552057 16.7663 0.552057 16.7628 0.55553 16.7557L1.12845 13.3996C1.42359 11.6472 2.18747 10.0117 3.33331 8.66993V10.7905C3.33331 10.9463 3.45831 11.0737 3.61108 11.0737C3.76386 11.0737 3.88886 10.9463 3.88886 10.7905V1.41608C3.88886 0.945231 4.26039 0.566431 4.7222 0.566431H11.9444C12.4062 0.566431 12.7778 0.945231 12.7778 1.41608V5.61828C12.7118 5.61828 12.6458 5.62182 12.5798 5.63245L12.0312 5.73157C11.4271 5.84132 11.0243 6.42899 11.1284 7.04498C11.1736 7.29988 11.3021 7.53353 11.4965 7.69992C11.0347 8.09996 10.9791 8.80446 11.3715 9.2753C11.4965 9.42399 11.6528 9.53374 11.8333 9.601C11.7222 9.77801 11.6632 9.98688 11.6632 10.1993C11.6632 10.8259 12.1597 11.3322 12.7743 11.3322V14.4475C12.7743 14.9184 12.4028 15.2972 11.9409 15.2972H5.94095C6.01039 15.1095 6.059 14.9148 6.08678 14.7166C6.11803 14.4475 6.17011 14.182 6.23608 13.92C6.29164 13.7041 6.4722 13.5412 6.68747 13.5094L8.40275 13.2403C9.30553 13.0952 9.92358 12.242 9.79858 11.3215C9.78122 11.2082 9.7465 11.102 9.69095 11.0029C9.70483 10.925 9.71525 10.8436 9.71525 10.7657C9.71525 9.98688 9.0972 9.35319 8.32983 9.35319C7.60414 9.35319 6.99997 9.92316 6.94789 10.6595L6.50345 10.6914C5.98608 10.7303 5.47914 10.8401 4.99303 11.0206V3.6818C4.99303 3.52603 4.86803 3.39858 4.71525 3.39858C4.56247 3.39858 4.43747 3.52603 4.43747 3.6818V11.2436L3.76039 11.5339C2.32636 12.1535 1.38886 13.5943 1.38886 15.1874C1.38886 15.3432 1.51386 15.4706 1.66664 15.4706C1.81942 15.4706 1.94442 15.3432 1.94442 15.1874C1.94095 13.8209 2.7465 12.5854 3.98261 12.0544L4.95483 11.6366C5.46178 11.4171 5.99997 11.2861 6.54858 11.2472L8.87497 11.0808C9.06247 11.0702 9.22567 11.2047 9.25345 11.3923C9.33678 12.0048 8.92358 12.5748 8.32289 12.6739L6.60761 12.9429C6.17358 13.0102 5.81942 13.3359 5.70483 13.7678C5.63192 14.0546 5.57636 14.3413 5.54164 14.6352C5.40275 15.6583 4.54511 16.4194 3.5347 16.4229C3.38192 16.4229 3.25692 16.5504 3.25692 16.7062C3.25692 16.8619 3.38192 16.9894 3.5347 16.9894C4.37845 16.9858 5.17011 16.5646 5.65275 15.8565H8.96872C8.31247 16.2282 7.57636 16.4229 6.82636 16.4229C6.67358 16.4229 6.54858 16.5504 6.54858 16.7062C6.54858 16.8619 6.67358 16.9894 6.82636 16.9894C7.96872 16.9894 9.07636 16.5893 9.96525 15.8565H11.9444C12.7118 15.8565 13.3333 15.2228 13.3333 14.4404V11.3251C13.9444 11.3286 14.4444 10.8259 14.4479 10.2028C14.4514 9.70367 14.1319 9.26114 13.6632 9.11599C14.0139 8.64515 13.9444 7.97959 13.5034 7.59371C13.9653 7.19013 14.0173 6.47855 13.618 6.01125C13.5382 5.9192 13.4479 5.83778 13.3437 5.77759L14.0833 5.64307C14.6875 5.53686 15.0903 4.94919 14.9826 4.33319ZM8.83678 10.5215L7.51386 10.6135C7.59372 10.1533 8.02081 9.84527 8.47567 9.92316C8.79858 9.9798 9.059 10.2276 9.13886 10.5533C9.04164 10.525 8.94095 10.5144 8.83678 10.5215ZM12.1319 6.28738L12.6805 6.18826C12.7118 6.18117 12.7465 6.18118 12.7778 6.18118C13.0833 6.18118 13.3333 6.43607 13.3333 6.74761C13.3333 7.02374 13.1389 7.25739 12.875 7.30696L12.3264 7.40608C12.0243 7.45564 11.7396 7.24677 11.6875 6.93878C11.6389 6.63078 11.8368 6.34402 12.1319 6.28738ZM11.6805 8.64161C11.6284 8.33361 11.8298 8.03978 12.1319 7.98667L12.6805 7.88755C12.7118 7.88047 12.7465 7.88047 12.7778 7.88047C13.0833 7.88047 13.3333 8.13536 13.3333 8.4469C13.3333 8.72303 13.1389 8.95669 12.875 9.00625L12.3264 9.10537C12.0208 9.15494 11.7361 8.95315 11.6805 8.64161ZM13.8889 10.1958C13.8889 10.5073 13.6389 10.7622 13.3333 10.7622H12.7778C12.4722 10.7622 12.2222 10.5073 12.2222 10.1958C12.2222 9.88422 12.4722 9.62932 12.7778 9.62932H13.3333C13.6423 9.62932 13.8889 9.88422 13.8889 10.1958ZM13.3333 5.20762V4.05706L13.7916 3.97564C14.0937 3.92253 14.3819 4.12786 14.4375 4.43586C14.493 4.74386 14.2882 5.03769 13.9861 5.09434L13.3333 5.20762Z" fill="#1E866F"/>
<path d="M4.72211 1.69924C4.87553 1.69924 4.99989 1.57244 4.99989 1.41603C4.99989 1.25961 4.87553 1.13281 4.72211 1.13281C4.5687 1.13281 4.44434 1.25961 4.44434 1.41603C4.44434 1.57244 4.5687 1.69924 4.72211 1.69924Z" fill="#1E866F"/>
<path d="M5.8332 1.69924C5.98661 1.69924 6.11098 1.57244 6.11098 1.41603C6.11098 1.25961 5.98661 1.13281 5.8332 1.13281C5.67979 1.13281 5.55542 1.25961 5.55542 1.41603C5.55542 1.57244 5.67979 1.69924 5.8332 1.69924Z" fill="#1E866F"/>
<path d="M4.72211 2.8321H5.83322C6.49295 2.8321 7.06239 2.35772 7.19434 1.69924H11.6666V4.91728C11.6666 5.07305 11.7916 5.20049 11.9443 5.20049C12.0971 5.20049 12.2221 5.07305 12.2221 4.91728V1.41603C12.2221 1.26026 12.0971 1.13281 11.9443 1.13281H6.94434C6.79156 1.13281 6.66656 1.26026 6.66656 1.41603C6.66656 1.88687 6.29503 2.26567 5.83322 2.26567H4.72211C4.56934 2.26567 4.44434 2.39312 4.44434 2.54889C4.44434 2.70466 4.56934 2.8321 4.72211 2.8321ZM6.66309 14.4439C6.66309 14.5997 6.78809 14.7271 6.94086 14.7271H11.9443C12.0971 14.7271 12.2221 14.5997 12.2221 14.4439V11.7534C12.2221 11.5976 12.0971 11.4702 11.9443 11.4702C11.7916 11.4702 11.6666 11.5976 11.6666 11.7534V14.1607H6.94086C6.78809 14.1607 6.66309 14.2882 6.66309 14.4439Z" fill="#1E866F"/>
<path d="M9.93395 5.09771C9.77422 5.09771 9.63533 4.98796 9.59714 4.83219L9.55547 4.66226C9.45478 4.2516 9.09367 3.96484 8.68047 3.96484H7.9895C7.57631 3.96484 7.2152 4.2516 7.1145 4.66226L7.07284 4.83219C7.03464 4.98796 6.89575 5.10125 6.73603 5.10125C6.2395 5.10125 5.83672 5.51191 5.83325 6.01815V7.57584C5.83325 8.08209 6.23603 8.49629 6.73603 8.49629H8.88881C9.04159 8.49629 9.16658 8.36884 9.16658 8.21307C9.16658 8.0573 9.04159 7.92986 8.88881 7.92986H6.73603C6.54506 7.92986 6.38881 7.77055 6.38881 7.57584V6.01815C6.38881 5.82344 6.54506 5.66414 6.73603 5.66414C7.14922 5.66414 7.51034 5.37738 7.61103 4.96672L7.6527 4.79679C7.69089 4.64102 7.82978 4.53127 7.9895 4.53127H8.68047C8.8402 4.53127 8.97909 4.64102 9.01728 4.79679L9.05895 4.96672C9.15964 5.37738 9.52075 5.66414 9.93395 5.66414C10.1249 5.66414 10.2812 5.82344 10.2812 6.01815V7.57584C10.2812 7.77055 10.1249 7.92986 9.93395 7.92986C9.78117 7.92986 9.65617 8.0573 9.65617 8.21307C9.65617 8.36884 9.78117 8.49629 9.93395 8.49629C10.4305 8.49629 10.8367 8.08563 10.8367 7.57584V6.01815C10.8333 5.50837 10.4305 5.09771 9.93395 5.09771Z" fill="#1E866F"/>
<path d="M8.33331 5.52344C7.79511 5.52344 7.36108 5.96596 7.36108 6.51469C7.36108 7.06342 7.79511 7.50594 8.33331 7.50594C8.8715 7.50594 9.30553 7.06342 9.30553 6.51469C9.30553 5.96596 8.8715 5.52344 8.33331 5.52344ZM8.33331 6.93951C8.10414 6.93951 7.91664 6.74834 7.91664 6.51469C7.91664 6.28104 8.10414 6.08987 8.33331 6.08987C8.56247 6.08987 8.74997 6.28104 8.74997 6.51469C8.74997 6.74834 8.56595 6.93951 8.33331 6.93951Z" fill="#1E866F"/>
</svg>
