<svg width="14" height="11" viewBox="0 0 14 11" fill="none" xmlns="http://www.w3.org/2000/svg">
<path d="M2.65379 7.42188C2.32866 7.42188 2.0647 7.15791 2.0647 6.83278C2.0647 6.50765 2.32866 6.24368 2.65379 6.24368C2.97892 6.24368 3.24289 6.50765 3.24289 6.83278C3.24611 7.15791 2.98214 7.42188 2.65379 7.42188Z" stroke="#545454" stroke-width="0.4" stroke-miterlimit="10" stroke-linecap="round" stroke-linejoin="round"/>
<path d="M4.38873 5.80931L3.96381 6.91024C3.92518 7.01325 4.02497 7.11626 4.1312 7.07763L5.23213 6.65271C5.41562 6.58189 5.5798 6.47566 5.71822 6.33724L9.83223 2.22001C10.1123 1.93995 10.1123 1.48606 9.83223 1.20921C9.55217 0.929153 9.09827 0.929153 8.82143 1.20921L4.7042 5.32322C4.569 5.46165 4.45955 5.62582 4.38873 5.80931Z" stroke="#545454" stroke-width="0.4" stroke-miterlimit="10" stroke-linecap="round" stroke-linejoin="round"/>
<path d="M9.4461 2.60742L8.4353 1.59662" stroke="#545454" stroke-width="0.4" stroke-miterlimit="10" stroke-linecap="round" stroke-linejoin="round"/>
<path d="M5.60954 6.43164L4.6084 5.4305" stroke="#545454" stroke-width="0.4" stroke-miterlimit="10" stroke-linecap="round" stroke-linejoin="round"/>
<path d="M5.6508 3.51456H4.00262C3.67105 3.51456 3.35236 3.65942 3.13668 3.91373L1.27282 6.09306C0.90906 6.51798 0.90906 7.1457 1.27282 7.57384L3.13668 9.75318C3.35236 10.0075 3.66783 10.1523 4.00262 10.1523H11.8604C12.4882 10.1523 13 9.64373 13 9.01278V4.65412C13 4.0264 12.4914 3.51456 11.8604 3.51456H9.42036" stroke="#545454" stroke-width="0.4" stroke-miterlimit="10" stroke-linecap="round" stroke-linejoin="round"/>
<path d="M2.30986 6.35352L1.02222 5.06588" stroke="#545454" stroke-width="0.4" stroke-miterlimit="10" stroke-linecap="round" stroke-linejoin="round"/>
<path d="M7.83936 5.77734H10.8299" stroke="#545454" stroke-width="0.4" stroke-miterlimit="10" stroke-linecap="round" stroke-linejoin="round"/>
<path d="M7.83936 6.83398H10.8299" stroke="#545454" stroke-width="0.4" stroke-miterlimit="10" stroke-linecap="round" stroke-linejoin="round"/>
<path d="M5.51221 7.88867H10.8302" stroke="#545454" stroke-width="0.4" stroke-miterlimit="10" stroke-linecap="round" stroke-linejoin="round"/>
<path d="M8.9279 2.08919L5.09717 5.91992" stroke="#545454" stroke-width="0.4" stroke-miterlimit="10" stroke-linecap="round" stroke-linejoin="round"/>
</svg>
