<svg width="11" height="14" viewBox="0 0 11 14" fill="none" xmlns="http://www.w3.org/2000/svg">
<path fill-rule="evenodd" clip-rule="evenodd" d="M0.8125 12.9375C0.8125 12.8546 0.845424 12.7751 0.904029 12.7165C0.962634 12.6579 1.04212 12.625 1.125 12.625H10.5C10.5829 12.625 10.6624 12.6579 10.721 12.7165C10.7796 12.7751 10.8125 12.8546 10.8125 12.9375C10.8125 13.0204 10.7796 13.0999 10.721 13.1585C10.6624 13.2171 10.5829 13.25 10.5 13.25H1.125C1.04212 13.25 0.962634 13.2171 0.904029 13.1585C0.845424 13.0999 0.8125 13.0204 0.8125 12.9375Z" fill="#1E866F"/>
<path fill-rule="evenodd" clip-rule="evenodd" d="M2.0625 6.375V12.625H3.625V6.375H2.0625ZM1.75 5.75C1.66712 5.75 1.58763 5.78292 1.52903 5.84153C1.47042 5.90013 1.4375 5.97962 1.4375 6.0625V12.9375C1.4375 13.0204 1.47042 13.0999 1.52903 13.1585C1.58763 13.2171 1.66712 13.25 1.75 13.25H3.9375C4.02038 13.25 4.09987 13.2171 4.15847 13.1585C4.21708 13.0999 4.25 13.0204 4.25 12.9375V6.0625C4.25 5.97962 4.21708 5.90013 4.15847 5.84153C4.09987 5.78292 4.02038 5.75 3.9375 5.75H1.75Z" fill="#1E866F"/>
<path fill-rule="evenodd" clip-rule="evenodd" d="M3.625 0.75L8.625 2.625V7H8V3.05812L4.25 1.65187V12.625H6.75C6.75 12.7079 6.78292 12.7874 6.84153 12.846C6.90013 12.9046 6.97962 12.9375 7.0625 12.9375H8.625V13.25H3.625V0.75Z" fill="#1E866F"/>
<path d="M4.5625 3.5625H5.1875V4.1875H4.5625V3.5625ZM5.8125 3.5625H6.4375V4.1875H5.8125V3.5625ZM7.0625 3.5625H7.6875V4.1875H7.0625V3.5625ZM4.5625 4.8125H5.1875V5.4375H4.5625V4.8125ZM5.8125 4.8125H6.4375V5.4375H5.8125V4.8125ZM7.0625 4.8125H7.6875V5.4375H7.0625V4.8125ZM4.5625 6.0625H5.1875V6.6875H4.5625V6.0625ZM5.8125 6.0625H6.4375V6.6875H5.8125V6.0625ZM7.0625 6.0625H7.6875V6.6875H7.0625V6.0625ZM4.5625 7.3125H5.1875V7.9375H4.5625V7.3125ZM5.8125 7.3125H6.4375V7.9375H5.8125V7.3125ZM4.5625 8.5625H5.1875V9.1875H4.5625V8.5625ZM5.8125 8.5625H6.4375V9.1875H5.8125V8.5625ZM4.5625 9.8125H5.1875V10.4375H4.5625V9.8125ZM5.8125 9.8125H6.4375V10.4375H5.8125V9.8125ZM4.5625 11.0625H5.1875V11.6875H4.5625V11.0625ZM5.8125 11.0625H6.4375V11.6875H5.8125V11.0625Z" fill="#1E866F"/>
<path fill-rule="evenodd" clip-rule="evenodd" d="M7.375 7.625V12.625H9.5625V7.625H7.375ZM7.0625 7C6.97962 7 6.90013 7.03292 6.84153 7.09153C6.78292 7.15013 6.75 7.22962 6.75 7.3125V12.9375C6.75 13.0204 6.78292 13.0999 6.84153 13.1585C6.90013 13.2171 6.97962 13.25 7.0625 13.25H9.875C9.95788 13.25 10.0374 13.2171 10.096 13.1585C10.1546 13.0999 10.1875 13.0204 10.1875 12.9375V7.3125C10.1875 7.22962 10.1546 7.15013 10.096 7.09153C10.0374 7.03292 9.95788 7 9.875 7H7.0625Z" fill="#1E866F"/>
<path fill-rule="evenodd" clip-rule="evenodd" d="M8.9375 8.875H8V8.25H8.9375V8.875ZM8.9375 10.125H8V9.5H8.9375V10.125ZM8.9375 11.375H8V10.75H8.9375V11.375ZM8.9375 12.625H8V12H8.9375V12.625ZM3 3.5625V6.375H2.375V3.5625H3Z" fill="#1E866F"/>
</svg>
