<svg width="16" height="16" viewBox="0 0 16 16" fill="none" xmlns="http://www.w3.org/2000/svg">
<path d="M15.4777 11.6138L9.74912 6.49507L11.1095 5.13742L11.4269 5.45476C11.4525 5.48062 11.483 5.50115 11.5167 5.51516C11.5503 5.52917 11.5864 5.53638 11.6228 5.53638C11.6592 5.53638 11.6953 5.52917 11.7289 5.51516C11.7625 5.50115 11.7931 5.48062 11.8187 5.45476L12.2547 5.01877C12.3598 4.9137 12.4432 4.78895 12.5001 4.65164C12.557 4.51433 12.5863 4.36716 12.5863 4.21853C12.5863 4.0699 12.557 3.92272 12.5001 3.78542C12.4432 3.64811 12.3598 3.52336 12.2547 3.41829L9.16688 0.33047C8.95433 0.118825 8.66659 0 8.36664 0C8.06669 0 7.77895 0.118825 7.5664 0.33047L7.13041 0.769222C7.07901 0.820923 7.05016 0.890862 7.05016 0.963763C7.05016 1.03666 7.07901 1.1066 7.13041 1.1583L7.59123 1.61913L3.25339 5.95698L2.79256 5.49891C2.74086 5.44752 2.67092 5.41867 2.59802 5.41867C2.52512 5.41867 2.45518 5.44752 2.40348 5.49891L1.96473 5.9349C1.8596 6.03997 1.7762 6.16472 1.7193 6.30203C1.6624 6.43934 1.63312 6.58651 1.63312 6.73514C1.63312 6.88377 1.6624 7.03095 1.7193 7.16826C1.7762 7.30556 1.8596 7.43032 1.96473 7.53538L5.05254 10.6204C5.15761 10.7256 5.28236 10.809 5.41967 10.8659C5.55698 10.9228 5.70415 10.9521 5.85278 10.9521C6.00141 10.9521 6.14859 10.9228 6.2859 10.8659C6.4232 10.809 6.54796 10.7256 6.65302 10.6204L7.08902 10.19C7.11488 10.1643 7.13541 10.1338 7.14942 10.1002C7.16343 10.0665 7.17064 10.0305 7.17064 9.99405C7.17064 9.95762 7.16343 9.92155 7.14942 9.88793C7.13541 9.8543 7.11488 9.82378 7.08902 9.79813L6.77168 9.48079L8.12933 8.12038L13.2453 13.8435C13.3889 14.0028 13.5634 14.1314 13.7581 14.2213C13.9529 14.3112 14.1639 14.3607 14.3783 14.3666C14.5927 14.3725 14.8061 14.3348 15.0055 14.2558C15.205 14.1768 15.3863 14.0581 15.5384 13.9069C15.6898 13.7549 15.8087 13.5738 15.8879 13.3745C15.9672 13.1751 16.0051 12.9618 15.9994 12.7474C15.9938 12.533 15.9446 12.3219 15.8549 12.1271C15.7652 11.9322 15.6369 11.7576 15.4777 11.6138ZM7.95824 0.722311C8.06902 0.614433 8.21753 0.554066 8.37216 0.554066C8.52678 0.554066 8.6753 0.614433 8.78607 0.722311L11.8656 3.81013C11.9203 3.86428 11.9638 3.92874 11.9934 3.99979C12.0231 4.07083 12.0384 4.14706 12.0384 4.22405C12.0384 4.30104 12.0231 4.37726 11.9934 4.44831C11.9638 4.51936 11.9203 4.58382 11.8656 4.63796L11.6228 4.8808L7.72645 0.962383L7.95824 0.722311ZM6.26118 10.2314C6.20704 10.2861 6.14257 10.3295 6.07153 10.3592C6.00048 10.3888 5.92425 10.4041 5.84726 10.4041C5.77028 10.4041 5.69405 10.3888 5.623 10.3592C5.55196 10.3295 5.48749 10.2861 5.43335 10.2314L2.35657 7.15458C2.30234 7.10071 2.25931 7.03665 2.22995 6.96609C2.20059 6.89553 2.18547 6.81985 2.18548 6.74342C2.18427 6.666 2.19881 6.58914 2.22822 6.51751C2.25763 6.44588 2.3013 6.38098 2.35657 6.32674L2.59664 6.08391L6.50401 9.98853L6.26118 10.2314ZM3.64247 6.34606L7.98032 2.00821L10.7177 4.74558L6.37984 9.08619L3.64247 6.34606ZM15.1521 13.5206C15.0528 13.6186 14.9347 13.6954 14.8049 13.7466C14.6751 13.7977 14.5363 13.8221 14.3969 13.8182C14.2574 13.8143 14.1202 13.7823 13.9934 13.7241C13.8667 13.6658 13.753 13.5825 13.6593 13.4792L8.52117 7.72578L9.349 6.89795L15.1107 12.025C15.214 12.1187 15.2973 12.2324 15.3556 12.3592C15.4138 12.4859 15.4458 12.6232 15.4497 12.7626C15.4536 12.9021 15.4292 13.0408 15.3781 13.1706C15.3269 13.3004 15.2501 13.4185 15.1521 13.5179V13.5206ZM9.58079 15.4329H9.06754V14.0256C9.06754 13.9524 9.03846 13.8822 8.98672 13.8305C8.93497 13.7787 8.86478 13.7497 8.79159 13.7497H8.37216V13.1978C8.37216 13.1246 8.34308 13.0544 8.29134 13.0026C8.23959 12.9509 8.1694 12.9218 8.09621 12.9218H1.74949C1.6763 12.9218 1.60612 12.9509 1.55437 13.0026C1.50262 13.0544 1.47354 13.1246 1.47354 13.1978V13.7497H1.06515C0.991961 13.7497 0.921773 13.7787 0.870024 13.8305C0.818274 13.8822 0.789201 13.9524 0.789201 14.0256V15.4329H0.275945C0.202759 15.4329 0.132572 15.462 0.0808223 15.5137C0.0290726 15.5655 0 15.6357 0 15.7089C0 15.782 0.0290726 15.8522 0.0808223 15.904C0.132572 15.9557 0.202759 15.9848 0.275945 15.9848H9.58079C9.65398 15.9848 9.72417 15.9557 9.77592 15.904C9.82767 15.8522 9.85674 15.782 9.85674 15.7089C9.85674 15.6357 9.82767 15.5655 9.77592 15.5137C9.72417 15.462 9.65398 15.4329 9.58079 15.4329ZM2.03647 13.4599H7.83131V13.7359H2.03647V13.4599ZM1.34109 15.4329V14.3015H8.51565V15.4329H1.34109Z" fill="#1E866F"/>
</svg>
