<svg width="17" height="16" viewBox="0 0 17 16" fill="none" xmlns="http://www.w3.org/2000/svg">
<g clip-path="url(#clip0_8038_1559)">
<path d="M0.773438 4.33203V0.667969H4.44141C4.88281 0.667969 4.88281 0 4.44141 0H0.4375C0.253906 0 0.105469 0.148438 0.105469 0.332031V4.33203C0.105469 4.77344 0.773438 4.77344 0.773438 4.33203ZM4.4375 15.3359H0.773438V11.668C0.773438 11.2266 0.105469 11.2266 0.105469 11.668V15.668C0.105469 15.8516 0.253906 16 0.4375 16H4.4375C4.87891 16 4.87891 15.3359 4.4375 15.3359ZM16.1055 0.332031C16.1055 0.148438 15.957 0 15.7734 0H11.7734C11.332 0 11.332 0.667969 11.7734 0.667969H15.4414V4.33594C15.4414 4.77734 16.1094 4.77734 16.1094 4.33594V0.332031H16.1055ZM15.4375 11.668V15.3359H11.7695C11.3281 15.3359 11.3281 16.0039 11.7695 16.0039H15.7695C15.9531 16.0039 16.1016 15.8555 16.1016 15.6719V11.668C16.1055 11.2266 15.4375 11.2266 15.4375 11.668ZM3.4375 4.33203C3.4375 4.51562 3.58594 4.66406 3.76953 4.66406H4.4375C4.62109 4.66406 4.76953 4.51562 4.76953 4.33203V3.66797C4.76953 3.48438 4.62109 3.33594 4.4375 3.33594H3.77344C3.58984 3.33594 3.44141 3.48438 3.44141 3.66797V4.33203H3.4375Z" fill="#545454"/>
<path d="M2.4375 2C2.25391 2 2.10547 2.14844 2.10547 2.33203V5.66406C2.10547 5.84766 2.25391 5.99609 2.4375 5.99609H5.76953C5.95312 5.99609 6.10156 5.84766 6.10156 5.66406V2.33203C6.10156 2.14844 5.95312 2 5.76953 2H2.4375ZM2.77344 2.66797H5.44141V5.33594H2.77344V2.66797ZM4.77344 11.668C4.77344 11.4844 4.625 11.3359 4.44141 11.3359H3.77344C3.58984 11.3359 3.44141 11.4844 3.44141 11.668V12.3359C3.44141 12.5195 3.58984 12.668 3.77344 12.668H4.44141C4.625 12.668 4.77344 12.5195 4.77344 12.3359V11.668Z" fill="#545454"/>
<path d="M6.10547 10.332C6.10547 10.1484 5.95703 10 5.77344 10H2.4375C2.25391 10 2.10547 10.1484 2.10547 10.332V13.6641C2.10547 13.8477 2.25391 13.9961 2.4375 13.9961H5.76953C5.95312 13.9961 6.10156 13.8477 6.10156 13.6641V10.332H6.10547ZM5.4375 13.332H2.77344V10.6641H5.44141V13.332H5.4375ZM11.4375 4.33203C11.4375 4.51562 11.5859 4.66406 11.7695 4.66406H12.4375C12.6211 4.66406 12.7695 4.51562 12.7695 4.33203V3.66797C12.7695 3.48438 12.6211 3.33594 12.4375 3.33594H11.7695C11.5859 3.33594 11.4375 3.48438 11.4375 3.66797V4.33203Z" fill="#545454"/>
<path d="M10.1055 5.66797C10.1055 5.85156 10.2539 6 10.4375 6H13.7695C13.9531 6 14.1016 5.85156 14.1016 5.66797V2.33203C14.1016 2.14844 13.9531 2 13.7695 2H10.4375C10.2539 2 10.1055 2.14844 10.1055 2.33203V5.66797ZM10.7734 2.66797H13.4414V5.33594H10.7734V2.66797ZM4.4375 9.33203H7.10547C7.54688 9.33203 7.54688 8.66406 7.10547 8.66406H6.10547V7.66406C6.10547 7.22266 5.4375 7.22266 5.4375 7.66406V8.66406H4.4375C3.99609 8.66797 4 9.33203 4.4375 9.33203ZM7.4375 3V2.33203C7.4375 1.89062 6.76953 1.89062 6.76953 2.33203V3C6.77344 3.44141 7.4375 3.44141 7.4375 3ZM7.10547 4.66797H8.4375C8.62109 4.66797 8.76953 4.51953 8.76953 4.33594V3.33203H9.10156C9.54297 3.33203 9.54297 2.66406 9.10156 2.66406H8.43359C8.25 2.66406 8.10156 2.8125 8.10156 2.99609V3.99609H7.10156C6.66406 4 6.66406 4.66797 7.10547 4.66797ZM7.10547 8H8.4375C8.87891 8 8.87891 7.33203 8.4375 7.33203H8.10547V6H9.10547C9.54688 6 9.54688 5.33203 9.10547 5.33203H7.77344C7.58984 5.33203 7.44141 5.48047 7.44141 5.66406V7.33203H7.10938C6.66406 7.33203 6.66406 8 7.10547 8ZM9.4375 7.66797C9.4375 8.10938 10.1055 8.10938 10.1055 7.66797V7C10.1055 6.55859 9.4375 6.55859 9.4375 7V7.66797ZM7.4375 11.332H8.10547V11.6641C8.10547 12.1055 8.77344 12.1055 8.77344 11.6641V9.66406C8.77344 9.22266 8.10547 9.22266 8.10547 9.66406V10.6641H7.10547C6.92188 10.6641 6.77344 10.8125 6.77344 10.9961V11.6641C6.77344 12.1055 7.44141 12.1055 7.44141 11.6641V11.332H7.4375ZM10.1055 11.668V12H9.77344C9.58984 12 9.44141 12.1484 9.44141 12.332V13.332H7.77344C7.33203 13.332 7.33203 14 7.77344 14H9.77344C9.95703 14 10.1055 13.8516 10.1055 13.668V12.668H10.4375C10.6211 12.668 10.7695 12.5195 10.7695 12.3359V11.668C10.7734 11.2266 10.1055 11.2266 10.1055 11.668ZM12.1055 12.332V13.332H11.7734C11.332 13.332 11.332 14 11.7734 14H13.7734C14.2148 14 14.2148 13.332 13.7734 13.332H12.7734V12.332C12.7734 11.8906 12.1055 11.8945 12.1055 12.332ZM14.1055 10.332C14.1055 10.1484 13.957 10 13.7734 10H11.7734C11.332 10 11.332 10.668 11.7734 10.668H13.4414V11.668C13.4414 12.1094 14.1094 12.1094 14.1094 11.668V10.332H14.1055ZM14.1055 7.66797C14.1055 7.22656 13.4375 7.22656 13.4375 7.66797V8.66797H13.1055C12.6641 8.66797 12.6641 9.33594 13.1055 9.33594H13.7734C13.957 9.33594 14.1055 9.1875 14.1055 9.00391V7.66797ZM12.1055 9V7.33203H12.4375C12.8789 7.33203 12.8789 6.66406 12.4375 6.66406H11.7695C11.5859 6.66406 11.4375 6.8125 11.4375 6.99609V8.66406H10.4375C10.2539 8.66406 10.1055 8.8125 10.1055 8.99609V10H9.77344C9.33203 10 9.33203 10.668 9.77344 10.668H10.4414C10.625 10.668 10.7734 10.5195 10.7734 10.3359V9.33594H11.7734C11.957 9.33203 12.1055 9.18359 12.1055 9ZM2.10547 7V9C2.10547 9.44141 2.77344 9.44141 2.77344 9V8H3.77344C4.21484 8 4.21484 7.33203 3.77344 7.33203H2.77344V7C2.77344 6.55859 2.10547 6.55859 2.10547 7Z" fill="#545454"/>
</g>
<defs>
<clipPath id="clip0_8038_1559">
<rect width="16" height="16" fill="white" transform="translate(0.105469)"/>
</clipPath>
</defs>
</svg>
