<svg width="31" height="31" viewBox="0 0 31 31" fill="none" xmlns="http://www.w3.org/2000/svg">
<path d="M12.1552 7.23633C12.5622 7.23633 12.9692 7.23633 13.3762 7.23633C13.3762 7.64134 13.3762 8.04635 13.3762 8.45136C13.8103 8.45136 14.2173 8.45136 14.5972 8.45136C14.5972 8.85637 14.5972 9.23438 14.5972 9.66639C17.0391 9.66639 19.4267 9.66639 21.8958 9.66639C21.8958 10.5034 21.8958 11.2864 21.8958 12.0965C22.3299 12.0965 22.7098 12.0965 23.1439 12.0965C23.1439 11.2864 23.1439 10.5034 23.1439 9.69339C23.5509 9.69339 23.9307 9.69339 24.3377 9.69339C24.3377 10.8814 24.3377 12.0695 24.3377 13.3115C23.9578 13.3115 23.5509 13.3115 23.1439 13.3115C23.1439 13.7705 23.1439 14.2025 23.1439 14.6615C23.1439 15.0125 23.1167 15.3635 23.1167 15.6876C22.7369 15.6876 22.357 15.6876 21.9229 15.6876C21.9229 14.9045 21.9229 14.1215 21.9229 13.3385C21.4888 13.3385 21.1089 13.3385 20.702 13.3385C20.702 14.9585 20.702 16.5246 20.702 18.1446C21.1089 18.1446 21.5159 18.1446 21.9501 18.1446C21.9501 17.7396 21.9501 17.3616 21.9501 16.9566C22.357 16.9566 22.7369 16.9566 23.171 16.9566C23.1439 16.5246 23.1167 16.1196 23.1167 15.7146C23.5237 15.7146 23.9579 15.7416 24.3648 15.7416C24.3648 16.9566 24.3648 18.1716 24.3648 19.3867C24.799 19.3867 25.1788 19.3867 25.6129 19.3867C25.6129 18.9816 25.6129 18.5766 25.6129 18.1716C26.0471 18.1716 26.4269 18.1716 26.8068 18.1716C26.8068 18.5766 26.8068 18.9816 26.8068 19.3867C27.2409 19.3867 27.6479 19.3867 28.0277 19.3867C28.0277 19.7917 28.0277 20.1697 28.0277 20.6017C27.6207 20.6017 27.2409 20.6017 26.8068 20.6017C26.8068 21.4387 26.8068 22.2217 26.8068 23.0318C26.3998 23.0318 26.0199 23.0318 25.6129 23.0318C25.6129 23.4368 25.6129 23.8418 25.6129 24.2468C26.3998 24.2468 27.2137 24.2468 28.0277 24.2468C28.0277 24.6518 28.0277 25.0568 28.0277 25.4618C27.2137 25.4618 26.4269 25.4618 25.5858 25.4618C25.5858 25.8668 25.5858 26.2718 25.5858 26.6768C25.1517 26.6768 24.7447 26.6768 24.3377 26.6768C24.3377 26.2718 24.3377 25.8668 24.3377 25.4888C23.9307 25.4888 23.5237 25.4888 23.1167 25.4888C23.1167 25.8938 23.1167 26.2988 23.1167 26.6768C22.7369 26.6768 22.3299 26.6768 21.9229 26.6768C21.9229 26.2718 21.9229 25.8938 21.9229 25.4888C20.2678 25.4888 18.667 25.4888 17.0391 25.4888C17.0391 25.8938 17.0391 26.2718 17.0391 26.7039C18.26 26.7039 19.4539 26.7039 20.6748 26.7039C20.6748 27.1089 20.6748 27.4869 20.6748 27.9189C19.888 27.9189 19.074 27.9189 18.26 27.9189C18.26 28.7559 18.26 29.5389 18.26 30.349C17.4461 30.349 16.6321 30.349 15.8453 30.349C15.8181 29.9439 15.8181 29.5119 15.791 29.1069C16.198 29.1339 16.6321 29.1339 17.0391 29.1609C17.0391 28.7019 17.0391 28.3239 17.0391 27.9459C16.6321 27.9459 16.2251 27.9459 15.791 27.9459C15.791 28.3509 15.791 28.7289 15.791 29.1069C15.3569 29.1069 14.9227 29.1339 14.5158 29.1339C14.163 29.1339 13.7832 29.1339 13.4305 29.1339C13.4305 28.7289 13.4305 28.3509 13.4305 27.9189C13.8374 27.9189 14.2444 27.9189 14.6514 27.9189C14.6514 27.4869 14.6514 27.0819 14.6514 26.6768C15.0313 26.6768 15.4383 26.6768 15.8181 26.6768C15.8181 26.2718 15.8181 25.8668 15.8181 25.4888C15.4111 25.4888 15.0313 25.4888 14.6514 25.4888C14.6514 25.8938 14.6514 26.2988 14.6514 26.6768C13.8374 26.6768 13.0235 26.6768 12.2095 26.6768C12.2095 26.2718 12.2095 25.8668 12.2095 25.4888C11.7754 25.4888 11.3955 25.4888 11.0157 25.4888C11.0157 25.8938 11.0157 26.2988 11.0157 26.6768C11.4227 26.6768 11.8296 26.6768 12.2366 26.6768C12.2366 27.4869 12.2366 28.2969 12.2366 29.1069C11.8296 29.1069 11.4498 29.1069 11.0157 29.1069C11.0157 29.5119 11.0157 29.9169 11.0157 30.3219C10.6087 30.3219 10.2017 30.3219 9.82185 30.3219C9.82185 28.2969 9.82185 26.2988 9.82185 24.2738C10.2017 24.2738 10.6087 24.2738 11.0157 24.2738C11.0157 23.8688 11.0157 23.4638 11.0157 23.0318C10.6358 23.0318 10.2288 23.0318 9.82185 23.0318C9.82185 22.2217 9.82185 21.4117 9.82185 20.6017C8.60089 20.6017 7.37993 20.6017 6.13184 20.6017C6.13184 20.1697 6.13184 19.7647 6.13184 19.3597C6.94581 19.3597 7.75978 19.3597 8.57376 19.3597C8.57376 18.9276 8.57376 18.5496 8.57376 18.1446C8.98074 18.1446 9.38773 18.1446 9.79472 18.1446C9.79472 18.5496 9.79472 18.9546 9.79472 19.3597C10.2288 19.3597 10.6358 19.3597 11.0157 19.3597C11.0157 20.1697 11.0157 20.9797 11.0157 21.7897C11.4498 21.7897 11.8568 21.7897 12.2366 21.7897C12.2366 22.5997 12.2366 23.4098 12.2366 24.2198C12.6708 24.2198 13.0777 24.2198 13.4847 24.2198C13.4847 23.8148 13.4847 23.4368 13.4847 23.0318C13.6204 23.0318 13.7289 23.0318 13.8374 23.0318C14.5158 23.0318 15.1941 23.0318 15.8724 23.0048C15.8724 23.4098 15.8724 23.8148 15.8724 24.2198C16.2794 24.2198 16.6864 24.2198 17.0933 24.2198C17.0933 23.8148 17.0933 23.4368 17.0933 23.0048C16.6864 23.0048 16.2794 23.0048 15.8724 23.0048C15.8724 22.5997 15.8724 22.2217 15.8724 21.7897C16.3065 21.7897 16.7135 21.7897 17.0933 21.7897C17.0933 21.3577 17.0933 20.9797 17.0933 20.5747C16.6864 20.5747 16.3065 20.5747 15.8724 20.5747C15.8724 20.1427 15.8724 19.7647 15.8724 19.3597C16.6864 19.3597 17.4732 19.3597 18.3143 19.3597C18.3143 19.7647 18.3143 20.1697 18.3143 20.5747C18.7484 20.5747 19.1283 20.5747 19.5353 20.5747C19.5353 19.7647 19.5353 18.9816 19.5353 18.1446C19.1283 18.1446 18.7484 18.1446 18.3414 18.1446C18.3414 17.7396 18.3414 17.3616 18.3414 16.9566C18.7213 16.9566 19.1283 16.9566 19.5353 16.9566C19.5353 16.5516 19.5353 16.1466 19.5353 15.7146C19.1554 15.7146 18.7484 15.7146 18.3414 15.7146C18.3414 15.5796 18.3414 15.4985 18.3414 15.4175C18.3414 14.4185 18.3414 13.3925 18.3414 12.3935C18.3414 12.3125 18.3414 12.2045 18.3143 12.1235C18.7213 12.1235 19.1283 12.1235 19.5353 12.1235C19.5353 11.6914 19.5353 11.3134 19.5353 10.9354C19.1283 10.9354 18.7213 10.9354 18.3143 10.9354C18.3143 11.3404 18.3143 11.7454 18.3143 12.1505C17.9344 12.1505 17.5275 12.1505 17.1205 12.1505C17.1205 11.7454 17.1205 11.3404 17.1205 10.9354C16.6864 10.9354 16.3065 10.9354 15.8724 10.9354C15.8724 11.3404 15.8724 11.7184 15.8724 12.1235C15.4925 12.1235 15.1127 12.1235 14.7057 12.1235C14.7057 11.7455 14.7057 11.3404 14.7057 10.9354C14.2716 10.9354 13.8646 10.9354 13.4576 10.9354C13.4576 10.5304 13.4576 10.1254 13.4576 9.7204C13.0235 9.7204 12.6436 9.7204 12.2366 9.7204C12.2366 10.1254 12.2366 10.5304 12.2366 10.9354C10.6087 10.9354 9.00787 10.9354 7.37993 10.9354C7.37993 10.5304 7.37993 10.1524 7.37993 9.7474C8.57376 9.7474 9.79472 9.7474 11.0157 9.7474C11.0157 9.31538 11.0157 8.91037 11.0157 8.50536C11.4227 8.50536 11.8296 8.50536 12.2366 8.50536C12.1552 8.04635 12.1552 7.64134 12.1552 7.23633ZM24.3377 24.2198C24.3377 22.9778 24.3377 21.7897 24.3377 20.6017C23.1167 20.6017 21.8958 20.6017 20.702 20.6017C20.702 21.8167 20.702 23.0318 20.702 24.2198C21.9229 24.2198 23.1167 24.2198 24.3377 24.2198ZM18.2329 21.8167C18.2329 22.6267 18.2329 23.4368 18.2329 24.2198C18.6399 24.2198 19.0469 24.2198 19.4267 24.2198C19.4267 23.4098 19.4267 22.5997 19.4267 21.8167C19.0469 21.8167 18.667 21.8167 18.2329 21.8167Z" fill="#151515" fill-opacity="0.82"/>
<path d="M21.9231 0C24.772 0 27.5938 0 30.4155 0C30.4155 2.80807 30.4155 5.61615 30.4155 8.45123C27.5938 8.45123 24.7449 8.45123 21.9231 8.45123C21.9231 5.64315 21.9231 2.83508 21.9231 0ZM29.2217 1.16103C27.1597 1.16103 25.1519 1.16103 23.1169 1.16103C23.1169 3.18609 23.1169 5.21114 23.1169 7.20919C25.1519 7.20919 27.1868 7.20919 29.2217 7.20919C29.2217 5.21114 29.2217 3.18609 29.2217 1.16103Z" fill="#151515" fill-opacity="0.82"/>
<path d="M8.46532 30.2946C5.64355 30.2946 2.82177 30.2946 0 30.2946C0 27.4596 0 24.6515 0 21.8164C2.82177 21.8164 5.64355 21.8164 8.46532 21.8164C8.46532 24.6515 8.46532 27.4596 8.46532 30.2946ZM7.27149 23.0314C5.20943 23.0314 3.20163 23.0314 1.16669 23.0314C1.16669 25.0565 1.16669 27.0815 1.16669 29.0796C3.20163 29.0796 5.23656 29.0796 7.27149 29.0796C7.27149 27.0545 7.27149 25.0565 7.27149 23.0314Z" fill="#151515" fill-opacity="0.82"/>
<path d="M0 8.45123C0 5.61615 0 2.80807 0 0C2.82177 0 5.64355 0 8.46532 0C8.46532 2.80807 8.46532 5.61615 8.46532 8.42423C5.64355 8.45123 2.84891 8.45123 0 8.45123ZM7.27149 7.23619C7.27149 5.18414 7.27149 3.18609 7.27149 1.16103C5.23656 1.16103 3.20163 1.16103 1.19383 1.16103C1.19383 3.18609 1.19383 5.21114 1.19383 7.23619C3.20163 7.23619 5.23656 7.23619 7.27149 7.23619Z" fill="#151515" fill-opacity="0.82"/>
<path d="M6.05057 13.3388C6.45756 13.3388 6.86455 13.3388 7.27153 13.3388C7.27153 13.7438 7.27153 14.1488 7.27153 14.5538C7.67852 14.5538 8.08551 14.5538 8.46536 14.5538C8.46536 14.1488 8.46536 13.7438 8.46536 13.3658C8.05838 13.3658 7.65139 13.3658 7.2444 13.3658C7.2444 12.9608 7.2444 12.5827 7.2444 12.1777C8.46536 12.1777 9.65919 12.1777 10.9073 12.1777C10.9073 12.9878 10.9073 13.7708 10.9073 14.5808C11.7213 14.5808 12.5352 14.5808 13.3492 14.5808C13.3492 14.9858 13.3492 15.3638 13.3492 15.7418C12.1282 15.7418 10.9073 15.7418 9.68632 15.7418C9.68632 16.1738 9.68632 16.5789 9.68632 16.9569C9.27934 16.9569 8.87235 16.9569 8.46536 16.9569C8.46536 16.5519 8.46536 16.1468 8.46536 15.7688C8.03124 15.7688 7.65139 15.7688 7.2444 15.7688C7.2444 16.1738 7.2444 16.5789 7.2444 16.9569C6.83742 16.9569 6.43043 16.9569 6.02344 16.9569C6.02344 17.7939 6.02344 18.6039 6.02344 19.3869C5.20947 19.3869 4.42263 19.3869 3.58152 19.3869C3.58152 19.7919 3.58152 20.197 3.58152 20.602C3.17454 20.602 2.76755 20.602 2.3877 20.602C2.3877 19.4139 2.3877 18.1989 2.3877 16.9839C3.17454 16.9839 3.98851 16.9839 4.80248 16.9839C4.80248 16.1738 4.80248 15.3638 4.80248 14.5808C5.20947 14.5808 5.61646 14.5808 6.02344 14.5808C6.05057 14.1218 6.05057 13.7168 6.05057 13.3388Z" fill="#151515" fill-opacity="0.82"/>
<path d="M4.82957 14.5265C4.42259 14.5265 4.0156 14.5265 3.60861 14.5265C3.60861 13.3115 3.60861 12.1234 3.60861 10.8814C2.79464 10.8814 1.98067 10.8814 1.1667 10.8814C1.1667 11.2594 1.1667 11.6644 1.1667 12.0694C1.54655 12.0694 1.9264 12.0694 2.36052 12.0694C2.36052 12.4744 2.36052 12.8524 2.36052 13.2845C1.98067 13.2845 1.60081 13.2845 1.1667 13.2845C1.1667 13.6895 1.1667 14.0945 1.1667 14.4995C0.759708 14.4995 0.406987 14.4995 0 14.4995C0 12.9064 0 11.2864 0 9.69336C2.0078 9.69336 4.0156 9.69336 6.05053 9.69336C6.05053 10.9084 6.05053 12.1234 6.05053 13.3385C5.64355 13.3385 5.23656 13.3385 4.82957 13.3385C4.82957 13.7435 4.82957 14.1485 4.82957 14.5265Z" fill="#151515" fill-opacity="0.82"/>
<path d="M26.7798 15.7141C26.7798 15.3361 26.7798 14.9581 26.7798 14.5531C27.6209 14.5531 28.4078 14.5531 29.2217 14.5531C29.2217 13.7431 29.2217 12.9331 29.2217 12.123C29.6287 12.123 30.0357 12.123 30.4156 12.123C30.4156 13.3111 30.4156 14.4991 30.4156 15.6871C30.0357 15.6871 29.6287 15.6871 29.2217 15.6871C29.2217 16.0922 29.2217 16.4972 29.2217 16.9292C29.6016 16.9292 30.0086 16.9292 30.4156 16.9292C30.4156 17.7392 30.4156 18.5492 30.4156 19.3592C29.6016 19.3592 28.7876 19.3592 27.9736 19.3592C27.9736 18.9542 27.9736 18.5492 27.9736 18.1442C27.5395 18.1442 27.1325 18.1442 26.7527 18.1442C26.7527 17.7392 26.7527 17.3342 26.7527 16.9292C27.1597 16.9292 27.5667 16.9292 27.9736 16.9292C27.9736 16.4972 27.9736 16.1192 27.9736 15.7141C27.5938 15.7141 27.1868 15.7141 26.7798 15.7141Z" fill="#151515" fill-opacity="0.82"/>
<path d="M19.4267 1.16016C19.4267 1.86218 19.4267 2.53719 19.4538 3.23921C19.4538 3.75223 19.4538 4.26524 19.4538 4.80525C19.0469 4.80525 18.667 4.80525 18.2057 4.80525C18.2057 5.23727 18.2057 5.64228 18.2057 6.04729C17.8259 6.04729 17.4189 6.04729 17.0119 6.04729C17.0119 5.64228 17.0119 5.26427 17.0119 4.83226C16.1979 4.83226 15.4111 4.83226 14.6243 4.83226C14.6243 4.02223 14.6243 3.23921 14.6243 2.42919C15.0041 2.42919 15.384 2.42919 15.7638 2.42919C15.7638 2.8342 15.7638 3.21221 15.7638 3.61722C16.1979 3.61722 16.5778 3.61722 17.0119 3.61722C17.0119 3.21221 17.0119 2.8342 17.0119 2.42919C17.4189 2.42919 17.8259 2.42919 18.2329 2.42919C18.2329 2.02418 18.2329 1.61917 18.2329 1.21416C18.6399 1.16016 19.0469 1.16016 19.4267 1.16016Z" fill="#151515" fill-opacity="0.82"/>
<path d="M10.9343 8.45066C10.5273 8.45066 10.1475 8.45066 9.74048 8.45066C9.74048 7.64064 9.74048 6.85762 9.74048 6.0476C10.1203 6.0476 10.5273 6.0476 10.9343 6.0476C10.9343 5.64258 10.9343 5.23757 10.9343 4.83256C10.5545 4.83256 10.1475 4.83256 9.74048 4.83256C9.74048 4.42755 9.74048 4.02254 9.74048 3.64453C10.9343 3.64453 12.1281 3.64453 13.3491 3.64453C13.3491 4.02254 13.3491 4.40055 13.3491 4.83256C12.9692 4.83256 12.5623 4.83256 12.1553 4.83256C12.1553 5.66959 12.1553 6.47961 12.1553 7.28963C11.7483 7.28963 11.3413 7.28963 10.9343 7.28963C10.9343 7.66764 10.9343 8.07265 10.9343 8.45066Z" fill="#151515" fill-opacity="0.82"/>
<path d="M28.0007 25.4355C28.8147 25.4355 29.6287 25.4355 30.4426 25.4355C30.4426 27.0826 30.4426 28.6756 30.4426 30.2957C29.2217 30.2957 28.0278 30.2957 26.8069 30.2957C26.8069 29.9177 26.8069 29.5127 26.8069 29.1076C27.5937 29.1076 28.4077 29.1076 29.2217 29.1076C29.2217 28.2976 29.2217 27.4876 29.2217 26.6236C28.8147 26.6236 28.4077 26.6236 28.0007 26.6236C28.0007 26.2456 28.0007 25.8406 28.0007 25.4355Z" fill="#151515" fill-opacity="0.82"/>
<path d="M13.3762 15.7143C13.7832 15.7143 14.1631 15.7143 14.5972 15.7143C14.5972 14.9313 14.5972 14.1483 14.5972 13.3652C15.0042 13.3652 15.3569 13.3652 15.7639 13.3652C15.7639 13.7432 15.7639 14.1483 15.7639 14.5533C16.1709 14.5533 16.5778 14.5533 16.9848 14.5533C16.9848 14.9583 16.9848 15.3093 16.9848 15.7143C16.605 15.7143 16.2251 15.7143 15.791 15.7143C15.791 16.1193 15.791 16.5243 15.791 16.9293C14.977 16.9293 14.1631 16.9293 13.3762 16.9293C13.3762 16.5243 13.3762 16.1193 13.3762 15.7143Z" fill="#151515" fill-opacity="0.82"/>
<path d="M13.3763 16.9297C13.3763 17.3347 13.3763 17.7397 13.3763 18.1447C12.9693 18.1447 12.5623 18.1447 12.1282 18.1447C12.1282 18.5767 12.1282 18.9547 12.1282 19.3598C11.6941 19.3598 11.3142 19.3598 10.9072 19.3598C10.9072 18.9547 10.9072 18.5497 10.9072 18.1447C10.4731 18.1447 10.0661 18.1447 9.68628 18.1447C9.68628 17.7397 9.68628 17.3347 9.68628 16.9297C10.9344 16.9297 12.1553 16.9297 13.3763 16.9297Z" fill="#151515" fill-opacity="0.82"/>
<path d="M28.0007 24.2197C28.0007 23.5986 28.0279 22.9776 28.0279 22.3836C28.0279 22.1946 28.0279 22.0326 28.0279 21.8166C28.4349 21.8166 28.8147 21.8166 29.2488 21.8166C29.2488 21.4116 29.2488 21.0066 29.2488 20.6016C29.6558 20.6016 30.0357 20.6016 30.4427 20.6016C30.4427 21.3846 30.4427 22.1676 30.4427 23.0046C30.0628 23.0046 29.6558 23.0046 29.2488 23.0046C29.2488 23.4096 29.2488 23.8146 29.2488 24.2197C28.8147 24.2197 28.4077 24.2197 28.0007 24.2197Z" fill="#151515" fill-opacity="0.82"/>
<path d="M1.13956 20.5753C0.759708 20.5753 0.379854 20.5753 0 20.5753C0 18.9553 0 17.3622 0 15.7422C0.379854 15.7422 0.732576 15.7422 1.13956 15.7422C1.13956 17.3352 1.13956 18.9553 1.13956 20.5753Z" fill="#151515" fill-opacity="0.82"/>
<path d="M13.3762 7.23686C13.3762 6.83185 13.3762 6.45384 13.3762 6.04883C14.1902 6.04883 14.9499 6.04883 15.7639 6.04883C15.7639 6.85885 15.7639 7.64187 15.7639 8.45189C15.3569 8.45189 14.977 8.45189 14.5972 8.45189C14.5972 8.04688 14.5972 7.64187 14.5972 7.23686C14.1902 7.23686 13.7832 7.23686 13.3762 7.23686Z" fill="#151515" fill-opacity="0.82"/>
<path d="M13.3762 10.8809C13.3762 11.6909 13.3762 12.4739 13.3762 13.2839C12.9692 13.2839 12.5894 13.2839 12.1553 13.2839C12.1553 12.4739 12.1553 11.6639 12.1553 10.8809C12.5623 10.9079 12.9692 10.9079 13.3762 10.8809Z" fill="#151515" fill-opacity="0.82"/>
<path d="M23.0898 27.8652C23.0898 28.6753 23.0898 29.4853 23.0898 30.2953C22.7099 30.2953 22.3029 30.2953 21.9231 30.2953C21.9231 29.5123 21.9231 28.7023 21.9231 27.8652C22.3301 27.8652 22.7099 27.8652 23.0898 27.8652Z" fill="#151515" fill-opacity="0.82"/>
<path d="M12.1824 0C12.5894 0 12.9692 0 13.3491 0C13.3491 0.783021 13.3491 1.56604 13.3491 2.34906C12.9692 2.34906 12.5894 2.34906 12.1824 2.34906C12.1824 1.59304 12.1824 0.810022 12.1824 0Z" fill="#151515" fill-opacity="0.82"/>
<path d="M13.3762 18.1445C14.1631 18.1445 14.9499 18.1445 15.7639 18.1445C15.7639 18.5765 15.7639 18.9816 15.7639 19.3596C14.977 19.3596 14.1902 19.3596 13.3762 19.3596C13.3762 18.9276 13.3762 18.5225 13.3762 18.1445Z" fill="#151515" fill-opacity="0.82"/>
<path d="M18.2058 7.23633C18.2058 7.64134 18.2058 8.01935 18.2058 8.45136C17.8259 8.45136 17.446 8.45136 17.0391 8.45136C17.0391 8.07335 17.0391 7.69534 17.0391 7.26333C17.4189 7.23633 17.8259 7.23633 18.2058 7.23633Z" fill="#151515" fill-opacity="0.82"/>
<path d="M19.4268 7.26367C19.8337 7.26367 20.2136 7.26367 20.6477 7.26367C20.6477 7.64168 20.6477 8.04669 20.6477 8.4517C20.2679 8.4517 19.888 8.4517 19.4539 8.4517C19.4539 8.04669 19.4539 7.64168 19.4268 7.26367Z" fill="#151515" fill-opacity="0.82"/>
<path d="M25.5859 10.8817C25.5859 10.4767 25.5859 10.0987 25.5859 9.7207C25.9929 9.7207 26.3728 9.7207 26.7798 9.7207C26.7798 10.0987 26.7798 10.4767 26.7798 10.8817C26.3728 10.8817 25.9929 10.8817 25.5859 10.8817Z" fill="#151515" fill-opacity="0.82"/>
<path d="M25.5588 15.7148C25.9658 15.7148 26.3728 15.7148 26.7798 15.7148C26.7798 16.1199 26.7798 16.5249 26.7798 16.9299C26.3728 16.9299 25.993 16.9299 25.5588 16.9299C25.5588 16.4979 25.5588 16.0929 25.5588 15.7148Z" fill="#151515" fill-opacity="0.82"/>
<path d="M27.9736 13.3114C27.5937 13.3114 27.2139 13.3114 26.8069 13.3114C26.8069 12.9334 26.8069 12.5554 26.8069 12.1504C27.1867 12.1504 27.5666 12.1504 27.9736 12.1504C27.9736 12.5014 27.9736 12.9064 27.9736 13.3114Z" fill="#151515" fill-opacity="0.82"/>
<path d="M13.3762 29.0801C13.3762 29.4851 13.3762 29.8631 13.3762 30.2951C12.9692 30.2951 12.5894 30.2951 12.1553 30.2951C12.1553 29.8901 12.1553 29.4851 12.1553 29.0801C12.5623 29.0801 12.9692 29.0801 13.3762 29.0801Z" fill="#151515" fill-opacity="0.82"/>
<path d="M9.74048 1.1875C10.1203 1.1875 10.5002 1.1875 10.9072 1.1875C10.9072 1.56551 10.9072 1.94352 10.9072 2.34853C10.5273 2.34853 10.1475 2.34853 9.74048 2.34853C9.74048 1.97052 9.74048 1.59251 9.74048 1.1875Z" fill="#151515" fill-opacity="0.82"/>
<path d="M19.4539 7.23652C19.0469 7.23652 18.6128 7.23652 18.2058 7.23652C18.2058 6.83151 18.2058 6.4265 18.2058 6.02148C18.6128 6.02148 19.0198 6.02148 19.4268 6.02148C19.4268 6.4535 19.4268 6.85851 19.4539 7.23652Z" fill="#151515" fill-opacity="0.82"/>
<path d="M23.1169 27.8654C23.1169 27.4604 23.1169 27.0554 23.1169 26.6504C23.5239 26.6504 23.9309 26.6504 24.3379 26.6504C24.3379 27.0554 24.3379 27.4604 24.3379 27.8654C23.9309 27.8654 23.5239 27.8654 23.1169 27.8654Z" fill="#151515" fill-opacity="0.82"/>
<path d="M29.2217 9.69336C29.2217 10.0984 29.2217 10.4764 29.2217 10.8544C28.8147 10.8544 28.4348 10.8544 28.0278 10.8544C28.0278 10.4764 28.0278 10.0714 28.0278 9.69336C28.4348 9.69336 28.8147 9.69336 29.2217 9.69336Z" fill="#151515" fill-opacity="0.82"/>
<path d="M24.3379 27.8652C24.7449 27.8652 25.1519 27.8652 25.5589 27.8652C25.5589 28.2972 25.5589 28.6753 25.5589 29.0803C25.1519 29.0803 24.772 29.0803 24.3379 29.0803C24.3379 28.6753 24.3379 28.2702 24.3379 27.8652Z" fill="#151515" fill-opacity="0.82"/>
<path d="M28.0007 26.6504C28.0007 27.0554 28.0007 27.4604 28.0007 27.8654C27.5937 27.8654 27.2139 27.8654 26.8069 27.8654C26.8069 27.4874 26.8069 27.0824 26.8069 26.6504C27.2139 26.6504 27.6209 26.6504 28.0007 26.6504Z" fill="#151515" fill-opacity="0.82"/>
<path d="M24.3379 15.7138C24.3379 15.3358 24.3379 14.9577 24.3379 14.5527C24.7449 14.5527 25.1519 14.5527 25.5589 14.5527C25.5589 14.9307 25.5589 15.3088 25.5589 15.6868C25.1519 15.7138 24.7449 15.7138 24.3379 15.7138Z" fill="#151515" fill-opacity="0.82"/>
<path d="M19.4539 1.16103C19.4539 0.783021 19.4539 0.405011 19.4539 0C19.888 0 20.2678 0 20.6748 0C20.6748 0.37801 20.6748 0.729019 20.6748 1.13403C20.2407 1.16103 19.8337 1.16103 19.4539 1.16103Z" fill="#151515" fill-opacity="0.82"/>
<path d="M3.60862 14.5273C3.60862 14.9054 3.60862 15.2834 3.60862 15.6884C3.20164 15.6884 2.82178 15.6884 2.41479 15.6884C2.41479 15.3104 2.41479 14.9594 2.41479 14.5543C2.82178 14.5543 3.20164 14.5543 3.60862 14.5273Z" fill="#151515" fill-opacity="0.82"/>
<path d="M14.6243 1.13403C14.6243 0.75602 14.6243 0.37801 14.6243 0C15.0041 0 15.3568 0 15.7638 0C15.7638 0.37801 15.7638 0.729019 15.7638 1.13403C15.384 1.13403 15.0313 1.13403 14.6243 1.13403Z" fill="#151515" fill-opacity="0.82"/>
<path d="M12.1553 21.7896C12.1553 21.4116 12.1553 21.0066 12.1553 20.6016C12.9692 20.6016 13.7832 20.6016 14.5701 20.6016C14.5701 20.9796 14.5701 21.3576 14.5701 21.7626C13.7832 21.7896 12.9692 21.7896 12.1553 21.7896Z" fill="#151515" fill-opacity="0.82"/>
<path d="M21.9231 23.0048C21.9231 22.5998 21.9231 22.2218 21.9231 21.8438C22.3301 21.8438 22.7099 21.8438 23.1169 21.8438C23.1169 22.2218 23.1169 22.6268 23.1169 23.0048C22.7099 23.0048 22.3301 23.0048 21.9231 23.0048Z" fill="#151515" fill-opacity="0.82"/>
<path d="M7.27148 16.9297C7.67847 16.9297 8.08546 16.9297 8.49244 16.9297C8.49244 17.3347 8.49244 17.7397 8.49244 18.1447C8.08546 18.1447 7.7056 18.1447 7.27148 18.1447C7.27148 17.7127 7.27148 17.3347 7.27148 16.9297Z" fill="#151515" fill-opacity="0.82"/>
<path d="M24.365 2.40234C25.5588 2.40234 26.7526 2.40234 27.9736 2.40234C27.9736 3.59038 27.9736 4.80541 27.9736 6.02044C26.7798 6.02044 25.5859 6.02044 24.365 6.02044C24.365 4.80541 24.365 3.61738 24.365 2.40234Z" fill="#151515" fill-opacity="0.82"/>
<path d="M6.02344 24.2734C6.02344 25.4615 6.02344 26.6765 6.02344 27.8645C4.80248 27.8645 3.60866 27.8645 2.3877 27.8645C2.3877 26.6495 2.3877 25.4615 2.3877 24.2734C3.60866 24.2734 4.80248 24.2734 6.02344 24.2734Z" fill="#151515" fill-opacity="0.82"/>
<path d="M6.02344 5.99505C4.80248 5.99505 3.60866 5.99505 2.3877 5.99505C2.3877 4.78002 2.3877 3.59199 2.3877 2.37695C3.60866 2.37695 4.80248 2.37695 6.02344 2.37695C6.02344 3.59199 6.02344 4.80702 6.02344 5.99505Z" fill="#151515" fill-opacity="0.82"/>
</svg>
