<svg width="126" height="124" viewBox="0 0 126 124" fill="none" xmlns="http://www.w3.org/2000/svg">
<path d="M1.79045 18.6207H0V0H18.6207V1.70519H1.79045V18.6207Z" fill="#1E866F"/>
<path d="M126 18.6207H124.138V1.70519H107.379V0H126V18.6207Z" fill="#1E866F"/>
<path d="M18.6207 123.517H0V104.896H1.79045V121.557H18.6207V123.517Z" fill="#1E866F"/>
<path d="M126 123.517H107.379V121.557H124.138V104.896H126V123.517Z" fill="#1E866F"/>
<g clip-path="url(#clip0_1327_1850)">
<path d="M54.4146 38.2402C55.6884 38.2402 56.9622 38.2402 58.236 38.2402C58.236 39.5078 58.236 40.7754 58.236 42.0431C59.5947 42.0431 60.8685 42.0431 62.0574 42.0431C62.0574 43.3107 62.0574 44.4938 62.0574 45.8459C69.7001 45.8459 77.173 45.8459 84.9007 45.8459C84.9007 48.4656 84.9007 50.9163 84.9007 53.4515C86.2594 53.4515 87.4483 53.4515 88.807 53.4515C88.807 50.9163 88.807 48.4656 88.807 45.9304C90.0808 45.9304 91.2696 45.9304 92.5434 45.9304C92.5434 49.6487 92.5434 53.367 92.5434 57.2543C91.3546 57.2543 90.0808 57.2543 88.807 57.2543C88.807 58.691 88.807 60.0431 88.807 61.4797C88.807 62.5783 88.7221 63.6769 88.7221 64.691C87.5332 64.691 86.3443 64.691 84.9856 64.691C84.9856 62.2403 84.9856 59.7896 84.9856 57.3389C83.6269 57.3389 82.438 57.3389 81.1642 57.3389C81.1642 62.4093 81.1642 67.3107 81.1642 72.3811C82.438 72.3811 83.7118 72.3811 85.0705 72.3811C85.0705 71.1135 85.0705 69.9304 85.0705 68.6628C86.3443 68.6628 87.5332 68.6628 88.8919 68.6628C88.807 67.3107 88.7221 66.0431 88.7221 64.7755C89.9958 64.7755 91.3546 64.86 92.6284 64.86C92.6284 68.6628 92.6284 72.4656 92.6284 76.2685C93.9871 76.2685 95.1759 76.2685 96.5346 76.2685C96.5346 75.0009 96.5346 73.7332 96.5346 72.4656C97.8934 72.4656 99.0822 72.4656 100.271 72.4656C100.271 73.7332 100.271 75.0009 100.271 76.2685C101.63 76.2685 102.904 76.2685 104.092 76.2685C104.092 77.5361 104.092 78.7192 104.092 80.0713C102.819 80.0713 101.63 80.0713 100.271 80.0713C100.271 82.691 100.271 85.1417 100.271 87.6769C98.9973 87.6769 97.8084 87.6769 96.5346 87.6769C96.5346 88.9445 96.5346 90.2121 96.5346 91.4798C98.9973 91.4798 101.545 91.4798 104.092 91.4798C104.092 92.7474 104.092 94.015 104.092 95.2826C101.545 95.2826 99.0822 95.2826 96.4497 95.2826C96.4497 96.5502 96.4497 97.8178 96.4497 99.0854C95.091 99.0854 93.8172 99.0854 92.5434 99.0854C92.5434 97.8178 92.5434 96.5502 92.5434 95.3671C91.2696 95.3671 89.9958 95.3671 88.7221 95.3671C88.7221 96.6347 88.7221 97.9023 88.7221 99.0854C87.5332 99.0854 86.2594 99.0854 84.9856 99.0854C84.9856 97.8178 84.9856 96.6347 84.9856 95.3671C79.8055 95.3671 74.7953 95.3671 69.7001 95.3671C69.7001 96.6347 69.7001 97.8178 69.7001 99.1699C73.5215 99.1699 77.2579 99.1699 81.0793 99.1699C81.0793 100.438 81.0793 101.621 81.0793 102.973C78.6166 102.973 76.0691 102.973 73.5215 102.973C73.5215 105.592 73.5215 108.043 73.5215 110.578C70.9739 110.578 68.4263 110.578 65.9637 110.578C65.8787 109.311 65.8787 107.959 65.7938 106.691C67.0676 106.776 68.4263 106.776 69.7001 106.86C69.7001 105.423 69.7001 104.24 69.7001 103.057C68.4263 103.057 67.1525 103.057 65.7938 103.057C65.7938 104.325 65.7938 105.508 65.7938 106.691C64.4351 106.691 63.0764 106.776 61.8026 106.776C60.6986 106.776 59.5098 106.776 58.4058 106.776C58.4058 105.508 58.4058 104.325 58.4058 102.973C59.6796 102.973 60.9534 102.973 62.2272 102.973C62.2272 101.621 62.2272 100.353 62.2272 99.0854C63.4161 99.0854 64.6899 99.0854 65.8787 99.0854C65.8787 97.8178 65.8787 96.5502 65.8787 95.3671C64.6049 95.3671 63.4161 95.3671 62.2272 95.3671C62.2272 96.6347 62.2272 97.9023 62.2272 99.0854C59.6796 99.0854 57.132 99.0854 54.5844 99.0854C54.5844 97.8178 54.5844 96.5502 54.5844 95.3671C53.2257 95.3671 52.0369 95.3671 50.848 95.3671C50.848 96.6347 50.848 97.9023 50.848 99.0854C52.1218 99.0854 53.3956 99.0854 54.6694 99.0854C54.6694 101.621 54.6694 104.156 54.6694 106.691C53.3956 106.691 52.2067 106.691 50.848 106.691C50.848 107.959 50.848 109.226 50.848 110.494C49.5742 110.494 48.3004 110.494 47.1115 110.494C47.1115 104.156 47.1115 97.9023 47.1115 91.5643C48.3004 91.5643 49.5742 91.5643 50.848 91.5643C50.848 90.2966 50.848 89.029 50.848 87.6769C49.6591 87.6769 48.3853 87.6769 47.1115 87.6769C47.1115 85.1417 47.1115 82.6065 47.1115 80.0713C43.2902 80.0713 39.4688 80.0713 35.5625 80.0713C35.5625 78.7192 35.5625 77.4516 35.5625 76.184C38.1101 76.184 40.6577 76.184 43.2052 76.184C43.2052 74.8318 43.2052 73.6487 43.2052 72.3811C44.479 72.3811 45.7528 72.3811 47.0266 72.3811C47.0266 73.6487 47.0266 74.9163 47.0266 76.184C48.3853 76.184 49.6591 76.184 50.848 76.184C50.848 78.7192 50.848 81.2544 50.848 83.7896C52.2067 83.7896 53.4805 83.7896 54.6694 83.7896C54.6694 86.3248 54.6694 88.86 54.6694 91.3952C56.0281 91.3952 57.3019 91.3952 58.5757 91.3952C58.5757 90.1276 58.5757 88.9445 58.5757 87.6769C59.0003 87.6769 59.3399 87.6769 59.6796 87.6769C61.8026 87.6769 63.9256 87.6769 66.0486 87.5924C66.0486 88.86 66.0486 90.1276 66.0486 91.3952C67.3224 91.3952 68.5962 91.3952 69.8699 91.3952C69.8699 90.1276 69.8699 88.9445 69.8699 87.5924C68.5962 87.5924 67.3224 87.5924 66.0486 87.5924C66.0486 86.3248 66.0486 85.1417 66.0486 83.7896C67.4073 83.7896 68.6811 83.7896 69.8699 83.7896C69.8699 82.4375 69.8699 81.2544 69.8699 79.9868C68.5962 79.9868 67.4073 79.9868 66.0486 79.9868C66.0486 78.6347 66.0486 77.4516 66.0486 76.184C68.5962 76.184 71.0588 76.184 73.6913 76.184C73.6913 77.4516 73.6913 78.7192 73.6913 79.9868C75.05 79.9868 76.2389 79.9868 77.5127 79.9868C77.5127 77.4516 77.5127 75.0009 77.5127 72.3811C76.2389 72.3811 75.05 72.3811 73.7762 72.3811C73.7762 71.1135 73.7762 69.9304 73.7762 68.6628C74.9651 68.6628 76.2389 68.6628 77.5127 68.6628C77.5127 67.3952 77.5127 66.1276 77.5127 64.7755C76.3238 64.7755 75.05 64.7755 73.7762 64.7755C73.7762 64.353 73.7762 64.0994 73.7762 63.8459C73.7762 60.7191 73.7762 57.5079 73.7762 54.3811C73.7762 54.1276 73.7762 53.7896 73.6913 53.536C74.9651 53.536 76.2389 53.536 77.5127 53.536C77.5127 52.1839 77.5127 51.0008 77.5127 49.8177C76.2389 49.8177 74.9651 49.8177 73.6913 49.8177C73.6913 51.0853 73.6913 52.3529 73.6913 53.6205C72.5024 53.6205 71.2287 53.6205 69.9549 53.6205C69.9549 52.3529 69.9549 51.0853 69.9549 49.8177C68.5962 49.8177 67.4073 49.8177 66.0486 49.8177C66.0486 51.0853 66.0486 52.2684 66.0486 53.536C64.8597 53.536 63.6708 53.536 62.397 53.536C62.397 52.3529 62.397 51.0853 62.397 49.8177C61.0383 49.8177 59.7645 49.8177 58.4907 49.8177C58.4907 48.5501 58.4907 47.2825 58.4907 46.0149C57.132 46.0149 55.9432 46.0149 54.6694 46.0149C54.6694 47.2825 54.6694 48.5501 54.6694 49.8177C49.5742 49.8177 44.564 49.8177 39.4688 49.8177C39.4688 48.5501 39.4688 47.367 39.4688 46.0994C43.2052 46.0994 47.0266 46.0994 50.848 46.0994C50.848 44.7473 50.848 43.4797 50.848 42.2121C52.1218 42.2121 53.3956 42.2121 54.6694 42.2121C54.4146 40.7754 54.4146 39.5078 54.4146 38.2402ZM92.5434 91.3952C92.5434 87.5079 92.5434 83.7896 92.5434 80.0713C88.7221 80.0713 84.9007 80.0713 81.1642 80.0713C81.1642 83.8741 81.1642 87.6769 81.1642 91.3952C84.9856 91.3952 88.7221 91.3952 92.5434 91.3952ZM73.4366 83.8741C73.4366 86.4093 73.4366 88.9445 73.4366 91.3952C74.7104 91.3952 75.9841 91.3952 77.173 91.3952C77.173 88.86 77.173 86.3248 77.173 83.8741C75.9841 83.8741 74.7953 83.8741 73.4366 83.8741Z" fill="#151515" fill-opacity="0.82"/>
<path d="M84.9856 15.5918C93.9021 15.5918 102.734 15.5918 111.565 15.5918C111.565 24.3805 111.565 33.1693 111.565 42.0425C102.734 42.0425 93.8172 42.0425 84.9856 42.0425C84.9856 33.2538 84.9856 24.465 84.9856 15.5918ZM107.829 19.2256C101.375 19.2256 95.091 19.2256 88.722 19.2256C88.722 25.5636 88.722 31.9017 88.722 38.1552C95.091 38.1552 101.46 38.1552 107.829 38.1552C107.829 31.9017 107.829 25.5636 107.829 19.2256Z" fill="#151515" fill-opacity="0.82"/>
<path d="M42.8655 110.408C34.0338 110.408 25.2022 110.408 16.3706 110.408C16.3706 101.535 16.3706 92.7463 16.3706 83.873C25.2022 83.873 34.0338 83.873 42.8655 83.873C42.8655 92.7463 42.8655 101.535 42.8655 110.408ZM39.129 87.6759C32.6751 87.6759 26.3911 87.6759 20.0221 87.6759C20.0221 94.0139 20.0221 100.352 20.0221 106.605C26.3911 106.605 32.76 106.605 39.129 106.605C39.129 100.267 39.129 94.0139 39.129 87.6759Z" fill="#151515" fill-opacity="0.82"/>
<path d="M16.3706 42.0425C16.3706 33.1693 16.3706 24.3805 16.3706 15.5918C25.2022 15.5918 34.0338 15.5918 42.8655 15.5918C42.8655 24.3805 42.8655 33.1693 42.8655 41.958C34.0338 42.0425 25.2871 42.0425 16.3706 42.0425ZM39.129 38.2397C39.129 31.8172 39.129 25.5636 39.129 19.2256C32.76 19.2256 26.3911 19.2256 20.1071 19.2256C20.1071 25.5636 20.1071 31.9017 20.1071 38.2397C26.3911 38.2397 32.76 38.2397 39.129 38.2397Z" fill="#151515" fill-opacity="0.82"/>
<path d="M35.3076 57.3389C36.5814 57.3389 37.8552 57.3389 39.129 57.3389C39.129 58.6065 39.129 59.8741 39.129 61.1417C40.4028 61.1417 41.6766 61.1417 42.8655 61.1417C42.8655 59.8741 42.8655 58.6065 42.8655 57.4234C41.5917 57.4234 40.3179 57.4234 39.0441 57.4234C39.0441 56.1558 39.0441 54.9727 39.0441 53.7051C42.8655 53.7051 46.6019 53.7051 50.5082 53.7051C50.5082 56.2403 50.5082 58.691 50.5082 61.2262C53.0558 61.2262 55.6034 61.2262 58.1509 61.2262C58.1509 62.4938 58.1509 63.6769 58.1509 64.86C54.3296 64.86 50.5082 64.86 46.6868 64.86C46.6868 66.2121 46.6868 67.4797 46.6868 68.6628C45.413 68.6628 44.1392 68.6628 42.8655 68.6628C42.8655 67.3952 42.8655 66.1276 42.8655 64.9445C41.5067 64.9445 40.3179 64.9445 39.0441 64.9445C39.0441 66.2121 39.0441 67.4797 39.0441 68.6628C37.7703 68.6628 36.4965 68.6628 35.2227 68.6628C35.2227 71.2826 35.2227 73.8178 35.2227 76.2685C32.6751 76.2685 30.2125 76.2685 27.58 76.2685C27.58 77.5361 27.58 78.8037 27.58 80.0713C26.3062 80.0713 25.0324 80.0713 23.8435 80.0713C23.8435 76.353 23.8435 72.5502 23.8435 68.7474C26.3062 68.7474 28.8538 68.7474 31.4013 68.7474C31.4013 66.2121 31.4013 63.6769 31.4013 61.2262C32.6751 61.2262 33.9489 61.2262 35.2227 61.2262C35.3076 59.7896 35.3076 58.522 35.3076 57.3389Z" fill="#151515" fill-opacity="0.82"/>
<path d="M31.4863 61.0565C30.2125 61.0565 28.9387 61.0565 27.6649 61.0565C27.6649 57.2536 27.6649 53.5353 27.6649 49.648C25.1173 49.648 22.5697 49.648 20.0221 49.648C20.0221 50.8311 20.0221 52.0987 20.0221 53.3663C21.211 53.3663 22.3999 53.3663 23.7586 53.3663C23.7586 54.6339 23.7586 55.817 23.7586 57.1691C22.5697 57.1691 21.3809 57.1691 20.0221 57.1691C20.0221 58.4367 20.0221 59.7044 20.0221 60.972C18.7483 60.972 17.6444 60.972 16.3706 60.972C16.3706 55.986 16.3706 50.9156 16.3706 45.9297C22.6546 45.9297 28.9387 45.9297 35.3076 45.9297C35.3076 49.7325 35.3076 53.5353 35.3076 57.3382C34.0338 57.3382 32.7601 57.3382 31.4863 57.3382C31.4863 58.6058 31.4863 59.8734 31.4863 61.0565Z" fill="#151515" fill-opacity="0.82"/>
<path d="M100.186 64.7746C100.186 63.5915 100.186 62.4084 100.186 61.1408C102.818 61.1408 105.281 61.1408 107.829 61.1408C107.829 58.6056 107.829 56.0704 107.829 53.5352C109.103 53.5352 110.376 53.5352 111.565 53.5352C111.565 57.2535 111.565 60.9718 111.565 64.6901C110.376 64.6901 109.103 64.6901 107.829 64.6901C107.829 65.9577 107.829 67.2253 107.829 68.5774C109.018 68.5774 110.291 68.5774 111.565 68.5774C111.565 71.1126 111.565 73.6479 111.565 76.1831C109.018 76.1831 106.47 76.1831 103.922 76.1831C103.922 74.9155 103.922 73.6479 103.922 72.3803C102.564 72.3803 101.29 72.3803 100.101 72.3803C100.101 71.1126 100.101 69.845 100.101 68.5774C101.375 68.5774 102.649 68.5774 103.922 68.5774C103.922 67.2253 103.922 66.0422 103.922 64.7746C102.734 64.7746 101.46 64.7746 100.186 64.7746Z" fill="#151515" fill-opacity="0.82"/>
<path d="M77.1728 19.2266C77.1728 21.4237 77.1728 23.5364 77.2577 25.7336C77.2577 27.3393 77.2577 28.9449 77.2577 30.635C75.9839 30.635 74.7951 30.635 73.3514 30.635C73.3514 31.9871 73.3514 33.2548 73.3514 34.5224C72.1626 34.5224 70.8888 34.5224 69.615 34.5224C69.615 33.2548 69.615 32.0717 69.615 30.7195C67.0674 30.7195 64.6048 30.7195 62.1421 30.7195C62.1421 28.1843 62.1421 25.7336 62.1421 23.1984C63.331 23.1984 64.5198 23.1984 65.7087 23.1984C65.7087 24.466 65.7087 25.6491 65.7087 26.9167C67.0674 26.9167 68.2563 26.9167 69.615 26.9167C69.615 25.6491 69.615 24.466 69.615 23.1984C70.8888 23.1984 72.1626 23.1984 73.4364 23.1984C73.4364 21.9308 73.4364 20.6632 73.4364 19.3956C74.7102 19.2266 75.984 19.2266 77.1728 19.2266Z" fill="#151515" fill-opacity="0.82"/>
<path d="M50.5931 42.0423C49.3194 42.0423 48.1305 42.0423 46.8567 42.0423C46.8567 39.5071 46.8567 37.0564 46.8567 34.5211C48.0456 34.5211 49.3194 34.5211 50.5931 34.5211C50.5931 33.2535 50.5931 31.9859 50.5931 30.7183C49.4043 30.7183 48.1305 30.7183 46.8567 30.7183C46.8567 29.4507 46.8567 28.1831 46.8567 27C50.5931 27 54.3296 27 58.151 27C58.151 28.1831 58.151 29.3662 58.151 30.7183C56.9621 30.7183 55.6883 30.7183 54.4145 30.7183C54.4145 33.338 54.4145 35.8733 54.4145 38.4085C53.1407 38.4085 51.8669 38.4085 50.5931 38.4085C50.5931 39.5916 50.5931 40.8592 50.5931 42.0423Z" fill="#151515" fill-opacity="0.82"/>
<path d="M104.007 95.1973C106.555 95.1973 109.103 95.1973 111.65 95.1973C111.65 100.352 111.65 105.338 111.65 110.409C107.829 110.409 104.092 110.409 100.271 110.409C100.271 109.225 100.271 107.958 100.271 106.69C102.734 106.69 105.281 106.69 107.829 106.69C107.829 104.155 107.829 101.62 107.829 98.9156C106.555 98.9156 105.281 98.9156 104.007 98.9156C104.007 97.7325 104.007 96.4649 104.007 95.1973Z" fill="#151515" fill-opacity="0.82"/>
<path d="M58.2358 64.774C59.5096 64.774 60.6985 64.774 62.0572 64.774C62.0572 62.3233 62.0572 59.8726 62.0572 57.4219C63.331 57.4219 64.435 57.4219 65.7087 57.4219C65.7087 58.605 65.7087 59.8726 65.7087 61.1402C66.9825 61.1402 68.2563 61.1402 69.5301 61.1402C69.5301 62.4078 69.5301 63.5064 69.5301 64.774C68.3412 64.774 67.1524 64.774 65.7937 64.774C65.7937 66.0416 65.7937 67.3092 65.7937 68.5768C63.2461 68.5768 60.6985 68.5768 58.2358 68.5768C58.2358 67.3092 58.2358 66.0416 58.2358 64.774Z" fill="#151515" fill-opacity="0.82"/>
<path d="M58.2358 68.5781C58.2358 69.8457 58.2358 71.1133 58.2358 72.3809C56.962 72.3809 55.6882 72.3809 54.3295 72.3809C54.3295 73.7331 54.3295 74.9162 54.3295 76.1838C52.9708 76.1838 51.7819 76.1838 50.5081 76.1838C50.5081 74.9162 50.5081 73.6486 50.5081 72.3809C49.1494 72.3809 47.8756 72.3809 46.6868 72.3809C46.6868 71.1133 46.6868 69.8457 46.6868 68.5781C50.5931 68.5781 54.4144 68.5781 58.2358 68.5781Z" fill="#151515" fill-opacity="0.82"/>
<path d="M104.007 91.3943C104.007 89.4506 104.092 87.5069 104.092 85.6478C104.092 85.0562 104.092 84.5492 104.092 83.8731C105.366 83.8731 106.555 83.8731 107.914 83.8731C107.914 82.6055 107.914 81.3379 107.914 80.0703C109.187 80.0703 110.376 80.0703 111.65 80.0703C111.65 82.521 111.65 84.9717 111.65 87.5914C110.461 87.5914 109.187 87.5914 107.914 87.5914C107.914 88.8591 107.914 90.1267 107.914 91.3943C106.555 91.3943 105.281 91.3943 104.007 91.3943Z" fill="#151515" fill-opacity="0.82"/>
<path d="M19.9372 79.9862C18.7483 79.9862 17.5595 79.9862 16.3706 79.9862C16.3706 74.9157 16.3706 69.9298 16.3706 64.8594C17.5595 64.8594 18.6634 64.8594 19.9372 64.8594C19.9372 69.8453 19.9372 74.9157 19.9372 79.9862Z" fill="#151515" fill-opacity="0.82"/>
<path d="M58.2358 38.2398C58.2358 36.9722 58.2358 35.7891 58.2358 34.5215C60.7834 34.5215 63.1612 34.5215 65.7087 34.5215C65.7087 37.0567 65.7087 39.5074 65.7087 42.0426C64.435 42.0426 63.2461 42.0426 62.0572 42.0426C62.0572 40.775 62.0572 39.5074 62.0572 38.2398C60.7834 38.2398 59.5096 38.2398 58.2358 38.2398Z" fill="#151515" fill-opacity="0.82"/>
<path d="M58.2359 49.6484C58.2359 52.1837 58.2359 54.6344 58.2359 57.1696C56.9621 57.1696 55.7733 57.1696 54.4146 57.1696C54.4146 54.6344 54.4146 52.0991 54.4146 49.6484C55.6883 49.7329 56.9621 49.7329 58.2359 49.6484Z" fill="#151515" fill-opacity="0.82"/>
<path d="M88.6371 102.803C88.6371 105.338 88.6371 107.873 88.6371 110.408C87.4483 110.408 86.1745 110.408 84.9856 110.408C84.9856 107.958 84.9856 105.422 84.9856 102.803C86.2594 102.803 87.4483 102.803 88.6371 102.803Z" fill="#151515" fill-opacity="0.82"/>
<path d="M54.4995 15.5918C55.7733 15.5918 56.9622 15.5918 58.151 15.5918C58.151 18.0425 58.151 20.4932 58.151 22.9439C56.9622 22.9439 55.7733 22.9439 54.4995 22.9439C54.4995 20.5777 54.4995 18.127 54.4995 15.5918Z" fill="#151515" fill-opacity="0.82"/>
<path d="M58.2358 72.3809C60.6985 72.3809 63.1612 72.3809 65.7087 72.3809C65.7087 73.733 65.7087 75.0006 65.7087 76.1837C63.2461 76.1837 60.7834 76.1837 58.2358 76.1837C58.2358 74.8316 58.2358 73.564 58.2358 72.3809Z" fill="#151515" fill-opacity="0.82"/>
<path d="M73.3515 38.2402C73.3515 39.5078 73.3515 40.6909 73.3515 42.0431C72.1626 42.0431 70.9737 42.0431 69.7 42.0431C69.7 40.86 69.7 39.6769 69.7 38.3247C70.8888 38.2402 72.1626 38.2402 73.3515 38.2402Z" fill="#151515" fill-opacity="0.82"/>
<path d="M77.1729 38.3242C78.4466 38.3242 79.6355 38.3242 80.9942 38.3242C80.9942 39.5073 80.9942 40.7749 80.9942 42.0425C79.8054 42.0425 78.6165 42.0425 77.2578 42.0425C77.2578 40.7749 77.2578 39.5073 77.1729 38.3242Z" fill="#151515" fill-opacity="0.82"/>
<path d="M96.4497 49.6475C96.4497 48.3799 96.4497 47.1968 96.4497 46.0137C97.7235 46.0137 98.9124 46.0137 100.186 46.0137C100.186 47.1968 100.186 48.3799 100.186 49.6475C98.9124 49.6475 97.7235 49.6475 96.4497 49.6475Z" fill="#151515" fill-opacity="0.82"/>
<path d="M96.3647 64.7754C97.6385 64.7754 98.9123 64.7754 100.186 64.7754C100.186 66.043 100.186 67.3106 100.186 68.5782C98.9123 68.5782 97.7235 68.5782 96.3647 68.5782C96.3647 67.2261 96.3647 65.9585 96.3647 64.7754Z" fill="#151515" fill-opacity="0.82"/>
<path d="M103.923 57.2529C102.734 57.2529 101.545 57.2529 100.271 57.2529C100.271 56.0698 100.271 54.8867 100.271 53.6191C101.46 53.6191 102.649 53.6191 103.923 53.6191C103.923 54.7177 103.923 55.9853 103.923 57.2529Z" fill="#151515" fill-opacity="0.82"/>
<path d="M58.2359 106.605C58.2359 107.873 58.2359 109.056 58.2359 110.408C56.9621 110.408 55.7733 110.408 54.4146 110.408C54.4146 109.141 54.4146 107.873 54.4146 106.605C55.6883 106.605 56.9621 106.605 58.2359 106.605Z" fill="#151515" fill-opacity="0.82"/>
<path d="M46.8567 19.3105C48.0456 19.3105 49.2344 19.3105 50.5082 19.3105C50.5082 20.4936 50.5082 21.6767 50.5082 22.9444C49.3194 22.9444 48.1305 22.9444 46.8567 22.9444C46.8567 21.7613 46.8567 20.5782 46.8567 19.3105Z" fill="#151515" fill-opacity="0.82"/>
<path d="M77.2579 38.2403C75.9841 38.2403 74.6254 38.2403 73.3516 38.2403C73.3516 36.9727 73.3516 35.7051 73.3516 34.4375C74.6254 34.4375 75.8991 34.4375 77.1729 34.4375C77.1729 35.7896 77.1729 37.0572 77.2579 38.2403Z" fill="#151515" fill-opacity="0.82"/>
<path d="M88.7219 102.803C88.7219 101.535 88.7219 100.268 88.7219 99C89.9957 99 91.2695 99 92.5433 99C92.5433 100.268 92.5433 101.535 92.5433 102.803C91.2695 102.803 89.9957 102.803 88.7219 102.803Z" fill="#151515" fill-opacity="0.82"/>
<path d="M107.829 45.9297C107.829 47.1973 107.829 48.3804 107.829 49.5635C106.555 49.5635 105.366 49.5635 104.092 49.5635C104.092 48.3804 104.092 47.1128 104.092 45.9297C105.366 45.9297 106.555 45.9297 107.829 45.9297Z" fill="#151515" fill-opacity="0.82"/>
<path d="M92.5432 102.803C93.817 102.803 95.0908 102.803 96.3646 102.803C96.3646 104.155 96.3646 105.338 96.3646 106.606C95.0908 106.606 93.9019 106.606 92.5432 106.606C92.5432 105.338 92.5432 104.07 92.5432 102.803Z" fill="#151515" fill-opacity="0.82"/>
<path d="M104.007 99C104.007 100.268 104.007 101.535 104.007 102.803C102.734 102.803 101.545 102.803 100.271 102.803C100.271 101.62 100.271 100.352 100.271 99C101.545 99 102.819 99 104.007 99Z" fill="#151515" fill-opacity="0.82"/>
<path d="M92.5432 64.7744C92.5432 63.5913 92.5432 62.4082 92.5432 61.1406C93.817 61.1406 95.0908 61.1406 96.3646 61.1406C96.3646 62.3237 96.3646 63.5068 96.3646 64.6899C95.0908 64.7744 93.817 64.7744 92.5432 64.7744Z" fill="#151515" fill-opacity="0.82"/>
<path d="M77.2578 19.2256C77.2578 18.0425 77.2578 16.8594 77.2578 15.5918C78.6165 15.5918 79.8054 15.5918 81.0792 15.5918C81.0792 16.7749 81.0792 17.8735 81.0792 19.1411C79.7205 19.2256 78.4467 19.2256 77.2578 19.2256Z" fill="#151515" fill-opacity="0.82"/>
<path d="M27.6649 61.0566C27.6649 62.2397 27.6649 63.4228 27.6649 64.6904C26.3911 64.6904 25.2023 64.6904 23.9285 64.6904C23.9285 63.5073 23.9285 62.4088 23.9285 61.1411C25.2023 61.1411 26.3911 61.1411 27.6649 61.0566Z" fill="#151515" fill-opacity="0.82"/>
<path d="M62.1421 19.1411C62.1421 17.958 62.1421 16.7749 62.1421 15.5918C63.331 15.5918 64.4349 15.5918 65.7087 15.5918C65.7087 16.7749 65.7087 17.8735 65.7087 19.1411C64.5198 19.1411 63.4159 19.1411 62.1421 19.1411Z" fill="#151515" fill-opacity="0.82"/>
<path d="M54.4146 83.7886C54.4146 82.6055 54.4146 81.3379 54.4146 80.0703C56.9621 80.0703 59.5097 80.0703 61.9724 80.0703C61.9724 81.2534 61.9724 82.4365 61.9724 83.7041C59.5097 83.7886 56.9621 83.7886 54.4146 83.7886Z" fill="#151515" fill-opacity="0.82"/>
<path d="M84.9856 87.5928C84.9856 86.3252 84.9856 85.1421 84.9856 83.959C86.2594 83.959 87.4483 83.959 88.722 83.959C88.722 85.1421 88.722 86.4097 88.722 87.5928C87.4483 87.5928 86.2594 87.5928 84.9856 87.5928Z" fill="#151515" fill-opacity="0.82"/>
<path d="M39.1289 68.5781C40.4027 68.5781 41.6765 68.5781 42.9503 68.5781C42.9503 69.8457 42.9503 71.1133 42.9503 72.3809C41.6765 72.3809 40.4876 72.3809 39.1289 72.3809C39.1289 71.0288 39.1289 69.8457 39.1289 68.5781Z" fill="#151515" fill-opacity="0.82"/>
<path d="M92.6282 23.1133C96.3646 23.1133 100.101 23.1133 103.922 23.1133C103.922 26.8316 103.922 30.6344 103.922 34.4372C100.186 34.4372 96.4495 34.4372 92.6282 34.4372C92.6282 30.6344 92.6282 26.9161 92.6282 23.1133Z" fill="#151515" fill-opacity="0.82"/>
<path d="M35.2227 91.5645C35.2227 95.2828 35.2227 99.0856 35.2227 102.804C31.4013 102.804 27.6649 102.804 23.8435 102.804C23.8435 99.0011 23.8435 95.2828 23.8435 91.5645C27.6649 91.5645 31.4013 91.5645 35.2227 91.5645Z" fill="#151515" fill-opacity="0.82"/>
<path d="M35.2227 34.3533C31.4013 34.3533 27.6649 34.3533 23.8435 34.3533C23.8435 30.5504 23.8435 26.8321 23.8435 23.0293C27.6649 23.0293 31.4013 23.0293 35.2227 23.0293C35.2227 26.8321 35.2227 30.6349 35.2227 34.3533Z" fill="#151515" fill-opacity="0.82"/>
</g>
<defs>
<clipPath id="clip0_1327_1850">
<rect width="95.2796" height="94.817" fill="white" transform="translate(16.3706 15.5918)"/>
</clipPath>
</defs>
</svg>
