<svg width="13" height="12" viewBox="0 0 13 12" fill="none" xmlns="http://www.w3.org/2000/svg">
<path d="M0.606445 3.24902V0.500977H3.35742C3.68848 0.500977 3.68848 0 3.35742 0H0.354492C0.216797 0 0.105469 0.111328 0.105469 0.249023V3.24902C0.105469 3.58008 0.606445 3.58008 0.606445 3.24902ZM3.35449 11.502H0.606445V8.75098C0.606445 8.41992 0.105469 8.41992 0.105469 8.75098V11.751C0.105469 11.8887 0.216797 12 0.354492 12H3.35449C3.68555 12 3.68555 11.502 3.35449 11.502ZM12.1055 0.249023C12.1055 0.111328 11.9941 0 11.8564 0H8.85645C8.52539 0 8.52539 0.500977 8.85645 0.500977H11.6074V3.25195C11.6074 3.58301 12.1084 3.58301 12.1084 3.25195V0.249023H12.1055ZM11.6045 8.75098V11.502H8.85352C8.52246 11.502 8.52246 12.0029 8.85352 12.0029H11.8535C11.9912 12.0029 12.1025 11.8916 12.1025 11.7539V8.75098C12.1055 8.41992 11.6045 8.41992 11.6045 8.75098ZM2.60449 3.24902C2.60449 3.38672 2.71582 3.49805 2.85352 3.49805H3.35449C3.49219 3.49805 3.60352 3.38672 3.60352 3.24902V2.75098C3.60352 2.61328 3.49219 2.50195 3.35449 2.50195H2.85645C2.71875 2.50195 2.60742 2.61328 2.60742 2.75098V3.24902H2.60449Z" fill="#545454"/>
<path d="M1.85449 1.5C1.7168 1.5 1.60547 1.61133 1.60547 1.74902V4.24805C1.60547 4.38574 1.7168 4.49707 1.85449 4.49707H4.35352C4.49121 4.49707 4.60254 4.38574 4.60254 4.24805V1.74902C4.60254 1.61133 4.49121 1.5 4.35352 1.5H1.85449ZM2.10645 2.00098H4.10742V4.00195H2.10645V2.00098ZM3.60645 8.75098C3.60645 8.61328 3.49512 8.50195 3.35742 8.50195H2.85645C2.71875 8.50195 2.60742 8.61328 2.60742 8.75098V9.25195C2.60742 9.38965 2.71875 9.50098 2.85645 9.50098H3.35742C3.49512 9.50098 3.60645 9.38965 3.60645 9.25195V8.75098Z" fill="#545454"/>
<path d="M4.60547 7.74902C4.60547 7.61133 4.49414 7.5 4.35645 7.5H1.85449C1.7168 7.5 1.60547 7.61133 1.60547 7.74902V10.248C1.60547 10.3857 1.7168 10.4971 1.85449 10.4971H4.35352C4.49121 10.4971 4.60254 10.3857 4.60254 10.248V7.74902H4.60547ZM4.10449 9.99902H2.10645V7.99805H4.10742V9.99902H4.10449ZM8.60449 3.24902C8.60449 3.38672 8.71582 3.49805 8.85352 3.49805H9.35449C9.49219 3.49805 9.60352 3.38672 9.60352 3.24902V2.75098C9.60352 2.61328 9.49219 2.50195 9.35449 2.50195H8.85352C8.71582 2.50195 8.60449 2.61328 8.60449 2.75098V3.24902Z" fill="#545454"/>
<path d="M7.60547 4.25098C7.60547 4.38867 7.7168 4.5 7.85449 4.5H10.3535C10.4912 4.5 10.6025 4.38867 10.6025 4.25098V1.74902C10.6025 1.61133 10.4912 1.5 10.3535 1.5H7.85449C7.7168 1.5 7.60547 1.61133 7.60547 1.74902V4.25098ZM8.10645 2.00098H10.1074V4.00195H8.10645V2.00098ZM3.35449 6.99902H5.35547C5.68652 6.99902 5.68652 6.49805 5.35547 6.49805H4.60547V5.74805C4.60547 5.41699 4.10449 5.41699 4.10449 5.74805V6.49805H3.35449C3.02344 6.50098 3.02637 6.99902 3.35449 6.99902ZM5.60449 2.25V1.74902C5.60449 1.41797 5.10352 1.41797 5.10352 1.74902V2.25C5.10645 2.58105 5.60449 2.58105 5.60449 2.25ZM5.35547 3.50098H6.35449C6.49219 3.50098 6.60352 3.38965 6.60352 3.25195V2.49902H6.85254C7.18359 2.49902 7.18359 1.99805 6.85254 1.99805H6.35156C6.21387 1.99805 6.10254 2.10937 6.10254 2.24707V2.99707H5.35254C5.02441 3 5.02441 3.50098 5.35547 3.50098ZM5.35547 6H6.35449C6.68555 6 6.68555 5.49902 6.35449 5.49902H6.10547V4.5H6.85547C7.18652 4.5 7.18652 3.99902 6.85547 3.99902H5.85645C5.71875 3.99902 5.60742 4.11035 5.60742 4.24805V5.49902H5.3584C5.02441 5.49902 5.02441 6 5.35547 6ZM7.10449 5.75098C7.10449 6.08203 7.60547 6.08203 7.60547 5.75098V5.25C7.60547 4.91895 7.10449 4.91895 7.10449 5.25V5.75098ZM5.60449 8.49902H6.10547V8.74805C6.10547 9.0791 6.60644 9.0791 6.60644 8.74805V7.24805C6.60644 6.91699 6.10547 6.91699 6.10547 7.24805V7.99805H5.35547C5.21777 7.99805 5.10645 8.10937 5.10645 8.24707V8.74805C5.10645 9.0791 5.60742 9.0791 5.60742 8.74805V8.49902H5.60449ZM7.60547 8.75098V9H7.35644C7.21875 9 7.10742 9.11133 7.10742 9.24902V9.99902H5.85645C5.52539 9.99902 5.52539 10.5 5.85645 10.5H7.35644C7.49414 10.5 7.60547 10.3887 7.60547 10.251V9.50098H7.85449C7.99219 9.50098 8.10352 9.38965 8.10352 9.25195V8.75098C8.10644 8.41992 7.60547 8.41992 7.60547 8.75098ZM9.10547 9.24902V9.99902H8.85645C8.52539 9.99902 8.52539 10.5 8.85645 10.5H10.3564C10.6875 10.5 10.6875 9.99902 10.3564 9.99902H9.60644V9.24902C9.60644 8.91797 9.10547 8.9209 9.10547 9.24902ZM10.6055 7.74902C10.6055 7.61133 10.4941 7.5 10.3564 7.5H8.85645C8.52539 7.5 8.52539 8.00098 8.85645 8.00098H10.1074V8.75098C10.1074 9.08203 10.6084 9.08203 10.6084 8.75098V7.74902H10.6055ZM10.6055 5.75098C10.6055 5.41992 10.1045 5.41992 10.1045 5.75098V6.50098H9.85547C9.52441 6.50098 9.52441 7.00195 9.85547 7.00195H10.3564C10.4941 7.00195 10.6055 6.89062 10.6055 6.75293V5.75098ZM9.10547 6.75V5.49902H9.35449C9.68555 5.49902 9.68555 4.99805 9.35449 4.99805H8.85352C8.71582 4.99805 8.60449 5.10938 8.60449 5.24707V6.49805H7.85449C7.7168 6.49805 7.60547 6.60938 7.60547 6.74707V7.5H7.35644C7.02539 7.5 7.02539 8.00098 7.35644 8.00098H7.85742C7.99512 8.00098 8.10645 7.88965 8.10645 7.75195V7.00195H8.85645C8.99414 6.99902 9.10547 6.88769 9.10547 6.75ZM1.60547 5.25V6.75C1.60547 7.08105 2.10645 7.08105 2.10645 6.75V6H2.85645C3.1875 6 3.1875 5.49902 2.85645 5.49902H2.10645V5.25C2.10645 4.91895 1.60547 4.91895 1.60547 5.25Z" fill="#545454"/>
</svg>
