<svg width="16" height="16" viewBox="0 0 16 16" fill="none" xmlns="http://www.w3.org/2000/svg">
<g clip-path="url(#clip0_10332_2628)">
<path d="M4.35454 14.8942C4.35451 14.8942 4.35451 14.8942 4.35454 14.8942V14.8942ZM15.9447 10.6938C15.8743 10.8548 15.7458 10.9786 15.5828 11.0423L14.6659 11.4011C14.5899 11.4309 14.509 11.4463 14.4274 11.4464C14.3378 11.4464 14.2483 11.4278 14.1636 11.3907C14.0404 11.3371 13.9368 11.2468 13.8669 11.1322L12.8239 11.5768C12.8571 11.7791 12.826 11.9924 12.721 12.1833C12.5974 12.408 12.3928 12.5706 12.1448 12.6411C12.1423 12.6418 12.1397 12.6423 12.1371 12.643C12.2303 12.8939 12.2191 13.1814 12.0815 13.4316C11.9084 13.7463 11.5822 13.9245 11.2461 13.9245C11.1759 13.9243 11.106 13.9164 11.0375 13.9008C11.0461 14.0745 11.0063 14.2473 10.9224 14.3997C10.7493 14.7144 10.423 14.8925 10.0869 14.8925C10.0459 14.8925 10.005 14.8898 9.96429 14.8844C9.97765 15.0666 9.93785 15.2488 9.84972 15.4088C9.67666 15.7235 9.35038 15.9017 9.01429 15.9017C8.85446 15.9017 8.69724 15.8613 8.55729 15.7841L8.22819 15.6031C8.10704 15.7725 7.93416 15.8971 7.7306 15.9587C7.64031 15.9862 7.54645 16.0003 7.45207 16.0003C7.29639 16.0003 7.14314 15.9617 7.00601 15.888C6.78751 15.7711 6.63323 15.5806 6.55723 15.3633C6.51668 15.382 6.47489 15.3979 6.43216 15.4109C6.34188 15.4384 6.24804 15.4524 6.15366 15.4525C5.99944 15.4525 5.84694 15.4147 5.70757 15.3402C5.50985 15.2344 5.36488 15.0682 5.28269 14.8766C5.21848 14.9138 5.15019 14.9435 5.07916 14.965C4.98888 14.9925 4.89504 15.0065 4.80066 15.0066C4.64498 15.0065 4.49174 14.9679 4.3546 14.8942C4.13113 14.7747 3.96735 14.5746 3.89347 14.3308C3.8481 14.1811 3.84022 14.0264 3.86844 13.8775C3.84963 13.8786 3.83085 13.8796 3.8121 13.8796C3.65642 13.8795 3.50318 13.8409 3.36604 13.7672C3.14257 13.6477 2.97879 13.4476 2.90491 13.2038C2.83104 12.96 2.85616 12.7027 2.97569 12.4792L3.21585 12.0302C3.15369 11.8916 3.12588 11.7397 3.09882 11.5915C3.04847 11.3155 3.01207 11.1805 2.8961 11.1355C2.81041 11.1023 2.55188 10.9887 2.06813 10.7716C1.94257 10.9311 1.75035 11.0223 1.55122 11.0223C1.46001 11.0223 1.36744 11.0032 1.27922 10.9629L0.383725 10.5536C0.0543812 10.4031 -0.0911188 10.0127 0.0593812 9.68334L1.89982 5.65631C2.05032 5.32694 2.44079 5.18147 2.7701 5.332L3.6656 5.74122C3.99494 5.89178 4.14044 6.28219 3.98994 6.61153L3.93422 6.73344L4.74485 7.10741C4.75091 7.11022 4.75688 7.11328 4.76273 7.11653C5.08523 7.29806 5.41982 7.21903 5.84329 7.11897C6.39532 6.98856 7.07488 6.82837 7.87069 7.29809C8.96513 6.62072 9.80554 6.96338 10.4264 7.21712C10.8778 7.40163 11.1686 7.50734 11.4493 7.36137L12.2189 6.94947L12.2017 6.90559C12.0698 6.56838 12.2368 6.18669 12.5739 6.05472L13.4909 5.69594C13.8282 5.56406 14.2098 5.73106 14.3418 6.06819L14.3418 6.06822L15.9551 10.1914C16.0189 10.3544 16.0151 10.5328 15.9447 10.6938ZM1.69469 10.4307L3.5351 6.40372C3.57041 6.32644 3.53497 6.23131 3.45766 6.196L2.56219 5.78678C2.54349 5.77824 2.52329 5.7735 2.50274 5.77283C2.48219 5.77217 2.46172 5.77559 2.44251 5.78291C2.4232 5.78995 2.40548 5.80076 2.39038 5.81471C2.37528 5.82866 2.36309 5.84547 2.35454 5.86416L0.514069 9.89119C0.478756 9.96847 0.514194 10.0636 0.591475 10.0989L1.48697 10.5081C1.56429 10.5435 1.65938 10.508 1.69469 10.4307ZM3.94554 13.3595C4.06101 13.3245 4.15563 13.2474 4.21222 13.1424L4.6586 12.308C4.77385 12.0926 4.68923 11.8117 4.47369 11.6969C4.25869 11.5824 3.97829 11.6646 3.86207 11.8819L3.41651 12.715C3.30101 12.931 3.38619 13.211 3.60176 13.3263C3.70751 13.3828 3.82963 13.3946 3.94554 13.3595ZM5.2016 14.2681L5.80532 13.1393C5.92038 12.9242 5.83572 12.6429 5.62044 12.5282C5.40691 12.4145 5.1266 12.4953 5.00973 12.7117L4.40507 13.842C4.34851 13.9477 4.33673 14.0698 4.37188 14.1858C4.40704 14.3018 4.4846 14.3968 4.59032 14.4533C4.69604 14.5098 4.81807 14.5216 4.93407 14.4865C5.05007 14.4514 5.1451 14.3738 5.2016 14.2681ZM6.5546 14.714L7.04279 13.8012C7.15804 13.5856 7.07347 13.3048 6.85791 13.1901C6.64138 13.0747 6.36185 13.1589 6.24626 13.3751L5.75807 14.2879C5.6406 14.5076 5.72373 14.7818 5.94335 14.8993C6.04907 14.9558 6.17113 14.9676 6.28713 14.9324C6.4031 14.8973 6.4981 14.8197 6.5546 14.714ZM7.85304 15.2618L8.28026 14.463C8.39441 14.2496 8.30954 13.966 8.09538 13.8519C7.87888 13.7367 7.59935 13.8207 7.48373 14.0369L7.05644 14.8359C6.9391 15.0555 7.02222 15.3296 7.24179 15.4471C7.34754 15.5036 7.46966 15.5154 7.58557 15.4802C7.70151 15.4451 7.79651 15.3675 7.85304 15.2618ZM9.26794 14.5759L8.8361 14.3384C8.83388 14.3372 8.83188 14.3357 8.82969 14.3345C8.81857 14.462 8.78165 14.586 8.72116 14.6988L8.47122 15.1662L8.79819 15.346C9.01647 15.466 9.2916 15.3862 9.4116 15.1679C9.52466 14.9624 9.45932 14.7056 9.26794 14.5759ZM12.1015 11.327L9.67476 9.94384C9.25988 9.70731 8.74369 9.91634 8.14613 10.1583C7.24507 10.5231 6.12363 10.9771 5.1751 9.66997C5.15449 9.64157 5.14009 9.60914 5.13284 9.57481C5.12558 9.54047 5.12564 9.505 5.13301 9.47068C5.14037 9.43637 5.15487 9.404 5.17558 9.37566C5.19628 9.34732 5.22271 9.32366 5.25316 9.30622C5.97341 8.89363 6.57869 8.44178 7.05226 7.96325C7.16909 7.84495 7.29153 7.73233 7.41916 7.62578C6.88579 7.38659 6.43301 7.49341 5.95819 7.60559C5.49498 7.715 5.01613 7.82812 4.52663 7.55741L3.72632 7.18819L2.29297 10.3245C2.57885 10.4528 2.98019 10.6318 3.07694 10.6694C3.43569 10.8087 3.52485 11.1537 3.57769 11.432C3.68863 11.3178 3.82741 11.2327 3.98454 11.185C4.22841 11.1112 4.48569 11.1363 4.70916 11.2558C4.93198 11.3745 5.09573 11.5742 5.16982 11.818C5.18758 11.8764 5.19978 11.9364 5.20626 11.9971C5.42723 11.9488 5.65519 11.9797 5.85591 12.0871C6.07873 12.2057 6.24248 12.4055 6.31657 12.6493C6.32082 12.6633 6.32469 12.6774 6.32829 12.6915C6.34166 12.6868 6.3551 12.6823 6.36876 12.6781C6.61257 12.6042 6.86991 12.6294 7.09338 12.7489C7.31619 12.8676 7.47991 13.0673 7.55404 13.3111C7.55832 13.3251 7.56216 13.3392 7.56576 13.3533C7.5791 13.3486 7.59257 13.3441 7.60619 13.34C7.84991 13.2661 8.10729 13.2912 8.33082 13.4108C8.43818 13.4678 8.53345 13.5451 8.61138 13.6385L9.87085 14.3368C10.089 14.4567 10.3642 14.3769 10.4843 14.1587C10.6032 13.9426 10.5223 13.6669 10.3041 13.5441L8.80613 12.701C8.77752 12.6849 8.75236 12.6633 8.73209 12.6375C8.71182 12.6117 8.69683 12.5821 8.68799 12.5505C8.67914 12.5189 8.67661 12.4858 8.68054 12.4532C8.68447 12.4206 8.69478 12.3891 8.71088 12.3605C8.72698 12.3319 8.74857 12.3067 8.77439 12.2865C8.80022 12.2662 8.82979 12.2512 8.8614 12.2424C8.89302 12.2335 8.92607 12.231 8.95867 12.2349C8.99127 12.2388 9.02277 12.2491 9.05138 12.2653L11.03 13.3687C11.2481 13.4887 11.5233 13.4088 11.6434 13.1906C11.7614 12.976 11.6824 12.7028 11.4675 12.5787C11.4536 12.5718 9.68638 11.5744 9.68638 11.5744C9.62865 11.5418 9.58624 11.4876 9.56848 11.4237C9.55071 11.3598 9.55905 11.2915 9.59166 11.2338C9.6078 11.2052 9.62941 11.1801 9.65527 11.1598C9.68112 11.1396 9.71071 11.1246 9.74235 11.1158C9.77398 11.107 9.80704 11.1046 9.83963 11.1086C9.87222 11.1125 9.9037 11.1229 9.93229 11.1391L11.672 12.1217C11.7737 12.1792 11.8931 12.1928 12.0081 12.1601C12.1266 12.1264 12.2242 12.0491 12.2829 11.9423C12.4011 11.7274 12.3198 11.4514 12.1015 11.327ZM13.6749 10.6705L12.4023 7.41838L11.6826 7.80359C11.1797 8.06519 10.7005 7.86938 10.2371 7.67997C9.60426 7.42128 8.94982 7.15381 8.00397 7.80766C7.80585 7.94459 7.60523 8.11528 7.40766 8.31494C6.95941 8.76787 6.40419 9.19634 5.75448 9.59097C6.42319 10.3162 7.13951 10.0264 7.95851 9.69484C8.61651 9.42847 9.29688 9.15297 9.92238 9.50947L12.3491 10.8927C12.4523 10.9514 12.5437 11.0287 12.6187 11.1208L13.6749 10.6705ZM15.4894 10.3737L13.8761 6.25044C13.8455 6.17231 13.7511 6.131 13.673 6.16159L12.7561 6.52034C12.677 6.55131 12.6363 6.64431 12.6673 6.72344L14.2807 10.8467C14.2882 10.8658 14.2994 10.8833 14.3137 10.898C14.328 10.9128 14.3451 10.9246 14.364 10.9327C14.3827 10.9411 14.403 10.9456 14.4236 10.9461C14.4441 10.9466 14.4645 10.943 14.4837 10.9355L15.4006 10.5767C15.4392 10.5617 15.4697 10.5321 15.4866 10.4934C15.5035 10.4548 15.5046 10.4122 15.4894 10.3737ZM13.4494 6.57338C13.2575 6.57338 13.1011 6.72981 13.1011 6.92163C13.1011 7.11344 13.2575 7.26991 13.4494 7.26991C13.6412 7.26991 13.7976 7.11344 13.7976 6.92163C13.7976 6.72981 13.6412 6.57338 13.4494 6.57338ZM2.76257 6.21041C2.57051 6.19969 2.40616 6.34669 2.39544 6.53875C2.38472 6.73081 2.53172 6.89516 2.72379 6.90588C2.91585 6.91659 3.08019 6.76959 3.09091 6.57753C3.10163 6.38547 2.95463 6.22109 2.76257 6.21041ZM2.79763 4.56741C2.67416 4.39991 2.64007 4.19822 2.70163 3.9995C2.87307 3.44591 3.26941 3.01506 3.77304 2.79284C3.57676 2.59256 3.45541 2.31856 3.45541 2.01666C3.45541 1.40469 3.95332 0.906781 4.56529 0.906781C5.17726 0.906781 5.6751 1.40466 5.6751 2.01662C5.6751 2.31841 5.55388 2.59228 5.35779 2.79253C5.60645 2.90262 5.82902 3.06406 6.01088 3.26625C6.2928 2.90572 6.66759 2.62879 7.09501 2.46519C6.79294 2.20831 6.60082 1.82591 6.60082 1.39928C6.60082 0.627719 7.22857 0 8.00013 0C8.77169 0 9.39941 0.627719 9.39941 1.39931C9.39941 1.82597 9.20726 2.20837 8.90522 2.46525C9.33265 2.62887 9.70744 2.90581 9.98935 3.26634C10.1712 3.06416 10.3938 2.90272 10.6424 2.79262C10.4464 2.59234 10.3251 2.31847 10.3251 2.01669C10.3251 1.40472 10.823 0.906844 11.435 0.906844C12.0469 0.906844 12.5449 1.40472 12.5449 2.01669C12.5449 2.31862 12.4235 2.59263 12.2272 2.79291C12.7308 3.01513 13.1272 3.44594 13.2986 3.99956C13.3602 4.19828 13.3261 4.39997 13.2026 4.56747C13.0791 4.73497 12.8965 4.82722 12.6885 4.82722H10.5102V5.03659C10.5101 5.50941 10.1254 5.89406 9.65269 5.89406H6.34754C5.87472 5.89406 5.4901 5.50941 5.4901 5.03659V4.82716H3.31176C3.10363 4.82712 2.92107 4.73491 2.79763 4.56741ZM11.4347 2.62653H11.4352C11.7713 2.62641 12.0449 2.35287 12.0449 2.01669C12.0449 1.68041 11.7713 1.40684 11.435 1.40684C11.0987 1.40684 10.8251 1.68041 10.8251 2.01669C10.8251 2.35287 11.0986 2.62641 11.4347 2.62653ZM10.2689 3.715C10.3635 3.90938 10.4326 4.11515 10.4745 4.32722H12.6885C12.7363 4.32722 12.7718 4.30928 12.8002 4.27078C12.8285 4.23234 12.8351 4.19312 12.821 4.14747C12.6319 3.53694 12.0751 3.12672 11.4353 3.12656H11.4347C10.968 3.12663 10.5419 3.34453 10.2689 3.715ZM7.99948 2.29859H8.00076C8.49635 2.29825 8.89944 1.89497 8.89944 1.39931C8.89941 0.903437 8.49601 0.5 8.00013 0.5C7.50426 0.5 7.10082 0.903437 7.10082 1.39931C7.10082 1.89497 7.50391 2.29825 7.99948 2.29859ZM5.9901 4.59084V5.03656C5.9901 5.23369 6.15044 5.39403 6.34754 5.39403H9.65266C9.84979 5.39403 10.0101 5.23366 10.0101 5.03656V4.59084C9.89423 3.56831 9.03269 2.79891 8.00072 2.79859H8.0001L7.99944 2.79856C6.96748 2.79891 6.10594 3.56834 5.9901 4.59084ZM4.56504 2.62647H4.56547C4.90166 2.62634 5.1751 2.35281 5.1751 2.01662C5.1751 1.68034 4.90154 1.40675 4.56526 1.40675C4.22898 1.40675 3.95538 1.68034 3.95538 2.01662C3.95538 2.35284 4.22885 2.62634 4.56504 2.62647ZM3.20007 4.27075C3.22844 4.30922 3.26391 4.32716 3.31172 4.32716H5.52569C5.5676 4.1151 5.63669 3.90934 5.73126 3.71497C5.45826 3.3445 5.03213 3.12659 4.56547 3.1265H4.56488C3.92507 3.12666 3.36823 3.53687 3.17916 4.14741C3.16507 4.19303 3.17169 4.23225 3.20007 4.27075Z" fill="#1E866F"/>
</g>
<defs>
<clipPath id="clip0_10332_2628">
<rect width="16" height="16" fill="white"/>
</clipPath>
</defs>
</svg>
