<svg width="65" height="65" viewBox="0 0 65 65" fill="none" xmlns="http://www.w3.org/2000/svg">
<path d="M41.0439 32.6887L48.5723 25.1358C49.0674 24.6518 49.334 23.9895 49.334 23.289C49.334 22.6012 49.0674 21.9389 48.5723 21.4422L43.6973 16.5513C43.2148 16.0546 42.5547 15.7871 41.8564 15.7871C41.1709 15.7871 40.5107 16.0546 40.0156 16.5513L32.5 24.1169L24.9717 16.564C24.4893 16.0673 23.8291 15.7998 23.1309 15.7998C22.4453 15.7998 21.7852 16.0673 21.29 16.564L16.415 21.4549C15.3994 22.4739 15.3994 24.1296 16.415 25.1358L23.9434 32.6887L16.415 40.2415C15.3994 41.2604 15.3994 42.9162 16.415 43.9224L21.29 48.8133C21.7725 49.31 22.4326 49.5775 23.1309 49.5775C23.8164 49.5775 24.4766 49.31 24.9717 48.8133L32.5 41.2604L40.0283 48.8133C40.5107 49.31 41.1709 49.5775 41.8691 49.5775C42.5547 49.5775 43.2148 49.31 43.71 48.8133L48.585 43.9224C49.0801 43.4384 49.3467 42.7761 49.3467 42.0756C49.3467 41.3878 49.0801 40.7255 48.585 40.2288L41.0439 32.6887ZM47.0742 42.4322L42.1992 47.3231C42.1103 47.4122 41.9834 47.4632 41.8564 47.4632C41.7295 47.4632 41.6025 47.4122 41.5137 47.3231L33.2363 39.0188C33.0332 38.815 32.7539 38.7131 32.4873 38.7131C32.2207 38.7131 31.9414 38.815 31.7383 39.0188L23.4609 47.3231C23.3721 47.4122 23.2451 47.4632 23.1182 47.4632C23.042 47.4632 22.9023 47.4505 22.7754 47.3231L17.9004 42.4322C17.71 42.2412 17.71 41.9355 17.9004 41.7444L26.1777 33.4401C26.5967 33.0198 26.5967 32.3575 26.1777 31.9372L17.9004 23.6329C17.71 23.4418 17.71 23.1362 17.9004 22.9451L22.7754 18.0542C22.8643 17.9651 22.9912 17.9141 23.1182 17.9141C23.1943 17.9141 23.334 17.9269 23.4609 18.0542L31.7383 26.3585C32.1572 26.7788 32.8174 26.7788 33.2363 26.3585L41.5137 18.0542C41.6406 17.9269 41.7803 17.9141 41.8564 17.9141C41.9326 17.9141 42.0723 17.9269 42.1992 18.0542L47.0742 22.9451C47.1631 23.0343 47.2139 23.1616 47.2139 23.289C47.2139 23.3654 47.2012 23.5055 47.0742 23.6329L38.7969 31.9372C38.3779 32.3575 38.3779 33.0198 38.7969 33.4401L47.0742 41.7444C47.2012 41.8718 47.2139 42.0119 47.2139 42.0883C47.2139 42.1647 47.2012 42.3048 47.0742 42.4322Z" fill="#FF9900"/>
<path d="M55.3135 9.46895C54.8945 9.06138 54.2344 9.06138 53.8154 9.48169C53.4092 9.902 53.4092 10.5643 53.8281 10.9846C59.668 16.7543 62.8926 24.4727 62.8926 32.7006C62.8926 40.8394 59.7314 48.4941 53.9932 54.2511C48.2549 60.008 40.6123 63.1667 32.5 63.1667C28.0059 63.1667 23.6768 62.1987 19.6396 60.301C19.1064 60.059 18.4844 60.2882 18.2432 60.8232C18.002 61.3454 18.2305 61.9695 18.751 62.2242C23.0801 64.2494 27.7012 65.281 32.5127 65.281C41.1963 65.281 49.3594 61.8931 55.4912 55.7285C61.6357 49.564 65.0127 41.387 65.0127 32.6752C65 23.8869 61.5596 15.6462 55.3135 9.46895ZM51.9873 6.59047C46.3379 2.33642 39.5967 0.0820312 32.5 0.0820312C23.8164 0.0820312 15.6533 3.46998 9.52148 9.63453C3.37695 15.7863 0 23.976 0 32.6879C0 43.7433 5.52246 53.9709 14.7646 60.0208C15.2471 60.3392 15.9072 60.1991 16.2246 59.7151C16.542 59.2184 16.4023 58.5688 15.9199 58.2504C7.27441 52.5826 2.12012 43.0301 2.12012 32.6879C2.12012 24.5492 5.28125 16.8944 11.0195 11.1375C16.7578 5.38048 24.3877 2.20905 32.5 2.20905C39.1269 2.20905 45.4365 4.3106 50.7178 8.29718C51.1748 8.65381 51.8477 8.57739 52.2031 8.11887C52.5586 7.66035 52.4824 6.9853 52.0254 6.62868C52.0127 6.61594 52 6.6032 51.9873 6.59047Z" fill="#FF9900"/>
</svg>
