<svg width="14" height="14" viewBox="0 0 14 14" fill="none" xmlns="http://www.w3.org/2000/svg">
<path d="M13.5027 1.93126C13.2019 1.90384 12.9359 2.12546 12.9085 2.42624L12.836 3.22109C11.6067 1.29046 9.47264 0 6.99997 0C4.33994 0 1.99574 1.51818 0.83204 3.79679C0.694665 4.06577 0.801361 4.39518 1.07034 4.53255C1.33938 4.66993 1.66873 4.56326 1.80611 4.29425C2.79095 2.36586 4.76864 1.09375 6.99997 1.09375C9.03372 1.09375 10.8691 2.1528 11.9206 3.81194L11.1408 3.25503C10.895 3.07951 10.5535 3.13644 10.3779 3.3822C10.2024 3.628 10.2593 3.96952 10.5051 4.14507L12.8697 5.83384C13.2162 6.08089 13.6942 5.85473 13.7321 5.43848L13.9976 2.52555C14.0251 2.22474 13.8035 1.95869 13.5027 1.93126ZM12.9296 9.46745C12.6606 9.3301 12.3312 9.43677 12.1938 9.70575C11.209 11.6341 9.2313 12.9062 6.99997 12.9062C4.96622 12.9062 3.13086 11.8472 2.07938 10.1881L2.85914 10.745C3.10494 10.9205 3.44646 10.8636 3.622 10.6178C3.79752 10.372 3.7406 10.0305 3.49483 9.85493L1.13028 8.16616C0.787962 7.92159 0.306111 8.14097 0.26783 8.56152L0.00229435 11.4744C-0.0251314 11.7752 0.19649 12.0413 0.497244 12.0687C0.798408 12.0961 1.06411 11.8742 1.09151 11.5737L1.16397 10.7789C2.39329 12.7095 4.5273 14 6.99997 14C9.66 14 12.0042 12.4818 13.1679 10.2032C13.3053 9.93423 13.1986 9.60482 12.9296 9.46745Z" fill="white"/>
</svg>
