<svg width="16" height="17" viewBox="0 0 16 17" fill="none" xmlns="http://www.w3.org/2000/svg">
<g clip-path="url(#clip0_2112_1826)">
<path d="M7.95 1.30503C9.20667 1.30503 10.4667 1.66394 11.59 2.34486C12.3033 2.77757 12.9433 3.32096 13.49 3.95493L11.61 3.8912C11.39 3.88449 11.2033 4.05891 11.1967 4.28029C11.19 4.50168 11.3633 4.68952 11.5833 4.69623L14.1833 4.78344C14.3333 4.84382 14.5033 4.81027 14.62 4.69623C14.7333 4.58218 14.7667 4.40776 14.7067 4.25681L14.62 1.64046C14.6133 1.41908 14.4333 1.2413 14.21 1.24801C13.99 1.25472 13.8133 1.43585 13.82 1.66059C13.82 1.66394 13.82 1.6673 13.82 1.67065L13.87 3.18008C13.32 2.58973 12.69 2.07652 12 1.65723C10.7533 0.899161 9.35333 0.5 7.95 0.5C5.71 0.5 3.64333 1.42914 2.13667 3.11635C0.796667 4.61237 0 6.62495 0 8.5C0 8.72138 0.18 8.90252 0.4 8.90252C0.62 8.90252 0.8 8.72138 0.8 8.5C0.8 6.8195 1.52 5.00818 2.73 3.65639C4.08667 2.14025 5.94 1.30503 7.95 1.30503ZM15.6 8.09749C15.38 8.09749 15.2 8.27862 15.2 8.5C15.2 10.1805 14.48 11.9918 13.27 13.3436C11.9133 14.8597 10.06 15.695 8.05 15.695C6.79333 15.695 5.53333 15.3361 4.41 14.6551C3.69667 14.2224 3.05667 13.679 2.51 13.0451L4.39 13.1088C4.61 13.1155 4.79667 12.9411 4.80333 12.7197C4.81 12.4983 4.63667 12.3105 4.41667 12.3038L1.81667 12.2166C1.61333 12.1327 1.38 12.23 1.29333 12.4346C1.25333 12.5319 1.25333 12.6426 1.29333 12.7432L1.38 15.3595C1.38333 15.5809 1.56667 15.7587 1.79 15.752C2.01 15.7486 2.18667 15.5642 2.18 15.3394C2.18 15.3361 2.18 15.3327 2.18 15.3294L2.13 13.8199C2.68 14.4103 3.31 14.9235 4 15.3428C5.25 16.0975 6.65 16.4966 8.05333 16.4966C10.2933 16.4966 12.36 15.5675 13.8667 13.8803C15.2033 12.3843 16.0033 10.3717 16.0033 8.49665C16 8.27862 15.82 8.09749 15.6 8.09749Z" fill="white"/>
</g>
<defs>
<clipPath id="clip0_2112_1826">
<rect width="16" height="16" fill="white" transform="translate(0 0.5)"/>
</clipPath>
</defs>
</svg>
