<svg width="68" height="68" viewBox="0 0 68 68" fill="none" xmlns="http://www.w3.org/2000/svg">
<path d="M55.352 21.4884C54.128 21.0804 53.312 20.4004 53.312 19.5844V19.0404C54.944 17.4084 55.896 14.6884 55.896 12.2404C55.896 8.43237 53.448 5.98438 49.504 5.98438C45.696 5.98438 43.112 8.43237 43.112 12.2404C43.112 14.6884 44.064 17.2724 45.696 19.0404V19.4484C45.696 20.1284 44.88 20.9444 43.656 21.3524C40.528 22.4404 38.624 24.7524 38.624 27.3364V29.3764C38.624 30.1924 39.168 30.7364 39.984 30.7364H58.888C59.704 30.7364 60.248 30.1924 60.248 29.3764V27.3364C60.384 24.7524 58.48 22.4404 55.352 21.4884ZM49.64 8.70437C51 8.70437 53.312 9.11237 53.312 12.2404C53.312 15.0964 51.408 18.0884 49.64 18.0884C47.872 18.0884 45.968 15.0964 45.968 12.2404C45.968 9.24837 48.28 8.70437 49.64 8.70437ZM57.664 28.0164H41.48V27.3364C41.48 25.9764 42.704 24.6164 44.744 23.9364C46.648 23.2564 48.008 22.0324 48.416 20.6724C48.824 20.8084 49.232 20.8084 49.64 20.8084C50.048 20.8084 50.456 20.8084 50.864 20.6724C51.272 22.1684 52.632 23.3924 54.536 23.9364C56.44 24.6164 57.8 25.9764 57.8 27.3364V28.0164H57.664Z" fill="#1E866F"/>
<path d="M62.5601 1.35938H36.7201C34.4081 1.35938 32.6401 3.12738 32.6401 5.43938V9.38338C30.8721 8.70338 28.8321 8.29538 26.6561 8.29538C17.9521 8.29538 12.6481 13.5994 12.6481 22.1674C12.6481 28.2874 15.3681 34.6794 19.3121 38.3514V40.3914C19.3121 43.1114 16.7281 45.8314 12.9201 47.0554C5.84811 49.5034 1.36011 54.6714 1.36011 60.2474V65.2794C1.36011 66.0954 1.90411 66.6394 2.72011 66.6394H50.5921C51.4081 66.6394 51.9521 66.0954 51.9521 65.2794V60.2474C51.9521 54.6714 47.4641 49.5034 40.5281 47.1914C36.5841 45.8314 34.1361 43.2474 34.1361 40.5274V38.4874C35.0881 37.5354 35.9041 36.5834 36.7201 35.3594H45.4241V39.7114C45.4241 39.8474 45.2881 39.9834 45.1521 39.9834H40.2561C39.4401 39.9834 38.8961 40.5274 38.8961 41.3434C38.8961 42.1594 39.4401 42.7034 40.2561 42.7034H45.1521C46.7841 42.7034 48.1441 41.3434 48.1441 39.7114V35.3594H62.5601C64.8721 35.3594 66.6401 33.5914 66.6401 31.2794V5.43938C66.6401 3.12738 64.8721 1.35938 62.5601 1.35938ZM39.5761 49.7754C45.4241 51.6794 49.2321 55.8954 49.2321 60.2474V63.9194H4.08011V60.2474C4.08011 55.7594 7.88811 51.6794 13.7361 49.7754C18.9041 48.0074 22.0321 44.4714 22.0321 40.5274C23.5281 41.3434 25.1601 41.7514 26.6561 41.7514C28.1521 41.7514 29.7841 41.3434 31.2801 40.5274C31.2801 44.4714 34.5441 48.1434 39.5761 49.7754ZM31.8241 36.8554C28.4241 39.7114 24.8881 39.7114 21.4881 36.8554C17.8161 33.7274 15.3681 27.7434 15.3681 22.1674C15.3681 15.2314 19.5841 11.0154 26.6561 11.0154C28.9681 11.0154 31.0081 11.5594 32.6401 12.3754V31.2794C32.6401 32.5034 33.1841 33.5914 34.0001 34.4074C33.3201 35.3594 32.6401 36.1754 31.8241 36.8554ZM63.9201 31.2794C63.9201 32.0954 63.3761 32.6394 62.5601 32.6394H36.7201C35.9041 32.6394 35.3601 32.0954 35.3601 31.2794V5.43938C35.3601 4.62338 35.9041 4.07938 36.7201 4.07938H62.5601C63.3761 4.07938 63.9201 4.62338 63.9201 5.43938V31.2794ZM6.52811 14.4154C7.34411 14.4154 7.88811 13.8714 7.88811 13.0554V8.15938C7.88811 8.02338 8.02411 7.88738 8.16011 7.88738H13.0561C13.8721 7.88738 14.4161 7.34338 14.4161 6.52738C14.4161 5.71138 13.8721 5.16738 13.0561 5.16738H8.29611C6.66411 5.16738 5.30411 6.52738 5.30411 8.15938V13.0554C5.16811 13.7354 5.84811 14.4154 6.52811 14.4154Z" fill="#1E866F"/>
<path d="M8.29605 42.8386H13.1921C14.0081 42.8386 14.5521 42.2946 14.5521 41.4786C14.5521 40.6626 14.0081 40.1186 13.1921 40.1186H8.29605C8.16005 40.1186 8.02406 39.9826 8.02406 39.8466V35.0866C8.02406 34.2706 7.48005 33.7266 6.66405 33.7266C5.84806 33.7266 5.30406 34.2706 5.30406 35.0866V39.8466C5.16806 41.4786 6.52805 42.8386 8.29605 42.8386Z" fill="#1E866F"/>
</svg>
