<svg width="18" height="16" viewBox="0 0 18 16" fill="none" xmlns="http://www.w3.org/2000/svg">
<path d="M2.90479 6.68214H6.68171C6.75876 6.68214 6.83266 6.65153 6.88714 6.59704C6.94163 6.54256 6.97224 6.46866 6.97224 6.39161C6.97224 6.31455 6.94163 6.24065 6.88714 6.18617C6.83266 6.13168 6.75876 6.10107 6.68171 6.10107H2.90479C2.82774 6.10107 2.75384 6.13168 2.69935 6.18617C2.64487 6.24065 2.61426 6.31455 2.61426 6.39161C2.61426 6.46866 2.64487 6.54256 2.69935 6.59704C2.75384 6.65153 2.82774 6.68214 2.90479 6.68214ZM10.4586 7.84427H2.90479C2.82774 7.84427 2.75384 7.87488 2.69935 7.92936C2.64487 7.98385 2.61426 8.05774 2.61426 8.1348C2.61426 8.21185 2.64487 8.28575 2.69935 8.34024C2.75384 8.39472 2.82774 8.42533 2.90479 8.42533H10.4586C10.5357 8.42533 10.6096 8.39472 10.6641 8.34024C10.7185 8.28575 10.7492 8.21185 10.7492 8.1348C10.7492 8.05774 10.7185 7.98385 10.6641 7.92936C10.6096 7.87488 10.5357 7.84427 10.4586 7.84427ZM10.4586 9.58746H2.90479C2.82774 9.58746 2.75384 9.61807 2.69935 9.67255C2.64487 9.72704 2.61426 9.80094 2.61426 9.87799C2.61426 9.95504 2.64487 10.0289 2.69935 10.0834C2.75384 10.1379 2.82774 10.1685 2.90479 10.1685H10.4586C10.5357 10.1685 10.6096 10.1379 10.6641 10.0834C10.7185 10.0289 10.7492 9.95504 10.7492 9.87799C10.7492 9.80094 10.7185 9.72704 10.6641 9.67255C10.6096 9.61807 10.5357 9.58746 10.4586 9.58746Z" fill="#FF9900"/>
<path d="M15.7096 0.0203373L5.7903 0C4.84026 0 4.06745 0.772815 4.06745 1.72285V3.21154L1.72285 3.21648C0.772815 3.21648 0 3.98929 0 4.93933V11.0815C0 12.0315 0.772815 12.804 1.72285 12.804H3.48638V15.7094C3.48636 15.768 3.50409 15.8253 3.53724 15.8737C3.57039 15.9221 3.61741 15.9593 3.67211 15.9804C3.72681 16.0016 3.78664 16.0057 3.84372 15.9922C3.9008 15.9787 3.95246 15.9483 3.99191 15.9049L6.81123 12.8035L11.6416 12.7837C12.5917 12.7837 13.3645 12.0109 13.3645 11.0611V11.0283L14.8927 12.7093C14.9322 12.7524 14.9839 12.7826 15.0409 12.7959C15.0979 12.8092 15.1575 12.805 15.2121 12.7839C15.2667 12.7628 15.3136 12.7258 15.3468 12.6776C15.38 12.6294 15.3979 12.5723 15.3982 12.5138V9.60847H15.7091C16.6591 9.60847 17.4319 8.83566 17.4319 7.88591V1.74319C17.4314 1.28653 17.2498 0.848714 16.9269 0.525749C16.6041 0.202784 16.1663 0.0210292 15.7096 0.0203373ZM12.7834 11.0608C12.783 11.3637 12.6624 11.6541 12.4481 11.8681C12.2338 12.0821 11.9433 12.2023 11.6405 12.2023L6.68107 12.2227C6.64079 12.2228 6.60098 12.2313 6.56417 12.2477C6.52736 12.2641 6.49435 12.2879 6.46724 12.3177L4.06745 14.9577V12.5132C4.06745 12.4362 4.03684 12.3623 3.98235 12.3078C3.92787 12.2533 3.85397 12.2227 3.77692 12.2227H1.72285C1.42018 12.2224 1.12998 12.102 0.915929 11.888C0.701877 11.674 0.581448 11.3839 0.581064 11.0812V4.93904C0.581449 4.63624 0.701947 4.34596 0.916117 4.1319C1.13029 3.91783 1.42063 3.79748 1.72344 3.79725L4.35798 3.79173H4.35856L11.6416 3.77662C11.9443 3.77693 12.2346 3.89733 12.4486 4.11139C12.6627 4.32545 12.7831 4.61569 12.7834 4.91842V11.0608ZM16.8509 7.88533C16.8505 8.18801 16.73 8.47817 16.516 8.69217C16.3019 8.90617 16.0117 9.02652 15.7091 9.02683H15.1077C15.0306 9.02683 14.9567 9.05744 14.9022 9.11192C14.8477 9.16641 14.8171 9.24031 14.8171 9.31736V11.7619L13.3645 10.164V4.91871C13.3645 3.96867 12.5917 3.19585 11.641 3.19585L4.64851 3.21009V1.72256C4.64882 1.41994 4.76913 1.12978 4.98307 0.915741C5.197 0.701697 5.48709 0.581235 5.78972 0.580773L15.7088 0.601111H15.7094C16.0121 0.601418 16.3023 0.721812 16.5164 0.935873C16.7304 1.14993 16.8508 1.44017 16.8511 1.7429L16.8509 7.88533Z" fill="#FF9900"/>
</svg>
