<svg width="15" height="16" viewBox="0 0 15 16" fill="none" xmlns="http://www.w3.org/2000/svg">
<path d="M14.7773 15.2539H14.4521V10.5387C14.4551 10.4128 14.3584 10.3054 14.2354 10.3054C14.1152 10.3023 14.0127 10.4036 14.0127 10.5326C14.0127 10.5356 14.0127 10.5387 14.0127 10.5387V13.5072H12.7969C12.5859 13.5072 12.416 13.6791 12.416 13.8909V15.2539H11.9326C11.9473 15.2017 11.9531 15.1465 11.9531 15.0881C11.9561 14.9623 11.8594 14.8548 11.7363 14.8548C11.6162 14.8518 11.5137 14.9531 11.5137 15.082C11.5137 15.0851 11.5137 15.0881 11.5137 15.0881C11.5137 15.1802 11.4434 15.2539 11.3555 15.2539C11.2676 15.2539 11.1973 15.1802 11.1973 15.0881V13.016H12.7646C13.1338 13.016 13.4355 12.6998 13.4355 12.3131V12.0828C13.4355 11.9293 13.3154 11.8065 13.1719 11.8065H11.9619C11.8887 11.3369 11.5957 10.9623 11.2207 10.858C11.2002 10.7475 11.1094 10.6707 11.0039 10.6707C10.8955 10.6707 10.8076 10.7536 10.7871 10.858C10.4121 10.9623 10.1191 11.3369 10.0459 11.8065H8.7832C8.63672 11.8065 8.51953 11.9324 8.51953 12.0828V12.3131C8.51953 12.6998 8.82129 13.016 9.19043 13.016H10.7578V15.0881C10.7578 15.1802 10.6875 15.2539 10.5996 15.2539C10.5117 15.2539 10.4414 15.1802 10.4414 15.0881C10.4443 14.9623 10.3477 14.8548 10.2246 14.8548C10.1045 14.8518 10.002 14.9531 10.002 15.082C10.002 15.0851 10.002 15.0881 10.002 15.0881C10.002 15.1465 10.0107 15.1987 10.0225 15.2539H9.5918V13.8909C9.5918 13.6791 9.41894 13.5072 9.21094 13.5072H7.99805V10.5387C8.00098 10.4128 7.9043 10.3054 7.78125 10.3054C7.66113 10.3023 7.55859 10.4036 7.55859 10.5326C7.55859 10.5356 7.55859 10.5387 7.55859 10.5387V15.257H6.70312V14.729C6.70312 14.5233 6.54492 14.3575 6.34863 14.3575H6.27539V11.1281C6.27539 11.0022 6.17578 10.8979 6.05566 10.8979C5.93555 10.8979 5.83594 11.0022 5.83594 11.1281V14.3514H3.05859V8.93628C3.05859 8.90558 3.08203 8.87795 3.11426 8.87795H5.78027C5.80957 8.87795 5.83594 8.90251 5.83594 8.93628V10.0537C5.83594 10.1795 5.93555 10.2839 6.05566 10.2839C6.17578 10.2839 6.27539 10.1795 6.27539 10.0537V8.93628C6.27539 8.65078 6.05273 8.41748 5.78027 8.41748H3.11426C2.8418 8.41748 2.61914 8.65078 2.61914 8.93628V14.3545H2.5459C2.34961 14.3545 2.19141 14.5202 2.19141 14.7259V15.2539H1.87207V13.9431C1.86914 13.8173 1.76953 13.7159 1.64941 13.7159C1.53223 13.719 1.43555 13.8173 1.43262 13.9431V15.2539H0.219727C0.0996094 15.2539 0 15.3583 0 15.4841C0 15.61 0.0996094 15.7144 0.219727 15.7144H14.7773C14.8975 15.7175 15 15.6162 15 15.4872C15.0029 15.3614 14.9062 15.2539 14.7832 15.2539C14.7803 15.2539 14.7773 15.2539 14.7773 15.2539ZM11.0039 11.2877C11.2412 11.2877 11.4434 11.5057 11.5137 11.8065H10.4941C10.5645 11.5057 10.7666 11.2877 11.0039 11.2877ZM8.95898 12.3131V12.267H12.999V12.3131C12.999 12.4481 12.8965 12.5556 12.7676 12.5556H9.19043C9.06152 12.5556 8.95898 12.4481 8.95898 12.3131ZM12.8525 13.9677H14.0127V15.257H12.8525V13.9677ZM7.99805 13.9677H9.1582V15.257H7.99805V13.9677ZM2.62793 15.2539V14.8149H6.26074V15.2539H2.62793Z" fill="#888998"/>
<path d="M14.9355 4.61083L13.8105 2.86719C13.6172 2.56635 13.3037 2.36988 12.9609 2.33611V0.702983C12.958 0.316189 12.6562 0 12.2871 0H2.70996C2.33789 0 2.03613 0.316189 2.03613 0.702983V2.33305C1.69043 2.36988 1.37988 2.56328 1.18652 2.86412L0.046875 4.63232C0.0263672 4.65995 0.0117187 4.69372 0.00292969 4.73056C0.00292969 4.73363 0.00292969 4.73977 0 4.74284C0 4.7459 0 4.74897 0 4.75511C0 4.76125 0 4.77046 0 4.7766V5.77122C0 6.36676 0.462891 6.84872 1.02832 6.84872C1.17187 6.84872 1.30664 6.81802 1.43262 6.76276V12.8624C1.43555 12.9883 1.53516 13.0896 1.65527 13.0896C1.77246 13.0865 1.86914 12.9883 1.87207 12.8624V6.47727C2.05957 6.70443 2.33789 6.84872 2.64844 6.84872C2.97656 6.84872 3.26953 6.68602 3.45703 6.43429C3.64453 6.68602 3.9375 6.84872 4.26562 6.84872C4.59375 6.84872 4.88672 6.68602 5.07422 6.43429C5.26172 6.68602 5.55469 6.84872 5.88281 6.84872C6.21094 6.84872 6.50391 6.68602 6.69141 6.43429C6.87891 6.68602 7.17187 6.84872 7.5 6.84872C7.82812 6.84872 8.12109 6.68602 8.30859 6.43429C8.49609 6.68602 8.78906 6.84872 9.11719 6.84872C9.44531 6.84872 9.73828 6.68602 9.92578 6.43429C10.1133 6.68602 10.4062 6.84872 10.7344 6.84872C11.0625 6.84872 11.3555 6.68602 11.543 6.43429C11.7305 6.68602 12.0234 6.84872 12.3516 6.84872C12.6592 6.84872 12.9346 6.7075 13.1221 6.48341V10.8978C13.1221 11.0236 13.2217 11.128 13.3418 11.128C13.4619 11.128 13.5615 11.0236 13.5615 10.8978V6.75969C13.6904 6.81802 13.8281 6.84872 13.9687 6.84872C14.5371 6.84872 14.9971 6.36369 14.9971 5.77122V4.77353C15 4.71214 14.9766 4.65381 14.9355 4.61083ZM3.33984 2.78737H3.94336C3.92285 2.82728 3.90527 2.87026 3.89062 2.91324L3.30762 4.5433H2.19727L2.9209 3.10049C3.02344 2.90403 3.17871 2.78737 3.33984 2.78737ZM12.0732 3.10049L12.7969 4.5433H11.6895L11.1064 2.91324C11.0918 2.87026 11.0742 2.82728 11.0537 2.78737H11.6543C11.8184 2.78737 11.9736 2.90403 12.0732 3.10049ZM10.6963 3.07594L11.2236 4.5433H10.1074L9.76172 2.94393C9.75 2.89175 9.73535 2.83956 9.7207 2.78737H10.4648C10.5264 2.78737 10.623 2.8764 10.6963 3.07594ZM9.33105 3.04524L9.65332 4.5433H8.51074L8.39941 2.9777C8.39355 2.91631 8.39062 2.84877 8.38476 2.78737H9.24316C9.26367 2.82114 9.29883 2.89789 9.33105 3.04524ZM7.95996 3.01147L8.06836 4.5433H6.92871L7.03711 3.01147C7.0459 2.91017 7.05176 2.83649 7.06055 2.78737H7.93652C7.94531 2.83649 7.9541 2.91017 7.95996 3.01147ZM6.60058 2.9777L6.48926 4.5433H5.34668L5.66894 3.04524C5.70117 2.89789 5.73926 2.82114 5.75977 2.78737H6.61816C6.60937 2.84877 6.60644 2.91324 6.60058 2.9777ZM5.23828 2.94393L4.89551 4.5433H3.7793L4.30664 3.07594C4.37695 2.8764 4.47656 2.78737 4.53808 2.78737H5.28223C5.26465 2.83956 5.25 2.89175 5.23828 2.94393ZM13.4443 3.12198L14.3613 4.5433H13.2949L12.4629 2.88561C12.4453 2.85184 12.4277 2.81807 12.4072 2.78431H12.8408C13.0811 2.78737 13.3096 2.91324 13.4443 3.12198ZM2.70996 0.460469H12.2871C12.416 0.460469 12.5186 0.570982 12.5186 0.702983V1.09285H11.2119C11.0918 1.09285 10.9922 1.19722 10.9922 1.32308C10.9922 1.44894 11.0918 1.55332 11.2119 1.55332H12.5186V2.32691H2.47559V1.55332H10.1221C10.2422 1.55332 10.3418 1.44894 10.3418 1.32308C10.3418 1.19722 10.2422 1.09285 10.1221 1.09285H2.47559V0.702983C2.47559 0.570982 2.58105 0.460469 2.70996 0.460469ZM1.55273 3.12198C1.6875 2.91017 1.91602 2.78431 2.15918 2.78431H2.59277C2.57227 2.81807 2.55469 2.85184 2.53711 2.88561L1.70508 4.5433H0.635742L1.55273 3.12198ZM0.439453 5.77122V5.00684H1.61719V5.77122C1.61719 6.11196 1.35352 6.38825 1.02832 6.38825C0.703125 6.38825 0.439453 6.11196 0.439453 5.77122ZM2.64551 6.38825C2.32031 6.38825 2.05664 6.11196 2.05664 5.77122V5.00684H3.23437V5.77122C3.23437 6.11196 2.9707 6.38825 2.64551 6.38825ZM4.26562 6.38825C3.94043 6.38825 3.67676 6.11196 3.67676 5.77122V5.00684H4.85449V5.77122C4.85449 6.11196 4.58789 6.38825 4.26562 6.38825ZM5.88281 6.38825C5.55762 6.38825 5.29394 6.11196 5.29394 5.77122V5.00684H6.47168V5.77122C6.47168 6.11196 6.20801 6.38825 5.88281 6.38825ZM7.5 6.38825C7.1748 6.38825 6.91113 6.11196 6.91113 5.77122V5.00684H8.08887V5.77122C8.08887 6.11196 7.82519 6.38825 7.5 6.38825ZM9.11719 6.38825C8.79199 6.38825 8.52832 6.11196 8.52832 5.77122V5.00684H9.70605V5.77122C9.70605 6.11196 9.44238 6.38825 9.11719 6.38825ZM10.7344 6.38825C10.4092 6.38825 10.1455 6.11196 10.1455 5.77122V5.00684H11.3232V5.77122C11.3262 6.11196 11.0596 6.38825 10.7344 6.38825ZM12.3545 6.38825C12.0293 6.38825 11.7656 6.11196 11.7656 5.77122V5.00684H12.9434V5.77122C12.9434 6.11196 12.6797 6.38825 12.3545 6.38825ZM13.9717 6.38825C13.6465 6.38825 13.3828 6.11196 13.3828 5.77122V5.00684H14.5605V5.77122C14.5605 6.11196 14.2969 6.38825 13.9717 6.38825Z" fill="#888998"/>
<path d="M5.45215 11.6838C5.44922 11.8097 5.34961 11.911 5.22949 11.911C5.1123 11.9079 5.01562 11.8097 5.0127 11.6838C5.0127 11.558 5.1123 11.4536 5.23242 11.4536C5.35254 11.4536 5.45215 11.5549 5.45215 11.6838Z" fill="#888998"/>
</svg>
