<svg width="96" height="166" viewBox="0 0 96 166" fill="none" xmlns="http://www.w3.org/2000/svg">
<path d="M58.7066 149.939V144.12C58.7066 144.12 54.2786 139.723 54.2786 133.208L61.7745 76.087C61.9327 74.5689 62.6918 73.1772 63.8304 72.1651L63.9253 72.1019C66.8351 69.5083 71.4844 69.8879 73.8566 72.8926L94.4782 95.4119C95.2057 96.3608 95.6169 97.5627 95.6169 98.7645V149.939" fill="#FFEBD4"/>
<path d="M75.5011 10.9727V121.545L5.95043 124.866C3.04063 124.993 0.541992 122.842 0.38385 120.059V10.9727H75.5011Z" fill="#BAEDFE"/>
<path d="M68.0365 83.354L7.72125 82.7531V21.4258H68.0365V83.354Z" fill="white"/>
<path d="M32.0122 33.7344H19.9934V45.7531H32.0122V33.7344ZM29.2921 43.0331H22.7134V36.486H29.2921V43.0331ZM44.5686 70.3283H56.5874V58.3096H44.5686V70.3283ZM47.2887 61.0296H53.8674V67.6083H47.2887V61.0296ZM56.5874 33.7344H44.5686V45.7531H56.5874V33.7344ZM53.8674 43.0331H47.2887V36.486H53.8674V43.0331ZM19.9934 70.3283H32.0122V58.3096H19.9934V70.3283ZM22.7134 61.0296H29.2921V67.6083H22.7134V61.0296Z" fill="#5A5A60"/>
<path d="M39.6346 36.9192V43.4346H36.9146V46.1547H34.1946V47.831H36.9146V50.4245H28.7545V47.7045H26.0344V50.4245H23.2828V53.1445H20.5627V55.8962H34.2262V53.1445H36.9462V50.551H39.6346V46.1547H42.3547V36.9192H39.6346ZM45.1063 50.551H39.6346V55.8962H34.2262V61.3363H36.9146V66.7447H39.6346V69.4964H42.3547V61.3046H39.6663V58.7428H42.3547L42.3863 53.3027H45.1063V50.551ZM53.2981 56.0227V53.3027H56.0181V50.551H47.8264V53.0497H50.578V56.0227H53.2981ZM34.1629 66.7447H36.883V69.4648H34.1629V66.7447ZM16.7673 47.831H19.4874V50.551H16.7673V47.831ZM56.0181 47.831H58.7381V50.551H56.0181V47.831ZM34.1946 33.1238H36.9146V35.8439H34.1946V33.1238ZM45.1063 47.831H47.8264V50.551H45.1063V47.831ZM36.9146 72.6276H39.6346V75.3476H36.9146V72.6276ZM11.6436 46.2812H14.4268V27.9684H32.961V25.1851H11.6436V46.2812ZM43.7463 25.0586V27.8419H62.0591V46.4077H64.8424V25.0586H43.7463ZM64.8424 57.6358H62.0591V75.9486H43.4933V78.7319H64.8424V57.6358ZM32.7397 78.8584V76.0751H14.4268V57.5409H11.6436V78.8584H32.7397Z" fill="#5A5A60"/>
<path d="M0.35199 38.6641H75.5009V41.8269H0.35199V38.6641Z" fill="#FF9900"/>
<path d="M75.5009 115.66V124.548C75.5009 130.462 70.6934 135.27 64.7789 135.27H11.1056C5.19112 135.27 0.383618 130.462 0.35199 124.548V115.66H75.5009Z" fill="#2C2C2E"/>
<path d="M32.0753 124.262H45.4857V127.425H32.0753V124.262Z" fill="white"/>
<path d="M75.5009 10.7536V10.975H0.35199V10.7536C0.35199 4.80751 5.15949 0 11.1056 0H64.7789C70.6934 0.0316283 75.5009 4.83914 75.5009 10.7536Z" fill="#2C2C2E"/>
<path d="M75.4064 140.975C75.4064 140.975 67.3095 134.333 65.7597 126.078C64.463 119.278 66.8984 112.542 66.8984 112.542L56.0498 100.744C53.6777 98.2771 53.7093 94.3869 56.1131 91.9831C58.5169 89.5793 62.4071 89.5477 64.8425 91.8882L85.8121 112.542" fill="#FFEBD4"/>
<path d="M85.8119 114.108C85.4008 114.108 84.9896 113.95 84.7049 113.634L76.0704 105.126C75.4378 104.525 75.4378 103.545 76.0071 102.944L76.0388 102.912C76.6397 102.279 77.6518 102.279 78.2844 102.88L86.9189 111.388C87.5515 111.989 87.5515 113.001 86.9189 113.634C86.6343 113.95 86.2231 114.108 85.8119 114.108ZM75.4062 142.542C75.0583 142.542 74.7104 142.416 74.4257 142.194C74.0778 141.91 65.8228 135.078 64.1781 126.349C62.8498 119.201 65.2851 112.306 65.4117 111.989C65.7279 111.167 66.6452 110.787 67.4675 111.104C68.2582 111.42 68.6377 112.274 68.3847 113.065C68.3531 113.128 66.1075 119.485 67.3094 125.779C68.7326 133.37 76.3234 139.664 76.4183 139.727C77.0825 140.297 77.1774 141.277 76.6397 141.973C76.3234 142.353 75.8806 142.542 75.4062 142.542Z" fill="#FFD5B8"/>
<path d="M58.7061 149.953H95.6479V165.451H58.7061V149.953Z" fill="#1E866F"/>
</svg>
