<svg width="54" height="66" viewBox="0 0 54 66" fill="none" xmlns="http://www.w3.org/2000/svg">
<path d="M6.26826 59.3276L7.78398 59.5738L25.961 62.5288C28.0921 62.8748 30.1932 61.7695 31.1148 59.8176L52.9672 13.5134C53.203 13.014 53.2993 12.4601 53.2459 11.9105C53.1925 11.3608 52.9913 10.8358 52.6638 10.3911L49.9262 6.67753C49.6151 6.25547 49.1322 5.99335 48.6091 5.96325L32.5772 5.03927L21.1634 4.38121C17.4781 4.16864 16.2243 7.62648 16.2243 7.62648C16.2243 7.62648 4.20984 44.9632 1.84909 51.7541C-0.396421 58.2074 6.26826 59.3276 6.26826 59.3276Z" fill="#5A5A60"/>
<path d="M7.78398 59.5738L25.961 62.5288C28.0921 62.8748 30.1932 61.7695 31.1148 59.8176L52.9672 13.5134C53.203 13.014 53.2993 12.4601 53.2459 11.9105C53.1925 11.3608 52.9913 10.8358 52.6638 10.3911L49.9262 6.67753C49.6151 6.25547 49.1322 5.99335 48.6091 5.96325L32.5772 5.03927C32.1383 19.6223 28.2886 45.6211 7.78398 59.5738Z" fill="#2C2C2E"/>
<path d="M8.37129 55.2671L22.5478 57.0908C22.5478 57.0908 25.9715 57.7633 27.6344 55.1414C29.2958 52.5206 47.535 12.4694 47.535 12.4694C47.535 12.4694 49.4855 8.62812 45.5532 8.12226L41.4434 7.78074C41.4434 7.78074 40.8122 9.55846 39.4419 10.095C38.7386 10.3699 35.4035 10.1754 32.3158 9.92055C29.3804 9.67881 26.6712 9.38158 26.6712 9.38158C26.6712 9.38158 24.5676 9.11097 24.9332 7.23625L21.4434 6.95783C21.4434 6.95783 19.6514 6.97601 18.725 7.66963C17.7985 8.36452 16.7259 11.829 16.7259 11.829L4.29944 50.5447C4.29944 50.5447 2.51832 54.5142 8.37129 55.2671Z" fill="#BAEDFE"/>
<path d="M12.61 55.8124L22.5478 57.0908C22.5478 57.0908 25.9715 57.7633 27.6344 55.1414C29.2958 52.5206 47.535 12.4694 47.535 12.4694C47.535 12.4694 49.4855 8.62812 45.5532 8.12226L41.4434 7.78074C41.4434 7.78074 40.8122 9.55846 39.4419 10.095C38.7386 10.3699 35.4035 10.1754 32.3158 9.92055C31.2684 23.4841 27.0654 42.971 12.61 55.8124Z" fill="#9AE1FF"/>
<path d="M22.4371 24.9622L16.8423 24.2424L18.8597 18.8491L24.5083 19.5758L22.4371 24.9622ZM36.7407 26.8022L31.1458 26.0825L33.301 20.7069L38.9497 21.4336L36.7407 26.8022ZM31.2997 40.025L25.8377 39.3223L27.8914 34.2001L33.4047 34.9094L31.2997 40.025ZM17.3355 38.2286L11.8734 37.5259L13.7958 32.3868L19.3091 33.0961L17.3355 38.2286ZM11.6121 40.9815L27.3 42.9997C28.1212 43.1053 28.6239 43.9552 28.3212 44.7259L26.7548 48.7123C26.6512 48.976 26.4626 49.1975 26.2188 49.3417C25.975 49.4859 25.6901 49.5446 25.4091 49.5084L9.61038 47.476C8.77601 47.3687 8.27402 46.4953 8.60129 45.7202L10.2785 41.748C10.3866 41.4922 10.5755 41.2787 10.8163 41.1403C11.0571 41.0019 11.3366 40.9461 11.6121 40.9815Z" fill="#5A5A60"/>
<path d="M22.6744 25.0505C22.654 25.1037 22.6163 25.1485 22.5673 25.1777C22.5184 25.2068 22.4611 25.2187 22.4046 25.2115L16.8098 24.4917C16.7718 24.4869 16.7353 24.4735 16.7032 24.4526C16.6711 24.4316 16.6441 24.4037 16.6244 24.3709C16.6046 24.338 16.5925 24.3011 16.589 24.263C16.5855 24.2248 16.5906 24.1863 16.6041 24.1504L18.6216 18.7572C18.6417 18.7034 18.6794 18.6581 18.7285 18.6285C18.7776 18.5989 18.8353 18.5867 18.8922 18.594L24.5409 19.3207C24.5791 19.3256 24.6157 19.3391 24.6479 19.3603C24.6801 19.3814 24.7071 19.4096 24.7268 19.4426C24.7466 19.4757 24.7585 19.5129 24.7618 19.5513C24.7651 19.5896 24.7596 19.6283 24.7458 19.6642L22.6744 25.0505ZM19.0273 19.1242L17.1929 24.0282L22.2715 24.6815L24.1549 19.7838L19.0273 19.1242ZM30.9267 26.2084C30.8868 26.1405 30.8806 26.058 30.91 25.985L33.0652 20.6095C33.0862 20.5572 33.1239 20.5133 33.1725 20.4848C33.2211 20.4562 33.2778 20.4446 33.3337 20.4518L38.9824 21.1785C39.0211 21.1835 39.0581 21.1973 39.0906 21.2188C39.1231 21.2404 39.1502 21.2692 39.1698 21.3029C39.1894 21.3367 39.201 21.3744 39.2037 21.4134C39.2063 21.4523 39.2 21.4913 39.1852 21.5274L36.9761 26.896C36.9548 26.9477 36.917 26.991 36.8686 27.0191C36.8202 27.0472 36.7639 27.0586 36.7084 27.0514L31.1136 26.3317C31.0751 26.3268 31.0382 26.3132 31.0058 26.2918C30.9734 26.2704 30.9463 26.2419 30.9267 26.2084ZM36.5797 26.5222L38.5884 21.6406L33.4639 20.9814L31.5042 25.8693L36.5797 26.5222ZM27.6554 34.1026C27.6764 34.0503 27.7141 34.0064 27.7627 33.9779C27.8113 33.9494 27.868 33.9378 27.9239 33.945L33.4372 34.6542C33.4759 34.6592 33.513 34.673 33.5455 34.6946C33.578 34.7162 33.6051 34.7449 33.6247 34.7787C33.6443 34.8124 33.6559 34.8502 33.6585 34.8891C33.6612 34.928 33.6549 34.9671 33.64 35.0031L31.5351 40.1189C31.5138 40.1706 31.476 40.2139 31.4276 40.242C31.3792 40.2701 31.3229 40.2814 31.2674 40.2743L25.8054 39.5716C25.7669 39.5667 25.73 39.5529 25.6977 39.5315C25.6653 39.5101 25.6382 39.4816 25.6186 39.4481C25.5989 39.4146 25.5872 39.3771 25.5843 39.3384C25.5814 39.2997 25.5874 39.2609 25.6018 39.2248L27.6554 34.1026ZM31.1388 39.7451L33.0434 35.1164L28.0542 34.4746L26.1961 39.1092L31.1388 39.7451ZM11.6352 37.434L13.5576 32.2948C13.5777 32.2411 13.6154 32.1958 13.6645 32.1661C13.7136 32.1365 13.7713 32.1244 13.8282 32.1317L19.3417 32.8409C19.3799 32.8459 19.4165 32.8594 19.4487 32.8805C19.4809 32.9016 19.5079 32.9298 19.5276 32.9629C19.5474 32.996 19.5593 33.0331 19.5626 33.0715C19.5659 33.1099 19.5604 33.1485 19.5466 33.1845L19.0817 34.3934L20.5363 34.5805C20.5746 34.5854 20.6113 34.599 20.6435 34.6201C20.6758 34.6413 20.7028 34.6696 20.7225 34.7028C20.7422 34.7359 20.7542 34.7732 20.7574 34.8116C20.7606 34.8501 20.755 34.8888 20.741 34.9247L19.3366 38.5447C19.3122 38.6076 19.2638 38.6582 19.2021 38.6854C19.1404 38.7126 19.0704 38.7142 19.0076 38.6898C18.9447 38.6655 18.8941 38.6171 18.8669 38.5554C18.8397 38.4937 18.8381 38.4237 18.8625 38.3608L20.1493 35.0435L18.8939 34.882L17.5729 38.3171C17.5524 38.3702 17.5147 38.415 17.4658 38.4442C17.4169 38.4734 17.3596 38.4853 17.3031 38.478L11.8411 37.7754C11.803 37.7705 11.7666 37.7571 11.7345 37.7362C11.7023 37.7152 11.6754 37.6873 11.6556 37.6545C11.6358 37.6216 11.6237 37.5848 11.6201 37.5466C11.6166 37.5084 11.6218 37.4699 11.6352 37.434ZM17.1698 37.9481L18.9557 33.3041L13.9634 32.6619L12.2241 37.3118L17.1698 37.9481Z" fill="#5A5A60"/>
<path d="M23.8315 24.6447C23.8401 24.5778 23.8749 24.517 23.9283 24.4758C23.9817 24.4346 24.0493 24.4163 24.1162 24.4249L26.6859 24.7555L27.3613 23.0346L25.2502 22.763C25.2119 22.7581 25.1752 22.7445 25.143 22.7233C25.1107 22.7022 25.0837 22.6739 25.064 22.6407C25.0442 22.6076 25.0323 22.5703 25.0291 22.5319C25.0259 22.4934 25.0315 22.4547 25.0455 22.4187L25.895 20.2287C25.92 20.1667 25.9684 20.117 26.0298 20.0904C26.0912 20.0638 26.1605 20.0625 26.2229 20.0866C26.2853 20.1108 26.3356 20.1586 26.3629 20.2196C26.3903 20.2807 26.3926 20.35 26.3692 20.4127L25.6371 22.2998L29.988 22.8596L30.7837 20.8556C30.8087 20.7929 30.8574 20.7427 30.9194 20.7159C30.9813 20.6892 31.0514 20.6882 31.114 20.7131C31.1767 20.738 31.227 20.7868 31.2537 20.8488C31.2804 20.9107 31.2814 20.9807 31.2565 21.0434L28.7312 27.4034L36.0327 28.3427C36.0996 28.3513 36.1603 28.3861 36.2016 28.4395C36.2428 28.4929 36.2611 28.5605 36.2525 28.6274C36.2439 28.6943 36.2091 28.755 36.1557 28.7962C36.1023 28.8374 36.0347 28.8557 35.9678 28.8471L28.5375 27.8913L27.9714 29.317C27.9465 29.3797 27.8977 29.4299 27.8358 29.4566C27.7738 29.4833 27.7038 29.4844 27.6411 29.4594C27.5784 29.4345 27.5282 29.3857 27.5015 29.3238C27.4748 29.2619 27.4738 29.1918 27.4987 29.1291L29.7943 23.3475L27.8813 23.1014L27.0867 25.1257C27.066 25.1785 27.0282 25.2228 26.9795 25.2517C26.9307 25.2806 26.8737 25.2923 26.8175 25.2851L24.051 24.9292C24.0179 24.9249 23.986 24.9142 23.957 24.8976C23.9281 24.881 23.9027 24.8588 23.8823 24.8324C23.8619 24.806 23.8469 24.7758 23.8382 24.7436C23.8295 24.7114 23.8272 24.6778 23.8315 24.6447Z" fill="#5A5A60"/>
<path d="M20.9637 32.9412L22.4583 29.0884C22.4788 29.0354 22.5165 28.9908 22.5654 28.9617C22.6143 28.9326 22.6715 28.9208 22.7278 28.928L24.9367 29.2122L25.6672 27.3511L21.9714 26.8757L20.5851 30.4806C20.5647 30.5337 20.5269 30.5785 20.478 30.6077C20.4291 30.6368 20.3718 30.6488 20.3153 30.6415L17.4072 30.2674C17.3691 30.2625 17.3326 30.249 17.3005 30.228C17.2683 30.2069 17.2413 30.1789 17.2216 30.1459C17.2018 30.113 17.1898 30.076 17.1864 30.0377C17.183 29.9994 17.1883 29.9609 17.2019 29.925L18.5258 26.4324L16.395 26.1583L14.4734 31.2952C14.449 31.3572 14.4011 31.4071 14.3402 31.4342C14.2793 31.4613 14.2102 31.4634 14.1477 31.4401C14.0853 31.4167 14.0345 31.3697 14.0064 31.3093C13.9782 31.2489 13.9749 31.1798 13.9971 31.117L15.9893 25.7912C16.0094 25.7375 16.0471 25.6922 16.0962 25.6626C16.1453 25.633 16.203 25.6208 16.2599 25.6281L18.9102 25.9691C18.9483 25.974 18.9848 25.9874 19.0169 26.0085C19.0491 26.0295 19.076 26.0576 19.0958 26.0905C19.1156 26.1235 19.1276 26.1605 19.131 26.1987C19.1344 26.237 19.1291 26.2756 19.1155 26.3115L17.7916 29.804L20.1821 30.1115L21.5684 26.5066C21.5888 26.4535 21.6265 26.4087 21.6754 26.3795C21.7244 26.3504 21.7817 26.3385 21.8382 26.3457L26.0554 26.8882C26.0938 26.8932 26.1305 26.9068 26.1628 26.928C26.1952 26.9493 26.2222 26.9777 26.2419 27.011C26.2616 27.0443 26.2734 27.0816 26.2765 27.1202C26.2796 27.1587 26.2739 27.1975 26.2597 27.2335L22.933 35.7091L25.1548 35.9949C25.1932 35.9999 25.23 36.0135 25.2624 36.0349C25.2948 36.0562 25.3218 36.0847 25.3415 36.1181C25.3612 36.1515 25.3729 36.1889 25.3759 36.2276C25.3789 36.2662 25.373 36.305 25.3587 36.341L24.2331 39.1737C24.221 39.2051 24.2028 39.2338 24.1796 39.2582C24.1564 39.2825 24.1285 39.302 24.0977 39.3155C24.0669 39.329 24.0337 39.3363 24 39.3369C23.9664 39.3375 23.933 39.3314 23.9017 39.3189C23.8704 39.3065 23.8419 39.288 23.8179 39.2645C23.7938 39.241 23.7746 39.2129 23.7615 39.1819C23.7484 39.1509 23.7415 39.1176 23.7413 39.084C23.7411 39.0503 23.7476 39.017 23.7604 38.9859L24.765 36.4576L22.5448 36.172C22.5064 36.1671 22.4697 36.1534 22.4374 36.1322C22.4051 36.1109 22.378 36.0826 22.3583 36.0493C22.3386 36.016 22.3268 35.9786 22.3237 35.9401C22.3206 35.9015 22.3263 35.8627 22.3405 35.8267L24.7451 29.7004L22.8604 29.4579L21.4378 33.1251C21.4134 33.1879 21.365 33.2385 21.3033 33.2657C21.2416 33.2929 21.1717 33.2945 21.1088 33.2702C21.0777 33.2581 21.0492 33.24 21.0251 33.2169C21.0009 33.1939 20.9816 33.1663 20.9681 33.1358C20.9546 33.1052 20.9473 33.0723 20.9465 33.0389C20.9458 33.0056 20.9516 32.9724 20.9637 32.9412ZM28.8048 32.5369C28.7852 32.5034 28.7735 32.4658 28.7706 32.4271C28.7677 32.3883 28.7737 32.3494 28.7882 32.3134L29.7101 30.0182C29.7311 29.9659 29.7689 29.9221 29.8174 29.8936C29.866 29.8652 29.9227 29.8536 29.9785 29.8608L31.8759 30.1049C31.9428 30.1135 32.0036 30.1483 32.0448 30.2017C32.086 30.2551 32.1043 30.3227 32.0957 30.3896C32.0871 30.4565 32.0523 30.5172 31.9989 30.5584C31.9455 30.5996 31.8779 30.618 31.811 30.6093L30.1087 30.3904L29.3826 32.1979L34.192 32.8166C34.2589 32.8252 34.3196 32.86 34.3609 32.9134C34.4021 32.9668 34.4204 33.0344 34.4118 33.1013C34.4032 33.1682 34.3684 33.2289 34.315 33.2701C34.2616 33.3114 34.194 33.3297 34.1271 33.3211L28.9916 32.6604C28.9531 32.6555 28.9162 32.6418 28.8839 32.6204C28.8515 32.599 28.8244 32.5704 28.8048 32.5369Z" fill="#5A5A60"/>
</svg>
