<svg width="57" height="57" viewBox="0 0 57 57" fill="none" xmlns="http://www.w3.org/2000/svg">
<g clip-path="url(#clip0_3347_562)">
<path d="M56.9752 14.8072L52.0995 42.7998C51.8981 43.957 50.9067 44.753 49.6697 44.7542L48.2066 44.7554L38.2279 44.7665C38.2279 44.7665 34.351 44.7505 34.5278 40.9939C34.7158 37.0199 35.2133 14.8784 35.2133 14.8784C35.2133 14.8784 35.3398 12.7815 37.4626 12.5579L45.9438 11.6636L53.2874 10.8884C53.5896 10.8565 53.9053 10.9621 54.1498 11.1747L56.302 13.0493C56.8254 13.505 57.0846 14.1807 56.9752 14.8072Z" fill="#414141"/>
<path d="M48.2066 44.7559L38.2279 44.767C38.2279 44.767 34.351 44.751 34.5278 40.9944C34.7158 37.0204 35.2133 14.8789 35.2133 14.8789C35.2133 14.8789 35.3398 12.7819 37.4626 12.5584L45.9438 11.6641C42.9538 17.4267 36.6924 32.9272 48.2066 44.7559Z" fill="#373737"/>
<path d="M53.435 15.2114C53.435 15.2114 49.7693 38.5482 49.2829 40.0911C48.7964 41.6316 46.8579 41.5714 46.8579 41.5714C46.8579 41.5714 46.3727 41.5873 45.6061 41.6131C44.0055 41.6672 41.1788 41.7618 38.9787 41.8355C35.727 41.9448 36.0488 39.6759 36.0488 39.6759L36.5488 17.6314C36.5488 17.6314 36.5734 15.6303 36.9652 15.1647C37.3571 14.6991 38.3313 14.5284 38.3313 14.5284L40.2784 14.3662C40.3803 15.4325 41.5695 15.392 41.5695 15.392C41.5695 15.392 42.8384 15.3244 44.3077 15.2126C46.1381 15.075 48.278 14.8662 48.6465 14.634C49.3111 14.2139 49.3762 13.1759 49.3762 13.1759L51.6747 12.994C53.9031 12.9179 53.435 15.2114 53.435 15.2114Z" fill="#BAEDFE"/>
<path d="M45.6061 41.6141C44.0055 41.6682 41.1788 41.7628 38.9787 41.8365C35.727 41.9458 36.0488 39.6769 36.0488 39.6769L36.5488 17.6324C36.5488 17.6324 36.5734 15.6313 36.9652 15.1657C37.3571 14.7001 38.3313 14.5293 38.3313 14.5293L40.2784 14.3672C40.3803 15.4335 41.5695 15.3929 41.5695 15.3929C41.5695 15.3929 42.8384 15.3254 44.3077 15.2136C41.6837 21.6556 39.1568 32.3418 45.6061 41.6141Z" fill="#9AE1FF"/>
<path d="M38.66 25.9574C38.6211 25.9587 38.5821 25.9558 38.5438 25.9487C38.2554 25.8962 38.036 25.629 38.0539 25.3519L38.2855 21.7731C38.3001 21.5491 38.4663 21.3799 38.6938 21.3579L42.0117 21.0368C42.2918 21.0089 42.5749 21.2161 42.638 21.4983C42.7009 21.7805 42.5229 22.0312 42.2401 22.0586L39.308 22.3423L39.0988 25.5424C39.0831 25.7813 38.8961 25.9495 38.66 25.9574ZM41.6762 31.6751L38.2796 31.7895C38.1232 31.7948 37.9639 31.7299 37.8465 31.6131C37.7292 31.4963 37.6666 31.3401 37.6763 31.1889L37.8593 28.3593C37.8772 28.0833 38.1254 27.902 38.4132 27.9542C38.7012 28.0066 38.9201 28.2728 38.902 28.5489L38.7578 30.755L41.5127 30.6622C41.7972 30.6526 42.0643 30.8716 42.1094 31.1514C42.1543 31.4312 41.9605 31.6655 41.6762 31.6751ZM48.7799 31.4358L45.4165 31.5491C45.1321 31.5587 44.8656 31.3398 44.8212 31.06C44.7766 30.7802 44.9712 30.5456 45.2557 30.536L48.242 30.4354L48.632 27.9564C48.6748 27.6853 48.9409 27.5257 49.2259 27.5998C49.5111 27.674 49.7075 27.9539 49.6647 28.225L49.2162 31.0632C49.1821 31.2772 49.0054 31.4282 48.7799 31.4358ZM49.8137 24.8856C49.7606 24.8873 49.7076 24.8813 49.6563 24.8677C49.3706 24.7933 49.1737 24.5121 49.2165 24.2396L49.6728 21.3396L46.2407 21.6715C45.9607 21.6992 45.6781 21.4924 45.6156 21.21C45.5532 20.9277 45.7319 20.6765 46.015 20.6491L50.193 20.2447C50.3617 20.228 50.5375 20.2958 50.6634 20.4251C50.7892 20.5544 50.849 20.7289 50.8232 20.892L50.2515 24.5094C50.2167 24.731 50.0342 24.8783 49.8137 24.8856Z" fill="#414141"/>
<path d="M40.7697 24.5543C40.4967 24.5635 40.2345 24.3601 40.1756 24.088C40.1148 23.8064 40.2948 23.5582 40.5778 23.5334L47.7635 22.904C48.0476 22.8815 48.3244 23.0877 48.3837 23.3694C48.4431 23.651 48.2617 23.8993 47.9787 23.9241L40.7978 24.5526C40.7885 24.5535 40.7791 24.5541 40.7697 24.5543Z" fill="#414141"/>
<path d="M32.8487 22.4117C31.9704 28.5527 27.5148 31.888 22.5814 32.2074L23.1735 41.1812L23.2705 42.6492L23.3185 43.3715L19.4722 42.8347L10.3264 41.5595L12.7207 27.6216L19.8702 12.3152L24.112 9.05608L27.0222 6.82031C27.0222 6.82031 27.4313 7.26869 28.0357 8.06227C29.9214 10.5413 33.7099 16.385 32.8487 22.4117Z" fill="#FFEBD4"/>
<path d="M22.5814 32.2076L23.1735 41.1814C22.0224 41.6986 20.7092 42.287 19.4722 42.8349L10.3264 41.5598L12.7207 27.6218L19.8702 12.3154L24.112 9.05631L28.0357 8.0625C28.0357 8.0625 30.2174 19.6578 22.5814 32.2076Z" fill="#FFD5B8"/>
<path d="M23.2704 42.6482C20.9904 41.8584 17.2363 39.8977 16.9525 35.5011C16.5434 29.1538 22.5812 32.2065 22.5812 32.2065L23.1734 41.1802L23.2704 42.6482Z" fill="#FFEBD4"/>
<path d="M35.8449 6.05077C35.0439 9.90195 30.952 12.7667 30.952 12.7667C30.952 12.7667 22.8577 5.24 22.8958 21.8363C22.897 22.3203 22.9044 22.8252 22.9204 23.351L20.9487 28.282C18.7695 29.648 16.1615 30.5018 12.4737 29.0559C12.4737 29.0559 -0.808276 11.0125 10.3976 9.2693C10.3976 9.2693 11.5978 3.9317 14.1591 1.73893C17.272 -0.920657 17.7302 1.53623 17.6798 3.5214C21.6502 0.893757 25.1721 -0.0484607 28.0356 0.00190562C33.3204 0.0928106 36.3633 3.56317 35.8449 6.05077Z" fill="#414141"/>
<path d="M22.8958 21.8344C22.897 22.3184 22.9044 22.8233 22.9204 23.3491L20.9487 28.28C18.7695 29.6461 16.1615 30.4998 12.4737 29.054C12.4737 29.054 -0.808276 11.0106 10.3976 9.26739C10.3976 9.26739 11.5978 3.9298 14.1591 1.73702C17.272 -0.922563 17.7302 1.53433 17.6798 3.5195C9.50084 10.8496 16.315 13.7561 16.315 13.7561C16.3519 17.81 20.3689 17.8714 20.3689 17.8714L22.8958 21.8344ZM35.8449 6.04887C35.0439 9.90004 30.952 12.7648 30.952 12.7648C33.6398 7.61145 30.608 2.81437 28.0356 0C33.3204 0.090905 36.3633 3.56126 35.8449 6.04887Z" fill="#373737"/>
<path d="M21.1969 15.2765C16.7675 16.0938 18.6524 23.5175 24.2417 24.1948L25.2328 16.6751C24.5513 15.7119 23.3385 14.8813 21.1969 15.2765Z" fill="#FFD5B8"/>
<path d="M22.98 17.5508L23.2979 22.0083C24.2609 19.2038 22.98 17.5508 22.98 17.5508Z" fill="#FFC7A1"/>
<path d="M7.62524 40.6985C7.62524 40.6985 7.93002 34.2134 16.6829 34.3862C25.4359 34.559 25.0004 41.7792 25.0004 41.7792L7.62524 40.6985Z" fill="#414141"/>
<path d="M36.0021 56.9979H0C0.154784 48.7981 2.77014 37.0664 16.4685 37.0664C27.9705 37.0664 33.4223 47.5156 36.0021 56.9979Z" fill="#25A185"/>
<path d="M23.3626 56.998V56.9992H21.5286L21.2104 47.8633C21.2104 47.8633 22.2951 52.0511 23.3626 56.998ZM6.91621 56.9992H5.18165L5.18042 56.998C5.23324 52.9908 5.43348 49.7121 5.43348 49.7121L6.91621 56.9992Z" fill="#1E866F"/>
</g>
<defs>
<clipPath id="clip0_3347_562">
<rect width="57" height="57" fill="white"/>
</clipPath>
</defs>
</svg>
