<svg width="16" height="16" viewBox="0 0 16 16" fill="none" xmlns="http://www.w3.org/2000/svg">
<path fill-rule="evenodd" clip-rule="evenodd" d="M8.88316 1.60502e-08C10.0181 9.67028e-05 11.1366 0.271595 12.1452 0.791843C13.1539 1.31209 14.0236 2.066 14.6816 2.99068C15.3396 3.91536 15.767 4.98399 15.928 6.10741C16.089 7.23083 15.979 8.37647 15.6072 9.44874C15.2354 10.521 14.6126 11.4888 13.7907 12.2715C12.9687 13.0541 11.9715 13.6288 10.8823 13.9476C9.79309 14.2665 8.6434 14.3203 7.52916 14.1045C6.41492 13.8887 5.36845 13.4096 4.47705 12.7071L1.41906 15.765C1.26114 15.9175 1.04962 16.0019 0.83007 16C0.61052 15.9981 0.400503 15.91 0.245253 15.7548C0.0900011 15.5995 0.00193977 15.3895 3.14713e-05 15.17C-0.00187683 14.9504 0.0825233 14.7389 0.235053 14.581L3.29304 11.5231C2.46575 10.4736 1.95064 9.21247 1.80667 7.88392C1.6627 6.55538 1.89568 5.21314 2.47895 4.01081C3.06223 2.80849 3.97222 1.79466 5.1048 1.08535C6.23738 0.376043 7.54679 -8.97127e-05 8.88316 1.60502e-08ZM14.3259 7.11717C14.3259 5.67372 13.7525 4.28939 12.7318 3.26871C11.7111 2.24804 10.3267 1.67463 8.88316 1.67463C7.43966 1.67463 6.05527 2.24804 5.03456 3.26871C4.01384 4.28939 3.44041 5.67372 3.44041 7.11717C3.44041 8.56063 4.01384 9.94496 5.03456 10.9656C6.05527 11.9863 7.43966 12.5597 8.88316 12.5597C10.3267 12.5597 11.7111 11.9863 12.7318 10.9656C13.7525 9.94496 14.3259 8.56063 14.3259 7.11717Z" fill="black" fill-opacity="0.2"/>
</svg>
