<svg width="16" height="16" viewBox="0 0 16 16" fill="none" xmlns="http://www.w3.org/2000/svg">
<g clip-path="url(#clip0_8190_1593)">
<path d="M9.8875 5.76699C9.8875 3.11852 7.73281 0.963867 5.08437 0.963867C2.43594 0.963867 0.28125 3.11852 0.28125 5.76699C0.28125 8.41546 2.43594 10.5701 5.08437 10.5701C7.73281 10.5701 9.8875 8.41562 9.8875 5.76699ZM0.71875 5.76699C0.71875 3.35977 2.67716 1.40137 5.08437 1.40137C7.49159 1.40137 9.45 3.35977 9.45 5.76699C9.45 8.17421 7.49156 10.1326 5.08437 10.1326C2.67719 10.1326 0.71875 8.17424 0.71875 5.76699ZM8.95956 5.76699C8.9596 5.00055 8.73236 4.2513 8.30657 3.614C7.88078 2.97671 7.27557 2.47998 6.56747 2.18665C5.85938 1.89332 5.0802 1.81655 4.32848 1.96605C3.57675 2.11556 2.88624 2.48462 2.34427 3.02657C1.8023 3.56851 1.4332 4.25901 1.28366 5.01072C1.13412 5.76244 1.21085 6.54162 1.50415 7.24973C1.79745 7.95784 2.29414 8.56307 2.93142 8.98889C3.56869 9.41471 4.31793 9.64199 5.08437 9.64199C6.11175 9.64083 7.09672 9.23221 7.8232 8.50576C8.54968 7.77932 8.95835 6.79437 8.95956 5.76699ZM1.64672 5.76699C1.64668 5.08707 1.84827 4.42241 2.22598 3.85706C2.6037 3.29171 3.14058 2.85106 3.76874 2.59085C4.39689 2.33063 5.0881 2.26253 5.75496 2.39515C6.42182 2.52778 7.03438 2.85517 7.51516 3.33594C7.99595 3.8167 8.32337 4.42924 8.45603 5.0961C8.58869 5.76295 8.52061 6.45416 8.26042 7.08233C8.00024 7.71049 7.55961 8.2474 6.99428 8.62514C6.42895 9.00288 5.76429 9.2045 5.08437 9.20449C4.17302 9.20342 3.29931 8.84091 2.65488 8.19648C2.01046 7.55206 1.64795 6.67834 1.64688 5.76699H1.64672ZM4.89359 3.25371V2.80762C4.89359 2.7496 4.91664 2.69396 4.95766 2.65294C4.99869 2.61191 5.05433 2.58887 5.11234 2.58887C5.17036 2.58887 5.226 2.61191 5.26702 2.65294C5.30805 2.69396 5.33109 2.7496 5.33109 2.80762V3.25371C5.33109 3.31173 5.30805 3.36737 5.26702 3.40839C5.226 3.44941 5.17036 3.47246 5.11234 3.47246C5.05433 3.47246 4.99869 3.44941 4.95766 3.40839C4.91664 3.36737 4.89359 3.31173 4.89359 3.25371ZM6.72666 4.16421C6.70634 4.1439 6.69023 4.11978 6.67923 4.09324C6.66824 4.0667 6.66258 4.03825 6.66258 4.00952C6.66258 3.98079 6.66824 3.95235 6.67923 3.92581C6.69023 3.89926 6.70634 3.87515 6.72666 3.85484L7.04209 3.53943C7.08312 3.4984 7.13876 3.47536 7.19678 3.47536C7.2548 3.47536 7.31044 3.4984 7.35147 3.53943C7.39249 3.58046 7.41554 3.6361 7.41554 3.69412C7.41554 3.75214 7.39249 3.80778 7.35147 3.8488L7.036 4.16424C7.01569 4.18456 6.99157 4.20067 6.96503 4.21167C6.93849 4.22266 6.91004 4.22832 6.88131 4.22832C6.85258 4.22832 6.82414 4.22266 6.7976 4.21167C6.77105 4.20067 6.74694 4.18456 6.72662 4.16424L6.72666 4.16421ZM7.37903 5.79487C7.37903 5.73685 7.40208 5.68121 7.4431 5.64019C7.48413 5.59916 7.53976 5.57612 7.59778 5.57612H8.04375C8.10177 5.57612 8.15741 5.59916 8.19843 5.64019C8.23945 5.68121 8.2625 5.73685 8.2625 5.79487C8.2625 5.85288 8.23945 5.90852 8.19843 5.94955C8.15741 5.99057 8.10177 6.01362 8.04375 6.01362H7.59769C7.53967 6.01362 7.48403 5.99057 7.44301 5.94955C7.40198 5.90852 7.37894 5.85288 7.37894 5.79487H7.37903ZM7.31206 7.72462C7.35309 7.76564 7.37614 7.82129 7.37614 7.8793C7.37614 7.93732 7.35309 7.99297 7.31206 8.03399C7.27104 8.07502 7.21539 8.09807 7.15737 8.09807C7.09936 8.09807 7.04371 8.07502 7.00269 8.03399L6.68719 7.71855C6.64616 7.67753 6.62311 7.62189 6.62311 7.56387C6.62311 7.50585 6.64616 7.45021 6.68719 7.40918C6.72821 7.36815 6.78386 7.34511 6.84188 7.34511C6.89989 7.34511 6.95554 7.36815 6.99656 7.40918L7.31206 7.72462ZM5.05662 8.94515C4.99861 8.94515 4.94297 8.9221 4.90195 8.88108C4.86092 8.84005 4.83787 8.78441 4.83787 8.7264V8.2803C4.83787 8.22229 4.86092 8.16665 4.90195 8.12563C4.94297 8.0846 4.99861 8.06155 5.05662 8.06155C5.11464 8.06155 5.17028 8.0846 5.2113 8.12563C5.25233 8.16665 5.27537 8.22229 5.27537 8.2803V8.7264C5.27537 8.75513 5.26971 8.78359 5.25871 8.81013C5.24772 8.83668 5.23159 8.8608 5.21127 8.88111C5.19095 8.90143 5.16682 8.91754 5.14027 8.92852C5.11372 8.93951 5.08527 8.94516 5.05653 8.94515H5.05662ZM3.44219 7.3698C3.4625 7.39012 3.47862 7.41423 3.48961 7.44078C3.50061 7.46732 3.50627 7.49576 3.50627 7.52449C3.50627 7.55322 3.50061 7.58167 3.48961 7.60821C3.47862 7.63475 3.4625 7.65887 3.44219 7.67918L3.12675 7.99462C3.10644 8.01493 3.08232 8.03104 3.05578 8.04204C3.02924 8.05303 3.00079 8.05869 2.97206 8.05869C2.94333 8.05869 2.91489 8.05303 2.88835 8.04204C2.8618 8.03104 2.83769 8.01493 2.81737 7.99462C2.79706 7.9743 2.78095 7.95019 2.76995 7.92365C2.75896 7.8971 2.7533 7.86866 2.7533 7.83993C2.7533 7.8112 2.75896 7.78275 2.76995 7.75621C2.78095 7.72967 2.79706 7.70556 2.81737 7.68524L3.13281 7.3698C3.15313 7.34949 3.17724 7.33337 3.20378 7.32238C3.23032 7.31139 3.25877 7.30573 3.2875 7.30573C3.31623 7.30573 3.34468 7.31139 3.37122 7.32238C3.39776 7.33337 3.42187 7.34949 3.44219 7.3698ZM2.78981 5.73915C2.78981 5.79716 2.76677 5.8528 2.72574 5.89383C2.68472 5.93485 2.62908 5.9579 2.57106 5.9579H2.125C2.06698 5.9579 2.01134 5.93485 1.97032 5.89383C1.9293 5.8528 1.90625 5.79716 1.90625 5.73915C1.90625 5.68113 1.9293 5.62549 1.97032 5.58447C2.01134 5.54345 2.06698 5.5204 2.125 5.5204H2.57106C2.62908 5.5204 2.68472 5.54345 2.72574 5.58447C2.76677 5.62549 2.78981 5.68113 2.78981 5.73915ZM3.48159 3.81562C3.52262 3.85664 3.54567 3.91229 3.54567 3.9703C3.54567 4.02832 3.52262 4.08397 3.48159 4.12499C3.44057 4.16602 3.38493 4.18907 3.32691 4.18907C3.26889 4.18907 3.21324 4.16602 3.17222 4.12499L2.85678 3.80937C2.83647 3.78905 2.82035 3.76494 2.80936 3.7384C2.79837 3.71185 2.79271 3.68341 2.79271 3.65468C2.79271 3.62595 2.79837 3.5975 2.80936 3.57096C2.82035 3.54442 2.83647 3.52031 2.85678 3.49999C2.87709 3.47968 2.90121 3.46356 2.92775 3.45257C2.95429 3.44158 2.98274 3.43592 3.01147 3.43592C3.0402 3.43592 3.06864 3.44158 3.09519 3.45257C3.12173 3.46356 3.14584 3.47968 3.16616 3.49999L3.48159 3.81562ZM5.695 6.03749H6.41875C6.47677 6.03749 6.53241 6.01445 6.57343 5.97342C6.61445 5.9324 6.6375 5.87676 6.6375 5.81874C6.6375 5.76073 6.61445 5.70509 6.57343 5.66406C6.53241 5.62304 6.47677 5.59999 6.41875 5.59999H5.65312C5.58738 5.46599 5.47606 5.35978 5.33913 5.3004V3.81134C5.33913 3.75332 5.31608 3.69768 5.27505 3.65666C5.23403 3.61563 5.17839 3.59259 5.12038 3.59259C5.06236 3.59259 5.00672 3.61563 4.9657 3.65666C4.92467 3.69768 4.90163 3.75332 4.90163 3.81134V5.27952C4.79838 5.3125 4.70548 5.37176 4.63207 5.45149C4.55865 5.53122 4.50723 5.62868 4.48287 5.73429C4.45851 5.8399 4.46203 5.95004 4.4931 6.05387C4.52417 6.15771 4.58172 6.25168 4.66009 6.32655C4.73846 6.40142 4.83495 6.45462 4.9401 6.48092C5.04524 6.50722 5.15542 6.50572 5.25981 6.47656C5.3642 6.4474 5.45921 6.39159 5.53551 6.31462C5.61181 6.23764 5.66677 6.14214 5.695 6.03749ZM4.90478 5.87449C4.90478 5.83741 4.91578 5.80116 4.93638 5.77032C4.95698 5.73949 4.98627 5.71546 5.02053 5.70126C5.05479 5.68707 5.09249 5.68336 5.12886 5.6906C5.16523 5.69783 5.19864 5.71569 5.22486 5.74191C5.25109 5.76813 5.26894 5.80154 5.27618 5.83791C5.28341 5.87428 5.2797 5.91198 5.26551 5.94625C5.25132 5.98051 5.22728 6.00979 5.19645 6.03039C5.16562 6.051 5.12937 6.06199 5.09228 6.06199C5.04257 6.06193 4.99491 6.04215 4.95976 6.00699C4.92461 5.97184 4.90484 5.92421 4.90478 5.87449ZM9.29347 14.6285C9.29347 14.6865 9.27042 14.7421 9.2294 14.7832C9.18838 14.8242 9.13273 14.8472 9.07472 14.8472H4.38409C4.32608 14.8472 4.27044 14.8242 4.22941 14.7832C4.18839 14.7421 4.16534 14.6865 4.16534 14.6285V12.0551L4.09925 12.1222C4.07915 12.1429 4.05516 12.1594 4.02866 12.1708C4.00216 12.1821 3.97367 12.1882 3.94484 12.1885C3.916 12.1888 3.88739 12.1834 3.86065 12.1726C3.8339 12.1618 3.80955 12.1459 3.789 12.1257C3.76845 12.1054 3.75209 12.0814 3.74088 12.0548C3.72967 12.0282 3.72383 11.9997 3.72368 11.9709C3.72353 11.942 3.72908 11.9134 3.74002 11.8868C3.75096 11.8601 3.76706 11.8358 3.78741 11.8154L4.22841 11.3671C4.2486 11.3466 4.27265 11.3303 4.29917 11.3191C4.3257 11.3079 4.35417 11.302 4.38297 11.3018H4.38431C4.44202 11.3018 4.4974 11.3246 4.53837 11.3652L4.98097 11.8042C5.02216 11.8451 5.04543 11.9006 5.04567 11.9587C5.04591 12.0167 5.02309 12.0724 4.98223 12.1136C4.94138 12.1548 4.88583 12.1781 4.82782 12.1783C4.7698 12.1785 4.71407 12.1557 4.67287 12.1149L4.60284 12.0454V14.4097H9.07472C9.13273 14.4097 9.18838 14.4328 9.2294 14.4738C9.27042 14.5148 9.29347 14.5705 9.29347 14.6285ZM10.418 5.12043C10.418 5.06241 10.441 5.00677 10.482 4.96575C10.5231 4.92473 10.5787 4.90168 10.6367 4.90168H14.874C14.932 4.90168 14.9877 4.92473 15.0287 4.96575C15.0697 5.00677 15.0928 5.06241 15.0928 5.12043V8.1294L15.1397 8.07893C15.1791 8.03641 15.2339 8.01132 15.2919 8.00917C15.3498 8.00702 15.4063 8.02799 15.4488 8.06746C15.4913 8.10694 15.5164 8.16169 15.5186 8.21966C15.5207 8.27764 15.4998 8.3341 15.4603 8.37662L15.0343 8.83537C15.0143 8.85692 14.9902 8.87422 14.9633 8.88622C14.9365 8.89823 14.9075 8.9047 14.8781 8.90524H14.8741C14.816 8.90523 14.7604 8.88215 14.7193 8.84109L14.2927 8.41384C14.2523 8.37265 14.2299 8.31721 14.2302 8.25957C14.2306 8.20193 14.2536 8.14676 14.2944 8.10603C14.3352 8.0653 14.3904 8.04232 14.448 8.04207C14.5057 8.04182 14.5611 8.06433 14.6022 8.10471L14.6553 8.15784V5.33909H10.6367C10.5787 5.33909 10.5231 5.31605 10.4821 5.27505C10.4411 5.23405 10.418 5.17843 10.418 5.12043ZM15.2461 11.1855H14.889C14.8663 11.1234 14.8409 11.0622 14.8129 11.0021L15.0655 10.7496C15.154 10.6608 15.2037 10.5406 15.2037 10.4153C15.2037 10.29 15.154 10.1698 15.0655 10.0811L14.5902 9.60574C14.5014 9.51723 14.3812 9.46752 14.2559 9.46752C14.1306 9.46752 14.0104 9.51723 13.9217 9.60574L13.6692 9.85827C13.6091 9.83034 13.5479 9.80498 13.4857 9.78221V9.42515C13.4856 9.29983 13.4357 9.17969 13.3471 9.09107C13.2585 9.00246 13.1383 8.95261 13.013 8.95246H12.3408C12.2155 8.9526 12.0953 9.00245 12.0067 9.09106C11.9181 9.17968 11.8683 9.29983 11.8681 9.42515V9.78221C11.806 9.80496 11.7449 9.83032 11.6847 9.85827L11.4322 9.60571C11.3434 9.51721 11.2232 9.46752 11.0979 9.46752C10.9726 9.46752 10.8524 9.51721 10.7637 9.60571L10.2883 10.0812C10.1998 10.17 10.1501 10.2902 10.1501 10.4155C10.1501 10.5408 10.1998 10.661 10.2883 10.7497L10.5409 11.0022C10.5129 11.0623 10.4876 11.1234 10.4648 11.1856H10.1078C9.98246 11.1858 9.86232 11.2356 9.77371 11.3243C9.68509 11.4129 9.63524 11.533 9.63509 11.6583V12.3306C9.63527 12.4559 9.68513 12.576 9.77374 12.6646C9.86235 12.7531 9.98248 12.803 10.1078 12.8031H10.4648C10.4876 12.8653 10.5129 12.9264 10.5409 12.9866L10.2883 13.2391C10.1998 13.3278 10.1501 13.448 10.1501 13.5733C10.1501 13.6986 10.1998 13.8188 10.2883 13.9076L10.7637 14.3829C10.8524 14.4714 10.9726 14.5211 11.0979 14.5211C11.2232 14.5211 11.3434 14.4714 11.4322 14.3829L11.6847 14.1303C11.7448 14.1583 11.8059 14.1836 11.8681 14.2064V14.5634C11.8682 14.6888 11.9181 14.8089 12.0067 14.8975C12.0953 14.9861 12.2155 15.036 12.3408 15.0361H13.013C13.1383 15.036 13.2585 14.9861 13.3471 14.8975C13.4357 14.8089 13.4855 14.6888 13.4857 14.5634V14.2064C13.5478 14.1836 13.609 14.1583 13.6691 14.1303L13.9217 14.3828C14.0104 14.4713 14.1306 14.521 14.2559 14.521C14.3812 14.521 14.5014 14.4713 14.5901 14.3828L15.0654 13.9076C15.1539 13.8188 15.2036 13.6986 15.2036 13.5733C15.2036 13.448 15.1539 13.3278 15.0654 13.2391L14.8129 12.9865C14.8408 12.9265 14.8662 12.8653 14.889 12.8031H15.246C15.3714 12.803 15.4915 12.7531 15.5801 12.6645C15.6688 12.5759 15.7186 12.4557 15.7188 12.3304V11.6582C15.7186 11.5329 15.6688 11.4127 15.5801 11.3241C15.4915 11.2355 15.3714 11.1856 15.2461 11.1855H15.2461ZM15.2812 12.3304C15.281 12.3397 15.2772 12.3485 15.2707 12.355C15.2641 12.3616 15.2553 12.3654 15.2461 12.3656H14.7304C14.6829 12.3656 14.6367 12.381 14.5988 12.4096C14.5609 12.4382 14.5333 12.4783 14.5202 12.524C14.4803 12.6628 14.4248 12.7965 14.3548 12.9228C14.3317 12.9644 14.3228 13.0123 14.3294 13.0593C14.336 13.1064 14.3578 13.15 14.3914 13.1836L14.7563 13.5484C14.7627 13.5551 14.7663 13.564 14.7663 13.5733C14.7663 13.5826 14.7627 13.5915 14.7563 13.5982L14.2809 14.0735C14.2742 14.0799 14.2653 14.0834 14.256 14.0834C14.2468 14.0834 14.2379 14.0799 14.2312 14.0735L13.8663 13.7087C13.8327 13.6751 13.789 13.6534 13.742 13.6468C13.6949 13.6402 13.647 13.6491 13.6055 13.6721C13.4792 13.7422 13.3454 13.7977 13.2066 13.8376C13.161 13.8507 13.1208 13.8783 13.0923 13.9162C13.0637 13.9541 13.0482 14.0003 13.0482 14.0478V14.5634C13.048 14.5727 13.0442 14.5815 13.0377 14.5881C13.0311 14.5946 13.0223 14.5984 13.013 14.5986H12.3408C12.3316 14.5984 12.3227 14.5946 12.3162 14.5881C12.3096 14.5815 12.3059 14.5727 12.3056 14.5634V14.0478C12.3056 14.0003 12.2902 13.9541 12.2616 13.9162C12.233 13.8783 12.1929 13.8507 12.1472 13.8376C12.0084 13.7977 11.8746 13.7422 11.7484 13.6721C11.7068 13.6491 11.6589 13.6402 11.6119 13.6468C11.5648 13.6534 11.5212 13.6752 11.4876 13.7087L11.1228 14.0735C11.1161 14.0799 11.1072 14.0835 11.0979 14.0835C11.0887 14.0835 11.0798 14.0799 11.073 14.0735L10.5977 13.5982C10.5913 13.5915 10.5878 13.5826 10.5878 13.5733C10.5878 13.564 10.5913 13.5551 10.5977 13.5484L10.9625 13.1836C10.9961 13.15 11.0178 13.1064 11.0244 13.0593C11.031 13.0123 11.0221 12.9644 10.9991 12.9228C10.9291 12.7966 10.8736 12.6628 10.8337 12.524C10.8206 12.4784 10.793 12.4382 10.7551 12.4096C10.7171 12.3811 10.6709 12.3656 10.6234 12.3656H10.1078C10.0986 12.3654 10.0897 12.3616 10.0832 12.355C10.0766 12.3485 10.0729 12.3397 10.0726 12.3304V11.6582C10.0729 11.6489 10.0766 11.6401 10.0832 11.6336C10.0897 11.627 10.0986 11.6232 10.1078 11.623H10.6234C10.6709 11.623 10.7171 11.6075 10.7551 11.579C10.793 11.5504 10.8206 11.5102 10.8337 11.4646C10.8736 11.3258 10.9291 11.192 10.9991 11.0658C11.0221 11.0242 11.031 10.9763 11.0244 10.9292C11.0178 10.8822 10.9961 10.8386 10.9625 10.805L10.5977 10.4402C10.5913 10.4335 10.5878 10.4246 10.5878 10.4153C10.5878 10.4061 10.5913 10.3971 10.5977 10.3904L11.073 9.91512C11.0797 9.90873 11.0887 9.90517 11.0979 9.90517C11.1072 9.90517 11.1161 9.90873 11.1228 9.91512L11.4875 10.2799C11.5211 10.3135 11.5647 10.3352 11.6118 10.3418C11.6588 10.3484 11.7067 10.3395 11.7483 10.3165C11.8745 10.2464 12.0084 10.1909 12.1471 10.1511C12.1928 10.138 12.2329 10.1104 12.2615 10.0724C12.2901 10.0345 12.3055 9.98829 12.3055 9.9408V9.42518C12.3058 9.41592 12.3095 9.4071 12.3161 9.40055C12.3226 9.394 12.3315 9.39022 12.3407 9.38999H13.0129C13.0222 9.39022 13.031 9.394 13.0376 9.40055C13.0441 9.4071 13.0479 9.41592 13.0481 9.42518V9.9408C13.0481 9.98829 13.0636 10.0345 13.0922 10.0724C13.1207 10.1104 13.1609 10.138 13.2065 10.1511C13.3453 10.1909 13.4791 10.2464 13.6054 10.3165C13.6469 10.3395 13.6948 10.3484 13.7419 10.3418C13.7889 10.3352 13.8326 10.3135 13.8662 10.2799L14.2309 9.91509C14.2376 9.90867 14.2465 9.90509 14.2558 9.90509C14.2651 9.90509 14.274 9.90867 14.2807 9.91509L14.7563 10.3904C14.7626 10.3971 14.7662 10.406 14.7662 10.4153C14.7662 10.4246 14.7626 10.4335 14.7563 10.4402L14.3915 10.805C14.3579 10.8386 14.3361 10.8822 14.3295 10.9292C14.3229 10.9763 14.3318 11.0242 14.3549 11.0658C14.4249 11.192 14.4804 11.3258 14.5203 11.4646C14.5334 11.5102 14.561 11.5504 14.5989 11.579C14.6368 11.6075 14.683 11.623 14.7305 11.623H15.2462C15.2554 11.6232 15.2642 11.627 15.2707 11.6336C15.2773 11.6401 15.281 11.6489 15.2812 11.6582V12.3304ZM12.6769 10.3177C12.3453 10.3177 12.0212 10.416 11.7455 10.6003C11.4697 10.7845 11.2548 11.0463 11.1279 11.3527C11.001 11.659 10.9678 11.9961 11.0325 12.3214C11.0972 12.6466 11.2569 12.9453 11.4914 13.1798C11.7258 13.4143 12.0246 13.574 12.3498 13.6387C12.675 13.7034 13.0121 13.6702 13.3185 13.5433C13.6249 13.4164 13.8867 13.2015 14.0709 12.9258C14.2552 12.6501 14.3535 12.3259 14.3535 11.9943C14.353 11.5498 14.1762 11.1237 13.8619 10.8093C13.5476 10.495 13.1214 10.3182 12.6769 10.3177ZM12.6769 13.2333C12.4319 13.2333 12.1923 13.1607 11.9885 13.0245C11.7847 12.8884 11.6259 12.6949 11.5321 12.4684C11.4384 12.242 11.4138 11.9929 11.4616 11.7525C11.5094 11.5122 11.6274 11.2914 11.8007 11.1181C11.974 10.9448 12.1948 10.8268 12.4352 10.779C12.6755 10.7311 12.9247 10.7557 13.1511 10.8495C13.3775 10.9433 13.571 11.1021 13.7072 11.3059C13.8433 11.5096 13.916 11.7492 13.916 11.9943C13.9156 12.3228 13.7849 12.6377 13.5526 12.87C13.3204 13.1023 13.0054 13.2329 12.6769 13.2333Z" fill="#1E866F"/>
</g>
<defs>
<clipPath id="clip0_8190_1593">
<rect width="16" height="16" fill="white"/>
</clipPath>
</defs>
</svg>
