<svg width="14" height="14" viewBox="0 0 14 14" fill="none" xmlns="http://www.w3.org/2000/svg">
<path d="M6.42053 8.53125H3.0625C3.00448 8.53125 2.94884 8.5082 2.90782 8.46718C2.8668 8.42616 2.84375 8.37052 2.84375 8.3125C2.84375 8.25448 2.8668 8.19884 2.90782 8.15782C2.94884 8.1168 3.00448 8.09375 3.0625 8.09375H6.42053C6.47855 8.09375 6.53419 8.1168 6.57521 8.15782C6.61623 8.19884 6.63928 8.25448 6.63928 8.3125C6.63928 8.37052 6.61623 8.42616 6.57521 8.46718C6.53419 8.5082 6.47855 8.53125 6.42053 8.53125ZM6.42053 5.90625H3.0625C3.00448 5.90625 2.94884 5.8832 2.90782 5.84218C2.8668 5.80116 2.84375 5.74552 2.84375 5.6875C2.84375 5.62948 2.8668 5.57384 2.90782 5.53282C2.94884 5.4918 3.00448 5.46875 3.0625 5.46875H6.42053C6.47855 5.46875 6.53419 5.4918 6.57521 5.53282C6.61623 5.57384 6.63928 5.62948 6.63928 5.6875C6.63928 5.74552 6.61623 5.80116 6.57521 5.84218C6.53419 5.8832 6.47855 5.90625 6.42053 5.90625ZM6.125 7.21875H1.75C1.69198 7.21875 1.63634 7.1957 1.59532 7.15468C1.5543 7.11366 1.53125 7.05802 1.53125 7C1.53125 6.94198 1.5543 6.88634 1.59532 6.84532C1.63634 6.8043 1.69198 6.78125 1.75 6.78125H6.125C6.18302 6.78125 6.23866 6.8043 6.27968 6.84532C6.3207 6.88634 6.34375 6.94198 6.34375 7C6.34375 7.05802 6.3207 7.11366 6.27968 7.15468C6.23866 7.1957 6.18302 7.21875 6.125 7.21875ZM8.3125 7.85356C7.87784 7.85356 7.4375 7.56044 7.4375 7C7.4375 6.43956 7.87784 6.14644 8.3125 6.14644C8.74716 6.14644 9.1875 6.43956 9.1875 7C9.1875 7.56044 8.74716 7.85356 8.3125 7.85356ZM8.3125 6.58394C8.11059 6.58394 7.875 6.69288 7.875 7C7.875 7.30712 8.11059 7.41606 8.3125 7.41606C8.51441 7.41606 8.75 7.30712 8.75 7C8.75 6.69288 8.51441 6.58394 8.3125 6.58394Z" fill="#888888"/>
<path d="M8.77647 6.75478C8.73316 6.75488 8.69081 6.7421 8.65477 6.71808C8.61874 6.69407 8.59066 6.65988 8.57409 6.61987C8.55752 6.57986 8.55321 6.53583 8.5617 6.49337C8.5702 6.45091 8.59112 6.41193 8.62181 6.38138L9.85928 5.14391C9.87959 5.1236 9.9037 5.10749 9.93024 5.09649C9.95677 5.0855 9.98522 5.07985 10.0139 5.07985C10.0427 5.07985 10.0711 5.0855 10.0976 5.09649C10.1242 5.10749 10.1483 5.1236 10.1686 5.14391C10.1889 5.16422 10.205 5.18833 10.216 5.21486C10.227 5.2414 10.2327 5.26984 10.2327 5.29856C10.2327 5.32728 10.227 5.35573 10.216 5.38226C10.205 5.4088 10.1889 5.43291 10.1686 5.45322L8.93112 6.69069C8.91084 6.71103 8.88673 6.72717 8.86019 6.73816C8.83365 6.74916 8.8052 6.75481 8.77647 6.75478ZM7.53922 7.99225C7.49591 7.99235 7.45356 7.97957 7.41752 7.95555C7.38149 7.93153 7.35341 7.89735 7.33684 7.85734C7.32027 7.81733 7.31596 7.7733 7.32445 7.73084C7.33295 7.68838 7.35387 7.64939 7.38456 7.61884L7.69388 7.30931C7.71418 7.289 7.7383 7.27289 7.76483 7.2619C7.79137 7.25091 7.81981 7.24525 7.84853 7.24525C7.87725 7.24525 7.90569 7.25091 7.93223 7.2619C7.95877 7.27289 7.98288 7.289 8.00319 7.30931C8.0235 7.32962 8.03961 7.35373 8.0506 7.38027C8.06159 7.40681 8.06725 7.43525 8.06725 7.46397C8.06725 7.49269 8.06159 7.52113 8.0506 7.54767C8.03961 7.5742 8.0235 7.59832 8.00319 7.61862L7.69388 7.92816C7.67359 7.9485 7.64948 7.96463 7.62294 7.97563C7.5964 7.98663 7.56795 7.99228 7.53922 7.99225ZM8.3125 11.1562C8.25448 11.1562 8.19884 11.1332 8.15782 11.0922C8.1168 11.0512 8.09375 10.9955 8.09375 10.9375V10.2812C8.09375 10.2232 8.1168 10.1676 8.15782 10.1266C8.19884 10.0855 8.25448 10.0625 8.3125 10.0625C8.37052 10.0625 8.42616 10.0855 8.46718 10.1266C8.5082 10.1676 8.53125 10.2232 8.53125 10.2812V10.9375C8.53125 10.9955 8.5082 11.0512 8.46718 11.0922C8.42616 11.1332 8.37052 11.1562 8.3125 11.1562ZM11.0968 10.003C11.068 10.003 11.0396 9.99738 11.013 9.98638C10.9865 9.97538 10.9624 9.95925 10.9421 9.93891L10.4781 9.47472C10.4578 9.45441 10.4417 9.4303 10.4307 9.40376C10.4197 9.37723 10.4141 9.34878 10.4141 9.32006C10.4141 9.29134 10.4197 9.2629 10.4307 9.23636C10.4417 9.20983 10.4578 9.18572 10.4781 9.16541C10.4984 9.1451 10.5225 9.12899 10.5491 9.11799C10.5756 9.107 10.6041 9.10135 10.6328 9.10135C10.6615 9.10135 10.6899 9.107 10.7165 9.11799C10.743 9.12899 10.7671 9.1451 10.7874 9.16541L11.2514 9.62959C11.2821 9.66015 11.303 9.69913 11.3115 9.74159C11.32 9.78405 11.3157 9.82808 11.2991 9.86809C11.2826 9.9081 11.2545 9.94228 11.2184 9.9663C11.1824 9.99032 11.1401 10.0031 11.0968 10.003ZM10.6326 4.89869C10.5893 4.89878 10.5469 4.88601 10.5109 4.86199C10.4748 4.83797 10.4468 4.80379 10.4302 4.76378C10.4136 4.72377 10.4093 4.67974 10.4178 4.63728C10.4263 4.59481 10.4472 4.55583 10.4779 4.52528L10.9419 4.06109C10.9622 4.04078 10.9863 4.02467 11.0128 4.01368C11.0394 4.00269 11.0678 3.99703 11.0965 3.99703C11.1253 3.99703 11.1537 4.00269 11.1802 4.01368C11.2068 4.02467 11.2309 4.04078 11.2512 4.06109C11.2715 4.0814 11.2876 4.10551 11.2986 4.13205C11.3096 4.15859 11.3152 4.18703 11.3152 4.21575C11.3152 4.24447 11.3096 4.27291 11.2986 4.29945C11.2876 4.32599 11.2715 4.3501 11.2512 4.37041L10.7872 4.83459C10.7669 4.85494 10.7428 4.87107 10.7163 4.88207C10.6897 4.89307 10.6613 4.89872 10.6326 4.89869ZM8.3125 3.9375C8.25448 3.9375 8.19884 3.91445 8.15782 3.87343C8.1168 3.83241 8.09375 3.77677 8.09375 3.71875V3.0625C8.09375 3.00448 8.1168 2.94884 8.15782 2.90782C8.19884 2.8668 8.25448 2.84375 8.3125 2.84375C8.37052 2.84375 8.42616 2.8668 8.46718 2.90782C8.5082 2.94884 8.53125 3.00448 8.53125 3.0625V3.71875C8.53125 3.77677 8.5082 3.83241 8.46718 3.87343C8.42616 3.91445 8.37052 3.9375 8.3125 3.9375ZM12.25 7.21875H11.5938C11.5357 7.21875 11.4801 7.1957 11.4391 7.15468C11.398 7.11366 11.375 7.05802 11.375 7C11.375 6.94198 11.398 6.88634 11.4391 6.84532C11.4801 6.8043 11.5357 6.78125 11.5938 6.78125H12.25C12.308 6.78125 12.3637 6.8043 12.4047 6.84532C12.4457 6.88634 12.4688 6.94198 12.4688 7C12.4688 7.05802 12.4457 7.11366 12.4047 7.15468C12.3637 7.1957 12.308 7.21875 12.25 7.21875ZM6.73509 4.59375H4.375C4.31698 4.59375 4.26134 4.5707 4.22032 4.52968C4.1793 4.48866 4.15625 4.43302 4.15625 4.375C4.15625 4.31698 4.1793 4.26134 4.22032 4.22032C4.26134 4.1793 4.31698 4.15625 4.375 4.15625H6.73509C6.79311 4.15625 6.84875 4.1793 6.88977 4.22032C6.9308 4.26134 6.95384 4.31698 6.95384 4.375C6.95384 4.43302 6.9308 4.48866 6.88977 4.52968C6.84875 4.5707 6.79311 4.59375 6.73509 4.59375ZM6.73509 9.84375H4.375C4.31698 9.84375 4.26134 9.8207 4.22032 9.77968C4.1793 9.73866 4.15625 9.68302 4.15625 9.625C4.15625 9.56698 4.1793 9.51134 4.22032 9.47032C4.26134 9.4293 4.31698 9.40625 4.375 9.40625H6.73509C6.79311 9.40625 6.84875 9.4293 6.88977 9.47032C6.9308 9.51134 6.95384 9.56698 6.95384 9.625C6.95384 9.68302 6.9308 9.73866 6.88977 9.77968C6.84875 9.8207 6.79311 9.84375 6.73509 9.84375Z" fill="#888888"/>
<path d="M8.29905 11.1525C7.65789 11.1525 7.01017 11.0049 6.40861 10.6949C6.35703 10.6683 6.31813 10.6224 6.30045 10.5671C6.28276 10.5118 6.28776 10.4518 6.31433 10.4003C6.3409 10.3487 6.38687 10.3098 6.44213 10.2921C6.49739 10.2744 6.55741 10.2794 6.60899 10.306C8.32486 11.1902 10.4623 10.5978 11.4751 8.95738C12.4907 7.31216 12.0657 5.13363 10.5075 3.99766C9.37902 3.17516 7.84864 3.05616 6.60899 3.69469C6.58345 3.70785 6.55557 3.71584 6.52694 3.71823C6.49831 3.72061 6.46949 3.71733 6.44213 3.70857C6.41477 3.69982 6.3894 3.68576 6.36747 3.6672C6.34554 3.64864 6.32749 3.62595 6.31433 3.60041C6.30117 3.57487 6.29318 3.54699 6.29079 3.51836C6.28841 3.48973 6.29169 3.46091 6.30045 3.43355C6.3092 3.40619 6.32326 3.38082 6.34182 3.35889C6.36038 3.33697 6.38307 3.31891 6.40861 3.30575C7.79395 2.59175 9.50371 2.72453 10.7652 3.64394C12.5069 4.91356 12.9823 7.34847 11.8472 9.18706C11.0704 10.4458 9.70124 11.1525 8.29905 11.1525Z" fill="#888888"/>
</svg>
