<svg width="16" height="17" viewBox="0 0 16 17" fill="none" xmlns="http://www.w3.org/2000/svg">
<path d="M9.90051 5.90234L7.40845 8.98775" stroke="#20886F" stroke-miterlimit="10" stroke-linecap="round" stroke-linejoin="round"/>
<path d="M13.8163 8.87163C13.753 5.38671 10.9089 2.58216 7.40814 2.58216C3.86784 2.58216 1 5.45 1 8.9903C1 12.5306 3.86784 15.3984 7.40814 15.3984C7.53867 15.3984 7.66525 15.3945 7.79579 15.3866" stroke="#20886F" stroke-miterlimit="10" stroke-linecap="round" stroke-linejoin="round"/>
<path d="M6.81494 8.99064C6.81494 8.66232 7.07997 8.39729 7.40829 8.39729C7.73661 8.39729 8.00163 8.66232 8.00163 8.99064C8.00163 9.31896 7.73661 9.58398 7.40829 9.58398C7.07997 9.58398 6.81494 9.31896 6.81494 8.99064Z" stroke="#20886F" stroke-miterlimit="10"/>
<path d="M8.00163 2.58203H6.81494V1.39534C6.81494 1.06702 7.07997 0.801993 7.40829 0.801993C7.73661 0.801993 8.00163 1.06702 8.00163 1.39534V2.58203Z" fill="#20886F"/>
<path d="M11.8306 1.80958L13.4326 3.13867" stroke="#20886F" stroke-miterlimit="10" stroke-linecap="round" stroke-linejoin="round"/>
<path d="M3.01718 1.80958L1.38745 3.13867" stroke="#20886F" stroke-miterlimit="10" stroke-linecap="round" stroke-linejoin="round"/>
<path d="M11.7152 16.0165L14.8315 13.8688C15.0562 13.7127 15.0562 13.3429 14.8315 13.1902L11.7152 11.0424C11.4815 10.8796 11.1819 11.073 11.1819 11.3817V15.6772C11.1819 15.986 11.4815 16.176 11.7152 16.0165Z" fill="#20886F" stroke="#20886F" stroke-miterlimit="10" stroke-linecap="round" stroke-linejoin="round"/>
</svg>
