<svg width="127" height="127" viewBox="0 0 127 127" fill="none" xmlns="http://www.w3.org/2000/svg">
<circle cx="63.5" cy="63.5" r="63.5" fill="url(#paint0_linear_1_14)" fill-opacity="0.15"/>
<path d="M40.5272 25.7846C35.7065 25.7846 31.7844 29.7065 31.7844 34.5272C31.7844 39.3478 35.7063 43.2697 40.527 43.2697C45.3476 43.2697 49.2697 39.3478 49.2697 34.5272C49.2697 29.7065 45.3478 25.7846 40.5272 25.7846ZM40.5272 40.8088C37.0635 40.8088 34.2455 37.9908 34.2455 34.5272C34.2455 31.0635 37.0635 28.2455 40.5272 28.2455C43.9908 28.2455 46.8088 31.0635 46.8088 34.5272C46.8088 37.9908 43.9907 40.8088 40.5272 40.8088Z" fill="#1E866F"/>
<path d="M53.0541 34.5272C53.0541 27.6196 47.4345 22 40.5272 22C33.6195 22 28 27.6196 28 34.5272C28 45.5292 39.2181 55.9408 39.6957 56.3786L40.5272 57.141L40.5591 57.1117H45.449V54.6507H43.0849C46.3473 51.1879 53.0541 43.0348 53.0541 34.5272ZM40.5272 53.7479C37.9794 51.1554 30.4611 42.803 30.4611 34.5272C30.4609 28.9766 34.9766 24.4609 40.5272 24.4609C46.0776 24.4609 50.5934 28.9766 50.5934 34.5272C50.5932 42.803 43.0749 51.1555 40.5272 53.7479Z" fill="#1E866F"/>
<path d="M58.318 79.173C56.8341 80.1239 55.5633 81.3395 54.5779 82.7509L56.6224 84.015C57.4329 82.8543 58.478 81.8546 59.6984 81.0725L58.318 79.173ZM50.7557 54.7273H55.6499V57.0277H50.7557V54.7273ZM79.9455 58.6753L78.1467 60.235C79.1505 61.2581 79.9018 62.4406 80.3794 63.7495L82.6941 63.0031C82.1056 61.3904 81.1806 59.9344 79.9455 58.6753ZM83.1962 100.427H88.0904V102.727H83.1962V100.427ZM76.8416 74.852C75.6719 75.704 74.3544 76.3052 72.9256 76.6391L73.5158 78.8715C75.2769 78.46 76.9003 77.7193 78.3405 76.6702L76.8416 74.852ZM73.4078 100.427H78.302V102.727H73.4078V100.427ZM80.9129 67.8136C80.7942 69.1879 80.3695 70.5234 79.6665 71.7336L81.8154 72.8341C82.6848 71.3341 83.2016 69.7088 83.3517 68.0034L80.9129 67.8136ZM54.7753 89.8298C54.7753 89.1582 54.8425 88.4865 54.975 87.833L52.5711 87.4024C52.4094 88.2026 52.3281 89.0153 52.3282 89.8298C52.3282 90.7004 52.4212 91.571 52.6047 92.4176L55.0025 91.9583C54.8512 91.2577 54.7751 90.5446 54.7753 89.8298ZM70.3625 54.7279H70.3331V57.0283H70.3625C71.8365 57.0283 73.2621 57.3071 74.6 57.8572L75.5807 55.7496C73.9317 55.0717 72.176 54.7279 70.3625 54.7279ZM66.0481 100.427C65.3172 100.427 64.588 100.361 63.8707 100.23L63.401 102.487C64.2731 102.647 65.1596 102.727 66.0481 102.727H68.5143V100.427H66.0481ZM56.7016 95.7565L54.6743 97.0449C55.6786 98.4444 56.9657 99.6449 58.4624 100.578L59.817 98.662C58.5861 97.8947 57.5276 96.9075 56.7016 95.7565ZM60.5441 54.7273H65.4383V57.0277H60.5441V54.7273ZM66.0479 76.9324C65.1013 76.9323 64.1571 77.0236 63.2303 77.2048L63.7304 79.4567C64.4873 79.3081 65.2671 79.2328 66.0479 79.2328H68.3554V76.9324H66.0479Z" fill="#1E866F"/>
<path d="M93.056 101.636V101.636C93.056 102.704 92.1864 103.574 91.1184 103.574C90.0505 103.574 89.1809 102.704 89.1809 101.636C89.1809 100.568 90.0505 99.6984 91.1184 99.6984C92.1864 99.6984 93.056 100.568 93.056 101.636ZM91.1184 97.8633C89.0377 97.8633 87.3457 99.5553 87.3457 101.636H94.8912C94.8912 99.5552 93.1991 97.8633 91.1184 97.8633Z" fill="#1E866F" stroke="#1E866F"/>
<defs>
<linearGradient id="paint0_linear_1_14" x1="-2.64529" y1="-34.7835" x2="201.521" y2="79.8757" gradientUnits="userSpaceOnUse">
<stop offset="0.282986" stop-color="#1E866F"/>
<stop offset="1" stop-color="#B3E59F" stop-opacity="0.75"/>
</linearGradient>
</defs>
</svg>
