<svg width="16" height="16" viewBox="0 0 16 16" fill="none" xmlns="http://www.w3.org/2000/svg">
<path d="M8.56 1.06091L10.3771 4.72948C10.4185 4.8226 10.4835 4.90325 10.5657 4.96341C10.6479 5.02357 10.7445 5.06113 10.8457 5.07234L14.8571 5.66663C14.9733 5.68156 15.0828 5.72922 15.1729 5.80406C15.2629 5.8789 15.3299 5.97782 15.3658 6.08927C15.4018 6.20072 15.4053 6.3201 15.3759 6.43346C15.3465 6.54683 15.2855 6.6495 15.2 6.72948L12.3086 9.59806C12.2348 9.667 12.1794 9.7533 12.1475 9.84911C12.1155 9.94492 12.108 10.0472 12.1257 10.1466L12.8229 14.1809C12.843 14.2968 12.8303 14.4161 12.786 14.5251C12.7418 14.6342 12.6678 14.7286 12.5726 14.7976C12.4773 14.8667 12.3646 14.9076 12.2472 14.9158C12.1298 14.924 12.0125 14.899 11.9086 14.8438L8.29715 12.9352C8.20467 12.8898 8.10302 12.8662 8 12.8662C7.89699 12.8662 7.79534 12.8898 7.70286 12.9352L4.09143 14.8438C3.98753 14.899 3.87022 14.924 3.75283 14.9158C3.63545 14.9076 3.52271 14.8667 3.42745 14.7976C3.33218 14.7286 3.25822 14.6342 3.21397 14.5251C3.16972 14.4161 3.15696 14.2968 3.17715 14.1809L3.87429 10.1009C3.89196 10.0015 3.88448 9.89921 3.85255 9.8034C3.82061 9.70759 3.76523 9.62129 3.69143 9.55234L0.765717 6.72948C0.67916 6.64731 0.618289 6.5418 0.590476 6.42573C0.562664 6.30966 0.569104 6.18802 0.609017 6.07554C0.648929 5.96306 0.720602 5.86456 0.815352 5.79199C0.910103 5.71941 1.02387 5.67587 1.14286 5.66663L5.15429 5.07234C5.25554 5.06113 5.35209 5.02357 5.43431 4.96341C5.51652 4.90325 5.58153 4.8226 5.62286 4.72948L7.44 1.06091C7.48949 0.954065 7.56851 0.863604 7.66773 0.800208C7.76696 0.736811 7.88225 0.703125 8 0.703125C8.11775 0.703125 8.23305 0.736811 8.33227 0.800208C8.4315 0.863604 8.51052 0.954065 8.56 1.06091Z" stroke="#1E866F" stroke-linecap="round" stroke-linejoin="round"/>
</svg>
