<svg width="19" height="18" viewBox="0 0 19 18" fill="none" xmlns="http://www.w3.org/2000/svg">
<path d="M18.4615 6.93278L18.4615 6.93276C18.4211 6.80644 18.3427 6.69359 18.2352 6.60951C18.1275 6.52535 17.9957 6.47411 17.8567 6.46352L17.8523 6.46319L17.8523 6.46317L12.718 6.02663L12.7122 6.02613L12.7122 6.0261C12.5929 6.01456 12.4782 5.97138 12.3805 5.90033C12.2829 5.82936 12.2057 5.733 12.1579 5.62077L12.158 5.62101L12.6179 5.42481L12.1576 5.62014L18.4615 6.93278ZM18.4615 6.93278L18.4643 6.94107M18.4615 6.93278L18.4643 6.94107M18.4643 6.94107C18.5076 7.06874 18.5116 7.20587 18.4758 7.3356C18.4399 7.46531 18.3656 7.58296 18.2607 7.6731L18.4643 6.94107ZM18.2271 7.66258L18.2271 7.66257L14.332 11.0046L14.3315 11.005C14.2345 11.088 14.1633 11.1947 14.1245 11.3129C14.0857 11.431 14.0805 11.5571 14.1093 11.6777L14.1097 11.6795L15.2763 16.6469C15.3087 16.778 15.3004 16.9158 15.2528 17.0421C15.2062 17.1657 15.1244 17.2718 15.0188 17.3483C14.9121 17.4281 14.784 17.4734 14.6518 17.4789C14.5192 17.4843 14.3877 17.4497 14.2748 17.3789L9.86797 14.7499L9.86757 14.7496C9.75733 14.6837 9.63009 14.6485 9.49983 14.6485C9.36957 14.6485 9.24234 14.6837 9.1321 14.7496L9.1317 14.7499L4.72486 17.3789C4.61197 17.4497 4.48044 17.4843 4.34792 17.4789C4.21565 17.4734 4.08753 17.4281 3.98086 17.3483C3.8753 17.2718 3.79348 17.1657 3.74687 17.0421C3.69924 16.9158 3.691 16.778 3.72334 16.6469L4.88993 11.6795L4.89034 11.6777C4.91913 11.5571 4.91392 11.431 4.87516 11.3129C4.83638 11.1947 4.76519 11.088 4.66819 11.005L4.66772 11.0046L0.774131 7.66394C0.671659 7.57714 0.596905 7.46103 0.561008 7.32997L1.04325 7.19789L0.561007 7.32997C0.526486 7.20394 0.529781 7.07083 0.570132 6.94698L18.2271 7.66258ZM18.2271 7.66258L18.23 7.66008C18.3319 7.57134 18.4052 7.45338 18.439 7.32102C18.4709 7.19621 18.4659 7.06517 18.425 6.94353C18.3858 6.81711 18.3095 6.70612 18.207 6.62427C18.1013 6.53986 17.9728 6.49037 17.8391 6.48122L12.7103 6.04522C12.7102 6.04521 12.7101 6.0452 12.71 6.04519C12.5799 6.03384 12.4562 5.98787 12.352 5.91305C12.2479 5.83824 12.1675 5.73767 12.1185 5.62289C12.1185 5.62283 12.1185 5.62278 12.1185 5.62273L10.1197 0.921479L10.1154 0.911394L10.1107 0.901506C10.0554 0.785728 9.96828 0.689053 9.86069 0.62187C9.75319 0.554738 9.62925 0.519508 9.50329 0.519508C9.37732 0.519508 9.25338 0.554741 9.14588 0.62187C9.0383 0.689053 8.9512 0.785728 8.89587 0.901506L8.89128 0.911113L8.8871 0.920907L6.88126 5.6226C6.83212 5.73772 6.7514 5.83854 6.64682 5.91341C6.54217 5.98833 6.41788 6.03416 6.28736 6.04509L6.28676 6.04515L1.15709 6.48122C1.02346 6.49037 0.894921 6.53985 0.789201 6.62426L18.2271 7.66258ZM14.1268 16.1262L13.1366 11.9098C13.1365 11.9094 13.1364 11.909 13.1364 11.9087C13.0649 11.6083 13.0781 11.2945 13.1743 11.0011C13.2706 10.7076 13.4462 10.4465 13.6811 10.2454C13.6811 10.2454 13.6812 10.2453 13.6813 10.2453L16.9834 7.41208L12.6247 7.04155L12.6239 7.04148C12.3156 7.01473 12.0198 6.90567 11.7686 6.72523C11.5174 6.54474 11.3199 6.29943 11.1986 6.01504L11.1984 6.01452L9.50276 2.02619L7.80102 6.01509L7.80098 6.01517C7.6793 6.30024 7.4811 6.546 7.22891 6.72654C6.97685 6.90698 6.68019 7.01563 6.37112 7.04158L6.37147 7.04155L6.32911 6.54335L6.37087 7.0416L14.1268 16.1262ZM14.1268 16.1262L10.3807 13.8913C10.3806 13.8913 10.3806 13.8912 10.3805 13.8912C10.1145 13.7322 9.80988 13.6485 9.49983 13.6485C9.18979 13.6485 8.88518 13.7322 8.61915 13.8912C8.61909 13.8912 8.61903 13.8913 8.61897 13.8913L4.87284 16.1262M14.1268 16.1262H4.87284M1.52383 7.24742C1.52579 7.24073 1.52754 7.234 1.52908 7.22722C1.54109 7.17419 1.53998 7.11873 1.52548 7.0658L1.2305 7.1466L1.52548 7.0658C1.50798 7.00189 1.4721 6.94574 1.42368 6.90364C1.42211 6.90228 1.42053 6.90092 1.41893 6.89959L1.42372 6.9036L1.4237 6.90363L2.016 7.41181L1.23632 7.4781L1.22806 7.4788L1.21979 7.47923C1.22531 7.47894 1.23081 7.47852 1.2363 7.47796C1.30017 7.4715 1.36169 7.44682 1.41315 7.40573C1.45883 7.36926 1.49483 7.32119 1.51701 7.26592C1.51945 7.25984 1.52173 7.25367 1.52383 7.24742ZM1.52383 7.24742C1.52604 7.24085 1.52806 7.23418 1.52988 7.22744L1.52459 7.24705L1.51772 7.26617C1.51994 7.25997 1.52198 7.25372 1.52383 7.24742ZM4.87284 16.1262L5.86304 11.9098M4.87284 16.1262L5.86304 11.9098M5.86304 11.9098C5.86311 11.9095 5.86318 11.9092 5.86326 11.9089M5.86304 11.9098L5.86326 11.9089M5.86326 11.9089C5.93474 11.6085 5.9216 11.2946 5.82534 11.0011C5.729 10.7075 5.55336 10.4463 5.31841 10.2453L5.86326 11.9089ZM10.1532 0.921747L10.612 0.723029L10.1521 0.919231L10.1527 0.920666C10.1529 0.921026 10.153 0.921386 10.1532 0.921747ZM8.84695 0.920666L8.84756 0.919231L8.38766 0.723029L8.84648 0.921747C8.84664 0.921386 8.84679 0.921026 8.84695 0.920666ZM6.84206 5.62013L6.38179 5.42481L6.84168 5.62101L6.8418 5.62074C6.79403 5.73299 6.71676 5.82936 6.61917 5.90033L6.32509 5.49596L6.61917 5.90033L6.84206 5.62013ZM4.83877 11.3191L4.3633 11.4738L18.2605 7.67328L14.3655 11.0151L14.3655 11.0151L14.3621 11.0181C14.2709 11.0978 14.2022 11.201 14.1644 11.3174L14.6398 11.4721L14.1644 11.3174C14.1265 11.4338 14.1211 11.5584 14.1489 11.6778L14.1491 11.6788L15.3165 16.6498L15.3173 16.653C15.349 16.7839 15.3405 16.9211 15.2929 17.0475C15.2452 17.1741 15.16 17.2853 15.0466 17.3661C14.9332 17.4471 14.797 17.4937 14.6552 17.4991C14.5135 17.5046 14.3738 17.4686 14.2539 17.3964L14.2522 17.3953L9.84274 14.7648C9.8419 14.7643 9.84106 14.7638 9.84021 14.7633C9.73615 14.7005 9.61718 14.6677 9.49638 14.6677C9.37558 14.6677 9.25661 14.7005 9.15255 14.7633C9.1517 14.7638 9.15086 14.7643 9.15002 14.7648L4.74059 17.3953L4.74058 17.3953L4.73635 17.3979C4.61933 17.4693 4.48243 17.505 4.34344 17.4994C4.20446 17.4939 4.07115 17.4476 3.96066 17.3674L3.96068 17.3674L3.95594 17.364C3.84224 17.2835 3.75657 17.1726 3.70844 17.0461L3.24114 17.2239L3.70844 17.0461C3.66034 16.9197 3.65148 16.7825 3.68274 16.6515L3.68306 16.6501L4.85395 11.6808L4.85425 11.6795C4.88205 11.5602 4.87666 11.4356 4.83877 11.3191Z" stroke="#FF9900"/>
</svg>
