<svg width="11" height="16" viewBox="0 0 11 16" fill="none" xmlns="http://www.w3.org/2000/svg">
<g clip-path="url(#clip0_4536_763)">
<path d="M9.40854 3.99419L6.96791 7.6149L9.40854 11.2356C9.73166 11.7116 9.9001 12.2725 9.9001 12.8471V14.8699H1.1001V12.8471C1.1001 12.2759 1.27197 11.715 1.59166 11.239L4.03229 7.6183L1.59166 3.99759C1.27197 3.51823 1.1001 2.95727 1.1001 2.38272V0.363281H9.9001V2.38612C9.9001 2.95727 9.72822 3.51823 9.40854 3.99419Z" fill="white"/>
<path d="M7.70005 1.8125V2.29526C7.70005 2.92421 7.4938 3.53276 7.11224 4.03592L5.50005 6.16415L3.88786 4.03592C3.5063 3.53616 3.30005 2.92421 3.30005 2.29866V1.8125H7.70005Z" fill="#FF9900"/>
<path d="M10.2678 2.38661V0.724142H10.6356C10.8384 0.724142 11.0034 0.560955 11.0034 0.360371C11.0034 0.159787 10.835 0 10.6322 0H0.367812C0.165 0 0 0.163187 0 0.363771C0 0.564354 0.165 0.727541 0.367812 0.727541H0.735625V2.39001C0.735625 3.03596 0.928125 3.6615 1.28906 4.19866L3.59219 7.61539L1.28906 11.0355C0.928125 11.5727 0.735625 12.2016 0.735625 12.8442V14.5066H0.367812C0.165 14.5066 0 14.6698 0 14.8704C0 15.071 0.165 15.2308 0.367812 15.2308H10.6356C10.8384 15.2308 11.0034 15.0676 11.0034 14.867C11.0034 14.6664 10.8384 14.5032 10.6356 14.5032H10.2678V12.8408C10.2678 12.1948 10.0753 11.5693 9.71437 11.0321L7.40781 7.61539L9.71437 4.19526C10.0753 3.6615 10.2678 3.02916 10.2678 2.38661ZM9.53219 2.38661C9.53219 2.88977 9.38437 3.37593 9.1025 3.79409L6.66187 7.4148C6.57937 7.53719 6.57937 7.69358 6.66187 7.81597L9.1025 11.4367C9.38437 11.8548 9.53219 12.341 9.53219 12.8442V14.5066H1.46781V12.8442C1.46781 12.341 1.61562 11.8548 1.8975 11.4367L4.33812 7.81597C4.42062 7.69358 4.42062 7.53719 4.33812 7.4148L1.8975 3.79409C1.61562 3.37593 1.46781 2.88637 1.46781 2.38661V0.724142H9.53562V2.38661H9.53219ZM5.20781 6.38128C5.32812 6.54107 5.55844 6.57507 5.72 6.45268C5.7475 6.43228 5.77156 6.40848 5.79219 6.38128L7.40437 4.25306C7.83062 3.6921 8.06437 2.99856 8.06437 2.29481V1.81205C8.06437 1.61147 7.89937 1.44828 7.69656 1.44828H3.3C3.09719 1.44828 2.93219 1.61147 2.93219 1.81205V2.29481C2.93219 2.99516 3.16594 3.6921 3.59219 4.25306L5.20781 6.38128ZM3.66781 2.17582H7.33562V2.29821C7.33562 2.84217 7.15344 3.38273 6.82344 3.82129L5.5 5.56195L4.18 3.82129C3.84656 3.38273 3.66781 2.84557 3.66781 2.29821V2.17582Z" fill="#1E866F"/>
</g>
<defs>
<clipPath id="clip0_4536_763">
<rect width="11" height="15.2308" fill="white"/>
</clipPath>
</defs>
</svg>
