<svg width="19" height="18" viewBox="0 0 19 18" fill="none" xmlns="http://www.w3.org/2000/svg">
<path d="M18.9377 6.7803C18.8664 6.55755 18.729 6.36087 18.5431 6.21557C18.3572 6.07027 18.1314 5.983 17.8946 5.96497L12.7604 5.52842C12.7293 5.52542 12.6997 5.5142 12.6746 5.49596C12.6495 5.47771 12.6299 5.45313 12.6179 5.42481L10.612 0.723029C10.5191 0.50854 10.3642 0.325646 10.1664 0.197092C9.96867 0.068539 9.73687 0 9.49983 0C9.2628 0 9.031 0.068539 8.83326 0.197092C8.63552 0.325646 8.48056 0.50854 8.38766 0.723029L6.38179 5.42481C6.36977 5.45313 6.35018 5.47771 6.32509 5.49596C6.3 5.5142 6.27036 5.52542 6.23931 5.52842L1.10502 5.96497C0.868294 5.983 0.642462 6.07027 0.456575 6.21557C0.270688 6.36087 0.133248 6.55755 0.0619324 6.7803C-0.0135971 7.00337 -0.0201947 7.24346 0.0429738 7.47022C0.106142 7.69698 0.236241 7.90022 0.416825 8.05427L4.31201 11.3963C4.33586 11.4171 4.35358 11.4439 4.3633 11.4738C4.37302 11.5037 4.37439 11.5356 4.36727 11.5662L3.19639 16.5355C3.14181 16.7643 3.15738 17.0038 3.24114 17.2239C3.32489 17.444 3.47308 17.6348 3.66699 17.7721C3.85788 17.9106 4.08662 17.9897 4.32366 17.9991C4.5607 18.0084 4.79515 17.9477 4.99675 17.8247L9.41003 15.1919C9.43597 15.1761 9.46587 15.1677 9.49638 15.1677C9.52689 15.1677 9.55679 15.1761 9.58273 15.1919L13.996 17.8247C14.1997 17.9474 14.4358 18.008 14.6744 17.9988C14.9131 17.9896 15.1436 17.9111 15.337 17.7732C15.5303 17.6353 15.6778 17.4441 15.7608 17.2238C15.8438 17.0035 15.8586 16.764 15.8033 16.5355L14.6358 11.5645C14.6287 11.5339 14.6301 11.502 14.6398 11.4721C14.6495 11.4422 14.6673 11.4154 14.6911 11.3946L18.5863 8.05257C18.7659 7.89826 18.8952 7.69512 18.9577 7.46873C19.0202 7.24234 19.0133 7.00282 18.9377 6.7803ZM17.9016 7.2831L14.0064 10.6251C13.8404 10.7672 13.717 10.9511 13.6494 11.157C13.5819 11.3629 13.5727 11.5831 13.623 11.7938L14.7904 16.7648C14.799 16.7982 14.7971 16.8334 14.785 16.8657C14.7728 16.898 14.7509 16.9259 14.7222 16.9457C14.6962 16.9661 14.6643 16.9779 14.6311 16.9793C14.5978 16.9807 14.565 16.9716 14.5374 16.9533L10.1241 14.3205C9.93598 14.208 9.72002 14.1485 9.49983 14.1485C9.27965 14.1485 9.06369 14.208 8.87553 14.3205L4.46226 16.9533C4.43464 16.9716 4.40182 16.9807 4.36859 16.9793C4.33536 16.9779 4.30344 16.9661 4.27747 16.9457C4.24879 16.9259 4.2269 16.898 4.21471 16.8657C4.20253 16.8334 4.20063 16.7982 4.20926 16.7648L5.37669 11.7938C5.42695 11.5831 5.41781 11.3629 5.35025 11.157C5.28269 10.9511 5.15927 10.7672 4.9933 10.6251L1.09812 7.2831C1.07148 7.26081 1.05234 7.2311 1.04325 7.19789C1.03415 7.16467 1.03552 7.12953 1.04717 7.0971C1.05589 7.0648 1.0748 7.03606 1.10117 7.015C1.12755 6.99394 1.16004 6.98165 1.19396 6.97989L6.32911 6.54335C6.54895 6.52492 6.75947 6.44768 6.93786 6.31997C7.11625 6.19227 7.25571 6.01898 7.34112 5.81889L9.347 1.11711C9.36094 1.08793 9.38305 1.06325 9.41072 1.04597C9.4384 1.02869 9.4705 1.01951 9.50329 1.01951C9.53607 1.01951 9.56818 1.02869 9.59585 1.04597C9.62353 1.06325 9.64563 1.08793 9.65958 1.11711L11.6586 5.81889C11.7437 6.0185 11.8826 6.19147 12.0603 6.31914C12.2381 6.44681 12.4479 6.52433 12.6671 6.54335L17.8023 6.97989C17.8362 6.98165 17.8687 6.99394 17.895 7.015C17.9214 7.03606 17.9403 7.0648 17.949 7.0971C17.9611 7.1292 17.963 7.16413 17.9545 7.19732C17.9461 7.23051 17.9276 7.26041 17.9016 7.2831Z" fill="#FF9C07"/>
<path d="M17.9016 7.2831L14.0064 10.6251C13.8404 10.7672 13.717 10.9511 13.6494 11.157C13.5819 11.3629 13.5727 11.5831 13.623 11.7938L14.7904 16.7648C14.799 16.7982 14.7971 16.8334 14.785 16.8657C14.7728 16.898 14.7509 16.9259 14.7222 16.9457C14.6962 16.9661 14.6643 16.9779 14.6311 16.9793C14.5978 16.9807 14.565 16.9716 14.5374 16.9533L10.1241 14.3205C9.93598 14.208 9.72002 14.1485 9.49983 14.1485C9.27965 14.1485 9.06369 14.208 8.87553 14.3205L4.46226 16.9533C4.43464 16.9716 4.40182 16.9807 4.36859 16.9793C4.33536 16.9779 4.30344 16.9661 4.27747 16.9457C4.24879 16.9259 4.2269 16.898 4.21471 16.8657C4.20253 16.8334 4.20063 16.7982 4.20926 16.7648L5.37669 11.7938C5.42695 11.5831 5.41781 11.3629 5.35025 11.157C5.28269 10.9511 5.15927 10.7672 4.9933 10.6251L1.09812 7.2831C1.07148 7.26081 1.05234 7.2311 1.04325 7.19789C1.03415 7.16467 1.03552 7.12953 1.04717 7.0971C1.05589 7.0648 1.0748 7.03606 1.10117 7.015C1.12755 6.99394 1.16004 6.98165 1.19396 6.97989L6.32911 6.54335C6.54895 6.52492 6.75947 6.44768 6.93786 6.31997C7.11625 6.19227 7.25571 6.01898 7.34112 5.81889L9.347 1.11711C9.36094 1.08793 9.38305 1.06325 9.41072 1.04597C9.4384 1.02869 9.4705 1.01951 9.50329 1.01951C9.53607 1.01951 9.56818 1.02869 9.59585 1.04597C9.62353 1.06325 9.64563 1.08793 9.65958 1.11711L11.6586 5.81889C11.7437 6.0185 11.8826 6.19147 12.0603 6.31914C12.2381 6.44681 12.4479 6.52433 12.6671 6.54335L17.8023 6.97989C17.8362 6.98165 17.8687 6.99394 17.895 7.015C17.9214 7.03606 17.9403 7.0648 17.949 7.0971C17.9611 7.1292 17.963 7.16413 17.9545 7.19732C17.9461 7.23051 17.9276 7.26041 17.9016 7.2831Z" fill="#FF9C07"/>
</svg>
