<svg width="16" height="16" viewBox="0 0 16 16" fill="none" xmlns="http://www.w3.org/2000/svg">
<g clip-path="url(#clip0_8190_1600)">
<path d="M13.711 7.28219L12.7541 8.18547L12.3313 7.75138C12.3086 7.72702 12.2813 7.70745 12.2509 7.6938C12.2206 7.68015 12.1878 7.67271 12.1545 7.6719C12.1212 7.67109 12.0881 7.67694 12.0571 7.6891C12.0261 7.70125 11.9979 7.71948 11.974 7.7427C11.9502 7.76593 11.9312 7.79368 11.9182 7.82433C11.9052 7.85499 11.8985 7.88793 11.8984 7.92122C11.8984 7.95451 11.9049 7.98748 11.9178 8.0182C11.9306 8.04891 11.9494 8.07676 11.9732 8.1001L12.5676 8.7105C12.6134 8.75752 12.6759 8.78465 12.7415 8.78603C12.8071 8.78741 12.8706 8.76293 12.9184 8.71788L14.0543 7.64569C14.1025 7.60018 14.1306 7.53737 14.1326 7.47109C14.1345 7.40481 14.11 7.34049 14.0645 7.29227C14.019 7.24405 13.9561 7.21588 13.8899 7.21397C13.8236 7.21206 13.7593 7.23655 13.711 7.28207V7.28219Z" fill="#1E866F"/>
<path d="M13.0176 5.94531C12.6112 5.94531 12.2139 6.06582 11.876 6.2916C11.5381 6.51737 11.2748 6.83827 11.1193 7.21372C10.9637 7.58918 10.923 8.00231 11.0023 8.40089C11.0816 8.79946 11.2773 9.16558 11.5647 9.45294C11.852 9.74029 12.2181 9.93599 12.6167 10.0153C13.0153 10.0946 13.4284 10.0539 13.8039 9.89834C14.1793 9.74283 14.5002 9.47947 14.726 9.14157C14.9518 8.80368 15.0723 8.40642 15.0723 8.00003C15.0717 7.45528 14.855 6.93301 14.4698 6.54781C14.0846 6.16261 13.5623 5.94593 13.0176 5.94531ZM13.0176 9.55469C12.7101 9.55469 12.4095 9.4635 12.1538 9.29267C11.8981 9.12183 11.6989 8.87901 11.5812 8.59492C11.4635 8.31083 11.4327 7.99822 11.4927 7.69664C11.5527 7.39505 11.7008 7.11802 11.9182 6.90059C12.1357 6.68317 12.4127 6.5351 12.7143 6.47512C13.0159 6.41513 13.3285 6.44593 13.6126 6.56361C13.8967 6.6813 14.1395 6.88058 14.3103 7.13626C14.4811 7.39194 14.5723 7.69253 14.5723 8.00003C14.5718 8.41223 14.4079 8.80741 14.1164 9.09887C13.8249 9.39034 13.4298 9.55429 13.0176 9.55475V9.55469ZM10.3877 7.90575C10.3849 7.8989 10.3818 7.89219 10.3783 7.88563L10.3773 7.88347C10.3737 7.87663 10.3697 7.86995 10.3655 7.86347L10.3648 7.86234C10.3551 7.84767 10.3439 7.83405 10.3314 7.82172L9.18719 6.67753C9.14028 6.63065 9.07667 6.60433 9.01035 6.60436C8.94403 6.60438 8.88044 6.63075 8.83356 6.67766C8.78669 6.72457 8.76036 6.78818 8.76039 6.8545C8.76041 6.92081 8.78678 6.9844 8.83369 7.03128L9.55244 7.75003H5.53125C5.46495 7.75003 5.40136 7.77637 5.35447 7.82325C5.30759 7.87014 5.28125 7.93373 5.28125 8.00003C5.28125 8.06634 5.30759 8.12992 5.35447 8.17681C5.40136 8.22369 5.46495 8.25003 5.53125 8.25003H9.55256L8.83381 8.96878C8.81037 8.99194 8.79173 9.01951 8.77898 9.0499C8.76622 9.08029 8.75961 9.11291 8.75951 9.14587C8.7594 9.17882 8.76582 9.21148 8.77839 9.24195C8.79095 9.27242 8.80942 9.3001 8.83272 9.3234C8.85602 9.34671 8.88371 9.36518 8.91417 9.37775C8.94464 9.39031 8.97729 9.39673 9.01025 9.39664C9.04321 9.39654 9.07582 9.38992 9.10622 9.37717C9.13661 9.36442 9.16418 9.34579 9.18734 9.32234L10.3314 8.17816C10.3439 8.16582 10.3552 8.15221 10.3648 8.13753L10.3655 8.13641C10.3698 8.12991 10.3737 8.12328 10.3773 8.11641L10.3784 8.11425C10.3818 8.10769 10.3849 8.101 10.3877 8.09412C10.3879 8.09366 10.3881 8.09316 10.3883 8.09269C10.4123 8.03312 10.4123 7.96657 10.3883 7.907C10.388 7.90672 10.3879 7.90628 10.3877 7.90575ZM4.40625 6.50003C4.40625 6.43373 4.37991 6.37014 4.33303 6.32325C4.28614 6.27637 4.22255 6.25003 4.15625 6.25003H1.1875C1.1212 6.25003 1.05761 6.27637 1.01072 6.32325C0.963839 6.37014 0.9375 6.43373 0.9375 6.50003V9.46878C0.9375 9.53509 0.963839 9.59867 1.01072 9.64556C1.05761 9.69244 1.1212 9.71878 1.1875 9.71878H4.15625C4.22255 9.71878 4.28614 9.69244 4.33303 9.64556C4.37991 9.59867 4.40625 9.53509 4.40625 9.46878V6.50003ZM3.90625 9.25003H1.4375V6.75003H3.90625V9.25003ZM10.2923 13.103L9.18722 11.9979C9.16405 11.9744 9.13648 11.9558 9.10609 11.943C9.0757 11.9303 9.04309 11.9237 9.01013 11.9236C8.97717 11.9235 8.94452 11.9299 8.91405 11.9425C8.88358 11.955 8.8559 11.9735 8.8326 11.9968C8.80929 12.0201 8.79083 12.0478 8.77826 12.0783C8.7657 12.1087 8.75928 12.1414 8.75938 12.1744C8.75948 12.2073 8.7661 12.2399 8.77885 12.2703C8.7916 12.3007 8.81024 12.3283 8.83369 12.3514L9.54478 13.0625H5.53125C5.46495 13.0625 5.40136 13.0889 5.35447 13.1358C5.30759 13.1826 5.28125 13.2462 5.28125 13.3125C5.28125 13.3788 5.30759 13.4424 5.35447 13.4893C5.40136 13.5362 5.46495 13.5625 5.53125 13.5625H9.56034L8.83369 14.2892C8.81024 14.3123 8.7916 14.3399 8.77885 14.3703C8.7661 14.4007 8.75948 14.4333 8.75938 14.4663C8.75928 14.4992 8.7657 14.5319 8.77826 14.5624C8.79083 14.5928 8.80929 14.6205 8.8326 14.6438C8.8559 14.6671 8.88358 14.6856 8.91405 14.6982C8.94452 14.7107 8.97717 14.7171 9.01013 14.717C9.04309 14.7169 9.0757 14.7103 9.10609 14.6976C9.13648 14.6848 9.16405 14.6662 9.18722 14.6427L10.3329 13.4971C10.3564 13.4736 10.375 13.4456 10.3876 13.4148C10.4001 13.384 10.4064 13.3509 10.406 13.3177C10.406 13.3159 10.4062 13.3143 10.4062 13.3125C10.4063 13.2709 10.3958 13.2299 10.3759 13.1933C10.356 13.1567 10.3273 13.1256 10.2923 13.103ZM12.9902 11.2657C12.5838 11.2657 12.1866 11.3862 11.8487 11.6119C11.5108 11.8377 11.2474 12.1586 11.0919 12.5341C10.9364 12.9095 10.8957 13.3227 10.975 13.7212C11.0543 14.1198 11.25 14.4859 11.5373 14.7733C11.8247 15.0606 12.1908 15.2563 12.5894 15.3356C12.9879 15.4149 13.4011 15.3742 13.7765 15.2187C14.152 15.0632 14.4729 14.7998 14.6987 14.4619C14.9244 14.124 15.0449 13.7268 15.0449 13.3204C15.0443 12.7756 14.8277 12.2533 14.4424 11.8681C14.0572 11.4829 13.535 11.2663 12.9902 11.2657ZM12.9902 14.875C12.6827 14.875 12.3821 14.7838 12.1265 14.613C11.8708 14.4422 11.6715 14.1994 11.5538 13.9153C11.4362 13.6312 11.4054 13.3186 11.4654 13.017C11.5254 12.7154 11.6734 12.4384 11.8909 12.221C12.1083 12.0035 12.3853 11.8555 12.6869 11.7955C12.9885 11.7355 13.3011 11.7663 13.5852 11.8839C13.8693 12.0016 14.1121 12.2009 14.2829 12.4566C14.4538 12.7122 14.5449 13.0128 14.5449 13.3203C14.5445 13.7325 14.3805 14.1277 14.0891 14.4192C13.7976 14.7106 13.4024 14.8746 12.9902 14.875Z" fill="#1E866F"/>
<path d="M13.711 12.6133C13.6878 12.59 13.6602 12.5716 13.6299 12.5591C13.5996 12.5465 13.567 12.54 13.5342 12.54C13.5014 12.54 13.4689 12.5465 13.4385 12.5591C13.4082 12.5716 13.3807 12.59 13.3574 12.6133L13.0039 12.9668L12.6503 12.6133C12.6273 12.5894 12.5997 12.5703 12.5692 12.5572C12.5387 12.5441 12.5059 12.5372 12.4727 12.537C12.4395 12.5367 12.4066 12.543 12.3758 12.5556C12.3451 12.5681 12.3172 12.5867 12.2937 12.6102C12.2703 12.6337 12.2517 12.6616 12.2391 12.6923C12.2266 12.723 12.2203 12.7559 12.2205 12.7891C12.2208 12.8223 12.2277 12.8551 12.2408 12.8856C12.2539 12.9161 12.273 12.9437 12.2969 12.9668L12.6504 13.3203L12.2969 13.6739C12.2734 13.6971 12.2548 13.7246 12.242 13.755C12.2293 13.7854 12.2227 13.818 12.2226 13.851C12.2225 13.884 12.2289 13.9166 12.2415 13.9471C12.254 13.9775 12.2725 14.0052 12.2958 14.0285C12.3191 14.0518 12.3468 14.0703 12.3773 14.0829C12.4077 14.0954 12.4404 14.1018 12.4734 14.1017C12.5063 14.1016 12.5389 14.095 12.5693 14.0823C12.5997 14.0695 12.6273 14.0509 12.6504 14.0274L13.004 13.6739L13.3575 14.0274C13.3807 14.0509 13.4083 14.0695 13.4387 14.0823C13.469 14.095 13.5017 14.1016 13.5346 14.1017C13.5676 14.1018 13.6002 14.0954 13.6307 14.0829C13.6612 14.0703 13.6888 14.0518 13.7122 14.0285C13.7355 14.0052 13.7539 13.9775 13.7665 13.9471C13.7791 13.9166 13.7855 13.884 13.7854 13.851C13.7853 13.818 13.7787 13.7854 13.7659 13.755C13.7532 13.7246 13.7345 13.6971 13.7111 13.6739L13.3575 13.3203L13.7111 12.9668C13.758 12.9199 13.7843 12.8563 13.7843 12.79C13.7842 12.7237 13.7579 12.6601 13.711 12.6133ZM4.40625 11.8438C4.40625 11.7775 4.37991 11.7139 4.33303 11.667C4.28614 11.6202 4.22255 11.5938 4.15625 11.5938H1.1875C1.1212 11.5938 1.05761 11.6202 1.01072 11.667C0.963839 11.7139 0.9375 11.7775 0.9375 11.8438V14.8126C0.9375 14.8789 0.963839 14.9425 1.01072 14.9893C1.05761 15.0362 1.1212 15.0626 1.1875 15.0626H4.15625C4.22255 15.0626 4.28614 15.0362 4.33303 14.9893C4.37991 14.9425 4.40625 14.8789 4.40625 14.8126V11.8438ZM3.90625 14.5626H1.4375V12.0938H3.90625V14.5626ZM10.3329 2.503L9.18722 1.35734C9.14024 1.31093 9.0768 1.285 9.01076 1.2852C8.94472 1.2854 8.88144 1.31173 8.83474 1.35843C8.78805 1.40513 8.76172 1.46841 8.76153 1.53445C8.76133 1.60049 8.78727 1.66393 8.83369 1.71091L9.56034 2.43756H5.53125C5.46495 2.43756 5.40136 2.4639 5.35447 2.51079C5.30759 2.55767 5.28125 2.62126 5.28125 2.68756C5.28125 2.75387 5.30759 2.81746 5.35447 2.86434C5.40136 2.91122 5.46495 2.93756 5.53125 2.93756H9.54478L8.83369 3.64866C8.81024 3.67182 8.7916 3.69939 8.77885 3.72978C8.7661 3.76017 8.75948 3.79278 8.75938 3.82574C8.75928 3.8587 8.7657 3.89135 8.77826 3.92182C8.79083 3.95229 8.80929 3.97997 8.8326 4.00328C8.8559 4.02659 8.88358 4.04505 8.91405 4.05762C8.94452 4.07019 8.97717 4.07661 9.01013 4.07651C9.04309 4.07641 9.0757 4.0698 9.10609 4.05705C9.13648 4.0443 9.16405 4.02566 9.18722 4.00222L10.2923 2.89713C10.3273 2.87448 10.356 2.84344 10.3759 2.80683C10.3958 2.77023 10.4063 2.72923 10.4062 2.68756C10.4062 2.68581 10.406 2.68416 10.406 2.68244C10.4064 2.64916 10.4001 2.61614 10.3876 2.58532C10.375 2.5545 10.3564 2.52651 10.3329 2.503ZM12.9902 4.73444C13.3966 4.73444 13.7939 4.61393 14.1318 4.38816C14.4697 4.16238 14.733 3.84148 14.8885 3.46603C15.044 3.09058 15.0847 2.67744 15.0055 2.27886C14.9262 1.88029 14.7305 1.51417 14.4431 1.22681C14.1558 0.939457 13.7897 0.743764 13.3911 0.664482C12.9925 0.5852 12.5794 0.62589 12.2039 0.781407C11.8285 0.936924 11.5076 1.20028 11.2818 1.53818C11.056 1.87608 10.9355 2.27333 10.9355 2.67972C10.9361 3.22447 11.1528 3.74674 11.538 4.13194C11.9232 4.51714 12.4455 4.73382 12.9902 4.73444ZM12.9902 1.12506C13.2977 1.12506 13.5983 1.21625 13.854 1.38708C14.1096 1.55792 14.3089 1.80073 14.4266 2.08482C14.5443 2.3689 14.5751 2.68151 14.5151 2.98309C14.4551 3.28468 14.307 3.5617 14.0896 3.77913C13.8721 3.99657 13.5951 4.14464 13.2935 4.20463C12.9919 4.26462 12.6793 4.23383 12.3953 4.11616C12.1112 3.99848 11.8684 3.79921 11.6975 3.54354C11.5267 3.28787 11.4355 2.98728 11.4355 2.67978C11.436 2.26759 11.5999 1.87241 11.8914 1.58094C12.1828 1.28948 12.578 1.12553 12.9902 1.12506Z" fill="#1E866F"/>
<path d="M12.2969 3.38681C12.3201 3.41003 12.3476 3.42844 12.378 3.44101C12.4083 3.45357 12.4408 3.46004 12.4737 3.46004C12.5065 3.46004 12.539 3.45357 12.5693 3.44101C12.5997 3.42844 12.6272 3.41003 12.6504 3.38681L13.004 3.03325L13.3575 3.38681C13.3807 3.41026 13.4083 3.4289 13.4387 3.44165C13.469 3.4544 13.5017 3.46102 13.5346 3.46112C13.5676 3.46122 13.6002 3.4548 13.6307 3.44224C13.6612 3.42967 13.6888 3.41121 13.7122 3.3879C13.7355 3.3646 13.7539 3.33692 13.7665 3.30645C13.7791 3.27598 13.7855 3.24333 13.7854 3.21037C13.7853 3.17741 13.7787 3.1448 13.7659 3.11441C13.7532 3.08402 13.7345 3.05645 13.7111 3.03328L13.3574 2.67972L13.711 2.32616C13.7344 2.30299 13.7531 2.27542 13.7658 2.24503C13.7786 2.21464 13.7852 2.18202 13.7853 2.14907C13.7854 2.11611 13.779 2.08345 13.7664 2.05299C13.7538 2.02252 13.7354 1.99484 13.7121 1.97153C13.6888 1.94823 13.6611 1.92976 13.6306 1.9172C13.6001 1.90463 13.5675 1.89822 13.5345 1.89832C13.5016 1.89842 13.469 1.90504 13.4386 1.91779C13.4082 1.93054 13.3806 1.94918 13.3574 1.97263L13.0039 2.32619L12.6503 1.97263C12.6032 1.92709 12.54 1.9019 12.4745 1.90247C12.4089 1.90305 12.3462 1.92935 12.2999 1.9757C12.2535 2.02206 12.2273 2.08476 12.2267 2.15031C12.2261 2.21586 12.2513 2.27901 12.2969 2.32616L12.6504 2.67972L12.2969 3.03328C12.25 3.08016 12.2237 3.14375 12.2237 3.21005C12.2237 3.27635 12.25 3.33993 12.2969 3.38681ZM4.40625 1.1875C4.40625 1.1212 4.37991 1.05761 4.33303 1.01072C4.28614 0.963839 4.22255 0.9375 4.15625 0.9375H1.1875C1.1212 0.9375 1.05761 0.963839 1.01072 1.01072C0.963839 1.05761 0.9375 1.1212 0.9375 1.1875V4.15625C0.9375 4.22255 0.963839 4.28614 1.01072 4.33303C1.05761 4.37991 1.1212 4.40625 1.1875 4.40625H4.15625C4.22255 4.40625 4.28614 4.37991 4.33303 4.33303C4.37991 4.28614 4.40625 4.22255 4.40625 4.15625V1.1875ZM3.90625 3.90625H1.4375V1.4375H3.90625V3.90625Z" fill="#1E866F"/>
</g>
<defs>
<clipPath id="clip0_8190_1600">
<rect width="16" height="16" fill="white"/>
</clipPath>
</defs>
</svg>
