<svg width="18" height="18" viewBox="0 0 18 18" fill="none" xmlns="http://www.w3.org/2000/svg">
<path d="M5.56003 9.77826C6.00038 9.77826 6.35736 9.42128 6.35736 8.98092C6.35736 8.54057 6.00038 8.18359 5.56003 8.18359C5.11967 8.18359 4.7627 8.54057 4.7627 8.98092C4.7627 9.42128 5.11967 9.77826 5.56003 9.77826Z" fill="#1E866F"/>
<path d="M8.45944 9.77826C8.89979 9.77826 9.25677 9.42128 9.25677 8.98092C9.25677 8.54057 8.89979 8.18359 8.45944 8.18359C8.01909 8.18359 7.66211 8.54057 7.66211 8.98092C7.66211 9.42128 8.01909 9.77826 8.45944 9.77826Z" fill="#1E866F"/>
<path d="M11.3569 9.77826C11.7973 9.77826 12.1542 9.42128 12.1542 8.98092C12.1542 8.54057 11.7973 8.18359 11.3569 8.18359C10.9165 8.18359 10.5596 8.54057 10.5596 8.98092C10.5596 9.42128 10.9165 9.77826 11.3569 9.77826Z" fill="#1E866F"/>
<path d="M15.1985 9.13146C15.0541 9.13146 14.9156 9.18882 14.8135 9.29093C14.7114 9.39304 14.654 9.53152 14.654 9.67592V12.3256C14.6527 12.684 14.5093 13.0273 14.2553 13.2801C14.0012 13.5329 13.6573 13.6746 13.2989 13.6741H10.4375C10.3654 13.6741 10.2941 13.6885 10.2276 13.7163C10.1612 13.7442 10.1009 13.7849 10.0503 13.8362L8.55362 15.351C8.49252 15.4145 8.43384 15.4157 8.36851 15.3486L6.87427 13.8362C6.82367 13.7849 6.7634 13.7442 6.69694 13.7163C6.63047 13.6885 6.55915 13.6741 6.4871 13.6741H3.61961C2.87612 13.6741 2.27056 13.0691 2.27056 12.3256V5.63482C2.27056 4.8877 2.87552 4.28033 3.61961 4.28033H8.61654C8.76094 4.28033 8.89942 4.22296 9.00153 4.12086C9.10364 4.01875 9.161 3.88027 9.161 3.73587C9.161 3.59147 9.10364 3.45298 9.00153 3.35087C8.89942 3.24877 8.76094 3.19141 8.61654 3.19141H3.61961C2.97246 3.19301 2.35237 3.45121 1.89534 3.90938C1.4383 4.36755 1.18164 4.98828 1.18164 5.63543V12.3268C1.18244 12.9732 1.43955 13.5928 1.89659 14.0499C2.35362 14.5069 2.97327 14.764 3.61961 14.7648H6.25963L7.59175 16.1133C7.818 16.3443 8.135 16.4774 8.46228 16.4774C8.78956 16.4774 9.10716 16.3443 9.33039 16.1157L10.6649 14.7654H13.2989C13.946 14.7654 14.5668 14.5087 15.0249 14.0517C15.4831 13.5947 15.7413 12.9746 15.7429 12.3274V9.67774C15.7431 9.53312 15.6858 9.39436 15.5837 9.29193C15.4816 9.1895 15.3431 9.13178 15.1985 9.13146Z" fill="#1E866F"/>
<path d="M17.4229 2.7657L15.625 0.967774C14.8815 0.224284 13.5851 0.224284 12.8422 0.967774L11.0437 2.76631C10.6722 3.13775 10.4678 3.632 10.4678 4.1577C10.4678 4.68341 10.6722 5.17766 11.0443 5.5491L12.8422 7.34703V7.34763C13.2137 7.71907 13.7079 7.92355 14.2336 7.92355C14.7593 7.92355 15.2536 7.71907 15.625 7.34763L17.4229 5.5491C17.7944 5.17766 17.9995 4.68341 17.9995 4.1577C17.9995 3.632 17.795 3.13775 17.4229 2.7657ZM16.6528 4.77839L14.8549 6.57692C14.5228 6.90964 13.9438 6.90843 13.6123 6.57752L11.8138 4.77839C11.732 4.6971 11.6671 4.60037 11.623 4.49383C11.5789 4.38728 11.5563 4.27303 11.5567 4.1577C11.5567 3.92237 11.648 3.70217 11.8138 3.53641L13.6123 1.73788C13.7781 1.57273 13.9989 1.48078 14.2336 1.48078C14.4683 1.48078 14.6891 1.57212 14.8549 1.73849L16.6528 3.53641C16.8186 3.70217 16.9099 3.92298 16.9099 4.1577C16.9105 4.39182 16.8192 4.61263 16.6528 4.77839Z" fill="#1E866F"/>
<path d="M14.2339 2.19531C14.1624 2.19531 14.0916 2.2094 14.0256 2.23676C13.9595 2.26412 13.8995 2.30422 13.8489 2.35478C13.7984 2.40534 13.7583 2.46536 13.7309 2.53142C13.7035 2.59747 13.6895 2.66827 13.6895 2.73977V4.03014C13.6895 4.17454 13.7468 4.31303 13.8489 4.41513C13.951 4.51724 14.0895 4.5746 14.2339 4.5746C14.3783 4.5746 14.5168 4.51724 14.6189 4.41513C14.721 4.31303 14.7784 4.17454 14.7784 4.03014V2.73977C14.7784 2.66827 14.7643 2.59747 14.7369 2.53142C14.7096 2.46536 14.6695 2.40534 14.6189 2.35478C14.5683 2.30422 14.5083 2.26412 14.4423 2.23676C14.3762 2.2094 14.3054 2.19531 14.2339 2.19531ZM14.2339 4.92306C14.0895 4.92306 13.951 4.98042 13.8489 5.08252C13.7468 5.18463 13.6895 5.32312 13.6895 5.46752V5.57641C13.6895 5.72081 13.7468 5.85929 13.8489 5.9614C13.951 6.0635 14.0895 6.12087 14.2339 6.12087C14.3783 6.12087 14.5168 6.0635 14.6189 5.9614C14.721 5.85929 14.7784 5.72081 14.7784 5.57641V5.46752C14.7784 5.32312 14.721 5.18463 14.6189 5.08252C14.5168 4.98042 14.3783 4.92306 14.2339 4.92306Z" fill="#1E866F"/>
</svg>
