<svg width="43" height="34" viewBox="0 0 43 34" fill="none" xmlns="http://www.w3.org/2000/svg">
<path d="M41.8335 5.50767L40.4458 4.11994C40.3855 4.05962 40.3139 4.01178 40.2351 3.97913C40.1563 3.94649 40.0718 3.92969 39.9865 3.92969C39.9012 3.92969 39.8167 3.94649 39.7379 3.97913C39.6591 4.01178 39.5875 4.05962 39.5272 4.11994C39.4669 4.18026 39.419 4.25187 39.3864 4.33068C39.3537 4.40949 39.3369 4.49396 39.3369 4.57926C39.3369 4.66456 39.3537 4.74903 39.3864 4.82784C39.419 4.90665 39.4669 4.97826 39.5272 5.03858L40.726 6.23085V7.82706H39.4229C38.804 7.82706 38.2958 8.33525 38.2958 8.95419V13.2672C38.2958 13.8862 38.804 14.3943 39.4229 14.3943H40.726V23.3005C40.726 23.5632 40.6216 23.8151 40.4359 24.0008C40.2502 24.1865 39.9983 24.2909 39.7357 24.2909C39.473 24.2909 39.2211 24.1865 39.0354 24.0008C38.8497 23.8151 38.7454 23.5632 38.7454 23.3005V16.9352C38.7454 15.6713 37.716 14.6419 36.452 14.6419H35.9308C35.5725 14.6419 35.2793 14.9351 35.2793 15.2934C35.2793 15.6518 35.5725 15.9449 35.9308 15.9449H36.452C36.9993 15.9449 37.4423 16.388 37.4423 16.9352V23.3005C37.4423 24.5645 38.4717 25.5939 39.7357 25.5939C40.9996 25.5939 42.029 24.5645 42.029 23.3005V5.97025C42.0224 5.7974 41.9529 5.63291 41.8335 5.50767ZM39.5923 13.1043V9.14313H40.7194V13.1043H39.5923Z" fill="#5D5B68"/>
<path d="M35.2476 0.0273438H19.9435C19.5722 0.0273438 19.2725 0.327041 19.2725 0.698404V26.6287H35.9187V0.704919C35.9187 0.333556 35.619 0.0273438 35.2476 0.0273438Z" fill="#1E866F"/>
<path opacity="0.25" d="M35.2469 0.0273438H27.0117C27.0117 1.10886 27.8847 1.98189 28.9663 1.98189H33.9634V12.0217C33.9634 13.1033 34.8364 13.9763 35.9179 13.9763V0.70492C35.9179 0.333556 35.6182 0.0273438 35.2469 0.0273438Z" fill="white" fill-opacity="0.35"/>
<path d="M33.0846 2.88672H22.1066C21.7483 2.88672 21.4551 3.1799 21.4551 3.53823V7.53202C21.4551 7.89035 21.7483 8.18354 22.1066 8.18354H33.0846C33.443 8.18354 33.7361 7.89035 33.7361 7.53202V3.53823C33.7361 3.1799 33.443 2.88672 33.0846 2.88672Z" fill="#F1F2F2"/>
<path opacity="0.1" d="M26.8757 6.77626C24.7257 6.77626 22.9861 5.03672 22.9861 2.88672H22.1066C21.7483 2.88672 21.4551 3.1799 21.4551 3.53823V7.53202C21.4551 7.89035 21.7483 8.18354 22.1066 8.18354H33.0846C33.443 8.18354 33.7361 7.89035 33.7361 7.53202V6.77626H26.8757Z" fill="black" fill-opacity="0.35"/>
<path opacity="0.1" d="M26.9408 2.8875H28.2438V8.18431H26.9408V2.8875ZM21.1814 10.6861V0.0273438H19.9435C19.5722 0.0273438 19.2725 0.327041 19.2725 0.698404V26.6287H35.9187V25.4104C27.7812 25.4169 21.1814 18.8236 21.1814 10.6861Z" fill="black"/>
<path d="M36.7198 26.6367H18.4709C17.8519 26.6367 17.3438 27.1384 17.3438 27.7638V29.6728H37.8404V27.7638C37.8404 27.1384 37.3387 26.6367 36.7198 26.6367Z" fill="#5D5B68"/>
<path opacity="0.15" d="M18.6989 28.1547V26.6367H18.4709C17.8519 26.6367 17.3438 27.1384 17.3438 27.7638V29.6728H37.8404V28.1547H18.6989Z" fill="black"/>
<path d="M29.7805 15.2601C29.7805 15.8407 29.5499 16.3975 29.1394 16.808C28.7288 17.2186 28.172 17.4492 27.5914 17.4492C27.0108 17.4492 26.454 17.2186 26.0435 16.808C25.633 16.3975 25.4023 15.8407 25.4023 15.2601C25.4023 14.0548 27.5914 10.2891 27.5914 10.2891C27.5914 10.2891 29.7805 14.0548 29.7805 15.2601Z" fill="#FFAE32"/>
<path opacity="0.1" d="M28.8296 15.9234C27.6243 15.9234 26.6405 14.9461 26.6405 13.7408C26.6405 13.1088 27.2334 11.7928 27.8002 10.6721C27.6699 10.4376 27.5852 10.3008 27.5852 10.3008C27.5852 10.3008 25.4092 14.0535 25.4092 15.2588C25.4092 16.4641 26.3865 17.4479 27.5983 17.4479C28.6472 17.4479 29.5202 16.7117 29.7287 15.7279C29.4551 15.8452 29.1489 15.9234 28.8296 15.9234Z" fill="black" fill-opacity="0.45"/>
<path d="M21.8582 21.4297H4.7624C3.2574 21.4297 2.03906 22.648 2.03906 24.153V29.1827H24.575V24.153C24.575 22.648 23.3566 21.4297 21.8582 21.4297Z" fill="#F99F19"/>
<path d="M16.3145 24.1445H10.3075C9.87753 24.1445 9.5648 24.5615 9.68207 24.972L10.1316 26.5551C10.2098 26.8353 10.4704 27.0307 10.7571 27.0307H15.865C16.1581 27.0307 16.4122 26.8353 16.4904 26.5551L16.94 24.9785C17.0572 24.5615 16.7445 24.1445 16.3145 24.1445Z" fill="#463C4B"/>
<path opacity="0.1" d="M11.6431 26.073C11.35 26.073 11.0959 25.8776 11.0177 25.5974L10.6072 24.1445H10.3075C9.87753 24.1445 9.5648 24.5615 9.68207 24.972L10.1316 26.5551C10.2098 26.8353 10.4704 27.0307 10.7571 27.0307H15.865C16.1581 27.0307 16.4122 26.8353 16.4904 26.5551L16.6272 26.0665H11.6431V26.073Z" fill="black"/>
<path d="M24.4713 29.1758H2.1439C1.89854 29.1758 1.66322 29.2733 1.48972 29.4468C1.31622 29.6203 1.21875 29.8556 1.21875 30.1009C1.21875 30.3463 1.31622 30.5816 1.48972 30.7551C1.66322 30.9286 1.89854 31.0261 2.1439 31.0261H24.4713C24.7167 31.0261 24.952 30.9286 25.1255 30.7551C25.299 30.5816 25.3965 30.3463 25.3965 30.1009C25.3965 29.8556 25.299 29.6203 25.1255 29.4468C24.952 29.2733 24.7167 29.1758 24.4713 29.1758Z" fill="#FEC200"/>
<path opacity="0.1" d="M2.33936 29.1758H2.1439C1.63572 29.1758 1.21875 29.5862 1.21875 30.1009C1.21875 30.6156 1.6292 31.0261 2.1439 31.0261H24.4713C24.9795 31.0261 25.3965 30.6156 25.3965 30.1009H3.26451C2.75633 30.1009 2.33936 29.6905 2.33936 29.1758Z" fill="black"/>
<path d="M2.20898 31.0273V32.7864C2.20898 33.438 2.73671 33.9657 3.38823 33.9657H4.89974C5.55126 33.9657 6.07898 33.438 6.07898 32.7864V31.0273H2.20898Z" fill="#5D5B68"/>
<path opacity="0.15" d="M5.89004 32.9467H4.37201C3.7205 32.9467 3.19277 32.419 3.19277 31.7675V31.0312H2.20898V32.7903C2.20898 33.4419 2.73671 33.9696 3.38823 33.9696H4.89974C5.50565 33.9696 5.99429 33.5135 6.06595 32.9272C6.01383 32.9337 5.9552 32.9467 5.89004 32.9467Z" fill="black"/>
<path d="M20.5294 31.0263V32.7853C20.5294 33.4369 21.0572 33.9646 21.7087 33.9646H23.2202C23.8717 33.9646 24.3994 33.4369 24.3994 32.7853V31.0263H20.5294ZM24.8881 17.9829C24.3538 17.6897 23.3375 18.1784 22.5361 18.68C22.725 19.4684 22.9075 20.2567 23.0964 21.0385C24.0802 20.817 25.4549 20.387 25.6373 19.7094C25.735 19.299 25.2529 18.1849 24.8881 17.9829ZM4.09172 18.68C3.28384 18.1784 2.26747 17.6897 1.73975 17.9829C1.36838 18.1849 0.892776 19.299 0.997018 19.7094C1.17293 20.387 2.55414 20.817 3.53793 21.0385C3.72035 20.2567 3.90278 19.4684 4.09172 18.68Z" fill="#5D5B68"/>
<path d="M4.76276 21.4286H21.852C22.3732 21.4286 22.8618 21.585 23.2788 21.8391C22.8162 19.9041 22.3537 17.9495 21.8911 15.9624C21.7164 15.2057 21.3004 14.5263 20.7057 14.0268C20.111 13.5273 19.37 13.2348 18.5944 13.1935C15.0762 12.998 11.545 12.998 8.02033 13.1935C7.24522 13.2362 6.50487 13.5291 5.91044 14.0284C5.316 14.5277 4.89957 15.2063 4.72366 15.9624C4.26109 17.943 3.79851 19.8976 3.33594 21.8326C3.75291 21.585 4.24154 21.4286 4.76276 21.4286Z" fill="#FAA019"/>
<path d="M6.22226 27.0012C7.1578 27.0012 7.9162 26.2428 7.9162 25.3072C7.9162 24.3717 7.1578 23.6133 6.22226 23.6133C5.28672 23.6133 4.52832 24.3717 4.52832 25.3072C4.52832 26.2428 5.28672 27.0012 6.22226 27.0012Z" fill="#D7E6F0"/>
<path d="M20.3932 27.0012C21.3287 27.0012 22.0871 26.2428 22.0871 25.3072C22.0871 24.3717 21.3287 23.6133 20.3932 23.6133C19.4576 23.6133 18.6992 24.3717 18.6992 25.3072C18.6992 26.2428 19.4576 27.0012 20.3932 27.0012Z" fill="#D7E6F0"/>
<path opacity="0.1" d="M6.95844 26.0615C6.02026 26.0615 5.2645 25.3057 5.2645 24.3676C5.2645 24.1916 5.29708 24.0223 5.3492 23.8594C5.03246 24.0501 4.78694 24.3393 4.6502 24.6828C4.51346 25.0263 4.49305 25.4052 4.59207 25.7614C4.6911 26.1176 4.90412 26.4315 5.19853 26.6552C5.49294 26.8788 5.85251 26.9998 6.22223 26.9997C6.97799 26.9997 7.61647 26.498 7.83147 25.8139C7.57738 25.9638 7.27768 26.0615 6.95844 26.0615ZM21.1289 26.0615C20.1907 26.0615 19.435 25.3057 19.435 24.3676C19.435 24.1916 19.4675 24.0223 19.5197 23.8594C19.2029 24.0501 18.9574 24.3393 18.8207 24.6828C18.6839 25.0263 18.6635 25.4052 18.7625 25.7614C18.8616 26.1176 19.0746 26.4315 19.369 26.6552C19.6634 26.8788 20.023 26.9998 20.3927 26.9997C21.1484 26.9997 21.7869 26.498 22.0019 25.8139C21.7478 25.9638 21.4481 26.0615 21.1289 26.0615Z" fill="black"/>
<path d="M20.9792 21.429C20.5883 19.7872 20.1974 18.1258 19.8065 16.4514C19.7348 16.1466 19.5668 15.873 19.3274 15.6712C19.088 15.4693 18.79 15.35 18.4774 15.3308C16.7639 15.2331 15.0244 15.1875 13.3109 15.1875C11.5974 15.1875 9.85788 15.2331 8.1444 15.3308C7.50591 15.3634 6.95864 15.826 6.81531 16.4449C6.4244 18.1193 6.03349 19.7807 5.64258 21.4225" fill="#555A6E"/>
<path d="M10.2027 18.457C9.4113 18.457 8.65232 18.7714 8.09273 19.331C7.53313 19.8906 7.21875 20.6496 7.21875 21.441H8.52178C8.52178 20.5158 9.27754 19.7601 10.2027 19.7601C11.1278 19.7601 11.8836 20.5158 11.8836 21.441H13.1866C13.1866 21.0491 13.1094 20.6611 12.9595 20.2991C12.8095 19.937 12.5897 19.6081 12.3127 19.331C12.0356 19.0539 11.7066 18.8341 11.3446 18.6842C10.9826 18.5342 10.5945 18.457 10.2027 18.457Z" fill="#AAB2BD"/>
<path opacity="0.15" d="M24.2107 32.9467H22.6992C22.0476 32.9467 21.5199 32.419 21.5199 31.7675V31.0312H20.5361V32.7903C20.5361 33.4419 21.0639 33.9696 21.7154 33.9696H23.2269C23.8328 33.9696 24.3214 33.5135 24.3931 32.9272C24.3345 32.9337 24.2758 32.9467 24.2107 32.9467Z" fill="black"/>
<path opacity="0.1" d="M21.8588 21.428C22.38 21.428 22.8687 21.5844 23.2857 21.8385L22.9143 20.2683C22.5755 20.1771 22.2302 20.125 21.8654 20.125H4.76308C4.39823 20.125 4.04641 20.1771 3.71414 20.2683L3.34277 21.8385C3.75974 21.5844 4.24186 21.428 4.76959 21.428H21.8588Z" fill="black"/>
<path opacity="0.25" d="M23.0186 20.7405C22.6472 19.1638 22.2693 17.5807 21.898 15.9714C21.7233 15.2147 21.3072 14.5353 20.7125 14.0358C20.1179 13.5363 19.3768 13.2438 18.6013 13.2025C16.7901 13.1047 14.9723 13.0526 13.1611 13.0591C13.1611 13.7758 13.7345 14.3557 14.4511 14.3687C15.8193 14.3817 17.2005 14.4338 18.5557 14.5055C19.5655 14.5576 20.432 15.2873 20.6601 16.2711C20.9337 17.4504 21.2073 18.6166 21.481 19.7763C21.6243 20.3757 22.1586 20.7796 22.7449 20.7796C22.8296 20.7731 22.9208 20.76 23.0186 20.7405Z" fill="white"/>
</svg>
