<svg width="10" height="14" viewBox="0 0 10 14" fill="none" xmlns="http://www.w3.org/2000/svg">
<path d="M6.9775 9.7175C8.1875 8.105 9.5625 5.965 9.5625 4.5625C9.5625 3.35245 9.08181 2.19196 8.22617 1.33633C7.37054 0.480691 6.21005 0 5 0C3.78995 0 2.62946 0.480691 1.77383 1.33633C0.91819 2.19196 0.4375 3.35245 0.4375 4.5625C0.4375 5.965 1.8125 8.105 3.0225 9.7175C1.42 10.0825 0.4375 10.85 0.4375 11.75C0.4375 13.0125 2.4425 14 5 14C7.5575 14 9.5625 13.0125 9.5625 11.75C9.5625 10.8625 8.5575 10.08 6.9775 9.7175ZM0.9375 4.5625C0.9375 3.48506 1.36551 2.45175 2.12738 1.68988C2.88925 0.928012 3.92256 0.5 5 0.5C6.07744 0.5 7.11075 0.928012 7.87262 1.68988C8.63449 2.45175 9.0625 3.48506 9.0625 4.5625C9.0625 6.545 5.82 10.4225 5 11.37C4.18 10.4225 0.9375 6.5475 0.9375 4.5625ZM5 13.5C0.90625 13.495 -0.81375 11.0513 3.3575 10.1575C4.12 11.1375 4.7475 11.8425 4.815 11.9175C4.83843 11.9433 4.86699 11.9639 4.89885 11.978C4.93071 11.9921 4.96516 11.9993 5 11.9993C5.03484 11.9993 5.06929 11.9921 5.10115 11.978C5.13301 11.9639 5.16157 11.9433 5.185 11.9175C5.2525 11.8425 5.88 11.1375 6.6425 10.1575C10.8135 11.0513 9.094 13.495 5 13.5Z" fill="#707070"/>
<path d="M5.00016 7.95343C4.08697 7.95243 3.21147 7.58925 2.56572 6.94355C1.91997 6.29785 1.55672 5.42237 1.55566 4.50918C1.74491 -0.0603242 8.25616 -0.0590744 8.44466 4.50918C8.44361 5.42237 8.08036 6.29785 7.43461 6.94355C6.78886 7.58925 5.91335 7.95243 5.00016 7.95343ZM5.00016 1.56468C4.2195 1.56554 3.47105 1.87604 2.91904 2.42805C2.36702 2.98006 2.05652 3.72851 2.05566 4.50918C2.21741 8.41518 7.78341 8.41418 7.94466 4.50918C7.9438 3.72851 7.6333 2.98006 7.08129 2.42805C6.52928 1.87604 5.78083 1.56554 5.00016 1.56468Z" fill="#707070"/>
</svg>
