<svg width="16" height="16" viewBox="0 0 16 16" fill="none" xmlns="http://www.w3.org/2000/svg">
<path d="M12.7753 1.79703H12.1438V1.73003C12.1438 1.61068 12.0964 1.49622 12.012 1.41183C11.9276 1.32744 11.8132 1.28003 11.6938 1.28003C11.5745 1.28003 11.46 1.32744 11.3756 1.41183C11.2912 1.49622 11.2438 1.61068 11.2438 1.73003V1.79703H4.7558V1.73003C4.7558 1.61068 4.70839 1.49622 4.624 1.41183C4.53961 1.32744 4.42515 1.28003 4.3058 1.28003C4.18646 1.28003 4.072 1.32744 3.98761 1.41183C3.90322 1.49622 3.8558 1.61068 3.8558 1.73003V1.79703H3.2243C2.6485 1.79716 2.09624 2.02561 1.68861 2.4323C1.28099 2.83899 1.05126 3.39072 1.0498 3.96653V12.5455C1.05047 13.1221 1.27976 13.6748 1.6874 14.0826C2.09504 14.4903 2.64775 14.7197 3.2243 14.7205H12.7798C13.3551 14.7199 13.9067 14.491 14.3135 14.0842C14.7203 13.6774 14.9491 13.1258 14.9498 12.5505V3.96653C14.9483 3.39072 14.7186 2.83899 14.311 2.4323C13.9034 2.02561 13.3511 1.79716 12.7753 1.79703ZM3.2243 2.69703H3.8558V2.75803C3.8558 2.87738 3.90322 2.99184 3.98761 3.07623C4.072 3.16062 4.18646 3.20803 4.3058 3.20803C4.42515 3.20803 4.53961 3.16062 4.624 3.07623C4.70839 2.99184 4.7558 2.87738 4.7558 2.75803V2.69703H11.2438V2.75803C11.2438 2.87738 11.2912 2.99184 11.3756 3.07623C11.46 3.16062 11.5745 3.20803 11.6938 3.20803C11.8132 3.20803 11.9276 3.16062 12.012 3.07623C12.0964 2.99184 12.1438 2.87738 12.1438 2.75803V2.69703H12.7753C13.1126 2.69676 13.4363 2.83034 13.6752 3.06844C13.9142 3.30654 14.0489 3.62971 14.0498 3.96703V5.15803H1.9498V3.96653C1.9498 3.26653 2.5213 2.69703 3.2243 2.69703ZM12.7803 13.82H3.2243C2.88641 13.8196 2.56246 13.6852 2.32354 13.4463C2.08461 13.2074 1.9502 12.8834 1.9498 12.5455V6.05753H14.0498V12.55C14.0495 12.8867 13.9157 13.2095 13.6777 13.4476C13.4397 13.6857 13.117 13.8196 12.7803 13.82Z" fill="#1E866F"/>
<path d="M9.83125 9.48901H6.16875C6.0494 9.48901 5.93494 9.53642 5.85055 9.62082C5.76616 9.70521 5.71875 9.81967 5.71875 9.93901C5.71875 10.0584 5.76616 10.1728 5.85055 10.2572C5.93494 10.3416 6.0494 10.389 6.16875 10.389H9.83125C9.9506 10.389 10.0651 10.3416 10.1494 10.2572C10.2338 10.1728 10.2812 10.0584 10.2812 9.93901C10.2812 9.81967 10.2338 9.70521 10.1494 9.62082C10.0651 9.53642 9.9506 9.48901 9.83125 9.48901Z" fill="#1E866F"/>
</svg>
