<svg width="62" height="62" viewBox="0 0 62 62" fill="none" xmlns="http://www.w3.org/2000/svg">
<path d="M42.9517 45.2328H36.7827M42.2998 50.4843H36.7827M41.6479 55.7479H36.7827M36.5171 12.0819L40.2837 15.8485L45.7887 10.3435M25.833 18.2509L22.8149 20.0014M24.2998 12.5165H20.8109M25.833 6.77003L22.8149 5.01953M55.9658 18.2509L58.9839 20.0014M57.5111 12.5165H61M55.9658 6.77003L58.9839 5.01953M11.5513 58.1503V40.9712C11.5513 40.09 10.839 39.3777 9.95775 39.3777H2.59356C1.71227 39.3777 1 40.09 1 40.9712V58.1503C1 59.0316 1.71227 59.7439 2.59356 59.7439H9.96982C10.8511 59.7439 11.5513 59.0316 11.5513 58.1503Z" stroke="#1E866F" stroke-width="2" stroke-miterlimit="10" stroke-linecap="round" stroke-linejoin="round"/>
<path d="M29.8172 61H41.5757C43.0003 61 44.2196 59.8893 44.2679 58.4648C44.3162 56.9678 43.121 55.7485 41.6361 55.7485H42.2156C43.6401 55.7485 44.8594 54.6378 44.9077 53.2133C44.956 51.7163 43.7608 50.497 42.2759 50.497H42.8554C44.2799 50.497 45.4993 49.3863 45.5475 47.9618C45.5958 46.4648 44.4007 45.2455 42.9158 45.2455C44.3524 45.2455 45.5596 44.1227 45.5958 42.6861C45.6321 41.2012 44.449 39.994 42.964 39.994H32.618C31.459 39.994 30.6139 38.8833 30.9158 37.7606L32.3282 32.6056C33.2578 29.7203 32.1954 27.9819 30.9278 26.9678C29.7689 26.0262 28.0304 26.4728 27.463 27.8612L25.7005 32.2314C25.29 33.2455 24.5415 34.0905 23.5878 34.6459C21.2699 36.0101 19.4228 38.2435 18.6019 39.3421C18.2276 39.837 17.7327 40.2354 17.1653 40.4889C15.9097 41.0443 14.5576 41.3219 13.1814 41.3219H11.4912V57.8008H14.1471C14.7387 57.8008 15.294 58.0181 15.7407 58.4044C17.9258 60.2877 20.4369 61 23.2377 61H25.5194M52.2236 10.4044C51.2337 5.05634 46.5375 1 40.8997 1C34.5375 1 29.3826 6.15493 29.3826 12.5171C29.3826 18.8793 34.5375 24.0342 40.8997 24.0342C46.5375 24.0342 51.2216 19.9779 52.2236 14.6298" stroke="#1E866F" stroke-width="2" stroke-miterlimit="10" stroke-linecap="round" stroke-linejoin="round"/>
</svg>
