<svg width="24" height="24" viewBox="0 0 24 24" fill="none" xmlns="http://www.w3.org/2000/svg">
<path d="M9.44116 0.815625L8.75034 2.04375L9.9205 2.7C8.07362 3.15937 6.38183 4.12969 5.02839 5.52656C3.16272 7.44844 2.13824 9.98438 2.13824 12.6609C2.13824 12.9422 2.15234 13.2281 2.17114 13.5094C2.57059 13.1063 3.03583 12.7828 3.55277 12.5438C3.58097 10.2797 4.46446 8.1375 6.04347 6.50625C7.23713 5.27344 8.73624 4.42969 10.3716 4.04062L9.28608 5.34844L10.3716 6.24844L13.1631 2.89687L9.44116 0.815625ZM22.6983 11.8781H21.279C21.2978 12.1219 21.3072 12.3656 21.3072 12.6141C21.3072 14.7422 20.5412 16.8 19.1455 18.4078C18.1445 19.5609 16.871 20.4281 15.4564 20.9437L16.3869 19.4906L15.198 18.7313L12.8482 22.4016L16.8005 24.0047L17.3315 22.6969L16.1097 22.2C17.6934 21.5953 19.1032 20.6062 20.2123 19.3266C21.8289 17.4656 22.7171 15.0797 22.7171 12.6094C22.7265 12.3656 22.7171 12.1219 22.6983 11.8781ZM7.97024 18.9328C8.46838 18.3609 8.77384 17.6109 8.77384 16.7906C8.77384 14.9906 7.30762 13.5281 5.50303 13.5281C3.69845 13.5281 2.23223 14.9906 2.23223 16.7906C2.23223 17.6109 2.53769 18.3609 3.04053 18.9328C1.26415 19.5937 0 21.2953 0 23.2922V23.9953H11.0202V23.2922C11.0202 21.2953 9.74662 19.5844 7.97024 18.9328ZM20.9548 5.40469C21.4529 4.82813 21.7584 4.08281 21.7584 3.2625C21.7584 1.4625 20.2874 0 18.4876 0C16.6877 0 15.2168 1.4625 15.2168 3.2625C15.2168 4.08281 15.5222 4.83281 16.0251 5.40469C14.2534 6.06094 12.9845 7.76719 12.9845 9.75937V10.4625H24.0047V9.75937C24 7.76719 22.7312 6.05625 20.9548 5.40469Z" fill="#666666"/>
</svg>
