<svg width="20" height="20" viewBox="0 0 20 20" fill="none" xmlns="http://www.w3.org/2000/svg">
<path d="M2.08133 19.345H13.528C14.3144 19.345 14.9541 18.7096 14.9541 17.929V14.6768L19.1877 7.90047C19.2603 7.78504 19.3092 7.65627 19.3315 7.52172C19.3537 7.38716 19.349 7.24952 19.3174 7.11684C19.2866 6.98397 19.2296 6.85858 19.1497 6.74801C19.0698 6.63744 18.9687 6.54391 18.8522 6.4729L17.8144 5.83563C17.5793 5.69212 17.2972 5.64699 17.0291 5.71C16.761 5.77302 16.5285 5.9391 16.3819 6.17229L14.9541 8.45926V4.58169C14.9541 3.80108 14.3144 3.16593 13.528 3.16593H11.3989V3.00441C11.3987 2.77785 11.3086 2.56063 11.1484 2.40042C10.9881 2.24022 10.7709 2.15011 10.5444 2.14987H9.99103C9.7577 2.14987 9.55133 2.00865 9.46588 1.78987C9.11618 0.895321 8.15043 0.447442 7.21921 0.746836C6.7283 0.904715 6.33588 1.28017 6.14285 1.77653C6.05497 2.0032 5.84649 2.14987 5.61224 2.14987H5.0577C4.83242 2.15011 4.61643 2.23971 4.45714 2.399C4.29784 2.5583 4.20824 2.77428 4.208 2.99956V3.16593H2.08133C1.29497 3.16593 0.655273 3.80108 0.655273 4.58169V17.929C0.655273 18.7096 1.29497 19.345 2.08133 19.345ZM13.9577 14.7874L12.4662 15.5468L12.4874 13.8853L13.9577 14.7874ZM16.0304 7.80411L17.8729 8.93472L14.4456 14.422L12.6022 13.2908L16.0304 7.80411ZM16.8622 6.47199C16.9294 6.36527 17.0358 6.28926 17.1585 6.26039C17.2812 6.23153 17.4104 6.25213 17.518 6.31775L18.5559 6.95502C18.6625 7.02078 18.7371 7.12411 18.7659 7.24593C18.7802 7.3059 18.7824 7.36811 18.7723 7.42894C18.7623 7.48977 18.7402 7.54798 18.7074 7.60017L18.1744 8.4529L16.3304 7.3229L16.8622 6.47199ZM5.0577 2.71623H5.61255C6.08224 2.71623 6.4977 2.42775 6.67133 1.98168C6.80194 1.64532 7.06527 1.39168 7.39315 1.28623C8.12467 1.05078 8.73558 1.47623 8.93861 1.99593C9.02045 2.2085 9.16494 2.3912 9.35293 2.51983C9.54092 2.64846 9.76355 2.71695 9.99133 2.71623H10.5444C10.7032 2.71623 10.8322 2.84562 10.8322 3.00441L10.8298 4.22502L4.77618 4.23078L4.77436 2.99956C4.77436 2.8435 4.90164 2.71623 5.0577 2.71623ZM1.22133 4.58169C1.22133 4.1132 1.60709 3.73229 2.08133 3.73229H4.208V4.23169C4.208 4.54411 4.46194 4.79835 4.77467 4.79835H10.8298C11.1056 4.79835 11.3359 4.60138 11.3874 4.34078C11.3953 4.30411 11.3995 4.26775 11.3995 4.23078V3.73229H13.528C14.0019 3.73229 14.3877 4.1132 14.3877 4.58169V9.3635L11.9704 13.2332L11.9701 13.2344C11.9488 13.2701 11.9357 13.31 11.9316 13.3514C11.9307 13.3605 11.9277 13.3696 11.9277 13.3793L11.8938 16.0087C11.8931 16.0574 11.9051 16.1055 11.9285 16.1483C11.9519 16.1911 11.986 16.2271 12.0274 16.2528C12.0689 16.2786 12.1163 16.2932 12.165 16.2952C12.2137 16.2972 12.2621 16.2866 12.3056 16.2644L14.3877 15.2044V17.9287C14.3877 18.3974 14.0019 18.7784 13.528 18.7784H2.08133C1.60709 18.7784 1.22164 18.3974 1.22164 17.929L1.22133 4.58169Z" fill="#242424"/>
<path d="M7.80288 3.73943C8.27469 3.73943 8.65803 3.35822 8.65803 2.88974C8.65803 2.42125 8.27469 2.04004 7.80318 2.04004C7.33197 2.04004 6.94863 2.42125 6.94863 2.88974C6.94863 3.35822 7.33166 3.73943 7.80288 3.73943ZM7.80288 2.6061C7.96227 2.6061 8.09166 2.73337 8.09166 2.88974C8.09086 2.96553 8.06005 3.03791 8.00597 3.09102C7.9519 3.14413 7.87897 3.17364 7.80318 3.17307C7.72741 3.17363 7.65452 3.14412 7.60049 3.091C7.54646 3.03788 7.51572 2.9655 7.515 2.88974C7.515 2.73337 7.64409 2.6061 7.80288 2.6061ZM6.68469 6.78852H12.4595C12.5347 6.78852 12.6068 6.75867 12.6599 6.70554C12.713 6.6524 12.7429 6.58034 12.7429 6.50519C12.7429 6.43005 12.713 6.35798 12.6599 6.30484C12.6068 6.25171 12.5347 6.22186 12.4595 6.22186H6.68439C6.60925 6.22186 6.53718 6.25171 6.48404 6.30484C6.43091 6.35798 6.40106 6.43005 6.40106 6.50519C6.40106 6.58034 6.43091 6.6524 6.48404 6.70554C6.53718 6.75867 6.60955 6.78852 6.68469 6.78852ZM6.68469 8.42974H10.5756C10.6507 8.42974 10.7228 8.39989 10.776 8.34675C10.8291 8.29361 10.8589 8.22155 10.8589 8.1464C10.8589 8.07126 10.8291 7.99919 10.776 7.94606C10.7228 7.89292 10.6507 7.86307 10.5756 7.86307H6.68439C6.60925 7.86307 6.53718 7.89292 6.48404 7.94606C6.43091 7.99919 6.40106 8.07126 6.40106 8.1464C6.40106 8.22155 6.43091 8.29361 6.48404 8.34675C6.53718 8.39989 6.60955 8.42974 6.68469 8.42974ZM6.68469 11.1109H12.4595C12.5347 11.1109 12.6068 11.0811 12.6599 11.028C12.713 10.9748 12.7429 10.9028 12.7429 10.8276C12.7429 10.7525 12.713 10.6804 12.6599 10.6273C12.6068 10.5741 12.5347 10.5443 12.4595 10.5443H6.68439C6.60925 10.5443 6.53718 10.5741 6.48404 10.6273C6.43091 10.6804 6.40106 10.7525 6.40106 10.8276C6.40106 10.9028 6.43091 10.9748 6.48404 11.028C6.53718 11.0811 6.60955 11.1109 6.68469 11.1109ZM6.68469 12.7522H10.5756C10.6507 12.7522 10.7228 12.7223 10.776 12.6692C10.8291 12.616 10.8589 12.544 10.8589 12.4688C10.8589 12.3937 10.8291 12.3216 10.776 12.2685C10.7228 12.2153 10.6507 12.1855 10.5756 12.1855H6.68439C6.60925 12.1855 6.53718 12.2153 6.48404 12.2685C6.43091 12.3216 6.40106 12.3937 6.40106 12.4688C6.40106 12.544 6.43091 12.616 6.48404 12.6692C6.53718 12.7223 6.60955 12.7522 6.68469 12.7522ZM6.68469 15.4334H10.5756C10.6507 15.4334 10.7228 15.4035 10.776 15.3504C10.8291 15.2973 10.8589 15.2252 10.8589 15.15C10.8589 15.0749 10.8291 15.0028 10.776 14.9497C10.7228 14.8966 10.6507 14.8667 10.5756 14.8667H6.68439C6.60925 14.8667 6.53718 14.8966 6.48404 14.9497C6.43091 15.0028 6.40106 15.0749 6.40106 15.15C6.40106 15.2252 6.43091 15.2973 6.48404 15.3504C6.53718 15.4035 6.60955 15.4334 6.68469 15.4334ZM6.68469 17.0746H9.30651C9.38166 17.0746 9.45372 17.0447 9.50686 16.9916C9.55999 16.9385 9.58985 16.8664 9.58985 16.7913C9.58985 16.7161 9.55999 16.644 9.50686 16.5909C9.45372 16.5378 9.38166 16.5079 9.30651 16.5079H6.68469C6.60955 16.5079 6.53748 16.5378 6.48435 16.5909C6.43121 16.644 6.40136 16.7161 6.40136 16.7913C6.40136 16.8664 6.43121 16.9385 6.48435 16.9916C6.53748 17.0447 6.60955 17.0746 6.68469 17.0746ZM2.83136 8.31095C2.8533 8.34161 2.88113 8.36758 2.91323 8.38735C2.94533 8.40711 2.98105 8.42027 3.01831 8.42606C3.05556 8.43184 3.09359 8.43014 3.13017 8.42104C3.16676 8.41194 3.20116 8.39563 3.23136 8.37307L5.28409 6.8361C5.31383 6.81381 5.3389 6.78589 5.35785 6.75392C5.37681 6.72195 5.38928 6.68655 5.39455 6.64976C5.39983 6.61297 5.39781 6.5755 5.3886 6.53949C5.3794 6.50348 5.36319 6.46963 5.34091 6.43989C5.31862 6.41014 5.2907 6.38508 5.25872 6.36612C5.22675 6.34717 5.19136 6.3347 5.15457 6.32942C5.11778 6.32414 5.0803 6.32617 5.04429 6.33537C5.00828 6.34458 4.97444 6.36078 4.94469 6.38307L3.12409 7.7461L2.72106 7.18186C2.67603 7.12449 2.61061 7.08669 2.53841 7.07633C2.46622 7.06597 2.39281 7.08386 2.33347 7.12626C2.27412 7.16866 2.23341 7.23231 2.21981 7.30396C2.20621 7.37561 2.22077 7.44975 2.26045 7.51095L2.83136 8.31095ZM2.83136 12.4485C2.85332 12.4792 2.88117 12.5051 2.91327 12.5248C2.94537 12.5446 2.98109 12.5577 3.01833 12.5635C3.05557 12.5693 3.09359 12.5676 3.13016 12.5585C3.16674 12.5494 3.20114 12.5332 3.23136 12.5106L5.28409 10.974C5.31385 10.9517 5.33894 10.9238 5.35791 10.8918C5.37688 10.8598 5.38937 10.8244 5.39466 10.7876C5.39995 10.7508 5.39794 10.7133 5.38874 10.6773C5.37955 10.6412 5.36334 10.6074 5.34106 10.5776C5.31877 10.5478 5.29084 10.5228 5.25886 10.5038C5.22688 10.4848 5.19148 10.4723 5.15467 10.467C5.11787 10.4618 5.08038 10.4638 5.04435 10.473C5.00832 10.4822 4.97446 10.4984 4.94469 10.5206L3.12409 11.8837L2.72106 11.32C2.67603 11.2627 2.61061 11.2249 2.53841 11.2145C2.46622 11.2042 2.39281 11.222 2.33347 11.2644C2.27412 11.3068 2.23341 11.3705 2.21981 11.4421C2.20621 11.5138 2.22077 11.5879 2.26045 11.6491L2.83136 12.4485ZM5.0756 14.6855C5.02267 14.6322 4.95077 14.6021 4.87568 14.6018C4.80058 14.6014 4.72841 14.6309 4.675 14.6837L3.80257 15.5482L2.93045 14.6837C2.90422 14.6566 2.87286 14.635 2.83819 14.6202C2.80352 14.6054 2.76625 14.5977 2.72855 14.5975C2.69086 14.5973 2.6535 14.6046 2.61867 14.619C2.58383 14.6334 2.55222 14.6546 2.52569 14.6814C2.49916 14.7082 2.47823 14.74 2.46415 14.7749C2.45006 14.8099 2.44309 14.8473 2.44364 14.885C2.4442 14.9227 2.45227 14.9599 2.46738 14.9944C2.4825 15.029 2.50435 15.0601 2.53166 15.0861L3.40015 15.947L2.53166 16.8076C2.47826 16.8605 2.44805 16.9324 2.44768 17.0076C2.44731 17.0827 2.47681 17.155 2.52969 17.2084C2.58258 17.2618 2.65451 17.292 2.72966 17.2924C2.80482 17.2927 2.87705 17.2632 2.93045 17.2103L3.80257 16.3458L4.675 17.2103C4.70142 17.2365 4.73274 17.2573 4.76718 17.2713C4.80161 17.2854 4.83848 17.2926 4.87568 17.2924C4.91288 17.2922 4.94968 17.2847 4.98398 17.2703C5.01829 17.256 5.04942 17.2349 5.0756 17.2085C5.10179 17.1821 5.12251 17.1508 5.13659 17.1163C5.15067 17.0819 5.15783 17.045 5.15766 17.0078C5.15749 16.9706 5.15 16.9338 5.13561 16.8995C5.12122 16.8652 5.10021 16.8341 5.07378 16.8079L4.205 15.947L5.07378 15.0864C5.10025 15.0602 5.12129 15.0291 5.1357 14.9947C5.15011 14.9604 5.15762 14.9236 5.15779 14.8863C5.15796 14.8491 5.15079 14.8122 5.13668 14.7777C5.12258 14.7433 5.10183 14.7119 5.0756 14.6855Z" fill="#242424"/>
</svg>
