<svg width="20" height="20" viewBox="0 0 20 20" fill="none" xmlns="http://www.w3.org/2000/svg">
<g clip-path="url(#clip0_8534_977)">
<path d="M19.3333 11H16V2C15.9995 1.46973 15.7886 0.961329 15.4136 0.586371C15.0387 0.211413 14.5303 0.000529477 14 0L2.66667 0C2.13623 0 1.62753 0.210714 1.25245 0.585786C0.87738 0.960859 0.666667 1.46957 0.666667 2V6C0.666667 6.26522 0.772024 6.51957 0.95956 6.70711C1.1471 6.89464 1.40145 7 1.66667 7H4V11H0.666667C0.489856 11 0.320286 11.0702 0.195262 11.1953C0.0702379 11.3203 0 11.4899 0 11.6667L0 16.6667C0 16.8435 0.0702379 17.013 0.195262 17.1381C0.320286 17.2631 0.489856 17.3333 0.666667 17.3333H4.15667C4.30889 17.3333 4.45908 17.2985 4.59582 17.2316C4.73255 17.1647 4.8522 17.0675 4.94567 16.9473C6.18467 17.4187 7.022 18.454 7.828 19.465L7.93767 19.6027C8.12084 19.8243 8.38402 19.9647 8.67009 19.9935C8.95616 20.0222 9.24203 19.937 9.46567 19.7563C9.62362 19.629 9.74182 19.459 9.80633 19.2667C9.98034 19.325 10.1663 19.3386 10.3469 19.306C10.5275 19.2734 10.697 19.1958 10.8397 19.0803C11.0261 18.9313 11.155 18.7222 11.2043 18.4887C11.2377 18.495 11.271 18.5 11.3043 18.5037C11.5873 18.533 11.8705 18.4502 12.093 18.273C12.3155 18.0958 12.4596 17.8383 12.4943 17.556C12.7731 17.5788 13.0501 17.494 13.2683 17.319C13.4332 17.1828 13.554 17.0008 13.6153 16.796C13.8251 16.7273 14.0251 16.6571 14.2153 16.5853C14.2709 16.7987 14.3954 16.9877 14.5695 17.123C14.7436 17.2583 14.9575 17.3322 15.178 17.3333H19.3333C19.5101 17.3333 19.6797 17.2631 19.8047 17.1381C19.9298 17.013 20 16.8435 20 16.6667V11.6667C20 11.4899 19.9298 11.3203 19.8047 11.1953C19.6797 11.0702 19.5101 11 19.3333 11ZM1.66667 6.33333C1.57826 6.33333 1.49348 6.29821 1.43096 6.2357C1.36845 6.17319 1.33333 6.08841 1.33333 6V2C1.33357 1.81418 1.37252 1.63044 1.44771 1.46051C1.52289 1.29057 1.63265 1.13816 1.77 1.013C2.01469 0.78888 2.33485 0.665216 2.66667 0.666667C2.71067 0.666667 2.75533 0.668667 2.8 0.673C3.13718 0.717936 3.44598 0.885563 3.66736 1.14384C3.88874 1.40211 4.00716 1.73291 4 2.073V6.33333H1.66667ZM4.489 16.3707C4.47978 16.4525 4.44064 16.5279 4.37909 16.5826C4.31755 16.6372 4.23797 16.6672 4.15567 16.6667H0.666667V11.6667H4.669C4.71594 11.6667 4.76234 11.6766 4.80516 11.6958C4.84799 11.715 4.88628 11.7431 4.91753 11.7781C4.94878 11.8131 4.97228 11.8543 4.98649 11.8991C5.0007 11.9438 5.0053 11.991 5 12.0377L4.489 16.3707ZM12.8463 16.8C12.7601 16.8697 12.6498 16.9025 12.5395 16.8913C12.4292 16.8801 12.3277 16.8257 12.2573 16.74C12.2137 16.687 12.1549 16.6488 12.0887 16.6306C12.0226 16.6123 11.9525 16.6149 11.8879 16.638C11.8233 16.661 11.7674 16.7035 11.7278 16.7595C11.6882 16.8155 11.6668 16.8824 11.6667 16.951C11.6666 17.0272 11.693 17.1011 11.7413 17.16C11.811 17.2464 11.8436 17.3568 11.8319 17.4671C11.8203 17.5775 11.7654 17.6787 11.6793 17.7487C11.6369 17.7838 11.5879 17.81 11.5352 17.8257C11.4824 17.8415 11.427 17.8464 11.3723 17.8403C11.2697 17.8314 11.1743 17.7838 11.1057 17.707L11.0127 17.5737C10.9882 17.5374 10.9567 17.5063 10.9202 17.4822C10.8837 17.4581 10.8428 17.4414 10.7998 17.4331C10.7568 17.4248 10.7126 17.425 10.6697 17.4338C10.6268 17.4425 10.5861 17.4597 10.5498 17.4842C10.5136 17.5087 10.4825 17.5401 10.4584 17.5766C10.4342 17.6131 10.4175 17.6541 10.4092 17.697C10.4009 17.74 10.4012 17.7842 10.4099 17.8271C10.4187 17.87 10.4358 17.9107 10.4603 17.947C10.5312 18.0365 10.5662 18.1491 10.5586 18.263C10.551 18.3769 10.5012 18.4838 10.419 18.563C10.3764 18.5983 10.3272 18.6246 10.2742 18.6404C10.2212 18.6562 10.1656 18.6612 10.1107 18.655C10.0041 18.6451 9.90567 18.5935 9.837 18.5113L9.62667 18.238C9.6004 18.203 9.5675 18.1735 9.52983 18.1512C9.49216 18.1289 9.45047 18.1142 9.40714 18.108C9.36381 18.1018 9.31968 18.1042 9.27727 18.1151C9.23487 18.126 9.19502 18.1451 9.16 18.1713C9.12498 18.1976 9.09548 18.2305 9.07318 18.2682C9.05087 18.3058 9.03621 18.3475 9.03002 18.3909C9.02383 18.4342 9.02623 18.4783 9.0371 18.5207C9.04796 18.5631 9.06707 18.603 9.09333 18.638C9.16606 18.7242 9.20179 18.8356 9.19274 18.948C9.18368 19.0603 9.13058 19.1646 9.045 19.238C8.95893 19.3076 8.84901 19.3406 8.73884 19.3301C8.62866 19.3196 8.527 19.2663 8.45567 19.1817L8.34933 19.0483C7.48267 17.9613 6.58033 16.8483 5.16633 16.318L5.661 12.1153C5.66333 12.097 5.661 12.079 5.661 12.061C5.88303 12.022 6.10792 12.0016 6.33333 12C6.74033 12 7.218 12.031 7.608 12.0637L6.85933 12.7333C6.73657 12.845 6.63736 12.9801 6.56753 13.1306C6.4977 13.2812 6.45865 13.4442 6.45269 13.61C6.44673 13.7759 6.47397 13.9413 6.53281 14.0964C6.59165 14.2516 6.68091 14.3935 6.79533 14.5137C7.02274 14.7389 7.32766 14.8686 7.64762 14.8763C7.96758 14.884 8.27837 14.769 8.51633 14.555L9.583 13.568C9.64032 13.5138 9.7152 13.482 9.79401 13.4784C9.87282 13.4748 9.9503 13.4996 10.0123 13.5483C11.06 14.3544 12.0332 15.253 12.92 16.2333C12.9799 16.3112 13.0068 16.4095 12.995 16.507C12.9908 16.5632 12.9754 16.6181 12.9499 16.6683C12.9244 16.7186 12.8892 16.7634 12.8463 16.8ZM13.5957 16.1C13.5575 15.9895 13.4994 15.8869 13.4243 15.7973C12.5094 14.7851 11.5054 13.8572 10.4243 13.0247C10.2377 12.8779 10.0048 12.8028 9.76759 12.813C9.53042 12.8231 9.30471 12.9178 9.13133 13.08L8.062 14.0667C7.9517 14.1632 7.80909 14.2148 7.66253 14.211C7.51597 14.2072 7.3762 14.1484 7.271 14.0463C7.16777 13.9336 7.11316 13.7848 7.11903 13.6321C7.12489 13.4793 7.19076 13.3351 7.30233 13.2307L8.84033 11.854C8.94517 11.7597 9.07489 11.6975 9.21405 11.6748C9.35322 11.6521 9.49597 11.6699 9.62533 11.726C10.9079 12.2786 12.3118 12.4889 13.7 12.3363L14.1203 15.9063C13.9537 15.9717 13.7797 16.0357 13.5957 16.1ZM13.9193 11.337C13.8351 11.433 13.7703 11.5444 13.7283 11.665C12.4209 11.8267 11.094 11.6365 9.88467 11.114C9.63901 11.0085 9.36827 10.9755 9.10446 11.019C8.84065 11.0625 8.59481 11.1806 8.396 11.3593L8.28467 11.4593C7.92967 11.4193 7.04533 11.3333 6.33333 11.3333C6.0453 11.3358 5.7581 11.3647 5.47533 11.4197C5.45681 11.3907 5.43678 11.3628 5.41533 11.336C5.32167 11.2305 5.20675 11.1461 5.07812 11.0881C4.94949 11.0302 4.81006 11.0002 4.669 11H4.66667V2.07167C4.66685 1.55384 4.47709 1.05393 4.13333 0.666667H14C14.3536 0.666667 14.6928 0.807142 14.9428 1.05719C15.1929 1.30724 15.3333 1.64638 15.3333 2V11H14.6667C14.5255 11 14.3859 11.0298 14.2571 11.0876C14.1283 11.1454 14.0132 11.2299 13.9193 11.3353V11.337ZM19.3333 16.6667H15.178C15.0957 16.6672 15.0162 16.6373 14.9547 16.5827C14.8931 16.5281 14.854 16.4527 14.8447 16.371L14.3347 12.0377C14.3294 11.9909 14.334 11.9436 14.3483 11.8988C14.3625 11.854 14.3861 11.8128 14.4175 11.7777C14.4488 11.7427 14.4872 11.7147 14.5302 11.6955C14.5731 11.6764 14.6196 11.6666 14.6667 11.6667H19.3333V16.6667Z" fill="#242424"/>
<path d="M14.0003 9.66634C12.4067 9.66634 12.3363 8.76634 12.3337 8.66634C12.3337 8.58513 12.304 8.5067 12.2503 8.44581C12.1965 8.38491 12.1224 8.34573 12.0418 8.33562C11.9612 8.32551 11.8797 8.34517 11.8126 8.39091C11.7455 8.43664 11.6974 8.50531 11.6773 8.58401C11.667 8.62834 11.3833 9.66634 10.3337 9.66634C10.1971 9.66282 10.0616 9.64198 9.93033 9.60434C10.2086 9.24038 10.3512 8.7908 10.3337 8.33301C10.3337 8.06779 10.2283 7.81344 10.0408 7.6259C9.85323 7.43836 9.59888 7.33301 9.33366 7.33301C9.06844 7.33301 8.81409 7.43836 8.62655 7.6259C8.43902 7.81344 8.33366 8.06779 8.33366 8.33301C8.31625 8.79135 8.45924 9.24142 8.73799 9.60568C8.60627 9.64265 8.47044 9.66303 8.33366 9.66634C8.05779 9.68059 7.7859 9.59583 7.56699 9.42734C7.50302 9.37105 7.41991 9.3414 7.33475 9.34448C7.24959 9.34756 7.16884 9.38314 7.1091 9.4439C7.04936 9.50467 7.01516 9.58601 7.01353 9.67121C7.01189 9.75641 7.04295 9.839 7.10033 9.90201C7.44136 10.1978 7.88261 10.352 8.33366 10.333C8.68157 10.3288 9.02381 10.2443 9.33366 10.086C9.64351 10.2443 9.98575 10.3288 10.3337 10.333C10.6527 10.3366 10.9677 10.2622 11.2514 10.1163C11.5351 9.97045 11.7789 9.75752 11.9617 9.49601C12.2547 9.91401 12.838 10.333 14.0003 10.333C14.0887 10.333 14.1735 10.2979 14.236 10.2354C14.2985 10.1729 14.3337 10.0881 14.3337 9.99968C14.3337 9.91127 14.2985 9.82649 14.236 9.76397C14.1735 9.70146 14.0887 9.66634 14.0003 9.66634ZM9.33533 9.26634C9.22012 9.14094 9.13114 8.99377 9.07361 8.83349C9.01608 8.67321 8.99117 8.50305 9.00033 8.33301C9.00033 8.2446 9.03544 8.15982 9.09796 8.09731C9.16047 8.03479 9.24525 7.99968 9.33366 7.99968C9.42206 7.99968 9.50685 8.03479 9.56936 8.09731C9.63187 8.15982 9.66699 8.2446 9.66699 8.33301C9.6763 8.50279 9.65177 8.67274 9.59483 8.83296C9.5379 8.99319 9.44969 9.1405 9.33533 9.26634ZM12.3337 5.99967C12.3337 5.91127 12.2985 5.82648 12.236 5.76397C12.1735 5.70146 12.0887 5.66634 12.0003 5.66634H6.00033C5.91192 5.66634 5.82714 5.70146 5.76462 5.76397C5.70211 5.82648 5.66699 5.91127 5.66699 5.99967C5.66699 6.08808 5.70211 6.17287 5.76462 6.23538C5.82714 6.29789 5.91192 6.33301 6.00033 6.33301H12.0003C12.0887 6.33301 12.1735 6.29789 12.236 6.23538C12.2985 6.17287 12.3337 6.08808 12.3337 5.99967ZM14.0003 3.99967H6.00033C5.91192 3.99967 5.82714 4.03479 5.76462 4.09731C5.70211 4.15982 5.66699 4.2446 5.66699 4.33301C5.66699 4.42141 5.70211 4.5062 5.76462 4.56871C5.82714 4.63122 5.91192 4.66634 6.00033 4.66634H14.0003C14.0887 4.66634 14.1735 4.63122 14.236 4.56871C14.2985 4.5062 14.3337 4.42141 14.3337 4.33301C14.3337 4.2446 14.2985 4.15982 14.236 4.09731C14.1735 4.03479 14.0887 3.99967 14.0003 3.99967ZM14.0003 2.33301H6.00033C5.91192 2.33301 5.82714 2.36813 5.76462 2.43064C5.70211 2.49315 5.66699 2.57794 5.66699 2.66634C5.66699 2.75475 5.70211 2.83953 5.76462 2.90204C5.82714 2.96456 5.91192 2.99967 6.00033 2.99967H14.0003C14.0887 2.99967 14.1735 2.96456 14.236 2.90204C14.2985 2.83953 14.3337 2.75475 14.3337 2.66634C14.3337 2.57794 14.2985 2.49315 14.236 2.43064C14.1735 2.36813 14.0887 2.33301 14.0003 2.33301Z" fill="#242424"/>
</g>
<defs>
<clipPath id="clip0_8534_977">
<rect width="20" height="20" fill="white"/>
</clipPath>
</defs>
</svg>
