<svg width="15" height="15" viewBox="0 0 15 15" fill="none" xmlns="http://www.w3.org/2000/svg">
<path d="M14.5832 2.66852L6.50109 10.7577L3.49775 7.75436L4.4965 6.75561L6.50109 8.76019L13.5844 1.67686L14.5832 2.66852ZM13.0178 6.23852C13.1098 6.64227 13.1665 7.06727 13.1665 7.49936C13.1665 10.6302 10.6307 13.166 7.49984 13.166C4.369 13.166 1.83317 10.6302 1.83317 7.49936C1.83317 4.36852 4.369 1.83269 7.49984 1.83269C8.619 1.83269 9.65317 2.15852 10.5315 2.71811L11.5515 1.69811C10.3661 0.861953 8.95049 0.414017 7.49984 0.416022C3.58984 0.416022 0.416504 3.58936 0.416504 7.49936C0.416504 11.4094 3.58984 14.5827 7.49984 14.5827C11.4098 14.5827 14.5832 11.4094 14.5832 7.49936C14.5832 6.65644 14.4273 5.84894 14.1582 5.09811L13.0178 6.23852Z" fill="#FD9C09"/>
</svg>
