<svg width="12" height="12" viewBox="0 0 12 12" fill="none" xmlns="http://www.w3.org/2000/svg">
<path d="M7.62497 12C7.41797 12 7.24997 11.832 7.24997 11.625V9.414C7.24997 9.24947 7.18305 9.08852 7.06695 8.97197L6 7.90552L4.93305 8.97255C4.81695 9.08857 4.75003 9.24952 4.75003 9.41402V11.625C4.75003 11.832 4.58203 12 4.37503 12C4.16803 12 4.00003 11.832 4.00003 11.625V9.414C4.00003 9.04697 4.14305 8.70155 4.40304 8.44198L5.73495 7.10998C5.88152 6.96349 6.11902 6.96349 6.2655 7.10998L7.5975 8.44198C7.85752 8.70199 8.00051 9.04697 8.00051 9.414V11.625C7.99997 11.832 7.83199 12 7.62497 12ZM10.125 0.75H1.875C1.668 0.75 1.5 0.582 1.5 0.375C1.5 0.168 1.668 0 1.875 0H10.125C10.332 0 10.5 0.168 10.5 0.375C10.5 0.582 10.332 0.75 10.125 0.75Z" fill="#1E866F"/>
<path d="M10.125 12H1.875C1.668 12 1.5 11.832 1.5 11.625C1.5 11.418 1.668 11.25 1.875 11.25H10.125C10.332 11.25 10.5 11.418 10.5 11.625C10.5 11.832 10.332 12 10.125 12Z" fill="#1E866F"/>
<path d="M2.875 12C2.668 12 2.5 11.832 2.5 11.625V9.36347C2.5 8.55002 2.84643 7.77101 3.45152 7.227L4.29801 6.465C4.43195 6.34498 4.50501 6.18054 4.50501 6.00047C4.50501 5.82047 4.43195 5.6565 4.29801 5.53601L3.45152 4.77347C2.84643 4.22902 2.5 3.44998 2.5 2.63653V0.375C2.5 0.168 2.668 0 2.875 0C3.082 0 3.25 0.168 3.25 0.375V2.63653C3.25 3.23747 3.50643 3.81354 3.9535 4.21554L4.79999 4.97754C5.08893 5.238 5.25501 5.61054 5.25501 5.99953C5.25501 6.38845 5.08893 6.76099 4.79999 7.02155L3.9535 7.78355C3.50643 8.18646 3.25 8.76197 3.25 9.36347V11.625C3.25 11.832 3.082 12 2.875 12ZM9.12494 12C8.91794 12 8.74994 11.832 8.74994 11.625V9.36347C8.74994 8.76253 8.49351 8.18646 8.04644 7.78446L7.19997 7.02246C6.91103 6.762 6.74495 6.38946 6.74495 6.00047C6.74495 5.61155 6.91103 5.23901 7.19997 4.97845L8.04646 4.21645C8.49353 3.81354 8.74996 3.23803 8.74996 2.63653V0.375C8.74996 0.168 8.91796 0 9.12496 0C9.33196 0 9.49996 0.168 9.49996 0.375V2.63653C9.49996 3.44998 9.15353 4.22902 8.54844 4.773L7.70195 5.535C7.56801 5.65502 7.49495 5.81946 7.49495 5.99953C7.49495 6.17953 7.56801 6.3435 7.70195 6.46399L8.54844 7.22599C9.15353 7.77098 9.49996 8.55002 9.49996 9.36347V11.625C9.49996 11.832 9.33196 12 9.12496 12H9.12494Z" fill="#1E866F"/>
</svg>
