<svg width="10" height="12" viewBox="0 0 10 12" fill="none" xmlns="http://www.w3.org/2000/svg">
<path d="M0.875 0.75H9.125C9.332 0.75 9.5 0.582 9.5 0.375C9.5 0.168 9.332 0 9.125 0H0.875C0.668 0 0.5 0.168 0.5 0.375C0.5 0.582 0.668 0.75 0.875 0.75ZM0.875 12H9.125C9.332 12 9.5 11.832 9.5 11.625C9.5 11.418 9.332 11.25 9.125 11.25H0.875C0.668 11.25 0.5 11.418 0.5 11.625C0.5 11.832 0.668 12 0.875 12Z" fill="#1E866F"/>
<path d="M5.00003 4.99997C5.09608 4.99997 5.19201 4.96352 5.26509 4.89002L6.59699 3.55802C6.85698 3.29845 7 2.95303 7 2.586V0.375C7 0.168 6.832 0 6.625 0C6.418 0 6.25 0.168 6.25 0.375V2.586C6.25 2.75053 6.18309 2.91148 6.06698 3.02803L5.00003 4.09448L3.93309 3.02745C3.81698 2.91143 3.75006 2.75048 3.75006 2.58598V0.375C3.75006 0.168 3.58206 0 3.37506 0C3.16806 0 3.00006 0.168 3.00006 0.375V2.586C3.00006 2.95303 3.14308 3.29845 3.40307 3.55802L4.73498 4.89002C4.80805 4.96352 4.90398 4.99997 5.00003 4.99997Z" fill="#1E866F"/>
<path d="M8.125 12C8.332 12 8.5 11.832 8.5 11.625V9.36347C8.5 8.55002 8.15357 7.77101 7.54848 7.227L6.70199 6.465C6.56805 6.34498 6.49499 6.18054 6.49499 6.00047C6.49499 5.82047 6.56805 5.6565 6.70199 5.53601L7.54848 4.77347C8.15357 4.22902 8.5 3.44998 8.5 2.63653V0.375C8.5 0.168 8.332 0 8.125 0C7.918 0 7.75 0.168 7.75 0.375V2.63653C7.75 3.23747 7.49357 3.81354 7.0465 4.21554L6.20001 4.97754C5.91107 5.238 5.74499 5.61054 5.74499 5.99953C5.74499 6.38845 5.91107 6.76099 6.20001 7.02155L7.0465 7.78355C7.49357 8.18646 7.75 8.76197 7.75 9.36347V11.625C7.75 11.832 7.918 12 8.125 12ZM1.87506 12C2.08206 12 2.25006 11.832 2.25006 11.625V9.36347C2.25006 8.76253 2.50649 8.18646 2.95356 7.78446L3.80003 7.02246C4.08897 6.762 4.25505 6.38946 4.25505 6.00047C4.25505 5.61155 4.08897 5.23901 3.80003 4.97845L2.95354 4.21645C2.50647 3.81354 2.25004 3.23803 2.25004 2.63653V0.375C2.25004 0.168 2.08204 0 1.87504 0C1.66804 0 1.50004 0.168 1.50004 0.375V2.63653C1.50004 3.44998 1.84647 4.22902 2.45156 4.773L3.29805 5.535C3.43199 5.65502 3.50505 5.81946 3.50505 5.99953C3.50505 6.17953 3.43199 6.3435 3.29805 6.46399L2.45156 7.22599C1.84647 7.77098 1.50004 8.55002 1.50004 9.36347V11.625C1.50004 11.832 1.66804 12 1.87504 12H1.87506Z" fill="#1E866F"/>
</svg>
