<svg width="16" height="16" viewBox="0 0 16 16" fill="none" xmlns="http://www.w3.org/2000/svg">
<g clip-path="url(#clip0_8190_1573)">
<path d="M6.65361 3.3125C6.57902 3.3125 6.50748 3.34213 6.45473 3.39488C6.40199 3.44762 6.37236 3.51916 6.37236 3.59375V6.26594C6.22818 6.31322 6.09828 6.39614 5.99469 6.507C5.89109 6.61787 5.81717 6.75309 5.77977 6.90014C5.74236 7.04719 5.74269 7.2013 5.78072 7.34819C5.81875 7.49508 5.89324 7.62999 5.9973 7.74041C6.10136 7.85084 6.23162 7.9332 6.37599 7.97987C6.52037 8.02654 6.67419 8.036 6.8232 8.00738C6.97221 7.97876 7.11158 7.91299 7.22839 7.81615C7.3452 7.71932 7.43567 7.59456 7.49142 7.45344C7.50879 7.45706 7.52649 7.45894 7.54423 7.45906L9.45048 7.47781H9.45329C9.52302 7.47154 9.58791 7.43948 9.63526 7.38791C9.68261 7.33634 9.70902 7.26896 9.70933 7.19895C9.70965 7.12894 9.68384 7.06133 9.63695 7.00934C9.59006 6.95734 9.52547 6.92471 9.45579 6.91781L7.54954 6.89906H7.52548C7.48743 6.75237 7.41312 6.61759 7.30937 6.50712C7.20561 6.39665 7.07576 6.31404 6.93173 6.26687V3.59469C6.93198 3.52047 6.90289 3.44916 6.85079 3.39631C6.7987 3.34345 6.72782 3.31332 6.65361 3.3125ZM6.65361 7.46219C6.5861 7.46219 6.52011 7.44217 6.46399 7.40465C6.40786 7.36714 6.36412 7.31383 6.3383 7.25146C6.31248 7.18908 6.30574 7.12045 6.31894 7.05425C6.33213 6.98804 6.36466 6.92724 6.41242 6.87953C6.46017 6.83181 6.52101 6.79934 6.58722 6.78621C6.65344 6.77307 6.72206 6.77988 6.78441 6.80575C6.84676 6.83163 6.90004 6.87542 6.9375 6.93158C6.97496 6.98774 6.99492 7.05374 6.99486 7.12125C6.99477 7.21178 6.95875 7.29858 6.89471 7.36257C6.83066 7.42656 6.74383 7.4625 6.65329 7.4625L6.65361 7.46219Z" fill="#1E866F"/>
<path d="M7.35735 13.183C7.21704 13.1992 7.0761 13.2098 6.93297 13.2161V11.7933C6.93641 11.7544 6.93172 11.7152 6.91921 11.6783C6.90669 11.6413 6.88662 11.6074 6.86027 11.5786C6.83392 11.5498 6.80187 11.5268 6.76615 11.5111C6.73044 11.4954 6.69184 11.4872 6.65282 11.4872C6.61379 11.4872 6.5752 11.4954 6.53948 11.5111C6.50377 11.5268 6.47172 11.5498 6.44537 11.5786C6.41902 11.6074 6.39894 11.6413 6.38643 11.6783C6.37391 11.7152 6.36922 11.7544 6.37266 11.7933V13.2161C3.23485 13.072 0.708598 10.5442 0.567348 7.40639H1.99047C2.02934 7.40983 2.06851 7.40514 2.10547 7.39262C2.14243 7.38011 2.17638 7.36003 2.20516 7.33368C2.23395 7.30733 2.25693 7.27528 2.27266 7.23957C2.28838 7.20385 2.2965 7.16526 2.2965 7.12623C2.2965 7.08721 2.28838 7.04861 2.27266 7.0129C2.25693 6.97719 2.23395 6.94513 2.20516 6.91878C2.17638 6.89243 2.14243 6.87236 2.10547 6.85985C2.06851 6.84733 2.02934 6.84264 1.99047 6.84608H0.567348C0.711411 3.70764 3.23954 1.18139 6.37797 1.04014V2.46327C6.37454 2.50214 6.37922 2.5413 6.39174 2.57826C6.40426 2.61522 6.42433 2.64917 6.45068 2.67796C6.47703 2.70674 6.50908 2.72973 6.5448 2.74545C6.58051 2.76117 6.61911 2.7693 6.65813 2.7693C6.69715 2.7693 6.73575 2.76117 6.77146 2.74545C6.80718 2.72973 6.83923 2.70674 6.86558 2.67796C6.89193 2.64917 6.912 2.61522 6.92452 2.57826C6.93704 2.5413 6.94172 2.50214 6.93829 2.46327V1.04014C10.0761 1.1842 12.6023 3.71233 12.7436 6.85077H11.3202C11.2501 6.85696 11.185 6.88916 11.1375 6.94101C11.09 6.99287 11.0637 7.06062 11.0637 7.13092C11.0637 7.20122 11.09 7.26898 11.1375 7.32083C11.185 7.37269 11.2501 7.40488 11.3202 7.41108H12.7436C12.7389 7.51327 12.7317 7.61514 12.7223 7.71608C12.715 7.75454 12.7158 7.79411 12.7246 7.83226C12.7334 7.87041 12.7501 7.90629 12.7736 7.93762C12.7971 7.96894 12.8269 7.99502 12.861 8.01417C12.8952 8.03333 12.9329 8.04514 12.9719 8.04886C13.0109 8.05257 13.0502 8.0481 13.0874 8.03574C13.1245 8.02338 13.1587 8.0034 13.1877 7.97708C13.2167 7.95075 13.2398 7.91867 13.2557 7.88287C13.2716 7.84707 13.2798 7.80836 13.2798 7.7692C13.3002 7.55764 13.3111 7.34202 13.3111 7.12827C13.3107 5.81213 12.9201 4.52565 12.1887 3.43145C11.4573 2.33724 10.418 1.48442 9.202 0.980767C7.98604 0.477119 6.64807 0.345255 5.35718 0.601842C4.0663 0.858429 2.88046 1.49195 1.94954 2.42233C1.0193 3.35336 0.385938 4.53926 0.129515 5.83015C-0.126909 7.12105 0.00511068 8.45899 0.508888 9.67487C1.01267 10.8908 1.86559 11.93 2.95985 12.6613C4.05412 13.3925 5.34061 13.783 6.65672 13.7833C6.91256 13.7833 7.16818 13.7687 7.42235 13.7395C7.46148 13.7388 7.50003 13.7299 7.53553 13.7134C7.57103 13.6969 7.6027 13.6732 7.62852 13.6438C7.65433 13.6144 7.67372 13.5799 7.68544 13.5425C7.69716 13.5052 7.70096 13.4658 7.69659 13.4269C7.69222 13.388 7.67979 13.3505 7.66007 13.3167C7.64036 13.2829 7.61381 13.2535 7.58211 13.2306C7.55041 13.2076 7.51428 13.1915 7.476 13.1833C7.43773 13.1751 7.39817 13.175 7.35985 13.183H7.35735Z" fill="#1E866F"/>
<path d="M4.4932 2.82238L4.23101 2.36832C4.21417 2.33347 4.19031 2.30247 4.16093 2.27726C4.13155 2.25205 4.09729 2.23318 4.06028 2.22183C4.02327 2.21048 3.98432 2.20688 3.94586 2.21128C3.9074 2.21567 3.87026 2.22796 3.83677 2.24737C3.80328 2.26678 3.77415 2.29289 3.75122 2.32408C3.72828 2.35526 3.71203 2.39085 3.70349 2.4286C3.69494 2.46635 3.69427 2.50547 3.70154 2.54349C3.7088 2.58151 3.72384 2.61763 3.7457 2.64957L4.00789 3.10332C4.04796 3.16186 4.10868 3.2031 4.17787 3.21877C4.24706 3.23443 4.31962 3.22337 4.381 3.1878C4.44238 3.15223 4.48805 3.09477 4.50886 3.02695C4.52967 2.95913 4.52407 2.88594 4.4932 2.82207V2.82238ZM2.62976 4.48051L2.17601 4.21894C2.11214 4.18807 2.03896 4.18248 1.97113 4.20329C1.90331 4.22409 1.84585 4.26976 1.81028 4.33115C1.77471 4.39253 1.76365 4.46508 1.77932 4.53428C1.79498 4.60347 1.83622 4.66419 1.89476 4.70426L2.34883 4.96644C2.4127 4.99732 2.48588 5.00291 2.55371 4.9821C2.62153 4.96129 2.67899 4.91562 2.71456 4.85424C2.75013 4.79286 2.76119 4.7203 2.74552 4.65111C2.72986 4.58192 2.68862 4.5212 2.63008 4.48113L2.62976 4.48051ZM2.34976 9.29082L1.8957 9.55301C1.86062 9.56971 1.82938 9.5935 1.80395 9.62288C1.77852 9.65226 1.75945 9.68659 1.74795 9.7237C1.73645 9.76082 1.73277 9.79991 1.73713 9.83852C1.74149 9.87713 1.75381 9.91442 1.7733 9.94803C1.79279 9.98165 1.81904 10.0109 1.85038 10.0338C1.88173 10.0568 1.91749 10.073 1.95541 10.0815C1.99334 10.0899 2.0326 10.0904 2.07073 10.0829C2.10886 10.0755 2.14503 10.0602 2.17695 10.038L2.6307 9.77613C2.68925 9.73606 2.73048 9.67534 2.74615 9.60615C2.76182 9.53696 2.75076 9.4644 2.71518 9.40302C2.67961 9.34164 2.62216 9.29597 2.55433 9.27516C2.48651 9.25435 2.41333 9.25995 2.34945 9.29082H2.34976ZM11.5182 4.32113C11.4808 4.25704 11.4196 4.21033 11.3478 4.19118C11.2761 4.17204 11.1998 4.18202 11.1354 4.21894L10.6813 4.48113C10.6228 4.5212 10.5815 4.58192 10.5659 4.65111C10.5502 4.7203 10.5613 4.79286 10.5968 4.85424C10.6324 4.91562 10.6899 4.96129 10.7577 4.9821C10.8255 5.00291 10.8987 4.99732 10.9626 4.96644L11.4163 4.70426C11.4805 4.66679 11.5272 4.60547 11.5462 4.53369C11.5653 4.46192 11.5552 4.3855 11.5182 4.32113ZM4.39039 11.0514C4.32596 11.0147 4.24961 11.0048 4.17797 11.0241C4.10633 11.0434 4.0452 11.0901 4.00789 11.1543L3.7457 11.608C3.71483 11.6719 3.70924 11.7451 3.73004 11.8129C3.75085 11.8807 3.79652 11.9382 3.8579 11.9737C3.91928 12.0093 3.99184 12.0204 4.06103 12.0047C4.13023 11.989 4.19094 11.9478 4.23101 11.8893L4.4932 11.4352C4.53037 11.3707 4.54042 11.294 4.52114 11.2221C4.50187 11.1501 4.45484 11.0888 4.39039 11.0514ZM9.0607 3.24269C9.10991 3.24259 9.15824 3.22958 9.20084 3.20496C9.24345 3.18034 9.27885 3.14497 9.30351 3.10238L9.56539 2.64863C9.58754 2.61671 9.60284 2.58054 9.61032 2.54241C9.6178 2.50428 9.61729 2.46502 9.60884 2.42709C9.60039 2.38917 9.58417 2.35341 9.5612 2.32206C9.53824 2.29072 9.50903 2.26447 9.47542 2.24498C9.4418 2.22549 9.40452 2.21317 9.36591 2.20881C9.3273 2.20445 9.2882 2.20813 9.25109 2.21963C9.21397 2.23113 9.17964 2.2502 9.15026 2.27563C9.12088 2.30106 9.09709 2.3323 9.08039 2.36738L8.8182 2.82144C8.79395 2.86408 8.78126 2.91232 8.78141 2.96137C8.78156 3.01042 8.79454 3.05858 8.81905 3.10107C8.84356 3.14355 8.87876 3.17889 8.92115 3.20357C8.96354 3.22825 9.01165 3.24141 9.0607 3.24176V3.24269ZM15.8757 14.1352L12.7951 8.75769C12.715 8.61796 12.6 8.50141 12.4614 8.41947C12.3228 8.33754 12.1652 8.29302 12.0042 8.29028C11.8432 8.28753 11.6842 8.32667 11.5429 8.40384C11.4015 8.48101 11.2826 8.59358 11.1979 8.73051L7.91664 14.0352C7.82994 14.1753 7.78205 14.336 7.77788 14.5008C7.7737 14.6655 7.81339 14.8284 7.89289 14.9728C7.97238 15.1171 8.08881 15.2377 8.23026 15.3223C8.37172 15.4068 8.5331 15.4523 8.69789 15.4539L15.061 15.5271H15.072C15.2346 15.5266 15.3943 15.4834 15.5351 15.4018C15.6759 15.3203 15.7928 15.2032 15.8741 15.0623C15.9555 14.9214 15.9985 14.7616 15.9987 14.599C15.999 14.4363 15.9566 14.2764 15.8757 14.1352ZM15.3879 14.7846C15.3555 14.8412 15.3083 14.888 15.2515 14.92C15.1947 14.9521 15.1303 14.9682 15.0651 14.9668L8.70195 14.8939C8.6365 14.8932 8.57242 14.875 8.51628 14.8413C8.46014 14.8077 8.41394 14.7597 8.38242 14.7023C8.35089 14.645 8.33516 14.5803 8.33683 14.5148C8.33851 14.4494 8.35753 14.3856 8.39195 14.3299L11.6732 9.02551C11.7056 8.97167 11.7514 8.9272 11.8062 8.89646C11.861 8.86572 11.9229 8.84977 11.9857 8.85019H11.9926C12.0568 8.85052 12.1197 8.86792 12.1749 8.90059C12.2302 8.93326 12.2757 8.98004 12.307 9.03613L15.3879 14.4136C15.4209 14.4699 15.4384 14.5339 15.4384 14.5991C15.4384 14.6643 15.4209 14.7283 15.3879 14.7846Z" fill="#1E866F"/>
<path d="M11.8732 10.5415C11.7986 10.5415 11.727 10.5711 11.6743 10.6239C11.6215 10.6766 11.5919 10.7482 11.5919 10.8228V12.6493C11.5885 12.6882 11.5932 12.7273 11.6057 12.7643C11.6182 12.8013 11.6383 12.8352 11.6646 12.864C11.691 12.8928 11.723 12.9158 11.7587 12.9315C11.7945 12.9472 11.833 12.9553 11.8721 12.9553C11.9111 12.9553 11.9497 12.9472 11.9854 12.9315C12.0211 12.9158 12.0532 12.8928 12.0795 12.864C12.1059 12.8352 12.1259 12.8013 12.1385 12.7643C12.151 12.7273 12.1557 12.6882 12.1522 12.6493V10.8215C12.1519 10.7475 12.1224 10.6766 12.0702 10.6242C12.0179 10.5718 11.9472 10.5421 11.8732 10.5415ZM11.8732 13.5424C11.7986 13.5424 11.727 13.5721 11.6743 13.6248C11.6215 13.6776 11.5919 13.7491 11.5919 13.8237V13.8599C11.5981 13.93 11.6303 13.9951 11.6822 14.0426C11.734 14.0901 11.8018 14.1164 11.8721 14.1164C11.9424 14.1164 12.0101 14.0901 12.062 14.0426C12.1138 13.9951 12.146 13.93 12.1522 13.8599V13.8237C12.1522 13.7495 12.1229 13.6783 12.0706 13.6256C12.0184 13.5729 11.9474 13.543 11.8732 13.5424Z" fill="#1E866F"/>
</g>
<defs>
<clipPath id="clip0_8190_1573">
<rect width="16" height="16" fill="white"/>
</clipPath>
</defs>
</svg>
