<svg width="21" height="21" viewBox="0 0 21 21" fill="none" xmlns="http://www.w3.org/2000/svg">
<path d="M20 10.5C20 15.7229 15.727 20 10.4974 20C5.26777 20 1 15.7229 1 10.5C1 5.2771 5.27303 1 10.4974 1C15.7217 1 20 5.2771 20 10.5Z" stroke="#1E866F" stroke-miterlimit="10" stroke-linecap="round" stroke-linejoin="round"/>
<path d="M15.5553 14.9447C15.7242 15.1136 15.7242 15.3861 15.5553 15.555C15.3864 15.7239 15.1139 15.7239 14.945 15.555C14.7761 15.3861 14.7761 15.1136 14.945 14.9447C15.1139 14.7758 15.3864 14.7758 15.5553 14.9447Z" fill="#20886F"/>
<path d="M15.5556 6.30795C15.7245 6.47684 15.7245 6.74937 15.5556 6.91826C15.3867 7.08714 15.1142 7.08714 14.9453 6.91826C14.7764 6.74937 14.7764 6.47684 14.9453 6.30795C15.1142 6.13906 15.3867 6.13906 15.5556 6.30795Z" fill="#20886F"/>
<path d="M6.05557 6.30795C6.22446 6.47684 6.22446 6.74937 6.05557 6.91826C5.88668 7.08714 5.61416 7.08714 5.44527 6.91826C5.27638 6.74937 5.27638 6.47684 5.44527 6.30795C5.61416 6.13906 5.88668 6.13906 6.05557 6.30795Z" fill="#20886F"/>
<path d="M6.05557 14.9447C6.22446 15.1136 6.22446 15.3861 6.05557 15.555C5.88668 15.7239 5.61416 15.7239 5.44527 15.555C5.27638 15.3861 5.27638 15.1136 5.44527 14.9447C5.61416 14.7758 5.88668 14.7758 6.05557 14.9447Z" fill="#20886F"/>
<path d="M10.5 3.59144V4.45508" stroke="#1E866F" stroke-miterlimit="10" stroke-linecap="round" stroke-linejoin="round"/>
<path d="M10.5 16.5465V17.4102" stroke="#1E866F" stroke-miterlimit="10" stroke-linecap="round" stroke-linejoin="round"/>
<path d="M3.59106 10.5H4.4547" stroke="#1E866F" stroke-miterlimit="10" stroke-linecap="round" stroke-linejoin="round"/>
<path d="M16.5461 10.5H17.4098" stroke="#1E866F" stroke-miterlimit="10" stroke-linecap="round" stroke-linejoin="round"/>
<path d="M10.5 7.04599V10.5005L13.9545 13.9551" stroke="#1E866F" stroke-miterlimit="10" stroke-linecap="round" stroke-linejoin="round"/>
</svg>
