<svg width="15" height="15" viewBox="0 0 15 15" fill="none" xmlns="http://www.w3.org/2000/svg">
<path d="M7.13509 1.18945C3.8567 1.18945 1.18945 3.8567 1.18945 7.13509C1.18945 10.4134 3.8567 13.0807 7.13509 13.0807C10.4134 13.0807 13.0807 10.4134 13.0807 7.13509C13.0807 3.8567 10.4134 1.18945 7.13509 1.18945ZM7.43237 12.4709V10.9998H6.83781V12.4709C4.12481 12.3208 1.94934 10.1453 1.7991 7.43237H3.27043V6.83781H1.7991C1.94934 4.12481 4.12481 1.94934 6.83781 1.7991V3.27043H7.43237V1.7991C10.1453 1.94934 12.3208 4.12481 12.4709 6.83781H10.9998V7.43237H12.4709C12.3208 10.1453 10.1453 12.3208 7.43237 12.4709Z" fill="#858585"/>
<path d="M14.2695 7.13477C14.2695 3.20054 11.0687 0 7.13477 0C5.34483 0 3.63297 0.666097 2.31434 1.87585L2.71615 2.31397C3.92505 1.20511 5.49403 0.594564 7.13477 0.594564C10.741 0.594564 13.675 3.52848 13.675 7.13477C13.675 8.77546 13.0643 10.3445 11.9554 11.5532L12.3939 11.9551C13.6032 10.6361 14.2695 8.9247 14.2695 7.13477ZM0.594564 7.13477C0.594564 5.49433 1.20511 3.92505 2.31397 2.71586L1.87555 2.31393C0.666097 3.63297 0 5.34509 0 7.13473C0 11.0687 3.20083 14.2695 7.13477 14.2695C8.9247 14.2695 10.6361 13.6032 11.9551 12.3936L11.5532 11.9552C10.3445 13.0643 8.77547 13.6749 7.13477 13.6749C3.52848 13.6749 0.594564 10.7411 0.594564 7.13477Z" fill="#858585"/>
<path d="M7.43229 6.29823V3.86523H6.83773V6.29819C6.49251 6.4213 6.24316 6.7482 6.24316 7.13534C6.24316 7.62697 6.64319 8.02718 7.13501 8.02718C7.522 8.02718 7.84901 7.7778 7.97212 7.43262H9.21598V6.83805H7.97212C7.92781 6.71367 7.85638 6.60069 7.76301 6.50732C7.66964 6.41395 7.55668 6.34255 7.43229 6.29823ZM7.13501 7.43262C6.97084 7.43262 6.83773 7.29906 6.83773 7.13534C6.83773 6.97146 6.97084 6.83805 7.13501 6.83805C7.29903 6.83805 7.43229 6.97146 7.43229 7.13534C7.43229 7.29906 7.29903 7.43262 7.13501 7.43262Z" fill="#858585"/>
</svg>
