<svg width="16" height="16" viewBox="0 0 16 16" fill="none" xmlns="http://www.w3.org/2000/svg">
<path d="M13.6434 7.31632V3.281C13.6434 2.32193 12.8581 1.52978 11.8989 1.52978H11.6817V1.25623C11.6817 0.571946 11.1269 0.0172086 10.4426 0.0172086C9.75835 0.0172086 9.20361 0.571946 9.20361 1.25623V1.52978H4.66053V1.25623C4.66053 0.562447 4.09808 0 3.4043 0C2.71052 0 2.14807 0.562447 2.14807 1.25623V1.52978H1.96032C1.00122 1.52978 0.220703 2.32193 0.220703 3.281V12.5469C0.220703 13.5061 1.00122 14.2986 1.96032 14.2986H7.41869C7.86324 14.8303 8.4189 15.2582 9.04658 15.5522C9.67426 15.8461 10.3587 15.999 11.0518 16C13.6572 16 15.7795 13.8772 15.7795 11.2718C15.7796 9.62042 14.9169 8.1614 13.6434 7.31632ZM9.89195 1.25623C9.88665 0.956456 10.1253 0.709133 10.4251 0.703833C10.4299 0.703764 10.4347 0.70373 10.4396 0.703764C10.7422 0.700563 10.9901 0.943274 10.9933 1.2459C10.9933 1.24935 10.9933 1.25279 10.9933 1.25623V2.59671H9.89195V1.25623ZM2.83641 1.25623C2.83968 0.947817 3.09238 0.70046 3.40079 0.70373C3.40132 0.703724 3.40185 0.703735 3.40237 0.703764C3.71192 0.703764 3.97218 0.946716 3.97218 1.25623V2.59671H2.83641V1.25623ZM0.909048 3.281C0.909048 2.70145 1.38077 2.21812 1.96032 2.21812H2.14807V2.9552C2.14807 3.14526 2.3068 3.28506 2.49689 3.28506H4.30793C4.49798 3.28506 4.66053 3.14526 4.66053 2.9552V2.21812H9.20361V2.9552C9.20235 2.99891 9.21004 3.04241 9.2262 3.08304C9.24237 3.12366 9.26667 3.16055 9.29762 3.19145C9.32856 3.22234 9.36549 3.24658 9.40614 3.26268C9.4468 3.27877 9.49031 3.28639 9.53401 3.28506H11.345C11.3891 3.28652 11.4329 3.27904 11.474 3.26307C11.5151 3.2471 11.5524 3.22297 11.5839 3.19214C11.6154 3.1613 11.6403 3.12441 11.6571 3.08368C11.6739 3.04296 11.6822 2.99925 11.6817 2.9552V2.21812H11.8989C12.4824 2.22401 12.9529 2.69752 12.9551 3.281V4.38641H0.909048V3.281ZM1.96032 13.6102C1.38077 13.6102 0.909048 13.1265 0.909048 12.5469V5.07476H12.9551V6.94203C12.356 6.67899 11.7087 6.54329 11.0544 6.54355C8.44904 6.54355 6.32801 8.6694 6.32801 11.2749C6.32669 12.0934 6.53827 12.8982 6.94198 13.6102H1.96032ZM11.0518 15.3055C8.82233 15.3055 7.01498 13.4982 7.01498 11.2687C7.01498 9.03921 8.82233 7.23186 11.0518 7.23186C13.2813 7.23186 15.0886 9.03921 15.0886 11.2687V11.2687C15.0861 13.4971 13.2803 15.303 11.0518 15.3055Z" fill="#1E866F"/>
<path d="M12.6732 11.2705H11.1654V9.19964C11.1654 9.00955 11.0113 8.85547 10.8212 8.85547C10.6311 8.85547 10.4771 9.00955 10.4771 9.19964V11.6144C10.4785 11.7063 10.5161 11.7941 10.5817 11.8585C10.6473 11.923 10.7357 11.959 10.8277 11.9589H12.6732C12.8633 11.9589 13.0174 11.8048 13.0174 11.6147C13.0174 11.4246 12.8633 11.2705 12.6732 11.2705Z" fill="#1E866F"/>
</svg>
