<svg width="16" height="16" viewBox="0 0 16 16" fill="none" xmlns="http://www.w3.org/2000/svg">
<path d="M8 14.9688C6.62171 14.9688 5.27438 14.56 4.12837 13.7943C2.98237 13.0286 2.08917 11.9402 1.56172 10.6668C1.03427 9.39346 0.896265 7.99227 1.16516 6.64047C1.43405 5.28866 2.09776 4.04695 3.07235 3.07235C4.04695 2.09776 5.28866 1.43405 6.64047 1.16516C7.99227 0.896265 9.39346 1.03427 10.6668 1.56172C11.9402 2.08917 13.0286 2.98237 13.7943 4.12837C14.56 5.27438 14.9688 6.62171 14.9688 8C14.9666 9.84758 14.2318 11.6189 12.9253 12.9253C11.6189 14.2318 9.84758 14.9666 8 14.9688ZM8 1.53125C6.72061 1.53125 5.46994 1.91064 4.40616 2.62143C3.34238 3.33223 2.51326 4.34251 2.02366 5.52452C1.53405 6.70653 1.40595 8.00718 1.65555 9.26199C1.90515 10.5168 2.52124 11.6694 3.42591 12.5741C4.33058 13.4788 5.4832 14.0949 6.73801 14.3445C7.99283 14.5941 9.29348 14.466 10.4755 13.9763C11.6575 13.4867 12.6678 12.6576 13.3786 11.5938C14.0894 10.5301 14.4688 9.2794 14.4688 8C14.4668 6.28497 13.7847 4.64074 12.572 3.42803C11.3593 2.21532 9.71503 1.53317 8 1.53125Z" fill="#858585"/>
<path d="M7.99994 3.64069C7.93363 3.64069 7.87004 3.61435 7.82316 3.56746C7.77628 3.52058 7.74994 3.45699 7.74994 3.39069V2.49219C7.74994 2.42588 7.77628 2.36229 7.82316 2.31541C7.87004 2.26853 7.93363 2.24219 7.99994 2.24219C8.06624 2.24219 8.12983 2.26853 8.17671 2.31541C8.2236 2.36229 8.24994 2.42588 8.24994 2.49219V3.39069C8.24994 3.45699 8.2236 3.52058 8.17671 3.56746C8.12983 3.61435 8.06624 3.64069 7.99994 3.64069ZM5.69544 4.25819C5.65151 4.25823 5.60835 4.2467 5.5703 4.22475C5.53225 4.20281 5.50065 4.17123 5.47869 4.13319L5.02944 3.35494C4.99629 3.29748 4.98731 3.22922 5.0045 3.16515C5.02168 3.10108 5.06361 3.04646 5.12106 3.01331C5.17852 2.98016 5.24678 2.97119 5.31085 2.98837C5.37492 3.00556 5.42954 3.04749 5.46269 3.10494L5.91169 3.88319C5.93362 3.92117 5.94517 3.96426 5.94518 4.00812C5.94519 4.05199 5.93366 4.09508 5.91175 4.13308C5.88984 4.17107 5.85832 4.20264 5.82035 4.2246C5.78238 4.24656 5.7393 4.25814 5.69544 4.25819ZM4.00794 5.94519C3.96405 5.94522 3.92093 5.93366 3.88294 5.91169L3.10494 5.46269C3.04749 5.42954 3.00556 5.37492 2.98837 5.31085C2.97119 5.24678 2.98016 5.17852 3.01331 5.12106C3.04646 5.06361 3.10108 5.02168 3.16515 5.0045C3.22922 4.98731 3.29748 4.99629 3.35494 5.02944L4.13319 5.47869C4.18086 5.50622 4.21812 5.54871 4.23917 5.59958C4.26023 5.65045 4.2639 5.70684 4.24963 5.76001C4.23535 5.81318 4.20392 5.86015 4.16022 5.89364C4.11652 5.92712 4.06299 5.94524 4.00794 5.94519ZM3.39069 8.24994H2.49219C2.42588 8.24994 2.36229 8.2236 2.31541 8.17671C2.26853 8.12983 2.24219 8.06624 2.24219 7.99994C2.24219 7.93363 2.26853 7.87004 2.31541 7.82316C2.36229 7.77628 2.42588 7.74994 2.49219 7.74994H3.39069C3.45699 7.74994 3.52058 7.77628 3.56746 7.82316C3.61435 7.87004 3.64069 7.93363 3.64069 7.99994C3.64069 8.06624 3.61435 8.12983 3.56746 8.17671C3.52058 8.2236 3.45699 8.24994 3.39069 8.24994ZM3.23019 11.0039C3.17508 11.004 3.12148 10.9859 3.07773 10.9524C3.03398 10.9189 3.00253 10.8718 2.98827 10.8186C2.97402 10.7654 2.97775 10.7089 2.99889 10.658C3.02004 10.6071 3.05741 10.5646 3.10519 10.5372L3.88319 10.0882C3.91163 10.0715 3.94309 10.0606 3.97576 10.0562C4.00842 10.0517 4.04165 10.0537 4.07352 10.0622C4.1054 10.0706 4.13529 10.0852 4.16148 10.1053C4.18767 10.1253 4.20964 10.1503 4.22613 10.1789C4.24261 10.2074 4.25329 10.2389 4.25754 10.2716C4.26179 10.3043 4.25953 10.3375 4.25089 10.3694C4.24225 10.4012 4.2274 10.431 4.2072 10.457C4.187 10.4831 4.16185 10.5049 4.13319 10.5212L3.35494 10.9704C3.31702 10.9924 3.27399 11.0039 3.23019 11.0039ZM5.24569 13.0199C5.20183 13.0199 5.15875 13.0083 5.12078 12.9863C5.08281 12.9644 5.05129 12.9328 5.02937 12.8948C5.00746 12.8568 4.99593 12.8137 4.99594 12.7699C4.99596 12.726 5.00751 12.6829 5.02944 12.6449L5.47869 11.8667C5.49498 11.838 5.51679 11.8129 5.54284 11.7927C5.5689 11.7725 5.5987 11.7576 5.63051 11.749C5.66233 11.7403 5.69555 11.7381 5.72824 11.7423C5.76094 11.7466 5.79247 11.7573 5.82102 11.7737C5.84957 11.7902 5.87458 11.8122 5.89461 11.8384C5.91464 11.8646 5.92929 11.8945 5.93771 11.9264C5.94614 11.9582 5.94818 11.9915 5.94371 12.0241C5.93925 12.0568 5.92836 12.0882 5.91169 12.1167L5.46269 12.8949C5.4407 12.933 5.40907 12.9646 5.37097 12.9866C5.33287 13.0085 5.28966 13.02 5.24569 13.0199ZM7.99994 13.7577C7.93363 13.7577 7.87004 13.7313 7.82316 13.6845C7.77628 13.6376 7.74994 13.574 7.74994 13.5077V12.6094C7.74994 12.5431 7.77628 12.4795 7.82316 12.4327C7.87004 12.3858 7.93363 12.3594 7.99994 12.3594C8.06624 12.3594 8.12983 12.3858 8.17671 12.4327C8.2236 12.4795 8.24994 12.5431 8.24994 12.6094V13.5077C8.24994 13.574 8.2236 13.6376 8.17671 13.6845C8.12983 13.7313 8.06624 13.7577 7.99994 13.7577ZM10.7542 13.0199C10.7102 13.02 10.667 13.0085 10.6289 12.9866C10.5908 12.9646 10.5592 12.933 10.5372 12.8949L10.0882 12.1167C10.0715 12.0882 10.0606 12.0568 10.0562 12.0241C10.0517 11.9915 10.0537 11.9582 10.0622 11.9264C10.0706 11.8945 10.0852 11.8646 10.1053 11.8384C10.1253 11.8122 10.1503 11.7902 10.1789 11.7737C10.2074 11.7573 10.2389 11.7466 10.2716 11.7423C10.3043 11.7381 10.3375 11.7403 10.3694 11.749C10.4012 11.7576 10.431 11.7725 10.457 11.7927C10.4831 11.8129 10.5049 11.838 10.5212 11.8667L10.9704 12.6449C10.9924 12.6829 11.0039 12.726 11.0039 12.7699C11.0039 12.8137 10.9924 12.8568 10.9705 12.8948C10.9486 12.9328 10.9171 12.9644 10.8791 12.9863C10.8411 13.0083 10.798 13.0199 10.7542 13.0199ZM12.7697 11.0039C12.7258 11.004 12.6827 10.9924 12.6447 10.9704L11.8667 10.5212C11.838 10.5049 11.8129 10.4831 11.7927 10.457C11.7725 10.431 11.7576 10.4012 11.749 10.3694C11.7403 10.3375 11.7381 10.3043 11.7423 10.2716C11.7466 10.2389 11.7573 10.2074 11.7737 10.1789C11.7902 10.1503 11.8122 10.1253 11.8384 10.1053C11.8646 10.0852 11.8945 10.0706 11.9264 10.0622C11.9582 10.0537 11.9915 10.0517 12.0241 10.0562C12.0568 10.0606 12.0882 10.0715 12.1167 10.0882L12.8949 10.5372C12.9427 10.5647 12.9801 10.6072 13.0013 10.6581C13.0224 10.709 13.0261 10.7655 13.0118 10.8187C12.9975 10.872 12.966 10.919 12.9222 10.9525C12.8785 10.986 12.8248 11.0041 12.7697 11.0039ZM13.5077 8.24994H12.6094C12.5431 8.24994 12.4795 8.2236 12.4327 8.17671C12.3858 8.12983 12.3594 8.06624 12.3594 7.99994C12.3594 7.93363 12.3858 7.87004 12.4327 7.82316C12.4795 7.77628 12.5431 7.74994 12.6094 7.74994H13.5077C13.574 7.74994 13.6376 7.77628 13.6845 7.82316C13.7313 7.87004 13.7577 7.93363 13.7577 7.99994C13.7577 8.06624 13.7313 8.12983 13.6845 8.17671C13.6376 8.2236 13.574 8.24994 13.5077 8.24994ZM11.9919 5.94519C11.9369 5.94519 11.8834 5.92702 11.8398 5.89352C11.7961 5.86002 11.7647 5.81305 11.7505 5.75989C11.7362 5.70674 11.7399 5.65037 11.761 5.59952C11.782 5.54868 11.8193 5.50621 11.8669 5.47869L12.6449 5.02944C12.7024 4.99629 12.7707 4.98731 12.8347 5.0045C12.8988 5.02168 12.9534 5.06361 12.9866 5.12106C13.0197 5.17852 13.0287 5.24678 13.0115 5.31085C12.9943 5.37492 12.9524 5.42954 12.8949 5.46269L12.1167 5.91169C12.0788 5.93362 12.0357 5.94518 11.9919 5.94519ZM10.3044 4.25819C10.2606 4.25814 10.2175 4.24656 10.1795 4.2246C10.1416 4.20264 10.11 4.17107 10.0881 4.13308C10.0662 4.09508 10.0547 4.05199 10.0547 4.00812C10.0547 3.96426 10.0663 3.92117 10.0882 3.88319L10.5372 3.10494C10.5703 3.04749 10.625 3.00556 10.689 2.98837C10.7531 2.97119 10.8214 2.98016 10.8788 3.01331C10.9363 3.04646 10.9782 3.10108 10.9954 3.16515C11.0126 3.22922 11.0036 3.29748 10.9704 3.35494L10.5212 4.13319C10.4992 4.17123 10.4676 4.20281 10.4296 4.22475C10.3915 4.2467 10.3484 4.25823 10.3044 4.25819ZM10.3047 8.24994H7.99994C7.93363 8.24994 7.87004 8.2236 7.82316 8.17671C7.77628 8.12983 7.74994 8.06624 7.74994 7.99994V4.49994C7.74994 4.43363 7.77628 4.37004 7.82316 4.32316C7.87004 4.27628 7.93363 4.24994 7.99994 4.24994C8.06624 4.24994 8.12983 4.27628 8.17671 4.32316C8.2236 4.37004 8.24994 4.43363 8.24994 4.49994V7.74994H10.3047C10.371 7.74994 10.4346 7.77628 10.4815 7.82316C10.5283 7.87004 10.5547 7.93363 10.5547 7.99994C10.5547 8.06624 10.5283 8.12983 10.4815 8.17671C10.4346 8.2236 10.371 8.24994 10.3047 8.24994Z" fill="#858585"/>
</svg>
