<svg width="12" height="12" viewBox="0 0 12 12" fill="none" xmlns="http://www.w3.org/2000/svg">
<path d="M6.6 5.4H10.77C10.622 4.3 10.164 3.368 9.396 2.604C8.632 1.84 7.7 1.382 6.6 1.23M5.4 10.77V1.23C4.2 1.382 3.2 1.91 2.4 2.814C1.6 3.718 1.2 4.78 1.2 6C1.2 7.22 1.6 8.282 2.4 9.186C3.2 10.094 4.2 10.622 5.4 10.77ZM6.6 10.77C7.7 10.63 8.636 10.176 9.408 9.408C10.176 8.636 10.63 7.7 10.77 6.6H6.6M6 12C5.172 12 4.392 11.842 3.66 11.526C2.932 11.214 2.298 10.788 1.758 10.248C1.218 9.708 0.79 9.072 0.474 8.34C0.158 7.612 0 6.832 0 6C0 5.168 0.158 4.388 0.474 3.66C0.79 2.932 1.218 2.298 1.758 1.758C2.298 1.218 2.932 0.79 3.66 0.474C4.392 0.158 5.172 0 6 0C6.828 0 7.606 0.158 8.334 0.474C9.058 0.79 9.692 1.22 10.236 1.764C10.784 2.308 11.214 2.942 11.526 3.666C11.842 4.394 12 5.172 12 6C12 6.82 11.842 7.596 11.526 8.328C11.214 9.056 10.788 9.692 10.248 10.236C9.708 10.784 9.072 11.214 8.34 11.526C7.612 11.842 6.832 12 6 12Z" fill="#FF9900"/>
</svg>
