<svg width="17" height="17" viewBox="0 0 17 17" fill="none" xmlns="http://www.w3.org/2000/svg">
<path d="M4.22764 2.67188C3.37034 2.67188 2.67285 3.36934 2.67285 4.22663C2.67285 5.08392 3.37031 5.78138 4.22761 5.78138C5.0849 5.78138 5.78239 5.08392 5.78239 4.22663C5.78239 3.36934 5.08493 2.67188 4.22764 2.67188ZM4.22764 5.34374C3.61166 5.34374 3.11053 4.8426 3.11053 4.22663C3.11053 3.61066 3.61166 3.10952 4.22764 3.10952C4.84361 3.10952 5.34474 3.61066 5.34474 4.22663C5.34474 4.8426 4.84358 5.34374 4.22764 5.34374Z" fill="#1E866F"/>
<path d="M6.45556 4.2278C6.45556 2.99938 5.45618 2 4.2278 2C2.99935 2 2 2.99938 2 4.2278C2 6.18437 3.995 8.03594 4.07993 8.11381L4.2278 8.24939L4.23349 8.24417H5.10309V7.80652H4.68266C5.26283 7.1907 6.45556 5.74077 6.45556 4.2278ZM4.2278 7.64596C3.77472 7.18492 2.43768 5.69955 2.43768 4.2278C2.43765 3.2407 3.2407 2.43765 4.2278 2.43765C5.21487 2.43765 6.01795 3.2407 6.01795 4.2278C6.01792 5.69955 4.68088 7.18495 4.2278 7.64596Z" fill="#1E866F"/>
<path d="M7.39174 12.1677C7.12784 12.3368 6.90185 12.553 6.72661 12.804L7.09019 13.0288C7.23433 12.8224 7.42019 12.6446 7.63722 12.5055L7.39174 12.1677ZM6.04688 7.82031H6.91725V8.22941H6.04688V7.82031ZM11.2379 8.52243L10.918 8.79979C11.0965 8.98173 11.2301 9.19203 11.3151 9.42481L11.7267 9.29207C11.6221 9.00527 11.4576 8.74634 11.2379 8.52243ZM11.816 15.9474H12.6864V16.3565H11.816V15.9474ZM10.6859 11.3992C10.4779 11.5508 10.2436 11.6577 9.98951 11.717L10.0945 12.1141C10.4077 12.0409 10.6964 11.9092 10.9525 11.7226L10.6859 11.3992ZM10.0753 15.9474H10.9456V16.3565H10.0753V15.9474ZM11.41 10.1475C11.3888 10.3919 11.3133 10.6295 11.1883 10.8447L11.5705 11.0404C11.7251 10.7736 11.817 10.4846 11.8437 10.1813L11.41 10.1475ZM6.76171 14.0629C6.76171 13.9434 6.77366 13.824 6.79722 13.7078L6.36972 13.6312C6.34097 13.7735 6.3265 13.918 6.32653 14.0629C6.32653 14.2177 6.34306 14.3725 6.3757 14.5231L6.80213 14.4414C6.77522 14.3168 6.76168 14.19 6.76171 14.0629ZM9.5337 7.82042H9.52848V8.22952H9.5337C9.79583 8.22952 10.0494 8.2791 10.2873 8.37693L10.4617 8.00211C10.1684 7.88157 9.8562 7.82042 9.5337 7.82042ZM8.76644 15.9474C8.63646 15.9474 8.50679 15.9357 8.37921 15.9123L8.29568 16.3138C8.45078 16.3422 8.60842 16.3565 8.76644 16.3565H9.20502V15.9474H8.76644ZM7.10429 15.1168L6.74375 15.346C6.92236 15.5949 7.15125 15.8083 7.41742 15.9743L7.65831 15.6336C7.43941 15.4971 7.25117 15.3215 7.10429 15.1168ZM7.78762 7.82031H8.65799V8.22941H7.78762V7.82031ZM8.76641 11.7692C8.59806 11.7692 8.43015 11.7854 8.26534 11.8177L8.35426 12.2181C8.48888 12.1917 8.62756 12.1783 8.76641 12.1783H9.17676V11.7692H8.76641Z" fill="#1E866F"/>
<path d="M13.4283 16.1155C13.4283 15.695 13.7702 15.3531 14.1907 15.3531C14.6111 15.3531 14.953 15.695 14.953 16.1155H13.4283ZM13.4283 16.1155C13.4283 16.5359 13.7702 16.8778 14.1907 16.8778M13.4283 16.1155L14.1907 16.8778M14.1907 16.8778C14.6111 16.8778 14.953 16.5359 14.953 16.1155L14.1907 16.8778ZM14.584 16.1155V16.1155C14.584 16.3322 14.4075 16.5088 14.1907 16.5088C13.9739 16.5088 13.7973 16.3322 13.7973 16.1155C13.7973 15.8987 13.9739 15.7221 14.1907 15.7221C14.4075 15.7221 14.584 15.8987 14.584 16.1155Z" fill="#1E866F" stroke="#1E866F" stroke-width="0.2"/>
</svg>
