<svg width="127" height="127" viewBox="0 0 127 127" fill="none" xmlns="http://www.w3.org/2000/svg">
<circle cx="63.5" cy="63.5" r="63.5" fill="url(#paint0_linear_9161_2271)" fill-opacity="0.15"/>
<path d="M97.4132 96.0723L84.8337 83.6375C84.4315 83.2398 83.7784 83.2398 83.3745 83.6375L82.7213 84.2832L80.0109 81.6035C83.0565 77.6834 84.7082 72.9103 84.7082 67.8857C84.7082 61.8552 82.3329 56.1866 78.0206 51.9232C77.6724 51.5804 77.3136 51.2483 76.9446 50.9275C79.0656 47.8519 80.5007 44.6302 80.5007 40.9667C80.5024 30.8104 72.1476 22.5488 61.8763 22.5488C51.6051 22.5488 43.2485 30.8104 43.2485 40.965C43.2485 44.6285 44.6837 47.8502 46.8046 50.9258C46.4351 51.2469 46.0759 51.5783 45.7287 51.9215C36.8255 60.7235 36.8255 75.0445 45.7287 83.8465C50.041 88.1098 55.7765 90.4581 61.8746 90.4581C66.957 90.4581 71.7866 88.8252 75.7501 85.8141L78.4606 88.4938L77.8074 89.1395C77.6149 89.3298 77.5049 89.5898 77.5049 89.86C77.5049 90.1302 77.6132 90.3902 77.8074 90.5805L90.387 103.017C91.3546 103.974 92.6282 104.453 93.9001 104.453C95.172 104.453 96.4438 103.974 97.4132 103.017C99.3502 101.102 99.3502 97.9874 97.4132 96.0723ZM61.8763 24.5879C71.0098 24.5879 78.4416 31.9336 78.4416 40.965C78.4416 46.8137 74.2084 51.4899 69.3065 56.9053C66.7387 59.7413 64.0952 62.6623 61.878 65.9775C59.6609 62.6623 57.0157 59.7413 54.4496 56.9053C49.5477 51.4899 45.3145 46.8137 45.3145 40.965C45.311 31.9336 52.7429 24.5879 61.8763 24.5879ZM73.1187 56.7694C79.3182 62.8985 79.3182 72.8695 73.1187 78.9986C70.116 81.9671 66.1234 83.6018 61.8763 83.6018C57.6293 83.6018 53.6366 81.9671 50.634 78.9986C47.6313 76.03 45.9779 72.0828 45.9779 67.884C45.9779 63.6852 47.6313 59.7379 50.634 56.7694C50.7973 56.608 50.9657 56.4499 51.1376 56.2936C51.7202 56.9478 52.3132 57.6037 52.9096 58.263C55.7627 61.4151 58.7138 64.6759 60.9912 68.409C61.1785 68.7149 61.5137 68.9018 61.8746 68.9018C62.2356 68.9018 62.5707 68.7149 62.758 68.409C65.0354 64.6759 67.9865 61.4151 70.8396 58.263C71.4377 57.6037 72.0307 56.9478 72.6116 56.2936C72.7852 56.4499 72.9537 56.608 73.1187 56.7694ZM47.1879 82.4055C39.0891 74.3988 39.0891 61.3709 47.1879 53.3625C47.4577 53.0957 47.7362 52.8357 48.0198 52.5842C48.5818 53.3098 49.1748 54.0303 49.7884 54.7507C49.5787 54.9393 49.3741 55.1314 49.1748 55.3285C45.782 58.6827 43.9137 63.1415 43.9137 67.884C43.9137 72.6265 45.782 77.087 49.1748 80.4395C52.5676 83.7938 57.0776 85.6408 61.8746 85.6408C66.6716 85.6408 71.1834 83.7938 74.5745 80.4395C81.5766 73.5169 81.5766 62.2511 74.5745 55.3268C74.3751 55.1297 74.1688 54.9376 73.9609 54.749C74.5762 54.0303 75.1691 53.3081 75.7295 52.5825C76.0131 52.834 76.2915 53.094 76.5613 53.3608C80.4852 57.2401 82.6457 62.3972 82.6457 67.8823C82.6457 73.3674 80.4852 78.5245 76.5613 82.4038C72.6374 86.2831 67.421 88.4191 61.8729 88.4191C56.3248 88.4191 51.1118 86.2831 47.1879 82.4055ZM77.3348 84.4973C77.5668 84.2849 77.7971 84.069 78.0223 83.8465C78.2474 83.6239 78.4657 83.3979 78.6806 83.1668L81.2655 85.7224L79.9215 87.0512L77.3348 84.4973ZM95.9557 101.576C94.8231 102.696 92.9806 102.696 91.8479 101.576L79.9988 89.8617L84.1066 85.8006L95.9557 97.515C97.0884 98.6331 97.0884 100.456 95.9557 101.576ZM32.0096 27.8385C30.1448 31.9778 29.1995 36.3941 29.1995 40.965C29.1995 45.5359 30.1448 49.9504 32.0096 54.0914C32.0648 54.2137 32.0951 54.3455 32.0987 54.4794C32.1023 54.6132 32.0792 54.7464 32.0307 54.8714C31.9821 54.9964 31.9091 55.1108 31.8159 55.2078C31.7226 55.3049 31.6109 55.3829 31.4871 55.4372C31.3634 55.4918 31.2301 55.5217 31.0947 55.5253C30.9593 55.5289 30.8246 55.506 30.6981 55.458C30.5717 55.41 30.4561 55.3379 30.3579 55.2457C30.2597 55.1535 30.1808 55.043 30.1259 54.9207C28.1424 50.518 27.1387 45.823 27.1387 40.965C27.1387 36.1069 28.1441 31.412 30.1259 27.0093C30.1808 26.8869 30.2597 26.7765 30.3579 26.6843C30.4561 26.592 30.5717 26.5199 30.6981 26.4719C30.8246 26.4239 30.9593 26.4011 31.0947 26.4046C31.2301 26.4082 31.3634 26.4381 31.4871 26.4927C32.0062 26.7204 32.2399 27.3236 32.0096 27.8385ZM91.743 54.0897C93.6079 49.9504 94.5532 45.5342 94.5532 40.9633C94.5532 36.3941 93.6079 31.9778 91.743 27.8368C91.511 27.3219 91.7448 26.7204 92.2656 26.491C92.7863 26.2616 93.3948 26.4927 93.6268 27.0076C95.6102 31.4103 96.614 36.1052 96.614 40.9633C96.614 45.8213 95.6085 50.5163 93.6268 54.919C93.4549 55.2979 93.0785 55.5239 92.6849 55.5239C92.544 55.5239 92.4031 55.495 92.2656 55.4355C91.7448 55.2078 91.511 54.6046 91.743 54.0897ZM38.3071 33.9013C37.6093 36.1817 37.2552 38.5572 37.2552 40.9633C37.2552 43.3694 37.6093 45.7449 38.3071 48.0252C38.3539 48.1775 38.3639 48.3385 38.3364 48.4954C38.3089 48.6522 38.2446 48.8005 38.1487 48.9283C38.0528 49.0562 37.9279 49.16 37.7841 49.2316C37.6403 49.3032 37.4815 49.3404 37.3205 49.3404C36.8771 49.3404 36.468 49.0566 36.334 48.6165C35.5777 46.1442 35.1927 43.5699 35.1927 40.9633C35.1927 38.3567 35.576 35.7823 36.334 33.31C36.4143 33.0525 36.5945 32.8369 36.8351 32.7104C37.0758 32.5839 37.3574 32.5567 37.6182 32.6349C37.879 32.7131 38.098 32.8902 38.2271 33.1275C38.3562 33.3648 38.3849 33.6431 38.3071 33.9013ZM85.4438 33.9013C85.366 33.6431 85.3948 33.3648 85.5239 33.1275C85.653 32.8902 85.8719 32.7131 86.1327 32.6349C86.3936 32.5567 86.6751 32.5839 86.9158 32.7104C87.1565 32.8369 87.3367 33.0525 87.417 33.31C88.1732 35.7823 88.5582 38.3567 88.5582 40.9633C88.5582 43.5699 88.1749 46.1442 87.417 48.6165C87.2829 49.0566 86.8721 49.3404 86.4304 49.3404C86.3307 49.3404 86.231 49.3268 86.1313 49.2962C85.8697 49.2178 85.6503 49.0399 85.5213 48.8015C85.3924 48.5631 85.3645 48.2839 85.4438 48.0252C86.1416 45.7449 86.4957 43.3694 86.4957 40.9633C86.4957 38.5589 86.1434 36.1817 85.4438 33.9013Z" fill="#1E866F"/>
<path d="M70.1915 51.587C70.5125 51.587 70.8203 51.4609 71.0473 51.2365C71.2743 51.0121 71.4018 50.7078 71.4018 50.3904V48.8995C71.4067 45.5418 66.5919 42.9117 61.719 42.9117C56.8461 42.9117 52.0361 45.5418 52.0361 48.8995V50.3904C52.0361 50.7078 52.1637 51.0121 52.3906 51.2365C52.6176 51.4609 52.9255 51.587 53.2465 51.587H70.1915ZM66.0811 34.959C66.0811 35.5254 65.9683 36.0862 65.7491 36.6094C65.5298 37.1326 65.2085 37.608 64.8035 38.0085C64.3984 38.4089 63.9175 38.7266 63.3883 38.9433C62.8591 39.16 62.2918 39.2716 61.719 39.2716C61.1461 39.2716 60.5789 39.16 60.0497 38.9433C59.5204 38.7266 59.0396 38.4089 58.6345 38.0085C58.2294 37.608 57.9081 37.1326 57.6889 36.6094C57.4697 36.0862 57.3569 35.5254 57.3569 34.959C57.3569 33.8153 57.8164 32.7184 58.6345 31.9096C59.4526 31.1008 60.5621 30.6465 61.719 30.6465C62.8759 30.6465 63.9854 31.1008 64.8035 31.9096C65.6215 32.7184 66.0811 33.8153 66.0811 34.959Z" stroke="#1E866F" stroke-width="1.5" stroke-linecap="round" stroke-linejoin="round"/>
<defs>
<linearGradient id="paint0_linear_9161_2271" x1="-2.64529" y1="-34.7835" x2="201.521" y2="79.8757" gradientUnits="userSpaceOnUse">
<stop offset="0.282986" stop-color="#1E866F"/>
<stop offset="1" stop-color="#B3E59F" stop-opacity="0.75"/>
</linearGradient>
</defs>
</svg>
