<svg width="31" height="31" viewBox="0 0 31 31" fill="none" xmlns="http://www.w3.org/2000/svg">
<path d="M25.1577 24.3026C25.4303 26.7035 23.7079 28.871 21.3139 29.1444C20.9813 29.1844 20.6422 29.1844 20.3097 29.1444H10.2347C9.49648 29.1644 8.75832 29.0443 8.0667 28.7909C7.52138 28.5708 7.24872 27.9506 7.46818 27.3971C7.68764 26.8502 8.3061 26.5768 8.85807 26.7969C9.30363 26.9503 9.76914 27.0236 10.2347 27.0036H20.3097C22.2449 27.0036 23.0363 26.2233 23.0363 24.3026C23.2557 21.6217 21.2673 19.2742 18.6006 19.0541C18.4742 19.0408 18.3412 19.0408 18.2149 19.0408C17.6297 19.0141 17.1774 18.5206 17.204 17.9337C17.204 17.9337 17.204 17.9337 17.204 17.927C17.2439 17.3468 17.7361 16.9 18.3146 16.9067C22.1318 16.9333 25.2042 20.0545 25.1843 23.8825C25.171 24.0159 25.1643 24.1626 25.1577 24.3026ZM7.18222 24.8829L1.83548 30.2514C1.40321 30.6516 0.731546 30.6316 0.332535 30.1981C-0.046525 29.7913 -0.046525 29.1511 0.332535 28.7442L5.41327 23.6491C5.47978 19.9678 8.43911 17 12.11 16.9333L14.2181 14.8192C11.3319 14.2324 9.46988 11.4113 10.0618 8.51697C10.647 5.6226 13.46 3.75526 16.3462 4.34881C18.441 4.77563 20.0769 6.41622 20.5025 8.51697L24.6855 4.32213C24.3064 3.82195 23.7146 3.52852 23.0895 3.52852C22.5907 3.52185 22.1052 3.70858 21.7461 4.0487C21.3405 4.47552 20.6621 4.48886 20.2432 4.07538C19.8176 3.66857 19.8043 2.98832 20.2166 2.56817C20.2299 2.54816 20.2498 2.53482 20.2698 2.52149C21.0279 1.78789 22.0454 1.38108 23.0961 1.39442C24.2865 1.39442 25.417 1.9146 26.1951 2.81493L28.7155 0.280682C29.1478 -0.119462 29.8194 -0.0994547 30.2185 0.334034C30.5975 0.740847 30.5975 1.38108 30.2185 1.78789L7.18222 24.8829ZM16.4725 12.5518L18.2348 10.7845C18.3878 10.4043 18.4742 9.99751 18.4742 9.59069C18.4809 7.81672 17.0511 6.3762 15.2821 6.3762C13.5132 6.36954 12.0768 7.80338 12.0768 9.57736C12.0701 11.3513 13.4999 12.7918 15.2688 12.7918C15.2755 12.7918 15.2755 12.7918 15.2821 12.7918C15.6945 12.7852 16.1001 12.7051 16.4725 12.5518ZM24.905 10.5444H24.5924C24.0072 10.5444 23.5284 11.0245 23.5284 11.6114C23.5284 12.1983 24.0072 12.6785 24.5924 12.6785H24.905C26.6673 12.5117 28.23 13.8122 28.3963 15.5862C28.4163 15.7863 28.4163 15.993 28.3963 16.1931C28.3963 17.4202 27.9574 17.8603 26.7205 17.8603H26.2084C25.6232 17.8603 25.1444 18.3405 25.1444 18.9274C25.1444 19.5143 25.6232 19.9944 26.2084 19.9944H26.7205C28.6158 20.1945 30.3182 18.8207 30.5244 16.9133C30.551 16.6732 30.551 16.4332 30.5244 16.1931C30.6906 13.2453 28.4429 10.7178 25.5035 10.5444C25.304 10.531 25.1045 10.531 24.905 10.5444ZM6.64356 9.62404C7.22212 9.74408 7.78074 9.37061 7.90044 8.79041C8.02014 8.2102 7.64773 7.65 7.06917 7.52995C5.97854 7.30987 5.27362 6.24282 5.49308 5.1491C5.68593 4.20209 6.5172 3.52185 7.48148 3.52852C7.98689 3.52852 8.47236 3.71525 8.83812 4.06204C9.26373 4.46885 9.9354 4.44885 10.3411 4.01536C10.7467 3.58854 10.7268 2.91496 10.2945 2.50815C9.53639 1.78789 8.52556 1.38775 7.48148 1.39442C5.19382 1.39442 3.33177 3.24841 3.33177 5.54924C3.32512 7.52328 4.715 9.23056 6.64356 9.62404ZM3.81723 19.9944H4.31599C4.90121 19.9944 5.38002 19.5143 5.38002 18.9274C5.38002 18.3405 4.90121 17.8603 4.31599 17.8603H3.81723C2.5803 17.8603 2.14138 17.4268 2.14138 16.1931C1.96848 14.4258 3.25861 12.8519 5.02091 12.6785C5.22042 12.6585 5.42657 12.6585 5.62608 12.6785H7.02927C7.61448 12.6785 8.0933 12.1983 8.0933 11.6114C8.0933 11.0245 7.61448 10.5444 7.02927 10.5444H5.63938C2.7266 10.351 0.212832 12.5651 0.0199768 15.4861C0.0066764 15.7196 0.0066764 15.953 0.0199768 16.1864C-0.172878 18.0871 1.20371 19.7944 3.10566 19.9878C3.33842 20.0144 3.58447 20.0144 3.81723 19.9944Z" fill="black" fill-opacity="0.1"/>
</svg>
