<svg width="18" height="18" viewBox="0 0 18 18" fill="none" xmlns="http://www.w3.org/2000/svg">
<path d="M8.60001 7.69795C8.60001 7.49005 8.51742 7.29067 8.37041 7.14366C8.22341 6.99665 8.02402 6.91406 7.81612 6.91406C7.60822 6.91406 7.40883 6.99665 7.26182 7.14366C7.11482 7.29067 7.03223 7.49005 7.03223 7.69795C7.03223 7.90586 7.11482 8.10524 7.26182 8.25225C7.40883 8.39926 7.60822 8.48185 7.81612 8.48185C8.02402 8.48185 8.22341 8.39926 8.37041 8.25225C8.51742 8.10524 8.60001 7.90586 8.60001 7.69795ZM11.4474 7.69795C11.4474 7.49005 11.3649 7.29067 11.2179 7.14366C11.0708 6.99665 10.8715 6.91406 10.6636 6.91406C10.4557 6.91406 10.2563 6.99665 10.1093 7.14366C9.96225 7.29067 9.87966 7.49005 9.87966 7.69795C9.87966 7.90586 9.96225 8.10524 10.1093 8.25225C10.2563 8.39926 10.4557 8.48185 10.6636 8.48185C10.8715 8.48185 11.0708 8.39926 11.2179 8.25225C11.3649 8.10524 11.4474 7.90586 11.4474 7.69795Z" fill="#1E866F"/>
<path d="M13.5114 8.48185C13.9444 8.48185 14.2953 8.13089 14.2953 7.69795C14.2953 7.26502 13.9444 6.91406 13.5114 6.91406C13.0785 6.91406 12.7275 7.26502 12.7275 7.69795C12.7275 8.13089 13.0785 8.48185 13.5114 8.48185Z" fill="#1E866F"/>
<path d="M15.4186 2H5.90899C5.50132 2.00204 5.10079 2.10724 4.74474 2.30581C4.38868 2.50437 4.08868 2.78983 3.87269 3.13558C3.80025 3.25821 3.77872 3.40432 3.8127 3.54263C3.84667 3.68093 3.93346 3.80044 4.05446 3.87554C4.17547 3.95064 4.32107 3.97538 4.46009 3.94444C4.59911 3.91351 4.72048 3.82937 4.79822 3.71004C4.91614 3.52149 5.0798 3.36581 5.27399 3.25744C5.46818 3.14907 5.68661 3.09154 5.90899 3.09019H15.4186C16.1462 3.09019 16.7382 3.68219 16.7382 4.40979V10.9836C16.7382 11.7112 16.1462 12.3032 15.4186 12.3032H12.6039C12.5317 12.3033 12.4602 12.3177 12.3936 12.3455C12.327 12.3734 12.2666 12.4141 12.2158 12.4654L10.7491 13.9509C10.7177 13.983 10.6553 13.9854 10.6638 13.9866C10.6481 13.9864 10.6326 13.9829 10.6183 13.9763C10.604 13.9697 10.5913 13.9602 10.5809 13.9485L9.10993 12.4654C9.05933 12.4143 8.99909 12.3737 8.9327 12.3459C8.86631 12.3182 8.79509 12.3039 8.72313 12.3038H5.90839C5.68543 12.3028 5.46635 12.2455 5.27151 12.1371C5.07667 12.0287 4.9124 11.8729 4.79399 11.6839C4.75547 11.6237 4.70546 11.5715 4.6468 11.5306C4.58815 11.4896 4.522 11.4606 4.45213 11.4452C4.38226 11.4298 4.31004 11.4283 4.2396 11.4408C4.16916 11.4533 4.10187 11.4796 4.04157 11.5181C3.98128 11.5566 3.92916 11.6066 3.88819 11.6653C3.84723 11.7239 3.81821 11.7901 3.80281 11.8599C3.78741 11.9298 3.78592 12.002 3.79843 12.0725C3.81094 12.1429 3.8372 12.2102 3.87571 12.2705C4.09228 12.614 4.39221 12.8971 4.74761 13.0936C5.10301 13.29 5.50232 13.3933 5.90839 13.394H8.49614L9.8 14.7087C10.0246 14.9442 10.3291 15.0744 10.6565 15.0762H10.6638C10.9864 15.0762 11.3018 14.9436 11.5258 14.7148L12.8302 13.3934H15.4174C16.0561 13.3926 16.6684 13.1385 17.1201 12.6869C17.5717 12.2352 17.8258 11.6229 17.8266 10.9842V4.40979C17.8264 3.77104 17.5727 3.15847 17.1212 2.70663C16.6697 2.25479 16.0574 2.00064 15.4186 2Z" fill="#1E866F"/>
<path d="M5.45457 9.55499C5.45457 9.4105 5.39717 9.27193 5.295 9.16976C5.19283 9.06759 5.05426 9.0102 4.90978 9.0102H2.78691C2.64242 9.0102 2.50385 9.06759 2.40169 9.16976C2.29952 9.27193 2.24212 9.4105 2.24212 9.55499C2.24212 9.69947 2.29952 9.83804 2.40169 9.94021C2.50385 10.0424 2.64242 10.0998 2.78691 10.0998H4.90978C5.05426 10.0998 5.19283 10.0424 5.295 9.94021C5.39717 9.83804 5.45457 9.69947 5.45457 9.55499ZM5.45457 7.69967C5.45457 7.55519 5.39717 7.41662 5.295 7.31445C5.19283 7.21228 5.05426 7.15488 4.90978 7.15488H2.16525C2.02076 7.15488 1.88219 7.21228 1.78002 7.31445C1.67785 7.41662 1.62046 7.55519 1.62046 7.69967C1.62046 7.84416 1.67785 7.98273 1.78002 8.0849C1.88219 8.18707 2.02076 8.24446 2.16525 8.24446H4.90917C4.98076 8.24454 5.05167 8.23051 5.11784 8.20317C5.18401 8.17582 5.24413 8.13571 5.29479 8.08511C5.34544 8.03452 5.38562 7.97443 5.41304 7.9083C5.44045 7.84216 5.45457 7.77127 5.45457 7.69967ZM5.45457 5.84557C5.45457 5.70108 5.39717 5.56251 5.295 5.46035C5.19283 5.35818 5.05426 5.30078 4.90978 5.30078H1.54479C1.4003 5.30078 1.26173 5.35818 1.15957 5.46035C1.0574 5.56251 1 5.70108 1 5.84557C1 5.99006 1.0574 6.12863 1.15957 6.2308C1.26173 6.33296 1.4003 6.39036 1.54479 6.39036H4.90978C4.98132 6.39036 5.05216 6.37627 5.11826 6.34889C5.18436 6.32151 5.24441 6.28138 5.295 6.2308C5.34559 6.18021 5.38572 6.12015 5.4131 6.05405C5.44047 5.98796 5.45457 5.91711 5.45457 5.84557Z" fill="#1E866F"/>
</svg>
