<svg width="16" height="18" viewBox="0 0 16 18" fill="none" xmlns="http://www.w3.org/2000/svg">
<path d="M2.65739 0.916761L2.65738 0.916711L2.65428 0.917562C2.62374 0.925938 2.59403 0.937878 2.56518 0.952949L2.56373 0.953343C2.55751 0.955135 2.54358 0.959305 2.52824 0.969072C2.51246 0.977285 2.50145 0.987116 2.49527 0.993049C2.49106 0.997085 2.48742 1.001 2.48564 1.00292L2.48539 1.00319C2.4839 1.00479 2.48342 1.0053 2.48342 1.0053L2.46929 1.01886C2.46929 1.01886 2.46929 1.01886 2.46929 1.01886C2.43644 1.05039 2.41228 1.08894 2.39516 1.12181L2.48343 1.16778L2.39516 1.12181C2.3926 1.12673 2.39056 1.13128 2.38886 1.13551C2.38835 1.13678 2.38789 1.138 2.38748 1.1391L2.38735 1.13904L2.38342 1.14911C2.36865 1.18692 2.35833 1.23077 2.35833 1.28V17.14H1.29167C1.07991 17.14 0.9 17.307 0.9 17.52C0.9 17.733 1.07991 17.9 1.29167 17.9H2.75C2.78652 17.9 2.82688 17.8957 2.86885 17.881L9.28338 15.9216L9.28338 15.9216L9.28464 15.9212C9.44163 15.871 9.55833 15.7308 9.55833 15.56V3.24C9.55833 3.07133 9.44355 2.92527 9.2828 2.87818C9.28257 2.87812 9.28233 2.87805 9.2821 2.87798L5.29694 1.66H12.8583V17.52C12.8583 17.733 13.0382 17.9 13.25 17.9H14.7083C14.9201 17.9 15.1 17.733 15.1 17.52C15.1 17.307 14.9201 17.14 14.7083 17.14H13.6417V1.28C13.6417 1.06696 13.4618 0.9 13.25 0.9H2.75C2.73 0.9 2.71328 0.90411 2.70103 0.9084C2.68377 0.910372 2.66891 0.913974 2.65974 0.916195C2.65891 0.916396 2.65813 0.916585 2.65739 0.916761ZM2.48387 1.00486L2.48387 1.00486C2.48387 1.00486 2.48387 1.00486 2.48387 1.00486L2.48387 1.00486ZM8.775 3.51702V15.283L3.14167 17.0034V1.7966L8.775 3.51702ZM7.60833 8.56V10.24C7.60833 10.453 7.78824 10.62 8 10.62C8.21176 10.62 8.39167 10.453 8.39167 10.24V8.56C8.39167 8.34696 8.21176 8.18 8 8.18C7.78824 8.18 7.60833 8.34696 7.60833 8.56Z" fill="#20886F" stroke="#20886F" stroke-width="0.2"/>
</svg>
