<svg width="14" height="14" viewBox="0 0 14 14" fill="none" xmlns="http://www.w3.org/2000/svg">
<path d="M7.58 13.5H1.625C1.5587 13.5 1.49511 13.4737 1.44822 13.4268C1.40134 13.3799 1.375 13.3163 1.375 13.25V0.75C1.375 0.683696 1.40134 0.620107 1.44822 0.573223C1.49511 0.526339 1.5587 0.5 1.625 0.5H9.625C9.6913 0.5 9.75489 0.526339 9.80178 0.573223C9.84866 0.620107 9.875 0.683696 9.875 0.75V7.25C9.875 7.3163 9.90134 7.37989 9.94822 7.42678C9.99511 7.47366 10.0587 7.5 10.125 7.5C10.1913 7.5 10.2549 7.47366 10.3018 7.42678C10.3487 7.37989 10.375 7.3163 10.375 7.25V0.75C10.3748 0.551149 10.2957 0.360498 10.1551 0.219889C10.0145 0.0792799 9.82385 0.000198554 9.625 0H1.625C1.42615 0.000198554 1.2355 0.0792799 1.09489 0.219889C0.95428 0.360498 0.875199 0.551149 0.875 0.75V13.25C0.875199 13.4489 0.95428 13.6395 1.09489 13.7801C1.2355 13.9207 1.42615 13.9998 1.625 14H7.58C7.6463 14 7.70989 13.9737 7.75678 13.9268C7.80366 13.8799 7.83 13.8163 7.83 13.75C7.83 13.6837 7.80366 13.6201 7.75678 13.5732C7.70989 13.5263 7.6463 13.5 7.58 13.5Z" fill="#1E866F"/>
<path d="M10.125 8C9.53166 8 8.95164 8.17595 8.45829 8.50559C7.96494 8.83524 7.58043 9.30377 7.35336 9.85195C7.1263 10.4001 7.06689 11.0033 7.18265 11.5853C7.2984 12.1672 7.58412 12.7018 8.00368 13.1213C8.42324 13.5409 8.95779 13.8266 9.53973 13.9424C10.1217 14.0581 10.7249 13.9987 11.2731 13.7716C11.8212 13.5446 12.2898 13.1601 12.6194 12.6667C12.9491 12.1734 13.125 11.5933 13.125 11C13.1243 10.2046 12.8081 9.44188 12.2456 8.87941C11.6831 8.31695 10.9204 8.00066 10.125 8ZM10.125 13.5C9.63055 13.5 9.1472 13.3534 8.73608 13.0787C8.32495 12.804 8.00452 12.4135 7.8153 11.9567C7.62608 11.4999 7.57658 10.9972 7.67304 10.5123C7.7695 10.0273 8.0076 9.58186 8.35723 9.23223C8.70687 8.8826 9.15232 8.6445 9.63728 8.54804C10.1222 8.45157 10.6249 8.50108 11.0817 8.6903C11.5385 8.87952 11.929 9.19995 12.2037 9.61107C12.4784 10.0222 12.625 10.5055 12.625 11C12.6239 11.6627 12.3602 12.298 11.8916 12.7666C11.423 13.2352 10.7877 13.4989 10.125 13.5Z" fill="#1E866F"/>
<path d="M10.125 11.7188C10.1913 11.7188 10.2549 11.6924 10.3018 11.6455C10.3487 11.5986 10.375 11.5351 10.375 11.4688V9.46875C10.375 9.40245 10.3487 9.33886 10.3018 9.29197C10.2549 9.24509 10.1913 9.21875 10.125 9.21875C10.0587 9.21875 9.9951 9.24509 9.94821 9.29197C9.90133 9.33886 9.87499 9.40245 9.87499 9.46875V11.4688C9.87499 11.5351 9.90133 11.5986 9.94821 11.6455C9.9951 11.6924 10.0587 11.7188 10.125 11.7188ZM10.125 12.155C10.0633 12.155 10.003 12.1733 9.95164 12.2075C9.9003 12.2417 9.86025 12.2904 9.83652 12.3473C9.8128 12.4043 9.80647 12.467 9.81832 12.5276C9.83018 12.5881 9.8597 12.6438 9.90315 12.6876C9.9466 12.7314 10.0021 12.7613 10.0625 12.7737C10.123 12.786 10.1857 12.7802 10.2429 12.7569C10.3 12.7337 10.349 12.694 10.3836 12.6429C10.4182 12.5919 10.437 12.5317 10.4375 12.47C10.4376 12.3869 10.4047 12.3071 10.3462 12.2481C10.2876 12.1891 10.2081 12.1556 10.125 12.155Z" fill="#1E866F"/>
</svg>
