<svg width="16" height="15" viewBox="0 0 16 15" fill="none" xmlns="http://www.w3.org/2000/svg">
<path d="M8.00437 7.0515C9.86697 7.0515 11.3769 5.54292 11.3769 3.682C11.3769 1.82108 9.86697 0.3125 8.00437 0.3125C6.14177 0.3125 4.63184 1.82108 4.63184 3.682C4.63184 5.54292 6.14177 7.0515 8.00437 7.0515Z" stroke="#1E866F" stroke-width="0.5" stroke-miterlimit="10" stroke-linecap="round" stroke-linejoin="round"/>
<path d="M12.3149 11.2334C11.5466 11.2334 10.9238 11.8556 10.9238 12.6232H13.706C13.706 11.8556 13.0832 11.2334 12.3149 11.2334Z" stroke="#1E866F" stroke-width="0.5" stroke-miterlimit="10" stroke-linecap="round" stroke-linejoin="round"/>
<path d="M12.3145 11.2332C12.8755 11.2332 13.3302 10.7788 13.3302 10.2184C13.3302 9.65795 12.8755 9.20361 12.3145 9.20361C11.7536 9.20361 11.2988 9.65795 11.2988 10.2184C11.2988 10.7788 11.7536 11.2332 12.3145 11.2332Z" stroke="#1E866F" stroke-width="0.5" stroke-miterlimit="10" stroke-linecap="round" stroke-linejoin="round"/>
<path d="M12.3149 14.4695C14.1775 14.4695 15.6874 12.9609 15.6874 11.1C15.6874 9.23905 14.1775 7.73047 12.3149 7.73047C10.4523 7.73047 8.94238 9.23905 8.94238 11.1C8.94238 12.9609 10.4523 14.4695 12.3149 14.4695Z" stroke="#1E866F" stroke-width="0.5" stroke-miterlimit="10" stroke-linecap="round" stroke-linejoin="round"/>
<path d="M3.68504 11.2334C2.91676 11.2334 2.29395 11.8556 2.29395 12.6232H5.07616C5.07613 11.8556 4.45332 11.2334 3.68504 11.2334Z" stroke="#1E866F" stroke-width="0.5" stroke-miterlimit="10" stroke-linecap="round" stroke-linejoin="round"/>
<path d="M3.68463 11.2332C4.24558 11.2332 4.70032 10.7788 4.70032 10.2184C4.70032 9.65795 4.24558 9.20361 3.68463 9.20361C3.12368 9.20361 2.66895 9.65795 2.66895 10.2184C2.66895 10.7788 3.12368 11.2332 3.68463 11.2332Z" stroke="#1E866F" stroke-width="0.5" stroke-miterlimit="10" stroke-linecap="round" stroke-linejoin="round"/>
<path d="M3.68503 14.4695C5.54763 14.4695 7.05756 12.9609 7.05756 11.1C7.05756 9.23905 5.54763 7.73047 3.68503 7.73047C1.82243 7.73047 0.3125 9.23905 0.3125 11.1C0.3125 12.9609 1.82243 14.4695 3.68503 14.4695Z" stroke="#1E866F" stroke-width="0.5" stroke-miterlimit="10" stroke-linecap="round" stroke-linejoin="round"/>
<path d="M8.76998 2.91602L7.23855 4.44752M8.76998 4.44752L7.23855 2.91602M7.16211 11.2331H8.83767M6.08783 6.4708L4.99805 7.9668M9.91195 6.4708L11.0017 7.9668" stroke="#1E866F" stroke-width="0.5" stroke-miterlimit="10" stroke-linecap="round" stroke-linejoin="round"/>
</svg>
