<svg width="12" height="12" viewBox="0 0 12 12" fill="none" xmlns="http://www.w3.org/2000/svg">
<path d="M1.71921 8.27836V4.79906M1.71921 3.97875V1.89656C1.71921 1.70977 1.79491 1.54078 1.91726 1.4182C2.03984 1.29586 2.20882 1.22016 2.39562 1.22016C2.76921 1.22016 3.07202 1.52297 3.07202 1.89656V6.1357M3.79315 0.874687V0.175781H3.12884M3.10882 2.80624H3.79315V2.10736M1.66252 0.175781H0.998203V0.874687M0.998203 2.10736V2.80624H1.65909M7.13979 8.59746C7.09107 9.05429 6.94442 9.49524 6.70983 9.89025C6.41454 10.3875 6.25971 10.9555 6.26187 11.5338V11.8242M1.75127 11.8242V11.2697C1.75127 10.6666 1.52531 10.0853 1.11795 9.64045C0.781402 9.27298 0.59473 8.79276 0.594727 8.29446V7.09451C0.594729 6.913 0.636499 6.73392 0.716804 6.57114C0.797108 6.40836 0.913794 6.26624 1.05783 6.15579C1.07519 6.14267 1.09312 6.13031 1.11157 6.11876L1.61273 5.80034M4.46126 6.57811V4.64639C4.46126 4.26277 4.77225 3.9518 5.15585 3.9518C5.26256 3.9518 5.36365 3.97587 5.45398 4.01885M3.07205 4.20391C3.07205 3.82029 3.38304 3.50932 3.76664 3.50932C4.15027 3.50932 4.46123 3.82031 4.46123 4.20391V4.64639M5.49195 7.80234V8.28609C5.49195 8.42273 5.6028 8.53359 5.73945 8.53359H9.10624M5.49195 6.98203V2.20219C5.49195 2.06555 5.6028 1.95469 5.73945 1.95469H11.1573C11.2939 1.95469 11.4048 2.06555 11.4048 2.20219V2.68898M11.4048 3.5093V8.28609C11.4048 8.42273 11.2939 8.53359 11.1573 8.53359H9.92656M6.5381 7.04967C7.10885 7.62042 8.03154 7.62145 8.60102 7.05197C9.15277 6.50023 9.16901 5.61696 8.65043 5.0434" stroke="#767676" stroke-width="0.3" stroke-miterlimit="10" stroke-linecap="round" stroke-linejoin="round"/>
<path d="M10.2381 7.20373C10.7115 6.13383 10.5082 4.83717 9.62902 3.95803C9.05827 3.38728 8.13558 3.38625 7.5661 3.95574C6.99661 4.52522 6.99762 5.44791 7.56839 6.01866" stroke="#767676" stroke-width="0.3" stroke-miterlimit="10" stroke-linecap="round" stroke-linejoin="round"/>
<path d="M9.74393 6.2642C9.69164 6.74075 9.48281 7.20317 9.11735 7.56864C9.07581 7.61019 9.03263 7.65008 8.98791 7.68819M10.1442 3.44389C9.2881 2.58774 7.90409 2.58622 7.04984 3.44047C6.19559 4.29472 6.19713 5.67873 7.05326 6.53488C7.33863 6.82025 7.79998 6.82077 8.08472 6.53603C8.36946 6.25128 8.36895 5.78994 8.08357 5.50456C7.7982 5.21919 7.79768 4.75785 8.08242 4.4731C8.36717 4.18836 8.82851 4.18888 9.11388 4.47425C9.37498 4.73535 9.55657 5.04552 9.65869 5.37479" stroke="#767676" stroke-width="0.3" stroke-miterlimit="10" stroke-linecap="round" stroke-linejoin="round"/>
</svg>
