<svg width="6" height="9" viewBox="0 0 6 9" fill="none" xmlns="http://www.w3.org/2000/svg">
<path d="M2.13393 0.917543C2.04687 1.03327 1.99985 1.17419 2 1.31901L2.00067 7.98568C2.00067 8.16249 2.0709 8.33206 2.19593 8.45708C2.32095 8.58211 2.49052 8.65234 2.66733 8.65234C2.84414 8.65234 3.01371 8.58211 3.13874 8.45708C3.26376 8.33206 3.334 8.16249 3.334 7.98568L3.334 2.95234L4.08067 3.69968C4.14256 3.76162 4.21605 3.81076 4.29694 3.8443C4.37783 3.87784 4.46453 3.89511 4.5521 3.89515C4.63966 3.89518 4.72638 3.87796 4.80729 3.84448C4.8882 3.811 4.96173 3.76191 5.02367 3.70001C5.08561 3.63811 5.13475 3.56462 5.16829 3.48374C5.20183 3.40285 5.2191 3.31614 5.21914 3.22858C5.21917 3.14101 5.20195 3.0543 5.16847 2.97339C5.13499 2.89247 5.0859 2.81895 5.024 2.75701L3.232 0.96501C3.15525 0.842205 3.04059 0.747732 2.90538 0.695877C2.77017 0.644022 2.62174 0.637606 2.48256 0.677599C2.34337 0.717592 2.22099 0.80182 2.13393 0.917543Z" fill="#FF9900"/>
<path d="M2.87519 0.918191C2.95632 1.03391 3.00014 1.17482 3 1.31962L2.99938 7.98573C2.99938 8.16253 2.93392 8.33208 2.81741 8.4571C2.70089 8.58211 2.54287 8.65234 2.37809 8.65234C2.21332 8.65234 2.05529 8.58211 1.93878 8.4571C1.82226 8.33208 1.75681 8.16253 1.75681 7.98573L1.75681 2.95282L1.06097 3.70009C1.00329 3.76203 0.934799 3.81116 0.859417 3.8447C0.784035 3.87824 0.703234 3.89551 0.621629 3.89554C0.540025 3.89558 0.459213 3.87836 0.383809 3.84488C0.308405 3.8114 0.239885 3.76232 0.182162 3.70043C0.124438 3.63853 0.0786414 3.56505 0.0473862 3.48417C0.0161307 3.40329 2.86102e-05 3.31659 0 3.22903C-2.88486e-05 3.14148 0.0160155 3.05477 0.0472178 2.97386C0.0784199 2.89296 0.124168 2.81944 0.181851 2.7575L1.85187 0.965654C1.92339 0.842859 2.03024 0.748394 2.15625 0.696544C2.28226 0.644693 2.42058 0.638278 2.55029 0.678267C2.68 0.718257 2.79405 0.802478 2.87519 0.918191Z" fill="#FF9900"/>
</svg>
