<svg width="77" height="48" viewBox="0 0 77 48" fill="none" xmlns="http://www.w3.org/2000/svg">
<g clip-path="url(#clip0_7520_498)">
<path d="M67.2746 18.0757L68.4635 12.2639C68.4979 12.096 68.4507 11.9301 68.3686 11.7821L63.2586 3.61309C63.1645 3.46261 63.0054 3.35508 62.8316 3.31953L52.5112 1.20817C50.6053 0.818267 48.7652 2.06025 48.375 3.96754L44.3786 23.5022C43.9884 25.4095 45.1978 27.2504 47.1037 27.6403L55.2546 29.3078C56.2709 32.1839 58.7249 34.4731 61.9133 35.1254C66.7619 36.1173 71.5236 32.986 72.5175 28.1278C73.3922 23.8826 71.0728 19.7151 67.2746 18.0757ZM63.0128 5.69988L66.4408 11.194L63.606 10.614C62.7609 10.4412 62.214 9.60441 62.387 8.75873L63.0128 5.69988ZM47.3651 26.3627C46.1664 26.1175 45.4098 24.9629 45.6552 23.7634L49.6516 4.2287C49.8982 3.02315 51.0512 2.24047 52.2498 2.48569L61.935 4.46708L61.1117 8.49157C60.7939 10.045 61.7923 11.574 63.3506 11.8928L67.0605 12.6517L66.0383 17.6479C65.8478 17.6026 65.6956 17.5528 65.5338 17.5197C63.3043 17.0635 61.0731 17.5007 59.252 18.5278L51.1191 16.864C50.7655 16.7917 50.4189 17.0207 50.3465 17.3746C50.2741 17.7284 50.5029 18.0752 50.8565 18.1475L57.7908 19.5661C57.204 20.1147 56.6964 20.6732 56.2579 21.3209L50.4504 20.1328C50.0968 20.0604 49.7502 20.2895 49.6778 20.6433C49.6054 20.9972 49.8342 21.344 50.1878 21.4163L55.5818 22.5198C55.2887 23.1284 55.06 23.819 54.914 24.5327C54.6784 25.6843 54.667 26.8693 54.8782 27.9123L47.3626 26.3747L47.3651 26.3627ZM62.1794 33.8551C58.0381 33.0078 55.3534 28.9468 56.2025 24.7964C57.0504 20.6519 61.1034 17.963 65.2568 18.8127C69.4102 19.6624 72.0828 23.721 71.2337 27.8714C70.3799 32.0147 66.3208 34.7023 62.1794 33.8551Z" fill="#1E866F"/>
<path d="M51.5135 14.9386L57.9922 16.2641C58.3458 16.3364 58.6924 16.1074 58.7648 15.7535C58.8372 15.3996 58.6084 15.0529 58.2548 14.9805L51.776 13.6551C51.4224 13.5828 51.0759 13.8118 51.0035 14.1657C50.9371 14.5208 51.1659 14.8675 51.5135 14.9386ZM67.0192 26.8653L63.8077 29.164L65.2372 22.1766C65.3096 21.8227 65.0808 21.476 64.7272 21.4037C64.3736 21.3313 64.027 21.5604 63.9546 21.9142L62.5252 28.9016L60.4565 25.5227C60.2635 25.2146 59.8597 25.1132 59.5517 25.3064C59.2436 25.4996 59.1434 25.8977 59.3376 26.1999L62.2541 30.9895C62.3482 31.14 62.5001 31.2523 62.6799 31.289C62.8597 31.3258 63.0434 31.2822 63.1891 31.1808L67.7582 27.9226C68.0567 27.715 68.1222 27.3034 67.9183 27.018C67.7157 26.7266 67.3164 26.6637 67.0192 26.8653Z" fill="#1E866F"/>
</g>
<g clip-path="url(#clip1_7520_498)">
<path d="M26.7845 24.5738L25.0345 8.14867L16.4252 1.19729L6.91593 2.21044C5.99883 2.30815 5.15811 2.76617 4.57872 3.48375C3.99932 4.20133 3.72872 5.11968 3.82643 6.03678L6.03694 26.7843C6.13465 27.7014 6.59267 28.5421 7.31025 29.1215C8.02783 29.7009 8.94618 29.9715 9.86328 29.8738L23.695 28.4002C24.6121 28.3024 25.4528 27.8444 26.0322 27.1268C26.6116 26.4093 26.8822 25.4909 26.7845 24.5738ZM16.9778 6.38417C17.0511 7.072 17.3947 7.70254 17.9328 8.13708C18.471 8.57163 19.1598 8.77458 19.8476 8.7013L23.3055 8.33288L25.0555 24.758C25.1044 25.2166 24.9691 25.6757 24.6794 26.0345C24.3897 26.3933 23.9693 26.6223 23.5108 26.6712L9.67907 28.1449C9.22052 28.1937 8.76135 28.0584 8.40256 27.7687C8.04377 27.479 7.81476 27.0587 7.7659 26.6001L5.55539 5.85257C5.50653 5.39402 5.64184 4.93485 5.93153 4.57606C6.22123 4.21727 6.64159 3.98826 7.10014 3.9394L16.6094 2.92625L16.9778 6.38417Z" fill="#1E866F"/>
<path d="M10.5536 26.4553C10.2022 26.3564 9.90297 26.125 9.71891 25.8098C9.31028 25.1749 9.35119 24.492 9.65422 23.8897C9.94001 23.3225 10.459 22.8108 11.0601 22.3638C11.8235 21.8164 12.6426 21.3511 13.5036 20.9756C14.063 19.6581 14.5393 18.3067 14.9296 16.9296C14.5352 16.242 14.2064 15.5189 13.9476 14.7698C13.7252 14.0941 13.5952 13.4155 13.6588 12.8142C13.7232 12.1883 14.0087 11.6018 14.631 11.2715C14.9488 11.103 15.3005 10.9903 15.6576 11.0275C15.8373 11.0462 16.0106 11.1046 16.1648 11.1985C16.3191 11.2925 16.4505 11.4196 16.5496 11.5707C16.7319 11.838 16.8226 12.1641 16.8683 12.4775C16.915 12.8012 16.9205 13.1643 16.9001 13.5477C16.8488 14.4449 16.6422 15.5581 16.3315 16.7452C16.9172 17.7145 17.5882 18.6297 18.3365 19.4798C19.0996 19.337 19.8767 19.2835 20.6521 19.3205C21.2936 19.3675 21.9571 19.5224 22.3976 19.9476C22.6316 20.1745 22.7902 20.4653 22.8388 20.8063C22.8863 21.137 22.8279 21.4755 22.7039 21.8052C22.5985 22.1097 22.4137 22.3805 22.1685 22.5896C21.9252 22.788 21.6255 22.9044 21.3121 22.9222C20.7373 22.9589 20.1453 22.7038 19.6222 22.3731C18.984 21.9506 18.3967 21.4557 17.8721 20.8984C16.7171 21.1556 15.5867 21.5136 14.4942 21.9682C14.0751 22.9395 13.5784 23.8754 13.0088 24.7668C12.5684 25.4257 12.0767 26.0132 11.551 26.2983C11.2503 26.4748 10.8939 26.5309 10.5536 26.4553ZM12.5876 22.9145C12.3146 23.0765 12.0631 23.2431 11.8379 23.4105C11.3065 23.8064 10.973 24.1724 10.82 24.4754C10.6842 24.7435 10.7001 24.9254 10.8173 25.107C10.8387 25.1432 10.8585 25.1655 10.8704 25.1783C10.8904 25.1706 10.9099 25.1615 10.9287 25.1511C11.1552 25.029 11.4992 24.6794 11.9212 24.0451C12.1606 23.6787 12.383 23.3014 12.5876 22.9145ZM15.1781 20.3129C15.7411 20.1166 16.3118 19.9432 16.8888 19.7931C16.5227 19.3449 16.1757 18.8813 15.849 18.4036C15.6431 19.0456 15.4194 19.6817 15.1779 20.3111L15.1781 20.3129ZM19.49 20.6403C19.7794 20.8945 20.0571 21.1045 20.3177 21.2691C20.7676 21.5533 21.068 21.6315 21.2259 21.6199C21.2686 21.6209 21.3103 21.6072 21.3441 21.5811C21.41 21.5166 21.458 21.4362 21.4836 21.3477C21.5339 21.2358 21.5562 21.1134 21.5488 20.991C21.5435 20.9505 21.5233 20.9134 21.4922 20.8869C21.3909 20.7893 21.1184 20.6609 20.5581 20.6209C20.2022 20.5997 19.8451 20.6068 19.4902 20.642L19.49 20.6403ZM15.4036 14.9451C15.4991 14.4603 15.5636 13.9698 15.5968 13.4767C15.6158 13.146 15.608 12.8758 15.5769 12.6658C15.565 12.5493 15.534 12.4357 15.4851 12.3293C15.3997 12.3492 15.3178 12.3815 15.2418 12.4252C15.0978 12.5017 14.9881 12.6376 14.955 12.9506C14.9212 13.2899 14.9895 13.767 15.186 14.3633C15.2479 14.5508 15.3211 14.7458 15.4053 14.945L15.4036 14.9451Z" fill="#1E866F"/>
</g>
<path d="M49.459 12.4509H24.5975C23.9381 12.4509 23.3057 12.7129 22.8395 13.1791C22.3733 13.6453 22.1113 14.2777 22.1113 14.9371V39.7986C22.1113 40.458 22.3733 41.0903 22.8395 41.5566C23.3057 42.0228 23.9381 42.2847 24.5975 42.2847H49.459C50.1184 42.2847 50.7507 42.0228 51.217 41.5566C51.6832 41.0903 51.9451 40.458 51.9451 39.7986V14.9371C51.9451 14.2777 51.6832 13.6453 51.217 13.1791C50.7507 12.7129 50.1184 12.4509 49.459 12.4509Z" fill="white" stroke="#1E866F" stroke-width="1.2" stroke-linecap="round" stroke-linejoin="round"/>
<path d="M32.0559 26.5391C33.1549 26.5391 34.2088 26.1026 34.9859 25.3255C35.763 24.5484 36.1995 23.4945 36.1995 22.3955C36.1995 21.2966 35.763 20.2427 34.9859 19.4656C34.2088 18.6885 33.1549 18.252 32.0559 18.252C30.957 18.252 29.903 18.6885 29.126 19.4656C28.3489 20.2427 27.9123 21.2966 27.9123 22.3955C27.9123 23.4945 28.3489 24.5484 29.126 25.3255C29.903 26.1026 30.957 26.5391 32.0559 26.5391ZM51.9451 37.3124L42.8293 29.0253L34.5421 36.4837L28.7411 31.5114L22.1113 36.4837" fill="white"/>
<path d="M51.9451 37.3124L42.8293 29.0253L34.5421 36.4837L28.7411 31.5114L22.1113 36.4837M32.0559 26.5391C33.1549 26.5391 34.2088 26.1026 34.9859 25.3255C35.763 24.5484 36.1995 23.4945 36.1995 22.3955C36.1995 21.2966 35.763 20.2427 34.9859 19.4656C34.2088 18.6885 33.1549 18.252 32.0559 18.252C30.957 18.252 29.903 18.6885 29.126 19.4656C28.3489 20.2427 27.9123 21.2966 27.9123 22.3955C27.9123 23.4945 28.3489 24.5484 29.126 25.3255C29.903 26.1026 30.957 26.5391 32.0559 26.5391Z" stroke="#1E866F" stroke-width="1.2" stroke-linecap="round" stroke-linejoin="round"/>
<defs>
<clipPath id="clip0_7520_498">
<rect width="28.495" height="31.3445" fill="white" transform="translate(49.083 0.506836) rotate(11.562)"/>
</clipPath>
<clipPath id="clip1_7520_498">
<rect width="27.82" height="27.82" fill="white" transform="translate(0 2.94727) rotate(-6.08154)"/>
</clipPath>
</defs>
</svg>
