<svg width="16" height="12" viewBox="0 0 16 12" fill="none" xmlns="http://www.w3.org/2000/svg">
<path d="M15.4839 0.880859H0.516129C0.231484 0.880859 0 1.11049 0 1.39286V10.6089C0 10.8912 0.231484 11.1209 0.516129 11.1209H15.4839C15.7685 11.1209 16 10.8912 16 10.6089V1.39286C16 1.11049 15.7685 0.880859 15.4839 0.880859ZM15.4831 10.6089H0.516129V1.39286H15.4839L15.4831 10.6089Z" fill="#1E866F"/>
<path d="M14.9677 1.9043H1.03223V10.0963H14.9677V1.9043ZM14.4516 9.5843H1.54836V2.4163H14.4516V9.5843Z" fill="#1E866F"/>
<path d="M13.4193 2.92773H13.9354V3.43973H13.4193V2.92773ZM2.06445 2.92773H2.58058V3.43973H2.06445V2.92773ZM13.4193 8.55973H13.9354V9.07173H13.4193V8.55973ZM2.06445 8.55973H2.58058V9.07173H2.06445V8.55973ZM2.32252 6.51173C2.32252 6.85074 2.45623 7.17199 2.70129 7.41849C2.94752 7.65913 3.27136 7.79173 3.61284 7.79173C4.32429 7.79173 4.90316 7.21749 4.90316 6.51173H4.38703C4.38703 6.93509 4.03961 7.27973 3.61284 7.27973C3.40768 7.27973 3.21265 7.19961 3.06623 7.05647C2.91942 6.90873 2.83865 6.71525 2.83865 6.51173V5.48773C2.83865 5.06437 3.18607 4.71973 3.61284 4.71973C3.818 4.71973 4.01303 4.79986 4.15945 4.943C4.30626 5.09074 4.38703 5.28421 4.38703 5.48773H4.90316C4.90316 5.14873 4.76945 4.82748 4.52439 4.58098C4.27816 4.34034 3.95432 4.20773 3.61284 4.20773C2.90139 4.20773 2.32252 4.78197 2.32252 5.48773V6.51173ZM5.41929 5.74373H6.96768V6.25573H5.41929V5.74373ZM8.51607 4.97573V5.48773C8.51607 5.62873 8.40039 5.74373 8.258 5.74373H7.48381V6.25573H8.258C8.40039 6.25573 8.51607 6.37074 8.51607 6.51173V7.02373C8.51607 7.16473 8.40039 7.27973 8.258 7.27973H6.96768V7.79173H8.258C8.68478 7.79173 9.0322 7.44709 9.0322 7.02373V6.51173C9.0322 6.31436 8.95458 6.13599 8.83097 5.99973C8.95484 5.86348 9.0322 5.68511 9.0322 5.48773V4.97573C9.0322 4.55237 8.68478 4.20773 8.258 4.20773H6.96768V4.71973H8.258C8.40039 4.71973 8.51607 4.83474 8.51607 4.97573ZM11.6128 7.27973H10.1713L11.1733 6.28572C11.4525 6.00873 11.6128 5.6245 11.6128 5.23173C11.6128 4.95861 11.5055 4.70162 11.3102 4.50799C11.115 4.31449 10.8556 4.20773 10.5806 4.20773C10.0113 4.20773 9.54832 4.667 9.54832 5.23173V5.48773H10.0645V5.23173C10.0645 4.94937 10.2959 4.71973 10.5806 4.71973C10.7179 4.71973 10.8475 4.77298 10.9453 4.86997C11.0431 4.96697 11.0967 5.09525 11.0967 5.23173C11.0967 5.48975 10.9916 5.74197 10.8084 5.92373L9.54832 7.17375V7.79173H11.6128V7.27973ZM13.6774 7.27973H13.1612V4.20773H12.129V4.71973H12.6451V7.27973H12.129V7.79173H13.6774V7.27973Z" fill="#1E866F"/>
</svg>
