<svg width="13" height="18" viewBox="0 0 13 18" fill="none" xmlns="http://www.w3.org/2000/svg">
<path d="M11.4569 1.66705H9.76519V1.31303C9.76519 1.18942 9.66473 1.08896 9.54112 1.08896H7.55328C7.44311 0.471286 6.90012 0 6.25295 0C5.60577 0 5.06278 0.471286 4.95261 1.08896H2.96477C2.84116 1.08896 2.74071 1.18942 2.74071 1.31303V1.66705H1.049C0.47054 1.66705 0 2.13759 0 2.71643V16.9506C0 17.5291 0.47054 18 1.049 18H11.4573C12.0357 18 12.5063 17.5295 12.5063 16.9506V2.71643C12.5063 2.13759 12.0354 1.66705 11.4569 1.66705ZM3.18884 1.5371H5.15614C5.27938 1.5371 5.37946 1.43776 5.38021 1.31452C5.38357 0.836888 5.77494 0.448133 6.25295 0.448133C6.73095 0.448133 7.12232 0.836888 7.12568 1.31452C7.12643 1.43776 7.22651 1.5371 7.34975 1.5371H9.31705V3.41178C9.31705 3.63622 9.13444 3.81884 8.91 3.81884H3.59552C3.37108 3.81884 3.18846 3.63622 3.18846 3.41178V1.5371H3.18884ZM3.59552 4.26697H8.91C9.38129 4.26697 9.76519 3.88344 9.76519 3.41178V3.20415H10.9688V16.4625H1.5371V3.20452H2.74071V3.41216C2.74071 3.88344 3.12423 4.26697 3.59552 4.26697ZM12.0581 16.9506C12.0581 17.2822 11.7885 17.5519 11.4573 17.5519H1.049C0.717386 17.5519 0.448133 17.2822 0.448133 16.9506V2.71643C0.448133 2.38481 0.717759 2.11519 1.049 2.11519H2.74071V2.75639H1.31303C1.18942 2.75639 1.08896 2.85685 1.08896 2.98046V16.687C1.08896 16.8106 1.18942 16.911 1.31303 16.911H11.1932C11.3168 16.911 11.4173 16.8106 11.4173 16.687V2.98046C11.4173 2.85685 11.3168 2.75639 11.1932 2.75639H9.76556V2.11519H11.4573C11.7889 2.11519 12.0581 2.38481 12.0581 2.71643V16.9506ZM4.33792 10.6626H3.26129C2.98419 10.6626 2.75863 10.8881 2.75863 11.1652V12.2419C2.75863 12.519 2.98419 12.7445 3.26129 12.7445H4.33792C4.61502 12.7445 4.84058 12.519 4.84058 12.2419V11.1652C4.84058 10.8881 4.61502 10.6626 4.33792 10.6626ZM4.39245 12.2419C4.39245 12.2714 4.36743 12.2964 4.33792 12.2964H3.26129C3.23178 12.2964 3.20676 12.2714 3.20676 12.2419V11.1652C3.20676 11.1357 3.23178 11.1107 3.26129 11.1107H4.33792C4.36743 11.1107 4.39245 11.1357 4.39245 11.1652V12.2419ZM5.50531 12.2673C5.50531 12.1437 5.60577 12.0432 5.72938 12.0432H8.44917C8.57278 12.0432 8.67324 12.1437 8.67324 12.2673C8.67324 12.3909 8.57278 12.4913 8.44917 12.4913H5.72938C5.60577 12.4913 5.50531 12.3909 5.50531 12.2673ZM9.86303 11.1398C9.86303 11.2634 9.76257 11.3639 9.63896 11.3639H5.72938C5.60577 11.3639 5.50531 11.2634 5.50531 11.1398C5.50531 11.0162 5.60577 10.9158 5.72938 10.9158H9.63896C9.76257 10.9158 9.86303 11.0162 9.86303 11.1398ZM4.33792 13.4925H3.26129C2.98419 13.4925 2.75863 13.7181 2.75863 13.9952V15.0718C2.75863 15.3489 2.98419 15.5745 3.26129 15.5745H4.33792C4.61502 15.5745 4.84058 15.3489 4.84058 15.0718V13.9952C4.84058 13.7177 4.61502 13.4925 4.33792 13.4925ZM4.39245 15.0715C4.39245 15.101 4.36743 15.126 4.33792 15.126H3.26129C3.23178 15.126 3.20676 15.101 3.20676 15.0715V13.9948C3.20676 13.9653 3.23178 13.9403 3.26129 13.9403H4.33792C4.36743 13.9403 4.39245 13.9653 4.39245 13.9948V15.0715ZM8.67324 15.0968C8.67324 15.2205 8.57278 15.3209 8.44917 15.3209H5.72938C5.60577 15.3209 5.50531 15.2205 5.50531 15.0968C5.50531 14.9732 5.60577 14.8728 5.72938 14.8728H8.44917C8.57315 14.8728 8.67324 14.9732 8.67324 15.0968ZM9.86303 13.9694C9.86303 14.093 9.76257 14.1935 9.63896 14.1935H5.72938C5.60577 14.1935 5.50531 14.093 5.50531 13.9694C5.50531 13.8458 5.60577 13.7454 5.72938 13.7454H9.63896C9.76257 13.7454 9.86303 13.8458 9.86303 13.9694ZM2.37697 7.47896V8.38344C2.37697 8.73486 2.66266 9.02054 3.01407 9.02054H3.41963C3.53166 9.41116 3.89166 9.69797 4.31776 9.69797C4.74386 9.69797 5.10386 9.41116 5.21589 9.02054H7.29C7.40203 9.41116 7.76203 9.69797 8.18813 9.69797C8.61423 9.69797 8.97423 9.41116 9.08626 9.02054H9.49183C9.84324 9.02054 10.1289 8.73486 10.1289 8.38344V7.47896C10.1289 7.12755 9.84324 6.84187 9.49183 6.84187H9.13257L7.95585 5.37871C7.84008 5.23494 7.67502 5.15577 7.49017 5.15577H5.01573C4.83124 5.15577 4.66581 5.23494 4.55004 5.37871L3.37332 6.84187H3.01407C2.66266 6.84187 2.37697 7.12755 2.37697 7.47896ZM4.31776 9.24946C4.04963 9.24946 3.83154 9.03137 3.83154 8.76324C3.83154 8.4951 4.04963 8.27701 4.31776 8.27701C4.58589 8.27701 4.80398 8.4951 4.80398 8.76324C4.80398 9.03137 4.58589 9.24946 4.31776 9.24946ZM8.18813 9.24946C7.92 9.24946 7.70191 9.03137 7.70191 8.76324C7.70191 8.4951 7.92 8.27701 8.18813 8.27701C8.45627 8.27701 8.67436 8.4951 8.67436 8.76324C8.67436 9.03137 8.45627 9.24946 8.18813 9.24946ZM7.60668 5.65954L8.55747 6.84187H6.47701V5.6039H7.49017C7.53909 5.60353 7.57606 5.62145 7.60668 5.65954ZM4.89921 5.65954C4.92983 5.62145 4.9668 5.6039 5.01573 5.6039H6.02888V6.84187H3.94842L4.89921 5.65954ZM2.8251 7.47896C2.8251 7.37477 2.90988 7.29 3.01407 7.29H9.49183C9.59602 7.29 9.68079 7.37477 9.68079 7.47896V8.38344C9.68079 8.48764 9.59602 8.57241 9.49183 8.57241H9.10307C9.01456 8.14855 8.63813 7.82888 8.18851 7.82888C7.73888 7.82888 7.36207 8.14817 7.27394 8.57241H5.23307C5.14456 8.14855 4.76813 7.82888 4.31851 7.82888C3.86888 7.82888 3.49207 8.14817 3.40394 8.57241H3.01519C2.911 8.57241 2.82622 8.48764 2.82622 8.38344V7.47896H2.8251Z" fill="#1E866F"/>
</svg>
