<svg width="16" height="16" viewBox="0 0 16 16" fill="none" xmlns="http://www.w3.org/2000/svg">
<path d="M8.11753 10.5039C8.11753 10.4376 8.09119 10.374 8.0443 10.3271C7.99742 10.2802 7.93383 10.2539 7.86753 10.2539H5.06578L5.24953 9.75391H7.75003C7.81633 9.75391 7.87992 9.72757 7.92681 9.68068C7.97369 9.6338 8.00003 9.57021 8.00003 9.50391C8.00003 9.4376 7.97369 9.37401 7.92681 9.32713C7.87992 9.28024 7.81633 9.25391 7.75003 9.25391H5.07503C5.02384 9.25389 4.97388 9.26958 4.9319 9.29886C4.88992 9.32815 4.85794 9.36961 4.84028 9.41766L4.53303 10.2539H2.25003C2.05118 10.2537 1.86053 10.1746 1.71992 10.034C1.57931 9.89341 1.50023 9.70276 1.50003 9.50391V7.05641C1.49892 6.96378 1.51746 6.87197 1.55444 6.78703C1.59141 6.70209 1.64598 6.62596 1.71453 6.56366C1.99503 6.33091 2.81453 5.64141 3.17078 5.25366H12.829C13.1848 5.64066 14.0028 6.32866 14.2715 6.55166C14.3702 6.63901 14.4419 6.75259 14.4785 6.87916C14.4776 6.91858 14.4858 6.95769 14.5023 6.99348C14.5188 7.02928 14.5434 7.0608 14.574 7.08565C14.6046 7.1105 14.6405 7.128 14.679 7.13682C14.7174 7.14564 14.7573 7.14554 14.7957 7.13653C14.8341 7.12752 14.8699 7.10984 14.9004 7.08484C14.9309 7.05984 14.9553 7.02819 14.9717 6.99231C14.988 6.95643 14.996 6.91729 14.9949 6.87787C14.9938 6.83845 14.9836 6.79981 14.9653 6.76491C14.9048 6.53866 14.7795 6.33505 14.6048 6.17916C14.1088 5.76691 13.5525 5.27766 13.2785 5.00391H14.07C14.2504 5.00391 14.4233 4.93226 14.5509 4.80474C14.6784 4.67721 14.75 4.50425 14.75 4.32391C14.75 4.14356 14.6784 3.9706 14.5509 3.84307C14.4233 3.71555 14.2504 3.64391 14.07 3.64391H13.2125C13.025 3.64417 12.8415 3.69795 12.6835 3.79891C12.4478 3.20789 12.2159 2.61538 11.9878 2.02141C11.8922 1.79395 11.7317 1.59976 11.5262 1.46322C11.3207 1.32668 11.0795 1.25386 10.8328 1.25391H5.16753C4.91943 1.25421 4.67699 1.328 4.4708 1.46598C4.26462 1.60396 4.10393 1.79993 4.00903 2.02916C3.782 2.62055 3.55116 3.21048 3.31653 3.79891C3.15854 3.69795 2.97502 3.64417 2.78753 3.64391H1.93003C1.74968 3.64391 1.57672 3.71555 1.4492 3.84307C1.32167 3.9706 1.25003 4.14356 1.25003 4.32391C1.25003 4.50425 1.32167 4.67721 1.4492 4.80474C1.57672 4.93226 1.74968 5.00391 1.93003 5.00391H2.72153C2.44653 5.27866 1.88803 5.76991 1.38153 6.19141C1.26043 6.30039 1.16381 6.43382 1.09805 6.58287C1.03229 6.73193 0.998884 6.89324 1.00003 7.05616V9.50366C1.00084 9.77161 1.08856 10.0321 1.25003 10.2459V11.5034C1.25023 11.7023 1.32931 11.8929 1.46992 12.0335C1.61053 12.1741 1.80118 12.2532 2.00003 12.2534H3.50003C3.69888 12.2532 3.88953 12.1741 4.03014 12.0335C4.17075 11.8929 4.24983 11.7023 4.25003 11.5034V10.7534H7.86753C7.93383 10.7534 7.99742 10.7271 8.0443 10.6802C8.09119 10.6333 8.11753 10.5697 8.11753 10.5034V10.5039ZM13.2125 4.14391H14.07C14.1178 4.14391 14.1636 4.16287 14.1973 4.19663C14.2311 4.23038 14.25 4.27617 14.25 4.32391C14.25 4.37165 14.2311 4.41743 14.1973 4.45119C14.1636 4.48494 14.1178 4.50391 14.07 4.50391H12.9715C12.9428 4.43566 12.9115 4.36141 12.8773 4.27766C12.9681 4.19248 13.088 4.14472 13.2125 4.14391ZM4.47253 2.21641C4.52997 2.07946 4.62657 1.96251 4.75021 1.88023C4.87384 1.79796 5.01902 1.75401 5.16753 1.75391H10.8325C10.9797 1.75363 11.1236 1.79655 11.2466 1.87734C11.3696 1.95813 11.4661 2.07325 11.5243 2.20841C11.6073 2.42466 12.2268 4.03441 12.5355 4.75391H3.46478C3.77303 4.03541 4.39228 2.42591 4.47278 2.21641H4.47253ZM1.93003 4.50391C1.88229 4.50391 1.83651 4.48494 1.80275 4.45119C1.76899 4.41743 1.75003 4.37165 1.75003 4.32391C1.75003 4.27617 1.76899 4.23038 1.80275 4.19663C1.83651 4.16287 1.88229 4.14391 1.93003 4.14391H2.78753C2.91214 4.14463 3.03189 4.1924 3.12278 4.27766C3.09175 4.35323 3.06033 4.42865 3.02853 4.50391H1.93003ZM3.75003 11.5039C3.74996 11.5702 3.7236 11.6337 3.67673 11.6806C3.62986 11.7275 3.56631 11.7538 3.50003 11.7539H2.00003C1.93374 11.7538 1.87019 11.7275 1.82332 11.6806C1.77646 11.6337 1.75009 11.5702 1.75003 11.5039V10.6477C2.06503 10.8337 3.33578 10.7277 3.75003 10.7537V11.5039Z" fill="#1E866F"/>
<path d="M4.2325 6.75391H2.25C2.1837 6.75391 2.12011 6.78025 2.07322 6.82713C2.02634 6.87401 2 6.9376 2 7.00391C2.0004 7.3353 2.13222 7.65302 2.36655 7.88735C2.60089 8.12169 2.9186 8.25351 3.25 8.25391H4.9C4.94506 8.25336 4.98916 8.24073 5.02767 8.21733C5.06619 8.19393 5.09772 8.16062 5.11897 8.12088C5.14022 8.08114 5.15041 8.03642 5.14848 7.99139C5.14655 7.94637 5.13257 7.90269 5.108 7.86491L4.4405 6.86491C4.41762 6.83074 4.38667 6.80274 4.35039 6.78338C4.31411 6.76402 4.27362 6.75389 4.2325 6.75391ZM3.25 7.75391C3.09489 7.75377 2.94362 7.70564 2.81695 7.61612C2.69028 7.5266 2.59441 7.40007 2.5425 7.25391H4.09875L4.4325 7.75391H3.25ZM8.6725 6.75391H5.4325C5.38724 6.7539 5.34283 6.76618 5.304 6.78944C5.26517 6.8127 5.23338 6.84606 5.21203 6.88597C5.19068 6.92587 5.18056 6.97083 5.18276 7.01604C5.18495 7.06124 5.19938 7.10501 5.2245 7.14266L5.892 8.14266C5.91485 8.17687 5.94579 8.20492 5.98207 8.22433C6.01835 8.24373 6.05886 8.25389 6.1 8.25391H8.0625C8.1288 8.25391 8.19239 8.22757 8.23928 8.18068C8.28616 8.1338 8.3125 8.07021 8.3125 8.00391C8.3125 7.9376 8.28616 7.87401 8.23928 7.82713C8.19239 7.78025 8.1288 7.75391 8.0625 7.75391H6.234L5.90025 7.25391H8.67275C8.73905 7.25391 8.80264 7.22757 8.84953 7.18068C8.89641 7.1338 8.92275 7.07021 8.92275 7.00391C8.92275 6.9376 8.89641 6.87401 8.84953 6.82713C8.80264 6.78025 8.73905 6.75391 8.67275 6.75391H8.6725Z" fill="#1E866F"/>
<path d="M11.7499 6.30372C11.1714 6.30253 10.6032 6.45609 10.104 6.74848C9.60486 7.04086 9.19299 7.46144 8.91111 7.9666C8.62923 8.47176 8.48759 9.04312 8.50088 9.62145C8.51416 10.1998 8.68189 10.764 8.98667 11.2557L6.77567 13.467C6.67059 13.5718 6.59903 13.7055 6.57006 13.8511C6.5411 13.9966 6.55604 14.1475 6.61299 14.2846C6.66994 14.4217 6.76633 14.5387 6.88992 14.6209C7.01352 14.7031 7.15875 14.7467 7.30717 14.7462C7.40545 14.7465 7.50282 14.7273 7.59369 14.6899C7.68455 14.6524 7.76713 14.5974 7.83667 14.528L10.0477 12.317C10.4752 12.5804 10.958 12.7411 11.4582 12.7864C11.9583 12.8318 12.4622 12.7606 12.9301 12.5783C13.3981 12.3961 13.8174 12.1078 14.1551 11.7362C14.4929 11.3645 14.7399 10.9196 14.8767 10.4364C15.0134 9.9532 15.0363 9.44486 14.9435 8.95133C14.8507 8.45779 14.6447 7.9925 14.3417 7.59202C14.0387 7.19153 13.6469 6.86677 13.1972 6.64323C12.7475 6.41969 12.2521 6.30348 11.7499 6.30372ZM7.48317 14.1745C7.43623 14.2214 7.37256 14.2478 7.30617 14.2478C7.23979 14.2478 7.17612 14.2214 7.12917 14.1745C7.08223 14.1275 7.05586 14.0639 7.05586 13.9975C7.05586 13.9311 7.08223 13.8674 7.12917 13.8205L9.28417 11.6652C9.39297 11.7921 9.51132 11.9104 9.63817 12.0192L7.48317 14.1745ZM11.7499 12.3037C11.206 12.3037 10.6743 12.1424 10.2221 11.8403C9.76987 11.5381 9.4174 11.1086 9.20925 10.6061C9.00111 10.1036 8.94665 9.55067 9.05276 9.01722C9.15887 8.48377 9.42078 7.99377 9.80538 7.60917C10.19 7.22458 10.68 6.96267 11.2134 6.85656C11.7469 6.75045 12.2998 6.80491 12.8023 7.01305C13.3048 7.22119 13.7343 7.57366 14.0365 8.0259C14.3386 8.47814 14.4999 9.00982 14.4999 9.55372C14.4991 10.2828 14.2091 10.9818 13.6936 11.4974C13.178 12.0129 12.479 12.3029 11.7499 12.3037Z" fill="#1E866F"/>
<path d="M12.6984 8.62735L11.3751 9.95035L10.8019 9.3771C10.7788 9.35323 10.7512 9.33418 10.7207 9.32108C10.6902 9.30798 10.6574 9.30108 10.6242 9.30079C10.591 9.3005 10.5581 9.30683 10.5274 9.3194C10.4967 9.33197 10.4688 9.35053 10.4453 9.37401C10.4218 9.39748 10.4033 9.42539 10.3907 9.45612C10.3781 9.48684 10.3718 9.51976 10.3721 9.55295C10.3724 9.58615 10.3793 9.61895 10.3924 9.64945C10.4055 9.67996 10.4245 9.70754 10.4484 9.7306L11.1984 10.4806C11.2453 10.5275 11.3089 10.5538 11.3751 10.5538C11.4414 10.5538 11.505 10.5275 11.5519 10.4806L13.0519 8.9806C13.0758 8.95754 13.0948 8.92996 13.1079 8.89945C13.121 8.86895 13.1279 8.83615 13.1282 8.80295C13.1285 8.76976 13.1222 8.73684 13.1096 8.70612C13.097 8.67539 13.0785 8.64748 13.055 8.62401C13.0315 8.60053 13.0036 8.58197 12.9729 8.5694C12.9422 8.55683 12.9092 8.5505 12.876 8.55079C12.8428 8.55108 12.81 8.55798 12.7795 8.57108C12.749 8.58418 12.7215 8.60348 12.6984 8.62735Z" fill="#1E866F"/>
</svg>
