<svg width="24" height="24" viewBox="0 0 24 24" fill="none" xmlns="http://www.w3.org/2000/svg">
<g clip-path="url(#clip0_9724_2471)">
<path d="M5.78531 14.2327C4.96172 14.2327 4.29187 14.9025 4.29187 15.7261C4.29187 16.5497 4.96172 17.2195 5.78531 17.2195C6.60891 17.2195 7.27875 16.5497 7.27875 15.7261C7.27828 14.9025 6.60844 14.2327 5.78531 14.2327ZM5.78531 16.6566C5.27203 16.6566 4.85437 16.2389 4.85437 15.7256C4.85437 15.2123 5.27203 14.7947 5.78531 14.7947C6.29859 14.7947 6.71625 15.2123 6.71625 15.7256C6.71578 16.2389 6.29859 16.6566 5.78531 16.6566ZM12.9314 13.5164C12.0262 13.5164 11.2898 14.2528 11.2898 15.158C11.2898 16.0631 12.0262 16.7995 12.9314 16.7995C13.8366 16.7995 14.573 16.0631 14.573 15.158C14.573 14.2528 13.8366 13.5164 12.9314 13.5164ZM12.9314 16.237C12.3366 16.237 11.8523 15.7528 11.8523 15.158C11.8523 14.5631 12.3366 14.0789 12.9314 14.0789C13.5262 14.0789 14.0105 14.5631 14.0105 15.158C14.0105 15.7528 13.5262 16.237 12.9314 16.237ZM22.1011 12.548V10.1991C22.5619 10.1053 22.9102 9.69703 22.9102 9.20906C22.9102 8.92266 22.7897 8.66391 22.5975 8.48016C22.7897 8.29594 22.9102 8.03766 22.9102 7.75078C22.9102 7.46438 22.7897 7.20563 22.5975 7.02188C22.7897 6.83766 22.9102 6.57937 22.9102 6.29297C22.9102 6.00656 22.7897 5.74781 22.5975 5.56406C22.7897 5.37984 22.9102 5.12156 22.9102 4.83516C22.9102 4.27781 22.4569 3.825 21.9 3.825H21.6023V1.97953C21.6023 1.27594 21.03 0.703125 20.3259 0.703125H19.575C18.8714 0.703125 18.2986 1.27547 18.2986 1.97953V3.82406H18.0009C17.4436 3.82406 16.9908 4.27734 16.9908 4.83469C16.9908 5.09156 17.0878 5.32547 17.2463 5.50406C15.2531 5.56313 13.3566 6.06844 11.7473 6.97172C10.2455 7.81453 9.08625 8.96531 8.46328 10.2262H5.9475C5.94 10.2262 5.93297 10.2267 5.92547 10.2272C4.95328 10.3036 4.15734 10.5441 3.34453 11.0067C2.58094 11.4412 2.02172 11.9663 1.71 12.5231C1.69312 12.5456 1.68047 12.57 1.67109 12.5953C1.51078 12.9047 1.42641 13.2234 1.42641 13.5413V14.4136H0.984375C0.829219 14.4136 0.703125 14.5397 0.703125 14.6948V16.7578C0.703125 16.913 0.829219 17.0391 0.984375 17.0391H3.33891C3.80813 17.91 4.72828 18.503 5.78484 18.503C6.84141 18.503 7.76203 17.9095 8.23078 17.0391H10.1377C10.1498 17.0873 10.1752 17.1323 10.2108 17.1684L10.9219 17.8781C10.9746 17.9308 11.0461 17.9604 11.1206 17.9604C11.1952 17.9604 11.2666 17.9308 11.3194 17.8781L11.5397 17.6578C11.7323 17.7656 11.9358 17.85 12.1477 17.91V18.2208C12.1477 18.3759 12.2737 18.502 12.4289 18.502H13.4339C13.5891 18.502 13.7152 18.3759 13.7152 18.2208V17.91C13.927 17.85 14.1305 17.7656 14.3231 17.6578L14.5434 17.8781C14.5962 17.9308 14.6677 17.9604 14.7422 17.9604C14.8167 17.9604 14.8882 17.9308 14.9409 17.8781L15.6516 17.1675C15.6877 17.1314 15.7125 17.0869 15.7247 17.0381H17.4544V19.0425C17.4544 19.6134 17.8913 20.0836 18.4481 20.1375V21.2845C18.4481 21.6398 18.6984 21.938 19.0322 22.0116V22.7194C19.0322 23.0372 19.2909 23.2959 19.6087 23.2959H20.2828C20.6006 23.2959 20.8594 23.0372 20.8594 22.7194V22.0116C21.1931 21.9375 21.4434 21.6398 21.4434 21.2845V20.1375C22.0003 20.0836 22.4372 19.613 22.4372 19.0425V16.1208C22.9331 15.9741 23.2964 15.5142 23.2964 14.9714V13.7466C23.2969 13.0866 22.7606 12.5494 22.1011 12.548ZM11.7159 9.78234C11.8383 9.78234 11.9377 9.88172 11.9377 10.0041C11.9377 10.1264 11.8383 10.2258 11.7159 10.2258H10.0908V10.0041C10.0908 9.88172 10.1902 9.78234 10.3125 9.78234H11.7159ZM11.7159 9.21984H11.3442C12.383 7.95047 14.0273 7.26797 16.2427 7.18969C16.4738 7.18125 16.8319 7.18547 17.1525 7.20375C17.0466 7.36671 16.9902 7.5569 16.9903 7.75125C16.9903 8.03766 17.1108 8.29641 17.303 8.48016C17.1108 8.66438 16.9903 8.92266 16.9903 9.20906C16.9903 9.69703 17.3381 10.1053 17.7994 10.1991V10.2258H12.4678C12.4884 10.1555 12.5002 10.0809 12.5002 10.0041C12.5002 9.57141 12.1486 9.21984 11.7159 9.21984ZM18.3619 10.2197H21.5386V12.548H18.3619V10.2197ZM22.3472 9.20906C22.3472 9.45609 22.1461 9.65672 21.8995 9.65672H18.0009C17.7539 9.65672 17.5533 9.45563 17.5533 9.20906C17.5533 8.9625 17.7544 8.76141 18.0009 8.76141H21.8995C22.1466 8.76141 22.3472 8.96203 22.3472 9.20906ZM22.3472 7.75078C22.3472 7.99781 22.1461 8.19891 21.8995 8.19891H18.0009C17.7539 8.19891 17.5533 7.99781 17.5533 7.75125C17.5533 7.50469 17.7544 7.30359 18.0009 7.30359H21.8995C22.1466 7.30312 22.3472 7.50375 22.3472 7.75078ZM22.3472 6.2925C22.3472 6.53953 22.1461 6.74016 21.8995 6.74016H18.0009C17.7539 6.74016 17.5533 6.53906 17.5533 6.2925C17.5533 6.04547 17.7544 5.84438 18.0009 5.84438H21.8995C22.1466 5.84484 22.3472 6.04547 22.3472 6.2925ZM18.8611 1.97953C18.8611 1.58578 19.1812 1.26562 19.575 1.26562H20.3255C20.7192 1.26562 21.0394 1.58578 21.0394 1.97953V3.82406H18.8611V1.97953ZM18.0009 4.38656H21.8995C22.1466 4.38656 22.3472 4.58766 22.3472 4.83469C22.3472 5.08172 22.1461 5.28234 21.8995 5.28234H18.0009C17.7539 5.28234 17.5533 5.08125 17.5533 4.83469C17.5533 4.58812 17.7539 4.38656 18.0009 4.38656ZM3.79547 12.0291C3.77063 12.2428 3.58828 12.4092 3.36797 12.4092H2.61422C2.94656 12.1627 3.32625 12.0422 3.79547 12.0291ZM1.98844 13.5408C1.98844 13.3406 2.03391 13.1503 2.11031 12.9717H3.36797C3.91547 12.9717 4.36078 12.5264 4.36078 11.9789V11.752C4.36078 11.6025 4.24359 11.4788 4.09406 11.4713C3.94359 11.4633 3.79969 11.4652 3.66047 11.4741C4.38141 11.0705 5.09203 10.8581 5.95781 10.7887H8.64047C8.75062 10.7887 8.85094 10.7241 8.89641 10.6237C10.0448 8.09203 13.3406 6.26297 17.0138 6.07641C16.9983 6.14625 16.9898 6.21844 16.9898 6.29297C16.9898 6.41344 17.0123 6.52875 17.0508 6.63562C16.7273 6.62156 16.4058 6.62109 16.222 6.62719C13.6392 6.71859 11.7628 7.59094 10.6406 9.21984H10.312C9.87938 9.21984 9.52781 9.57187 9.52781 10.0041V10.507C9.52781 10.6622 9.65391 10.7883 9.80906 10.7883H17.7989V12.548H17.7942C17.1333 12.548 16.5952 13.0856 16.5952 13.747V14.4136H16.1362C16.0945 14.3892 16.0462 14.3747 15.9942 14.3747H15.6834C15.6235 14.1629 15.5388 13.9588 15.4313 13.7667L15.6511 13.5464C15.7608 13.4367 15.7608 13.2586 15.6511 13.1484L14.9405 12.4378C14.8308 12.3281 14.6527 12.3281 14.5425 12.4378L14.3222 12.6581C14.1295 12.5503 13.9261 12.4659 13.7142 12.4059V12.0952C13.7142 11.94 13.5881 11.8139 13.433 11.8139H12.428C12.2728 11.8139 12.1467 11.94 12.1467 12.0952V12.4059C11.9349 12.4659 11.7308 12.5506 11.5387 12.6581L11.3184 12.4378C11.2657 12.3851 11.1942 12.3556 11.1197 12.3556C11.0452 12.3556 10.9737 12.3851 10.9209 12.4378L10.2103 13.1484C10.1006 13.2581 10.1006 13.4362 10.2103 13.5464L10.4302 13.7662C10.3223 13.9589 10.238 14.1623 10.178 14.3742H9.86719C9.81516 14.3742 9.76688 14.3888 9.72516 14.4131H8.23125C7.76203 13.5422 6.84188 12.9492 5.78531 12.9492C4.72875 12.9492 3.80859 13.5427 3.33938 14.4131H1.98844V13.5408ZM1.26562 16.4761V14.9756H3.11203C2.97396 15.4661 2.97396 15.9852 3.11203 16.4756H1.26562V16.4761ZM5.78531 17.94C4.56422 17.94 3.57094 16.9467 3.57094 15.7256C3.57094 14.5045 4.56422 13.5112 5.78531 13.5112C7.00641 13.5112 7.99969 14.5045 7.99969 15.7256C7.99969 16.9467 7.00594 17.94 5.78531 17.94ZM8.45813 14.9756H9.58687V15.6605C9.58687 15.8156 9.71297 15.9417 9.86812 15.9417H10.1789C10.2314 16.1269 10.3036 16.305 10.3927 16.4761H8.45766C8.52635 16.232 8.5612 15.9797 8.56125 15.7261C8.56159 15.4724 8.52689 15.2198 8.45813 14.9756ZM14.8772 16.7911L15.0548 16.9688L14.7422 17.2814L14.5645 17.1038C14.5185 17.0576 14.4579 17.0289 14.3931 17.0226C14.3283 17.0163 14.2633 17.0327 14.2092 17.0691C13.9582 17.2377 13.6762 17.3546 13.3795 17.4131C13.3156 17.4258 13.2581 17.4602 13.2167 17.5106C13.1753 17.5609 13.1527 17.6241 13.1527 17.6892V17.9405H12.7102V17.6892C12.7102 17.5547 12.615 17.4394 12.4833 17.4131C12.1867 17.3549 11.9047 17.238 11.6541 17.0691C11.5999 17.0329 11.535 17.0166 11.4702 17.0229C11.4054 17.0293 11.3449 17.0578 11.2987 17.1038L11.1211 17.2814L10.8084 16.9688L10.9861 16.7911C11.0813 16.6959 11.0958 16.5473 11.0208 16.4358C10.8522 16.1849 10.7353 15.903 10.6767 15.6066C10.6641 15.5426 10.6296 15.4851 10.5793 15.4437C10.5289 15.4024 10.4658 15.3797 10.4006 15.3797H10.1494V14.9372H10.4006C10.5352 14.9372 10.6505 14.842 10.6767 14.7103C10.7353 14.4127 10.8511 14.1337 11.0208 13.8806C11.0569 13.8265 11.0732 13.7615 11.0669 13.6968C11.0606 13.632 11.032 13.5714 10.9861 13.5253L10.8084 13.3477L11.1211 13.035L11.2992 13.2127C11.3452 13.2588 11.4058 13.2875 11.4706 13.2938C11.5355 13.3002 11.6005 13.2837 11.6545 13.2473C11.9077 13.0777 12.1866 12.9623 12.4838 12.9033C12.5477 12.8907 12.6053 12.8563 12.6467 12.8059C12.6881 12.7555 12.7107 12.6924 12.7106 12.6272V12.3759H13.1531V12.6272C13.1531 12.7617 13.2483 12.877 13.38 12.9033C13.6777 12.9619 13.9566 13.0777 14.2092 13.2473C14.2633 13.2837 14.3283 13.3002 14.3931 13.2938C14.4579 13.2875 14.5185 13.2588 14.5645 13.2127L14.7427 13.035L15.0553 13.3477L14.8777 13.5253C14.8315 13.5713 14.8028 13.6319 14.7965 13.6967C14.7902 13.7616 14.8066 13.8266 14.843 13.8806C15.0127 14.1337 15.128 14.4127 15.187 14.7103C15.1997 14.7742 15.2341 14.8318 15.2845 14.8731C15.3348 14.9145 15.398 14.9372 15.4631 14.9372H15.7144V15.3797H15.4631C15.3286 15.3797 15.2133 15.4748 15.187 15.6066C15.1288 15.9033 15.0118 16.1854 14.843 16.4363C14.7675 16.5473 14.7825 16.6959 14.8772 16.7911ZM15.4702 16.4761C15.5592 16.3055 15.6314 16.1273 15.6839 15.9417H15.9947C16.1498 15.9417 16.2759 15.8156 16.2759 15.6605V14.9756H16.5956C16.5975 15.517 16.9598 15.9745 17.4548 16.1213V16.4761H15.4702ZM20.2833 22.7344H19.6092C19.6022 22.7344 19.5952 22.7273 19.5952 22.7203V22.0303H20.2973V22.7203C20.2973 22.7273 20.2903 22.7344 20.2833 22.7344ZM20.6986 21.4683H19.1934C19.0945 21.4683 19.0106 21.3848 19.0106 21.2855V20.1436H20.8809V21.2855C20.8814 21.3844 20.798 21.4683 20.6986 21.4683ZM21.337 19.5811H18.555C18.2583 19.5811 18.0169 19.3397 18.0169 19.043V16.1705H21.8747V19.043C21.8752 19.3397 21.6338 19.5811 21.337 19.5811ZM22.7344 14.9719C22.7344 15.323 22.4489 15.6084 22.0978 15.6084H17.7942C17.4431 15.6084 17.1577 15.323 17.1577 14.9719V13.747C17.1577 13.3959 17.4431 13.1105 17.7942 13.1105H22.0978C22.4489 13.1105 22.7344 13.3959 22.7344 13.747V14.9719ZM21.4613 18.4341C21.4613 18.5892 21.3352 18.7153 21.18 18.7153H18.7125C18.5573 18.7153 18.4313 18.5892 18.4313 18.4341C18.4313 18.2789 18.5573 18.1528 18.7125 18.1528H21.1805C21.3356 18.1528 21.4613 18.2789 21.4613 18.4341ZM21.4613 17.3156C21.4613 17.4708 21.3352 17.5969 21.18 17.5969H18.7125C18.5573 17.5969 18.4313 17.4708 18.4313 17.3156C18.4313 17.1605 18.5573 17.0344 18.7125 17.0344H21.1805C21.2174 17.0344 21.2539 17.0417 21.288 17.0558C21.3221 17.0699 21.3531 17.0907 21.3792 17.1168C21.4053 17.1429 21.4259 17.1739 21.44 17.208C21.4541 17.2421 21.4613 17.2787 21.4613 17.3156ZM18.7041 13.8736V14.6948C18.7041 14.85 18.578 14.9761 18.4228 14.9761C18.2677 14.9761 18.1416 14.85 18.1416 14.6948V13.8736C18.1416 13.7184 18.2677 13.5923 18.4228 13.5923C18.578 13.5923 18.7041 13.718 18.7041 13.8736ZM20.2275 13.8736V14.8453C20.2275 15.0005 20.1014 15.1266 19.9462 15.1266C19.7911 15.1266 19.665 15.0005 19.665 14.8453V13.8736C19.665 13.7184 19.7911 13.5923 19.9462 13.5923C20.1014 13.5923 20.2275 13.718 20.2275 13.8736ZM21.7509 13.8736V14.8453C21.7509 15.0005 21.6248 15.1266 21.4697 15.1266C21.3145 15.1266 21.1884 15.0005 21.1884 14.8453V13.8736C21.1884 13.7184 21.3145 13.5923 21.4697 13.5923C21.6248 13.5923 21.7509 13.718 21.7509 13.8736Z" fill="black"/>
</g>
<defs>
<clipPath id="clip0_9724_2471">
<rect width="24" height="24" fill="white"/>
</clipPath>
</defs>
</svg>
