<svg width="21" height="31" viewBox="0 0 21 31" fill="none" xmlns="http://www.w3.org/2000/svg">
<path d="M18.9375 3.61102H16.1947V3.03703C16.1947 2.83662 16.0318 2.67375 15.8314 2.67375H12.6085C12.4299 1.6723 11.5496 0.908203 10.5003 0.908203C9.451 0.908203 8.57064 1.6723 8.39203 2.67375H5.16912C4.96871 2.67375 4.80584 2.83662 4.80584 3.03703V3.61102H2.06307C1.1252 3.61102 0.362305 4.37391 0.362305 5.31238V28.3904C0.362305 29.3283 1.1252 30.0918 2.06307 30.0918H18.9381C19.876 30.0918 20.6388 29.3289 20.6388 28.3904V5.31238C20.6388 4.37391 19.8754 3.61102 18.9375 3.61102ZM5.5324 3.40031H8.72201C8.92182 3.40031 9.08408 3.23926 9.08529 3.03945C9.09074 2.26506 9.72527 1.63477 10.5003 1.63477C11.2753 1.63477 11.9098 2.26506 11.9153 3.03945C11.9165 3.23926 12.0787 3.40031 12.2785 3.40031H15.4681V6.43977C15.4681 6.80365 15.1721 7.09973 14.8082 7.09973H6.19176C5.82787 7.09973 5.5318 6.80365 5.5318 6.43977V3.40031H5.5324ZM6.19176 7.82629H14.8082C15.5723 7.82629 16.1947 7.20447 16.1947 6.43977V6.10313H18.1461V27.5991H2.85441V6.10373H4.80584V6.44037C4.80584 7.20447 5.42766 7.82629 6.19176 7.82629ZM19.9123 28.3904C19.9123 28.9281 19.4751 29.3652 18.9381 29.3652H2.06307C1.52541 29.3652 1.08887 28.9281 1.08887 28.3904V5.31238C1.08887 4.77473 1.52602 4.33758 2.06307 4.33758H4.80584V5.37717H2.49113C2.29072 5.37717 2.12785 5.54004 2.12785 5.74045V27.963C2.12785 28.1634 2.29072 28.3263 2.49113 28.3263H18.51C18.7104 28.3263 18.8733 28.1634 18.8733 27.963V5.74045C18.8733 5.54004 18.7104 5.37717 18.51 5.37717H16.1953V4.33758H18.9381C19.4757 4.33758 19.9123 4.77473 19.9123 5.31238V28.3904ZM7.39543 18.1955H5.64986C5.20061 18.1955 4.8349 18.5613 4.8349 19.0105V20.7561C4.8349 21.2053 5.20061 21.571 5.64986 21.571H7.39543C7.84469 21.571 8.21039 21.2053 8.21039 20.7561V19.0105C8.21039 18.5613 7.84469 18.1955 7.39543 18.1955ZM7.48383 20.7561C7.48383 20.8039 7.44326 20.8445 7.39543 20.8445H5.64986C5.60203 20.8445 5.56146 20.8039 5.56146 20.7561V19.0105C5.56146 18.9627 5.60203 18.9221 5.64986 18.9221H7.39543C7.44326 18.9221 7.48383 18.9627 7.48383 19.0105V20.7561ZM9.28812 20.7972C9.28812 20.5968 9.451 20.434 9.65141 20.434H14.061C14.2614 20.434 14.4243 20.5968 14.4243 20.7972C14.4243 20.9977 14.2614 21.1605 14.061 21.1605H9.65141C9.451 21.1605 9.28812 20.9977 9.28812 20.7972ZM16.3533 18.9693C16.3533 19.1697 16.1905 19.3326 15.9901 19.3326H9.65141C9.451 19.3326 9.28812 19.1697 9.28812 18.9693C9.28812 18.7689 9.451 18.6061 9.65141 18.6061H15.9901C16.1905 18.6061 16.3533 18.7689 16.3533 18.9693ZM7.39543 22.7838H5.64986C5.20061 22.7838 4.8349 23.1495 4.8349 23.5988V25.3443C4.8349 25.7936 5.20061 26.1593 5.64986 26.1593H7.39543C7.84469 26.1593 8.21039 25.7936 8.21039 25.3443V23.5988C8.21039 23.1489 7.84469 22.7838 7.39543 22.7838ZM7.48383 25.3437C7.48383 25.3915 7.44326 25.4321 7.39543 25.4321H5.64986C5.60203 25.4321 5.56146 25.3915 5.56146 25.3437V23.5981C5.56146 23.5503 5.60203 23.5097 5.64986 23.5097H7.39543C7.44326 23.5097 7.48383 23.5503 7.48383 23.5981V25.3437ZM14.4243 25.3849C14.4243 25.5853 14.2614 25.7482 14.061 25.7482H9.65141C9.451 25.7482 9.28812 25.5853 9.28812 25.3849C9.28812 25.1845 9.451 25.0216 9.65141 25.0216H14.061C14.262 25.0216 14.4243 25.1845 14.4243 25.3849ZM16.3533 23.557C16.3533 23.7574 16.1905 23.9203 15.9901 23.9203H9.65141C9.451 23.9203 9.28812 23.7574 9.28812 23.557C9.28812 23.3566 9.451 23.1937 9.65141 23.1937H15.9901C16.1905 23.1937 16.3533 23.3566 16.3533 23.557ZM4.21611 13.0339V14.5004C4.21611 15.0701 4.6793 15.5333 5.24904 15.5333H5.90658C6.08822 16.1666 6.67189 16.6316 7.36273 16.6316C8.05357 16.6316 8.63725 16.1666 8.81889 15.5333H12.1817C12.3633 16.1666 12.947 16.6316 13.6378 16.6316C14.3287 16.6316 14.9123 16.1666 15.094 15.5333H15.7515C16.3212 15.5333 16.7844 15.0701 16.7844 14.5004V13.0339C16.7844 12.4642 16.3212 12.001 15.7515 12.001H15.169L13.2612 9.62877C13.0735 9.39566 12.8059 9.2673 12.5062 9.2673H8.49436C8.19525 9.2673 7.92703 9.39566 7.73934 9.62877L5.8315 12.001H5.24904C4.6793 12.001 4.21611 12.4642 4.21611 13.0339ZM7.36273 15.9045C6.92801 15.9045 6.57441 15.5509 6.57441 15.1161C6.57441 14.6814 6.92801 14.3278 7.36273 14.3278C7.79746 14.3278 8.15105 14.6814 8.15105 15.1161C8.15105 15.5509 7.79746 15.9045 7.36273 15.9045ZM13.6378 15.9045C13.2031 15.9045 12.8495 15.5509 12.8495 15.1161C12.8495 14.6814 13.2031 14.3278 13.6378 14.3278C14.0725 14.3278 14.4261 14.6814 14.4261 15.1161C14.4261 15.5509 14.0725 15.9045 13.6378 15.9045ZM12.6951 10.0841L14.2366 12.001H10.8636V9.99387H12.5062C12.5855 9.99326 12.6454 10.0223 12.6951 10.0841ZM8.30545 10.0841C8.3551 10.0223 8.41504 9.99387 8.49436 9.99387H10.137V12.001H6.76393L8.30545 10.0841ZM4.94268 13.0339C4.94268 12.865 5.08012 12.7276 5.24904 12.7276H15.7515C15.9204 12.7276 16.0579 12.865 16.0579 13.0339V14.5004C16.0579 14.6693 15.9204 14.8067 15.7515 14.8067H15.1212C14.9777 14.1195 14.3674 13.6012 13.6384 13.6012C12.9094 13.6012 12.2985 14.1189 12.1556 14.8067H8.84674C8.70324 14.1195 8.09293 13.6012 7.36395 13.6012C6.63496 13.6012 6.02404 14.1189 5.88115 14.8067H5.25086C5.08193 14.8067 4.94449 14.6693 4.94449 14.5004V13.0339H4.94268Z" fill="black"/>
</svg>
