<svg width="142" height="171" viewBox="0 0 142 171" fill="none" xmlns="http://www.w3.org/2000/svg">
<path d="M33.458 46.8516C35.8241 47.3264 37.5448 48.8695 38.1901 48.7508C38.1901 48.7508 38.8354 48.6321 39.2656 48.6321C39.2656 49.5817 39.0505 50.4126 39.0505 51.3622C38.6203 51.3622 37.975 51.3622 37.5448 51.2435C36.6845 51.3622 36.2543 51.7183 34.9637 51.7183C34.7486 51.7183 34.3184 51.7183 34.1033 51.7183C33.458 51.1248 33.2429 50.4126 33.2429 49.8191C32.8127 48.6321 33.0278 47.8012 33.458 46.8516Z" fill="#E9C2B0"/>
<path d="M30.3871 44.8672C32.4241 45.6306 33.9055 48.1116 34.4611 47.9207C34.4611 47.9207 35.387 47.7299 35.7573 47.539V52.1193C35.0166 52.1193 34.4611 51.9285 33.9055 51.9285C33.1648 52.1193 32.7945 52.6918 31.6834 52.6918C31.4982 52.6918 31.1279 52.6918 30.9427 52.6918C30.3872 51.7376 30.202 50.5925 30.202 49.6383C29.8316 47.7299 30.0168 46.3939 30.3871 44.8672Z" fill="#E9C2B0"/>
<path d="M57.7675 45.7599C60.4434 45.9428 57.3852 49.9682 56.6206 52.3468C56.2384 53.6276 52.9891 52.8958 48.9752 51.9809C49.5486 49.6023 50.6954 47.2236 50.8866 45.2109C54.7093 45.3939 57.7675 45.7599 57.7675 45.7599Z" fill="#E6E8ED"/>
<g filter="url(#filter0_f_5591_1140)">
<path d="M67 165C91.3005 165 111 160.523 111 155C111 149.477 91.3005 145 67 145C42.6995 145 23 149.477 23 155C23 160.523 42.6995 165 67 165Z" fill="#F2F2F2"/>
</g>
<path d="M63.0671 47.2803C65.9939 47.4824 62.649 51.9298 61.8128 54.5577C61.1857 57.1857 50.315 52.5362 42.5801 51.9298C42.5801 50.3126 42.5801 47.0781 42.5801 45.4609C42.9982 45.4609 63.0671 47.2803 63.0671 47.2803Z" fill="#B9BEC7"/>
<path d="M74.0868 146.486C74.0868 146.681 74.2918 147.071 74.2918 147.266C74.9071 148.436 76.1375 149.411 77.5731 149.996C79.2137 150.776 81.0594 151.361 82.9051 151.751C84.3406 151.946 87.6218 153.311 87.8269 153.506C88.032 153.701 88.6472 153.701 89.2625 153.701C91.3132 153.701 92.9538 153.506 92.7488 151.166C92.7488 149.801 92.1335 148.241 91.5183 146.876C91.3132 146.486 91.1082 146.291 90.9031 146.096C90.4929 145.706 89.8777 145.316 89.4675 144.926C88.2371 144.146 86.8015 142.781 85.366 143.171C84.5457 143.366 84.1355 143.756 83.3152 143.561C82.2898 143.561 81.2645 143.366 80.2391 143.171C79.4188 142.976 78.3934 142.781 77.5731 142.586C76.7528 142.586 75.7274 142.781 74.9071 143.366C74.702 143.561 74.4969 143.756 74.4969 143.951C73.8817 144.536 73.6766 145.511 74.0868 146.486Z" fill="#171716"/>
<path d="M57.4766 149.41C57.4766 149.995 57.6817 150.58 57.8868 151.165C58.502 152.14 59.3223 152.92 60.5528 153.7C60.7579 153.895 60.963 153.895 61.168 154.09C62.8087 154.87 64.6543 155.455 66.5 155.845C67.9356 156.04 71.2168 157.405 71.4219 157.6C71.832 157.99 72.4473 157.99 72.8574 157.99C74.9082 157.99 76.5488 157.795 76.3437 155.455C76.3437 154.09 75.7285 152.53 75.1133 151.165C74.7031 150.58 74.293 149.995 73.6777 149.605C73.4727 149.41 73.2676 149.215 73.0625 149.215C71.832 148.435 70.3965 147.265 68.961 147.46C68.1407 147.655 67.7305 148.045 66.9102 147.85C65.8848 147.85 64.8594 147.655 63.834 147.46C63.0137 147.265 61.9883 147.07 61.168 146.875C60.1426 146.875 59.3223 147.07 58.502 147.46C58.297 147.655 58.0919 147.85 58.0919 148.045C58.0919 148.045 58.0919 148.24 57.8868 148.24C57.6817 148.435 57.4766 149.02 57.4766 149.41Z" fill="#171716"/>
<path d="M57.476 152.334C59.3217 154.089 61.7826 154.674 64.4486 154.674C67.3197 154.674 70.1908 153.699 72.8568 152.919C73.8822 152.724 75.1126 152.334 76.138 152.334C77.3685 152.334 78.3939 152.529 79.6243 152.724C82.2903 153.309 84.7513 153.114 87.0071 151.554C88.6477 150.384 90.0833 148.824 91.929 147.654C92.7493 147.069 93.7747 146.679 94.8001 146.679C95.2102 144.924 95.4153 138.879 95.4153 134.004C95.4153 130.494 95.4153 127.764 95.4153 127.569C95.2102 125.619 94.8001 122.304 94.1848 117.624C92.9544 107.484 92.134 87.5945 87.8274 67.8998C86.3919 61.2699 88.8528 48.2051 89.6731 42.5502C89.8782 41.7702 89.8782 41.1852 89.8782 40.6002C89.6731 36.8952 87.4173 33.3853 79.2142 34.3603L67.7298 37.2852C66.4994 38.0652 63.0131 38.4552 60.3471 39.8202C60.142 39.8202 60.142 40.0152 59.9369 40.0152C58.2963 40.9902 59.7318 42.5502 59.3217 44.5001C59.3217 44.5001 60.3471 60.0999 60.3471 65.7548C60.3471 70.2398 58.9115 89.5445 58.9115 89.5445C58.9115 95.9794 55.6303 131.469 57.476 152.334Z" fill="#EEEFF0"/>
<path d="M57.476 152.333C59.3217 154.088 61.7826 154.673 64.4486 154.673C67.3197 154.673 70.1908 153.698 72.8568 152.918C73.8822 152.723 75.1126 152.333 76.138 152.333C77.3685 152.333 78.3939 152.528 79.6243 152.723C82.2903 153.308 84.7513 153.113 87.0071 151.553C88.6477 150.383 90.0833 148.823 91.929 147.653C92.7493 147.068 93.7747 146.678 94.8001 146.678C95.2102 144.923 95.4153 138.878 95.4153 134.003C94.8001 135.173 94.3899 136.538 94.1848 137.708C90.2883 124.254 89.468 110.214 88.6477 96.174C84.5462 108.264 83.7259 121.329 86.597 133.808C87.2122 136.733 88.0325 139.658 87.6223 142.583C87.0071 145.508 84.5462 148.238 81.47 148.238C77.3685 148.043 75.3177 143.168 75.7279 139.268C76.138 135.368 77.9837 131.469 77.1634 127.569C74.2923 128.544 73.0619 131.859 73.2669 134.783C73.2669 137.708 74.2923 140.438 74.0872 143.363C73.8822 146.288 72.0365 149.408 69.1654 149.603C66.9095 149.798 64.8588 148.433 63.8334 146.678C62.808 144.923 62.3978 142.778 62.1928 140.633C61.5775 133.808 62.1928 126.984 62.6029 120.354L64.8588 92.8591C65.2689 88.3741 65.6791 83.6942 68.7552 80.3792C71.2162 77.6493 75.1126 76.4793 78.5989 75.3093C73.6771 74.9193 69.1654 71.2144 68.14 66.5344C67.1146 61.8545 69.7806 56.7846 74.2923 54.6396C71.8314 55.4196 69.1654 53.2746 68.14 50.9347C67.1146 48.5947 66.9095 46.0597 65.6791 43.7198C64.6537 41.5748 62.6029 39.8198 60.3471 40.0148C60.142 40.0148 60.142 40.2098 59.9369 40.2098C58.2963 41.1848 59.7318 42.7448 59.3217 44.6948C59.3217 44.6948 60.3471 60.2945 60.3471 65.9495C60.3471 70.4344 58.9115 89.7391 58.9115 89.7391C58.9115 95.979 55.6303 131.469 57.476 152.333Z" fill="#E6E8ED"/>
<path d="M83.3153 46.8365C81.8798 47.8115 80.2392 48.9814 78.3935 49.3714C76.3427 49.9564 74.2919 49.7614 72.2412 48.9814C70.1904 48.3964 68.5498 47.2265 66.9092 45.8615C65.2685 44.4965 63.833 42.9365 63.2178 40.7915C63.0127 40.4015 63.0127 39.8166 63.2178 39.4266C63.4229 39.0366 63.6279 38.4516 64.2432 38.4516C64.6533 38.2566 65.2685 38.6466 65.6787 38.8416C66.0889 39.2316 66.2939 39.6216 66.499 40.0116C68.1396 42.3515 70.6006 44.1065 73.2666 44.8865C75.3173 45.4715 77.7783 45.4715 79.829 44.6915C80.8544 44.3015 81.8798 43.5215 82.9052 43.1315C83.5204 42.9365 87.622 41.5715 87.4169 43.1315C87.2118 43.7165 85.9813 44.4965 85.5712 44.8865C84.956 45.6665 84.1356 46.2515 83.3153 46.8365Z" fill="#E6E8ED"/>
<path d="M77.7791 34.3615C77.7791 36.8965 73.0623 37.4815 69.576 37.8715C68.7557 37.2865 68.3455 36.7015 68.3455 36.7015V31.6316L77.574 30.8516L77.7791 34.3615Z" fill="#BD825A"/>
<path d="M64.2439 14.8559C64.6541 17.1959 64.449 19.3408 64.2439 21.6808C64.0388 24.0208 64.2439 26.3607 65.0642 28.5057C65.8845 30.6507 67.9353 32.4057 70.3962 32.6007C71.0115 32.6007 71.6267 32.6007 72.0368 32.4057C73.0622 31.8207 76.7536 32.6007 76.9587 31.4307C77.9841 28.8957 75.7282 24.4108 75.113 21.6808C74.7028 19.3408 73.2673 17.1959 71.4216 15.6359C69.781 14.2709 67.9353 13.2959 65.8845 12.7109L64.2439 14.8559Z" fill="#BD825A"/>
<path d="M65.2683 28.8984C65.2683 28.8984 67.114 29.8734 67.7292 30.2634C67.9343 30.2634 67.9343 30.4584 67.9343 30.6534V30.8484C67.9343 31.0434 67.9343 31.2384 67.7292 31.2384C67.7292 31.2384 67.7292 31.2384 67.7292 31.4334H67.5242C67.114 31.4334 66.4988 30.8484 66.2937 30.4584C66.0886 30.2634 65.4734 29.2884 65.4734 29.0934C65.4734 29.2884 65.2683 28.8984 65.2683 28.8984Z" fill="#0D0D0D"/>
<path d="M62.1932 39.0398C63.0135 38.6498 63.4236 38.6498 63.8338 38.6498C64.0388 38.6498 64.2439 38.8448 64.449 39.2348C64.6541 39.6248 64.8592 40.0148 64.8592 40.2098C65.2693 40.7948 65.4744 41.5748 65.6795 42.1598C66.0896 43.1348 66.7049 43.7197 67.5252 44.1097C67.7302 44.1097 67.7302 44.3047 67.9353 44.3047C68.1404 44.8897 68.5505 45.4747 69.1658 45.8647C69.3709 45.8647 69.3709 46.0597 69.5759 46.0597C70.1912 46.2547 71.0115 46.2547 71.6267 46.6447C72.447 47.0347 73.0622 47.6197 73.6775 48.0097C73.8826 48.0097 73.8825 48.2047 74.0876 48.2047C75.3181 48.9847 76.7536 49.1797 78.1892 48.7897C79.2146 48.3997 79.8298 47.4247 80.445 46.6447C80.8552 46.2547 81.2653 45.6697 81.6755 45.4747C82.0856 45.2797 82.7009 45.0847 83.111 44.8897C83.3161 44.8897 83.5212 44.8897 83.7263 44.8897C83.9313 44.8897 83.9313 44.6947 84.1364 44.6947C84.7516 44.4997 85.3669 44.3047 85.9821 43.9147C86.1872 43.7197 86.1872 43.7197 86.3923 43.5247C86.5973 43.3298 86.8024 43.1348 87.0075 42.7448C88.443 41.3798 88.6481 39.8198 88.238 37.2848C88.0329 36.1149 85.5719 27.925 85.1618 24.025C84.9567 22.27 84.9567 20.5151 84.5466 18.9551C84.3415 18.3701 84.3415 17.9801 84.1364 17.3951C83.9313 16.8101 83.7263 16.2251 83.3161 15.6401C82.2907 13.6902 80.2399 12.3252 78.1892 11.3502C74.7029 9.79022 70.3962 9.40023 67.115 11.1552C65.6795 11.9352 64.6541 13.1052 63.8338 14.4702C63.4236 15.0552 63.2185 15.8351 63.0135 16.6151C63.0135 16.8101 63.0135 17.0051 62.8084 17.2001C62.3982 17.7851 62.1932 18.5651 62.1932 19.1501C62.1932 20.1251 63.0135 21.1001 64.0388 21.2951C64.449 21.4901 64.6541 21.6851 64.8592 22.0751C65.0642 22.27 65.2693 22.465 65.4744 22.66C65.8845 22.855 66.0896 22.855 66.4998 22.855C67.3201 23.05 67.7302 23.83 68.1404 24.61C68.3455 25 68.3455 25.39 68.3455 25.78C68.3455 29.29 65.8845 31.6299 64.449 33.3849C63.8338 34.9449 62.6033 36.8948 62.1932 39.0398Z" fill="#DEE0E4"/>
<path d="M63.4237 16.6134C63.6288 16.8084 63.8338 17.0034 63.8338 17.0034C65.6795 18.5634 67.9354 19.5384 70.3963 20.1234C75.3182 21.2933 80.6502 21.8783 84.9568 18.9534C84.7517 18.3684 84.7517 17.9784 84.5466 17.3934C80.6502 20.3184 75.3182 19.1484 71.0115 18.1734C68.9608 17.5884 67.1151 17.0034 65.4745 15.4434C65.0643 15.0534 64.6541 14.6634 64.4491 14.2734C63.8338 15.0534 63.6288 15.8334 63.4237 16.6134Z" fill="#0D0D0D"/>
<path d="M64.0391 38.8482C64.2442 38.8482 64.4492 39.0432 64.6543 39.4332C64.8594 39.8232 65.0645 40.2132 65.0645 40.4082C65.4746 40.9932 65.6797 41.7732 65.8848 42.3582C66.2949 43.3331 66.9102 43.9181 67.7305 44.3081C67.3203 43.5281 67.1153 42.7481 66.9102 41.9682C66.7051 39.6282 67.5254 37.4832 68.3457 35.3382C69.166 33.1933 70.1914 31.0483 70.8066 28.9033C71.4219 26.7584 71.627 24.2234 70.6016 22.2734C71.4219 27.5384 69.5762 33.1933 65.6797 37.0932C65.0645 37.4832 64.4493 38.0682 64.0391 38.8482Z" fill="#E6E8ED"/>
<path d="M80.855 46.645C81.2652 46.255 81.6753 45.67 82.0855 45.475C82.4956 45.28 83.1109 45.085 83.521 44.89C83.7261 44.89 83.9312 44.89 84.1362 44.89C84.3413 44.89 84.3413 44.695 84.5464 44.695C85.1616 44.5 85.7769 44.305 86.3921 43.9151C86.187 43.9151 85.9819 43.915 85.7769 43.7201C85.1616 43.5251 84.5464 42.9401 84.1362 42.3551C82.7007 40.6001 82.4956 38.4551 82.2905 36.3102C82.2905 34.1652 82.2905 32.0202 81.8804 29.8752C81.4702 28.3153 80.6499 26.7553 80.0347 25.1953C82.2905 32.2152 82.7007 39.6251 80.855 46.645Z" fill="#E6E8ED"/>
<path d="M69.7813 46.062C70.3965 46.257 71.2168 46.257 71.832 46.647C72.6524 47.037 73.2676 47.622 73.8828 48.0119C74.0879 48.0119 74.0879 48.2069 74.293 48.2069C74.0879 47.622 73.8828 47.232 73.6777 46.647C73.4727 45.477 73.4727 44.307 73.4727 42.942C73.6777 39.0421 73.4727 34.7521 71.627 31.2422C72.6524 33.7772 72.8574 36.3121 72.4473 39.0421C72.2422 41.772 71.2168 44.112 69.7813 46.062Z" fill="#E6E8ED"/>
<path d="M56.8612 70.2409C59.7323 70.8259 62.6033 69.2659 63.6287 66.536C63.6287 66.341 63.6287 66.146 63.8338 66.146L65.2693 59.5161C65.8846 53.2762 66.91 47.0362 63.4236 41.7713C62.8084 40.7963 61.9881 40.4063 60.9627 40.0164C60.3475 39.8214 59.5272 40.0164 58.9119 40.0164C58.0916 40.7963 57.6815 41.5763 57.4764 42.7463L54.1952 59.5161L53.785 61.271L53.1698 64.391C52.5546 67.316 53.785 69.6559 56.8612 70.2409Z" fill="#F7F7F7"/>
<path d="M32.1811 46.2138C32.1811 45.6423 34.1939 45.8328 34.6412 45.8328C35.7594 46.0233 36.8776 46.2138 37.7722 46.4044C36.4303 46.2138 35.3121 45.8328 33.9703 45.4518C33.7466 45.4518 33.0757 45.2613 33.2993 44.8803C33.523 44.3088 36.654 44.8803 37.3249 45.0708C37.7722 45.0708 37.9958 45.2613 38.4431 45.2613C38.8904 45.6423 39.114 46.0233 39.114 46.5949C39.114 47.3569 38.8904 48.1189 38.6667 48.8809C38.4431 49.4525 37.9958 49.8335 37.7722 50.405C36.4303 50.024 35.5358 49.8335 33.9703 49.4525C33.7466 49.4525 33.523 49.262 33.2993 49.0715C32.6284 48.4999 35.983 48.8809 37.1012 48.6904C35.7594 48.4999 34.4176 48.3094 33.0757 48.1189C32.8521 48.1189 32.1811 47.7379 32.4048 47.3569C32.6284 46.9759 33.2993 46.9759 33.523 46.9759C34.1939 46.9759 34.8648 47.1664 35.5358 47.1664C34.4175 46.9759 33.523 46.7854 32.4048 46.5949C32.4048 46.5949 32.1811 46.4043 32.1811 46.2138Z" fill="#E9C2B0"/>
<path d="M37.9936 49.5703C37.7886 49.5703 37.7886 49.7653 37.9936 49.5703L38.1987 49.7653C37.9937 49.7653 37.9936 49.7653 37.9936 49.5703Z" fill="#154902"/>
<path d="M37.5832 52.3047C37.7883 52.3047 37.7883 52.3047 37.5832 52.3047L37.7883 52.8897C37.7883 52.8897 37.7883 53.0847 37.5832 53.0847L37.1731 53.4747H36.968V52.8897C36.968 52.8897 36.968 52.6947 37.1731 52.6947L37.5832 52.3047Z" fill="#9CB5CC"/>
<path d="M37.7883 42.75V42.945L36.3528 43.725V43.53L37.7883 42.75Z" fill="#9CB5CC"/>
<path d="M39.2234 42.1641C39.4285 42.1641 39.4285 42.1641 39.4285 42.3591L39.8386 50.7439C39.8386 50.9389 39.6335 51.1339 39.6335 51.1339L35.3269 53.6689C35.1218 53.6689 35.1218 53.6689 35.1218 53.4739L34.7117 45.089C34.7117 44.894 34.9168 44.699 34.9168 44.699L39.2234 42.1641Z" fill="#283033"/>
<path d="M34.9173 43.9158C34.5071 44.1108 34.302 44.6958 34.302 45.0858L34.7122 54.6407C34.7122 55.0307 35.1223 55.2257 35.3274 55.0307L39.429 52.3007C39.8391 52.1057 40.0442 51.5207 40.0442 51.1307L39.634 41.5759C39.634 41.1859 39.2239 40.9909 39.0188 41.1859L34.9173 43.9158ZM39.634 50.3507C39.634 50.5457 39.634 50.7407 39.429 50.7407L35.3274 53.2757C35.1223 53.2757 35.1223 53.2757 35.1223 53.0807L34.7122 45.0858C34.7122 44.8908 34.7122 44.6958 34.9173 44.6958L39.0188 42.1609C39.2239 42.1609 39.2239 42.1609 39.2239 42.3559L39.634 50.3507ZM37.7883 52.8857C37.7883 52.8857 37.7883 53.0807 37.5833 53.0807L37.1731 53.4707H36.968V52.8857C36.968 52.8857 36.968 52.6907 37.1731 52.6907L37.5833 52.3007H37.7883V52.8857ZM36.3528 43.5258L37.5833 42.7458V42.9409L36.3528 43.5258Z" fill="#F8F9FC"/>
<path d="M38.8132 40.9922H38.6082H38.4031L34.3015 43.5271C34.0965 43.5271 34.0965 43.7221 34.0965 43.7221C33.8914 43.9171 33.6863 44.3071 33.8914 44.5021L34.0965 54.252C34.0965 54.447 34.0965 54.642 34.3015 54.642L34.9168 55.032C34.7117 55.032 34.7117 54.837 34.7117 54.642L34.3015 45.0871C34.3015 44.8921 34.5066 44.5021 34.5066 44.3071C34.5066 44.1121 34.7117 44.1121 34.7117 44.1121L38.8132 41.5772H39.0183H39.2234L38.8132 40.9922Z" fill="#D7E7F7"/>
<path d="M39.2241 42.9375L37.1734 44.1075L35.1226 45.2775L34.9175 45.4725V46.6424C34.9175 46.6424 34.9175 46.6424 35.1226 46.6424L37.1734 45.4725L39.2241 44.3025L39.4292 44.1075L39.2241 42.9375Z" fill="#F8F9FC"/>
<path d="M39.4292 48.9844L37.3784 50.1544L35.3277 51.3243L35.1226 51.5193V52.6893C35.1226 52.6893 35.1226 52.6893 35.3277 52.6893L37.3784 51.5193L39.4292 50.3494L39.6343 50.1544L39.4292 48.9844Z" fill="#F8F9FC"/>
<path d="M40.4867 44.3358L37.7948 42.3413C37.7948 42.3413 37.3807 41.9425 37.3807 42.3413C37.3807 42.5408 37.3807 43.538 38.416 44.3358C38.6231 44.5353 39.6584 45.3331 39.6584 45.3331C39.6584 45.3331 39.8655 47.3275 40.4867 48.3248C40.4867 48.3248 41.3149 49.9203 41.9361 49.5214C42.7644 49.1225 42.5573 48.1253 42.5573 48.1253L42.1432 46.9286C41.729 46.7292 40.6937 44.5353 40.4867 44.3358Z" fill="#E9C2B0"/>
<path d="M36.7194 49.432C36.5146 49.2425 36.5146 49.0529 36.5146 48.8634C36.9243 48.2948 39.3823 50.1902 39.792 50.5693C40.6113 51.1379 41.8403 51.896 42.6596 52.4646C42.6596 52.4646 43.8887 53.2228 44.2983 53.4123C44.9128 53.981 44.5032 54.5496 44.9128 54.9287L47.7805 56.445C47.3708 57.3927 45.937 57.7717 44.9128 58.7194C44.708 58.909 44.0935 59.2881 43.8887 59.4776L42.0451 57.9613C41.4306 57.5822 40.4065 57.3927 39.792 56.824C35.4904 53.7914 37.5388 53.2228 38.9726 51.517C39.1775 51.517 36.7194 49.6216 36.7194 49.432Z" fill="#E9D3C8"/>
<path d="M41.7135 59.1054C46.3776 63.489 52.1017 67.8726 56.1297 70.3503C59.0978 72.0656 63.1258 70.3503 63.9738 66.9197C63.9738 66.7291 64.1858 66.5385 64.1858 66.3479C64.6098 64.2514 62.7018 64.8232 60.5818 62.7267C60.5818 62.7267 58.8858 61.7737 56.5537 60.4396C55.9177 60.0584 55.0697 59.6772 54.4337 59.296C51.2537 57.5807 47.4376 55.4842 45.9536 54.5312C45.7416 54.7218 45.3176 55.103 44.8936 55.8654C43.4095 57.0089 41.9255 58.7243 41.7135 59.1054Z" fill="#F7F7F7"/>
<path d="M45.1803 56.065C47.1549 57.4389 49.1294 58.6165 51.104 59.7941C52.0913 60.3829 53.0785 60.7754 53.8684 61.5605C54.2633 61.7568 54.6582 62.1493 54.8556 62.3456C55.8429 63.3269 56.6327 64.7008 57.0276 66.0747C56.8302 64.3083 56.2378 62.5418 56.0404 60.7754C55.8429 59.9904 55.8429 59.2053 56.0404 58.2239C56.2378 56.8501 56.6327 55.6725 57.0276 54.4948C58.0149 51.1583 58.8047 47.6255 59.3971 44.0926C59.5946 42.7188 59.792 41.1486 60.5818 39.971L60.7793 39.7747C60.1869 39.5785 59.3971 39.7747 58.8047 39.7747C58.0149 40.5598 57.62 41.3449 57.4226 42.5225L54.2633 59.4016C51.3014 57.6351 47.7472 55.4762 46.365 54.4948C46.1676 55.0837 45.7727 55.4762 45.1803 56.065Z" fill="#EEEFF0"/>
<g clip-path="url(#clip0_5591_1140)">
<path d="M142 11.3858C142 11.3858 139.444 31.8328 135.241 36.4354C130.198 41.9553 126.537 41.1467 124.502 43.9922C124.498 43.9922 124.498 43.9961 124.498 43.9961C122.463 41.1467 118.802 41.9592 113.755 36.4315C109.553 31.8328 107 11.3858 107 11.3858C118.07 6.01749 124.498 0 124.498 0H124.502C124.7 0.190476 131.101 6.10301 142 11.3858Z" fill="#FF9900"/>
<path opacity="0.1" d="M124.502 0.00388727V43.9922L124.498 43.9961C122.463 41.1467 118.802 41.9592 113.755 36.4315C109.553 31.8328 107 11.3858 107 11.3858C118.07 6.01749 124.498 0 124.498 0H124.502V0.00388727Z" fill="black"/>
<path d="M109.716 13.0351C109.716 13.0351 111.876 30.3101 115.424 34.1973C119.689 38.866 122.782 38.1818 124.502 40.5841C126.222 38.1779 129.315 38.866 133.58 34.1973C137.129 30.3101 139.284 13.0351 139.284 13.0351C129.934 8.49861 124.502 3.41406 124.502 3.41406C124.502 3.41406 119.066 8.49861 109.716 13.0351Z" fill="#FF9900"/>
<path opacity="0.2" d="M139.28 13.0351C139.28 13.0351 137.121 30.3062 133.572 34.1974C129.311 38.8621 126.222 38.1818 124.498 40.5803V3.42188C124.665 3.57737 130.074 8.56862 139.28 13.039V13.0351Z" fill="white"/>
<path d="M124.502 28.8472C128.289 28.8472 131.358 25.7806 131.358 21.9978C131.358 18.215 128.289 15.1484 124.502 15.1484C120.716 15.1484 117.646 18.215 117.646 21.9978C117.646 25.7806 120.716 28.8472 124.502 28.8472Z" fill="#1E866F"/>
<path d="M123.72 26.4489L120.666 23.2768L121.798 22.1884L123.483 23.9377L127.113 18.375L128.428 19.2341L123.72 26.4489Z" fill="white"/>
</g>
<path d="M37.8833 24.1953V34.7948H35.4143V39.6282L31.1548 34.7948H2.20026V24.1953H37.8833Z" fill="white"/>
<path d="M37.8832 24.1954C37.861 27.7684 37.7665 31.3037 37.7665 34.7948L37.8832 34.6625H35.4143L35.2919 34.6562V34.7948L35.2808 39.6282L35.5144 39.5211L31.266 34.6751C31.2159 34.6184 31.2271 34.6247 31.1603 34.6247C23.9481 34.5994 9.41798 34.5742 2.20575 34.5679L2.40593 34.7948L2.37813 24.1954L2.20575 24.3907C11.0973 24.3718 28.9917 24.271 37.8832 24.1954ZM37.8832 24.1954L20.089 24.0693L2.20019 24H2.0278V24.1954L2 34.7948V35.0217H2.20019L16.6747 35.0028C16.5968 34.946 31.5774 35.0658 31.0436 34.9145L35.3197 39.729L35.5533 39.9874V39.6156L35.5422 34.7822L35.4198 34.9208H37.8832L38 34.9145V34.7822C38 31.2217 37.9055 27.6928 37.8832 24.1954Z" fill="#263238"/>
<path d="M25.1042 28.2344C25.6621 29.2174 26.4658 29.9862 27.502 30.5093C26.9507 29.5262 26.1404 28.7637 25.1042 28.2344Z" fill="#263238"/>
<path d="M27.502 28.2344C26.4658 28.7637 25.6555 29.5262 25.1042 30.5093C26.1404 29.9862 26.944 29.2174 27.502 28.2344Z" fill="#263238"/>
<path d="M24.606 29.3762C25.7351 29.6976 26.8709 29.7039 28 29.3762C26.8709 29.0485 25.7351 29.0548 24.606 29.3762Z" fill="#263238"/>
<path d="M26.3062 27.7656C25.9675 28.8369 25.9608 29.9145 26.3062 30.9858C26.6516 29.9145 26.6449 28.8369 26.3062 27.7656Z" fill="#263238"/>
<path d="M31.1042 28.2344C31.6621 29.2174 32.4658 29.9862 33.502 30.5093C32.9507 29.5262 32.1404 28.7637 31.1042 28.2344Z" fill="#263238"/>
<path d="M33.502 28.2344C32.4658 28.7637 31.6555 29.5262 31.1042 30.5093C32.1404 29.9862 32.944 29.2174 33.502 28.2344Z" fill="#263238"/>
<path d="M30.606 29.3762C31.7351 29.6976 32.8709 29.7039 34 29.3762C32.8709 29.0485 31.7351 29.0548 30.606 29.3762Z" fill="#263238"/>
<path d="M32.3062 27.7656C31.9675 28.8369 31.9608 29.9145 32.3062 30.9858C32.6516 29.9145 32.6449 28.8369 32.3062 27.7656Z" fill="#263238"/>
<path d="M19.1042 28.2344C19.6621 29.2174 20.4658 29.9862 21.502 30.5093C20.9507 29.5262 20.1404 28.7637 19.1042 28.2344Z" fill="#263238"/>
<path d="M21.502 28.2344C20.4658 28.7637 19.6555 29.5262 19.1042 30.5093C20.1404 29.9862 20.944 29.2174 21.502 28.2344Z" fill="#263238"/>
<path d="M18.606 29.3762C19.7351 29.6976 20.8709 29.7039 22 29.3762C20.8709 29.0485 19.7351 29.0548 18.606 29.3762Z" fill="#263238"/>
<path d="M20.3062 27.7656C19.9675 28.8369 19.9608 29.9145 20.3062 30.9858C20.6516 29.9145 20.6449 28.8369 20.3062 27.7656Z" fill="#263238"/>
<path d="M13.1042 28.2344C13.6621 29.2174 14.4658 29.9862 15.502 30.5093C14.9507 29.5262 14.1404 28.7637 13.1042 28.2344Z" fill="#263238"/>
<path d="M15.502 28.2344C14.4658 28.7637 13.6555 29.5262 13.1042 30.5093C14.1404 29.9862 14.944 29.2174 15.502 28.2344Z" fill="#263238"/>
<path d="M12.606 29.3762C13.7351 29.6976 14.8709 29.7039 16 29.3762C14.8709 29.0485 13.7351 29.0548 12.606 29.3762Z" fill="#263238"/>
<path d="M14.3062 27.7656C13.9675 28.8369 13.9608 29.9145 14.3062 30.9858C14.6516 29.9145 14.6449 28.8369 14.3062 27.7656Z" fill="#263238"/>
<path d="M6.75777 28.2344C7.3157 29.2174 8.11937 29.9862 9.15552 30.5093C8.60424 29.5262 7.79392 28.7637 6.75777 28.2344Z" fill="#263238"/>
<path d="M9.16235 28.2344C8.12621 28.7637 7.31589 29.5262 6.76461 30.5093C7.80076 29.9862 8.60443 29.2174 9.16235 28.2344Z" fill="#263238"/>
<path d="M6.26636 29.3762C7.3955 29.6976 8.53127 29.7039 9.6604 29.3762C8.53127 29.0485 7.3955 29.0548 6.26636 29.3762Z" fill="#263238"/>
<path d="M7.96 27.7656C7.62126 28.8369 7.61462 29.9145 7.96 30.9858C8.30538 29.9145 8.29874 28.8369 7.96 27.7656Z" fill="#263238"/>
<defs>
<filter id="filter0_f_5591_1140" x="17" y="139" width="100" height="32" filterUnits="userSpaceOnUse" color-interpolation-filters="sRGB">
<feFlood flood-opacity="0" result="BackgroundImageFix"/>
<feBlend mode="normal" in="SourceGraphic" in2="BackgroundImageFix" result="shape"/>
<feGaussianBlur stdDeviation="3" result="effect1_foregroundBlur_5591_1140"/>
</filter>
<clipPath id="clip0_5591_1140">
<rect width="35" height="44" fill="white" transform="translate(107)"/>
</clipPath>
</defs>
</svg>
