<svg width="157" height="157" viewBox="0 0 157 157" fill="none" xmlns="http://www.w3.org/2000/svg">
<circle cx="78.5001" cy="78.2584" r="78.2584" fill="url(#paint0_linear_11854_3422)" fill-opacity="0.15"/>
<path fill-rule="evenodd" clip-rule="evenodd" d="M97.8822 67.5134V67.8754L118.666 59.7314C118.916 59.6331 119.19 59.5932 119.461 59.6153C119.733 59.6374 119.994 59.7208 120.222 59.858C120.449 59.9952 120.636 60.1819 120.766 60.4014C120.895 60.621 120.963 60.8664 120.964 61.1159V97.3112C120.964 97.5609 120.896 97.8068 120.767 98.0267C120.638 98.2466 120.451 98.4338 120.223 98.5713C119.995 98.7088 119.734 98.7925 119.462 98.8147C119.19 98.837 118.916 98.7971 118.666 98.6987L97.8822 90.5487V94.2769C97.8848 95.0698 97.7165 95.8555 97.3869 96.5889C97.0573 97.3223 96.5729 97.989 95.9614 98.551C95.3499 99.113 94.6233 99.5592 93.8232 99.864C93.023 100.169 92.1651 100.326 91.2983 100.328H62.0123L65.3091 97.3112H91.295C91.7291 97.3104 92.1587 97.2312 92.5592 97.0782C92.9598 96.9251 93.3233 96.7012 93.629 96.4193C93.9347 96.1373 94.1766 95.8029 94.3407 95.4353C94.5048 95.0676 94.5879 94.674 94.5853 94.2769V70.5297L97.8822 67.5134ZM93.7215 58.5249C92.9505 58.2439 92.1282 58.0996 91.2983 58.0996H41.8256C40.9588 58.1008 40.1009 58.2583 39.3007 58.5631C38.5006 58.8679 37.774 59.3141 37.1625 59.8761C36.551 60.4381 36.0666 61.1048 35.737 61.8382C35.4074 62.5716 35.2391 63.3573 35.2417 64.1502V94.2769C35.2417 97.6219 38.1891 100.328 41.8256 100.328H48.0336L51.3304 97.3112H41.8256C40.0123 97.3112 38.5386 95.9569 38.5386 94.2769V64.1502C38.536 63.7534 38.619 63.3599 38.7829 62.9925C38.9468 62.625 39.1884 62.2908 39.4937 62.0089C39.7991 61.727 40.1622 61.503 40.5624 61.3498C40.9625 61.1965 41.3918 61.1171 41.8256 61.1159H90.8928L93.7215 58.5249ZM97.8822 71.1601V87.267L117.667 95.0189V63.4082L97.8822 71.1601ZM118.145 40.4423L39.0199 112.833C38.8667 112.973 38.7451 113.14 38.6621 113.323C38.5792 113.506 38.5365 113.702 38.5365 113.901C38.5365 114.099 38.5792 114.295 38.6621 114.479C38.7451 114.662 38.8667 114.828 39.0199 114.969C39.1732 115.109 39.3552 115.22 39.5554 115.296C39.7557 115.372 39.9703 115.411 40.187 115.411C40.4038 115.411 40.6184 115.372 40.8187 115.296C41.0189 115.22 41.2009 115.109 41.3541 114.969L120.479 42.5778C120.632 42.4376 120.754 42.2711 120.837 42.0879C120.92 41.9047 120.962 41.7083 120.962 41.51C120.962 41.3117 120.92 41.1154 120.837 40.9322C120.754 40.749 120.632 40.5825 120.479 40.4423C120.326 40.3021 120.144 40.1908 119.943 40.1149C119.743 40.0391 119.529 40 119.312 40C119.095 40 118.88 40.0391 118.68 40.1149C118.48 40.1908 118.298 40.3021 118.145 40.4423Z" fill="#1E866F"/>
<defs>
<linearGradient id="paint0_linear_11854_3422" x1="-3.0184" y1="-42.8677" x2="248.599" y2="98.4401" gradientUnits="userSpaceOnUse">
<stop offset="0.282986" stop-color="#1E866F"/>
<stop offset="1" stop-color="#B3E59F" stop-opacity="0.75"/>
</linearGradient>
</defs>
</svg>
