<svg width="16" height="16" viewBox="0 0 16 16" fill="none" xmlns="http://www.w3.org/2000/svg">
<path d="M14.6154 16H1.38416C0.884161 16 0.437286 15.7263 0.187286 15.2712C-0.0595891 14.8228 -0.0627141 14.2984 0.177911 13.8236L6.79041 0.748557C7.02791 0.280297 7.48104 0 7.99979 0C8.51854 0 8.97166 0.280297 9.20916 0.748557L15.8248 13.8236C16.0623 14.2951 16.0592 14.8228 15.8154 15.2712C15.5623 15.7263 15.1154 16 14.6154 16Z" fill="#127A63"/>
<path d="M15.825 13.8236L9.20938 0.748557C8.97188 0.280297 8.51875 0 8 0V16H14.6156C15.1156 16 15.5625 15.7263 15.8125 15.2712C16.0594 14.8228 16.0625 14.2951 15.825 13.8236Z" fill="#1E866F"/>
<path d="M8 13.8529C7.30937 13.8529 6.75 13.2594 6.75 12.5339C6.75 11.8084 7.3125 11.2148 8 11.2148C8.6875 11.2148 9.25 11.8084 9.25 12.5339C9.25 13.2594 8.69062 13.8529 8 13.8529ZM8 9.89579C7.30937 9.89579 6.75 9.30222 6.75 8.57675V5.72432C6.75 4.99555 7.3125 4.40527 8 4.40527C8.6875 4.40527 9.25 4.99884 9.25 5.72432V8.57675C9.25 9.30222 8.69062 9.89579 8 9.89579Z" fill="#FFF3F3"/>
<path d="M8 4.40234V9.89616C8.69063 9.89616 9.25 9.30259 9.25 8.57712V5.72469C9.25 4.99591 8.69063 4.40234 8 4.40234ZM8 11.2152V13.8533C8.69063 13.8533 9.25 13.2597 9.25 12.5342C9.25 11.8088 8.69063 11.2152 8 11.2152Z" fill="white"/>
</svg>
