<svg width="16" height="16" viewBox="0 0 16 16" fill="none" xmlns="http://www.w3.org/2000/svg">
<path d="M8.58 14.5H2.625C2.5587 14.5 2.49511 14.4737 2.44822 14.4268C2.40134 14.3799 2.375 14.3163 2.375 14.25V1.75C2.375 1.6837 2.40134 1.62011 2.44822 1.57322C2.49511 1.52634 2.5587 1.5 2.625 1.5H10.625C10.6913 1.5 10.7549 1.52634 10.8018 1.57322C10.8487 1.62011 10.875 1.6837 10.875 1.75V8.25C10.875 8.3163 10.9013 8.37989 10.9482 8.42678C10.9951 8.47366 11.0587 8.5 11.125 8.5C11.1913 8.5 11.2549 8.47366 11.3018 8.42678C11.3487 8.37989 11.375 8.3163 11.375 8.25V1.75C11.3748 1.55115 11.2957 1.3605 11.1551 1.21989C11.0145 1.07928 10.8239 1.0002 10.625 1H2.625C2.42615 1.0002 2.2355 1.07928 2.09489 1.21989C1.95428 1.3605 1.8752 1.55115 1.875 1.75V14.25C1.8752 14.4489 1.95428 14.6395 2.09489 14.7801C2.2355 14.9207 2.42615 14.9998 2.625 15H8.58C8.6463 15 8.70989 14.9737 8.75678 14.9268C8.80366 14.8799 8.83 14.8163 8.83 14.75C8.83 14.6837 8.80366 14.6201 8.75678 14.5732C8.70989 14.5263 8.6463 14.5 8.58 14.5Z" fill="#707070"/>
<path d="M11.125 9C10.5317 9 9.95164 9.17595 9.45829 9.50559C8.96494 9.83524 8.58043 10.3038 8.35336 10.8519C8.1263 11.4001 8.06689 12.0033 8.18265 12.5853C8.2984 13.1672 8.58412 13.7018 9.00368 14.1213C9.42324 14.5409 9.95779 14.8266 10.5397 14.9424C11.1217 15.0581 11.7249 14.9987 12.2731 14.7716C12.8212 14.5446 13.2898 14.1601 13.6194 13.6667C13.9491 13.1734 14.125 12.5933 14.125 12C14.1243 11.2046 13.8081 10.4419 13.2456 9.87941C12.6831 9.31695 11.9204 9.00066 11.125 9ZM11.125 14.5C10.6305 14.5 10.1472 14.3534 9.73608 14.0787C9.32495 13.804 9.00452 13.4135 8.8153 12.9567C8.62608 12.4999 8.57658 11.9972 8.67304 11.5123C8.7695 11.0273 9.0076 10.5819 9.35723 10.2322C9.70687 9.8826 10.1523 9.6445 10.6373 9.54804C11.1222 9.45157 11.6249 9.50108 12.0817 9.6903C12.5385 9.87952 12.929 10.2 13.2037 10.6111C13.4784 11.0222 13.625 11.5055 13.625 12C13.6239 12.6627 13.3602 13.298 12.8916 13.7666C12.423 14.2352 11.7877 14.4989 11.125 14.5Z" fill="#707070"/>
<path d="M11.125 12.7188C11.1913 12.7188 11.2549 12.6924 11.3018 12.6455C11.3487 12.5986 11.375 12.5351 11.375 12.4688V10.4688C11.375 10.4024 11.3487 10.3389 11.3018 10.292C11.2549 10.2451 11.1913 10.2188 11.125 10.2188C11.0587 10.2188 10.9951 10.2451 10.9482 10.292C10.9013 10.3389 10.875 10.4024 10.875 10.4688V12.4688C10.875 12.5351 10.9013 12.5986 10.9482 12.6455C10.9951 12.6924 11.0587 12.7188 11.125 12.7188ZM11.125 13.155C11.0633 13.155 11.003 13.1733 10.9516 13.2075C10.9003 13.2417 10.8602 13.2904 10.8365 13.3473C10.8128 13.4043 10.8065 13.467 10.8183 13.5276C10.8302 13.5881 10.8597 13.6438 10.9032 13.6876C10.9466 13.7314 11.0021 13.7613 11.0625 13.7737C11.123 13.786 11.1857 13.7802 11.2429 13.7569C11.3 13.7337 11.349 13.694 11.3836 13.6429C11.4182 13.5919 11.437 13.5317 11.4375 13.47C11.4376 13.3869 11.4047 13.3071 11.3462 13.2481C11.2876 13.1891 11.2081 13.1556 11.125 13.155Z" fill="#707070"/>
</svg>
