<svg width="16" height="16" viewBox="0 0 16 16" fill="none" xmlns="http://www.w3.org/2000/svg">
<path d="M13.5975 9.6785C14.0306 9.1656 14.2496 8.5057 14.2092 7.83565C14.1688 7.16559 13.872 6.53679 13.3805 6.07965C12.8889 5.62251 12.2403 5.3721 11.5691 5.38036C10.8978 5.38862 10.2555 5.6549 9.77537 6.124C9.2952 6.59309 9.01401 7.229 8.9901 7.89984C8.96619 8.57069 9.20139 9.225 9.64694 9.72709C10.0925 10.2292 10.7142 10.5405 11.3831 10.5965C12.0521 10.6526 12.7169 10.449 13.2397 10.028L14.571 11.3923C14.6175 11.4388 14.6804 11.4652 14.7462 11.4656C14.812 11.4661 14.8753 11.4406 14.9224 11.3946C14.9696 11.3487 14.9967 11.2861 14.9979 11.2203C14.9991 11.1545 14.9744 11.0909 14.929 11.0433L13.5975 9.6785ZM9.5 7.9985C9.49995 7.58171 9.6235 7.17427 9.85501 6.82771C10.0865 6.48114 10.4156 6.21101 10.8007 6.05148C11.1857 5.89195 11.6094 5.85018 12.0182 5.93146C12.427 6.01274 12.8025 6.21342 13.0972 6.50811C13.3919 6.80281 13.5927 7.17828 13.674 7.58705C13.7553 7.99583 13.7136 8.41954 13.5541 8.8046C13.3946 9.18967 13.1245 9.51879 12.778 9.75035C12.4315 9.98191 12.024 10.1055 11.6073 10.1055C11.0486 10.1049 10.5129 9.8827 10.1179 9.48764C9.7228 9.09259 9.5006 8.55719 9.5 7.9985ZM14.5 1H1.5C1.36745 1.0002 1.24039 1.05294 1.14667 1.14667C1.05294 1.24039 1.0002 1.36745 1 1.5V2.9285C1.0002 3.06105 1.05294 3.18811 1.14667 3.28183C1.24039 3.37556 1.36745 3.4283 1.5 3.4285H14.5C14.6325 3.4283 14.7596 3.37556 14.8533 3.28183C14.9471 3.18811 14.9998 3.06105 15 2.9285V1.5C14.9998 1.36745 14.9471 1.24039 14.8533 1.14667C14.7596 1.05294 14.6325 1.0002 14.5 1ZM1.5 2.9285V1.5H14.5L14.5005 2.9285H1.5ZM1.5 6.3215H7.75C7.88255 6.3213 8.00961 6.26856 8.10333 6.17483C8.19706 6.08111 8.2498 5.95405 8.25 5.8215V4.39275C8.2498 4.2602 8.19706 4.13314 8.10333 4.03942C8.00961 3.94569 7.88255 3.89295 7.75 3.89275H1.5C1.36745 3.89295 1.24039 3.94569 1.14667 4.03942C1.05294 4.13314 1.0002 4.2602 1 4.39275V5.8215C1.0002 5.95405 1.05294 6.08111 1.14667 6.17483C1.24039 6.26856 1.36745 6.3213 1.5 6.3215ZM1.5 4.39275H7.75L7.75025 5.8215H1.5V4.39275ZM1.5 9.21425H7.75C7.88255 9.21405 8.00961 9.16131 8.10333 9.06758C8.19706 8.97386 8.2498 8.8468 8.25 8.71425V7.28575C8.2498 7.1532 8.19706 7.02614 8.10333 6.93242C8.00961 6.83869 7.88255 6.78595 7.75 6.78575H1.5C1.36745 6.78595 1.24039 6.83869 1.14667 6.93242C1.05294 7.02614 1.0002 7.1532 1 7.28575V8.71425C1.0002 8.8468 1.05294 8.97386 1.14667 9.06758C1.24039 9.16131 1.36745 9.21405 1.5 9.21425ZM1.5 7.28575H7.75L7.75025 8.71425H1.5V7.28575ZM1.5 12.1073H7.75C7.88255 12.1071 8.00961 12.0543 8.10333 11.9606C8.19706 11.8669 8.2498 11.7398 8.25 11.6073V10.1785C8.2498 10.046 8.19706 9.91889 8.10333 9.82517C8.00961 9.73144 7.88255 9.6787 7.75 9.6785H1.5C1.36745 9.6787 1.24039 9.73144 1.14667 9.82517C1.05294 9.91889 1.0002 10.046 1 10.1785V11.6073C1.0002 11.7398 1.05294 11.8669 1.14667 11.9606C1.24039 12.0543 1.36745 12.1071 1.5 12.1073ZM1.5 10.1785H7.75L7.75025 11.6073H1.5V10.1785ZM14.5 12.5715H1.5C1.36745 12.5717 1.24039 12.6244 1.14667 12.7182C1.05294 12.8119 1.0002 12.939 1 13.0715V14.5C1.0002 14.6325 1.05294 14.7596 1.14667 14.8533C1.24039 14.9471 1.36745 14.9998 1.5 15H14.5C14.6325 14.9998 14.7596 14.9471 14.8533 14.8533C14.9471 14.7596 14.9998 14.6325 15 14.5V13.0715C14.9998 12.939 14.9471 12.8119 14.8533 12.7182C14.7596 12.6244 14.6325 12.5717 14.5 12.5715ZM1.5 14.5V13.0715H14.5L14.5005 14.5H1.5Z" fill="#707070"/>
</svg>
