<svg width="17" height="12" viewBox="0 0 17 12" fill="none" xmlns="http://www.w3.org/2000/svg">
<g clip-path="url(#clip0_2346_395)">
<path d="M6.76343 5.96356C6.76343 6.99213 7.5437 7.83142 8.49995 7.83142C9.4562 7.83142 10.2365 6.99213 10.2365 5.96356C10.2365 4.93499 9.4562 4.0957 8.49995 4.0957C7.5437 4.0957 6.76343 4.93499 6.76343 5.96356Z" fill="#686868"/>
<path d="M16.8506 5.68214C16.0172 4.13572 14.8186 2.83929 13.3875 1.92857C11.9133 0.996429 10.2232 0.5 8.50332 0.5H8.5H8.49668C6.77676 0.5 5.08672 0.996429 3.6125 1.92857C2.18145 2.83929 0.982813 4.13572 0.149414 5.68214L0 5.96429L0.149414 6.24643C0.982813 7.79286 2.17812 9.09286 3.60918 10C5.0834 10.9357 6.77344 11.4286 8.49336 11.4286H8.49668H8.5C10.2199 11.4286 11.91 10.9321 13.3842 10C14.8152 9.09286 16.0139 7.79286 16.8439 6.24643L16.9934 5.96429L16.8506 5.68214ZM12.5375 5.96429C12.5375 8.35714 10.7279 10.3071 8.50332 10.3071H8.5H8.49668C6.27207 10.3036 4.4625 8.35714 4.4625 5.96429C4.4625 3.57143 6.27207 1.62143 8.49668 1.62143H8.5H8.50332C10.7279 1.62143 12.5375 3.57143 12.5375 5.96429ZM1.20859 5.96429C2.00547 4.59643 3.11113 3.5 4.39609 2.74643C3.78184 3.65 3.41992 4.76429 3.41992 5.96429C3.41992 7.16429 3.78184 8.27857 4.39609 9.18214C3.11113 8.42857 2.00547 7.33214 1.20859 5.96429ZM12.6039 9.18214C13.2182 8.27857 13.5801 7.16786 13.5801 5.96429C13.5801 4.76072 13.2182 3.65 12.6039 2.74643C13.8889 3.49643 14.9945 4.59643 15.7914 5.96429C14.9945 7.33214 13.8889 8.42857 12.6039 9.18214Z" fill="#686868"/>
</g>
<defs>
<clipPath id="clip0_2346_395">
<rect width="17" height="10.9286" fill="white" transform="translate(0 0.5)"/>
</clipPath>
</defs>
</svg>
