<svg width="15" height="16" viewBox="0 0 15 16" fill="none" xmlns="http://www.w3.org/2000/svg">
<g clip-path="url(#clip0_557_178)">
<path d="M0 8.40546C0 10.9823 1.32857 13.2524 3.34286 14.5702C3.64821 14.2634 3.95625 13.9566 4.26161 13.6472C3.79286 13.3778 3.35893 13.0523 2.97857 12.6736C1.86429 11.5665 1.17857 10.0407 1.17857 8.35211C1.17857 7.30643 1.44375 6.3301 1.90714 5.47115L1.21339 5.58052C1.14375 5.59119 1.07411 5.56985 1.02589 5.51917C0.975 5.47115 0.953571 5.40179 0.961607 5.33244L1.06607 4.59619C0.388393 5.70856 0 7.01033 0 8.40546Z" fill="#1E866F" fill-opacity="0.04"/>
<path d="M11.5044 12.5188C12.5785 11.4491 13.2374 9.98194 13.2374 8.3494C13.2374 6.71952 12.5758 5.2497 11.5044 4.18001C10.4303 3.11032 8.95704 2.4541 7.31775 2.4541C6.43382 2.4541 5.60079 2.64883 4.85079 2.99295L6.22757 4.4361C6.27579 4.48678 6.29454 4.55614 6.28382 4.62282C6.35347 4.51345 6.474 4.43876 6.61597 4.43876C6.83293 4.43876 7.00972 4.61482 7.00972 4.83089V8.19201L9.62668 10.8969C9.77668 11.0516 9.77132 11.2997 9.61597 11.4491C9.46061 11.5985 9.2115 11.5931 9.0615 11.4384L6.33204 8.62149C6.2624 8.54947 6.22222 8.45077 6.22222 8.3494V4.83089C6.22222 4.79355 6.23025 4.75887 6.23829 4.72419C6.20347 4.76687 6.15793 4.79622 6.10168 4.80689L2.29811 5.40975L2.07579 5.44443L1.90704 5.47111C1.44365 6.32739 1.17847 7.30639 1.17847 8.35207C1.17847 10.0433 1.86418 11.5665 2.97579 12.6762C3.35882 13.055 3.79007 13.3804 4.25882 13.6498C4.27222 13.6365 4.28561 13.6232 4.299 13.6098C4.36597 13.5431 4.47311 13.5245 4.55615 13.5698C4.65525 13.6205 4.75436 13.6712 4.85615 13.7165L4.88829 13.7299C4.98204 13.7725 5.08115 13.8126 5.17757 13.8499L5.20704 13.8606C5.42132 13.9433 5.64365 14.0126 5.86865 14.0686L5.88472 14.0713H5.8874C5.9865 14.0953 6.08829 14.1167 6.19007 14.138C6.21686 14.1433 6.24632 14.1487 6.28115 14.154C6.3615 14.1673 6.44186 14.1807 6.52222 14.1913C6.5624 14.1967 6.59722 14.202 6.63204 14.2047C6.7124 14.2127 6.79275 14.2207 6.87311 14.226C6.91329 14.2287 6.94543 14.2314 6.97757 14.234C7.09275 14.2394 7.20525 14.2447 7.32043 14.2447C8.95704 14.2474 10.4303 13.5885 11.5044 12.5188Z" fill="#1E866F" fill-opacity="0.3"/>
<path d="M4.56172 13.5671C4.47601 13.5218 4.37155 13.5378 4.30458 13.6071C4.29119 13.6205 4.2778 13.6338 4.2644 13.6472C3.95905 13.9539 3.65101 14.2607 3.34565 14.5701C3.34297 14.5728 3.34297 14.5728 3.3403 14.5755C3.29208 14.6235 3.27065 14.6902 3.27869 14.7569C3.28672 14.8235 3.3269 14.8822 3.38315 14.9169C4.53494 15.6025 5.88226 15.9999 7.32333 15.9999C9.44208 15.9999 11.368 15.141 12.7555 13.7592C14.143 12.3774 15.0055 10.4621 15.0055 8.35206V8.34939C15.0055 6.23935 14.143 4.32405 12.7555 2.94225C11.368 1.56046 9.44208 0.701507 7.32333 0.701507C5.96797 0.701507 4.69833 1.05629 3.59476 1.66983L2.06797 0.0692967C2.00905 0.00794293 1.92065 -0.0133975 1.8403 0.0106105C1.75994 0.037286 1.70101 0.106643 1.6903 0.189337L1.11172 4.25202L1.06351 4.59614L0.959046 5.33238C0.948331 5.40174 0.972438 5.4711 1.02333 5.51911C1.07422 5.56713 1.14387 5.59114 1.21083 5.58047L1.90458 5.4711L2.07333 5.44442L2.29565 5.40974L6.09922 4.80688C6.15547 4.79887 6.20369 4.76686 6.23583 4.72418C6.24655 4.6895 6.25994 4.65483 6.28137 4.62281C6.29208 4.55613 6.27333 4.48677 6.22512 4.43609L4.84833 2.99294C5.59833 2.64882 6.43137 2.45409 7.3153 2.45409C8.95458 2.45409 10.4278 3.11298 11.5019 4.18C12.576 5.24969 13.2349 6.71685 13.2349 8.34939C13.2349 9.97927 12.5733 11.4491 11.5019 12.5188C10.4278 13.5885 8.95458 14.2447 7.3153 14.2447C7.20012 14.2447 7.08762 14.2394 6.97244 14.234C6.94297 14.2314 6.90815 14.2287 6.86797 14.226C6.78762 14.2207 6.70726 14.2127 6.6269 14.2047C6.59208 14.202 6.55726 14.1967 6.51708 14.1913C6.43672 14.1807 6.35637 14.1673 6.27601 14.154C6.24387 14.1487 6.21172 14.1433 6.18494 14.138C6.08315 14.1193 5.98137 14.098 5.88226 14.0713H5.87958L5.86351 14.0686C5.63851 14.0126 5.41619 13.9433 5.2019 13.8606L5.17244 13.8499C5.07601 13.8125 4.97958 13.7725 4.88315 13.7299L4.85101 13.7165C4.75994 13.6685 4.66083 13.6205 4.56172 13.5671Z" fill="#1E866F"/>
</g>
<defs>
<clipPath id="clip0_557_178">
<rect width="15" height="16" fill="white"/>
</clipPath>
</defs>
</svg>
