<svg width="16" height="17" viewBox="0 0 16 17" fill="none" xmlns="http://www.w3.org/2000/svg">
<g clip-path="url(#clip0_4006_5844)">
<path d="M13.2414 14.7227C13.2414 15.0153 13.1251 15.296 12.9182 15.5029C12.7113 15.7098 12.4306 15.8261 12.1379 15.8261H1.10345C0.810796 15.8261 0.530129 15.7098 0.323193 15.5029C0.116256 15.296 0 15.0153 0 14.7227V7.8261C0 7.53345 0.116256 7.25279 0.323193 7.04585C0.530129 6.83891 0.810796 6.72266 1.10345 6.72266H12.4138C12.6333 6.72266 12.8438 6.80985 12.999 6.96505C13.1542 7.12025 13.2414 7.33075 13.2414 7.55024V14.7227Z" fill="#1E866F"/>
<path d="M11.5861 9.20407H6.62059C6.54743 9.20407 6.47726 9.175 6.42552 9.12327C6.37379 9.07154 6.34473 9.00137 6.34473 8.92821C6.34473 8.85504 6.37379 8.78488 6.42552 8.73314C6.47726 8.68141 6.54743 8.65234 6.62059 8.65234H11.5861C11.6593 8.65234 11.7294 8.68141 11.7812 8.73314C11.8329 8.78488 11.862 8.85504 11.862 8.92821C11.862 9.00137 11.8329 9.07154 11.7812 9.12327C11.7294 9.175 11.6593 9.20407 11.5861 9.20407ZM9.10335 10.3075H6.62059C6.54743 10.3075 6.47726 10.2785 6.42552 10.2267C6.37379 10.175 6.34473 10.1048 6.34473 10.0317C6.34473 9.95849 6.37379 9.88832 6.42552 9.83659C6.47726 9.78486 6.54743 9.75579 6.62059 9.75579H9.10335C9.17651 9.75579 9.24668 9.78486 9.29841 9.83659C9.35015 9.88832 9.37921 9.95849 9.37921 10.0317C9.37921 10.1048 9.35015 10.175 9.29841 10.2267C9.24668 10.2785 9.17651 10.3075 9.10335 10.3075Z" fill="#FFAE32"/>
<path d="M3.58629 8.375H2.48284C1.87343 8.375 1.37939 8.86903 1.37939 9.47845C1.37939 10.0879 1.87343 10.5819 2.48284 10.5819H3.58629C4.19571 10.5819 4.68974 10.0879 4.68974 9.47845C4.68974 8.86903 4.19571 8.375 3.58629 8.375Z" fill="#FFD18B"/>
<path d="M0 12.5156H13.2414V14.1708H0V12.5156Z" fill="#F5F5F5"/>
<path d="M16.0001 4.51383C16.0007 4.93673 15.9126 5.35507 15.7416 5.74184C15.5705 6.12861 15.3203 6.47523 15.007 6.75934C14.5133 7.21217 13.8819 7.48612 13.2139 7.53727H13.2112C13.0539 7.52624 12.9049 7.52072 12.7615 7.52072C12.7063 7.52072 12.6539 7.52072 12.5987 7.52348C11.9341 7.4451 11.3147 7.14704 10.8387 6.67658H10.836C10.4798 6.32572 10.2159 5.89231 10.0677 5.41486C9.9194 4.93742 9.8914 4.43074 9.98614 3.93987C10.0809 3.449 10.2954 2.98914 10.6107 2.60117C10.926 2.2132 11.3323 1.90914 11.7934 1.71602C12.2546 1.5229 12.7563 1.4467 13.2539 1.4942C13.7516 1.54169 14.2298 1.71141 14.6461 1.98827C15.0624 2.26512 15.4038 2.64054 15.64 3.08115C15.8762 3.52175 15.9999 4.01389 16.0001 4.51383Z" fill="#E64C3C"/>
<path d="M11.5861 4.52582C11.5854 5.3081 11.3286 6.06865 10.8551 6.69134C10.8489 6.68758 10.8433 6.68293 10.8385 6.67754H10.8358C10.5485 6.39429 10.3205 6.05663 10.1651 5.68428C10.0098 5.31194 9.93014 4.91237 9.93091 4.50891C9.93168 4.10545 10.0128 3.70619 10.1696 3.33444C10.3264 2.96269 10.5557 2.62591 10.8441 2.34375C11.3264 2.96878 11.5874 3.73633 11.5861 4.52582Z" fill="#C03A2B"/>
<path d="M12.9656 5.34065C12.8924 5.34065 12.8222 5.31159 12.7705 5.25985C12.7188 5.20812 12.6897 5.13795 12.6897 5.06479V2.85789C12.6897 2.78473 12.7188 2.71456 12.7705 2.66283C12.8222 2.6111 12.8924 2.58203 12.9656 2.58203C13.0387 2.58203 13.1089 2.6111 13.1606 2.66283C13.2124 2.71456 13.2414 2.78473 13.2414 2.85789V5.06479C13.2414 5.13795 13.2124 5.20812 13.1606 5.25985C13.1089 5.31159 13.0387 5.34065 12.9656 5.34065Z" fill="white"/>
<path d="M12.9656 6.44626C13.1179 6.44626 13.2414 6.32275 13.2414 6.17039C13.2414 6.01804 13.1179 5.89453 12.9656 5.89453C12.8132 5.89453 12.6897 6.01804 12.6897 6.17039C12.6897 6.32275 12.8132 6.44626 12.9656 6.44626Z" fill="white"/>
<path d="M11.0345 4.52554C11.0351 4.94845 10.947 5.36679 10.776 5.75356C10.6049 6.14033 10.3547 6.48695 10.0414 6.77106C9.54774 7.22389 8.9163 7.49783 8.24834 7.54899H8.24558C8.08834 7.53796 7.93937 7.53244 7.79592 7.53244C7.74075 7.53244 7.68834 7.53244 7.63316 7.5352C6.96854 7.45682 6.34912 7.15876 5.87316 6.6883H5.8704C5.51427 6.33744 5.25035 5.90403 5.10209 5.42658C4.95383 4.94914 4.92582 4.44246 5.02057 3.95159C5.11531 3.46072 5.32987 3.00086 5.64517 2.61289C5.96046 2.22492 6.36673 1.92086 6.82786 1.72774C7.28898 1.53462 7.79068 1.45842 8.28835 1.50591C8.78602 1.55341 9.26425 1.72313 9.68052 1.99999C10.0968 2.27684 10.4382 2.65226 10.6744 3.09286C10.9107 3.53347 11.0344 4.02561 11.0345 4.52554Z" fill="#F0C419"/>
<path d="M10.6262 3.00178C10.0477 2.66691 9.37485 2.53231 8.71205 2.61885C8.04924 2.7054 7.43353 3.00825 6.96041 3.48042C6.48729 3.9526 6.18321 4.56771 6.09535 5.23034C6.00748 5.89296 6.14074 6.56607 6.47445 7.14523C6.25526 7.0189 6.05315 6.865 5.87307 6.6873H5.87032C5.56325 6.38338 5.32462 6.01739 5.17039 5.61382C5.01616 5.21024 4.94989 4.77839 4.97601 4.34714C5.00213 3.91589 5.12003 3.49519 5.32183 3.11318C5.52364 2.73117 5.80469 2.39665 6.14619 2.13201C6.48769 1.86737 6.88177 1.6787 7.30205 1.57862C7.72234 1.47855 8.15916 1.46937 8.58328 1.55172C9.0074 1.63406 9.40905 1.80601 9.76136 2.05609C10.1137 2.30616 10.4085 2.62858 10.6262 3.00178Z" fill="#F3D55B"/>
<path d="M8.27578 4.27221V3.18145C8.59302 3.25952 8.8275 3.46366 8.8275 3.69814C8.8275 3.7713 8.85657 3.84147 8.9083 3.89321C8.96003 3.94494 9.0302 3.974 9.10336 3.974C9.17653 3.974 9.24669 3.94494 9.29843 3.89321C9.35016 3.84147 9.37923 3.7713 9.37923 3.69814C9.37923 3.16518 8.90447 2.71966 8.27578 2.61704V2.31883C8.27578 2.24567 8.24671 2.1755 8.19498 2.12377C8.14325 2.07203 8.07308 2.04297 7.99992 2.04297C7.92675 2.04297 7.85659 2.07203 7.80485 2.12377C7.75312 2.1755 7.72405 2.24567 7.72405 2.31883V2.61704C7.09536 2.71966 6.62061 3.16518 6.62061 3.69814C6.62061 4.23111 7.09536 4.67662 7.72405 4.77924V5.87C7.40681 5.79193 7.17233 5.58807 7.17233 5.35331C7.17233 5.28015 7.14327 5.20998 7.09153 5.15825C7.0398 5.10652 6.96963 5.07745 6.89647 5.07745C6.8233 5.07745 6.75314 5.10652 6.7014 5.15825C6.64967 5.20998 6.62061 5.28015 6.62061 5.35331C6.62061 5.88628 7.09536 6.3318 7.72405 6.43442V6.73262C7.72405 6.80579 7.75312 6.87595 7.80485 6.92769C7.85659 6.97942 7.92675 7.00849 7.99992 7.00849C8.07308 7.00849 8.14325 6.97942 8.19498 6.92769C8.24671 6.87595 8.27578 6.80579 8.27578 6.73262V6.43442C8.90447 6.3318 9.37923 5.88628 9.37923 5.35331C9.37923 4.82035 8.90447 4.37483 8.27578 4.27221ZM7.17233 3.69814C7.17233 3.46366 7.40681 3.25952 7.72405 3.18145V4.21483C7.40681 4.13676 7.17233 3.9329 7.17233 3.69814ZM8.27578 5.87V4.83662C8.59302 4.91469 8.8275 5.11883 8.8275 5.35331C8.8275 5.5878 8.59302 5.79193 8.27578 5.87Z" fill="#B19046"/>
</g>
<defs>
<clipPath id="clip0_4006_5844">
<rect width="16" height="16" fill="white" transform="translate(0 0.652344)"/>
</clipPath>
</defs>
</svg>
