<svg width="16" height="17" viewBox="0 0 16 17" fill="none" xmlns="http://www.w3.org/2000/svg">
<g clip-path="url(#clip0_4006_5820)">
<path d="M6.6666 14.7846H0.533268C0.462544 14.7846 0.394716 14.7565 0.344706 14.7065C0.294697 14.6565 0.266602 14.5887 0.266602 14.518V3.0513L2.39993 0.917969H10.6666C10.7373 0.917969 10.8052 0.946064 10.8552 0.996074C10.9052 1.04608 10.9333 1.11391 10.9333 1.18464V7.31797L6.6666 14.7846Z" fill="#ECF0F1"/>
<path d="M2.39993 0.917969V2.78464C2.39993 2.85536 2.37184 2.92319 2.32183 2.9732C2.27182 3.02321 2.20399 3.0513 2.13327 3.0513H0.266602L2.39993 0.917969Z" fill="#D1D4D1"/>
<path d="M15.6559 10.5772C15.5986 10.459 15.5135 10.3565 15.4079 10.2785L14.1332 9.33984V11.6972L13.0665 12.4812L11.7492 13.4518L11.5359 13.2945C11.4384 13.2231 11.3207 13.1845 11.1999 13.1845C11.079 13.1845 10.9613 13.2231 10.8639 13.2945L10.6505 13.4518L9.33319 12.4812L8.26652 11.6972V9.33984L6.99185 10.2785C6.89035 10.3526 6.80791 10.4497 6.75135 10.5619C6.69478 10.6741 6.66571 10.7982 6.66652 10.9238V15.5852C6.66608 15.6989 6.69014 15.8113 6.73708 15.9148C6.78402 16.0184 6.85273 16.1106 6.93852 16.1852C7.08457 16.3135 7.27213 16.3845 7.46652 16.3852H14.9332C15.1276 16.3845 15.3151 16.3135 15.4612 16.1852C15.547 16.1106 15.6157 16.0184 15.6626 15.9148C15.7096 15.8113 15.7336 15.6989 15.7332 15.5852V10.9238C15.7336 10.804 15.7071 10.6855 15.6559 10.5772Z" fill="#F0C419"/>
<path d="M8.26656 9.33984V11.6972L6.7439 10.5772C6.80117 10.459 6.88628 10.3565 6.9919 10.2785L8.26656 9.33984Z" fill="#F29C1F"/>
<path d="M15.4614 16.1842C15.3153 16.3125 15.1278 16.3836 14.9334 16.3842H7.46672C7.27233 16.3836 7.08477 16.3125 6.93872 16.1842L10.6507 13.4509L10.8641 13.2936C10.9615 13.2221 11.0792 13.1836 11.2001 13.1836C11.3209 13.1836 11.4386 13.2221 11.5361 13.2936L11.7494 13.4509L15.4614 16.1842Z" fill="#F3D55B"/>
<path d="M15.656 10.5772L14.1333 11.6972V9.33984L15.408 10.2785C15.5136 10.3565 15.5987 10.459 15.656 10.5772Z" fill="#F29C1F"/>
<path d="M14.1333 7.84974V11.6951L11.7493 13.4497L11.5359 13.2924C11.4385 13.221 11.3208 13.1824 11.1999 13.1824C11.0791 13.1824 10.9614 13.221 10.8639 13.2924L10.6506 13.4497L8.2666 11.6951V7.84974C8.26702 7.70842 8.32335 7.57301 8.42328 7.47308C8.52321 7.37315 8.65862 7.31683 8.79993 7.31641H13.5999C13.7413 7.31683 13.8767 7.37315 13.9766 7.47308C14.0765 7.57301 14.1328 7.70842 14.1333 7.84974Z" fill="#24AE5F"/>
<path d="M13.0666 9.18281V12.4788L11.7493 13.4495L11.5359 13.2921C11.4385 13.2207 11.3208 13.1822 11.1999 13.1822C11.0791 13.1822 10.9614 13.2207 10.8639 13.2921L10.6506 13.4495L9.33325 12.4788V9.18281C9.54543 9.18281 9.74891 9.09853 9.89894 8.9485C10.049 8.79847 10.1333 8.59499 10.1333 8.38281H12.2666C12.2666 8.59499 12.3509 8.79847 12.5009 8.9485C12.6509 9.09853 12.8544 9.18281 13.0666 9.18281Z" fill="#4FBA6F"/>
<path d="M11.1999 12.1195C11.6417 12.1195 11.9999 11.7614 11.9999 11.3195C11.9999 10.8777 11.6417 10.5195 11.1999 10.5195C10.7581 10.5195 10.3999 10.8777 10.3999 11.3195C10.3999 11.7614 10.7581 12.1195 11.1999 12.1195Z" fill="#7ED09E"/>
<path d="M11.2 9.71693C11.3473 9.71693 11.4667 9.59754 11.4667 9.45026C11.4667 9.30298 11.3473 9.18359 11.2 9.18359C11.0527 9.18359 10.9333 9.30298 10.9333 9.45026C10.9333 9.59754 11.0527 9.71693 11.2 9.71693Z" fill="#7ED09E"/>
<path d="M6.93324 8.65052H2.66657C2.59584 8.65052 2.52802 8.62243 2.47801 8.57242C2.428 8.52241 2.3999 8.45458 2.3999 8.38385C2.3999 8.31313 2.428 8.2453 2.47801 8.19529C2.52802 8.14528 2.59584 8.11719 2.66657 8.11719H6.93324C7.00396 8.11719 7.07179 8.14528 7.1218 8.19529C7.17181 8.2453 7.1999 8.31313 7.1999 8.38385C7.1999 8.45458 7.17181 8.52241 7.1218 8.57242C7.07179 8.62243 7.00396 8.65052 6.93324 8.65052ZM5.86657 10.2505H2.66657C2.59584 10.2505 2.52802 10.2224 2.47801 10.1724C2.428 10.1224 2.3999 10.0546 2.3999 9.98385C2.3999 9.91313 2.428 9.8453 2.47801 9.79529C2.52802 9.74528 2.59584 9.71719 2.66657 9.71719H5.86657C5.93729 9.71719 6.00512 9.74528 6.05513 9.79529C6.10514 9.8453 6.13324 9.91313 6.13324 9.98385C6.13324 10.0546 6.10514 10.1224 6.05513 10.1724C6.00512 10.2224 5.93729 10.2505 5.86657 10.2505ZM5.5999 11.8505H2.66657C2.59584 11.8505 2.52802 11.8224 2.47801 11.7724C2.428 11.7224 2.3999 11.6546 2.3999 11.5839C2.3999 11.5131 2.428 11.4453 2.47801 11.3953C2.52802 11.3453 2.59584 11.3172 2.66657 11.3172H5.5999C5.67063 11.3172 5.73845 11.3453 5.78846 11.3953C5.83847 11.4453 5.86657 11.5131 5.86657 11.5839C5.86657 11.6546 5.83847 11.7224 5.78846 11.7724C5.73845 11.8224 5.67063 11.8505 5.5999 11.8505ZM5.5999 13.4505H2.66657C2.59584 13.4505 2.52802 13.4224 2.47801 13.3724C2.428 13.3224 2.3999 13.2546 2.3999 13.1839C2.3999 13.1131 2.428 13.0453 2.47801 12.9953C2.52802 12.9453 2.59584 12.9172 2.66657 12.9172H5.5999C5.67063 12.9172 5.73845 12.9453 5.78846 12.9953C5.83847 13.0453 5.86657 13.1131 5.86657 13.1839C5.86657 13.2546 5.83847 13.3224 5.78846 13.3724C5.73845 13.4224 5.67063 13.4505 5.5999 13.4505Z" fill="#1E866F"/>
<path d="M1.59992 8.65052C1.74719 8.65052 1.86659 8.53113 1.86659 8.38385C1.86659 8.23658 1.74719 8.11719 1.59992 8.11719C1.45264 8.11719 1.33325 8.23658 1.33325 8.38385C1.33325 8.53113 1.45264 8.65052 1.59992 8.65052Z" fill="#1E866F"/>
<path d="M1.59992 10.2521C1.74719 10.2521 1.86659 10.1327 1.86659 9.98542C1.86659 9.83814 1.74719 9.71875 1.59992 9.71875C1.45264 9.71875 1.33325 9.83814 1.33325 9.98542C1.33325 10.1327 1.45264 10.2521 1.59992 10.2521Z" fill="#1E866F"/>
<path d="M9.5999 5.4513H2.66657C2.59584 5.4513 2.52802 5.42321 2.47801 5.3732C2.428 5.32319 2.3999 5.25536 2.3999 5.18464C2.3999 5.11391 2.428 5.04608 2.47801 4.99607C2.52802 4.94606 2.59584 4.91797 2.66657 4.91797H9.5999C9.67063 4.91797 9.73846 4.94606 9.78847 4.99607C9.83848 5.04608 9.86657 5.11391 9.86657 5.18464C9.86657 5.25536 9.83848 5.32319 9.78847 5.3732C9.73846 5.42321 9.67063 5.4513 9.5999 5.4513ZM7.46657 7.0513H2.66657C2.59584 7.0513 2.52802 7.02321 2.47801 6.9732C2.428 6.92319 2.3999 6.85536 2.3999 6.78464C2.3999 6.71391 2.428 6.64608 2.47801 6.59607C2.52802 6.54606 2.59584 6.51797 2.66657 6.51797H7.46657C7.53729 6.51797 7.60512 6.54606 7.65513 6.59607C7.70514 6.64608 7.73324 6.71391 7.73324 6.78464C7.73324 6.85536 7.70514 6.92319 7.65513 6.9732C7.60512 7.02321 7.53729 7.0513 7.46657 7.0513Z" fill="#1E866F"/>
<path d="M1.59992 5.4513C1.74719 5.4513 1.86659 5.33191 1.86659 5.18464C1.86659 5.03736 1.74719 4.91797 1.59992 4.91797C1.45264 4.91797 1.33325 5.03736 1.33325 5.18464C1.33325 5.33191 1.45264 5.4513 1.59992 5.4513Z" fill="#1E866F"/>
<path d="M1.59992 7.05286C1.74719 7.05286 1.86659 6.93347 1.86659 6.7862C1.86659 6.63892 1.74719 6.51953 1.59992 6.51953C1.45264 6.51953 1.33325 6.63892 1.33325 6.7862C1.33325 6.93347 1.45264 7.05286 1.59992 7.05286Z" fill="#1E866F"/>
<path d="M1.59992 11.8497C1.74719 11.8497 1.86659 11.7303 1.86659 11.5831C1.86659 11.4358 1.74719 11.3164 1.59992 11.3164C1.45264 11.3164 1.33325 11.4358 1.33325 11.5831C1.33325 11.7303 1.45264 11.8497 1.59992 11.8497Z" fill="#1E866F"/>
<path d="M1.59992 13.4513C1.74719 13.4513 1.86659 13.3319 1.86659 13.1846C1.86659 13.0374 1.74719 12.918 1.59992 12.918C1.45264 12.918 1.33325 13.0374 1.33325 13.1846C1.33325 13.3319 1.45264 13.4513 1.59992 13.4513Z" fill="#1E866F"/>
</g>
<defs>
<clipPath id="clip0_4006_5820">
<rect width="16" height="16" fill="white" transform="translate(0 0.652344)"/>
</clipPath>
</defs>
</svg>
