<svg width="16" height="17" viewBox="0 0 16 17" fill="none" xmlns="http://www.w3.org/2000/svg">
<g clip-path="url(#clip0_4006_5861)">
<path d="M11.862 0.652344H4.13789C3.68083 0.652344 3.3103 1.02287 3.3103 1.47993V14.4454C3.3103 14.9025 3.68083 15.273 4.13789 15.273H11.862C12.3191 15.273 12.6896 14.9025 12.6896 14.4454V1.47993C12.6896 1.02287 12.3191 0.652344 11.862 0.652344Z" fill="#D9EEFF"/>
<path fill-rule="evenodd" clip-rule="evenodd" d="M9.4592 10.3077H12.9654C13.1849 10.3077 13.3954 10.2205 13.5506 10.0653C13.7058 9.91005 13.793 9.69955 13.793 9.48007V3.68696C13.793 3.46747 13.7058 3.25697 13.5506 3.10177C13.3954 2.94657 13.1849 2.85938 12.9654 2.85938H3.03437C2.81488 2.85938 2.60438 2.94657 2.44918 3.10177C2.29398 3.25697 2.20679 3.46747 2.20679 3.68696V9.48007C2.20679 9.69955 2.29398 9.91005 2.44918 10.0653C2.60438 10.2205 2.81488 10.3077 3.03437 10.3077H9.4592Z" fill="#1E866F"/>
<path d="M7.99987 14.1677C9.2187 14.1677 10.2068 13.1796 10.2068 11.9608C10.2068 10.742 9.2187 9.75391 7.99987 9.75391C6.78103 9.75391 5.79297 10.742 5.79297 11.9608C5.79297 13.1796 6.78103 14.1677 7.99987 14.1677Z" fill="#4FBA6F"/>
<path fill-rule="evenodd" clip-rule="evenodd" d="M12.6896 14.4453V15.8246C12.6896 16.0441 12.6024 16.2546 12.4472 16.4098C12.292 16.565 12.0815 16.6522 11.862 16.6522H4.13789C3.9184 16.6522 3.7079 16.565 3.5527 16.4098C3.39749 16.2546 3.3103 16.0441 3.3103 15.8246V14.4453C3.3103 14.6648 3.39749 14.8753 3.5527 15.0305C3.7079 15.1857 3.9184 15.2729 4.13789 15.2729H11.862C12.0815 15.2729 12.292 15.1857 12.4472 15.0305C12.6024 14.8753 12.6896 14.6648 12.6896 14.4453Z" fill="#547580"/>
<path fill-rule="evenodd" clip-rule="evenodd" d="M7.44824 13.0666C7.412 13.0667 7.3761 13.0596 7.34262 13.0457C7.30914 13.0318 7.27875 13.0115 7.2532 12.9858L6.97734 12.7099C6.92709 12.6579 6.89928 12.5882 6.89991 12.5158C6.90054 12.4435 6.92955 12.3743 6.9807 12.3232C7.03185 12.272 7.10104 12.243 7.17337 12.2424C7.2457 12.2418 7.31538 12.2696 7.36741 12.3198L7.42975 12.3822L8.61596 10.9587C8.66286 10.9025 8.73019 10.8671 8.80313 10.8605C8.87608 10.8539 8.94866 10.8765 9.00493 10.9234C9.06119 10.9703 9.09652 11.0376 9.10314 11.1106C9.10976 11.1835 9.08713 11.2561 9.04024 11.3124L7.66093 12.9675C7.61127 13.0269 7.53872 13.0627 7.4612 13.0663L7.44824 13.0666Z" fill="#ECF0F1"/>
<path fill-rule="evenodd" clip-rule="evenodd" d="M10.7585 0.652344L9.96921 1.49427C9.89179 1.57684 9.79826 1.64265 9.69439 1.68763C9.59053 1.73262 9.47854 1.75581 9.36535 1.75579H6.63431C6.52113 1.75581 6.40914 1.73262 6.30527 1.68763C6.20141 1.64265 6.10787 1.57684 6.03045 1.49427L5.24121 0.652344H10.7585Z" fill="#547580"/>
<path d="M5.24137 4.23828H4.13792C3.98557 4.23828 3.86206 4.36179 3.86206 4.51414V5.61759C3.86206 5.76995 3.98557 5.89345 4.13792 5.89345H5.24137C5.39373 5.89345 5.51723 5.76995 5.51723 5.61759V4.51414C5.51723 4.36179 5.39373 4.23828 5.24137 4.23828Z" fill="#FF9900"/>
<path fill-rule="evenodd" clip-rule="evenodd" d="M4.96549 7.54782H3.86204C3.78888 7.54782 3.71871 7.51875 3.66698 7.46702C3.61525 7.41529 3.58618 7.34512 3.58618 7.27196C3.58618 7.19879 3.61525 7.12863 3.66698 7.07689C3.71871 7.02516 3.78888 6.99609 3.86204 6.99609H4.96549C5.03866 6.99609 5.10882 7.02516 5.16056 7.07689C5.21229 7.12863 5.24135 7.19879 5.24135 7.27196C5.24135 7.34512 5.21229 7.41529 5.16056 7.46702C5.10882 7.51875 5.03866 7.54782 4.96549 7.54782ZM8.82756 8.92713H3.86204C3.78888 8.92713 3.71871 8.89806 3.66698 8.84633C3.61525 8.7946 3.58618 8.72443 3.58618 8.65127C3.58618 8.5781 3.61525 8.50794 3.66698 8.4562C3.71871 8.40447 3.78888 8.3754 3.86204 8.3754H8.82756C8.90072 8.3754 8.97089 8.40447 9.02262 8.4562C9.07436 8.50794 9.10342 8.5781 9.10342 8.65127C9.10342 8.72443 9.07436 8.7946 9.02262 8.84633C8.97089 8.89806 8.90072 8.92713 8.82756 8.92713ZM7.17239 7.54782H6.06894C5.99578 7.54782 5.92561 7.51875 5.87388 7.46702C5.82214 7.41529 5.79308 7.34512 5.79308 7.27196C5.79308 7.19879 5.82214 7.12863 5.87388 7.07689C5.92561 7.02516 5.99578 6.99609 6.06894 6.99609H7.17239C7.24555 6.99609 7.31572 7.02516 7.36745 7.07689C7.41919 7.12863 7.44825 7.19879 7.44825 7.27196C7.44825 7.34512 7.41919 7.41529 7.36745 7.46702C7.31572 7.51875 7.24555 7.54782 7.17239 7.54782ZM9.37928 7.54782H8.27584C8.20267 7.54782 8.13251 7.51875 8.08077 7.46702C8.02904 7.41529 7.99997 7.34512 7.99997 7.27196C7.99997 7.19879 8.02904 7.12863 8.08077 7.07689C8.13251 7.02516 8.20267 6.99609 8.27584 6.99609H9.37928C9.45245 6.99609 9.52261 7.02516 9.57435 7.07689C9.62608 7.12863 9.65515 7.19879 9.65515 7.27196C9.65515 7.34512 9.62608 7.41529 9.57435 7.46702C9.52261 7.51875 9.45245 7.54782 9.37928 7.54782ZM11.5862 7.54782H10.4827C10.4096 7.54782 10.3394 7.51875 10.2877 7.46702C10.2359 7.41529 10.2069 7.34512 10.2069 7.27196C10.2069 7.19879 10.2359 7.12863 10.2877 7.07689C10.3394 7.02516 10.4096 6.99609 10.4827 6.99609H11.5862C11.6593 6.99609 11.7295 7.02516 11.7812 7.07689C11.833 7.12863 11.862 7.19879 11.862 7.27196C11.862 7.34512 11.833 7.41529 11.7812 7.46702C11.7295 7.51875 11.6593 7.54782 11.5862 7.54782Z" fill="#BDC3C7"/>
<path fill-rule="evenodd" clip-rule="evenodd" d="M9.65496 4.51266H8.82738C8.75421 4.51266 8.68405 4.4836 8.63231 4.43186C8.58058 4.38013 8.55151 4.30996 8.55151 4.2368C8.55151 4.16364 8.58058 4.09347 8.63231 4.04174C8.68405 3.99 8.75421 3.96094 8.82738 3.96094H9.65496C9.72813 3.96094 9.79829 3.99 9.85003 4.04174C9.90176 4.09347 9.93082 4.16364 9.93082 4.2368C9.93082 4.30996 9.90176 4.38013 9.85003 4.43186C9.79829 4.4836 9.72813 4.51266 9.65496 4.51266ZM12.4136 4.51266H10.7584C10.6852 4.51266 10.6151 4.4836 10.5633 4.43186C10.5116 4.38013 10.4825 4.30996 10.4825 4.2368C10.4825 4.16364 10.5116 4.09347 10.5633 4.04174C10.6151 3.99 10.6852 3.96094 10.7584 3.96094H12.4136C12.4867 3.96094 12.5569 3.99 12.6086 4.04174C12.6604 4.09347 12.6894 4.16364 12.6894 4.2368C12.6894 4.30996 12.6604 4.38013 12.6086 4.43186C12.5569 4.4836 12.4867 4.51266 12.4136 4.51266Z" fill="#E4E4E4"/>
</g>
<defs>
<clipPath id="clip0_4006_5861">
<rect width="16" height="16" fill="white" transform="translate(0 0.652344)"/>
</clipPath>
</defs>
</svg>
