<svg width="18" height="18" viewBox="0 0 18 18" fill="none" xmlns="http://www.w3.org/2000/svg">
<path d="M5.06641 15.377C5.54143 16.8967 6.96005 17.9997 8.63634 17.9997C10.3126 17.9997 11.7313 16.8967 12.2063 15.377H5.06641Z" fill="#808285"/>
<path d="M11.1294 15.377C10.4834 16.4971 9.27438 17.2517 7.88836 17.2517C7.079 17.253 6.29128 16.9904 5.64453 16.5038C6.32681 17.4121 7.4129 17.9997 8.63631 17.9997C10.3126 17.9997 11.7312 16.8967 12.2062 15.377H11.1294Z" fill="#58595B"/>
<path d="M11.6924 15.377C11.1163 16.7002 9.79777 17.6257 8.26254 17.6257C7.32507 17.6257 6.46882 17.2799 5.8125 16.71C6.49814 17.4996 7.50861 17.9997 8.63651 17.9997C10.3128 17.9997 11.7314 16.8967 12.2064 15.377H11.6924Z" fill="#414042"/>
<path d="M9.88615 15.975H9.85661C9.81693 15.975 9.77888 15.9592 9.75083 15.9311C9.72278 15.9031 9.70702 15.865 9.70702 15.8254C9.70702 15.7857 9.72278 15.7476 9.75083 15.7196C9.77888 15.6915 9.81693 15.6758 9.85661 15.6758H9.88615C9.92582 15.6758 9.96387 15.6915 9.99192 15.7196C10.02 15.7476 10.0357 15.7857 10.0357 15.8254C10.0357 15.865 10.02 15.9031 9.99192 15.9311C9.96387 15.9592 9.92582 15.975 9.88615 15.975ZM9.25833 15.975H6.04217C6.00249 15.975 5.96444 15.9592 5.93639 15.9311C5.90834 15.9031 5.89258 15.865 5.89258 15.8254C5.89258 15.7857 5.90834 15.7476 5.93639 15.7196C5.96444 15.6915 6.00249 15.6758 6.04217 15.6758H9.25833C9.298 15.6758 9.33605 15.6915 9.3641 15.7196C9.39215 15.7476 9.40791 15.7857 9.40791 15.8254C9.40791 15.865 9.39215 15.9031 9.3641 15.9311C9.33605 15.9592 9.298 15.975 9.25833 15.975Z" fill="#939598"/>
<path d="M7.83894 1.8172V1.69529C7.83894 1.25542 8.19683 0.897533 8.63677 0.897533C9.07671 0.897533 9.4346 1.25542 9.4346 1.69529V1.8172C9.74093 1.86824 10.0415 1.94907 10.3321 2.05857V1.69529C10.3321 0.760509 9.57163 0 8.63677 0C7.70192 0 6.94141 0.760509 6.94141 1.69529V2.05857C7.23203 1.94914 7.53263 1.86831 7.83894 1.8172Z" fill="#808285"/>
<path d="M9.9576 1.69529V1.93553C10.0839 1.97136 10.2087 2.01241 10.3316 2.05857V1.69529C10.3316 0.760509 9.57106 0 8.6362 0C8.573 0 8.51062 0.00373974 8.44922 0.010546C9.29634 0.103964 9.9576 0.823711 9.9576 1.69529Z" fill="#58595B"/>
<path d="M13.4425 10.0498V6.55681C13.4425 3.90206 11.2904 1.75 8.63566 1.75C5.98091 1.75 3.82885 3.90213 3.82885 6.55681V10.0498C3.82883 10.961 3.48742 11.8392 2.87193 12.5111L1.34582 14.1771C0.924805 14.6368 1.25083 15.3776 1.87417 15.3776H15.3971C16.0205 15.3776 16.3466 14.6367 15.9255 14.1771L14.3994 12.5111C13.7839 11.8392 13.4425 10.961 13.4425 10.0498Z" fill="#FF0000"/>
<path d="M15.9251 14.1774L14.399 12.5115C13.7835 11.8395 13.442 10.9614 13.442 10.0501V6.55715C13.442 4.37809 11.9916 2.53875 10.0039 1.94922C11.1824 2.82521 11.9462 4.22798 11.9462 5.80921V9.30218C11.9462 10.2134 12.2876 11.0916 12.9031 11.7635L14.4292 13.4295C14.8502 13.8892 14.5242 14.63 13.9008 14.63H1.15676C1.14233 15.0088 1.4338 15.378 1.87374 15.378H15.3967C16.0201 15.378 16.3462 14.6371 15.9251 14.1774Z" fill="#E11010"/>
<path d="M14.8035 10.2979C14.741 10.2978 14.6795 10.2821 14.6246 10.2522C14.5697 10.2222 14.5232 10.179 14.4893 10.1264C14.4555 10.0739 14.4353 10.0137 14.4307 9.95133C14.4261 9.88898 14.4372 9.82647 14.463 9.76952C15.1136 8.33362 15.1136 6.4779 14.463 5.04199C14.4428 4.99726 14.4315 4.94897 14.4299 4.89988C14.4283 4.8508 14.4364 4.80188 14.4537 4.75591C14.471 4.70995 14.4971 4.66784 14.5307 4.632C14.5643 4.59615 14.6046 4.56727 14.6493 4.547C14.6941 4.52674 14.7424 4.51548 14.7914 4.51387C14.8405 4.51227 14.8894 4.52034 14.9354 4.53765C14.9814 4.55495 15.0235 4.58113 15.0593 4.6147C15.0952 4.64828 15.1241 4.68858 15.1443 4.73332C15.8798 6.35673 15.8798 8.45479 15.1443 10.0782C15.1146 10.1437 15.0667 10.1993 15.0062 10.2382C14.9458 10.2772 14.8754 10.2979 14.8035 10.2979Z" fill="#FF0000"/>
<path d="M16.2271 11.0457C16.1646 11.0457 16.1031 11.03 16.0482 11C15.9933 10.9701 15.9468 10.9268 15.9129 10.8743C15.8791 10.8217 15.8589 10.7615 15.8543 10.6992C15.8497 10.6368 15.8608 10.5743 15.8866 10.5174C16.7431 8.62709 16.7431 6.18423 15.8866 4.29395C15.8457 4.2036 15.8423 4.10069 15.8773 4.00787C15.9122 3.91504 15.9826 3.83989 16.0729 3.79896C16.1633 3.75802 16.2662 3.75466 16.359 3.7896C16.4518 3.82454 16.527 3.89492 16.5679 3.98527C17.5094 6.06306 17.5094 8.74825 16.5679 10.826C16.5382 10.8915 16.4903 10.9471 16.4298 10.9861C16.3694 11.025 16.299 11.0457 16.2271 11.0457ZM2.46866 10.2978C2.39673 10.2978 2.32632 10.2771 2.26586 10.2381C2.20541 10.1991 2.15748 10.1435 2.12782 10.078C1.39229 8.45461 1.39229 6.35663 2.12782 4.73314C2.1699 4.64463 2.24505 4.57617 2.33709 4.54249C2.42913 4.50881 2.53071 4.5126 2.61999 4.55305C2.70926 4.5935 2.77909 4.66737 2.81446 4.75877C2.84983 4.85018 2.84791 4.95181 2.80912 5.04182C2.15856 6.47779 2.15856 8.33344 2.80912 9.76935C2.83495 9.8263 2.84608 9.88882 2.8415 9.95119C2.83692 10.0136 2.81677 10.0738 2.7829 10.1263C2.74903 10.1789 2.70252 10.2222 2.64762 10.2521C2.59272 10.282 2.53119 10.2977 2.46866 10.2978Z" fill="#FF0000"/>
<path d="M1.04692 11.0435C0.974988 11.0435 0.904577 11.0228 0.844124 10.9838C0.783671 10.9448 0.735741 10.8893 0.706078 10.8237C-0.235359 8.74594 -0.235359 6.06075 0.706078 3.98296C0.748164 3.89445 0.823309 3.82599 0.91535 3.79231C1.00739 3.75863 1.10897 3.76242 1.19825 3.80287C1.28752 3.84332 1.35735 3.91719 1.39272 4.00859C1.42809 4.1 1.42617 4.20163 1.38738 4.29164C0.530909 6.18191 0.530909 8.62477 1.38738 10.5151C1.41321 10.572 1.42434 10.6345 1.41976 10.6969C1.41518 10.7593 1.39503 10.8195 1.36116 10.8721C1.32729 10.9246 1.28078 10.9679 1.22588 10.9978C1.17098 11.0278 1.10945 11.0435 1.04692 11.0435Z" fill="#FF0000"/>
<path d="M8.63614 4.66797C8.08835 4.66797 7.6579 5.11494 7.70465 5.63528L8.08341 9.84756C8.10802 10.1211 8.34811 10.3313 8.63614 10.3313C8.92417 10.3313 9.16426 10.1212 9.1888 9.84756L9.56755 5.63528C9.61438 5.11494 9.18393 4.66797 8.63614 4.66797ZM8.63614 10.9339C8.13083 10.9339 7.72118 11.3244 7.72118 11.8062C7.72118 12.2879 8.13083 12.6784 8.63614 12.6784C9.14145 12.6784 9.5511 12.2879 9.5511 11.8062C9.55117 11.3244 9.14145 10.9339 8.63614 10.9339Z" fill="#F1F2F2"/>
</svg>
