<svg width="10" height="10" viewBox="0 0 10 10" fill="none" xmlns="http://www.w3.org/2000/svg">
<path d="M5 0C2.24 0 0 2.24 0 5C0 7.76 2.24 10 5 10C7.76 10 10 7.76 10 5C10 2.24 7.76 0 5 0ZM5 8C4.63333 8 4.33333 7.7 4.33333 7.33333C4.33333 6.96667 4.63333 6.66667 5 6.66667C5.36667 6.66667 5.66667 6.96667 5.66667 7.33333C5.66667 7.7 5.36667 8 5 8ZM5.76333 2.83L5.54 5.50333C5.51667 5.78333 5.28333 6 5 6C4.71667 6 4.48333 5.78333 4.46 5.50333L4.23667 2.83C4.2 2.38333 4.55 2 5 2C5.10068 2 5.20037 2.01983 5.29339 2.05836C5.38641 2.09689 5.47092 2.15336 5.54212 2.22455C5.61331 2.29574 5.66978 2.38026 5.70831 2.47328C5.74684 2.56629 5.76667 2.66599 5.76667 2.76667C5.76667 2.78667 5.76667 2.81 5.76333 2.83Z" fill="#C31B1B"/>
</svg>
