<svg width="16" height="16" viewBox="0 0 16 16" fill="none" xmlns="http://www.w3.org/2000/svg">
<path fill-rule="evenodd" clip-rule="evenodd" d="M14.0496 15.6246V15.0972C14.0496 14.8503 14.4246 14.8504 14.4246 15.0972V15.6246H14.8827V14.5609C14.8827 14.0449 14.5057 13.604 14.007 13.514C13.8862 13.6731 13.7253 13.8002 13.5396 13.8801L13.83 14.9718C13.8495 15.0456 13.8225 15.1239 13.7616 15.1699L13.1403 15.6246H14.0496ZM10.4805 9.37661H8.18788V10.0414C8.73848 10.1313 9.16007 10.6104 9.16007 11.186C9.16007 11.5113 9.19307 12.0703 9.1041 12.3452C9.72182 12.5095 10.1755 13.0773 10.1755 13.7358V14.9869C10.1753 15.0903 10.0913 15.1744 9.98779 15.1744H6.01297C5.90947 15.1744 5.82547 15.0903 5.82547 14.9869V13.7358C5.82547 13.0774 6.27894 12.5098 6.89656 12.3453C6.80759 12.0705 6.8405 11.5113 6.8405 11.1859C6.8405 10.6101 7.26219 10.1311 7.81288 10.0413V9.37661H5.52012C5.13499 9.37661 4.82159 9.06321 4.82159 8.67799V5.38351H3.10558V10.8664C3.65618 10.9564 4.07777 11.4354 4.07777 12.011C4.07777 12.3356 4.10936 12.8997 4.0219 13.1703C4.63962 13.3348 5.09318 13.9024 5.09318 14.5609V15.812C5.09318 15.9155 5.00918 15.9995 4.90568 15.9995H0.930665C0.827164 15.9995 0.743164 15.9154 0.743164 15.812V14.5608C0.743164 13.9024 1.19663 13.3348 1.81417 13.1702C1.7252 12.8953 1.7582 12.3364 1.7582 12.0109C1.7582 11.4352 2.17989 10.9561 2.73058 10.8663V5.19591C2.73058 5.09241 2.81458 5.00841 2.91808 5.00841H4.82159V1.71412C4.82159 1.32899 5.13499 1.01558 5.52012 1.01558H6.39462C6.39462 0.508768 6.82569 0.597737 7.23744 0.597737C7.43225 -0.194735 8.56832 -0.194641 8.76304 0.597737C9.1746 0.597737 9.60595 0.508861 9.60595 1.01558H10.4805C10.8656 1.01558 11.1791 1.32899 11.1791 1.71412V5.00841H13.0827C13.1862 5.00841 13.2702 5.09241 13.2702 5.19591V10.8663C13.8208 10.9562 14.2424 11.4353 14.2424 12.0109C14.2424 12.3251 14.2742 12.8985 14.1864 13.1701C14.8042 13.3346 15.2577 13.9022 15.2577 14.5608V15.8119C15.2576 15.9154 15.1736 15.9994 15.0701 15.9994H11.0952C10.9917 15.9994 10.9077 15.9153 10.9077 15.8119V14.5607C10.9077 13.9024 11.3611 13.3348 11.9787 13.1702C11.8897 12.8954 11.9226 12.3362 11.9226 12.0108C11.9226 11.4351 12.3443 10.9561 12.895 10.8662V5.38332H11.1791V8.6778C11.1791 9.06302 10.8657 9.37643 10.4805 9.37643L10.4805 9.37661ZM6.39472 1.39068H5.52021C5.34181 1.39068 5.19659 1.5359 5.19659 1.7143V8.67808C5.19659 8.85649 5.34181 9.00152 5.52021 9.00152H9.30632C9.44845 8.80999 9.82861 8.22911 9.67992 7.6713C9.64064 7.52383 9.78586 7.39361 9.92817 7.44779C9.93482 7.45033 10.6124 7.69633 10.8041 7.39951V1.7144C10.8041 1.5359 10.659 1.39077 10.4806 1.39077H9.60614V1.59215C9.60632 1.79184 9.44367 1.9543 9.24398 1.9543H6.75697C6.55719 1.9543 6.39472 1.79184 6.39472 1.59205V1.39077V1.39068ZM9.75792 9.00143C10.938 9.00143 10.8041 9.11805 10.8041 7.85823C10.5852 7.94364 10.3193 7.93202 10.088 7.88373C10.1042 8.32727 9.91786 8.73583 9.75792 9.00143ZM6.76962 1.57921H9.23113V0.972832L8.59841 0.972926C8.49491 0.972926 8.41091 0.888925 8.41091 0.785425C8.41091 0.245235 7.59003 0.245235 7.59003 0.785425C7.59003 0.888925 7.50603 0.972926 7.40253 0.972926H6.76981V1.57921H6.76962ZM5.7275 8.15149C5.624 8.15149 5.54 8.06739 5.54 7.96398V5.29735C5.54 5.0505 5.915 5.0505 5.915 5.29735V7.96398C5.915 8.06758 5.83118 8.15149 5.7275 8.15149ZM9.79973 3.29484H6.54725C6.3004 3.29484 6.3004 2.91984 6.54725 2.91984H9.79973C10.0466 2.91984 10.0466 3.29484 9.79973 3.29484ZM8.13669 4.33922H6.54725C6.3004 4.33922 6.3004 3.96422 6.54725 3.96422H8.13669C8.38344 3.96422 8.38344 4.33922 8.13669 4.33922ZM9.4536 5.38369H6.54725C6.3004 5.38369 6.3004 5.00869 6.54725 5.00869H9.4536C9.70036 5.00869 9.70036 5.38369 9.4536 5.38369ZM8.39216 8.51692H6.54734C6.30059 8.51692 6.30059 8.14192 6.54734 8.14192H8.39216C8.63901 8.14192 8.63891 8.51692 8.39216 8.51692ZM8.13669 6.42807H6.54725C6.3004 6.42807 6.3004 6.05307 6.54725 6.05307H8.13669C8.38344 6.05307 8.38344 6.42807 8.13669 6.42807ZM8.86316 7.47245H6.54725C6.3004 7.47245 6.3004 7.09745 6.54725 7.09745H8.86316C9.11001 7.09745 9.11001 7.47245 8.86316 7.47245ZM2.23848 13.2061C2.40039 13.4378 2.59276 13.5988 2.91808 13.5988C3.35664 13.5988 3.70296 13.2407 3.70296 12.8141V12.5108C3.39724 12.4623 3.19708 12.2982 3.07858 12.1329C2.78017 12.3459 2.3717 12.4046 2.13329 12.42C2.13329 12.689 2.09983 12.9667 2.23848 13.2061ZM1.99389 13.5141C1.49514 13.604 1.11817 14.0448 1.11817 14.561V15.6247H1.57614V15.0973C1.57614 14.8504 1.95114 14.8505 1.95114 15.0973V15.6247H2.86033L2.26389 15.1669C2.23524 15.1443 2.21385 15.1138 2.20236 15.0791C2.19086 15.0444 2.18977 15.0072 2.1992 14.9719L2.48683 13.891C2.29023 13.8119 2.12017 13.6806 1.99379 13.5142L1.99389 13.5141ZM2.97583 15.6247H3.88521V15.0973C3.88521 14.8504 4.26021 14.8505 4.26021 15.0973V15.6247H4.71818V14.561C4.71818 14.045 4.34112 13.6041 3.84227 13.5141C3.72152 13.6732 3.56064 13.8003 3.37492 13.8803L3.66527 14.972C3.68496 15.0458 3.65786 15.1241 3.59674 15.1701L2.97574 15.6248L2.97583 15.6247ZM2.91808 13.9741C2.89633 13.9741 2.87467 13.9735 2.8532 13.9723L2.59314 14.9496L2.92098 15.2095L3.27058 14.9463L3.01089 13.9703C2.98024 13.9727 2.9493 13.974 2.91799 13.974L2.91808 13.9741ZM2.91808 11.2262C2.47755 11.2262 2.1332 11.5715 2.1332 12.0447C3.03564 11.9761 2.91124 11.588 3.16924 11.6389C3.39367 11.6832 3.25624 12.0186 3.70286 12.1286V12.011C3.70296 11.5783 3.35092 11.2262 2.91808 11.2262ZM7.319 12.378C7.49272 12.6179 7.67582 12.7737 8.00029 12.7737C8.43163 12.7737 8.78498 12.4225 8.78498 11.989V11.6856C8.47926 11.637 8.2791 11.4729 8.16069 11.3075C7.86229 11.5207 7.45391 11.5795 7.2155 11.5949C7.2155 11.8623 7.18222 12.1395 7.319 12.378ZM7.07619 12.689C6.57734 12.7788 6.20047 13.2195 6.20047 13.7359V14.7996H6.65825V14.2722C6.65825 14.0253 7.03325 14.0254 7.03325 14.2722V14.7996H7.94282L7.34619 14.3419C7.28778 14.2956 7.26219 14.2189 7.2815 14.1467L7.56913 13.0658C7.37263 12.9868 7.20247 12.8554 7.07619 12.6891V12.689ZM8.05747 14.7995H8.96741V14.2721C8.96741 14.0252 9.34242 14.0254 9.34242 14.2721V14.7995H9.80039V13.7358C9.80039 13.2195 9.42332 12.7788 8.92448 12.6889C8.80373 12.8479 8.64304 12.975 8.45741 13.0549L8.74776 14.1464C8.76735 14.2201 8.74026 14.2985 8.67941 14.3444L8.05757 14.7994L8.05747 14.7995ZM8.00038 13.1488C7.97863 13.1488 7.95697 13.1482 7.93551 13.147L7.67553 14.1243L8.00329 14.3841L8.35307 14.1209L8.09347 13.1451C8.06282 13.1475 8.03179 13.1488 8.00047 13.1488H8.00038ZM8.00038 10.401C7.55975 10.401 7.2155 10.7462 7.2155 11.2196C8.11607 11.1519 7.99391 10.7624 8.25126 10.8135C8.47569 10.8582 8.33807 11.1932 8.78498 11.3033V11.1858C8.78498 10.7532 8.43304 10.401 8.00038 10.401ZM12.4037 13.2074C12.923 13.958 13.8673 13.526 13.8673 12.8141V12.5108C13.5616 12.4622 13.3614 12.2981 13.243 12.1329C12.9445 12.346 12.5361 12.4048 12.2977 12.4202C12.2977 12.6898 12.2641 12.9676 12.4036 13.2074H12.4037ZM12.1584 13.5141C11.6596 13.6041 11.2829 14.0449 11.2829 14.561V15.6247H11.7406V15.0973C11.7406 14.8504 12.1156 14.8505 12.1156 15.0973V15.6247H13.0247L12.4284 15.1669C12.3998 15.1443 12.3784 15.1138 12.3669 15.0791C12.3553 15.0445 12.3542 15.0072 12.3636 14.9719L12.6512 13.891C12.4547 13.8119 12.2847 13.6806 12.1584 13.5143V13.5141ZM13.0827 13.974C13.0608 13.974 13.0392 13.9734 13.0177 13.9722L12.7576 14.9495L13.0854 15.2094L13.4353 14.9462L13.1756 13.9702C13.1449 13.9726 13.114 13.9739 13.0827 13.9739V13.974ZM13.0827 11.2261C12.6421 11.2261 12.2978 11.5713 12.2978 12.0446C13.1997 11.9764 13.0759 11.5879 13.3338 11.6387C13.5582 11.683 13.4207 12.0184 13.8674 12.1284V12.0108C13.8675 11.5782 13.5154 11.226 13.0828 11.226L13.0827 11.2261Z" fill="#1E866F"/>
</svg>
