<svg width="16" height="16" viewBox="0 0 16 16" fill="none" xmlns="http://www.w3.org/2000/svg">
<g clip-path="url(#clip0_10608_3337)">
<path d="M5.97009 2.95732C5.3739 2.95726 4.79109 3.134 4.29536 3.46519C3.79963 3.79637 3.41324 4.26713 3.18507 4.81792C2.95689 5.36871 2.89718 5.9748 3.01347 6.55953C3.12977 7.14426 3.41685 7.68137 3.83842 8.10293C4.25998 8.5245 4.79709 8.81158 5.38182 8.92788C5.96655 9.04417 6.57264 8.98446 7.12343 8.75628C7.67422 8.5281 8.14497 8.14172 8.47616 7.64599C8.80735 7.15026 8.98409 6.56745 8.98403 5.97126C8.9832 5.17209 8.66536 4.4059 8.10026 3.8408C7.53517 3.2757 6.76897 2.95786 5.9698 2.95703L5.97009 2.95732ZM5.97009 8.41379C5.48693 8.41385 5.01461 8.27063 4.61285 8.00224C4.2111 7.73386 3.89795 7.35236 3.71302 6.906C3.52808 6.45964 3.47966 5.96846 3.57389 5.49458C3.66811 5.0207 3.90075 4.58541 4.24237 4.24375C4.58399 3.90209 5.01926 3.6694 5.49313 3.57512C5.96699 3.48084 6.45817 3.5292 6.90456 3.71408C7.35094 3.89897 7.73247 4.21207 8.00091 4.61379C8.26934 5.01552 8.41261 5.48782 8.41261 5.97098C8.41193 6.61864 8.15435 7.23959 7.69638 7.69756C7.23841 8.15552 6.61746 8.41311 5.9698 8.41379H5.97009Z" fill="#707070"/>
<path d="M5.99389 11.3684H5.34533V10.6055C5.34451 10.4909 5.30562 10.3798 5.23476 10.2897C5.1639 10.1996 5.06511 10.1356 4.95391 10.1078C4.5337 10.0055 4.13182 9.83888 3.7625 9.61383C3.66485 9.55391 3.54983 9.52871 3.43607 9.54229C3.32231 9.55588 3.21646 9.60746 3.13566 9.68868L2.59424 10.2275L1.71283 9.34555L2.2471 8.80841C2.32993 8.72706 2.38262 8.61995 2.39653 8.50469C2.41045 8.38943 2.38476 8.27287 2.32367 8.17414C2.09922 7.80489 1.93308 7.40322 1.83111 6.9833C1.80329 6.87241 1.73931 6.77395 1.64928 6.70347C1.55925 6.633 1.44831 6.59454 1.33398 6.59417H0.571133V5.34562H1.33398C1.449 5.34496 1.56048 5.30576 1.6506 5.23428C1.74072 5.16281 1.80427 5.06319 1.83111 4.95134C1.93386 4.53217 2.10047 4.1313 2.3251 3.76279C2.38511 3.66515 2.41042 3.55012 2.39694 3.43632C2.38346 3.32251 2.33197 3.21657 2.25082 3.13566L1.71083 2.59281L2.59395 1.71225L3.1348 2.25053C3.21664 2.33138 3.32317 2.38254 3.43743 2.39584C3.5517 2.40915 3.66714 2.38384 3.76536 2.32396C4.13489 2.09932 4.53684 1.93299 4.95705 1.83082C5.0676 1.80269 5.16569 1.73868 5.23595 1.64882C5.30621 1.55896 5.34468 1.44833 5.34533 1.33426V0.571418H6.59388V1.33426C6.59469 1.44932 6.63398 1.56079 6.70548 1.65094C6.77698 1.74108 6.87659 1.80471 6.98845 1.83168C7.4076 1.93461 7.80846 2.10131 8.177 2.32596C8.27497 2.385 8.38982 2.4097 8.50341 2.39614C8.61699 2.38258 8.72281 2.33155 8.80413 2.2511L9.34697 1.71111L10.2287 2.59281L9.68868 3.13537C9.60803 3.21741 9.55709 3.32403 9.54394 3.43832C9.53079 3.55261 9.55619 3.66801 9.61611 3.76622C9.84118 4.13325 10.0072 4.53336 10.1081 4.95191C10.1351 5.06365 10.1987 5.16315 10.2888 5.23451C10.3789 5.30587 10.4903 5.34499 10.6052 5.34562H11.3681V6.59417H10.6052C10.485 6.59576 10.369 6.63878 10.2768 6.71597C10.1847 6.79316 10.1219 6.8998 10.0992 7.01787C10.0834 7.08973 10.0958 7.16494 10.134 7.22784C10.1722 7.29074 10.2332 7.33647 10.3043 7.35551C10.3754 7.37455 10.4511 7.36543 10.5156 7.33005C10.5801 7.29467 10.6285 7.23576 10.6507 7.16559H11.4255C11.5619 7.16543 11.6926 7.1112 11.789 7.01479C11.8854 6.91838 11.9396 6.78766 11.9398 6.65131V5.28848C11.9396 5.15213 11.8854 5.02141 11.789 4.92499C11.6926 4.82858 11.5619 4.77435 11.4255 4.7742H10.6532C10.5409 4.32777 10.3634 3.90033 10.1264 3.50565L10.6698 2.95938C10.7184 2.91194 10.7571 2.8553 10.7837 2.79276C10.8102 2.73022 10.824 2.66303 10.8243 2.5951C10.8247 2.52717 10.8115 2.45985 10.7855 2.39706C10.7596 2.33428 10.7214 2.27728 10.6732 2.22939L9.7104 1.26655C9.61411 1.17027 9.48355 1.11614 9.34738 1.11603C9.21121 1.11592 9.08057 1.16985 8.98412 1.26598L8.43385 1.8134C8.0386 1.5777 7.61132 1.40044 7.1653 1.28712V0.514277C7.16515 0.377928 7.11092 0.247208 7.0145 0.150795C6.91809 0.0543824 6.78737 0.000151246 6.65102 0H5.28848C5.15213 0.000151246 5.02141 0.0543824 4.92499 0.150795C4.82858 0.247208 4.77435 0.377928 4.7742 0.514277V1.28769C4.32817 1.40071 3.90088 1.57778 3.50565 1.8134L2.95595 1.26626C2.85992 1.17051 2.72985 1.11675 2.59424 1.11675C2.45863 1.11675 2.32856 1.17051 2.23253 1.26626L1.26341 2.23225C1.16923 2.32926 1.11678 2.45928 1.11726 2.59448C1.11774 2.72968 1.17112 2.85932 1.26598 2.95566L1.8134 3.50565C1.57756 3.90086 1.4002 4.32815 1.28683 4.7742H0.514276C0.377928 4.77435 0.247208 4.82858 0.150795 4.92499C0.0543824 5.02141 0.000151246 5.15213 0 5.28848V6.65131C0.000151246 6.78766 0.0543824 6.91838 0.150795 7.01479C0.247208 7.1112 0.377928 7.16543 0.514276 7.16559H1.28741C1.40047 7.61164 1.57765 8.03894 1.8134 8.43413L1.26683 8.98327C1.21917 9.03076 1.18135 9.08718 1.15554 9.14932C1.12972 9.21145 1.11642 9.27806 1.11639 9.34534C1.11636 9.41263 1.12961 9.47925 1.15538 9.5414C1.18115 9.60355 1.21893 9.66001 1.26655 9.70754L2.23225 10.6732C2.32823 10.769 2.45825 10.8228 2.59384 10.8229C2.72942 10.823 2.85952 10.7694 2.95566 10.6738L3.50594 10.1264C3.90099 10.3619 4.32809 10.539 4.77391 10.6521V11.4255C4.77407 11.5619 4.82834 11.6927 4.92481 11.7891C5.02129 11.8855 5.15208 11.9397 5.28848 11.9398H5.99418C6.06995 11.9398 6.14262 11.9097 6.1962 11.8561C6.24979 11.8025 6.27989 11.7299 6.27989 11.6541C6.27989 11.5783 6.24979 11.5056 6.1962 11.452C6.14262 11.3985 6.06967 11.3684 5.99389 11.3684Z" fill="#707070"/>
<path d="M15.6799 9.85134C15.6699 9.66349 15.5861 9.48719 15.4466 9.36089C15.3072 9.23458 15.1235 9.16851 14.9356 9.17707H12.6674V8.54565C12.6672 8.38581 12.6037 8.23256 12.4906 8.11954C12.3776 8.00652 12.2244 7.94296 12.0645 7.9428H10.1617C10.0019 7.94296 9.84861 8.00652 9.73559 8.11954C9.62256 8.23256 9.559 8.38581 9.55885 8.54565V9.17707H7.29089C7.10296 9.16851 6.91927 9.23458 6.77986 9.36089C6.64044 9.48719 6.5566 9.66349 6.54662 9.85134C6.55948 10.335 6.44548 11.0507 6.85233 11.4185V15.2555C6.85255 15.4529 6.93103 15.6421 7.07055 15.7817C7.21007 15.9212 7.39925 15.9998 7.5966 16.0001H14.6299C14.8272 15.9998 15.0163 15.9213 15.1558 15.7818C15.2954 15.6422 15.3739 15.4531 15.3742 15.2558V11.4187C15.7799 11.0533 15.6679 10.3325 15.6799 9.85134ZM10.1303 8.54565C10.1303 8.53734 10.1337 8.52939 10.1396 8.52351C10.1454 8.51763 10.1534 8.5143 10.1617 8.51422H12.0645C12.0728 8.5143 12.0808 8.51763 12.0867 8.52351C12.0925 8.52939 12.0959 8.53734 12.0959 8.54565V9.17707H10.1303V8.54565ZM14.8028 15.2555C14.8027 15.3014 14.7844 15.3453 14.752 15.3777C14.7196 15.4101 14.6757 15.4283 14.6299 15.4284H7.5966C7.55078 15.4283 7.50686 15.4101 7.47446 15.3777C7.44206 15.3453 7.42382 15.3014 7.42375 15.2555V11.7839C7.42375 11.7839 10.2028 12.7867 10.2174 12.7919V13.123C10.2174 13.3609 10.3119 13.5891 10.4802 13.7574C10.6484 13.9256 10.8766 14.0201 11.1145 14.0201C11.3525 14.0201 11.5807 13.9256 11.7489 13.7574C11.9171 13.5891 12.0117 13.3609 12.0117 13.123V12.7913L14.8028 11.7842V15.2555ZM11.44 13.123C11.44 13.2094 11.4056 13.2922 11.3446 13.3533C11.2835 13.4144 11.2006 13.4487 11.1143 13.4487C11.0279 13.4487 10.945 13.4144 10.8839 13.3533C10.8229 13.2922 10.7885 13.2094 10.7885 13.123V12.1773H11.44V13.123ZM15.1085 10.6688C15.0988 10.7985 15.0494 10.9221 14.9672 11.0229C14.8849 11.1236 14.7736 11.1967 14.6485 11.2322L12.0114 12.1859V11.8916C12.0112 11.8159 11.981 11.7433 11.9274 11.6898C11.8739 11.6363 11.8014 11.6061 11.7257 11.6059H10.5028C10.4653 11.6058 10.4281 11.6131 10.3934 11.6274C10.3586 11.6417 10.3271 11.6628 10.3006 11.6893C10.274 11.7159 10.253 11.7474 10.2386 11.7821C10.2243 11.8168 10.217 11.854 10.2171 11.8916V12.1867L7.57889 11.2325C7.4536 11.1971 7.34222 11.124 7.25979 11.0233C7.17737 10.9225 7.12788 10.7989 7.11804 10.669V9.85134C7.11804 9.80391 7.19346 9.74849 7.29089 9.74849H14.9356C15.0328 9.74849 15.1085 9.80363 15.1085 9.85134V10.6688ZM7.28203 4.93314L5.70149 6.56797L5.11122 5.67485C5.06845 5.61404 5.00368 5.57229 4.93063 5.55847C4.85759 5.54464 4.78204 5.55983 4.72001 5.60081C4.65799 5.64179 4.61438 5.70533 4.59844 5.77794C4.5825 5.85055 4.59549 5.92651 4.63465 5.9897L5.42092 7.17996C5.4445 7.21564 5.47579 7.24557 5.51248 7.26755C5.54917 7.28953 5.59033 7.30299 5.63291 7.30693C5.6755 7.31088 5.71843 7.30522 5.75853 7.29037C5.79864 7.27551 5.83489 7.25184 5.86463 7.2211L7.6926 5.33028C7.74288 5.2754 7.76976 5.20306 7.76752 5.12866C7.76527 5.05425 7.73408 4.98367 7.68058 4.93191C7.62708 4.88016 7.55549 4.85133 7.48106 4.85156C7.40662 4.85179 7.33521 4.88106 7.28203 4.93314Z" fill="#707070"/>
</g>
<defs>
<clipPath id="clip0_10608_3337">
<rect width="16" height="16" fill="white"/>
</clipPath>
</defs>
</svg>
