<svg width="17" height="19" viewBox="0 0 17 19" fill="none" xmlns="http://www.w3.org/2000/svg">
<path d="M15.4188 5.70114C15.7646 5.35532 16.072 5.13246 16.072 4.61373C16.0797 4.02199 15.6032 3.53784 15.0115 3.53015C14.7156 3.52631 14.4351 3.64543 14.2276 3.85676L13.9202 4.16416C12.7636 3.25734 11.3803 2.68865 9.92405 2.52343V2.15455C10.5196 2.11228 10.9654 1.59739 10.9231 1.00181C10.8808 0.406232 10.3659 -0.0394933 9.77035 0.0027738H8.23337C7.63779 -0.0394933 7.1229 0.406232 7.08063 1.00181C7.03836 1.59739 7.48409 2.11228 8.07967 2.15455V2.52343C6.61953 2.6925 5.23625 3.26502 4.08351 4.17184L3.77612 3.86445C3.36113 3.44178 2.67717 3.43409 2.2545 3.84908C1.83183 4.26406 1.82415 4.94802 2.23913 5.37069L2.57343 5.70114C-1.31514 10.9384 2.4351 18.4466 9.00186 18.4466C15.5686 18.4466 19.315 10.9269 15.4188 5.70114ZM14.681 4.30633C14.8578 4.12573 15.146 4.12189 15.3227 4.29864C15.4072 4.38318 15.4572 4.49461 15.461 4.61373C15.461 4.729 15.4111 4.84043 15.3265 4.92112C15.0191 5.22852 15.0576 5.22852 15.0191 5.18625C14.827 4.96339 14.6195 4.75205 14.4044 4.55225L14.681 4.30633ZM8.23721 0.617567H9.77419C10.0278 0.617567 10.2353 0.82506 10.2353 1.07866C10.2353 1.33226 10.0278 1.53976 9.77419 1.53976H8.23721C7.98361 1.53976 7.77611 1.33226 7.77611 1.07866C7.77611 0.82506 7.98361 0.617567 8.23721 0.617567ZM8.69831 2.46195V2.15455H9.3131V2.46195H8.69831ZM3.33039 4.30633C3.63779 4.61373 3.61473 4.57146 3.58399 4.59836C3.36881 4.79048 3.16132 4.99797 2.9692 5.21315L2.69254 4.92112C2.55806 4.70979 2.61569 4.43313 2.82703 4.2948C2.98073 4.1949 3.18053 4.19874 3.33039 4.30633ZM14.6426 15.2228C12.0143 18.339 7.36113 18.7309 4.2449 16.1065C3.92597 15.8376 3.6301 15.5417 3.36113 15.2228C-0.692664 10.412 2.76555 3.07674 9.0057 3.07674C15.2459 3.07674 18.7041 10.4082 14.6426 15.2074V15.2228Z" fill="#1E866F"/>
<path d="M14.0546 6.4353C11.8336 3.64567 7.77216 3.18457 4.98253 5.40552C4.60213 5.70907 4.25631 6.05489 3.95275 6.4353C0.598287 10.6428 3.59925 16.9098 9.00559 16.9098C14.4119 16.9098 17.4167 10.6428 14.0546 6.4353ZM13.4667 14.2201C11.3841 16.6831 7.69531 16.9867 5.23613 14.9041C4.99022 14.6966 4.75967 14.466 4.55218 14.2201C1.31683 10.4199 4.06418 4.61397 9.00174 4.61397C13.9393 4.61397 16.6905 10.4161 13.4667 14.2201Z" fill="#1E866F"/>
<path d="M9.00577 5.84526C9.17484 5.84526 9.31317 5.70693 9.31317 5.53787C9.31317 5.3688 9.17484 5.23047 9.00577 5.23047C8.83671 5.23047 8.69838 5.3688 8.69838 5.53787C8.69838 5.70693 8.83671 5.84526 9.00577 5.84526ZM9.00577 15.0672C8.83671 15.0672 8.69838 15.2055 8.69838 15.3746C8.69838 15.5436 8.83671 15.682 9.00577 15.682C9.17484 15.682 9.31317 15.5436 9.31317 15.3746C9.31317 15.2055 9.17484 15.0672 9.00577 15.0672ZM13.9241 10.1488C13.7551 10.1488 13.6167 10.2871 13.6167 10.4562C13.6167 10.6253 13.7551 10.7636 13.9241 10.7636C14.0932 10.7636 14.2315 10.6253 14.2315 10.4562C14.2315 10.2871 14.0932 10.1488 13.9241 10.1488ZM4.08743 10.1488C3.91836 10.1488 3.78003 10.2871 3.78003 10.4562C3.78003 10.6253 3.91836 10.7636 4.08743 10.7636C4.25649 10.7636 4.39482 10.6253 4.39482 10.4562C4.39482 10.2871 4.25649 10.1488 4.08743 10.1488ZM5.31701 6.76745C5.20558 6.8981 5.22095 7.09022 5.35159 7.20165C5.46687 7.30155 5.63594 7.30155 5.75121 7.20165C5.86264 7.07101 5.84727 6.87888 5.71663 6.76745C5.60135 6.66755 5.43229 6.66755 5.31701 6.76745ZM12.268 13.7185C12.172 13.8568 12.2065 14.0489 12.3487 14.145C12.4525 14.218 12.5908 14.218 12.6945 14.145C12.7906 14.0066 12.756 13.8145 12.6138 13.7185C12.5101 13.6455 12.3718 13.6455 12.268 13.7185ZM12.268 6.76745C12.172 6.90578 12.2065 7.0979 12.3487 7.19397C12.4525 7.26697 12.5908 7.26697 12.6945 7.19397C12.7906 7.05564 12.756 6.86351 12.6138 6.76745C12.5101 6.69445 12.3718 6.69445 12.268 6.76745ZM5.31701 13.7185C5.22095 13.8568 5.25553 14.0489 5.3977 14.145C5.50145 14.218 5.63978 14.218 5.74353 14.145C5.83959 14.0066 5.80501 13.8145 5.66283 13.7185C5.55909 13.6455 5.42076 13.6455 5.31701 13.7185ZM9.31317 9.58782V7.07485C9.31317 6.90578 9.17484 6.76745 9.00577 6.76745C8.83671 6.76745 8.69838 6.90578 8.69838 7.07485V9.58782C8.21807 9.75689 7.96831 10.2833 8.13738 10.7636C8.30645 11.2439 8.83286 11.4937 9.31317 11.3246C9.79348 11.1555 10.0432 10.6291 9.87417 10.1488C9.78195 9.88753 9.57446 9.68004 9.31317 9.58782ZM9.00577 10.7636C8.83671 10.7636 8.69838 10.6253 8.69838 10.4562C8.69838 10.2871 8.83671 10.1488 9.00577 10.1488C9.17484 10.1488 9.31317 10.2871 9.31317 10.4562C9.31317 10.6253 9.17484 10.7636 9.00577 10.7636Z" fill="#1E866F"/>
</svg>
