<svg width="14" height="14" viewBox="0 0 14 14" fill="none" xmlns="http://www.w3.org/2000/svg">
<path d="M11.6667 3.5013C12.0051 3.5013 12.2792 3.61797 12.4951 3.84547C12.7167 4.08464 12.8334 4.34714 12.8334 4.66797V11.0846C12.8334 11.4055 12.7167 11.668 12.4951 11.9071C12.2792 12.1346 12.0051 12.2513 11.6667 12.2513H2.33341C1.99508 12.2513 1.72091 12.1346 1.50508 11.9071C1.28341 11.668 1.16675 11.4055 1.16675 11.0846V4.66797C1.16675 4.34714 1.28341 4.08464 1.50508 3.84547C1.72091 3.61797 1.99508 3.5013 2.33341 3.5013H4.66675V2.33464C4.66675 1.9963 4.78341 1.72214 5.00508 1.5063C5.22091 1.28464 5.49508 1.16797 5.83342 1.16797H8.16675C8.50508 1.16797 8.77925 1.28464 8.99508 1.5063C9.21675 1.72214 9.33342 1.9963 9.33342 2.33464V3.5013H11.6667ZM2.33341 4.66797V11.0846H11.6667V4.66797H2.33341ZM8.16675 3.5013V2.33464H5.83342V3.5013H8.16675Z" fill="#1E866F"/>
</svg>
