<svg width="23" height="23" viewBox="0 0 23 23" fill="none" xmlns="http://www.w3.org/2000/svg">
<path d="M11.6573 15.2527L15.8962 12.2351C16.4188 11.8653 16.8454 11.3757 17.1402 10.8073C17.4351 10.239 17.5896 9.60828 17.5909 8.96798V2.76028C17.5909 2.72294 17.5801 2.6864 17.5597 2.65514C17.5392 2.62388 17.5101 2.59927 17.4759 2.58433L11.5342 0.0160013C11.51 0.00544747 11.4839 0 11.4576 0C11.4312 0 11.4051 0.00544747 11.3809 0.0160013L5.43922 2.58433C5.40499 2.59927 5.37588 2.62388 5.35545 2.65514C5.33502 2.6864 5.32416 2.72294 5.32422 2.76028V8.97028C5.3255 9.61062 5.48005 10.2414 5.77495 10.8097C6.06985 11.3781 6.49653 11.8677 7.01932 12.2374L11.2582 15.255C11.3168 15.296 11.3866 15.3178 11.4581 15.3174C11.5296 15.317 11.5992 15.2944 11.6573 15.2527Z" fill="#1E866F"/>
<path d="M7.90814 10.987C7.58509 10.7585 7.32123 10.4562 7.13849 10.1052C6.95574 9.75428 6.85938 9.36478 6.85742 8.9691V3.64307L11.4574 1.65625L16.0574 3.64307V8.9714C16.0555 9.36709 15.9591 9.7566 15.7764 10.1076C15.5937 10.4585 15.3298 10.7608 15.0067 10.9893L11.4574 13.5158L7.90814 10.987Z" fill="#E5F4EF"/>
<path d="M10.5801 10.0071C10.4972 10.0071 10.4165 9.98021 10.3501 9.93044L8.59791 8.61599C8.55764 8.58579 8.52371 8.54795 8.49806 8.50463C8.47242 8.46132 8.45555 8.41337 8.44843 8.36354C8.44131 8.3137 8.44408 8.26295 8.45657 8.21419C8.46907 8.16542 8.49104 8.1196 8.52125 8.07933C8.55145 8.03905 8.58929 8.00513 8.63261 7.97948C8.67592 7.95383 8.72387 7.93696 8.7737 7.92985C8.82354 7.92273 8.87428 7.92549 8.92305 7.93799C8.97181 7.95048 9.01764 7.97246 9.05791 8.00266L10.5146 9.09439L13.7871 5.00346C13.8185 4.96412 13.8574 4.93135 13.9015 4.90704C13.9456 4.88272 13.9941 4.86733 14.0441 4.86174C14.0942 4.85616 14.1448 4.86048 14.1932 4.87447C14.2416 4.88846 14.2867 4.91184 14.3261 4.94328C14.3654 4.97471 14.3982 5.01359 14.4225 5.05769C14.4468 5.10179 14.4622 5.15025 14.4678 5.20029C14.4734 5.25034 14.469 5.301 14.4551 5.34938C14.4411 5.39775 14.4177 5.4429 14.3862 5.48224L10.881 9.86221C10.8451 9.9075 10.7993 9.94406 10.7472 9.96915C10.6951 9.99425 10.638 10.0072 10.5801 10.0071Z" fill="#FF9900"/>
<path d="M5.48788 16.3843L3.73681 14.6329C3.36122 14.2573 3.06069 13.8135 2.85132 13.3253L1.99341 11.3247C1.92874 11.1739 1.82128 11.0454 1.68434 10.9551C1.54739 10.8648 1.38697 10.8165 1.22291 10.8164C1.08264 10.8166 0.944661 10.852 0.821584 10.9193C0.698508 10.9866 0.594263 11.0836 0.518384 11.2016C0.442504 11.3196 0.39741 11.4547 0.387225 11.5946C0.37704 11.7345 0.402089 11.8747 0.460081 12.0024L1.96236 15.3075C2.1466 15.7127 2.40213 16.0814 2.71676 16.3962L5.48788 19.1681H9.20008V18.0714C9.2126 17.2505 8.94608 16.4497 8.44415 15.8001C8.16362 15.43 7.78152 15.1493 7.34437 14.9924C6.49337 14.6333 5.70896 14.1333 5.02405 13.5135C4.76021 13.2933 4.42339 13.1799 4.08007 13.1958C3.73674 13.2117 3.41184 13.3557 3.16948 13.5994M17.5115 16.3843L19.263 14.6329C19.6386 14.2573 19.9391 13.8135 20.1485 13.3253L21.0067 11.3247C21.0715 11.1738 21.1791 11.0452 21.3161 10.9549C21.4532 10.8645 21.6138 10.8164 21.778 10.8164C21.9182 10.8167 22.0561 10.8522 22.1791 10.9195C22.3021 10.9869 22.4062 11.084 22.482 11.2019C22.5578 11.3199 22.6028 11.4549 22.613 11.5948C22.6231 11.7346 22.598 11.8748 22.5401 12.0024L21.0378 15.3075C20.8536 15.7127 20.598 16.0814 20.2834 16.3962L17.5115 19.1681H13.8001V18.0714C13.7877 17.2505 14.0543 16.4497 14.5564 15.8001C14.8369 15.43 15.219 15.1493 15.6562 14.9924C16.5071 14.6333 17.2913 14.1333 17.9761 13.5135C18.2401 13.2933 18.5769 13.18 18.9203 13.1959C19.2636 13.2118 19.5886 13.3558 19.8311 13.5994" fill="#FFE9D1"/>
<path d="M13.4168 23H17.6335C17.8452 23 18.0168 22.8284 18.0168 22.6167V19.55C18.0168 19.3383 17.8452 19.1667 17.6335 19.1667H13.4168C13.2051 19.1667 13.0335 19.3383 13.0335 19.55V22.6167C13.0335 22.8284 13.2051 23 13.4168 23Z" fill="#1E866F"/>
<path d="M14.95 21.4659H14.5667C14.465 21.4659 14.3675 21.4255 14.2956 21.3536C14.2237 21.2817 14.1833 21.1842 14.1833 21.0826C14.1833 20.9809 14.2237 20.8834 14.2956 20.8115C14.3675 20.7396 14.465 20.6992 14.5667 20.6992H14.95C15.0517 20.6992 15.1492 20.7396 15.2211 20.8115C15.293 20.8834 15.3333 20.9809 15.3333 21.0826C15.3333 21.1842 15.293 21.2817 15.2211 21.3536C15.1492 21.4255 15.0517 21.4659 14.95 21.4659Z" fill="#E5F4EF"/>
<path d="M9.58291 19.168H5.36624C5.15453 19.168 4.98291 19.3396 4.98291 19.5513V22.618C4.98291 22.8297 5.15453 23.0013 5.36624 23.0013H9.58291C9.79462 23.0013 9.96624 22.8297 9.96624 22.618V19.5513C9.96624 19.3396 9.79462 19.168 9.58291 19.168Z" fill="#1E866F"/>
<path d="M8.43341 21.4659H8.05008C7.94842 21.4659 7.85091 21.4255 7.77902 21.3536C7.70713 21.2817 7.66675 21.1842 7.66675 21.0826C7.66675 20.9809 7.70713 20.8834 7.77902 20.8115C7.85091 20.7396 7.94842 20.6992 8.05008 20.6992H8.43341C8.53508 20.6992 8.63258 20.7396 8.70447 20.8115C8.77636 20.8834 8.81675 20.9809 8.81675 21.0826C8.81675 21.1842 8.77636 21.2817 8.70447 21.3536C8.63258 21.4255 8.53508 21.4659 8.43341 21.4659Z" fill="#E5F4EF"/>
<path d="M6.1027 16.478C6.03004 16.5492 5.93232 16.5891 5.83053 16.5891C5.72875 16.5891 5.63103 16.5492 5.55837 16.478L3.80653 14.7261C3.55157 14.471 3.32768 14.1867 3.13953 13.879C3.10615 13.8236 3.07419 13.7673 3.0437 13.7103L3.18937 13.5761C3.3266 13.4381 3.49297 13.3319 3.6762 13.2656C3.85309 13.6048 4.08059 13.915 4.35087 14.1856L6.1027 15.9336C6.2522 16.0843 6.2522 16.3273 6.1027 16.478ZM16.9273 16.478C16.9999 16.5492 17.0977 16.5891 17.1994 16.5891C17.3012 16.5891 17.3989 16.5492 17.4716 16.478L19.2234 14.7261C19.4784 14.471 19.7023 14.1867 19.8904 13.879C19.9249 13.8215 19.9556 13.7678 19.9863 13.7103L19.8406 13.5761C19.7032 13.4379 19.537 13.3319 19.3538 13.2656C19.1769 13.6048 18.9494 13.915 18.6791 14.1856L16.9273 15.9336C16.8555 16.006 16.8152 16.1038 16.8152 16.2058C16.8152 16.3078 16.8555 16.4056 16.9273 16.478Z" fill="#FFC9B6"/>
</svg>
