<svg width="18" height="18" viewBox="0 0 18 18" fill="none" xmlns="http://www.w3.org/2000/svg">
<path d="M1 8.67773V6.82364C1 6.46742 1.28756 6.17986 1.64378 6.17986H3.61375" stroke="#1E866F" stroke-width="0.6" stroke-miterlimit="10" stroke-linecap="round" stroke-linejoin="round"/>
<path d="M12.4679 11.2918V16.3562C12.4679 16.7124 12.1803 17 11.8241 17H1.64378C1.28756 17 1 16.7124 1 16.3562V9.81969" stroke="#1E866F" stroke-width="0.6" stroke-miterlimit="10" stroke-linecap="round" stroke-linejoin="round"/>
<path d="M8.7815 9.42455V10.4503C8.7815 10.7808 8.51541 11.0469 8.18493 11.0469H7.91884C7.58836 11.0469 7.32227 10.7808 7.32227 10.4503V9.56189" stroke="#1E866F" stroke-width="0.6" stroke-miterlimit="10" stroke-linecap="round" stroke-linejoin="round"/>
<path d="M10.2444 9.99575V10.4464C10.2444 10.7769 9.9783 11.043 9.64782 11.043H9.38173C9.05125 11.043 8.78516 10.7769 8.78516 10.4464V9.50219" stroke="#1E866F" stroke-width="0.6" stroke-miterlimit="10" stroke-linecap="round" stroke-linejoin="round"/>
<path d="M14.4509 5.70703H13.4423C13.159 5.70703 12.8843 5.62978 12.644 5.47956L10.8457 4.35509" stroke="#1E866F" stroke-width="0.6" stroke-miterlimit="10" stroke-linecap="round" stroke-linejoin="round"/>
<path d="M8.66125 4.33767H7.03463C6.42947 4.33767 5.87153 4.66385 5.57539 5.18746L4.33933 7.37632C4.08181 7.83126 4.41229 8.3892 4.93161 8.3892H5.39942V8.61238C5.39942 9.05874 5.75994 9.41925 6.20629 9.41925H8.82863C8.92734 9.41925 9.02606 9.44071 9.11619 9.47934L10.2707 9.99007C10.5625 10.1188 10.8801 10.1875 11.202 10.1875H13.1892C13.4124 10.1875 13.6355 10.1532 13.8501 10.0888L14.4467 9.90853" stroke="#1E866F" stroke-width="0.6" stroke-miterlimit="10" stroke-linecap="round" stroke-linejoin="round"/>
<path d="M7.41579 9.42524L6.37287 10.9746L4.875 9.96602L5.50161 9.03897" stroke="#1E866F" stroke-width="0.6" stroke-miterlimit="10" stroke-linecap="round" stroke-linejoin="round"/>
<path d="M6.42969 7.65234L10.8203 1.14157C10.919 0.995643 11.1207 0.957016 11.2666 1.05573L12.2323 1.70809C12.3782 1.80681 12.4169 2.00853 12.3181 2.15445L8.60996 7.65234" stroke="#1E866F" stroke-width="0.6" stroke-miterlimit="10" stroke-linecap="round" stroke-linejoin="round"/>
<path d="M4.87176 9.96218L4.46832 10.5588C4.41682 10.636 4.38248 10.7218 4.36531 10.8163L4.15072 12.121C4.1078 12.3914 4.39965 12.5931 4.6357 12.4472L5.76447 11.7605C5.84172 11.7133 5.91039 11.6489 5.96189 11.5716L6.36533 10.9751L4.87176 9.96218Z" stroke="#1E866F" stroke-width="0.6" stroke-miterlimit="10" stroke-linecap="round" stroke-linejoin="round"/>
<path d="M10.3047 1.90547L11.8026 2.91406" stroke="#1E866F" stroke-width="0.6" stroke-miterlimit="10" stroke-linecap="round" stroke-linejoin="round"/>
<path d="M10.7293 6.90014L10.1027 7.47096C9.97396 7.59113 9.80229 7.65551 9.62632 7.65551H6.0984C5.71213 7.65551 5.39453 7.96881 5.39453 8.35938" stroke="#1E866F" stroke-width="0.6" stroke-miterlimit="10" stroke-linecap="round" stroke-linejoin="round"/>
<path d="M17.0005 6.36816V5.05484C17.0005 4.87888 16.8546 4.73295 16.6787 4.73295H14.7731C14.5971 4.73295 14.4512 4.87888 14.4512 5.05484V10.9047C14.4512 11.0806 14.5971 11.2266 14.7731 11.2266H16.6787C16.8546 11.2266 17.0005 11.0806 17.0005 10.9047V7.63855" stroke="#1E866F" stroke-width="0.6" stroke-miterlimit="10" stroke-linecap="round" stroke-linejoin="round"/>
<path d="M2.95358 12.4941H2.33984" stroke="#1E866F" stroke-width="0.6" stroke-miterlimit="10" stroke-linecap="round" stroke-linejoin="round"/>
<path d="M11.0566 13.7773H2.33984" stroke="#1E866F" stroke-width="0.6" stroke-miterlimit="10" stroke-linecap="round" stroke-linejoin="round"/>
<path d="M11.0566 15.0645H2.33984" stroke="#1E866F" stroke-width="0.6" stroke-miterlimit="10" stroke-linecap="round" stroke-linejoin="round"/>
</svg>
